<?xml version="1.0" encoding="utf-8"?>
<!-- Generator: Adobe Illustrator 17.1.0, SVG Export Plug-In . SVG Version: 6.00 Build 0)  -->
<!DOCTYPE svg PUBLIC "-//W3C//DTD SVG 1.1//EN" "http://www.w3.org/Graphics/SVG/1.1/DTD/svg11.dtd">
<svg version="1.1" id="Layer_1" xmlns="http://www.w3.org/2000/svg" xmlns:xlink="http://www.w3.org/1999/xlink" x="0px" y="0px"
	 viewBox="17.5 12.2 13 22.3" enable-background="new 17.5 12.2 13 22.3" xml:space="preserve">
<path fill="#FFFFFF" opacity="0.8" d="M22.3,14c-1.2,1.2-1.8,2.8-1.9,4.5v1.8h-2.2c-0.2,0-0.4,0.1-0.5,0.2c-0.1,0.1-0.2,0.3-0.2,0.5v5.6
	c0,0.2,0.1,0.4,0.2,0.5c0.1,0.1,0.3,0.2,0.5,0.2h2.2v6.4c0,0.1,0,0.2,0.1,0.3c0,0.1,0.1,0.2,0.2,0.2c0.1,0.1,0.2,0.1,0.2,0.2
	c0.1,0,0.2,0.1,0.3,0.1h5.6c0.1,0,0.2,0,0.3-0.1c0.1,0,0.2-0.1,0.2-0.2c0.1-0.1,0.1-0.2,0.2-0.2c0-0.1,0.1-0.2,0.1-0.3v-6.4h2.2
	c0.2,0,0.4-0.1,0.5-0.2c0.1-0.1,0.2-0.3,0.2-0.5V21c0-0.2-0.1-0.4-0.2-0.5c-0.1-0.1-0.3-0.2-0.5-0.2h-2.2v-0.8c0-0.1,0-0.1,0.1-0.2
	c0,0,0.1-0.1,0.2-0.1h2c0.2,0,0.4-0.1,0.5-0.2c0.1-0.1,0.2-0.3,0.2-0.5v-5.6c0-0.2-0.1-0.4-0.2-0.5c-0.1-0.1-0.3-0.2-0.5-0.2h-3
	C25.1,12.2,23.5,12.9,22.3,14z M18.1,20.5c-0.1,0-0.2,0.1-0.3,0.1c-0.1,0.1-0.2,0.2-0.2,0.4v5.6c0,0.1,0.1,0.3,0.2,0.4
	c0.1,0.1,0.2,0.2,0.4,0.2h2.4v6.6c0,0.1,0,0.1,0,0.2c0,0.1,0.1,0.1,0.1,0.2c0,0,0.1,0.1,0.2,0.1c0.1,0,0.1,0,0.2,0h5.6
	c0,0,0.1,0,0.1,0c0,0-0.1,0-0.1,0h-5.6c-0.1,0-0.1,0-0.2,0c-0.1,0-0.1-0.1-0.2-0.1c0,0-0.1-0.1-0.1-0.2c0-0.1,0-0.1,0-0.2v-6.6h-2.4
	c-0.1,0-0.3-0.1-0.4-0.2c-0.1-0.1-0.2-0.2-0.2-0.4V21c0-0.1,0.1-0.3,0.2-0.4C18,20.6,18,20.6,18.1,20.5z M27.3,27.1h2.4
	c0,0,0.1,0,0.1,0c0,0-0.1,0-0.1,0L27.3,27.1L27.3,27.1z M27.6,19C27.7,19,27.7,19,27.6,19l2.1,0c0,0,0.1,0,0.1,0c0,0-0.1,0-0.1,0
	L27.6,19C27.7,19,27.7,19,27.6,19z M25.5,12.6c-1.1,0.2-2.2,0.8-3,1.6c-1.1,1.1-1.8,2.7-1.8,4.3v2h0v-2c0-1.6,0.6-3.2,1.8-4.3
	C23.3,13.4,24.3,12.8,25.5,12.6z M26.3,33.2L26.3,33.2l0-6.6c0-0.1,0.1-0.3,0.2-0.4c0.1-0.1,0.2-0.1,0.3-0.1c-0.1,0-0.2,0.1-0.3,0.1
	c-0.1,0.1-0.2,0.2-0.2,0.4V33.2z M29.2,26.1L29.2,26.1l0-4.5h-2.4c-0.1,0-0.3-0.1-0.4-0.2c-0.1-0.1-0.2-0.2-0.2-0.4v-1.6
	c0-0.4,0.2-0.8,0.4-1c0.2-0.2,0.5-0.3,0.7-0.4c-0.3,0.1-0.5,0.2-0.7,0.4c-0.3,0.3-0.4,0.7-0.4,1V21c0,0.1,0.1,0.3,0.2,0.4
	c0.1,0.1,0.2,0.2,0.4,0.2h2.4V26.1z M29.2,18L29.2,18l0-4.5h-2.4c-0.4,0-0.7,0-1.1,0.1c0.4-0.1,0.7-0.1,1.1-0.1h2.4V18z M21.3,21.5
	c0,0-0.1,0-0.1,0h-2.4v0h2.4C21.2,21.6,21.3,21.5,21.3,21.5z M21.2,25.9H19v-4.1h2.2c0.2,0,0.4-0.1,0.5-0.2c0.1-0.1,0.2-0.3,0.2-0.5
	v-2.5c0-1.3,0.5-2.5,1.4-3.4c0.9-0.9,2.1-1.4,3.4-1.4H29v4.1h-1.3c-0.5,0-0.9,0.2-1.2,0.5C26.2,18.6,26,19,26,19.5V21
	c0,0.2,0.1,0.4,0.2,0.5c0.1,0.1,0.3,0.2,0.5,0.2H29v4.1h-2.2c-0.2,0-0.4,0.1-0.5,0.2c-0.1,0.1-0.2,0.3-0.2,0.5V33h-4.1l0-6.4
	c0-0.2-0.1-0.4-0.2-0.5C21.6,25.9,21.4,25.9,21.2,25.9z"/>
</svg>
