<svg width="64" height="64" viewBox="0 0 64 64" fill="none" xmlns="http://www.w3.org/2000/svg">
<g opacity="0.8">
<path fill-rule="evenodd" clip-rule="evenodd" d="M29.7502 18.716C28.1723 20.2939 27.2847 22.4333 27.2822 24.6648V27.059H24.3322C24.0703 27.059 23.8191 27.1631 23.634 27.3483C23.4488 27.5335 23.3447 27.7846 23.3447 28.0465V35.4762C23.3447 35.7381 23.4488 35.9892 23.634 36.1744C23.8192 36.3596 24.0703 36.4637 24.3322 36.4637H27.2822V44.9671C27.2822 45.0968 27.3078 45.2252 27.3574 45.345C27.407 45.4649 27.4798 45.5737 27.5715 45.6654C27.6631 45.7571 27.772 45.8298 27.8918 45.8795C28.0116 45.9291 28.14 45.9546 28.2697 45.9546H35.6993C35.829 45.9546 35.9574 45.9291 36.0772 45.8795C36.197 45.8298 36.3059 45.7571 36.3976 45.6654C36.4893 45.5737 36.562 45.4649 36.6117 45.345C36.6613 45.2252 36.6868 45.0968 36.6868 44.9671V36.4637H39.6368C39.8987 36.4637 40.1499 36.3596 40.3351 36.1744C40.5203 35.9892 40.6243 35.7381 40.6243 35.4762V28.0467C40.6243 27.7848 40.5203 27.5336 40.3351 27.3484C40.1499 27.1632 39.8987 27.0592 39.6368 27.0592H36.6868V25.947C36.6869 25.869 36.718 25.7942 36.7731 25.7391C36.8283 25.6839 36.9031 25.6529 36.9811 25.6528H39.6368C39.8987 25.6528 40.1499 25.5487 40.3351 25.3636C40.5203 25.1784 40.6243 24.9272 40.6243 24.6653V17.2355C40.6243 16.9736 40.5203 16.7225 40.3351 16.5373C40.1499 16.3521 39.8987 16.248 39.6368 16.248H35.699C33.4675 16.2506 31.3281 17.1381 29.7502 18.716ZM24.1671 27.3792C24.0466 27.409 23.9353 27.4712 23.8461 27.5604C23.7172 27.6893 23.6447 27.8642 23.6447 28.0465V35.4762C23.6447 35.6585 23.7172 35.8334 23.8461 35.9623C23.975 36.0912 24.1499 36.1637 24.3322 36.1637H27.5822V44.9671C27.5822 45.0574 27.6 45.1468 27.6346 45.2302C27.6691 45.3137 27.7197 45.3894 27.7836 45.4533C27.8474 45.5171 27.9232 45.5678 28.0066 45.6023C28.09 45.6369 28.1794 45.6546 28.2697 45.6546H35.6993C35.7552 45.6546 35.8107 45.6478 35.8647 45.6345C35.811 45.6477 35.7557 45.6545 35.7001 45.6545H28.2705C28.1802 45.6545 28.0908 45.6367 28.0074 45.6021C27.924 45.5676 27.8482 45.5169 27.7844 45.4531C27.7205 45.3892 27.6699 45.3135 27.6353 45.23C27.6008 45.1466 27.583 45.0572 27.583 44.967V36.1635H24.333C24.1507 36.1635 23.9758 36.091 23.8469 35.9621C23.7179 35.8332 23.6455 35.6583 23.6455 35.476V28.0463C23.6455 27.864 23.7179 27.6891 23.8469 27.5602C23.9359 27.4712 24.0469 27.4091 24.1671 27.3792ZM36.3876 36.1637H39.6368C39.6932 36.1637 39.7489 36.1567 39.8028 36.1433C39.7492 36.1566 39.6937 36.1635 39.6376 36.1635H36.3876V36.1637ZM36.84 25.3698C36.8857 25.3587 36.933 25.3528 36.9808 25.3528H39.6368C39.6932 25.3528 39.7489 25.3459 39.8028 25.3325C39.7492 25.3457 39.6937 25.3526 39.6376 25.3526H36.9816C36.9335 25.3526 36.886 25.3585 36.84 25.3698ZM33.7401 16.79C32.322 17.1441 31.0131 17.8774 29.9623 18.9282C28.4406 20.4499 27.5846 22.5131 27.5822 24.6652V27.3588H27.583V24.665C27.5854 22.5129 28.4414 20.4497 29.9631 18.928C31.0137 17.8774 32.3223 17.1442 33.7401 16.79ZM35.0118 44.2795H35.0126V35.476C35.0126 35.2936 35.085 35.1188 35.214 34.9898C35.303 34.9008 35.414 34.8387 35.5342 34.8088C35.4137 34.8386 35.3024 34.9008 35.2132 34.99C35.0843 35.1189 35.0118 35.2938 35.0118 35.4762V44.2795ZM38.9493 34.7885H38.9501V28.7338H35.7001C35.5178 28.7338 35.3429 28.6614 35.214 28.5325C35.085 28.4035 35.0126 28.2287 35.0126 28.0463V25.9463C35.0132 25.4243 35.2209 24.9239 35.59 24.5548C35.8444 24.3004 36.1612 24.1227 36.5044 24.0366C36.1609 24.1226 35.8438 24.3004 35.5892 24.5549C35.2201 24.9241 35.0124 25.4245 35.0118 25.9465V28.0465C35.0118 28.2289 35.0843 28.4037 35.2132 28.5327C35.3421 28.6616 35.517 28.734 35.6993 28.734H38.9493V34.7885ZM38.9505 23.9775H38.9512V17.9228H35.7012C35.1478 17.9235 34.6013 17.9921 34.0732 18.1241C34.6011 17.9922 35.1472 17.9237 35.7005 17.923H38.9505V23.9775ZM28.4368 28.7137C28.3829 28.7271 28.3272 28.734 28.2708 28.734H25.0216V28.7338H28.2716C28.3278 28.7338 28.3832 28.727 28.4368 28.7137ZM28.2708 34.4887H25.3208V29.034H28.2708C28.5327 29.034 28.7839 28.93 28.9691 28.7448C29.1543 28.5596 29.2583 28.3084 29.2583 28.0465V24.6655C29.2603 22.9575 29.9397 21.32 31.1475 20.1122C32.3552 18.9045 33.9926 18.2251 35.7006 18.223H38.6505V23.6777L36.9805 23.6777C36.379 23.6783 35.8024 23.9175 35.3771 24.3428C34.9518 24.7681 34.7125 25.3451 34.7118 25.9465V28.0465C34.7118 28.3084 34.8159 28.5596 35.0011 28.7448C35.1863 28.93 35.4374 29.034 35.6993 29.034H38.6493V34.4887H35.6993C35.4374 34.4887 35.1863 34.5927 35.0011 34.7779C34.8159 34.9631 34.7118 35.2143 34.7118 35.4762V43.9796H29.2573L29.2583 35.4762C29.2583 35.2143 29.1543 34.9631 28.9691 34.7779C28.7839 34.5927 28.5327 34.4887 28.2708 34.4887Z" fill="#31394D"/>
</g>
</svg>
