<?xml version="1.0" encoding="utf-8"?>
<!-- Generator: Adobe Illustrator 17.1.0, SVG Export Plug-In . SVG Version: 6.00 Build 0)  -->
<!DOCTYPE svg PUBLIC "-//W3C//DTD SVG 1.1//EN" "http://www.w3.org/Graphics/SVG/1.1/DTD/svg11.dtd">
<svg version="1.1" id="Layer_1" xmlns="http://www.w3.org/2000/svg" xmlns:xlink="http://www.w3.org/1999/xlink" x="0px" y="0px"
	 viewBox="10.8 15 31.1 32.3" enable-background="new 21.8 15 21.1 32.3" xml:space="preserve">
<g opacity="0.8">
	<path fill="#31394D" d="M29.8,18.7c-1.6,1.6-2.5,3.7-2.5,5.9v2.4h-3c-0.3,0-0.5,0.1-0.7,0.3c-0.2,0.2-0.3,0.4-0.3,0.7v7.4
		c0,0.3,0.1,0.5,0.3,0.7c0.2,0.2,0.4,0.3,0.7,0.3h3V45c0,0.1,0,0.3,0.1,0.4c0,0.1,0.1,0.2,0.2,0.3c0.1,0.1,0.2,0.2,0.3,0.2
		c0.1,0,0.2,0.1,0.4,0.1h7.4c0.1,0,0.3,0,0.4-0.1c0.1,0,0.2-0.1,0.3-0.2c0.1-0.1,0.2-0.2,0.2-0.3c0-0.1,0.1-0.2,0.1-0.4v-8.5h3
		c0.3,0,0.5-0.1,0.7-0.3c0.2-0.2,0.3-0.4,0.3-0.7V28c0-0.3-0.1-0.5-0.3-0.7c-0.2-0.2-0.4-0.3-0.7-0.3h-3v-1.1c0-0.1,0-0.2,0.1-0.2
		c0.1-0.1,0.1-0.1,0.2-0.1h2.7c0.3,0,0.5-0.1,0.7-0.3c0.2-0.2,0.3-0.4,0.3-0.7v-7.4c0-0.3-0.1-0.5-0.3-0.7c-0.2-0.2-0.4-0.3-0.7-0.3
		h-3.9C33.5,16.3,31.3,17.1,29.8,18.7z M24.2,27.4c-0.1,0-0.2,0.1-0.3,0.2c-0.1,0.1-0.2,0.3-0.2,0.5v7.4c0,0.2,0.1,0.4,0.2,0.5
		c0.1,0.1,0.3,0.2,0.5,0.2h3.3V45c0,0.1,0,0.2,0.1,0.3c0,0.1,0.1,0.2,0.1,0.2c0.1,0.1,0.1,0.1,0.2,0.1c0.1,0,0.2,0.1,0.3,0.1h7.4
		c0.1,0,0.1,0,0.2,0c-0.1,0-0.1,0-0.2,0h-7.4c-0.1,0-0.2,0-0.3-0.1c-0.1,0-0.2-0.1-0.2-0.1c-0.1-0.1-0.1-0.1-0.1-0.2
		c0-0.1-0.1-0.2-0.1-0.3v-8.8h-3.3c-0.2,0-0.4-0.1-0.5-0.2c-0.1-0.1-0.2-0.3-0.2-0.5V28c0-0.2,0.1-0.4,0.2-0.5
		C23.9,27.5,24,27.4,24.2,27.4z M36.4,36.2h3.2c0.1,0,0.1,0,0.2,0c-0.1,0-0.1,0-0.2,0L36.4,36.2L36.4,36.2z M36.8,25.4
		c0,0,0.1,0,0.1,0h2.7c0.1,0,0.1,0,0.2,0c-0.1,0-0.1,0-0.2,0H37C36.9,25.4,36.9,25.4,36.8,25.4z M33.7,16.8
		c-1.4,0.4-2.7,1.1-3.8,2.1c-1.5,1.5-2.4,3.6-2.4,5.7v2.7h0v-2.7c0-2.2,0.9-4.2,2.4-5.7C31,17.9,32.3,17.1,33.7,16.8z M35,44.3
		L35,44.3l0-8.8c0-0.2,0.1-0.4,0.2-0.5c0.1-0.1,0.2-0.2,0.3-0.2c-0.1,0-0.2,0.1-0.3,0.2c-0.1,0.1-0.2,0.3-0.2,0.5V44.3z M38.9,34.8
		L38.9,34.8l0-6.1h-3.3c-0.2,0-0.4-0.1-0.5-0.2C35.1,28.4,35,28.2,35,28v-2.1c0-0.5,0.2-1,0.6-1.4c0.3-0.3,0.6-0.4,0.9-0.5
		c-0.3,0.1-0.7,0.3-0.9,0.5c-0.4,0.4-0.6,0.9-0.6,1.4V28c0,0.2,0.1,0.4,0.2,0.5c0.1,0.1,0.3,0.2,0.5,0.2h3.3V34.8z M39,24L39,24
		l0-6.1h-3.3c-0.6,0-1.1,0.1-1.6,0.2c0.5-0.1,1.1-0.2,1.6-0.2H39V24z M28.4,28.7c-0.1,0-0.1,0-0.2,0H25v0h3.3
		C28.3,28.7,28.4,28.7,28.4,28.7z M28.3,34.5h-2.9V29h2.9c0.3,0,0.5-0.1,0.7-0.3c0.2-0.2,0.3-0.4,0.3-0.7v-3.4
		c0-1.7,0.7-3.3,1.9-4.6c1.2-1.2,2.8-1.9,4.6-1.9h2.9v5.5H37c-0.6,0-1.2,0.2-1.6,0.7c-0.4,0.4-0.7,1-0.7,1.6V28
		c0,0.3,0.1,0.5,0.3,0.7s0.4,0.3,0.7,0.3h3v5.5h-3c-0.3,0-0.5,0.1-0.7,0.3s-0.3,0.4-0.3,0.7V44h-5.5l0-8.5c0-0.3-0.1-0.5-0.3-0.7
		C28.8,34.6,28.5,34.5,28.3,34.5z"/>
</g>
</svg>
