<?xml version="1.0" encoding="utf-8"?>
<!-- Generator: Adobe Illustrator 17.1.0, SVG Export Plug-In . SVG Version: 6.00 Build 0)  -->
<!DOCTYPE svg PUBLIC "-//W3C//DTD SVG 1.1//EN" "http://www.w3.org/Graphics/SVG/1.1/DTD/svg11.dtd">
<svg version="1.1" id="Layer_1" xmlns="http://www.w3.org/2000/svg" xmlns:xlink="http://www.w3.org/1999/xlink" x="0px" y="0px"
	 viewBox="16.1 16.5 31.8 31.3" enable-background="new 16.1 16.5 31.8 31.3" xml:space="preserve">
<g opacity="0.8">
	<path fill="#31394D" d="M17,24c0-3.9,3.1-7,7-7h16c3.9,0,7,3.1,7,7v16c0,3.9-3.1,7-7,7H24c-3.9,0-7-3.1-7-7V24z M24,19
		c-2.8,0-5,2.2-5,5v16c0,2.8,2.2,5,5,5h16c2.8,0,5-2.2,5-5V24c0-2.8-2.2-5-5-5H24z"/>
	<path fill="#31394D" d="M32,26c-3.3,0-6,2.7-6,6s2.7,6,6,6s6-2.7,6-6S35.3,26,32,26z M24,32c0-4.4,3.6-8,8-8s8,3.6,8,8s-3.6,8-8,8
		S24,36.4,24,32z"/>
	<circle fill="#31394D" cx="40.5" cy="23.5" r="1.5"/>
</g>
</svg>
