<svg width="70" height="45" viewBox="0 0 70 45" fill="none" xmlns="http://www.w3.org/2000/svg">
<path d="M40.8941 13.4364H17.2862C16.9497 13.4364 16.6744 13.1418 16.6744 12.7818V6.19271C16.6744 5.73453 16.6234 5.26545 16.501 4.81817C16.1441 3.46545 15.0223 1.08727 11.6163 1.08727C8.35298 1.08727 7.19043 3.26907 6.78252 4.64363C6.62955 5.14544 6.56836 5.67998 6.56836 6.21453L6.59896 13.4145L6.56836 38.5818C6.56836 38.5818 6.64994 43.3709 11.6265 43.3709C16.603 43.3709 16.6846 38.5818 16.6846 38.5818V24.9782C16.6846 24.6727 16.9089 24.4327 17.1945 24.4327H37.07C37.5085 24.4327 37.7328 23.8873 37.4473 23.5273C36.6111 22.48 36.1114 21.0836 36.1114 19.5564C36.1114 16.2945 38.4161 15.2909 41.2613 15.2909C41.2715 15.2909 41.2715 15.2909 41.2817 15.2909C41.3225 15.2909 41.3632 15.2909 41.4142 15.2909V13.9927C41.404 13.6764 41.1695 13.4364 40.8941 13.4364Z" fill="white"/>
<path fill-rule="evenodd" clip-rule="evenodd" d="M6.56847 6.21454C6.56847 5.68 6.62965 5.14545 6.78262 4.64364C7.19053 3.26909 8.35308 1.08727 11.6164 1.08727C15.0224 1.08727 16.1442 3.46545 16.5011 4.81818C16.6235 5.26545 16.6745 5.73455 16.6745 6.19273V12.7818C16.6745 13.1418 16.9498 13.4364 17.2863 13.4364H40.8942C41.1696 13.4364 41.4041 13.6764 41.4143 13.9927V15.2909H41.2614C38.4162 15.2909 36.1115 16.2945 36.1115 19.5564C36.1115 21.0836 36.6112 22.48 37.4474 23.5273C37.7329 23.8873 37.5086 24.4327 37.0701 24.4327H17.1946C16.909 24.4327 16.6847 24.6727 16.6847 24.9782V38.5818C16.6847 38.5818 16.6031 43.3709 11.6266 43.3709C6.65005 43.3709 6.56847 38.5818 6.56847 38.5818L6.59906 13.4145L6.56847 6.21454ZM6.16847 38.5813L6.16852 38.5886L6.56847 38.5818C6.16863 38.5886 6.16852 38.5884 6.16852 38.5886L6.16854 38.5897L6.16857 38.5911L6.16867 38.5954L6.16908 38.6091C6.16946 38.6204 6.1701 38.6363 6.17113 38.6562C6.17319 38.6962 6.17686 38.7529 6.18335 38.824C6.1963 38.9659 6.22057 39.1659 6.26602 39.4049C6.35658 39.8809 6.53305 40.5211 6.87886 41.1655C7.22561 41.8117 7.7456 42.4673 8.52244 42.9603C9.30113 43.4545 10.3154 43.7709 11.6266 43.7709C12.9377 43.7709 13.952 43.4545 14.7307 42.9603C15.5075 42.4673 16.0275 41.8117 16.3743 41.1655C16.7201 40.5211 16.8965 39.8809 16.9871 39.4049C17.0326 39.1659 17.0568 38.9659 17.0698 38.824C17.0763 38.7529 17.0799 38.6962 17.082 38.6562C17.083 38.6363 17.0837 38.6204 17.0841 38.6091L17.0845 38.5954L17.0846 38.5911V38.5897C17.0846 38.5894 17.0846 38.5886 16.6847 38.5818L17.0847 38.5886V24.9782C17.0847 24.9243 17.1039 24.8863 17.1247 24.8641C17.1448 24.8426 17.1682 24.8327 17.1946 24.8327H37.0701C37.4752 24.8327 37.7724 24.5753 37.8997 24.2682C38.0261 23.9636 38.0009 23.5815 37.7608 23.2787L37.76 23.2777C36.9829 22.3045 36.5115 20.9971 36.5115 19.5564C36.5115 18.0321 37.0422 17.0983 37.8504 16.5271C38.684 15.9379 39.8736 15.6909 41.2614 15.6909H41.8143V13.9927L41.8141 13.9798C41.798 13.4803 41.4167 13.0364 40.8942 13.0364H17.2863C17.1957 13.0364 17.0745 12.9467 17.0745 12.7818V6.19273C17.0745 5.70646 17.0205 5.20164 16.8874 4.71435C16.6987 3.99998 16.3038 2.99538 15.4874 2.16502C14.6596 1.32305 13.424 0.687271 11.6164 0.687271C9.88559 0.687271 8.67893 1.26984 7.85217 2.061C7.03552 2.84251 6.61524 3.80226 6.39957 4.52843C6.23275 5.0763 6.16847 5.6512 6.16846 6.21454L6.19906 13.4141L6.16847 38.5813Z" fill="#31394D"/>
<path d="M11.6265 44.0472C6.09925 44.0472 5.94629 38.6473 5.94629 38.5927L5.97688 13.4036L5.94629 6.20361C5.94629 5.5818 6.02787 4.9818 6.19104 4.43634C6.63974 2.93089 7.93486 0.410889 11.6265 0.410889C15.5628 0.410889 16.7764 3.36725 17.1129 4.63271C17.2455 5.11271 17.3066 5.63634 17.3066 6.19271V12.7818L40.8942 12.76C41.5264 12.76 42.0363 13.3054 42.0363 13.9818V15.9563L41.2817 15.9454C36.7437 15.9454 36.7437 18.6509 36.7437 19.5454C36.7437 20.8545 37.1618 22.12 37.9368 23.08C38.2325 23.4509 38.2937 23.9527 38.1102 24.4C37.9266 24.8363 37.5289 25.0982 37.0802 25.0982H17.3066V38.5818C17.3066 38.6472 17.1537 44.0472 11.6265 44.0472ZM11.6265 1.75271C8.88325 1.75271 7.81249 3.43271 7.38418 4.85089C7.2618 5.26543 7.20062 5.72362 7.20062 6.21452L7.23121 13.4145L7.20062 38.5927C7.20062 38.7454 7.34339 42.7163 11.6265 42.7163C15.8993 42.7163 16.0523 38.7454 16.0523 38.5818V24.9891C16.0523 24.3127 16.5622 23.7673 17.1945 23.7673H36.8252C35.9584 22.5891 35.4893 21.1054 35.4893 19.5563C35.4893 17.3854 36.4275 14.8 40.782 14.6254V14.1127H17.2862C16.603 14.1127 16.0523 13.5236 16.0523 12.7927V6.20361C16.0523 5.77816 16.0013 5.37452 15.9095 5.01452C15.5118 3.51998 14.4513 1.75271 11.6265 1.75271Z" fill="#31394D" stroke="#31394D" stroke-width="0.8"/>
<path d="M30.8084 17.8C31.1449 17.8 31.4203 17.5055 31.4203 17.1455V6.35637C31.4203 6.35637 31.2163 1.07637 36.4172 1.07637C41.6181 1.07637 41.4141 6.35637 41.4141 6.35637V17.8V38.6473C41.4141 38.6473 41.2714 43.3818 36.4172 43.3818C31.563 43.3818 31.4203 38.6473 31.4203 38.6473V29.5055C31.4203 29.0691 31.0837 28.7091 30.6758 28.7091H6.07876C6.07876 28.7091 2.1628 28.96 1.16342 23.3964C1.07164 22.8946 1.04104 22.3709 1.04104 21.8582V21.6509C1.04104 21.6509 0.633133 13.3164 5.8952 13.6982C6.29291 13.7309 6.61924 14.0909 6.61924 14.5164V16.9927C6.61924 17.4291 6.95577 17.7891 7.36368 17.7891L30.8084 17.8Z" fill="white" stroke="#31394C" stroke-width="2"/>
<path fill-rule="evenodd" clip-rule="evenodd" d="M1.04114 21.6509C1.04114 21.6509 0.633227 13.3164 5.8953 13.6982C6.29301 13.7309 6.61934 14.0909 6.61934 14.5164V16.9927C6.61934 17.4291 6.95587 17.7891 7.36378 17.7891L30.8085 17.8C31.145 17.8 31.4204 17.5055 31.4204 17.1455V6.35638C31.4204 6.35638 31.2164 1.07638 36.4173 1.07638C41.6182 1.07638 41.4142 6.35638 41.4142 6.35638V38.6473C41.4142 38.6473 41.2714 43.3818 36.4173 43.3818C31.5631 43.3818 31.4204 38.6473 31.4204 38.6473V29.5055C31.4204 29.0691 31.0838 28.7091 30.6759 28.7091H6.07886C6.07886 28.7091 2.1629 28.96 1.16352 23.3964C1.07174 22.8946 1.04114 22.3709 1.04114 21.8582V21.6509ZM0.76993 23.4677C0.672458 22.9345 0.641138 22.3853 0.641138 21.8582V21.6598L0.640429 21.6425C0.639764 21.6254 0.638891 21.6006 0.637998 21.5686C0.636212 21.5047 0.634343 21.4121 0.633891 21.2951C0.632989 21.0612 0.637749 20.7289 0.660264 20.332C0.705159 19.5404 0.821228 18.4804 1.10906 17.426C1.39557 16.3765 1.8615 15.2979 2.62897 14.5021C3.41102 13.6911 4.48737 13.195 5.92424 13.2992L5.9281 13.2995C6.54494 13.3503 7.01934 13.8946 7.01934 14.5164V16.9927C7.01934 17.234 7.20176 17.3891 7.36378 17.3891L30.8085 17.4C30.8991 17.3999 31.0204 17.3103 31.0204 17.1455V6.36256L31.02 6.35032C31.0199 6.34505 31.0198 6.33884 31.0197 6.33175C31.0196 6.32247 31.0194 6.31167 31.0194 6.2994C31.0191 6.25607 31.0195 6.19434 31.022 6.11682C31.0269 5.96191 31.04 5.74312 31.0729 5.48155C31.1383 4.96052 31.2831 4.25857 31.6043 3.55106C31.9261 2.84189 32.4294 2.11827 33.2141 1.57291C34.0016 1.02566 35.046 0.676376 36.4173 0.676376C37.7886 0.676376 38.833 1.02566 39.6205 1.57291C40.4052 2.11827 40.9084 2.84189 41.2303 3.55106C41.5514 4.25857 41.6963 4.96052 41.7617 5.48155C41.7945 5.74312 41.8077 5.96191 41.8126 6.11682C41.8151 6.19434 41.8155 6.25607 41.8152 6.2994C41.8151 6.32107 41.8148 6.33815 41.8145 6.35032L41.8142 6.36256V38.6594L41.4142 38.6473C41.814 38.6593 41.8142 38.6591 41.8142 38.6594L41.814 38.6618L41.8138 38.666L41.8132 38.6795C41.8127 38.6908 41.8119 38.7064 41.8106 38.7261C41.8081 38.7656 41.8037 38.8217 41.7965 38.8919C41.782 39.0321 41.7557 39.2298 41.7082 39.4659C41.6136 39.9363 41.4332 40.5688 41.0876 41.2054C40.7412 41.8436 40.2256 42.4917 39.461 42.9793C38.6942 43.4683 37.6989 43.7818 36.4173 43.7818C35.1356 43.7818 34.1404 43.4683 33.3736 42.9793C32.609 42.4917 32.0934 41.8436 31.747 41.2054C31.4014 40.5687 31.2209 39.9363 31.1264 39.4659C31.0789 39.2298 31.0526 39.0321 31.0381 38.8919C31.0309 38.8217 31.0265 38.7656 31.024 38.7261C31.0227 38.7064 31.0219 38.6908 31.0214 38.6795L31.0208 38.666L31.0206 38.6618V38.6604C31.0206 38.6601 31.0206 38.6593 31.4204 38.6473L31.0206 38.6593L31.0202 38.6473L31.0204 29.5055C31.0204 29.2642 30.838 29.1091 30.6759 29.1091H6.08858L6.08397 29.1093C6.07338 29.1098 6.05907 29.1102 6.04126 29.1105C6.00566 29.1111 5.95598 29.111 5.89395 29.1087C5.77 29.1042 5.59605 29.0908 5.38599 29.056C4.96626 28.9865 4.39828 28.8308 3.79704 28.4861C2.5785 27.7877 1.288 26.351 0.76993 23.4677Z" fill="#31394D"/>
<path d="M36.4071 44.0473C31.0125 44.0473 30.7881 38.7236 30.7881 38.6691V29.5054C30.7881 29.44 30.7371 29.3854 30.6657 29.3854H6.06866C6.05846 29.3854 4.9367 29.4509 3.69257 28.7309C2.56061 28.0873 1.10233 26.6582 0.541449 23.5164C0.449668 23.0036 0.408877 22.4582 0.408877 21.8582V21.6509C0.398679 21.4873 0.194722 16.7091 2.44844 14.3309C3.35604 13.3709 4.52879 12.9345 5.93609 13.0327C6.67033 13.0873 7.2414 13.7418 7.2414 14.5164V16.9927C7.2414 17.0582 7.29239 17.1236 7.36378 17.1236H30.7983V6.35636C30.7983 6.28 30.7167 3.81454 32.2872 2.05818C33.2764 0.956358 34.6633 0.399994 36.4173 0.399994C38.1713 0.399994 39.5582 0.956358 40.5474 2.05818C42.1179 3.80363 42.0465 6.27999 42.0363 6.37818V17.7891V38.6364C42.0261 38.7236 41.8017 44.0473 36.4071 44.0473ZM30.6657 28.0436C31.4204 28.0436 32.0424 28.6982 32.0424 29.5054V38.6473C32.0526 38.7891 32.2464 42.7054 36.4071 42.7054C40.5678 42.7054 40.7718 38.7891 40.7718 38.6255V17.8V6.35636C40.7718 6.31272 40.8228 4.31636 39.6194 2.98545C38.875 2.16727 37.794 1.75272 36.3969 1.75272C34.9998 1.75272 33.9188 2.16727 33.1744 2.98545C31.9711 4.31636 32.0221 6.31272 32.0221 6.33454V17.1454C32.0221 17.8764 31.4714 18.4655 30.7881 18.4655H7.33319C6.57855 18.4655 5.95648 17.8109 5.95648 17.0036V14.5273C5.95648 14.4509 5.8851 14.3855 5.81371 14.3745C4.77354 14.2982 3.94752 14.6036 3.29486 15.2909C1.43886 17.2436 1.62242 21.5855 1.62242 21.6291V21.8691C1.62242 22.3927 1.66321 22.8509 1.73459 23.2764C2.6116 28.1636 5.8647 28.0545 5.99727 28.0545L30.6657 28.0436Z" fill="#31394D"/>
<path d="M45.4423 19.5455C45.4423 22.8073 44.0962 25.4473 41.2612 25.4473C38.416 25.4473 36.1113 22.8073 36.1113 19.5455C36.1113 16.2837 38.4364 15.28 41.2714 15.28C41.3122 15.28 41.3326 15.1164 41.3326 15.1164L41.3938 13.6546C41.404 13.5346 41.4957 13.4364 41.6181 13.4364C44.1778 13.5346 45.3811 15.9127 45.4525 18.9346V19.5455H45.4423Z" fill="white"/>
<path fill-rule="evenodd" clip-rule="evenodd" d="M41.6182 13.4364C44.1779 13.5346 45.3812 15.9127 45.4526 18.9346V19.5455H45.4424C45.4424 22.8073 44.0963 25.4473 41.2613 25.4473C38.4161 25.4473 36.1114 22.8073 36.1114 19.5455C36.1114 16.2836 38.4365 15.28 41.2715 15.28C41.3123 15.28 41.3327 15.1164 41.3327 15.1164L41.3939 13.6546C41.404 13.5346 41.4958 13.4364 41.6182 13.4364ZM40.942 14.8845L40.9946 13.6292L40.9953 13.6207C41.0204 13.3252 41.2578 13.0364 41.6182 13.0364H41.6259L41.6335 13.0367C43.056 13.0912 44.1117 13.7889 44.8055 14.8736C45.4883 15.9412 45.8158 17.3716 45.8525 18.9251L45.8527 18.9346L45.8526 19.9455H45.8357C45.7847 21.47 45.4378 22.8752 44.7508 23.9369C43.9925 25.1087 42.8257 25.8473 41.2613 25.8473C38.1458 25.8473 35.7114 22.9753 35.7114 19.5455C35.7114 17.8066 36.339 16.608 37.3981 15.8625C38.3531 15.1902 39.6104 14.9214 40.942 14.8845ZM40.9281 15.1058C40.928 15.1057 40.9283 15.1049 40.9287 15.1034L40.9281 15.1058Z" fill="#31394D"/>
<path d="M41.2613 26.1236C38.0795 26.1236 35.4893 23.1782 35.4893 19.5455C35.4893 17.3855 36.6862 14.6964 40.9999 14.5V13.5C41.0305 13.0091 41.1797 12.76 41.6386 12.7709C44.3308 12.8691 45.993 15.1709 46.0746 18.9236V19.5564C46.0746 23.5382 44.188 26.1236 41.2613 26.1236ZM42.0057 14.1455L41.9649 15.1927C41.9037 15.7491 41.557 15.9455 41.2816 15.9455C36.7436 15.9455 36.7436 18.6509 36.7436 19.5455C36.7436 22.4364 38.773 24.7818 41.2613 24.7818C44.5653 24.7818 44.8203 20.7782 44.8203 19.5455V18.9345C44.7897 17.5927 44.443 14.5382 42.0057 14.1455Z" fill="#31394D" stroke="#31394D" stroke-width="0.8"/>
<path opacity="0.8" d="M47 6.3V0H49.529C50.183 0 50.681 0.153003 51.023 0.459003C51.371 0.759003 51.545 1.146 51.545 1.62C51.545 2.016 51.437 2.334 51.221 2.574C51.011 2.808 50.753 2.967 50.447 3.051C50.807 3.123 51.104 3.303 51.338 3.591C51.572 3.873 51.689 4.203 51.689 4.581C51.689 5.079 51.509 5.49 51.149 5.814C50.789 6.138 50.279 6.3 49.619 6.3H47ZM48.152 2.646H49.358C49.682 2.646 49.931 2.571 50.105 2.421C50.279 2.271 50.366 2.058 50.366 1.782C50.366 1.518 50.279 1.311 50.105 1.161C49.937 1.005 49.682 0.927002 49.34 0.927002H48.152V2.646ZM48.152 5.364H49.439C49.781 5.364 50.045 5.286 50.231 5.13C50.423 4.968 50.519 4.743 50.519 4.455C50.519 4.161 50.42 3.93 50.222 3.762C50.024 3.594 49.757 3.51 49.421 3.51H48.152V5.364ZM53.178 6.3V0H57.291V0.927002H54.33V2.655H57.021V3.555H54.33V5.373H57.291V6.3H53.178ZM60.348 6.3V0.927002H58.512V0H63.345V0.927002H61.5V6.3H60.348ZM63.625 6.3L65.929 0H67.225L69.529 6.3H68.305L67.801 4.842H65.344L64.831 6.3H63.625ZM65.659 3.942H67.486L66.568 1.323L65.659 3.942Z" fill="#31394D"/>
</svg>
