<svg width="48" height="45" viewBox="0 0 48 45" fill="none" xmlns="http://www.w3.org/2000/svg">
<path d="M7.18848 39.0688C6.98851 39.0722 6.98851 39.0723 6.98851 39.0724L6.98852 39.0728L6.98854 39.0739L6.98862 39.0773L6.98898 39.0893C6.98932 39.0995 6.9899 39.1141 6.99087 39.1329C6.99281 39.1704 6.9963 39.2245 7.00253 39.2927C7.01498 39.4292 7.03843 39.6227 7.08251 39.8544C7.17049 40.317 7.34158 40.9363 7.6751 41.5579C8.00909 42.1803 8.50746 42.8074 9.24962 43.2784C9.9927 43.75 10.969 44.0579 12.2466 44.0579C13.5242 44.0579 14.5005 43.75 15.2436 43.2784C15.9857 42.8074 16.4841 42.1803 16.8181 41.5579C17.1516 40.9363 17.3227 40.317 17.4107 39.8544C17.4547 39.6227 17.4782 39.4292 17.4906 39.2927C17.4969 39.2245 17.5004 39.1704 17.5023 39.1329C17.5027 39.1242 17.5031 39.1164 17.5034 39.1096C17.5038 39.1015 17.504 39.0948 17.5042 39.0893L17.5046 39.0773L17.5046 39.0739L17.5047 39.0728L17.5047 39.0724C17.5047 39.0723 17.5047 39.0722 17.3047 39.0688L17.5047 39.0722V39.0688V25.4651C17.5047 25.2572 17.652 25.1197 17.8146 25.1197H37.6901C38.0023 25.1197 38.2337 24.9228 38.335 24.6786C38.4358 24.4355 38.4156 24.1313 38.2241 23.8899L38.2237 23.8894C37.4171 22.8792 36.9315 21.5273 36.9315 20.0433C36.9315 18.4657 37.485 17.4656 38.3549 16.8507C39.2377 16.2268 40.4762 15.9779 41.8814 15.9779H41.8815H41.8815H41.8816H41.8816H41.8817H41.8817H41.8818H41.8819H41.8819H41.882H41.882H41.8821H41.8822H41.8822H41.8823H41.8823H41.8824H41.8824H41.8825H41.8825H41.8826H41.8827H41.8827H41.8828H41.8828H41.8829H41.8829H41.883H41.883H41.8831H41.8831H41.8832H41.8832H41.8833H41.8833H41.8834H41.8835H41.8835H41.8836H41.8836H41.8837H41.8837H41.8838H41.8838H41.8839H41.8839H41.884H41.884H41.8841H41.8841H41.8842H41.8842H41.8843H41.8843H41.8844H41.8844H41.8844H41.8845H41.8845H41.8846H41.8846H41.8847H41.8847H41.8848H41.8848H41.8849H41.8849H41.885H41.885H41.8851H41.8851H41.8851H41.8852H41.8852H41.8853H41.8853H41.8854H41.8854H41.8855H41.8855H41.8855H41.8856H41.8856H41.8857H41.8857H41.8858H41.8858H41.8859H41.8859H41.8859H41.886H41.886H41.8861H41.8861H41.8861H41.8862H41.8862H41.8863H41.8863H41.8864H41.8864H41.8864H41.8865H41.8865H41.8866H41.8866H41.8866H41.8867H41.8867H41.8868H41.8868H41.8868H41.8869H41.8869H41.887H41.887H41.887H41.8871H41.8871H41.8871H41.8872H41.8872H41.8873H41.8873H41.8873H41.8874H41.8874H41.8874H41.8875H41.8875H41.8876H41.8876H41.8876H41.8877H41.8877H41.8877H41.8878H41.8878H41.8879H41.8879H41.8879H41.888H41.888H41.888H41.8881H41.8881H41.8881H41.8882H41.8882H41.8882H41.8883H41.8883H41.8883H41.8884H41.8884H41.8885H41.8885H41.8885H41.8886H41.8886H41.8886H41.8887H41.8887H41.8887H41.8888H41.8888H41.8888H41.8889H41.8889H41.8889H41.889H41.889H41.889H41.8891H41.8891H41.8891H41.8892H41.8892H41.8892H41.8893H41.8893H41.8893H41.8894H41.8894H41.8894H41.8895H41.8895H41.8895H41.8895H41.8896H41.8896H41.8896H41.8897H41.8897H41.8897H41.8898H41.8898H41.8898H41.8899H41.8899H41.8899H41.89H41.89H41.89H41.89H41.8901H41.8901H41.8901H41.8902H41.8902H41.8902H41.8903H41.8903H41.8903H41.8904H41.8904H41.8904H41.8904H41.8905H41.8905H41.8905H41.8906H41.8906H41.8906H41.8907H41.8907H41.8907H41.8908H41.8908H41.8908H41.8909H41.8909H41.8909H41.891H41.891H41.891H41.8911H41.8911H41.8911H41.8912H41.8912H41.8912H41.8913H41.8913H41.8914H41.8914H41.8914H41.8914H41.8915H41.8915H41.8916H41.8916H41.8916H41.8917H41.8917H41.8917H41.8918H41.8918H41.8918H41.8919H41.8919H41.892H41.892H41.892H41.892H41.8921H41.8921H41.8922H41.8922H41.8922H41.8923H41.8923H41.8923H41.8923H41.8924H41.8924H41.8925H41.8925H41.8925H41.8926H41.8926H41.8926H41.8926H41.8927H41.8927H41.8927H41.8928H41.8928H41.8928H41.8929H41.8929H41.8929H41.893H41.893H41.893H41.893H41.8931H41.8931H41.8931H41.8932H41.8932H41.8932H41.8933H41.8933H41.8933H41.8934H41.8934H41.8934H41.8935H41.8935H41.8935H41.8935H41.8936H41.8936H41.8936H41.8937H41.8937H41.8937H41.8938H41.8938H41.8938H41.8939H41.8939H41.8939H41.894H41.894H41.894H41.8941H41.8941H41.8941H41.8942H41.8942H41.8942H41.8943H41.8943H41.8943H41.8944H41.8944H41.8944H41.8945H41.8945H41.8945H41.8946H41.8946H41.8946H41.8947H41.8947H41.8947H41.8948H41.8948H41.8948H41.8949H41.8949H41.8949H41.895H41.895H41.8951H41.8951H41.8951H41.8952H41.8952H41.8952H41.8953H41.8953H41.8953H41.8954H41.8954H41.8954H41.8955H41.8955H41.8956H41.8956H41.8956H41.8957H41.8957H41.8957H41.8958H41.8958H41.8959H41.8959H41.8959H41.896H41.896H41.896H41.8961H41.8961H41.8962H41.8962H41.8962H41.8963H41.8963H41.8964H41.8964H41.8964H41.8965H41.8965H41.8965H41.8966H41.8966H41.8967H41.8967H41.8968H41.8968H41.8968H41.8969H41.8969H41.897H41.897H41.897H41.8971H41.8971H41.8972H41.8972H41.8973H41.8973H41.8973H41.8974H41.8974H41.8975H41.8975H41.8976H41.8976H41.8976H41.8977H41.8977H41.8978H41.8978H41.8979H41.8979H41.8979H41.898H41.898H41.8981H41.8981H41.8982H41.8982H41.8983H41.8983H41.8984H41.8984H41.8985H41.8985H41.8985H41.8986H41.8986H41.8987H41.8987H41.8988H41.8988H41.8989H41.8989H41.899H41.899H41.8991H41.8991H41.8992H41.8992H41.8993H41.8993H41.8994H41.8994H41.8995H41.8995H41.8996H41.8996H41.8997H41.8997H41.8998H41.8998H41.8999H41.8999H41.9H41.9001H41.9001H41.9002H41.9002H41.9003H41.9003H41.9004H41.9004H41.9005H41.9005H41.9006H41.9006H41.9007H41.9008H41.9008H41.9009H41.9009H41.901H41.901H41.9011H41.9011H41.9012H41.9013H41.9013H41.9014H41.9014H41.9015H41.9016H41.9016H41.9017H41.9017H41.9018H41.902H41.9023H41.9025H41.9028H41.903H41.9032H41.9035H41.9037H41.9039H41.9042H41.9044H41.9047H41.9049H41.9051H41.9054H41.9056H41.9059H41.9061H41.9063H41.9066H41.9068H41.9071H41.9073H41.9075H41.9078H41.908H41.9082H41.9085H41.9087H41.909H41.9092H41.9094H41.9097H41.9099H41.9102H41.9104H41.9106H41.9109H41.9111H41.9114H41.9116H41.9118H41.9121H41.9123H41.9126H41.9128H41.913H41.9133H41.9135H41.9138H41.914H41.9142H41.9145H41.9147H41.915H41.9152H41.9154H41.9157H41.9159H41.9162H41.9164H41.9166H41.9169H41.9171H41.9174H41.9176H41.9178H41.9181H41.9183H41.9186H41.9188H41.919H41.9193H41.9195H41.9198H41.92H41.9202H41.9205H41.9207H41.921H41.9212H41.9214H41.9217H41.9219H41.9222H41.9224H41.9226H41.9229H41.9231H41.9234H41.9236H41.9238H41.9241H41.9243H41.9246H41.9248H41.925H41.9253H41.9255H41.9258H41.926H41.9263H41.9265H41.9267H41.927H41.9272H41.9275H41.9277H41.9279H41.9282H41.9284H41.9287H41.9289H41.9292H41.9294H41.9296H41.9299H41.9301H41.9304H41.9306H41.9308H41.9311H41.9313H41.9316H41.9318H41.9321H41.9323H41.9325H41.9328H41.933H41.9333H41.9335H41.9338H41.934H41.9342H41.9345H41.9347H41.935H41.9352H41.9355H41.9357H41.936H41.9362H41.9364H41.9367H41.9369H41.9372H41.9374H41.9377H41.9379H41.9381H41.9384H41.9386H41.9389H41.9391H41.9394H41.9396H41.9399H41.9401H41.9403H41.9406H41.9408H41.9411H41.9413H41.9416H41.9418H41.9421H41.9423H41.9426H41.9428H41.943H41.9433H41.9435H41.9438H41.944H41.9443H41.9445H41.9448H41.945H41.9453H41.9455H41.9458H41.946H41.9462H41.9465H41.9467H41.947H41.9472H41.9475H41.9477H41.948H41.9482H41.9485H41.9487H41.949H41.9492H41.9495H41.9497H41.95H41.9502H41.9505H41.9507H41.9509H41.9512H41.9514H41.9517H41.9519H41.9522H41.9524H41.9527H41.9529H41.9532H41.9534H41.9537H41.9539H41.9542H41.9544H41.9547H41.9549H41.9552H41.9554H41.9557H41.9559H41.9562H41.9564H41.9567H41.9569H41.9572H41.9574H41.9577H41.9579H41.9582H41.9584H41.9587H41.9589H41.9592H41.9594H41.9597H41.96H41.9602H41.9605H41.9607H41.961H41.9612H41.9615H41.9617H41.962H41.9622H41.9625H41.9627H41.963H41.9632H41.9635H41.9637H41.964H41.9643H41.9645H41.9648H41.965H41.9653H41.9655H41.9658H41.966H41.9663H41.9665H41.9668H41.9671H41.9673H41.9676H41.9678H41.9681H41.9683H41.9686H41.9688H41.9691H41.9694H41.9696H41.9699H41.9701H41.9704H41.9706H41.9709H41.9712H41.9714H41.9717H41.9719H41.9722H41.9724H41.9727H41.973H41.9732H41.9735H41.9737H41.974H41.9743H41.9745H41.9748H41.975H41.9753H41.9755H41.9758H41.9761H41.9763H41.9766H41.9768H41.9771H41.9774H41.9776H41.9779H41.9781H41.9784H41.9787H41.9789H41.9792H41.9795H41.9797H41.98H41.9802H41.9805H41.9808H41.981H41.9813H41.9816H41.9818H41.9821H41.9823H41.9826H41.9829H41.9831H41.9834H41.9837H41.9839H41.9842H41.9845H41.9847H41.985H41.9852H41.9855H41.9858H41.986H41.9863H41.9866H41.9868H41.9871H41.9874H41.9876H41.9879H41.9882H41.9884H41.9887H41.989H41.9892H41.9895H41.9898H41.99H41.9903H41.9906H41.9908H41.9911H41.9914H41.9916H41.9919H41.9922H41.9925H41.9927H41.993H41.9933H41.9935H41.9938H41.9941H41.9943H41.9946H41.9949H41.9952H41.9954H41.9957H41.996H41.9962H41.9965H41.9968H41.9971H41.9973H41.9976H41.9979H41.9981H41.9984H41.9987H41.999H41.9992H41.9995H41.9998H42.0001H42.0003H42.0006H42.0009H42.0012H42.0014H42.0017H42.002H42.0023H42.0025H42.0028H42.0031H42.0034H42.0036H42.0039H42.0042H42.0045H42.0047H42.005H42.0053H42.0056H42.0059H42.0061H42.0064H42.0067H42.007H42.0072H42.0075H42.0078H42.0081H42.0084H42.0086H42.0089H42.0092H42.0095H42.0098H42.01H42.0103H42.0106H42.0109H42.0112H42.0115H42.0117H42.012H42.0123H42.0126H42.0129H42.0131H42.0134H42.0137H42.014H42.0143H42.0146H42.0148H42.0151H42.0154H42.0157H42.016H42.0163H42.0166H42.0168H42.0171H42.0174H42.0177H42.018H42.0183H42.0186H42.0188H42.0191H42.0194H42.0197H42.02H42.0203H42.0206H42.0209H42.0211H42.0214H42.0217H42.022H42.0223H42.0226H42.0229H42.0232H42.0235H42.0238H42.024H42.0243H42.0246H42.0249H42.0252H42.0255H42.0258H42.0261H42.0264H42.0267H42.027H42.0273H42.0276H42.0278H42.0281H42.0284H42.0287H42.029H42.0293H42.0296H42.0299H42.0302H42.0305H42.0308H42.0311H42.0314H42.0317H42.032H42.0323H42.0326H42.0329H42.0332H42.0335H42.0338H42.0341H42.0344H42.2344V15.7779V14.4797H42.2345L42.2343 14.4732C42.2211 14.0653 41.9132 13.7233 41.5143 13.7233H17.9064C17.6928 13.7233 17.4945 13.5312 17.4945 13.2688V6.67967C17.4945 6.20746 17.442 5.72051 17.3143 5.25322C17.1307 4.55786 16.7484 3.58919 15.9648 2.79218C15.1755 1.98938 13.9917 1.37422 12.2364 1.37422C10.5552 1.37422 9.39861 1.93823 8.61046 2.69245C7.82736 3.44184 7.42092 4.36626 7.21111 5.07297C7.05121 5.59782 6.98848 6.15255 6.98847 6.70149L6.98848 6.70234L7.01907 13.9012L7.01907 13.9018L6.98844 39.0685L6.98851 39.0722L7.18848 39.0688Z" fill="white" stroke="#31394D" stroke-width="0.4"/>
<path d="M6.36641 39.0795V39.0798C6.36641 39.124 6.40666 40.5248 7.15762 41.9222C7.53472 42.6239 8.09334 43.329 8.91938 43.8581C9.7465 44.388 10.8307 44.7343 12.2466 44.7343C13.6625 44.7343 14.7467 44.388 15.5738 43.8579C16.3999 43.3286 16.9585 42.6231 17.3356 41.9207C18.0866 40.5219 18.1268 39.1184 18.1268 39.0689V25.7852H37.7003C38.2313 25.7852 38.7006 25.4735 38.9146 24.9646L38.9153 24.963C39.1248 24.4526 39.0569 23.8733 38.7133 23.4424L38.7125 23.4414C37.969 22.5204 37.5638 21.3004 37.5638 20.0325C37.5638 19.5846 37.5673 18.7449 38.0934 18.0139C38.6105 17.2952 39.6721 16.6328 41.9004 16.6325C41.9008 16.6325 41.9013 16.6325 41.9018 16.6325L42.6535 16.6434L42.8564 16.6463V16.4434V14.4689C42.8564 13.695 42.2695 13.047 41.5143 13.047H41.5141L18.1268 13.0687V6.67977C18.1268 6.10941 18.0641 5.56771 17.926 5.06741C17.7531 4.41755 17.354 3.32784 16.4859 2.39785C15.6118 1.46129 14.2719 0.697949 12.2466 0.697949C10.3499 0.697949 9.05286 1.34742 8.17334 2.20275C7.29879 3.05325 6.84939 4.09491 6.61949 4.86628C6.45017 5.43237 6.36641 6.05183 6.3664 6.69068L6.36641 6.69152L6.397 13.8904L6.397 13.891L6.36641 39.0795ZM17.9064 14.7998H41.2021V14.922C39.0965 15.043 37.7693 15.7362 36.9689 16.7017C36.1489 17.6909 35.9094 18.9331 35.9094 20.0434C35.9094 21.4963 36.3117 22.8965 37.0639 24.0543H17.8146C17.0594 24.0543 16.4724 24.7022 16.4724 25.4761V39.0689C16.4724 39.1329 16.4365 40.1277 15.8877 41.0991C15.3479 42.0547 14.3052 43.0034 12.2466 43.0034C10.1827 43.0034 9.14009 42.0545 8.60168 41.1006C8.05441 40.1309 8.02075 39.1391 8.02074 39.0798C8.02074 39.0798 8.02074 39.0798 8.02074 39.0798L8.05133 13.9018L8.05133 13.9007L8.02074 6.70158C8.02074 6.70145 8.02074 6.70132 8.02074 6.70119C8.02077 6.22705 8.07988 5.78857 8.19594 5.39516C8.40369 4.70753 8.76331 3.97033 9.39109 3.40575C10.015 2.84461 10.9195 2.43977 12.2466 2.43977C13.6133 2.43977 14.534 2.8656 15.1612 3.45587C15.7925 4.05001 16.1429 4.82649 16.3361 5.55199C16.4234 5.89463 16.4724 6.28126 16.4724 6.69068V13.2798C16.4724 14.1082 17.1002 14.7998 17.9064 14.7998Z" fill="#31394D" stroke="#31394D" stroke-width="0.4"/>
<path d="M1.46059 22.1408L1.46067 22.1426V22.3453C1.46067 22.8652 1.49162 23.4016 1.58624 23.9191C2.09511 26.7517 3.35479 28.1341 4.51603 28.7997C5.09262 29.1302 5.63698 29.2793 6.03821 29.3458C6.23892 29.379 6.40433 29.3917 6.52082 29.396C6.5791 29.3981 6.62521 29.3982 6.65748 29.3976C6.67361 29.3974 6.68629 29.397 6.69531 29.3966L6.70355 29.3962H31.2955C31.5805 29.3962 31.8399 29.6537 31.8399 29.9926V39.1344H31.8398L31.84 39.1404L32.0399 39.1344C31.84 39.1404 31.84 39.1405 31.84 39.1407L31.84 39.141L31.8401 39.1421L31.8402 39.1455L31.8407 39.1573C31.8412 39.1674 31.8419 39.1819 31.8431 39.2004C31.8455 39.2375 31.8496 39.2909 31.8566 39.3584C31.8705 39.4933 31.896 39.6846 31.942 39.9136C32.0339 40.3707 32.2089 40.9828 32.5423 41.5971C32.8761 42.2121 33.3704 42.832 34.1007 43.2978C34.8321 43.7642 35.7892 44.0689 37.0368 44.0689C38.2844 44.0689 39.2416 43.7642 39.973 43.2978C40.7033 42.832 41.1976 42.2121 41.5314 41.5971C41.8648 40.9828 42.0398 40.3707 42.1317 39.9136C42.1777 39.6846 42.2031 39.4933 42.2171 39.3584C42.2241 39.2909 42.2282 39.2375 42.2306 39.2004C42.2318 39.1819 42.2325 39.1674 42.233 39.1573L42.2335 39.1455L42.2336 39.1421L42.2337 39.141L42.2337 39.1407C42.2337 39.1406 42.2337 39.1406 42.2205 39.1401C42.2019 39.1395 42.157 39.1381 42.0485 39.1348L42.2338 39.1404V39.1344V18.2871V6.84675L42.2338 6.84581L42.2341 6.83288C42.2344 6.8218 42.2347 6.80584 42.2348 6.78534C42.235 6.74434 42.2346 6.68511 42.2323 6.61026C42.2275 6.46062 42.2148 6.2481 42.1828 5.99356C42.119 5.48555 41.9781 4.80457 41.6678 4.12082C41.357 3.43623 40.8744 2.74442 40.1259 2.22424C39.376 1.70312 38.3726 1.36348 37.0368 1.36348C35.7011 1.36348 34.6977 1.70312 33.9478 2.22424C33.1993 2.74442 32.7167 3.43623 32.4059 4.12082C32.0956 4.80457 31.9547 5.48555 31.8909 5.99356C31.8589 6.2481 31.8462 6.46062 31.8414 6.61026C31.839 6.68511 31.8387 6.74434 31.8389 6.78534C31.839 6.80584 31.8393 6.8218 31.8395 6.83288L31.8399 6.84581L31.8399 6.84681V17.6326C31.8399 17.895 31.6417 18.0871 31.4281 18.0871C31.4281 18.0871 31.4281 18.0871 31.4281 18.0871L7.9834 18.0762H7.98331C7.69834 18.0762 7.43887 17.8187 7.43887 17.4798V15.0035C7.43887 14.4799 7.0385 14.0277 6.53123 13.986L6.5293 13.9858C5.1531 13.886 4.13436 14.3587 3.39246 15.128C2.65786 15.8897 2.20373 16.9321 1.92153 17.9658C1.63867 19.002 1.52391 20.0469 1.47947 20.8304C1.45722 21.2227 1.45253 21.5509 1.45342 21.7814C1.45387 21.8967 1.45571 21.9877 1.45745 22.0501C1.45832 22.0813 1.45917 22.1054 1.45981 22.1219L1.46059 22.1408Z" fill="white" stroke="#31394D" stroke-width="0.4"/>
<path d="M6.56963 13.3204L6.57053 13.3205C7.41921 13.3835 8.06103 14.1347 8.06103 15.0036V17.4108H31.218V6.8437C31.218 6.84381 31.2179 6.84318 31.2179 6.84108L31.2178 6.83257L31.2174 6.8039C31.2172 6.78009 31.2171 6.74747 31.2175 6.70686C31.2184 6.62566 31.2215 6.51274 31.2301 6.37424C31.2475 6.09742 31.2874 5.71754 31.3777 5.28374C31.5577 4.41826 31.9409 3.32561 32.7577 2.41208L32.758 2.41178C33.7922 1.25983 35.2377 0.687207 37.0369 0.687207C38.8361 0.687207 40.2815 1.25977 41.3157 2.41162C42.1328 3.31978 42.5186 4.41262 42.7 5.28228C42.8727 6.11005 42.8636 6.75306 42.8559 6.87254V18.2763V39.1236V39.1352L42.8548 39.145C42.8548 39.145 42.8546 39.1487 42.8537 39.1608C42.853 39.1715 42.8519 39.1856 42.8506 39.203L42.8497 39.2147C42.846 39.2604 42.8402 39.3244 42.8311 39.4039C42.8129 39.5629 42.7813 39.7841 42.7265 40.0467C42.617 40.571 42.414 41.2646 42.0361 41.9575C41.2747 43.3538 39.8077 44.7345 37.0267 44.7345C34.2458 44.7345 32.7789 43.3539 32.0187 41.9617C31.2668 40.5847 31.2078 39.2036 31.2078 39.1563V30.0727H6.68829C6.69798 30.0727 6.61018 30.0768 6.47957 30.0715C6.34619 30.0661 6.15767 30.051 5.92975 30.0126C5.47432 29.9359 4.85935 29.7657 4.2127 29.3916M6.56963 13.3204L4.3122 29.2181M6.56963 13.3204C5.10738 13.2184 3.8747 13.6739 2.9229 14.6805M6.56963 13.3204L0.828505 22.1439M4.2127 29.3916C4.21248 29.3915 4.21225 29.3914 4.21202 29.3912L4.3122 29.2181M4.2127 29.3916C4.21292 29.3917 4.21313 29.3919 4.21334 29.392L4.3122 29.2181M4.2127 29.3916C3.02699 28.7172 1.53496 27.2359 0.96419 24.0387M4.3122 29.2181C3.18024 28.5745 1.72196 27.1454 1.16108 24.0036M0.96419 24.0387C0.964195 24.0387 0.964201 24.0388 0.964206 24.0388L1.16108 24.0036M0.96419 24.0387C0.869892 23.5119 0.828505 22.9543 0.828505 22.3454V22.1439M0.96419 24.0387L1.16108 24.0036M1.16108 24.0036L0.828505 22.1439M0.828505 22.1439C0.828651 22.1465 0.828781 22.1488 0.828893 22.1506L1.02851 22.1381H0.828505V22.1439ZM0.828505 22.1439C0.821192 22.01 0.773966 20.7788 1.00158 19.2786C1.23274 17.7551 1.75286 15.9152 2.9229 14.6805M2.9229 14.6805C2.92284 14.6806 2.92279 14.6807 2.92273 14.6807L3.06804 14.8181L2.9229 14.6805ZM31.2853 28.3308H31.2854C32.1611 28.3308 32.8621 29.0859 32.8621 29.9927V39.1278C32.8621 39.128 32.8621 39.1281 32.8621 39.1283C32.8697 39.2438 32.9316 40.1902 33.4616 41.1175C33.9995 42.0584 35.0253 42.9927 37.0267 42.9927C39.0283 42.9927 40.0566 42.0584 40.5957 41.1148C40.8684 40.6375 41.0179 40.1533 41.099 39.777C41.1395 39.5893 41.1627 39.4296 41.1757 39.3128C41.1823 39.2544 41.1862 39.2069 41.1885 39.1722C41.1897 39.1548 41.1904 39.1408 41.1909 39.1304L41.1913 39.1178L41.1914 39.1141L41.1914 39.113V39.1127V18.2872V6.84357C41.1914 6.84277 41.1914 6.84118 41.1915 6.83882C41.1922 6.78342 41.1985 6.30443 41.0706 5.68105C40.9367 5.02859 40.6592 4.23553 40.0907 3.6068C39.3935 2.84088 38.3727 2.43994 37.0165 2.43994C35.6604 2.43994 34.6395 2.84088 33.9424 3.6068L31.2853 28.3308ZM31.2853 28.3308L6.6169 28.3418C6.61687 28.3418 6.61684 28.3418 6.61681 28.3418C6.61504 28.3418 6.61255 28.3418 6.60934 28.3418C6.51014 28.3429 5.73282 28.3514 4.87026 27.8155C3.98624 27.2663 2.98149 26.1254 2.55128 23.7294C2.4819 23.3155 2.44204 22.8687 2.44204 22.3563V22.1163C2.44204 22.1147 2.4419 22.1097 2.44165 22.1015C2.43761 21.9649 2.40708 20.9336 2.58035 19.6907C2.76546 18.3629 3.17728 16.844 4.05945 15.9159L4.05951 15.9158M31.2853 28.3308L4.05951 15.9158M4.05951 15.9158C4.65838 15.2852 5.4106 14.9972 6.37611 15.0583V17.4908C6.37611 18.3976 7.0771 19.1527 7.95281 19.1527H31.4078C32.214 19.1527 32.8417 18.4611 32.8417 17.6327V6.82175L32.8417 6.81969M4.05951 15.9158L32.8417 6.81969M32.8417 6.81969C32.8411 6.78375 32.8332 6.30619 32.9625 5.67848M32.8417 6.81969L32.9625 5.67848M32.9625 5.67848C33.0963 5.02883 33.3738 4.23596 33.942 3.60726L32.9625 5.67848Z" fill="#31394D" stroke="#31394D" stroke-width="0.4"/>
<path d="M41.8146 14.1251L41.8144 14.1251L41.8141 14.1336L41.754 15.5682C40.3712 15.5841 39.0863 15.8426 38.1332 16.5135C37.1359 17.2155 36.5314 18.348 36.5314 20.0329C36.5314 23.3788 38.901 26.1347 41.8813 26.1347C43.3723 26.1347 44.4783 25.4355 45.2029 24.3157C45.8926 23.2498 46.2343 21.8093 46.2608 20.2329H46.2726V20.0329V19.422H46.2727L46.2726 19.4173C46.2364 17.8851 45.9133 16.4949 45.257 15.4688C44.5953 14.4342 43.5971 13.7758 42.2459 13.724L42.2459 13.7238H42.2383C41.9969 13.7238 41.8323 13.9173 41.8146 14.1251Z" fill="white" stroke="#31394D" stroke-width="0.4"/>
<path d="M41.1922 14.1074L41.1922 14.1074L41.192 14.1116L41.1587 14.9227C39.0684 15.0527 37.7518 15.7465 36.9583 16.709C36.1462 17.694 35.9094 18.9278 35.9094 20.0326C35.9094 23.7505 38.5655 26.8108 41.8813 26.8108C43.4109 26.8108 44.6732 26.132 45.5469 24.9384C46.4165 23.7505 46.8947 22.0633 46.8947 20.0435V19.4108H46.8947L46.8946 19.4064C46.8533 17.5044 46.4113 15.9469 45.6179 14.8469C44.8199 13.7407 43.6744 13.1095 42.2659 13.0582L42.2659 13.0582L42.2634 13.0581C41.6816 13.0443 41.2285 13.5254 41.1922 14.1074ZM42.7838 15.7017L42.7843 15.7018L42.7848 15.6876L42.8165 14.8752C43.8048 15.1192 44.3953 15.8659 44.7501 16.746C45.1315 17.6925 45.2251 18.7621 45.2404 19.424V20.0326C45.2404 20.6412 45.1766 21.9185 44.715 23.0367C44.485 23.5939 44.1605 24.1012 43.7057 24.4685C43.2541 24.8333 42.6635 25.069 41.8813 25.069C39.5301 25.069 37.5637 22.8416 37.5637 20.0326C37.5637 19.5847 37.5672 18.745 38.0933 18.014C38.6106 17.2952 39.6725 16.6326 41.9017 16.6326C42.0858 16.6326 42.2908 16.5671 42.4592 16.4119C42.6292 16.2553 42.7488 16.0195 42.7838 15.7017Z" fill="#31394D" stroke="#31394D" stroke-width="0.4"/>
</svg>
