<svg width="96" height="96" viewBox="0 0 96 96" fill="none" xmlns="http://www.w3.org/2000/svg">
<path d="M37.6896 87.1722L24.3838 81.1631C17.8965 78.2334 13.8883 71.6059 14.3063 64.5C14.7462 57.0226 19.9807 50.6923 27.2425 48.856L65.311 39.2295C72.7542 37.3473 80.6323 39.6553 85.8832 45.2562C90.6457 50.3363 92.5962 57.4384 91.0962 64.2383L90.9088 65.0879C89.1796 72.927 83.4482 79.2751 75.8261 81.7937L56.5483 88.1637C50.36 90.2086 43.6294 89.8547 37.6896 87.1722Z" fill="#FBE4E4"/>
<path d="M3.60231 73.5132C5.86582 79.8874 11.3679 91.4751 17.6749 94.0454C18.832 94.5374 20.069 94.8149 21.3254 94.8644C21.8193 94.8993 22.3154 94.8472 22.7913 94.7104C23.0194 94.6263 23.0491 94.5293 23.051 94.4287C23.053 94.328 23.0247 94.2281 22.8116 94.122C22.3791 93.958 21.9341 93.8292 21.4809 93.7369C20.3996 93.4716 19.3538 93.0783 18.3656 92.5653C12.9508 89.707 7.97447 78.4702 6.02652 72.673C5.61318 71.4487 5.22154 70.1615 4.86397 68.8021C3.75725 64.7686 3.1091 61.1456 7.99997 57.0938C10.6172 54.9314 14.0782 53.2772 17.9388 51.7354C33.0655 45.6032 48.7191 40.8612 64.7059 37.568C68.3196 36.8408 72.0376 35.9907 75.6975 36.1804C77.5332 36.2572 79.3321 36.7198 80.977 37.5382C82.622 38.3566 84.076 39.5123 85.2445 40.9302C88.6009 44.7094 93.742 54.7479 93.0277 63.0297C92.3056 72.096 85.7325 75.7464 78.0383 79.1876C71.2339 82.1419 64.2711 84.7173 57.1819 86.9017C50.638 88.9029 44.6508 90.4077 39.5802 91.4801C34.5115 92.5683 30.3686 93.2608 27.5037 93.7295C26.0681 93.9577 24.9615 94.1764 24.2093 94.2563C23.8175 94.2646 23.4282 94.3223 23.0508 94.428C23.4298 94.5485 23.8293 94.5914 24.2253 94.5539C25.0041 94.5677 26.1323 94.4464 27.5799 94.3129C30.4785 94.0309 34.6672 93.5175 39.8026 92.5954C44.9358 91.6872 51.0048 90.3354 57.6481 88.4671C64.8527 86.4217 71.9318 83.9575 78.8492 81.0871C87.5729 77.5577 94.5334 72.912 95.439 63.2818C95.6653 61.0832 95.5902 58.864 95.2157 56.6857C94.1375 50.7933 90.7865 43.2004 87.2773 39.1661C85.8566 37.4676 84.1115 36.0693 82.1441 35.0531C81.6536 34.7972 81.1461 34.5754 80.6252 34.3891C79.106 33.8157 77.5067 33.4823 75.885 33.4007C75.7402 33.3253 75.5863 33.2464 75.4059 33.1516C64.5208 27.7954 52.455 16.0122 45.7082 11.5431C45.8 11.165 45.8608 10.7801 45.8901 10.3922C46.0129 9.13058 45.7599 7.86084 45.163 6.74265C44.5661 5.62446 43.6518 4.70776 42.5352 4.10784C41.73 3.67201 40.8538 3.38243 39.9475 3.25257C38.3958 3.02141 36.8104 3.2213 35.3647 3.8304C33.919 4.43951 32.6685 5.43438 31.75 6.70623C31.34 7.20357 31.0867 7.81143 31.0224 8.45281C31.0193 8.58061 31.0604 8.70558 31.1388 8.80657C30.9927 9.34176 30.9289 9.89605 30.9495 10.4504C30.9537 10.6155 30.9747 10.7938 30.9939 10.9703C30.6839 11.0534 30.2362 11.4641 29.4046 12.7453C25.6895 18.4253 12.7086 44.0163 9.43809 52.687C8.30657 53.3623 7.22789 54.1224 6.21133 54.9608C0.519391 59.7598 0.862136 64.4215 2.33242 69.499C2.72111 70.9108 3.15039 72.2473 3.60231 73.5132ZM31.8974 9.06909C31.9282 9.06341 31.9585 9.05529 31.988 9.0448C32.4544 8.77745 32.8876 8.456 33.2786 8.0871C35.1735 6.60328 37.1074 5.64379 39.4885 6.07382C43.4533 6.75369 43.8211 10.8308 41.9893 12.9156C40.0968 15.1286 35.626 15.7406 33.2271 12.7417C32.6735 12.0245 32.281 11.1964 32.0766 10.3138C31.981 9.90488 31.921 9.4884 31.8974 9.06909ZM31.2437 13.6714C31.3482 13.386 31.4333 13.1363 31.5031 12.9121C31.6091 13.1641 31.7301 13.4096 31.8654 13.6472C34.4163 17.9857 40.6901 18.0706 43.9629 14.7372C44.5731 14.1058 45.0538 13.3612 45.3782 12.5452C45.4987 12.6739 45.6227 12.8046 45.7551 12.9442C51.9191 19.3903 62.6315 29.7376 70.6193 33.6287C70.3325 33.6655 70.0482 33.6979 69.7684 33.7388C67.8154 34.0262 65.9622 34.4093 64.1383 34.7689C47.9578 38.0217 32.1263 42.8178 16.861 49.0916C14.8809 49.8783 12.9435 50.7687 11.0571 51.7593C15.0438 45.2077 28.2912 21.6606 31.2437 13.6714Z" fill="#31394D"/>
<path d="M24.0688 83.5024C25.0326 83.8361 26.0485 83.9935 27.0681 83.967C28.0354 84.0136 28.994 83.764 29.8157 83.2515C30.1722 82.9654 30.1221 82.7675 30.0573 82.5809C29.9924 82.3943 29.8928 82.2274 29.5094 82.1581C29.1242 82.0743 28.4648 82.1072 27.1919 81.9075C26.416 81.793 25.6597 81.5713 24.9446 81.2488C23.8681 80.7447 22.87 80.0879 21.9812 79.2986C20.7133 78.1909 19.6209 76.8971 18.7413 75.4615C18.2045 74.5952 17.767 73.6712 17.4373 72.7069C17.0697 71.6749 16.9122 70.5798 16.974 69.486C17.1072 68.026 17.8117 66.6776 18.9343 65.7346C20.0568 64.7915 21.5064 64.3299 22.9675 64.4505C24.7963 64.7123 26.5141 65.4843 27.9241 66.678C29.4237 67.8836 30.7052 69.3377 31.7127 70.9771C32.6445 72.4494 33.2687 74.0952 33.5475 75.8152C33.7895 77.1779 33.5666 78.5823 32.9146 79.803C32.4161 80.6216 31.7497 81.3252 30.9594 81.8674C30.3638 82.2384 30.0239 82.4838 30.0587 82.5805C30.0935 82.6772 30.4994 82.6144 31.2311 82.3887C32.2683 81.9868 33.1762 81.3093 33.8568 80.4295C34.846 79.0497 35.3118 77.3629 35.171 75.671C35.0325 73.6703 34.4654 71.7228 33.5081 69.9605C32.484 68.0175 31.1172 66.2756 29.4737 64.8187C27.7444 63.2199 25.585 62.1621 23.2617 61.7757C22.164 61.6468 21.0515 61.7395 19.9902 62.0483C18.9288 62.357 17.9402 62.8756 17.0829 63.5732C16.2255 64.2709 15.5169 65.1334 14.9989 66.1098C14.4808 67.0862 14.164 68.1567 14.067 69.2577C13.9737 70.7431 14.1856 72.2319 14.6896 73.6323C15.0997 74.8078 15.6473 75.9308 16.321 76.9777C17.3854 78.6514 18.7207 80.1364 20.2724 81.3719C21.4085 82.2913 22.6921 83.0116 24.0688 83.5024Z" fill="#31394D"/>
<path d="M41.8573 81.6031C42.0957 81.5073 41.3789 79.1836 40.372 75.6418C41.1921 75.5902 41.9976 75.3994 42.7538 75.0778C43.659 74.7346 44.5157 74.2749 45.3022 73.7104C46.501 72.8576 47.5139 71.7701 48.2795 70.514C49.2905 68.802 49.9591 66.91 50.2482 64.9429C50.4544 63.7019 50.4747 62.4371 50.3085 61.1902C50.1079 59.6828 49.5314 58.2501 48.6321 57.0238C48.0163 56.1794 47.1919 55.5092 46.2396 55.0786C45.2387 54.6922 44.1686 54.5173 43.0967 54.5649C42.0799 54.5628 41.0643 54.6366 40.0585 54.7857C38.9302 54.9433 37.8321 55.2703 36.8013 55.7556C36.1975 56.0553 35.6531 56.4623 35.1947 56.9567C34.6757 57.5259 34.3315 58.2324 34.2033 58.992C34.1222 59.6512 34.1574 60.3196 34.3074 60.9667C34.4253 61.5366 34.5558 62.0126 34.6806 62.5281C35.1865 64.5545 35.7491 66.5436 36.3372 68.4338C38.6815 75.9954 41.5009 81.7564 41.8573 81.6031ZM38.3263 67.8882C37.8731 65.9974 37.4358 64.0112 37.0393 62.0028C36.8009 61.1619 36.6971 60.2886 36.7317 59.4152C36.8332 59.1272 36.9983 58.8658 37.2147 58.6504C37.4311 58.435 37.6933 58.2711 37.9818 58.1709C39.6082 57.581 41.3373 57.3269 43.0647 57.4238C44.8635 57.4247 45.5611 57.8222 46.3031 58.7812C47.5804 60.503 47.6758 62.6914 47.4209 64.5249C47.2132 66.1421 46.7193 67.7092 45.962 69.1531C45.4104 70.1592 44.6821 71.0578 43.8121 71.8059C43.1993 72.3349 42.5419 72.8101 41.8474 73.2261C40.9477 73.7713 40.3632 74.1089 40.0131 74.3688C39.4768 72.4476 38.8857 70.2445 38.3263 67.8882Z" fill="#31394D"/>
<path d="M57.8132 75.9054C58.1873 75.7681 57.389 72.3848 56.6898 68.1725C56.6123 67.7311 56.5358 67.2769 56.4602 66.8203C58.6446 66.7443 60.8081 66.3677 62.8897 65.7012C66.8089 64.4115 66.6866 63.7642 66.4348 62.9987C66.1829 62.2333 65.8963 61.6396 61.9779 62.9321C59.9682 63.6194 58.0544 64.5604 56.2829 65.7323C56.0621 64.3548 55.8518 62.9552 55.6711 61.5944C55.5286 60.5089 55.4012 59.458 55.3082 58.4853C55.2571 57.9984 55.2182 57.5319 55.1845 57.0907C55.1427 56.7692 55.1329 56.4444 55.1553 56.121C55.1874 55.964 55.1807 55.9999 55.2255 55.9345C55.3394 55.8247 55.4711 55.735 55.615 55.6692C56.1041 55.4496 56.6061 55.2598 57.1182 55.101C58.1405 54.7641 59.0421 54.5306 59.824 54.3456C61.3884 53.9865 62.4709 53.8189 63.2047 53.6541C64.6773 53.3508 64.765 53.0247 64.7721 52.6111C64.7794 52.2205 64.7417 51.8138 63.1233 51.5925C61.8612 51.466 60.5879 51.5027 59.3351 51.702C58.2998 51.8537 57.2764 52.0784 56.2726 52.3742C55.6082 52.5563 54.9586 52.7886 54.3294 53.0692C53.8593 53.289 53.4343 53.5948 53.0765 53.9708C52.6342 54.4564 52.3515 55.0659 52.2666 55.7172C52.2084 56.2578 52.2173 56.8034 52.2932 57.3418C52.3394 57.816 52.3961 58.3125 52.4674 58.8223C52.6064 59.8449 52.7946 60.9292 53.0173 62.037C53.4629 64.2539 54.0468 66.5658 54.6798 68.6487C55.9193 72.8261 57.4317 76.0484 57.8132 75.9054Z" fill="#31394D"/>
<path d="M67.8166 71.611C67.2291 71.6327 66.3046 72.0272 64.4901 72.7597C63.4964 73.1617 61.9399 73.8272 60.5675 74.3574C59.2053 74.9011 58.0331 75.3428 58.0629 75.7501C58.0889 76.1459 59.3685 76.432 60.9687 76.3807C62.5398 76.3286 64.092 76.0214 65.5645 75.4712C67.6153 74.6436 68.5016 73.8876 68.8635 73.3894C68.9964 73.2201 69.0655 73.0095 69.0589 72.7943C69.0522 72.5792 68.9701 72.3732 68.827 72.2125C68.7465 72.0163 68.6045 71.8515 68.4222 71.743C68.24 71.6346 68.0275 71.5882 67.8166 71.611Z" fill="#31394D"/>
<path d="M73.5733 71.064C73.9659 70.9099 71.9038 65.207 70.6681 57.9409C70.5958 57.4866 70.5208 57.0276 70.443 56.5639C70.4088 56.3364 70.3622 56.0767 70.3492 55.9148C70.3332 55.7634 70.3326 55.6107 70.3473 55.4592C70.3525 55.4073 70.3719 55.3578 70.4032 55.3161C70.4345 55.2744 70.4766 55.242 70.5249 55.2225C70.5713 55.2078 70.6208 55.2066 70.6679 55.219C70.7183 55.2329 70.7061 55.2318 70.943 55.3159C72.7202 56.0101 74.4614 56.7929 76.1603 57.6612C77.8334 58.5161 79.4113 59.4305 80.8362 60.3445L81.879 61.0255L82.3766 61.3654L82.8769 61.7045L83.3618 61.9559C83.6813 62.1157 84.0043 62.3029 84.3106 62.4329C84.6019 62.4865 84.9008 62.4837 85.1911 62.4247C85.7805 62.3097 86.3072 61.9822 86.6711 61.5045C86.8437 61.3115 86.9676 61.0802 87.0325 60.8296C87.0975 60.5791 87.1017 60.3166 87.0447 60.0642C86.9797 59.5006 86.9161 58.9458 86.8539 58.3998C86.8447 58.3076 86.8284 58.2162 86.8051 58.1265L86.7557 57.9061L86.6586 57.4716L86.4654 56.6236C86.1996 55.5151 85.9505 54.4767 85.7183 53.5085C85.235 51.5746 84.7833 49.9193 84.3709 48.5019C83.5446 45.6675 82.8893 43.7812 82.3848 42.5265C81.3703 40.0192 80.9777 40.0295 80.5972 40.1455C80.2166 40.2616 79.9037 40.4723 80.4054 43.1058C80.6532 44.4234 81.0962 46.3481 81.7717 49.1872C82.104 50.6075 82.4906 52.258 82.9391 54.1753C83.1559 55.1358 83.3876 56.1647 83.6342 57.2621C83.7507 57.7931 83.8706 58.342 83.9938 58.9087C83.9998 58.9309 84.0053 58.968 84.0025 58.9576C83.9997 58.9472 84.004 58.9631 84.0009 58.9654L83.9967 58.9666L83.4644 58.616L82.3488 57.918C80.7299 56.9328 79.0566 56.0398 77.337 55.2432C75.51 54.396 73.6355 53.6553 71.7228 53.025C71.3494 52.8993 70.9604 52.8261 70.5668 52.8074C70.1339 52.7925 69.7051 52.8966 69.3273 53.1084C68.9601 53.3255 68.655 53.6334 68.4411 54.0024C68.2272 54.3714 68.1118 54.7892 68.1059 55.2157C68.09 55.8062 68.1625 56.3958 68.321 56.9649L68.6482 58.3605C70.4505 65.7344 73.226 71.2238 73.5733 71.064Z" fill="#31394D"/>
</svg>
