<svg width="933" height="668" viewBox="0 0 933 668" fill="none" xmlns="http://www.w3.org/2000/svg">
<path d="M718.685 266.817C718.826 266.996 719.049 267.089 719.275 267.063C719.819 267 720.061 266.329 719.686 265.931C719.602 265.843 719.519 265.755 719.435 265.668C719.297 265.524 719.098 265.456 718.9 265.483C718.394 265.55 718.162 266.162 718.48 266.56C718.549 266.646 718.617 266.732 718.685 266.817Z" fill="white"/>
<path d="M586.227 297.279C586.194 297.054 586.047 296.862 585.838 296.771C585.336 296.554 584.791 297.014 584.917 297.547C584.945 297.665 584.973 297.783 585.002 297.9C585.05 298.094 585.189 298.252 585.373 298.328C585.845 298.522 586.352 298.109 586.275 297.604C586.259 297.496 586.243 297.388 586.227 297.279Z" fill="white"/>
<path d="M385.727 91.1372C385.49 90.8566 385.127 90.7144 384.762 90.7594C383.864 90.8702 383.478 91.9711 384.112 92.6164C384.247 92.7543 384.383 92.8916 384.519 93.028C384.754 93.2634 385.086 93.3727 385.415 93.3267C386.255 93.2094 386.633 92.2067 386.085 91.5601C385.966 91.4194 385.846 91.2784 385.727 91.1372Z" fill="white"/>
<path d="M786.737 615.902C786.802 616.264 787.045 616.569 787.384 616.712C788.217 617.065 789.102 616.305 788.875 615.429C788.827 615.242 788.778 615.055 788.728 614.869C788.643 614.548 788.409 614.287 788.101 614.162C787.316 613.844 786.487 614.523 786.638 615.357C786.671 615.539 786.704 615.72 786.737 615.902Z" fill="white"/>
<path d="M637.112 633.013C636.939 632.394 636.467 631.903 635.854 631.709C634.349 631.232 632.952 632.69 633.492 634.174C633.602 634.477 633.711 634.779 633.82 635.081C634.021 635.634 634.473 636.06 635.037 636.227C636.444 636.643 637.76 635.333 637.365 633.92C637.28 633.618 637.196 633.316 637.112 633.013Z" fill="white"/>
<path d="M694.596 217.042C693.748 217.609 693.908 218.896 694.87 219.237C695.667 219.519 696.501 218.939 696.522 218.094C696.534 217.584 696.546 217.072 696.558 216.56C696.562 216.382 696.459 216.219 696.296 216.148C696.159 216.088 696 216.102 695.876 216.185L694.596 217.042Z" fill="white"/>
<path d="M582.199 352.431C583.217 352.363 583.722 351.169 583.059 350.393C582.51 349.75 581.498 349.835 581.057 350.556C580.792 350.991 580.525 351.429 580.259 351.867C580.166 352.019 580.175 352.212 580.28 352.355C580.369 352.475 580.513 352.542 580.662 352.532L582.199 352.431Z" fill="white"/>
<path d="M397.93 168.788C398.121 169.411 398.95 169.545 399.332 169.019C399.644 168.588 399.438 167.984 398.931 167.823C398.619 167.724 398.309 167.623 397.999 167.517C397.886 167.478 397.75 167.52 397.674 167.612C397.619 167.68 397.614 167.761 397.64 167.845L397.93 168.788Z" fill="white"/>
<path d="M604.511 114.941C604.051 115.512 604.445 116.359 605.178 116.386C605.785 116.408 606.233 115.838 606.066 115.254C605.963 114.893 605.859 114.528 605.759 114.162C605.728 114.047 605.634 113.961 605.514 113.954C605.396 113.946 605.277 113.991 605.202 114.083L604.511 114.941Z" fill="white"/>
<path d="M609.165 485.895C609.849 485.631 609.931 484.701 609.31 484.311C608.796 483.988 608.122 484.258 607.975 484.846C607.883 485.211 607.791 485.579 607.695 485.946C607.665 486.061 607.703 486.183 607.803 486.249C607.901 486.314 608.027 486.335 608.138 486.293L609.165 485.895Z" fill="white"/>
<path d="M572.907 38.6407C573.032 38.6015 573.071 38.4513 572.985 38.353C572.982 38.3485 572.978 38.344 572.974 38.3396C572.875 38.2269 572.694 38.2785 572.661 38.4246C572.63 38.5635 572.758 38.6874 572.894 38.6449C572.899 38.6435 572.903 38.6421 572.907 38.6407Z" fill="white"/>
<path d="M598.384 567.776C598.257 567.748 598.148 567.858 598.173 567.986C598.174 567.992 598.175 567.998 598.177 568.003C598.206 568.15 598.388 568.196 598.489 568.086C598.586 567.981 598.537 567.81 598.398 567.779C598.394 567.778 598.389 567.777 598.384 567.776Z" fill="white"/>
<path d="M814.657 301.99C814.634 301.97 814.596 301.972 814.581 301.999C814.562 302.032 814.588 302.074 814.625 302.069L814.635 302.068C814.674 302.064 814.689 302.019 814.66 301.993C814.659 301.992 814.658 301.991 814.657 301.99Z" fill="white"/>
<path d="M520.698 218.833C520.708 218.863 520.741 218.879 520.768 218.863C520.801 218.844 520.8 218.795 520.765 218.78L520.756 218.777C520.72 218.761 520.684 218.792 520.696 218.829C520.697 218.831 520.697 218.832 520.698 218.833Z" fill="white"/>
<path d="M382.208 136.968C382.197 137.01 382.231 137.06 382.274 137.055C382.275 137.055 382.277 137.054 382.278 137.054C382.326 137.049 382.343 136.993 382.309 136.959L382.302 136.952C382.271 136.921 382.22 136.925 382.208 136.968Z" fill="white"/>
<path d="M889.075 78.4543C889.3 78.6392 889.641 78.5261 889.711 78.2435C889.752 78.0744 889.679 77.8979 889.529 77.8086C888.588 77.246 887.646 76.6835 886.705 76.121C886.589 76.0521 886.449 76.1584 886.483 76.2882C886.491 76.3184 886.509 76.3453 886.533 76.3651L889.075 78.4543Z" fill="white"/>
<path d="M875.013 123.6C875.03 123.477 874.911 123.38 874.794 123.42C874.727 123.443 874.682 123.507 874.683 123.578C874.688 124.029 874.709 124.476 874.715 124.926C874.715 124.979 874.783 125 874.814 124.958C874.819 124.951 874.822 124.943 874.824 124.934L875.013 123.6Z" fill="white"/>
<path d="M379.232 343.145C379.155 343.243 379.209 343.387 379.331 343.41C379.401 343.424 379.471 343.391 379.506 343.33C379.727 342.936 379.933 342.539 380.153 342.146C380.179 342.1 380.131 342.048 380.083 342.069C380.075 342.072 380.068 342.078 380.062 342.085L379.232 343.145Z" fill="white"/>
<path d="M451.186 226.584C451.216 226.567 451.243 226.539 451.251 226.506C451.263 226.46 451.234 226.422 451.195 226.395C451.123 226.347 451.052 226.299 450.981 226.249C450.716 226.065 450.355 226.056 450.105 226.26C450.009 226.338 449.914 226.417 449.818 226.495C449.622 226.655 449.629 226.957 449.834 227.106C449.956 227.195 450.12 227.203 450.251 227.127L451.186 226.584Z" fill="white"/>
<path d="M797.77 465.872C797.736 465.872 797.698 465.882 797.674 465.907C797.641 465.941 797.647 465.988 797.668 466.031C797.706 466.109 797.743 466.186 797.78 466.264C797.917 466.557 798.225 466.745 798.543 466.693C798.666 466.673 798.788 466.653 798.91 466.633C799.159 466.592 799.304 466.327 799.202 466.096C799.14 465.957 799.003 465.868 798.851 465.869L797.77 465.872Z" fill="white"/>
<path d="M527.231 37.51C527.29 37.5049 527.344 37.467 527.381 37.4205C527.434 37.3538 527.448 37.2642 527.406 37.1901C527.284 36.9733 527.157 36.7534 527.03 36.5337C526.778 36.0976 526.269 35.8738 525.781 35.9958C525.471 36.073 525.163 36.1512 524.854 36.2286C524.371 36.3498 524.136 36.9019 524.387 37.3318C524.532 37.5787 524.806 37.7203 525.091 37.6956L527.231 37.51Z" fill="white"/>
<path d="M637.376 591.593C637.323 591.568 637.257 591.574 637.201 591.595C637.122 591.627 637.066 591.697 637.065 591.782C637.062 592.031 637.062 592.285 637.062 592.539C637.062 593.043 637.391 593.491 637.875 593.629C638.182 593.717 638.487 593.804 638.794 593.891C639.273 594.028 639.753 593.667 639.75 593.169C639.748 592.883 639.582 592.623 639.322 592.502L637.376 591.593Z" fill="white"/>
<path d="M846.105 295.449C845.669 295.61 845.376 296.02 845.364 296.483L845.347 297.196C845.318 298.32 846.53 299.053 847.516 298.514C848.345 298.061 848.512 296.951 847.852 296.275C847.673 296.092 847.494 295.908 847.313 295.723C847 295.401 846.526 295.293 846.105 295.449Z" fill="white"/>
<path d="M490.192 208.774C490.65 208.853 491.109 208.644 491.351 208.248L491.722 207.64C492.309 206.681 491.627 205.44 490.503 205.414C489.558 205.392 488.859 206.269 489.092 207.185C489.155 207.433 489.219 207.682 489.283 207.933C489.393 208.368 489.749 208.699 490.192 208.774Z" fill="white"/>
<path d="M723.105 199.018C723.17 199.557 723.561 200 724.087 200.134L724.899 200.339C726.138 200.652 727.251 199.506 726.9 198.277C726.599 197.222 725.376 196.747 724.436 197.311C724.209 197.447 723.981 197.583 723.751 197.718C723.298 197.986 723.042 198.495 723.105 199.018Z" fill="white"/>
<path d="M548.498 353.786C548.711 353.286 548.595 352.707 548.206 352.328L547.605 351.745C546.689 350.854 545.152 351.29 544.841 352.53C544.575 353.594 545.396 354.617 546.492 354.598C546.757 354.594 547.023 354.59 547.289 354.588C547.815 354.583 548.291 354.27 548.498 353.786Z" fill="white"/>
<path d="M909.027 210.783C908.871 211.181 908.997 211.635 909.336 211.895C909.896 212.325 910.712 212.026 910.861 211.336C910.964 210.858 911.068 210.38 911.171 209.901C911.234 209.609 911.138 209.306 910.918 209.103C910.482 208.703 909.779 208.865 909.563 209.416L909.027 210.783Z" fill="white"/>
<path d="M393.366 250.636C393.701 250.369 393.818 249.914 393.655 249.518C393.386 248.866 392.529 248.717 392.055 249.24C391.726 249.602 391.398 249.965 391.069 250.328C390.869 250.549 390.8 250.86 390.89 251.145C391.067 251.71 391.756 251.921 392.219 251.552L393.366 250.636Z" fill="white"/>
<path d="M624.189 306.151C623.649 306.438 623.362 307.046 623.484 307.646C623.688 308.643 624.866 309.086 625.678 308.472C626.242 308.046 626.805 307.621 627.371 307.191C627.712 306.932 627.891 306.512 627.841 306.086C627.743 305.235 626.819 304.751 626.063 305.153L624.189 306.151Z" fill="white"/>
<path d="M687.73 310.465C688.341 310.486 688.894 310.102 689.087 309.522C689.409 308.556 688.611 307.584 687.601 307.709C686.9 307.796 686.199 307.883 685.494 307.972C685.069 308.026 684.704 308.301 684.534 308.694C684.194 309.48 684.752 310.362 685.607 310.391L687.73 310.465Z" fill="white"/>
<path d="M439.408 34.6089C438.457 34.5694 437.594 35.1601 437.286 36.0604C436.777 37.5505 437.991 39.061 439.555 38.8787C440.642 38.752 441.728 38.6248 442.816 38.5009C443.486 38.4247 444.065 37.9977 444.335 37.3793C444.863 36.1658 444.008 34.8 442.686 34.7451L439.408 34.6089Z" fill="white"/>
<path d="M711.983 638.016C712.787 638.526 713.83 638.446 714.546 637.82C715.732 636.784 715.436 634.869 713.991 634.245C712.986 633.811 711.981 633.378 710.977 632.942C710.359 632.673 709.644 632.753 709.101 633.154C708.037 633.94 708.094 635.551 709.212 636.259L711.983 638.016Z" fill="white"/>
<path d="M408.15 155.789C408.075 155.148 407.586 154.633 406.95 154.525C405.896 154.345 405.015 155.327 405.305 156.357C405.506 157.072 405.706 157.788 405.9 158.501C406.022 158.948 406.374 159.296 406.823 159.411C407.694 159.633 408.517 158.912 408.412 158.02L408.15 155.789Z" fill="white"/>
<path d="M799.641 548.7C799.386 549.293 799.552 549.983 800.048 550.395C800.872 551.078 802.126 550.667 802.39 549.63C802.573 548.911 802.758 548.191 802.946 547.476C803.064 547.028 802.933 546.551 802.602 546.227C801.958 545.599 800.886 545.812 800.53 546.637L799.641 548.7Z" fill="white"/>
<path d="M667.014 394.678C666.161 393.928 664.813 394.431 664.659 395.556C664.595 396.019 664.532 396.482 664.469 396.948C664.448 397.103 664.506 397.259 664.624 397.362C664.742 397.466 664.903 397.503 665.055 397.463C665.515 397.341 665.977 397.221 666.439 397.101C667.538 396.818 667.867 395.428 667.014 394.678Z" fill="white"/>
<path d="M694.904 212.384C695.268 213.46 696.686 213.698 697.383 212.801C697.669 212.432 697.956 212.063 698.243 211.69C698.339 211.567 698.366 211.403 698.316 211.255C698.265 211.106 698.144 210.993 697.993 210.952C697.533 210.828 697.073 210.701 696.614 210.573C695.52 210.269 694.54 211.309 694.904 212.384Z" fill="white"/>
<path d="M621.241 89.9144C621.305 90.0318 621.409 90.1216 621.535 90.1666C621.649 90.2075 621.763 90.2484 621.878 90.2893C622.307 90.4429 622.786 90.3333 623.106 90.0084L623.253 89.8587C623.537 89.5695 623.592 89.1253 623.386 88.7756C623.085 88.2626 622.376 88.1811 621.965 88.6121L621.325 89.284C621.164 89.4538 621.13 89.7082 621.241 89.9144Z" fill="white"/>
<path d="M582.163 499.204C582.166 499.07 582.121 498.94 582.034 498.839C581.956 498.746 581.877 498.653 581.799 498.561C581.504 498.213 581.034 498.068 580.595 498.19L580.392 498.246C580.001 498.354 579.732 498.712 579.735 499.117C579.74 499.713 580.313 500.138 580.884 499.97L581.775 499.708C581.999 499.641 582.156 499.438 582.163 499.204Z" fill="white"/>
<path d="M863.65 55.131C863.596 54.7222 863.122 54.5223 862.792 54.7685L860.286 56.6338C860.199 56.6985 860.153 56.8047 860.166 56.9123C860.168 56.9265 860.171 56.9405 860.174 56.9543C860.175 56.9563 860.175 56.9583 860.176 56.9603C860.235 57.1785 860.48 57.2635 860.678 57.1548L863.374 55.6763C863.57 55.5689 863.68 55.3523 863.65 55.131Z" fill="white"/>
<path d="M354.837 408.123C354.68 408.504 354.99 408.914 355.4 408.866L358.503 408.504C358.61 408.491 358.703 408.422 358.745 408.322C358.751 408.309 358.756 408.296 358.759 408.282C358.76 408.28 358.76 408.278 358.761 408.276C358.819 408.058 358.649 407.862 358.423 407.857L355.349 407.789C355.126 407.784 354.922 407.917 354.837 408.123Z" fill="white"/>
<path d="M495.544 150.5C495.291 150.549 495.179 150.847 495.336 151.051L496.494 152.548C496.546 152.615 496.632 152.644 496.714 152.622C496.863 152.582 496.912 152.414 496.836 152.28L495.91 150.667C495.836 150.539 495.689 150.472 495.544 150.5Z" fill="white"/>
<path d="M721.312 509.584C721.556 509.667 721.802 509.465 721.767 509.21L721.513 507.335C721.502 507.251 721.442 507.183 721.36 507.161C721.211 507.121 721.084 507.242 721.084 507.396L721.079 509.256C721.078 509.404 721.172 509.536 721.312 509.584Z" fill="white"/>
<path d="M884.196 179.408C884.322 179.477 884.477 179.466 884.589 179.374C884.596 179.368 884.603 179.362 884.611 179.356C884.713 179.272 884.76 179.135 884.726 179.006C884.703 178.919 884.644 178.846 884.565 178.803C884.258 178.637 883.958 178.468 883.654 178.294C883.29 178.085 882.872 177.989 882.454 178.02L881.922 178.059C881.914 178.06 881.907 178.062 881.9 178.067C881.872 178.086 881.873 178.128 881.903 178.145L884.196 179.408Z" fill="white"/>
<path d="M399.183 290.222C399.108 290.099 398.968 290.031 398.826 290.055C398.816 290.057 398.807 290.058 398.798 290.06C398.666 290.082 398.557 290.177 398.523 290.305C398.5 290.392 398.513 290.485 398.56 290.562C398.743 290.859 398.919 291.156 399.095 291.458C399.306 291.821 399.62 292.113 399.997 292.296L400.477 292.527C400.484 292.531 400.492 292.532 400.5 292.532C400.535 292.53 400.554 292.492 400.537 292.462L399.183 290.222Z" fill="white"/>
<path d="M690.313 266.682C690.34 266.682 690.35 266.645 690.326 266.631C690.302 266.618 690.275 266.644 690.289 266.668C690.294 266.677 690.303 266.682 690.313 266.682Z" fill="white"/>
<path d="M610.729 311.582C610.705 311.569 610.678 311.596 610.692 311.62C610.706 311.644 610.742 311.634 610.743 311.607C610.743 311.597 610.738 311.587 610.729 311.582Z" fill="white"/>
<path d="M645.072 270.679C645.096 270.665 645.088 270.629 645.06 270.627C645.034 270.625 645.021 270.658 645.041 270.675C645.049 270.683 645.062 270.684 645.072 270.679Z" fill="white"/>
<path d="M651.908 330.743C651.88 330.742 651.869 330.778 651.892 330.793C651.914 330.808 651.942 330.786 651.934 330.761C651.93 330.75 651.92 330.743 651.908 330.743Z" fill="white"/>
<path d="M815.146 61.9215C815.123 61.8915 815.075 61.9091 815.078 61.9465C815.08 61.9859 815.134 61.9954 815.15 61.9592C815.155 61.9468 815.154 61.9324 815.146 61.9215Z" fill="white"/>
<path d="M400.24 426.494C400.244 426.531 400.294 426.54 400.311 426.506C400.328 426.471 400.286 426.436 400.255 426.459C400.244 426.467 400.238 426.48 400.24 426.494Z" fill="white"/>
<path d="M522.244 65.5016C522.238 65.5219 522.263 65.5373 522.278 65.522C522.292 65.5074 522.278 65.4834 522.258 65.4887C522.252 65.4904 522.247 65.4953 522.244 65.5016Z" fill="white"/>
<path d="M655.69 569.844C655.706 569.83 655.692 569.804 655.671 569.81C655.652 569.815 655.652 569.843 655.671 569.848C655.678 569.85 655.685 569.848 655.69 569.844Z" fill="white"/>
<path d="M422.561 588.831C422.533 588.82 422.502 588.818 422.472 588.823L419.098 589.445C418.567 589.542 418.179 589.996 418.165 590.535C418.141 591.53 419.313 592.075 420.055 591.411L422.618 589.121C422.715 589.034 422.684 588.875 422.561 588.831Z" fill="white"/>
<path d="M831.38 424.304C831.351 424.374 831.365 424.454 831.415 424.511C831.547 424.66 831.792 424.539 831.761 424.342C831.73 424.146 831.465 424.104 831.387 424.287C831.385 424.292 831.382 424.298 831.38 424.304Z" fill="white"/>
<path d="M567.372 104.544C567.432 104.498 567.46 104.422 567.445 104.348C567.405 104.152 567.133 104.134 567.061 104.321C566.991 104.506 567.199 104.675 567.357 104.556C567.362 104.552 567.367 104.548 567.372 104.544Z" fill="white"/>
<path d="M419.647 92.935C419.464 92.9161 419.287 93.0036 419.188 93.1588C418.922 93.5775 419.377 94.0798 419.823 93.8622C420.263 93.6475 420.161 92.989 419.674 92.9379C419.665 92.937 419.656 92.936 419.647 92.935Z" fill="white"/>
<path d="M372.784 58.6231C372.492 59.4145 372.682 60.303 373.272 60.9058L373.729 61.3731C373.917 61.565 374.179 61.6683 374.447 61.6649C374.853 61.6598 375.203 61.3918 375.322 61.0033L376.019 58.7178C376.195 58.1396 376.009 57.5084 375.557 57.1076C374.751 56.3938 373.488 56.7127 373.115 57.7229L372.784 58.6231Z" fill="white"/>
<path d="M454.288 604.474C454.267 604.61 454.325 604.741 454.437 604.819C454.5 604.863 454.564 604.907 454.627 604.951C455.015 605.219 455.523 604.828 455.364 604.385C455.262 604.101 454.928 603.979 454.668 604.13L454.434 604.265C454.359 604.308 454.301 604.389 454.288 604.474Z" fill="white"/>
<path d="M921.418 32.9288C921.222 32.775 920.94 32.7446 920.722 32.8663C920.576 32.9482 920.429 33.0306 920.282 33.1133C919.495 33.556 919.74 34.7594 920.636 34.8605C921.219 34.9262 921.715 34.4421 921.664 33.8584L921.617 33.3171C921.603 33.1616 921.541 33.0252 921.418 32.9288Z" fill="white"/>
<path d="M561.582 118.818C561.694 118.543 561.599 118.231 561.374 118.036C561.222 117.906 561.07 117.775 560.919 117.645C560.125 116.962 558.921 117.698 559.168 118.716C559.329 119.379 560.057 119.728 560.674 119.438L561.232 119.176C561.388 119.102 561.516 118.978 561.582 118.818Z" fill="white"/>
<path d="M648.28 504.002C648.044 504.184 647.971 504.502 648.069 504.783C648.135 504.972 648.201 505.161 648.267 505.349C648.613 506.338 650.024 506.302 650.319 505.297C650.511 504.643 650.055 503.976 649.375 503.919L648.761 503.867C648.589 503.853 648.416 503.896 648.28 504.002Z" fill="white"/>
<path d="M721.476 129.653C721.573 129.658 721.665 129.605 721.707 129.517C721.742 129.445 721.776 129.372 721.81 129.299C721.976 128.949 721.583 128.585 721.246 128.778C721.031 128.901 720.981 129.19 721.142 129.378L721.307 129.569C721.35 129.618 721.411 129.649 721.476 129.653Z" fill="white"/>
<path d="M515.226 414.672C515.145 414.618 515.039 414.619 514.958 414.674C514.892 414.719 514.826 414.765 514.76 414.811C514.441 415.032 514.6 415.543 514.988 415.545C515.236 415.546 515.424 415.321 515.378 415.077L515.331 414.829C515.318 414.765 515.281 414.708 515.226 414.672Z" fill="white"/>
<path d="M374.545 564.322C374.589 563.77 374.276 563.245 373.774 563.012C373.406 562.841 373.038 562.67 372.669 562.499C370.805 561.633 368.926 563.669 369.939 565.458C370.595 566.618 372.147 566.889 373.158 566.02L374.076 565.23C374.347 564.997 374.516 564.678 374.545 564.322Z" fill="white"/>
<path d="M447.094 70.8326C446.342 69.9608 444.98 69.9948 444.272 70.903C443.492 71.9049 443.947 73.3782 445.157 73.7642L447.061 74.3714C447.947 74.654 448.84 73.9086 448.702 72.9888C448.667 72.7592 448.566 72.5386 448.415 72.3628L447.094 70.8326Z" fill="white"/>
<path d="M723.437 602.802C723.653 603.934 724.849 604.585 725.916 604.152C727.093 603.675 727.435 602.171 726.58 601.232L725.235 599.755C724.609 599.067 723.463 599.266 723.123 600.131C723.038 600.347 723.015 600.589 723.059 600.817L723.437 602.802Z" fill="white"/>
<path d="M385.694 206.253C386.786 206.79 388.096 206.195 388.411 205.019C388.759 203.723 387.71 202.476 386.372 202.596L384.258 202.787C383.279 202.875 382.721 203.964 383.227 204.806C383.357 205.023 383.548 205.198 383.775 205.309L385.694 206.253Z" fill="white"/>
<path d="M547.725 11.277C548.081 11.1103 548.072 10.5962 547.705 10.4586L547.674 10.4471C547.477 10.3731 547.255 10.449 547.144 10.6283C546.91 11.0061 547.323 11.4658 547.725 11.277Z" fill="white"/>
<path d="M606.509 604.064C606.118 604.031 605.868 604.48 606.117 604.783L606.138 604.808C606.272 604.971 606.502 605.016 606.688 604.916C607.08 604.706 606.951 604.101 606.509 604.064Z" fill="white"/>
<path d="M349.66 137.176C349.43 137.292 349.445 137.635 349.687 137.723C349.818 137.771 349.964 137.719 350.034 137.598L350.044 137.581C350.19 137.332 349.918 137.047 349.66 137.176Z" fill="white"/>
<path d="M807.052 348.786C806.755 348.662 806.455 348.954 806.575 349.253L806.583 349.273C806.648 349.434 806.817 349.527 806.988 349.495C807.343 349.427 807.386 348.926 807.052 348.786Z" fill="white"/>
<path d="M550.683 182.109C550.878 182.365 551.283 182.262 551.329 181.943L551.333 181.922C551.357 181.75 551.257 181.585 551.093 181.528C550.751 181.409 550.464 181.821 550.683 182.109Z" fill="white"/>
<path d="M645.462 351.937C645.284 351.929 645.117 352.024 645.033 352.181L642.212 357.46C642.119 357.636 642.106 357.843 642.178 358.029C642.279 358.293 642.534 358.467 642.817 358.466L644.106 358.464C645.753 358.46 646.969 356.927 646.596 355.323L645.891 352.295C645.844 352.093 645.669 351.947 645.462 351.937Z" fill="white"/>
<path d="M692.201 260.175C692.351 260.271 692.543 260.273 692.694 260.178L697.777 257.017C697.946 256.912 698.06 256.739 698.091 256.542C698.135 256.263 698.002 255.985 697.756 255.844L696.638 255.201C695.211 254.381 693.391 255.101 692.912 256.677L692.008 259.651C691.947 259.849 692.026 260.063 692.201 260.175Z" fill="white"/>
<path d="M743.912 357.696C743.925 357.629 743.902 357.56 743.851 357.514L741.899 355.763C741.746 355.626 741.545 355.556 741.34 355.569C741.022 355.59 740.75 355.805 740.656 356.11C740.62 356.223 740.585 356.337 740.549 356.451C740.271 357.335 740.999 358.202 741.919 358.084L743.747 357.849C743.829 357.838 743.895 357.777 743.912 357.696Z" fill="white"/>
<path d="M609.818 205.963C609.772 206.014 609.757 206.086 609.779 206.151L610.594 208.644C610.658 208.839 610.798 209 610.982 209.091C611.267 209.232 611.61 209.181 611.844 208.965C611.932 208.884 612.019 208.804 612.107 208.723C612.79 208.096 612.593 206.981 611.737 206.624L610.037 205.913C609.961 205.881 609.873 205.901 609.818 205.963Z" fill="white"/>
<path d="M692.685 175.36C692.544 175.224 692.336 175.181 692.152 175.252L686.351 177.491C685.882 177.672 685.508 178.035 685.313 178.498C685.019 179.197 685.182 180.004 685.722 180.535C685.945 180.755 686.168 180.976 686.391 181.196C687.946 182.732 690.559 182.138 691.3 180.082L692.809 175.894C692.876 175.707 692.828 175.498 692.685 175.36Z" fill="white"/>
<path d="M563.013 389.484C563.067 389.672 563.226 389.813 563.42 389.843L569.564 390.805C570.06 390.883 570.566 390.755 570.966 390.452C571.57 389.994 571.832 389.214 571.631 388.483C571.547 388.181 571.464 387.878 571.381 387.576C570.803 385.469 568.242 384.677 566.573 386.087L563.172 388.959C563.021 389.087 562.958 389.293 563.013 389.484Z" fill="white"/>
<path d="M581.085 2.65284C581.141 2.32524 581.001 1.99643 580.729 1.80631C580.265 1.48281 579.626 1.69908 579.453 2.23754L578.61 4.87143C578.462 5.33433 578.654 5.83815 579.073 6.08471C579.7 6.45414 580.503 6.08062 580.625 5.36261L581.085 2.65284Z" fill="white"/>
<path d="M573.306 594.853C573.094 595.108 573.051 595.463 573.192 595.764C573.431 596.276 574.093 596.408 574.512 596.028L576.559 594.169C576.919 593.842 577.005 593.31 576.765 592.887C576.406 592.253 575.524 592.175 575.059 592.736L573.306 594.853Z" fill="white"/>
<path d="M481.833 71.5363C482.376 71.9896 483.134 72.0828 483.773 71.7818C484.859 71.2707 485.139 69.8652 484.335 68.9743L480.408 64.6228C479.718 63.8578 478.59 63.6724 477.691 64.1762C476.343 64.9319 476.169 66.8037 477.355 67.7947L481.833 71.5363Z" fill="white"/>
<path d="M693.705 584.824C693.462 584.16 692.852 583.7 692.147 583.641C690.952 583.541 690.006 584.618 690.257 585.792L691.482 591.524C691.697 592.531 692.582 593.256 693.612 593.269C695.157 593.289 696.244 591.755 695.712 590.303L693.705 584.824Z" fill="white"/>
<path d="M584.946 230.448C584.305 230.653 584.029 231.408 584.389 231.977C584.646 232.385 585.151 232.559 585.605 232.397L586.867 231.945C587.452 231.736 587.676 231.032 587.322 230.521C587.242 230.406 587.135 230.305 587.014 230.235C586.998 230.226 586.982 230.217 586.967 230.208C586.68 230.042 586.337 230.005 586.021 230.106L584.946 230.448Z" fill="white"/>
<path d="M683.863 395.646C684.521 395.79 685.137 395.273 685.11 394.601C685.091 394.119 684.741 393.716 684.267 393.629L682.948 393.389C682.337 393.278 681.791 393.776 681.842 394.395C681.854 394.535 681.896 394.676 681.966 394.797C681.975 394.813 681.984 394.829 681.993 394.844C682.159 395.131 682.437 395.334 682.761 395.405L683.863 395.646Z" fill="white"/>
<path d="M815.044 259.508C814.297 261.335 815.488 263.374 817.447 263.62L818.578 263.762C819.966 263.936 821.29 263.128 821.77 261.814L823.617 256.751C824.296 254.89 823.017 252.893 821.042 252.733C820.924 252.723 820.805 252.713 820.686 252.703C820.249 252.668 819.81 252.729 819.397 252.877C819.171 252.958 818.943 253.038 818.715 253.118C817.923 253.397 817.294 254.005 816.977 254.782L815.044 259.508Z" fill="white"/>
<path d="M499.121 255.431C500.682 254.222 500.669 251.861 499.096 250.668L498.187 249.98C497.072 249.135 495.521 249.173 494.449 250.071L490.318 253.532C488.799 254.804 488.908 257.173 490.538 258.299C490.636 258.367 490.734 258.435 490.832 258.503C491.193 258.752 491.604 258.918 492.035 258.997C492.272 259.04 492.509 259.085 492.747 259.129C493.572 259.284 494.42 259.072 495.084 258.558L499.121 255.431Z" fill="white"/>
<path d="M611.246 268.512C612.717 269.833 615.041 269.395 615.93 267.63L616.811 265.881C617.44 264.631 617.123 263.114 616.046 262.221L610.878 257.939C609.356 256.678 607.059 257.21 606.249 259.013C606.125 259.288 606.001 259.563 605.877 259.838C605.696 260.238 605.604 260.673 605.608 261.112C605.611 261.428 605.613 261.744 605.613 262.058C605.613 262.935 605.974 263.778 606.626 264.363L611.246 268.512Z" fill="white"/>
<path d="M680.117 349.531C679.503 347.652 677.272 346.869 675.619 347.953L673.982 349.028C672.812 349.795 672.328 351.268 672.815 352.58L675.149 358.872C675.837 360.725 678.092 361.413 679.695 360.256C679.94 360.08 680.184 359.904 680.43 359.728C680.786 359.472 681.083 359.141 681.299 358.759C681.455 358.484 681.611 358.21 681.769 357.937C682.207 357.177 682.316 356.268 682.044 355.434L680.117 349.531Z" fill="white"/>
<path d="M620.509 192.084C620.735 192.228 621.028 192.207 621.231 192.033C621.357 191.926 621.433 191.772 621.442 191.607C621.455 191.377 621.466 191.143 621.478 190.912C621.491 190.653 621.462 190.394 621.39 190.146L620.964 188.689C620.87 188.368 620.573 188.149 620.239 188.155C620.085 188.157 619.936 188.208 619.812 188.298C619.718 188.367 619.623 188.436 619.529 188.505C618.488 189.264 618.527 190.822 619.613 191.514C619.911 191.704 620.21 191.894 620.509 192.084Z" fill="white"/>
<path d="M633.881 411.088C633.757 410.851 633.493 410.723 633.23 410.772C633.067 410.802 632.924 410.897 632.834 411.035C632.708 411.228 632.582 411.425 632.456 411.62C632.315 411.836 632.21 412.075 632.149 412.326L631.789 413.801C631.71 414.126 631.858 414.464 632.15 414.626C632.284 414.701 632.439 414.732 632.591 414.715C632.707 414.703 632.824 414.69 632.94 414.678C634.221 414.541 634.966 413.173 634.372 412.03C634.209 411.716 634.045 411.402 633.881 411.088Z" fill="white"/>
<path d="M893.038 320.657C893.009 320.837 893.099 321.013 893.26 321.098C893.366 321.154 893.491 321.162 893.604 321.12C893.756 321.065 893.909 321.009 894.067 320.951C894.233 320.891 894.388 320.803 894.525 320.69L895.356 320.004C895.538 319.855 895.598 319.603 895.504 319.388C895.461 319.289 895.388 319.206 895.296 319.15C895.228 319.109 895.16 319.067 895.092 319.027C894.319 318.561 893.308 319.021 893.159 319.911C893.117 320.16 893.077 320.409 893.038 320.657Z" fill="white"/>
<path d="M462.154 163.477C462.268 163.336 462.279 163.138 462.182 162.984C462.118 162.883 462.013 162.813 461.895 162.792C461.736 162.765 461.575 162.737 461.409 162.708C461.235 162.677 461.057 162.676 460.882 162.705L459.819 162.883C459.587 162.922 459.41 163.109 459.383 163.343C459.371 163.45 459.392 163.558 459.444 163.653C459.482 163.723 459.521 163.792 459.559 163.862C459.996 164.651 461.101 164.759 461.675 164.063C461.836 163.868 461.996 163.672 462.154 163.477Z" fill="white"/>
<path d="M919.733 384.372C919.651 384.037 919.257 383.885 918.973 384.079C918.575 384.352 918.763 384.979 919.245 384.988C919.569 384.995 919.811 384.687 919.733 384.372Z" fill="white"/>
<path d="M470.89 94.9501C470.795 95.281 471.059 95.6101 471.403 95.5837C471.883 95.5468 472.035 94.9101 471.622 94.6608C471.344 94.4927 470.981 94.6381 470.89 94.9501Z" fill="white"/>
<path d="M459.257 570.988C459.23 570.793 459.145 570.616 459.017 570.466L454.494 565.193C454.042 564.666 453.421 564.312 452.737 564.192L442.78 562.437C440.608 562.054 438.773 564.069 439.348 566.198C439.392 566.36 439.436 566.521 439.479 566.682C439.763 567.731 440.594 568.543 441.649 568.804C446.659 570.045 451.709 571.279 456.756 572.531C457.358 572.68 457.996 572.553 458.485 572.172C458.618 572.068 458.751 571.963 458.885 571.858C459.15 571.649 459.304 571.321 459.257 570.988Z" fill="white"/>
<path d="M872.866 232.136C872.934 232.078 872.908 231.97 872.82 231.956C872.818 231.955 872.816 231.955 872.814 231.955C872.741 231.943 872.674 232.012 872.685 232.085C872.698 232.167 872.799 232.194 872.861 232.14C872.863 232.139 872.864 232.137 872.866 232.136Z" fill="white"/>
<path d="M435.361 250.224C435.273 250.241 435.241 250.347 435.31 250.403C435.312 250.405 435.313 250.406 435.315 250.407C435.373 250.454 435.465 250.428 435.492 250.359C435.522 250.282 435.448 250.208 435.367 250.223C435.365 250.224 435.363 250.224 435.361 250.224Z" fill="white"/>
<path d="M730.816 232.875C730.881 232.7 730.799 232.506 730.628 232.431C730.514 232.381 730.381 232.396 730.279 232.469C729.89 232.752 729.498 233.024 729.109 233.303C728.908 233.448 728.819 233.702 728.883 233.941C728.949 234.187 729.162 234.364 729.415 234.385L729.589 234.399C729.967 234.43 730.32 234.205 730.453 233.849L730.816 232.875Z" fill="white"/>
<path d="M558.748 320.61C558.605 320.728 558.579 320.938 558.689 321.088C558.763 321.189 558.886 321.242 559.011 321.229C559.489 321.179 559.964 321.14 560.441 321.092C560.688 321.068 560.892 320.892 560.956 320.653C561.022 320.407 560.926 320.147 560.717 320.003L560.573 319.903C560.261 319.687 559.843 319.705 559.55 319.947L558.748 320.61Z" fill="white"/>
<path d="M742.299 319.747C741.177 320.302 740.517 321.496 740.645 322.742L740.849 324.736C740.913 325.36 741.232 325.934 741.721 326.329C742.442 326.91 743.432 327.02 744.256 326.598L749.483 323.925C751.432 322.928 751.694 320.244 749.973 318.889C749.703 318.677 749.432 318.464 749.162 318.251C748.255 317.539 747.02 317.413 745.986 317.924L742.299 319.747Z" fill="white"/>
<path d="M592.239 239.634C593.489 239.715 594.657 239.011 595.17 237.868L595.99 236.039C596.247 235.466 596.257 234.81 596.031 234.224C595.698 233.36 594.895 232.77 593.97 232.723L588.107 232.424C585.921 232.313 584.352 234.507 585.165 236.54C585.293 236.859 585.421 237.179 585.549 237.498C585.978 238.568 586.984 239.295 588.135 239.37L592.239 239.634Z" fill="white"/>
<path d="M584.323 178.383C583.716 178.756 583.713 179.643 584.306 180.039C585.028 180.522 585.958 179.885 585.79 179.032C585.659 178.366 584.902 178.028 584.323 178.383Z" fill="white"/>
<path d="M658.369 441.047C659.082 441.028 659.528 440.261 659.213 439.621C658.829 438.842 657.704 438.929 657.424 439.751C657.205 440.394 657.691 441.065 658.369 441.047Z" fill="white"/>
<path d="M497.46 110.162C497.398 110.689 497.918 111.099 498.424 110.94C499.044 110.744 499.098 109.902 498.52 109.605C498.069 109.373 497.519 109.659 497.46 110.162Z" fill="white"/>
<path d="M699.483 543.56C699.8 543.134 699.555 542.519 699.037 542.404C698.403 542.263 697.935 542.966 698.287 543.512C698.561 543.938 699.181 543.966 699.483 543.56Z" fill="white"/>
<path d="M783.578 11.1155C783.654 11.4516 784.063 11.5875 784.336 11.3777C784.676 11.1173 784.523 10.5723 784.099 10.5146C783.771 10.4699 783.499 10.7666 783.572 11.0894L783.578 11.1155Z" fill="white"/>
<path d="M402.174 486.277C402.276 485.948 401.991 485.626 401.649 485.671C401.225 485.727 401.085 486.275 401.423 486.537C401.685 486.74 402.069 486.619 402.166 486.302L402.174 486.277Z" fill="white"/>
<path d="M649.718 68.5463C649.628 68.747 649.597 68.9689 649.627 69.1867C649.657 69.4043 649.748 69.6091 649.888 69.7778L649.991 69.9009C650.808 70.881 652.367 70.6734 652.899 69.5135C653.625 67.9285 654.346 66.3527 655.066 64.7773C655.116 64.6676 655.1 64.539 655.023 64.4459C654.967 64.3776 654.884 64.336 654.796 64.3313C654.419 64.311 654.041 64.2877 653.664 64.2637C652.473 64.188 651.366 64.862 650.879 65.9514L649.718 68.5463Z" fill="white"/>
<path d="M546.817 503.471C546.995 503.342 547.133 503.165 547.216 502.962C547.299 502.758 547.323 502.535 547.286 502.319L547.258 502.161C547.041 500.904 545.586 500.304 544.546 501.043C543.125 502.052 541.713 503.057 540.301 504.061C540.203 504.131 540.153 504.25 540.173 504.369C540.187 504.457 540.238 504.534 540.312 504.582C540.628 504.788 540.944 504.997 541.259 505.207C542.252 505.868 543.548 505.837 544.515 505.138L546.817 503.471Z" fill="white"/>
<path d="M685.356 143.261C685.294 143.246 685.229 143.253 685.17 143.279C685.128 143.298 685.091 143.327 685.063 143.364L685.036 143.397C684.828 143.663 684.964 144.054 685.293 144.128C685.717 144.223 686.139 144.315 686.564 144.417C686.595 144.425 686.627 144.411 686.642 144.384C686.651 144.369 686.654 144.353 686.651 144.337C686.637 144.249 686.622 144.161 686.608 144.074C686.554 143.747 686.31 143.485 685.988 143.409L685.356 143.261Z" fill="white"/>
<path d="M553.311 420.947C553.357 420.991 553.417 421.018 553.481 421.024C553.527 421.029 553.573 421.022 553.616 421.005L553.656 420.989C553.969 420.863 554.046 420.457 553.798 420.228C553.479 419.934 553.16 419.643 552.843 419.342C552.82 419.32 552.785 419.316 552.758 419.332C552.744 419.34 552.733 419.353 552.727 419.368C552.696 419.451 552.664 419.535 552.633 419.618C552.516 419.927 552.597 420.277 552.838 420.503L553.311 420.947Z" fill="white"/>
<path d="M784.136 179.819C784.251 179.826 784.365 179.801 784.465 179.745C784.561 179.692 784.641 179.612 784.695 179.516L784.738 179.44C785.061 178.864 784.678 178.148 784.019 178.102C783.115 178.04 782.217 177.984 781.329 177.925C781.273 177.921 781.219 177.95 781.191 177.999C781.17 178.035 781.166 178.078 781.179 178.118C781.239 178.307 781.296 178.496 781.352 178.686C781.525 179.271 782.043 179.679 782.651 179.72L784.136 179.819Z" fill="white"/>
<path d="M486.043 339.897C485.948 339.834 485.837 339.799 485.722 339.797C485.612 339.795 485.504 339.824 485.409 339.88L485.333 339.925C484.765 340.262 484.739 341.073 485.287 341.442C486.039 341.948 486.789 342.446 487.528 342.941C487.575 342.972 487.635 342.974 487.684 342.946C487.72 342.925 487.746 342.89 487.755 342.849C487.797 342.655 487.843 342.463 487.889 342.27C488.031 341.677 487.787 341.065 487.28 340.726L486.043 339.897Z" fill="white"/>
<path d="M904.313 151.354C904.351 151.347 904.387 151.329 904.416 151.303C904.448 151.275 904.471 151.238 904.482 151.197L904.487 151.179C904.544 150.974 904.364 150.781 904.155 150.818C903.853 150.872 903.55 150.923 903.25 150.983C903.227 150.988 903.209 151.006 903.205 151.028C903.201 151.044 903.205 151.059 903.213 151.072C903.246 151.122 903.28 151.176 903.313 151.229C903.424 151.405 903.631 151.492 903.834 151.451L904.313 151.354Z" fill="white"/>
<path d="M367.734 304.459C367.698 304.447 367.658 304.444 367.62 304.452C367.579 304.461 367.54 304.481 367.51 304.511L367.497 304.524C367.345 304.673 367.404 304.931 367.604 305.003C367.893 305.107 368.18 305.215 368.47 305.312C368.492 305.32 368.517 305.313 368.532 305.296C368.542 305.284 368.547 305.269 368.546 305.254C368.543 305.194 368.54 305.131 368.538 305.067C368.53 304.86 368.395 304.681 368.198 304.615L367.734 304.459Z" fill="white"/>
<path d="M825.079 378.425C824.789 378.164 824.341 378.257 824.166 378.606L823.948 379.04C823.926 379.085 823.913 379.136 823.907 379.186C823.896 379.288 823.931 379.387 824.002 379.462L824.087 379.552C824.449 379.934 825.095 379.759 825.216 379.246C825.235 379.166 825.253 379.085 825.272 379.006C825.321 378.796 825.239 378.568 825.079 378.425Z" fill="white"/>
<path d="M549.888 147.427C550.009 147.798 550.444 147.941 550.769 147.727L551.175 147.46C551.217 147.432 551.254 147.394 551.284 147.354C551.345 147.271 551.363 147.168 551.339 147.068L551.311 146.947C551.188 146.435 550.541 146.264 550.181 146.647C550.124 146.708 550.068 146.768 550.012 146.828C549.865 146.985 549.822 147.223 549.888 147.427Z" fill="white"/>
<path d="M397.796 125.068C398.137 125.269 398.539 124.952 398.442 124.568C398.362 124.246 397.972 124.115 397.716 124.326C397.477 124.522 397.501 124.895 397.768 125.052C397.777 125.057 397.786 125.063 397.796 125.068Z" fill="white"/>
<path d="M793.249 580.483C793.054 580.138 792.548 580.212 792.439 580.593C792.348 580.912 792.62 581.22 792.947 581.166C793.252 581.115 793.418 580.78 793.265 580.511C793.26 580.502 793.255 580.492 793.249 580.483Z" fill="white"/>
<path d="M763.827 112.442C763.792 112.976 764.408 113.288 764.817 112.943L764.844 112.92C765.185 112.633 765.11 112.089 764.705 111.904C764.31 111.723 763.855 112.009 763.827 112.442Z" fill="white"/>
<path d="M469.944 408.402C470.241 407.957 469.863 407.379 469.336 407.473L469.302 407.479C468.863 407.557 468.656 408.066 468.914 408.429C469.166 408.782 469.703 408.763 469.944 408.402Z" fill="white"/>
<path d="M813.815 24.8218C813.962 25.0072 814.259 24.9204 814.287 24.685C814.31 24.494 814.129 24.339 813.945 24.3951C813.764 24.4505 813.696 24.6734 813.815 24.8218Z" fill="white"/>
<path d="M382.844 459.289C382.808 459.055 382.508 458.982 382.366 459.172C382.251 459.326 382.33 459.55 382.517 459.594C382.702 459.636 382.872 459.477 382.844 459.289Z" fill="white"/>
<path d="M595.982 148C598.142 147.233 598.684 144.425 596.965 142.909C596.931 142.879 596.898 142.85 596.865 142.821C596.104 142.15 595.057 141.907 594.079 142.176L589.691 143.386C588.737 143.649 587.974 144.365 587.653 145.301C587.592 145.48 587.531 145.659 587.47 145.838C586.654 148.222 588.961 150.503 591.334 149.656C592.886 149.102 594.435 148.55 595.982 148Z" fill="white"/>
<path d="M633.082 461.53C630.827 461.114 628.954 463.275 629.685 465.448C629.699 465.49 629.713 465.532 629.727 465.574C630.05 466.535 630.836 467.269 631.818 467.525L636.222 468.671C637.18 468.921 638.199 468.682 638.945 468.031C639.087 467.907 639.23 467.783 639.373 467.658C641.271 466.002 640.413 462.873 637.934 462.42C636.314 462.124 634.696 461.827 633.082 461.53Z" fill="white"/>
<path d="M607.268 55.2973C606.986 54.5922 606.045 54.4643 605.564 55.0524C605.35 55.3142 605.29 55.6564 605.392 55.9788L605.822 57.3406C605.927 57.676 606.192 57.9356 606.529 58.037C607.374 58.2912 608.132 57.4625 607.805 56.6433C607.626 56.1946 607.448 55.7455 607.268 55.2973Z" fill="white"/>
<path d="M576.955 536.17C576.846 536.922 577.598 537.503 578.308 537.234C578.624 537.114 578.848 536.848 578.921 536.518L579.229 535.124C579.305 534.78 579.206 534.423 578.965 534.167C578.36 533.524 577.289 533.863 577.163 534.736C577.093 535.214 577.024 535.692 576.955 536.17Z" fill="white"/>
<path d="M925.871 75.6991C926.452 77.9064 929.185 78.6818 930.827 77.097C931.007 76.9232 931.187 76.7494 931.367 76.5757C932.087 75.879 932.409 74.8675 932.228 73.882L931.283 68.7564C931.104 67.7835 930.457 66.9612 929.552 66.5606C929.156 66.3852 928.759 66.2097 928.362 66.0342C926.065 65.0201 923.614 67.1139 924.253 69.5423C924.793 71.5962 925.332 73.6489 925.871 75.6991Z" fill="white"/>
<path d="M658.975 159.892C658.589 159.61 658.075 159.575 657.669 159.829C657.508 159.931 657.346 160.032 657.184 160.133C656.708 160.432 656.393 160.931 656.328 161.49C656.108 163.386 655.883 165.283 655.66 167.171C655.415 169.246 657.592 170.742 659.444 169.775C660.483 169.232 661.033 168.062 660.786 166.916L659.419 160.559C659.362 160.293 659.195 160.053 658.975 159.892Z" fill="white"/>
<path d="M584.473 419.734C584.667 420.172 585.094 420.46 585.573 420.442C585.764 420.435 585.954 420.428 586.145 420.421C586.707 420.4 587.229 420.126 587.564 419.674C588.703 418.142 589.847 416.612 590.984 415.089C592.234 413.414 591.097 411.03 589.008 410.941C587.837 410.892 586.777 411.63 586.417 412.746L584.423 418.935C584.339 419.194 584.363 419.485 584.473 419.734Z" fill="white"/>
<path d="M559.997 206.899C560.529 206.765 560.896 206.279 560.879 205.731L560.829 204.187C560.825 204.057 560.78 203.932 560.699 203.83C560.66 203.78 560.621 203.73 560.581 203.679C560.491 203.565 560.338 203.52 560.2 203.569C560.128 203.594 560.066 203.643 560.025 203.708C559.621 204.348 559.217 204.987 558.827 205.623C558.649 205.912 558.654 206.277 558.837 206.563C559.043 206.886 559.433 207.041 559.805 206.947L559.997 206.899Z" fill="white"/>
<path d="M693.694 428.514C693.166 428.364 692.605 428.601 692.346 429.085L691.617 430.447C691.555 430.561 691.532 430.692 691.551 430.821C691.56 430.884 691.569 430.947 691.578 431.01C691.599 431.155 691.709 431.27 691.853 431.297C691.928 431.311 692.006 431.299 692.074 431.263C692.744 430.912 693.413 430.56 694.069 430.204C694.367 430.043 694.546 429.724 694.53 429.385C694.513 429.002 694.253 428.673 693.884 428.568L693.694 428.514Z" fill="white"/>
<path d="M470.002 188.376C469.595 188.127 469.069 188.198 468.743 188.546L467.815 189.534C467.748 189.604 467.702 189.692 467.688 189.787C467.679 189.844 467.672 189.901 467.664 189.958C467.646 190.091 467.711 190.224 467.831 190.285C467.893 190.316 467.964 190.324 468.032 190.308C468.672 190.159 469.297 190.013 469.919 189.868C470.209 189.801 470.433 189.573 470.496 189.283C470.566 188.964 470.425 188.635 470.146 188.465L470.002 188.376Z" fill="white"/>
<path d="M762.372 489.553C762.6 489.972 763.09 490.174 763.547 490.036L764.845 489.644C764.937 489.616 765.021 489.564 765.081 489.488C765.117 489.443 765.152 489.397 765.187 489.352C765.269 489.246 765.28 489.098 765.206 488.986C765.168 488.928 765.11 488.885 765.044 488.865C764.415 488.674 763.801 488.488 763.189 488.302C762.905 488.216 762.597 488.301 762.397 488.521C762.177 488.763 762.135 489.117 762.291 489.404L762.372 489.553Z" fill="white"/>
<path d="M439.411 131.87C439.339 132.237 439.679 132.552 440.04 132.455C440.489 132.335 440.553 131.706 440.143 131.487C439.846 131.329 439.483 131.504 439.418 131.834L439.411 131.87Z" fill="white"/>
<path d="M760.609 553.784C760.854 553.502 760.718 553.06 760.357 552.963C759.908 552.842 759.538 553.355 759.783 553.75C759.961 554.035 760.363 554.066 760.584 553.812L760.609 553.784Z" fill="white"/>
<path d="M846.544 27.6684C846.907 27.8839 847.37 27.6454 847.405 27.2244C847.449 26.7043 846.834 26.3975 846.451 26.7523C846.171 27.0121 846.215 27.4735 846.544 27.6684Z" fill="white"/>
<path d="M355.923 440.459C355.716 440.091 355.196 440.066 354.955 440.413C354.658 440.842 355.036 441.415 355.545 441.299C355.918 441.214 356.11 440.792 355.923 440.459Z" fill="white"/>
<path d="M664.352 25.1392C664.448 26.2836 665.703 26.9357 666.689 26.3474C667.902 25.6241 667.595 23.782 666.213 23.4967C665.201 23.2882 664.266 24.1103 664.352 25.1392Z" fill="white"/>
<path d="M512.438 533.745C512.927 532.706 512.167 531.514 511.018 531.53C509.606 531.55 508.951 533.299 510.006 534.237C510.777 534.924 511.998 534.679 512.438 533.745Z" fill="white"/>
<path d="M701.455 1.18968C701.691 0.787792 701.327 0.277366 700.872 0.374805C700.481 0.458346 700.317 0.931006 700.577 1.23399L700.607 1.26783C700.841 1.53996 701.273 1.49916 701.455 1.18968Z" fill="white"/>
<path d="M468.332 535.935C467.926 536.165 467.986 536.789 468.429 536.932C468.81 537.056 469.188 536.728 469.114 536.335L469.105 536.292C469.039 535.939 468.644 535.758 468.332 535.935Z" fill="white"/>
<path d="M880.044 17.1556C879.876 16.7219 879.281 16.6929 879.079 17.1118L879.068 17.1339C878.892 17.4981 879.172 17.9172 879.576 17.8939C879.94 17.8728 880.176 17.4958 880.044 17.1556Z" fill="white"/>
<path d="M476.797 19.9896C475.306 20.1898 474.356 21.7094 474.854 23.1296L476.425 27.6148C476.523 27.8941 476.697 28.1404 476.928 28.3257C477.862 29.0752 479.258 28.5556 479.475 27.3778L480.139 23.765C480.337 22.6893 479.934 21.5911 479.087 20.8991L478.596 20.498C478.092 20.0867 477.442 19.9031 476.797 19.9896Z" fill="white"/>
<path d="M672.292 631.982C673.684 632.555 675.266 631.714 675.545 630.235L676.427 625.565C676.482 625.274 676.454 624.974 676.347 624.698C675.913 623.582 674.444 623.334 673.667 624.245L671.286 627.042C670.576 627.875 670.377 629.027 670.764 630.05L670.989 630.643C671.219 631.251 671.691 631.735 672.292 631.982Z" fill="white"/>
<path d="M856.69 262.258C857.166 262.178 857.469 261.692 857.301 261.24L856.754 259.771C856.721 259.682 856.663 259.603 856.588 259.545C856.28 259.305 855.828 259.484 855.766 259.869L855.582 261.014C855.52 261.395 855.671 261.779 855.974 262.017L856.085 262.104C856.258 262.24 856.473 262.294 856.69 262.258Z" fill="white"/>
<path d="M464.428 232.226C463.976 232.056 463.47 232.326 463.39 232.802L463.129 234.347C463.113 234.441 463.124 234.538 463.16 234.627C463.307 234.988 463.787 235.059 464.034 234.757L464.766 233.857C465.009 233.558 465.071 233.15 464.928 232.792L464.875 232.662C464.793 232.457 464.634 232.303 464.428 232.226Z" fill="white"/>
<path d="M762.67 205.982C762.367 205.925 762.066 206.159 762.072 206.467L762.089 207.483C762.09 207.544 762.108 207.602 762.14 207.653C762.274 207.862 762.582 207.851 762.7 207.634L763.043 207.007C763.17 206.776 763.16 206.494 763.017 206.273L762.96 206.184C762.892 206.078 762.794 206.006 762.67 205.982Z" fill="white"/>
<path d="M517.715 327.972C517.948 328.173 518.326 328.121 518.475 327.851L518.969 326.963C518.998 326.91 519.012 326.85 519.009 326.789C518.998 326.542 518.726 326.398 518.514 326.526L517.904 326.898C517.679 327.035 517.547 327.284 517.56 327.546L517.565 327.652C517.571 327.778 517.619 327.889 517.715 327.972Z" fill="white"/>
<path d="M658.753 204.807C658.898 204.822 659.04 204.758 659.125 204.639C659.291 204.406 659.171 204.08 658.894 204.009L658.579 203.929C658.273 203.852 657.997 204.115 658.065 204.424C658.106 204.613 658.263 204.758 658.456 204.777L658.753 204.807Z" fill="white"/>
<path d="M607.124 380.948C607.006 380.863 606.851 380.848 606.718 380.908C606.458 381.027 606.399 381.37 606.603 381.569L606.836 381.796C607.062 382.016 607.432 381.926 607.528 381.625C607.587 381.44 607.524 381.236 607.367 381.123L607.124 380.948Z" fill="white"/>
<path d="M409.95 127.873C410.08 128.171 410.362 128.376 410.686 128.406C411.312 128.465 411.801 127.877 411.63 127.273L411.439 126.598C411.249 125.926 410.411 125.685 409.89 126.149C409.591 126.416 409.502 126.843 409.661 127.21L409.95 127.873Z" fill="white"/>
<path d="M482.997 581.172C483.069 581.2 483.15 581.189 483.212 581.142C483.336 581.046 483.323 580.854 483.186 580.777L483.013 580.679C482.864 580.595 482.685 580.699 482.68 580.87C482.677 580.977 482.739 581.069 482.838 581.108L482.997 581.172Z" fill="white"/>
<path d="M725.361 388.604C725.54 388.591 725.701 388.475 725.757 388.303C725.805 388.152 725.761 387.986 725.645 387.877C725.332 387.584 724.822 387.877 724.927 388.294C724.975 388.486 725.15 388.619 725.348 388.605C725.352 388.604 725.356 388.604 725.361 388.604Z" fill="white"/>
<path d="M641.337 188.472C641.175 188.393 640.977 188.413 640.844 188.534C640.726 188.64 640.681 188.807 640.727 188.959C640.852 189.369 641.44 189.37 641.558 188.957C641.612 188.766 641.527 188.564 641.349 188.477C641.345 188.475 641.341 188.474 641.337 188.472Z" fill="white"/>
<path d="M682.874 667.043C683.031 667.097 683.209 667.058 683.322 666.937C683.429 666.822 683.458 666.656 683.397 666.512C683.241 666.146 682.704 666.209 682.639 666.602L682.634 666.63C682.605 666.809 682.702 666.984 682.874 667.043Z" fill="white"/>
<path d="M773.464 362.119C775.342 362.569 777.15 361.152 777.162 359.221L777.181 356.214C777.189 354.885 776.322 353.709 775.05 353.321C773.231 352.766 771.42 352.209 769.61 351.651C769.264 351.544 768.892 351.567 768.566 351.724C768.025 351.983 767.682 352.542 767.705 353.142C767.773 354.939 767.842 356.737 767.912 358.543C767.965 359.885 768.904 361.028 770.21 361.34L773.464 362.119Z" fill="white"/>
<path d="M586.436 187.356C585.034 186.028 582.76 186.351 581.783 188.017L580.264 190.611C579.592 191.758 579.755 193.211 580.662 194.182C581.961 195.573 583.25 196.961 584.539 198.349C584.785 198.614 585.118 198.78 585.479 198.808C586.078 198.854 586.654 198.541 586.934 198.01C587.773 196.42 588.613 194.828 589.455 193.229C590.081 192.041 589.838 190.581 588.864 189.657L586.436 187.356Z" fill="white"/>
<path d="M405.152 50.0182C404.551 49.485 403.61 49.6511 403.227 50.3579C402.962 50.8486 403.054 51.4563 403.445 51.8547C403.745 52.1608 404.043 52.468 404.35 52.7702C404.418 52.8379 404.509 52.8783 404.606 52.8845C404.772 52.8952 404.927 52.8031 404.999 52.6529C405.167 52.3 405.341 51.9428 405.515 51.5826C405.765 51.0648 405.635 50.4464 405.205 50.065L405.152 50.0182Z" fill="white"/>
<path d="M923.248 111.923C923.211 111.342 922.588 110.973 922.068 111.236C922.057 111.241 922.047 111.247 922.036 111.252C921.414 111.566 921.457 112.458 922.104 112.715L922.148 112.732C922.698 112.951 923.286 112.514 923.248 111.923Z" fill="white"/>
<path d="M732.378 166.241C732.121 166.285 731.995 166.579 732.137 166.798C732.306 167.06 732.705 166.995 732.79 166.695C732.861 166.442 732.653 166.195 732.393 166.239C732.388 166.24 732.383 166.24 732.378 166.241Z" fill="white"/>
<path d="M524.079 377.534C524.323 377.625 524.579 377.433 524.566 377.173C524.55 376.861 524.173 376.718 523.95 376.936C523.761 377.119 523.818 377.437 524.064 377.529C524.069 377.531 524.074 377.533 524.079 377.534Z" fill="white"/>
<path d="M888.227 368.387C887.863 368.305 887.56 368.713 887.747 369.036C887.754 369.047 887.76 369.058 887.766 369.068C887.923 369.34 888.305 369.342 888.468 369.074C888.479 369.056 888.49 369.038 888.501 369.02C888.651 368.774 888.507 368.45 888.227 368.387Z" fill="white"/>
<path d="M490.183 124.548C490.457 124.801 490.923 124.598 490.923 124.225C490.923 124.212 490.923 124.2 490.923 124.187C490.922 123.874 490.593 123.681 490.318 123.831C490.299 123.842 490.281 123.852 490.262 123.862C490.01 124 489.972 124.353 490.183 124.548Z" fill="white"/>
<path d="M711.799 308.767C711.606 308.777 711.502 309.041 711.639 309.177C711.749 309.285 711.933 309.233 711.98 309.086C711.987 309.065 711.994 309.044 712 309.023C712.043 308.89 711.939 308.76 711.799 308.767Z" fill="white"/>
<path d="M613.164 264.393C613.335 264.48 613.557 264.304 613.506 264.118C613.466 263.97 613.28 263.922 613.166 264.026C613.15 264.041 613.133 264.055 613.117 264.07C613.013 264.165 613.038 264.33 613.164 264.393Z" fill="white"/>
<path d="M823.507 473.15C823.523 472.858 823.335 472.587 823.063 472.479C822.835 472.388 822.584 472.435 822.4 472.598C822.331 472.659 822.262 472.721 822.192 472.782C821.775 473.152 821.872 473.827 822.375 474.066C822.878 474.303 823.467 473.954 823.495 473.399C823.499 473.316 823.503 473.232 823.507 473.15Z" fill="white"/>
<path d="M598.613 66.1793C598.454 66.4244 598.481 66.7528 598.662 66.9824C598.814 67.1752 599.055 67.2598 599.296 67.2106C599.387 67.192 599.477 67.1734 599.568 67.1548C600.114 67.0431 600.369 66.4104 600.052 65.9521C599.735 65.495 599.05 65.5023 598.749 65.9694C598.703 66.0399 598.658 66.1098 598.613 66.1793Z" fill="white"/>
<path d="M832.464 223.851C832.586 223.674 832.579 223.438 832.451 223.267C832.341 223.119 832.156 223.052 831.975 223.084C831.907 223.096 831.84 223.108 831.772 223.12C831.369 223.189 831.177 223.648 831.403 223.99C831.63 224.334 832.136 224.329 832.369 223.989C832.4 223.943 832.432 223.897 832.464 223.851Z" fill="white"/>
<path d="M466.207 277.6C466.013 277.692 465.9 277.899 465.926 278.112C465.948 278.295 466.074 278.446 466.247 278.508C466.312 278.532 466.376 278.555 466.44 278.579C466.825 278.72 467.22 278.419 467.195 278.01C467.17 277.598 466.73 277.35 466.358 277.528C466.308 277.552 466.257 277.576 466.207 277.6Z" fill="white"/>
<path d="M389.644 522.407C389.534 521.96 389.217 521.591 388.791 521.414C387.876 521.034 386.856 521.663 386.785 522.652L386.504 526.563C386.445 527.38 386.993 528.125 387.788 528.319C388.217 528.424 388.666 528.344 389.04 528.11C389.13 528.054 389.22 527.998 389.31 527.942C390.188 527.396 390.613 526.351 390.368 525.347C390.129 524.372 389.887 523.39 389.644 522.407Z" fill="white"/>
<path d="M692.448 52.246C692.144 52.236 691.853 52.3703 691.666 52.6092C691.265 53.1201 691.485 53.8737 692.098 54.0886L694.595 54.9645C695.094 55.1394 695.643 54.9337 695.898 54.471C696.047 54.2006 696.083 53.8797 695.994 53.5837C695.975 53.5186 695.956 53.4535 695.937 53.3885C695.748 52.7464 695.164 52.309 694.495 52.2965C693.814 52.2839 693.132 52.2686 692.448 52.246Z" fill="white"/>
<path d="M501.661 496.222C501.919 496.382 502.238 496.412 502.52 496.298C503.122 496.057 503.309 495.294 502.885 494.801L501.16 492.794C500.816 492.393 500.238 492.297 499.785 492.57C499.521 492.729 499.33 492.99 499.258 493.29C499.242 493.356 499.227 493.422 499.211 493.488C499.053 494.139 499.34 494.809 499.913 495.155C500.497 495.506 501.08 495.86 501.661 496.222Z" fill="white"/>
<path d="M577.641 280.744C577.784 280.651 577.887 280.505 577.916 280.337C577.924 280.287 577.933 280.238 577.942 280.189C577.96 280.086 577.93 279.98 577.858 279.904C577.759 279.799 577.603 279.773 577.475 279.84L577.094 280.041C576.772 280.21 576.757 280.666 577.077 280.838C577.212 280.91 577.381 280.91 577.511 280.828C577.555 280.8 577.598 280.772 577.641 280.744Z" fill="white"/>
<path d="M715.336 355.74C715.165 355.749 715.003 355.824 714.894 355.955C714.862 355.994 714.83 356.032 714.798 356.07C714.731 356.15 714.704 356.257 714.728 356.359C714.761 356.499 714.883 356.6 715.027 356.606L715.458 356.623C715.821 356.637 716.062 356.25 715.871 355.941C715.79 355.811 715.644 355.726 715.491 355.733C715.438 355.735 715.387 355.737 715.336 355.74Z" fill="white"/>
<path d="M745.988 80.8617C745.963 80.7689 745.9 80.6911 745.814 80.6478C744.735 80.1027 743.655 79.5573 742.573 79.0027C741.769 78.5911 740.797 78.6974 740.101 79.2722C738.813 80.3355 739.115 82.3609 740.657 83.0016C740.78 83.0525 740.902 83.1035 741.025 83.1547C741.809 83.4818 742.707 83.3926 743.407 82.9108L745.854 81.227C745.971 81.146 746.025 80.9996 745.988 80.8617Z" fill="white"/>
<path d="M469.602 444.67C469.577 444.763 469.593 444.862 469.645 444.942C470.308 445.954 470.97 446.967 471.63 447.988C472.12 448.746 473.016 449.14 473.906 448.991C475.552 448.713 476.303 446.808 475.288 445.483C475.208 445.377 475.127 445.272 475.047 445.166C474.531 444.491 473.709 444.119 472.862 444.186L469.901 444.421C469.758 444.433 469.638 444.532 469.602 444.67Z" fill="white"/>
<path d="M778.506 317.114C778.49 317.175 778.504 317.239 778.544 317.288C778.957 317.793 779.371 318.298 779.787 318.813C780.09 319.189 780.584 319.354 781.051 319.227C781.928 318.99 782.223 317.905 781.61 317.234C781.566 317.187 781.523 317.139 781.479 317.091C781.167 316.75 780.702 316.593 780.247 316.677L778.66 316.971C778.585 316.985 778.525 317.041 778.506 317.114Z" fill="white"/>
<path d="M559.569 223.811C559.614 223.767 559.634 223.704 559.624 223.642C559.518 222.998 559.413 222.353 559.31 221.7C559.235 221.222 558.889 220.833 558.422 220.709C557.544 220.476 556.745 221.268 556.941 222.155C556.955 222.218 556.969 222.282 556.983 222.345C557.082 222.796 557.407 223.165 557.843 223.319L559.365 223.858C559.436 223.884 559.516 223.865 559.569 223.811Z" fill="white"/>
<path d="M801.942 438.641C801.929 438.623 801.903 438.626 801.895 438.647C801.893 438.654 801.89 438.662 801.887 438.67C801.879 438.694 801.904 438.723 801.929 438.716C801.953 438.709 801.963 438.67 801.948 438.649C801.946 438.646 801.944 438.644 801.942 438.641Z" fill="white"/>
<path d="M600.033 106.847C600.035 106.87 600.059 106.88 600.076 106.865C600.082 106.86 600.088 106.855 600.094 106.849C600.114 106.833 600.107 106.795 600.082 106.789C600.057 106.782 600.029 106.812 600.032 106.837C600.032 106.841 600.032 106.844 600.033 106.847Z" fill="white"/>
<path d="M903.081 249.706C903.133 249.71 903.172 249.661 903.152 249.613C903.152 249.612 903.152 249.611 903.151 249.61C903.125 249.546 903.023 249.541 902.993 249.603C902.971 249.647 902.997 249.698 903.046 249.703C903.057 249.704 903.069 249.705 903.081 249.706Z" fill="white"/>
<path d="M417.977 219.9C417.935 219.871 417.877 219.894 417.87 219.945C417.869 219.946 417.869 219.947 417.869 219.948C417.86 220.017 417.945 220.072 418.003 220.034C418.043 220.006 418.046 219.949 418.007 219.921C417.997 219.914 417.987 219.907 417.977 219.9Z" fill="white"/>
<path d="M646.898 112.938C646.655 112.831 646.38 112.998 646.364 113.263C646.347 113.541 646.624 113.742 646.883 113.641C647.198 113.518 647.208 113.075 646.898 112.938Z" fill="white"/>
<path d="M571.454 466.437C571.61 466.651 571.933 466.643 572.079 466.422C572.232 466.19 572.093 465.877 571.818 465.835C571.484 465.784 571.254 466.163 571.454 466.437Z" fill="white"/>
<path d="M497.803 613.887C497.905 613.996 498.085 613.966 498.148 613.831L498.158 613.808C498.222 613.672 498.126 613.516 497.975 613.513C497.784 613.509 497.671 613.748 497.803 613.887Z" fill="white"/>
<path d="M911.081 285.213C911.169 285.707 911.729 285.954 912.156 285.691C912.694 285.36 912.564 284.544 911.953 284.387C911.455 284.259 910.987 284.677 911.076 285.182C911.078 285.192 911.08 285.203 911.081 285.213Z" fill="white"/>
<path d="M428.802 185.15C428.974 184.679 428.612 184.185 428.111 184.199C427.479 184.216 427.184 184.988 427.635 185.43C428.002 185.789 428.617 185.662 428.792 185.179C428.795 185.17 428.799 185.16 428.802 185.15Z" fill="white"/>
<path d="M384.242 587.456C384.211 587.587 384.324 587.698 384.457 587.676L384.479 587.672C384.641 587.645 384.695 587.439 384.567 587.336L384.559 587.329C384.447 587.24 384.275 587.316 384.242 587.456Z" fill="white"/>
<path d="M795.747 228.577C795.501 228.895 795.652 229.37 796.038 229.481C796.52 229.62 796.938 229.105 796.704 228.661C796.511 228.297 795.999 228.252 795.747 228.577Z" fill="white"/>
<path d="M500.367 291.865C500.739 291.713 500.845 291.226 500.567 290.937C500.219 290.575 499.599 290.813 499.58 291.314C499.565 291.726 499.985 292.021 500.367 291.865Z" fill="white"/>
<path d="M725.511 34.4433C725.431 34.2932 725.204 34.3046 725.151 34.4662C725.107 34.6004 725.218 34.7363 725.358 34.7194C725.493 34.7031 725.575 34.5636 725.511 34.4433Z" fill="white"/>
<path d="M464.127 495.109C464.121 495.279 464.324 495.382 464.45 495.268C464.555 495.174 464.527 495.001 464.398 494.946C464.272 494.892 464.132 494.972 464.127 495.109Z" fill="white"/>
<path d="M526.933 138.806C526.965 138.859 527.043 138.847 527.058 138.786C527.071 138.733 527.021 138.681 526.967 138.684C526.917 138.687 526.894 138.742 526.92 138.784C526.924 138.791 526.928 138.798 526.933 138.806Z" fill="white"/>
<path d="M688.28 504.017C688.279 503.954 688.205 503.926 688.162 503.971C688.124 504.01 688.141 504.081 688.19 504.105C688.234 504.127 688.281 504.092 688.28 504.042C688.28 504.034 688.28 504.025 688.28 504.017Z" fill="white"/>
<path d="M851.597 162.648C851.538 162.547 851.396 162.538 851.325 162.631C851.239 162.741 851.322 162.901 851.461 162.896C851.586 162.891 851.66 162.755 851.597 162.648Z" fill="white"/>
<path d="M419.036 321.037C419.037 321.154 419.156 321.232 419.264 321.188C419.393 321.135 419.401 320.955 419.278 320.89C419.168 320.832 419.035 320.912 419.036 321.037Z" fill="white"/>
<path d="M534.833 622.455C534.934 622.508 535.057 622.444 535.07 622.33C535.087 622.192 534.934 622.098 534.818 622.175C534.714 622.243 534.722 622.398 534.833 622.455Z" fill="white"/>
<path d="M896.735 419.379C897.432 419.348 897.885 418.624 897.609 417.984C897.356 417.399 896.625 417.189 896.104 417.556C895.286 418.132 895.736 419.423 896.735 419.379Z" fill="white"/>
<path d="M508.31 76.1325C507.691 75.8108 506.937 76.2107 506.856 76.9038C506.782 77.5371 507.31 78.084 507.945 78.0267C508.941 77.9368 509.197 76.5936 508.31 76.1325Z" fill="white"/>
<path d="M878.231 284.986C878.331 284.891 878.307 284.728 878.183 284.668C878.065 284.612 877.915 284.672 877.886 284.799L877.883 284.808C877.838 285.003 878.074 285.137 878.218 284.999L878.231 284.986Z" fill="white"/>
<path d="M457.14 201.772C457.005 201.805 456.945 201.957 457.023 202.071C457.096 202.178 457.256 202.202 457.345 202.107L457.352 202.1C457.488 201.954 457.351 201.72 457.157 201.767L457.14 201.772Z" fill="white"/>
<path d="M362.043 499.757C362.11 500.349 362.726 500.71 363.276 500.482C364.215 500.093 363.877 498.691 362.863 498.763C362.355 498.799 361.985 499.251 362.043 499.757Z" fill="white"/>
<path d="M765.819 248.923C765.446 249.023 765.273 249.454 765.47 249.787C765.813 250.363 766.682 250.029 766.545 249.373C766.476 249.044 766.144 248.836 765.819 248.923Z" fill="white"/>
<path d="M536.458 289.21C536.831 289.31 537.197 289.023 537.192 288.636C537.184 287.966 536.264 287.821 536.055 288.457C535.95 288.776 536.133 289.123 536.458 289.21Z" fill="white"/>
<path d="M633.655 147.33C633.426 147.194 633.165 147.448 633.294 147.681C633.347 147.777 633.455 147.829 633.564 147.811C633.578 147.808 633.592 147.806 633.606 147.803C633.84 147.763 633.886 147.467 633.681 147.346L633.655 147.33Z" fill="white"/>
<path d="M600.118 443.273C600.248 443.505 600.601 443.416 600.606 443.15C600.608 443.04 600.54 442.94 600.437 442.902C600.424 442.897 600.41 442.893 600.397 442.888C600.174 442.806 599.986 443.039 600.103 443.246L600.118 443.273Z" fill="white"/>
<path d="M526.976 97.7343C527.512 99.1196 529.27 99.5392 530.357 98.5276C531.831 97.1561 530.713 94.683 528.71 94.8913C527.34 95.0337 526.48 96.4499 526.976 97.7343Z" fill="white"/>
<path d="M667.709 539.565C667.937 538.097 666.625 536.855 665.177 537.187C663.215 537.638 662.947 540.339 664.786 541.16C666.043 541.722 667.496 540.925 667.709 539.565Z" fill="white"/>
<path d="M363.209 131.295C362.789 131.779 362.991 132.524 363.597 132.734C364.413 133.016 365.14 132.1 364.661 131.38C364.332 130.886 363.599 130.846 363.209 131.295Z" fill="white"/>
<path d="M826.316 592.383C826.922 592.174 827.12 591.428 826.7 590.944C826.134 590.291 825.046 590.721 825.101 591.583C825.139 592.177 825.754 592.577 826.316 592.383Z" fill="white"/>
<path d="M800.928 109.309C802.137 109.999 803.655 109.256 803.845 107.878C804.104 105.996 801.817 104.837 800.472 106.18C799.558 107.093 799.742 108.631 800.865 109.272C800.886 109.284 800.907 109.297 800.928 109.309Z" fill="white"/>
<path d="M436.246 392.564C435.544 391.362 433.858 391.246 433.004 392.345C431.839 393.845 433.241 395.992 435.076 395.502C436.325 395.168 436.934 393.744 436.283 392.627C436.27 392.606 436.258 392.585 436.246 392.564Z" fill="white"/>
<path d="M416.718 551.784C416.661 551.789 416.626 551.847 416.647 551.899L416.655 551.92C416.679 551.981 416.757 551.993 416.796 551.941C416.797 551.938 416.799 551.936 416.8 551.934C416.845 551.872 416.794 551.777 416.718 551.784Z" fill="white"/>
<path d="M547.982 238.642C547.976 238.679 548.01 238.711 548.046 238.701C548.075 238.693 548.092 238.662 548.081 238.634L548.076 238.623C548.056 238.574 547.992 238.578 547.984 238.63C547.983 238.634 547.983 238.638 547.982 238.642Z" fill="white"/>
<path d="M719.971 407.032C719.994 407.003 719.981 406.959 719.945 406.949C719.916 406.941 719.885 406.96 719.881 406.99L719.88 407.001C719.872 407.054 719.93 407.083 719.963 407.042C719.966 407.038 719.968 407.035 719.971 407.032Z" fill="white"/>
<path d="M786.156 399.969C786.378 400.097 786.659 399.956 786.688 399.701L786.691 399.674C786.721 399.412 786.476 399.209 786.229 399.3C785.94 399.406 785.89 399.815 786.156 399.969Z" fill="white"/>
<path d="M594.37 148.232C594.242 148.009 593.928 147.991 593.775 148.198L593.759 148.219C593.602 148.431 593.712 148.73 593.972 148.775C594.275 148.827 594.524 148.498 594.37 148.232Z" fill="white"/>
<path d="M866.725 592.125C866.733 592.115 866.724 592.1 866.711 592.102C866.702 592.104 866.697 592.115 866.702 592.123C866.707 592.131 866.718 592.132 866.725 592.125Z" fill="white"/>
<path d="M501.954 185.876C501.967 185.873 501.97 185.854 501.957 185.847C501.945 185.84 501.93 185.851 501.934 185.865C501.936 185.874 501.945 185.879 501.954 185.876Z" fill="white"/>
<path d="M733.452 475.743C733.438 475.739 733.427 475.754 733.434 475.766C733.441 475.778 733.459 475.776 733.463 475.762C733.465 475.754 733.46 475.745 733.452 475.743Z" fill="white"/>
<path d="M429.967 100.108C429.949 100.065 429.915 100.031 429.872 100.012L428.205 99.2637C427.17 98.7995 426.016 99.6179 426.121 100.747C426.236 101.992 427.749 102.535 428.625 101.642L429.929 100.311C429.981 100.257 429.996 100.177 429.967 100.108Z" fill="white"/>
<path d="M752.907 586.013C752.901 586.059 752.913 586.106 752.941 586.144L754.01 587.625C754.674 588.544 756.083 588.413 756.557 587.382C757.08 586.246 756.041 585.019 754.836 585.356L753.041 585.856C752.969 585.877 752.916 585.938 752.907 586.013Z" fill="white"/>
<path d="M539.421 592.601C539.434 592.617 539.453 592.628 539.474 592.632L540.644 592.85C541.363 592.984 541.96 592.286 541.723 591.594C541.464 590.836 540.446 590.736 540.039 591.426L539.41 592.492C539.39 592.527 539.394 592.571 539.421 592.601Z" fill="white"/>
<path d="M513.849 570.917C513.845 570.932 513.848 570.948 513.857 570.961L514.053 571.251C514.172 571.429 514.436 571.413 514.53 571.221C514.637 571 514.435 570.746 514.197 570.804L513.888 570.879C513.869 570.884 513.854 570.899 513.849 570.917Z" fill="white"/>
<path d="M685.43 374.853C685.468 374.858 685.507 374.846 685.537 374.822L686.612 373.931C687.26 373.394 687.092 372.36 686.305 372.061C685.427 371.726 684.553 372.571 684.861 373.459L685.312 374.759C685.33 374.81 685.376 374.847 685.43 374.853Z" fill="white"/>
<path d="M669.043 220.346C669.011 220.322 668.972 220.313 668.934 220.32L667.558 220.553C666.728 220.694 666.357 221.674 666.888 222.326C667.481 223.055 668.661 222.76 668.838 221.838L669.097 220.486C669.107 220.433 669.086 220.378 669.043 220.346Z" fill="white"/>
<path d="M373.748 94.5519C373.914 93.6482 373.132 92.8499 372.224 92.9935C371.651 93.0844 371.207 93.5397 371.126 94.1148L371.033 94.7685C370.958 95.3 371.207 95.8251 371.666 96.1036L371.683 96.1141C371.951 96.2765 372.268 96.336 372.577 96.2816C373.107 96.1879 373.523 95.7748 373.62 95.2454L373.748 94.5519Z" fill="white"/>
<path d="M706.556 84.2506C704.893 83.0104 702.499 83.7902 701.875 85.7686C701.71 86.2909 701.545 86.8118 701.382 87.3313C700.988 88.5827 701.46 89.9425 702.54 90.6868L705.002 92.3832C705.985 93.0605 707.276 93.0906 708.289 92.4599L708.997 92.0198C709.612 91.6366 710.069 91.0436 710.28 90.35C710.353 90.1122 710.425 89.8741 710.497 89.6356C710.861 88.4349 710.428 87.138 709.422 86.3879L706.556 84.2506Z" fill="white"/>
<path d="M505.445 461.451C506.265 463.357 508.729 463.879 510.258 462.477C510.662 462.107 511.065 461.738 511.466 461.37C512.433 460.483 512.704 459.07 512.141 457.885L510.857 455.185C510.344 454.107 509.241 453.436 508.049 453.475L507.216 453.503C506.491 453.527 505.799 453.812 505.269 454.307C505.088 454.477 504.906 454.647 504.724 454.817C503.809 455.675 503.536 457.015 504.032 458.167L505.445 461.451Z" fill="white"/>
<path d="M549.061 158.597C547.086 158.002 545.112 159.532 545.197 161.593C545.222 162.216 545.248 162.837 545.275 163.457C545.332 164.77 546.241 165.89 547.512 166.221L550.558 167.014C551.713 167.314 552.937 166.901 553.673 165.963L554.255 165.222C554.703 164.651 554.929 163.938 554.89 163.213C554.875 162.947 554.861 162.68 554.846 162.414C554.778 161.15 553.925 160.063 552.713 159.698L549.061 158.597Z" fill="white"/>
<path d="M679.016 475.813C680.428 477.316 682.903 476.979 683.86 475.151C684.149 474.599 684.437 474.048 684.724 473.497C685.332 472.332 685.105 470.907 684.169 469.985L681.927 467.776C681.077 466.938 679.811 466.684 678.704 467.128L677.83 467.479C677.157 467.749 676.604 468.254 676.276 468.901C676.155 469.139 676.034 469.377 675.913 469.615C675.341 470.744 675.536 472.111 676.403 473.034L679.016 475.813Z" fill="white"/>
<path d="M605.824 646.024C605.727 646.053 605.646 646.119 605.596 646.208C605.458 646.452 605.626 646.739 605.906 646.748C605.936 646.749 605.965 646.75 605.995 646.752C606.141 646.758 606.28 646.687 606.356 646.562C606.535 646.263 606.255 645.9 605.92 645.997L605.824 646.024Z" fill="white"/>
<path d="M858.137 389.695C858.221 389.741 858.32 389.753 858.414 389.732C858.683 389.67 858.786 389.356 858.599 389.153C858.577 389.128 858.554 389.104 858.532 389.08C858.444 388.986 858.312 388.946 858.185 388.974C857.849 389.047 857.783 389.498 858.084 389.665L858.137 389.695Z" fill="white"/>
<path d="M526.895 121.139C526.846 121.057 526.766 120.997 526.674 120.969C526.41 120.888 526.164 121.108 526.224 121.377C526.231 121.41 526.238 121.442 526.246 121.474C526.275 121.6 526.369 121.7 526.493 121.739C526.821 121.844 527.103 121.487 526.926 121.191L526.895 121.139Z" fill="white"/>
<path d="M842.593 97.7641C842.561 97.6905 842.485 97.6465 842.405 97.6562L841.011 97.8259C840.219 97.9224 839.759 98.7726 840.116 99.4863C840.59 100.436 841.976 100.284 842.243 99.2568L842.601 97.8801C842.611 97.8416 842.608 97.8008 842.593 97.7641Z" fill="white"/>
<path d="M394.393 381.73C394.383 381.81 394.427 381.886 394.501 381.918L395.794 382.468C396.528 382.78 397.35 382.274 397.399 381.477C397.463 380.418 396.186 379.856 395.441 380.612L394.443 381.626C394.415 381.654 394.397 381.691 394.393 381.73Z" fill="white"/>
<path d="M528.351 193.042C528.3 193.045 528.256 193.077 528.236 193.124L527.789 194.198C527.537 194.805 527.974 195.478 528.63 195.507C529.497 195.546 529.93 194.497 529.304 193.896L528.452 193.079C528.425 193.053 528.389 193.04 528.351 193.042Z" fill="white"/>
<path d="M714.171 456.338C714.217 456.36 714.271 456.355 714.311 456.324L715.236 455.617C715.758 455.218 715.716 454.416 715.162 454.063C714.431 453.596 713.531 454.288 713.773 455.121L714.102 456.255C714.112 456.291 714.137 456.321 714.171 456.338Z" fill="white"/>
<path d="M670.943 295.532C671.655 295.834 672.365 295.102 672.034 294.404L671.482 293.237C671.286 292.824 670.731 292.748 670.431 293.093C670.317 293.225 670.262 293.397 670.281 293.569C670.326 293.992 670.379 294.413 670.428 294.844C670.464 295.149 670.661 295.412 670.943 295.532Z" fill="white"/>
<path d="M641.93 296.283C641.466 295.666 640.484 295.945 640.422 296.715L640.317 298.001C640.28 298.457 640.722 298.8 641.155 298.651C641.319 298.595 641.453 298.473 641.523 298.314C641.695 297.926 641.86 297.535 642.032 297.136C642.154 296.855 642.115 296.528 641.93 296.283Z" fill="white"/>
<path d="M462.124 152.041C461.94 152.154 461.998 152.409 462.212 152.443L462.576 152.503C462.698 152.522 462.799 152.41 462.767 152.291C462.756 152.247 462.727 152.21 462.688 152.188C462.593 152.136 462.501 152.09 462.414 152.039C462.326 151.988 462.211 151.988 462.124 152.041Z" fill="white"/>
<path d="M751.024 524.959C751.24 524.954 751.317 524.704 751.149 524.567L750.864 524.334C750.768 524.256 750.624 524.302 750.592 524.422C750.58 524.465 750.586 524.512 750.609 524.55C750.665 524.643 750.722 524.729 750.772 524.816C750.822 524.904 750.922 524.962 751.024 524.959Z" fill="white"/>
<path d="M441.801 70.6314C441.715 70.2681 441.236 70.1846 441.031 70.4973C440.856 70.7659 441.03 71.1245 441.349 71.1532C441.639 71.1792 441.868 70.914 441.801 70.6314Z" fill="white"/>
<path d="M768.943 41.9498C767.978 40.0301 765.182 40.2057 764.464 42.2311C763.847 43.9742 765.318 45.7433 767.145 45.4543C768.776 45.1962 769.685 43.4254 768.943 41.9498Z" fill="white"/>
<path d="M430.267 466.892C430.143 469.037 432.652 470.283 434.286 468.887C435.692 467.686 435.303 465.419 433.576 464.756C432.035 464.164 430.362 465.243 430.267 466.892Z" fill="white"/>
<path d="M924.671 179.947C924.734 180.335 925.231 180.457 925.466 180.143C925.67 179.872 925.507 179.482 925.171 179.435C924.875 179.394 924.623 179.652 924.671 179.947Z" fill="white"/>
<path d="M364.401 269.519C364.541 269.152 364.171 268.797 363.81 268.951C363.498 269.084 363.444 269.504 363.712 269.712C363.948 269.896 364.295 269.799 364.401 269.519Z" fill="white"/>
<path d="M779.006 73.7344C778.719 74.0236 778.905 74.5164 779.311 74.5448C779.66 74.5692 779.915 74.2214 779.787 73.8958C779.662 73.5759 779.249 73.4906 779.006 73.7344Z" fill="white"/>
<path d="M437.445 434.333C437.838 434.226 437.924 433.707 437.587 433.479C437.296 433.284 436.902 433.457 436.85 433.803C436.799 434.143 437.113 434.423 437.445 434.333Z" fill="white"/>
<path d="M430.509 513.345C431.317 512.221 430.43 510.667 429.051 510.792C427.859 510.9 427.194 512.22 427.816 513.242C428.418 514.231 429.833 514.285 430.509 513.345Z" fill="white"/>
<path d="M664.423 242.954C664.731 243.432 665.449 243.366 665.666 242.841C665.694 242.771 665.723 242.702 665.752 242.632C665.802 242.511 665.778 242.372 665.691 242.275C665.602 242.174 665.462 242.135 665.333 242.175L664.423 242.461C664.346 242.485 664.289 242.552 664.277 242.632C664.27 242.683 664.281 242.734 664.309 242.777L664.423 242.954Z" fill="white"/>
<path d="M621.287 345.077C621.259 344.509 620.604 344.207 620.154 344.554C620.094 344.599 620.035 344.645 619.975 344.691C619.872 344.771 619.822 344.903 619.849 345.031C619.876 345.163 619.978 345.267 620.109 345.296L621.04 345.504C621.119 345.521 621.202 345.492 621.252 345.428C621.284 345.388 621.299 345.338 621.297 345.287L621.287 345.077Z" fill="white"/>
<path d="M669.478 329.947C671.202 328.336 670.399 325.439 668.092 324.946C667.782 324.879 667.471 324.813 667.161 324.748C666.657 324.641 666.135 324.826 665.81 325.227C665.462 325.656 665.405 326.252 665.665 326.74L667.514 330.213C667.68 330.524 668.009 330.711 668.36 330.695C668.576 330.685 668.782 330.598 668.94 330.45L669.478 329.947Z" fill="white"/>
<path d="M660.404 267.211C658.106 267.744 657.352 270.655 659.104 272.236C659.34 272.448 659.575 272.661 659.811 272.873C660.194 273.217 660.739 273.318 661.22 273.133C661.737 272.935 662.084 272.448 662.103 271.895L662.238 267.963C662.25 267.611 662.059 267.284 661.746 267.123C661.554 267.023 661.333 266.996 661.122 267.044L660.404 267.211Z" fill="white"/>
<path d="M818.483 190.093C818.395 190.118 818.379 190.245 818.456 190.295C818.514 190.333 818.591 190.306 818.608 190.239C818.61 190.233 818.611 190.227 818.613 190.222C818.633 190.144 818.569 190.068 818.492 190.09C818.489 190.091 818.486 190.092 818.483 190.093Z" fill="white"/>
<path d="M461.437 313.827C461.526 313.849 461.603 313.746 461.562 313.665C461.53 313.603 461.45 313.589 461.402 313.638C461.398 313.642 461.393 313.646 461.389 313.65C461.333 313.707 461.35 313.804 461.428 313.824C461.431 313.825 461.434 313.826 461.437 313.827Z" fill="white"/>
<path d="M352.202 169.981C352.271 169.973 352.3 169.879 352.246 169.835L352.218 169.812C352.181 169.782 352.127 169.791 352.107 169.834C352.105 169.839 352.103 169.845 352.1 169.85C352.074 169.91 352.137 169.989 352.202 169.981Z" fill="white"/>
<path d="M775.165 450.647C775.074 450.632 775.012 450.731 775.061 450.809C775.1 450.871 775.179 450.89 775.226 450.834C775.281 450.77 775.249 450.66 775.165 450.647Z" fill="white"/>
<path d="M629.227 109.839C629.299 109.897 629.402 109.842 629.399 109.75C629.396 109.678 629.337 109.622 629.268 109.646C629.188 109.674 629.161 109.786 629.227 109.839Z" fill="white"/>
<path d="M361.742 165.714C361.673 166.12 362.114 166.417 362.456 166.189L362.485 166.17C362.747 165.995 362.765 165.619 362.517 165.424C362.232 165.2 361.802 165.357 361.742 165.714Z" fill="white"/>
<path d="M844.797 563.309C845.059 562.993 844.826 562.514 844.415 562.54L844.381 562.543C844.067 562.563 843.863 562.88 843.98 563.173C844.115 563.51 844.565 563.588 844.797 563.309Z" fill="white"/>
<path d="M862.664 201.511C862.715 201.088 862.577 200.664 862.29 200.349C861.879 199.898 861.472 199.446 861.063 198.995C860.54 198.419 859.748 198.173 858.989 198.344C858.069 198.553 857.389 199.329 857.303 200.268L857.043 203.125C857.021 203.358 857.13 203.584 857.326 203.713C857.479 203.814 857.669 203.843 857.846 203.794L861.61 202.742C862.178 202.583 862.595 202.097 862.664 201.511Z" fill="white"/>
<path d="M428.883 281.847C428.627 282.189 428.535 282.625 428.626 283.041C428.757 283.637 428.883 284.232 429.012 284.827C429.176 285.587 429.74 286.197 430.483 286.427C431.383 286.707 432.361 286.374 432.905 285.604L434.558 283.261C434.693 283.069 434.712 282.819 434.607 282.61C434.525 282.446 434.375 282.325 434.197 282.279L430.412 281.309C429.84 281.162 429.236 281.375 428.883 281.847Z" fill="white"/>
<path d="M570.396 630.974C570.575 631.056 570.785 631.011 570.916 630.864L572.034 629.603C572.893 628.635 572.209 627.113 570.915 627.126C569.855 627.137 569.139 628.214 569.539 629.195L570.168 630.736C570.211 630.842 570.293 630.927 570.396 630.974Z" fill="white"/>
<path d="M576.179 77.2992C576.012 77.1562 575.767 77.1497 575.592 77.2836L574.201 78.3486C573.15 79.154 573.528 80.8091 574.829 81.057C575.909 81.2628 576.878 80.3139 576.665 79.235L576.334 77.5638C576.314 77.4607 576.259 77.3675 576.179 77.2992Z" fill="white"/>
<path d="M614.88 532.66C614.954 532.868 615.162 532.996 615.381 532.967L617.118 532.74C618.431 532.569 618.931 530.946 617.928 530.081C617.096 529.363 615.783 529.7 615.428 530.741L614.878 532.354C614.845 532.453 614.845 532.561 614.88 532.66Z" fill="white"/>
<path d="M782.331 282.486C782.239 282.582 782.281 282.741 782.408 282.78C782.521 282.814 782.636 282.732 782.638 282.613C782.642 282.451 782.443 282.369 782.331 282.486Z" fill="white"/>
<path d="M538.941 251.887C539.068 251.85 539.112 251.691 539.021 251.594C538.941 251.508 538.8 251.522 538.739 251.623C538.654 251.763 538.785 251.933 538.941 251.887Z" fill="white"/>
<path d="M467.047 106.137C466.858 106.173 466.784 106.388 466.915 106.53C466.933 106.55 466.952 106.571 466.97 106.592C467.017 106.645 467.087 106.669 467.156 106.654C467.247 106.634 467.331 106.566 467.343 106.474L467.352 106.41C467.375 106.242 467.227 106.102 467.061 106.134L467.047 106.137Z" fill="white"/>
<path d="M723.808 562.252C723.99 562.315 724.162 562.165 724.12 561.977C724.114 561.95 724.108 561.923 724.102 561.896C724.089 561.826 724.04 561.771 723.972 561.749C723.884 561.721 723.777 561.738 723.721 561.811L723.681 561.862C723.577 561.996 723.635 562.192 723.795 562.247L723.808 562.252Z" fill="white"/>
<path d="M357.129 228.299C356.603 228.558 356.553 229.305 357.04 229.633C357.092 229.668 357.143 229.702 357.195 229.736C357.394 229.869 357.649 229.883 357.863 229.777C358.131 229.646 358.282 229.356 358.237 229.061L358.207 228.862C358.13 228.358 357.586 228.074 357.129 228.299Z" fill="white"/>
<path d="M923.089 337.582C923.471 337.764 923.822 337.288 923.518 336.993C923.286 336.767 922.885 336.919 922.878 337.242C922.875 337.386 922.959 337.52 923.089 337.582Z" fill="white"/>
<path d="M444.589 133.794C444.35 133.445 443.808 133.682 443.923 134.089C444.011 134.401 444.435 134.471 444.602 134.194C444.677 134.07 444.671 133.913 444.589 133.794Z" fill="white"/>
<path d="M769 142.916C767.675 143.641 767.422 145.439 768.5 146.497C769.068 147.056 769.636 147.612 770.203 148.163C770.283 148.241 770.385 148.294 770.495 148.314C770.791 148.369 771.079 148.183 771.15 147.891C771.489 146.51 771.831 145.144 772.169 143.761C772.205 143.617 772.216 143.467 772.202 143.319C772.114 142.35 771.061 141.788 770.207 142.255L769 142.916Z" fill="white"/>
<path d="M480.7 379.425C482.21 379.459 483.328 378.029 482.924 376.573C482.711 375.805 482.497 375.04 482.282 374.279C482.251 374.171 482.19 374.075 482.105 374.002C481.876 373.806 481.534 373.823 481.325 374.041C480.341 375.068 479.362 376.079 478.378 377.108C478.275 377.215 478.191 377.339 478.128 377.474C477.72 378.358 478.351 379.37 479.324 379.393L480.7 379.425Z" fill="white"/>
<path d="M854.557 338.196C855.182 337.955 855.403 337.187 854.991 336.659C854.775 336.381 854.56 336.106 854.349 335.829C854.315 335.783 854.266 335.75 854.211 335.735C854.082 335.698 853.946 335.764 853.895 335.888C853.661 336.467 853.43 337.061 853.195 337.637C853.169 337.701 853.154 337.77 853.151 337.839C853.133 338.271 853.563 338.579 853.966 338.424L854.557 338.196Z" fill="white"/>
<path d="M504.245 167.527C503.583 167.424 503.009 167.978 503.101 168.642C503.149 168.99 503.198 169.336 503.242 169.681C503.249 169.738 503.275 169.791 503.314 169.832C503.408 169.929 503.559 169.94 503.665 169.857C504.158 169.473 504.654 169.074 505.146 168.692C505.2 168.65 505.248 168.598 505.285 168.54C505.517 168.175 505.298 167.692 504.872 167.626L504.245 167.527Z" fill="white"/>
<path d="M679.564 108.563C679.698 108.149 679.414 107.718 678.981 107.678L676.403 107.445C676.392 107.444 676.381 107.449 676.376 107.459C676.369 107.47 676.371 107.483 676.38 107.493L677.422 108.587C677.669 108.846 678.007 108.998 678.364 109.012L678.902 109.032C679.2 109.044 679.471 108.847 679.564 108.563Z" fill="white"/>
<path d="M540.979 453.893C540.656 454.184 540.686 454.7 541.041 454.951L543.157 456.442C543.166 456.448 543.178 456.449 543.188 456.443C543.198 456.437 543.204 456.424 543.201 456.412L542.845 454.943C542.761 454.595 542.545 454.294 542.242 454.104L541.787 453.818C541.534 453.659 541.201 453.693 540.979 453.893Z" fill="white"/>
<path d="M621.601 221.875C620.447 222.254 619.95 223.601 620.576 224.643L624.325 230.885C624.339 230.908 624.366 230.919 624.392 230.912C624.414 230.906 624.431 230.888 624.436 230.865L625.279 226.356C625.424 225.58 625.257 224.777 624.814 224.123L623.795 222.618C623.314 221.908 622.416 221.607 621.601 221.875Z" fill="white"/>
<path d="M647.83 384.743C649.02 384.992 650.123 384.074 650.102 382.859L649.977 375.579C649.976 375.552 649.958 375.529 649.932 375.522C649.909 375.516 649.886 375.523 649.87 375.541L646.886 379.024C646.372 379.624 646.115 380.402 646.172 381.19L646.302 383.003C646.363 383.858 646.991 384.568 647.83 384.743Z" fill="white"/>
<path d="M822.285 141.86C822.154 141.578 821.794 141.49 821.548 141.681C820.372 142.593 819.201 143.519 818.043 144.424C817.879 144.553 817.812 144.77 817.877 144.968C817.983 145.296 818.384 145.417 818.654 145.203L822.147 142.44C822.321 142.302 822.378 142.062 822.285 141.86Z" fill="white"/>
<path d="M434.027 353.696C433.999 354.006 434.267 354.261 434.575 354.219C436.051 354.018 437.527 353.801 438.983 353.596C439.189 353.567 439.355 353.412 439.399 353.209C439.47 352.871 439.184 352.566 438.843 352.616L434.437 353.263C434.217 353.295 434.047 353.475 434.027 353.696Z" fill="white"/>
<path d="M628.25 24.1795C627.565 23.2255 626.121 23.2717 625.528 24.2853L622.722 29.0786C622.288 29.8198 622.692 30.7703 623.533 30.9443C623.998 31.0404 624.478 30.8617 624.773 30.4894L628.215 26.1436C628.667 25.5731 628.675 24.7706 628.25 24.1795Z" fill="white"/>
<path d="M543.226 552.627C543.342 553.796 544.616 554.478 545.637 553.897L550.463 551.149C551.21 550.724 551.335 549.698 550.694 549.127C550.339 548.812 549.834 548.727 549.393 548.901L544.239 550.944C543.562 551.212 543.154 551.903 543.226 552.627Z" fill="white"/>
<path d="M710.233 348.479C710.629 348.201 710.593 347.593 710.168 347.362L708.236 346.31C707.942 346.15 707.574 346.325 707.515 346.654C707.482 346.835 707.556 347.019 707.703 347.128L709.499 348.453C709.721 348.617 710.008 348.637 710.233 348.479Z" fill="white"/>
<path d="M634.376 230.784C633.894 230.827 633.622 231.371 633.874 231.784L635.021 233.661C635.196 233.947 635.602 233.979 635.819 233.724C635.937 233.584 635.965 233.388 635.892 233.22L634.999 231.174C634.889 230.921 634.651 230.76 634.376 230.784Z" fill="white"/>
<path d="M744.109 282.353C743.161 282.417 742.607 283.439 743.061 284.273L745.176 288.154C745.498 288.743 746.299 288.848 746.763 288.362C747.028 288.084 747.11 287.681 746.975 287.321L745.426 283.194C745.224 282.655 744.682 282.315 744.109 282.353Z" fill="white"/>
<path d="M571.975 271.113C572.827 271.532 573.819 270.923 573.842 269.974L573.951 265.556C573.967 264.884 573.326 264.393 572.681 264.582C572.312 264.69 572.039 264.998 571.976 265.377L571.255 269.726C571.161 270.294 571.459 270.859 571.975 271.113Z" fill="white"/>

</svg>
