<svg width="625" height="455" viewBox="0 0 625 455" fill="none" xmlns="http://www.w3.org/2000/svg">
<g opacity="0.4">
<path d="M286.685 53.8174C286.826 53.9961 287.049 54.0893 287.275 54.0631C287.819 54.0002 288.061 53.3289 287.686 52.931C287.602 52.8427 287.519 52.7548 287.435 52.6677C287.297 52.5238 287.098 52.4564 286.9 52.4829C286.394 52.5505 286.162 53.1618 286.48 53.5604C286.549 53.6458 286.617 53.7315 286.685 53.8174Z" fill="#5A6070"/>
<path d="M154.227 84.2795C154.194 84.0542 154.047 83.8617 153.838 83.7713C153.336 83.5542 152.791 84.0144 152.917 84.5466C152.945 84.6647 152.973 84.7825 153.002 84.8999C153.05 85.0937 153.189 85.2516 153.373 85.3276C153.845 85.522 154.352 85.1086 154.275 84.6041C154.259 84.4961 154.243 84.3878 154.227 84.2795Z" fill="#5A6070"/>
<path d="M354.737 402.902C354.802 403.264 355.045 403.569 355.384 403.712C356.217 404.065 357.102 403.305 356.875 402.429C356.827 402.242 356.778 402.055 356.728 401.869C356.643 401.548 356.409 401.287 356.101 401.162C355.316 400.844 354.487 401.523 354.638 402.357C354.671 402.539 354.704 402.72 354.737 402.902Z" fill="#5A6070"/>
<path d="M205.112 420.013C204.939 419.394 204.467 418.903 203.854 418.709C202.349 418.232 200.952 419.69 201.492 421.174C201.602 421.477 201.711 421.779 201.82 422.081C202.021 422.634 202.473 423.06 203.037 423.227C204.444 423.643 205.76 422.333 205.365 420.92C205.28 420.618 205.196 420.316 205.112 420.013Z" fill="#5A6070"/>
<path d="M262.596 4.04162C261.748 4.60914 261.908 5.89593 262.87 6.23639C263.667 6.51852 264.501 5.93917 264.522 5.09385C264.534 4.58423 264.546 4.07204 264.558 3.55944C264.562 3.38171 264.459 3.2191 264.296 3.14776C264.159 3.08768 264 3.10171 263.876 3.18498L262.596 4.04162Z" fill="#5A6070"/>
<path d="M150.199 139.431C151.217 139.363 151.722 138.169 151.059 137.393C150.51 136.75 149.498 136.835 149.057 137.556C148.792 137.991 148.525 138.429 148.259 138.867C148.166 139.019 148.175 139.212 148.28 139.355C148.369 139.475 148.513 139.542 148.662 139.532L150.199 139.431Z" fill="#5A6070"/>
<path d="M513.998 70.9473C513.521 70.504 512.736 70.8018 512.668 71.4492C512.613 71.9782 513.094 72.3981 513.614 72.2839C513.933 72.2138 514.252 72.1461 514.573 72.0831C514.69 72.0601 514.787 71.9558 514.807 71.838C514.821 71.7512 514.785 71.6795 514.72 71.6196L513.998 70.9473Z" fill="#5A6070"/>
<path d="M177.165 272.895C177.849 272.631 177.931 271.7 177.31 271.311C176.796 270.988 176.122 271.258 175.975 271.846C175.883 272.211 175.791 272.579 175.695 272.945C175.665 273.061 175.703 273.183 175.803 273.249C175.901 273.314 176.027 273.335 176.138 273.293L177.165 272.895Z" fill="#5A6070"/>
<path d="M623.166 112.015C623.194 111.996 623.201 111.956 623.175 111.936C623.17 111.933 623.165 111.929 623.16 111.926C623.128 111.904 623.086 111.928 623.086 111.966L623.085 111.978C623.085 112.018 623.133 112.036 623.166 112.015Z" fill="#5A6070"/>
<path d="M166.384 354.776C166.257 354.748 166.148 354.858 166.173 354.986C166.174 354.992 166.175 354.998 166.177 355.003C166.206 355.15 166.388 355.196 166.489 355.086C166.586 354.981 166.537 354.81 166.398 354.779C166.394 354.778 166.389 354.777 166.384 354.776Z" fill="#5A6070"/>
<path d="M382.657 88.9905C382.634 88.9696 382.596 88.9723 382.581 88.9994C382.562 89.0322 382.588 89.074 382.625 89.0695L382.635 89.0683C382.674 89.0636 382.689 89.0191 382.66 88.993C382.659 88.9922 382.658 88.9914 382.657 88.9905Z" fill="#5A6070"/>
<path d="M88.6977 5.83295C88.7075 5.86273 88.7411 5.87906 88.7682 5.86338C88.801 5.84444 88.7996 5.79535 88.7648 5.78048L88.7559 5.77668C88.7197 5.76124 88.6841 5.79203 88.6965 5.82931C88.6969 5.83052 88.6973 5.83173 88.6977 5.83295Z" fill="#5A6070"/>
<path d="M543.525 90.6426C543.514 90.6012 543.459 90.5747 543.425 90.6003C543.424 90.6011 543.423 90.6019 543.422 90.6027C543.383 90.6315 543.396 90.6884 543.442 90.7006L543.452 90.7032C543.495 90.7145 543.536 90.6854 543.525 90.6426Z" fill="#5A6070"/>
<path d="M19.1858 13.5843C19.2155 13.5671 19.2426 13.5394 19.251 13.506C19.2627 13.4598 19.2342 13.4215 19.1946 13.3949C19.123 13.3469 19.0516 13.2986 18.9807 13.2492C18.7159 13.0645 18.3553 13.0555 18.1054 13.2599C18.0095 13.3383 17.914 13.4166 17.8179 13.4951C17.6223 13.6549 17.6295 13.9575 17.8338 14.106C17.9564 14.1951 18.12 14.2035 18.2511 14.1274L19.1858 13.5843Z" fill="#5A6070"/>
<path d="M365.77 252.872C365.736 252.872 365.698 252.882 365.674 252.907C365.641 252.941 365.647 252.988 365.668 253.031C365.706 253.109 365.743 253.186 365.78 253.264C365.917 253.557 366.225 253.745 366.543 253.693C366.666 253.673 366.788 253.653 366.91 253.633C367.159 253.592 367.304 253.327 367.202 253.096C367.14 252.957 367.003 252.868 366.851 252.869L365.77 252.872Z" fill="#5A6070"/>
<path d="M205.376 378.593C205.323 378.568 205.257 378.574 205.201 378.595C205.122 378.627 205.066 378.697 205.065 378.782C205.062 379.031 205.062 379.285 205.062 379.539C205.062 380.043 205.391 380.491 205.875 380.629C206.182 380.717 206.487 380.804 206.794 380.891C207.273 381.028 207.753 380.667 207.75 380.169C207.748 379.883 207.582 379.623 207.322 379.502L205.376 378.593Z" fill="#5A6070"/>
<path d="M414.105 82.4486C413.669 82.6095 413.376 83.0195 413.364 83.4834L413.347 84.1958C413.318 85.3198 414.53 86.0534 415.516 85.5142C416.345 85.0611 416.512 83.9514 415.852 83.275C415.673 83.0916 415.494 82.9076 415.313 82.7226C415 82.4007 414.526 82.2928 414.105 82.4486Z" fill="#5A6070"/>
<path d="M116.498 140.786C116.711 140.286 116.595 139.707 116.206 139.328L115.605 138.745C114.689 137.854 113.152 138.29 112.841 139.53C112.575 140.594 113.396 141.617 114.492 141.598C114.757 141.594 115.023 141.59 115.289 141.588C115.815 141.583 116.291 141.27 116.498 140.786Z" fill="#5A6070"/>
<path d="M192.189 93.1503C191.649 93.4377 191.362 94.0461 191.484 94.6454C191.688 95.6429 192.866 96.0855 193.678 95.4718C194.242 95.0459 194.805 94.6207 195.371 94.1912C195.712 93.932 195.891 93.5116 195.841 93.0858C195.743 92.2352 194.819 91.7504 194.063 92.1526L192.189 93.1503Z" fill="#5A6070"/>
<path d="M255.73 97.4646C256.341 97.4858 256.894 97.1021 257.087 96.5219C257.409 95.5562 256.611 94.5842 255.601 94.7095C254.9 94.7965 254.199 94.883 253.494 94.9721C253.069 95.0259 252.704 95.3006 252.534 95.694C252.194 96.4799 252.752 97.3616 253.607 97.3912L255.73 97.4646Z" fill="#5A6070"/>
<path d="M279.983 425.017C280.787 425.526 281.83 425.446 282.546 424.821C283.732 423.785 283.436 421.87 281.991 421.245C280.986 420.812 279.981 420.379 278.977 419.942C278.359 419.673 277.644 419.753 277.101 420.154C276.037 420.941 276.094 422.551 277.212 423.26L279.983 425.017Z" fill="#5A6070"/>
<path d="M367.641 335.7C367.386 336.293 367.552 336.983 368.048 337.395C368.872 338.078 370.126 337.667 370.39 336.63C370.573 335.911 370.758 335.191 370.946 334.476C371.064 334.028 370.933 333.551 370.602 333.227C369.958 332.599 368.886 332.812 368.53 333.637L367.641 335.7Z" fill="#5A6070"/>
<path d="M235.014 181.678C234.161 180.928 232.813 181.431 232.659 182.556C232.595 183.019 232.532 183.482 232.469 183.948C232.448 184.103 232.506 184.259 232.624 184.362C232.742 184.466 232.903 184.503 233.055 184.463C233.515 184.341 233.977 184.221 234.439 184.101C235.538 183.818 235.867 182.428 235.014 181.678Z" fill="#5A6070"/>
<path d="M262.904 -0.615685C263.268 0.460092 264.686 0.698103 265.383 -0.198986C265.669 -0.567883 265.956 -0.937445 266.243 -1.30953C266.339 -1.43347 266.366 -1.59708 266.316 -1.74541C266.265 -1.89376 266.144 -2.00715 265.993 -2.048C265.533 -2.17237 265.073 -2.29932 264.614 -2.42693C263.52 -2.73086 262.54 -1.69146 262.904 -0.615685Z" fill="#5A6070"/>
<path d="M150.163 286.204C150.166 286.07 150.121 285.94 150.034 285.839C149.956 285.746 149.877 285.653 149.799 285.561C149.504 285.213 149.034 285.068 148.595 285.19L148.392 285.246C148.001 285.354 147.732 285.712 147.735 286.117C147.74 286.713 148.313 287.138 148.884 286.97L149.775 286.708C149.999 286.641 150.156 286.438 150.163 286.204Z" fill="#5A6070"/>
<path d="M289.312 296.584C289.556 296.667 289.802 296.465 289.767 296.21L289.513 294.335C289.502 294.251 289.442 294.183 289.36 294.161C289.211 294.121 289.084 294.242 289.084 294.396L289.079 296.256C289.078 296.404 289.172 296.536 289.312 296.584Z" fill="#5A6070"/>
<path d="M258.313 53.6823C258.34 53.6818 258.35 53.6454 258.326 53.6317C258.302 53.6179 258.275 53.6443 258.289 53.6683C258.294 53.6771 258.303 53.6824 258.313 53.6823Z" fill="#5A6070"/>
<path d="M178.729 98.5822C178.705 98.5689 178.678 98.5957 178.692 98.6195C178.706 98.6433 178.742 98.6339 178.743 98.6064C178.743 98.5964 178.738 98.5871 178.729 98.5822Z" fill="#5A6070"/>
<path d="M213.072 57.6786C213.096 57.6652 213.088 57.6286 213.06 57.6269C213.034 57.6253 213.021 57.6578 213.041 57.6752C213.049 57.6829 213.062 57.6842 213.072 57.6786Z" fill="#5A6070"/>
<path d="M219.908 117.743C219.88 117.742 219.869 117.778 219.892 117.793C219.914 117.808 219.942 117.786 219.934 117.761C219.93 117.75 219.92 117.743 219.908 117.743Z" fill="#5A6070"/>
<path d="M223.69 356.844C223.706 356.83 223.692 356.804 223.671 356.81C223.652 356.815 223.652 356.843 223.671 356.848C223.678 356.85 223.685 356.848 223.69 356.844Z" fill="#5A6070"/>
<path d="M399.38 211.304C399.351 211.374 399.365 211.454 399.415 211.511C399.547 211.66 399.792 211.539 399.761 211.342C399.73 211.146 399.465 211.104 399.387 211.287C399.385 211.292 399.382 211.298 399.38 211.304Z" fill="#5A6070"/>
<path d="M533.119 147.495C533.287 147.42 533.396 147.256 533.404 147.072C533.425 146.577 532.78 146.369 532.502 146.781C532.229 147.187 532.646 147.706 533.093 147.507C533.102 147.503 533.11 147.499 533.119 147.495Z" fill="#5A6070"/>
<path d="M590.859 153.779C590.716 152.948 590.107 152.274 589.295 152.047L588.665 151.87C588.407 151.798 588.128 151.84 587.898 151.977C587.549 152.184 587.379 152.591 587.471 152.987L588.01 155.315C588.147 155.904 588.623 156.358 589.215 156.478C590.27 156.694 591.205 155.786 591.022 154.725L590.859 153.779Z" fill="#5A6070"/>
<path d="M22.2879 391.475C22.2667 391.61 22.325 391.741 22.4373 391.819C22.5005 391.863 22.5638 391.907 22.6274 391.951C23.0148 392.219 23.523 391.829 23.3639 391.385C23.2621 391.102 22.9285 390.979 22.6676 391.13L22.4338 391.265C22.3591 391.308 22.3013 391.389 22.2879 391.475Z" fill="#5A6070"/>
<path d="M216.28 291.002C216.044 291.184 215.971 291.502 216.069 291.783C216.135 291.972 216.201 292.161 216.267 292.35C216.613 293.338 218.024 293.302 218.319 292.297C218.511 291.643 218.055 290.977 217.375 290.919L216.761 290.868C216.589 290.853 216.416 290.896 216.28 291.002Z" fill="#5A6070"/>
<path d="M83.2263 201.672C83.1447 201.618 83.0386 201.619 82.958 201.674C82.8921 201.719 82.8261 201.765 82.76 201.811C82.4414 202.032 82.5999 202.543 82.9878 202.545C83.2359 202.546 83.4236 202.321 83.3775 202.077L83.3306 201.829C83.3185 201.765 83.2808 201.708 83.2263 201.672Z" fill="#5A6070"/>
<path d="M291.437 389.802C291.653 390.934 292.849 391.585 293.916 391.152C295.093 390.675 295.435 389.171 294.58 388.232L293.235 386.755C292.609 386.067 291.463 386.266 291.123 387.131C291.038 387.347 291.015 387.589 291.059 387.817L291.437 389.802Z" fill="#5A6070"/>
<path d="M505.864 32.3831C504.65 32.4642 503.812 33.6344 504.127 34.8099C504.475 36.1068 506.007 36.6621 507.105 35.8889L508.841 34.6662C509.644 34.1005 509.583 32.8788 508.724 32.4024C508.503 32.2799 508.25 32.2239 507.998 32.2407L505.864 32.3831Z" fill="#5A6070"/>
<path d="M174.509 391.064C174.118 391.031 173.868 391.48 174.117 391.783L174.138 391.808C174.272 391.971 174.502 392.016 174.688 391.916C175.08 391.706 174.951 391.101 174.509 391.064Z" fill="#5A6070"/>
<path d="M571.609 74.1876C571.751 73.9728 571.566 73.683 571.312 73.7274C571.175 73.7515 571.075 73.8703 571.074 74.0093L571.074 74.0296C571.073 74.318 571.451 74.4285 571.609 74.1876Z" fill="#5A6070"/>
<path d="M375.052 135.786C374.755 135.662 374.455 135.954 374.575 136.253L374.583 136.273C374.648 136.434 374.817 136.527 374.988 136.495C375.343 136.427 375.386 135.926 375.052 135.786Z" fill="#5A6070"/>
<path d="M213.462 138.937C213.284 138.929 213.117 139.024 213.033 139.181L210.212 144.46C210.119 144.636 210.106 144.843 210.178 145.029C210.279 145.293 210.534 145.467 210.817 145.466L212.106 145.464C213.753 145.46 214.969 143.927 214.596 142.323L213.891 139.295C213.844 139.093 213.669 138.947 213.462 138.937Z" fill="#5A6070"/>
<path d="M260.201 47.1752C260.351 47.2714 260.543 47.2727 260.694 47.1785L265.777 44.0173C265.946 43.9123 266.06 43.7389 266.091 43.5424C266.135 43.2628 266.002 42.9852 265.756 42.8441L264.638 42.2013C263.211 41.3809 261.391 42.1013 260.912 43.6766L260.008 46.6514C259.947 46.8495 260.026 47.0635 260.201 47.1752Z" fill="#5A6070"/>
<path d="M311.912 144.696C311.925 144.629 311.902 144.56 311.851 144.514L309.899 142.763C309.746 142.626 309.545 142.556 309.34 142.569C309.022 142.59 308.75 142.805 308.656 143.11C308.62 143.223 308.585 143.337 308.549 143.451C308.271 144.335 308.999 145.202 309.919 145.084L311.747 144.849C311.829 144.838 311.895 144.777 311.912 144.696Z" fill="#5A6070"/>
<path d="M131.013 176.484C131.067 176.672 131.226 176.813 131.42 176.843L137.564 177.805C138.06 177.883 138.566 177.755 138.966 177.452C139.57 176.994 139.832 176.214 139.631 175.483C139.547 175.181 139.464 174.878 139.381 174.576C138.803 172.469 136.242 171.677 134.573 173.087L131.172 175.959C131.021 176.087 130.958 176.293 131.013 176.484Z" fill="#5A6070"/>
<path d="M141.306 381.853C141.094 382.108 141.051 382.463 141.192 382.764C141.431 383.276 142.093 383.408 142.512 383.028L144.559 381.169C144.919 380.842 145.005 380.31 144.765 379.887C144.406 379.253 143.524 379.175 143.059 379.736L141.306 381.853Z" fill="#5A6070"/>
<path d="M261.705 371.824C261.462 371.16 260.852 370.7 260.147 370.641C258.952 370.541 258.006 371.618 258.257 372.791L259.482 378.523C259.697 379.531 260.582 380.256 261.612 380.269C263.157 380.288 264.244 378.754 263.712 377.303L261.705 371.824Z" fill="#5A6070"/>
<path d="M152.946 17.4482C152.305 17.6526 152.029 18.4079 152.389 18.9772C152.646 19.3845 153.151 19.5588 153.605 19.3965L154.867 18.9451C155.452 18.7357 155.676 18.0315 155.322 17.5208C155.242 17.4059 155.135 17.3048 155.014 17.2349C154.998 17.2257 154.982 17.2167 154.967 17.2076C154.68 17.0421 154.337 17.0051 154.021 17.1056L152.946 17.4482Z" fill="#5A6070"/>
<path d="M251.863 182.646C252.521 182.789 253.137 182.273 253.11 181.6C253.091 181.119 252.741 180.715 252.267 180.629L250.948 180.389C250.337 180.278 249.791 180.776 249.842 181.395C249.854 181.534 249.896 181.676 249.966 181.797C249.975 181.813 249.984 181.828 249.993 181.844C250.159 182.131 250.437 182.334 250.761 182.405L251.863 182.646Z" fill="#5A6070"/>
<path d="M383.044 46.508C382.297 48.3355 383.488 50.374 385.447 50.6201L386.578 50.7621C387.966 50.9365 389.29 50.1282 389.77 48.8139L391.617 43.751C392.296 41.8899 391.017 39.8933 389.042 39.7325C388.924 39.7228 388.805 39.7132 388.686 39.7035C388.249 39.6679 387.81 39.7293 387.397 39.8766C387.171 39.9575 386.943 40.0378 386.715 40.118C385.923 40.3968 385.294 41.0046 384.977 41.7816L383.044 46.508Z" fill="#5A6070"/>
<path d="M67.1207 42.4308C68.6815 41.2218 68.6691 38.8607 67.0957 37.6681L66.1875 36.9798C65.0725 36.1347 63.5214 36.1726 62.4489 37.0709L58.3175 40.5318C56.7988 41.8039 56.9084 44.1728 58.5381 45.2993C58.6361 45.3671 58.7342 45.4349 58.8322 45.5026C59.1927 45.7518 59.6036 45.9182 60.0347 45.997C60.2715 46.0403 60.5091 46.0848 60.7466 46.1292C61.5716 46.2836 62.4201 46.0717 63.0837 45.5577L67.1207 42.4308Z" fill="#5A6070"/>
<path d="M179.246 55.5124C180.717 56.8332 183.041 56.3952 183.93 54.6296L184.811 52.8805C185.44 51.6315 185.123 50.1135 184.046 49.2212L178.878 44.9387C177.356 43.6777 175.059 44.2103 174.249 46.013C174.125 46.288 174.001 46.5631 173.877 46.8383C173.696 47.2383 173.604 47.6728 173.608 48.1118C173.611 48.4279 173.613 48.7437 173.613 49.0583C173.613 49.9353 173.974 50.7775 174.626 51.3635L179.246 55.5124Z" fill="#5A6070"/>
<path d="M248.117 136.531C247.503 134.652 245.272 133.869 243.619 134.953L241.982 136.028C240.812 136.795 240.328 138.268 240.815 139.58L243.149 145.872C243.837 147.725 246.092 148.413 247.695 147.256C247.94 147.08 248.184 146.904 248.43 146.728C248.786 146.472 249.083 146.141 249.299 145.759C249.455 145.484 249.611 145.21 249.769 144.937C250.207 144.177 250.316 143.268 250.044 142.434L248.117 136.531Z" fill="#5A6070"/>
<path d="M201.881 198.089C201.757 197.851 201.493 197.723 201.23 197.772C201.067 197.802 200.924 197.897 200.834 198.036C200.708 198.228 200.582 198.426 200.456 198.62C200.315 198.837 200.21 199.075 200.149 199.327L199.789 200.802C199.71 201.126 199.858 201.464 200.15 201.627C200.284 201.701 200.439 201.732 200.591 201.716C200.707 201.703 200.824 201.691 200.94 201.678C202.221 201.542 202.966 200.173 202.372 199.03C202.209 198.717 202.045 198.403 201.881 198.089Z" fill="#5A6070"/>
<path d="M461.038 107.657C461.009 107.837 461.099 108.013 461.26 108.098C461.366 108.154 461.491 108.162 461.604 108.12C461.756 108.065 461.909 108.009 462.067 107.951C462.233 107.891 462.388 107.803 462.525 107.69L463.356 107.004C463.538 106.855 463.598 106.603 463.504 106.388C463.461 106.289 463.388 106.206 463.296 106.15C463.228 106.109 463.16 106.067 463.092 106.027C462.319 105.561 461.308 106.021 461.159 106.911C461.117 107.16 461.077 107.409 461.038 107.657Z" fill="#5A6070"/>
<path d="M487.733 171.372C487.651 171.037 487.257 170.885 486.973 171.079C486.575 171.352 486.763 171.979 487.245 171.988C487.569 171.995 487.811 171.687 487.733 171.372Z" fill="#5A6070"/>
<path d="M27.2571 357.988C27.2298 357.793 27.1448 357.616 27.0166 357.466L22.4937 352.193C22.0417 351.666 21.421 351.312 20.7373 351.192L10.7804 349.437C8.6081 349.054 6.77265 351.069 7.34842 353.198C7.39207 353.36 7.4357 353.521 7.47932 353.682C7.76318 354.731 8.59376 355.543 9.6486 355.804C14.6592 357.045 19.7091 358.279 24.7565 359.531C25.3584 359.68 25.9965 359.553 26.4852 359.172C26.6181 359.068 26.7511 358.963 26.8853 358.858C27.1502 358.649 27.3039 358.321 27.2571 357.988Z" fill="#5A6070"/>
<path d="M440.866 19.1363C440.934 19.0784 440.908 18.97 440.82 18.956C440.818 18.9557 440.816 18.9554 440.814 18.9551C440.741 18.9434 440.674 19.0119 440.685 19.0855C440.698 19.1672 440.799 19.1943 440.861 19.1403C440.863 19.139 440.864 19.1377 440.866 19.1363Z" fill="#5A6070"/>
<path d="M3.36071 37.2242C3.27311 37.2405 3.2408 37.347 3.31004 37.4031C3.31159 37.4044 3.31313 37.4056 3.31468 37.4069C3.37256 37.4538 3.46493 37.4281 3.49198 37.3586C3.52196 37.2816 3.44779 37.2076 3.36664 37.223C3.36466 37.2234 3.36269 37.2238 3.36071 37.2242Z" fill="#5A6070"/>
<path d="M298.816 19.8747C298.881 19.7004 298.799 19.5056 298.628 19.431C298.514 19.3807 298.381 19.3956 298.279 19.4692C297.89 19.7517 297.498 20.0236 297.109 20.3034C296.908 20.4477 296.819 20.7019 296.883 20.941C296.949 21.1865 297.162 21.3641 297.415 21.3847L297.589 21.3989C297.967 21.4297 298.32 21.2053 298.453 20.8494L298.816 19.8747Z" fill="#5A6070"/>
<path d="M126.748 107.61C126.605 107.728 126.579 107.938 126.689 108.088C126.763 108.189 126.886 108.242 127.011 108.229C127.489 108.179 127.964 108.14 128.441 108.092C128.688 108.068 128.892 107.892 128.956 107.653C129.022 107.407 128.926 107.147 128.717 107.003L128.573 106.903C128.261 106.687 127.843 106.705 127.55 106.947L126.748 107.61Z" fill="#5A6070"/>
<path d="M310.299 106.747C309.177 107.302 308.517 108.496 308.645 109.742L308.849 111.736C308.913 112.36 309.232 112.934 309.721 113.329C310.442 113.91 311.432 114.02 312.256 113.598L317.483 110.925C319.432 109.928 319.694 107.244 317.973 105.889C317.703 105.677 317.432 105.464 317.162 105.251C316.255 104.539 315.02 104.413 313.986 104.924L310.299 106.747Z" fill="#5A6070"/>
<path d="M160.239 26.6343C161.489 26.7149 162.657 26.0107 163.17 24.868L163.99 23.0394C164.247 22.4661 164.257 21.8096 164.031 21.2235C163.698 20.36 162.895 19.7697 161.97 19.7227L156.107 19.4242C153.921 19.3128 152.352 21.5071 153.165 23.5401C153.293 23.8595 153.421 24.179 153.549 24.4984C153.978 25.5685 154.984 26.2954 156.135 26.3696L160.239 26.6343Z" fill="#5A6070"/>
<path d="M226.369 228.047C227.082 228.028 227.528 227.26 227.213 226.621C226.829 225.842 225.704 225.929 225.424 226.751C225.205 227.394 225.691 228.065 226.369 228.047Z" fill="#5A6070"/>
<path d="M267.483 330.56C267.8 330.134 267.555 329.519 267.037 329.404C266.403 329.263 265.935 329.966 266.287 330.512C266.561 330.938 267.181 330.966 267.483 330.56Z" fill="#5A6070"/>
<path d="M114.817 290.471C114.995 290.342 115.133 290.166 115.216 289.962C115.299 289.758 115.323 289.536 115.286 289.319L115.258 289.161C115.041 287.904 113.586 287.304 112.546 288.043C111.125 289.053 109.713 290.057 108.301 291.061C108.203 291.131 108.153 291.251 108.173 291.369C108.187 291.457 108.238 291.534 108.312 291.582C108.628 291.788 108.944 291.997 109.259 292.207C110.252 292.868 111.548 292.838 112.515 292.138L114.817 290.471Z" fill="#5A6070"/>
<path d="M121.311 207.947C121.357 207.991 121.417 208.018 121.481 208.024C121.527 208.029 121.573 208.022 121.616 208.005L121.656 207.989C121.969 207.863 122.046 207.457 121.798 207.228C121.479 206.934 121.16 206.643 120.843 206.342C120.82 206.32 120.785 206.316 120.758 206.332C120.744 206.34 120.733 206.353 120.727 206.368C120.696 206.451 120.664 206.535 120.633 206.618C120.516 206.927 120.597 207.277 120.838 207.503L121.311 207.947Z" fill="#5A6070"/>
<path d="M54.0435 126.897C53.9484 126.833 53.8369 126.798 53.7224 126.796C53.6122 126.795 53.5037 126.823 53.4089 126.88L53.3335 126.924C52.7654 127.261 52.7388 128.073 53.2867 128.442C54.0387 128.948 54.7889 129.446 55.5282 129.94C55.575 129.972 55.6354 129.974 55.6841 129.946C55.7202 129.925 55.7457 129.89 55.7547 129.849C55.7971 129.655 55.8426 129.462 55.8889 129.27C56.0312 128.677 55.7865 128.064 55.2803 127.725L54.0435 126.897Z" fill="#5A6070"/>
<path d="M393.079 165.425C392.789 165.164 392.341 165.257 392.166 165.606L391.948 166.04C391.926 166.085 391.913 166.136 391.907 166.186C391.896 166.288 391.931 166.387 392.002 166.462L392.087 166.552C392.449 166.934 393.095 166.759 393.216 166.246C393.235 166.166 393.253 166.085 393.272 166.006C393.321 165.796 393.239 165.568 393.079 165.425Z" fill="#5A6070"/>
<path d="M361.249 367.483C361.054 367.138 360.548 367.212 360.439 367.593C360.348 367.912 360.62 368.22 360.947 368.166C361.252 368.115 361.418 367.78 361.265 367.511C361.26 367.502 361.255 367.492 361.249 367.483Z" fill="#5A6070"/>
<path d="M37.9436 195.402C38.2407 194.957 37.8631 194.379 37.3363 194.473L37.3016 194.479C36.8633 194.557 36.6562 195.066 36.9142 195.429C37.1657 195.782 37.7026 195.763 37.9436 195.402Z" fill="#5A6070"/>
<path d="M599.431 94.303C599.299 94.2907 599.211 94.4597 599.295 94.5624C599.359 94.6408 599.483 94.6281 599.529 94.5383L599.547 94.5044C599.592 94.4175 599.529 94.3122 599.431 94.303Z" fill="#5A6070"/>
<path d="M201.082 248.53C198.827 248.114 196.954 250.275 197.685 252.448C197.699 252.49 197.713 252.532 197.727 252.574C198.05 253.535 198.836 254.269 199.818 254.525L204.222 255.671C205.18 255.921 206.199 255.682 206.945 255.031C207.087 254.907 207.23 254.783 207.373 254.658C209.271 253.002 208.413 249.873 205.934 249.42C204.314 249.124 202.696 248.827 201.082 248.53Z" fill="#5A6070"/>
<path d="M144.955 323.17C144.846 323.922 145.598 324.503 146.308 324.234C146.624 324.114 146.848 323.848 146.921 323.518L147.229 322.124C147.305 321.78 147.206 321.423 146.965 321.167C146.36 320.524 145.289 320.863 145.163 321.736C145.093 322.214 145.024 322.692 144.955 323.17Z" fill="#5A6070"/>
<path d="M152.473 206.734C152.667 207.172 153.094 207.46 153.573 207.442C153.764 207.435 153.954 207.428 154.145 207.421C154.707 207.4 155.229 207.126 155.564 206.674C156.703 205.142 157.847 203.612 158.984 202.089C160.234 200.414 159.097 198.03 157.008 197.941C155.837 197.892 154.777 198.63 154.417 199.746L152.423 205.935C152.339 206.194 152.363 206.485 152.473 206.734Z" fill="#5A6070"/>
<path d="M261.694 215.514C261.166 215.364 260.605 215.601 260.346 216.085L259.617 217.447C259.555 217.561 259.532 217.692 259.551 217.821C259.56 217.884 259.569 217.947 259.578 218.01C259.599 218.155 259.709 218.27 259.853 218.297C259.928 218.311 260.006 218.299 260.074 218.263C260.744 217.912 261.413 217.56 262.069 217.204C262.367 217.043 262.546 216.724 262.53 216.385C262.513 216.002 262.253 215.673 261.884 215.568L261.694 215.514Z" fill="#5A6070"/>
<path d="M330.372 276.553C330.6 276.972 331.09 277.174 331.547 277.036L332.845 276.644C332.937 276.616 333.021 276.564 333.081 276.488C333.117 276.443 333.152 276.397 333.187 276.352C333.269 276.246 333.28 276.098 333.206 275.986C333.168 275.928 333.11 275.885 333.044 275.865C332.415 275.674 331.801 275.488 331.189 275.302C330.905 275.216 330.597 275.301 330.397 275.521C330.177 275.763 330.135 276.117 330.291 276.404L330.372 276.553Z" fill="#5A6070"/>
<path d="M328.609 340.784C328.854 340.502 328.718 340.06 328.357 339.963C327.908 339.842 327.538 340.355 327.783 340.75C327.961 341.035 328.363 341.066 328.584 340.812L328.609 340.784Z" fill="#5A6070"/>
<path d="M80.4382 320.745C80.9273 319.706 80.1666 318.514 79.0183 318.53C77.6064 318.55 76.9507 320.299 78.0057 321.237C78.7771 321.923 79.9984 321.679 80.4382 320.745Z" fill="#5A6070"/>
<path d="M36.332 322.935C35.9265 323.165 35.9859 323.789 36.4294 323.932C36.8097 324.056 37.188 323.728 37.1137 323.335L37.1054 323.292C37.0387 322.939 36.6443 322.758 36.332 322.935Z" fill="#5A6070"/>
<path d="M240.292 418.983C241.684 419.555 243.266 418.714 243.545 417.235L244.427 412.565C244.482 412.274 244.454 411.974 244.347 411.698C243.913 410.582 242.444 410.334 241.667 411.246L239.286 414.042C238.576 414.875 238.377 416.028 238.764 417.05L238.989 417.643C239.219 418.251 239.691 418.735 240.292 418.983Z" fill="#5A6070"/>
<path d="M424.69 49.2575C425.166 49.1783 425.469 48.6919 425.301 48.2396L424.754 46.7712C424.721 46.6816 424.663 46.6032 424.588 46.5446C424.28 46.3055 423.828 46.4836 423.766 46.8686L423.582 48.0138C423.52 48.3947 423.671 48.7789 423.974 49.0171L424.085 49.104C424.258 49.2398 424.473 49.2936 424.69 49.2575Z" fill="#5A6070"/>
<path d="M32.4277 19.2256C31.9758 19.0561 31.4704 19.326 31.3901 19.8019L31.1291 21.3468C31.1132 21.441 31.1238 21.5378 31.1599 21.6263C31.3072 21.9874 31.7874 22.059 32.0336 21.7565L32.7659 20.857C33.0094 20.5578 33.0714 20.15 32.9277 19.7919L32.8752 19.6613C32.7934 19.4572 32.6335 19.3028 32.4277 19.2256Z" fill="#5A6070"/>
<path d="M85.7147 114.972C85.9483 115.173 86.3258 115.121 86.4754 114.851L86.9687 113.963C86.998 113.91 87.0121 113.85 87.0093 113.789C86.9978 113.542 86.7258 113.398 86.5145 113.526L85.9038 113.898C85.679 114.035 85.5469 114.284 85.5595 114.546L85.5646 114.652C85.5706 114.778 85.619 114.889 85.7147 114.972Z" fill="#5A6070"/>
<path d="M175.124 167.948C175.006 167.863 174.851 167.848 174.718 167.909C174.458 168.027 174.399 168.37 174.603 168.569L174.836 168.796C175.062 169.016 175.432 168.926 175.528 168.625C175.587 168.44 175.524 168.236 175.367 168.123L175.124 167.948Z" fill="#5A6070"/>
<path d="M524.047 112.391C523.785 112.197 523.439 112.161 523.143 112.297C522.571 112.558 522.441 113.312 522.892 113.75L523.395 114.24C523.896 114.726 524.742 114.516 524.961 113.853C525.086 113.473 524.95 113.058 524.628 112.82L524.047 112.391Z" fill="#5A6070"/>
<path d="M50.9973 368.172C51.069 368.2 51.1504 368.189 51.2116 368.142C51.3364 368.046 51.3231 367.854 51.1862 367.777L51.0132 367.679C50.8642 367.595 50.6854 367.699 50.6803 367.87C50.6771 367.977 50.7389 368.069 50.8381 368.108L50.9973 368.172Z" fill="#5A6070"/>
<path d="M293.361 175.604C293.54 175.591 293.701 175.475 293.757 175.304C293.805 175.153 293.761 174.986 293.645 174.877C293.332 174.584 292.822 174.877 292.927 175.294C292.975 175.486 293.15 175.619 293.348 175.605C293.352 175.605 293.356 175.604 293.361 175.604Z" fill="#5A6070"/>
<path d="M250.874 454.043C251.031 454.097 251.209 454.058 251.322 453.937C251.429 453.822 251.458 453.656 251.397 453.512C251.241 453.146 250.704 453.209 250.639 453.602L250.634 453.63C250.605 453.809 250.702 453.984 250.874 454.043Z" fill="#5A6070"/>
<path d="M341.464 149.119C343.342 149.569 345.15 148.152 345.162 146.221L345.181 143.214C345.189 141.885 344.322 140.709 343.05 140.321C341.231 139.766 339.42 139.209 337.61 138.651C337.264 138.544 336.892 138.567 336.566 138.724C336.025 138.983 335.682 139.542 335.705 140.142C335.773 141.939 335.842 143.737 335.912 145.543C335.965 146.885 336.904 148.028 338.21 148.34L341.464 149.119Z" fill="#5A6070"/>
<path d="M567.129 177.415C567.917 177.577 568.649 176.962 568.626 176.159C568.611 175.601 568.227 175.121 567.69 174.971C567.277 174.856 566.865 174.739 566.448 174.631C566.355 174.607 566.256 174.617 566.169 174.66C566.02 174.734 565.932 174.891 565.945 175.057C565.976 175.447 566.003 175.843 566.033 176.242C566.076 176.815 566.497 177.286 567.06 177.401L567.129 177.415Z" fill="#5A6070"/>
<path d="M92.079 164.535C92.3234 164.625 92.5794 164.433 92.5662 164.173C92.5504 163.861 92.1731 163.718 91.9495 163.936C91.7609 164.12 91.8178 164.437 92.0645 164.529C92.0693 164.531 92.0742 164.533 92.079 164.535Z" fill="#5A6070"/>
<path d="M590.595 23.4756C590.151 23.428 589.787 23.8205 589.867 24.2594L590.062 25.3259C590.072 25.3774 590.119 25.4203 590.167 25.4427C590.216 25.4663 590.269 25.4579 590.31 25.4211C590.529 25.2242 590.746 25.0191 590.964 24.8169C591.195 24.6026 591.28 24.2711 591.174 23.9745C591.166 23.9542 591.159 23.9339 591.152 23.9136C591.065 23.673 590.849 23.5029 590.595 23.4756Z" fill="#5A6070"/>
<path d="M456.227 155.387C455.863 155.305 455.56 155.714 455.747 156.037C455.754 156.047 455.76 156.058 455.766 156.069C455.923 156.34 456.305 156.342 456.468 156.074C456.479 156.056 456.49 156.038 456.501 156.02C456.651 155.774 456.507 155.45 456.227 155.387Z" fill="#5A6070"/>
<path d="M279.799 95.7668C279.606 95.7772 279.502 96.0407 279.639 96.1763C279.749 96.2847 279.933 96.2328 279.98 96.086C279.987 96.0651 279.994 96.0441 280 96.0232C280.043 95.8893 279.939 95.7593 279.799 95.7668Z" fill="#5A6070"/>
<path d="M181.164 51.3932C181.335 51.4805 181.557 51.3043 181.506 51.1183C181.466 50.9697 181.28 50.9223 181.166 51.0259C181.15 51.0407 181.133 51.0555 181.117 51.0703C181.013 51.1649 181.038 51.3296 181.164 51.3932Z" fill="#5A6070"/>
<path d="M391.507 260.15C391.523 259.858 391.335 259.587 391.063 259.479C390.835 259.388 390.584 259.435 390.4 259.598C390.331 259.659 390.262 259.721 390.192 259.782C389.775 260.152 389.872 260.827 390.375 261.066C390.878 261.303 391.467 260.954 391.495 260.399C391.499 260.316 391.503 260.232 391.507 260.15Z" fill="#5A6070"/>
<path d="M400.464 10.8508C400.586 10.6744 400.579 10.4382 400.451 10.2666C400.341 10.1191 400.156 10.0516 399.975 10.0842C399.907 10.0962 399.84 10.108 399.772 10.1197C399.369 10.1894 399.177 10.648 399.403 10.9899C399.63 11.3339 400.136 11.3291 400.369 10.9892C400.4 10.9431 400.432 10.897 400.464 10.8508Z" fill="#5A6070"/>
<path d="M34.2066 64.5998C34.013 64.6916 33.9004 64.8994 33.9258 65.1122C33.9477 65.2951 34.0741 65.4461 34.2473 65.5085C34.3115 65.5316 34.3758 65.5551 34.4403 65.5788C34.8248 65.7203 35.2197 65.4188 35.1952 65.0098C35.1705 64.5984 34.7303 64.3498 34.3584 64.5275C34.3079 64.5516 34.2573 64.5757 34.2066 64.5998Z" fill="#5A6070"/>
<path d="M69.6609 283.222C69.9188 283.383 70.2377 283.412 70.5196 283.299C71.1223 283.057 71.3086 282.294 70.8853 281.802L69.1601 279.794C68.8156 279.393 68.2377 279.297 67.7852 279.57C67.5207 279.73 67.3298 279.99 67.2581 280.29C67.2424 280.357 67.2265 280.423 67.2106 280.488C67.0531 281.139 67.3396 281.809 67.913 282.155C68.4967 282.506 69.0798 282.861 69.6609 283.222Z" fill="#5A6070"/>
<path d="M145.641 67.7441C145.784 67.651 145.887 67.5052 145.916 67.3368C145.924 67.2874 145.933 67.2379 145.942 67.1892C145.96 67.0863 145.93 66.9802 145.858 66.9042C145.759 66.7992 145.603 66.7731 145.475 66.8402L145.094 67.0409C144.772 67.21 144.757 67.6661 145.077 67.8375C145.212 67.9099 145.381 67.91 145.511 67.828C145.555 67.8 145.598 67.7718 145.641 67.7441Z" fill="#5A6070"/>
<path d="M283.336 142.74C283.165 142.749 283.003 142.824 282.894 142.955C282.862 142.994 282.83 143.032 282.798 143.07C282.731 143.15 282.704 143.257 282.728 143.359C282.761 143.499 282.883 143.6 283.027 143.606L283.458 143.623C283.821 143.637 284.062 143.25 283.871 142.941C283.79 142.811 283.644 142.726 283.491 142.733C283.438 142.735 283.387 142.737 283.336 142.74Z" fill="#5A6070"/>
<path d="M37.6015 231.671C37.5767 231.763 37.5925 231.862 37.6452 231.943C38.3077 232.955 38.9701 233.967 39.6301 234.988C40.1199 235.746 41.0156 236.141 41.9056 235.991C43.5521 235.714 44.3035 233.809 43.2885 232.483C43.2078 232.378 43.1271 232.272 43.0465 232.167C42.5308 231.491 41.7088 231.119 40.8616 231.187L37.9008 231.422C37.7584 231.433 37.6385 231.533 37.6015 231.671Z" fill="#5A6070"/>
<path d="M346.506 104.114C346.49 104.175 346.504 104.239 346.544 104.288C346.957 104.793 347.371 105.298 347.787 105.813C348.09 106.189 348.584 106.353 349.051 106.227C349.928 105.99 350.223 104.904 349.61 104.234C349.566 104.186 349.523 104.139 349.479 104.091C349.167 103.749 348.702 103.592 348.247 103.677L346.66 103.971C346.585 103.985 346.525 104.04 346.506 104.114Z" fill="#5A6070"/>
<path d="M127.569 10.8112C127.614 10.7666 127.634 10.7035 127.624 10.6416C127.518 9.9976 127.413 9.35315 127.31 8.69944C127.235 8.222 126.889 7.83248 126.422 7.70853C125.544 7.47556 124.745 8.26776 124.941 9.1548C124.955 9.21808 124.969 9.28136 124.983 9.34462C125.082 9.79608 125.407 10.1648 125.843 10.319L127.365 10.858C127.436 10.8833 127.516 10.8651 127.569 10.8112Z" fill="#5A6070"/>
<path d="M369.942 225.641C369.929 225.623 369.903 225.626 369.895 225.647C369.893 225.655 369.89 225.662 369.887 225.67C369.879 225.694 369.904 225.723 369.929 225.716C369.953 225.71 369.963 225.67 369.948 225.649C369.946 225.647 369.944 225.644 369.942 225.641Z" fill="#5A6070"/>
<path d="M471.081 36.7055C471.133 36.7095 471.172 36.6609 471.152 36.6129C471.152 36.6119 471.152 36.6109 471.151 36.6099C471.125 36.5461 471.023 36.5407 470.993 36.6027C470.971 36.6466 470.997 36.698 471.046 36.7025C471.057 36.7036 471.069 36.7046 471.081 36.7055Z" fill="#5A6070"/>
<path d="M139.454 253.437C139.61 253.651 139.933 253.643 140.079 253.422C140.232 253.19 140.093 252.877 139.818 252.835C139.484 252.784 139.254 253.163 139.454 253.437Z" fill="#5A6070"/>
<path d="M65.8026 400.887C65.9052 400.995 66.0849 400.966 66.1477 400.831L66.1583 400.808C66.2216 400.671 66.1257 400.516 65.9754 400.513C65.7835 400.509 65.6708 400.748 65.8026 400.887Z" fill="#5A6070"/>
<path d="M479.081 72.2123C479.169 72.7064 479.729 72.9536 480.156 72.6907C480.694 72.3599 480.564 71.5435 479.953 71.3865C479.455 71.2589 478.987 71.6765 479.076 72.1822C479.078 72.1922 479.08 72.2023 479.081 72.2123Z" fill="#5A6070"/>
<path d="M363.747 15.5777C363.501 15.8951 363.652 16.3703 364.038 16.4815C364.52 16.6205 364.938 16.1052 364.704 15.6617C364.511 15.2971 363.999 15.2518 363.747 15.5777Z" fill="#5A6070"/>
<path d="M68.3669 78.8651C68.7385 78.7132 68.845 78.226 68.5666 77.9367C68.2187 77.5754 67.599 77.8127 67.5801 78.3139C67.5645 78.7259 67.9852 79.0211 68.3669 78.8651Z" fill="#5A6070"/>
<path d="M32.1271 282.109C32.1214 282.279 32.3235 282.382 32.4501 282.268C32.5552 282.174 32.5275 282.001 32.3977 281.946C32.2722 281.892 32.1318 281.972 32.1271 282.109Z" fill="#5A6070"/>
<path d="M256.28 291.017C256.279 290.955 256.205 290.927 256.162 290.971C256.124 291.011 256.141 291.081 256.19 291.105C256.234 291.127 256.281 291.092 256.28 291.042C256.28 291.034 256.28 291.026 256.28 291.017Z" fill="#5A6070"/>
<path d="M102.833 409.455C102.934 409.508 103.057 409.444 103.07 409.33C103.087 409.192 102.934 409.098 102.818 409.175C102.714 409.243 102.722 409.398 102.833 409.455Z" fill="#5A6070"/>
<path d="M464.735 206.379C465.432 206.348 465.885 205.624 465.609 204.984C465.356 204.399 464.625 204.189 464.104 204.556C463.286 205.132 463.736 206.423 464.735 206.379Z" fill="#5A6070"/>
<path d="M446.231 71.9862C446.331 71.8906 446.307 71.7281 446.183 71.6685C446.065 71.6123 445.915 71.672 445.886 71.7988L445.883 71.8081C445.838 72.0027 446.074 72.1368 446.218 71.9988L446.231 71.9862Z" fill="#5A6070"/>
<path d="M333.819 35.9226C333.446 36.0227 333.273 36.4545 333.47 36.7869C333.813 37.3626 334.682 37.0286 334.545 36.3731C334.476 36.0443 334.144 35.8356 333.819 35.9226Z" fill="#5A6070"/>
<path d="M104.458 76.2097C104.831 76.3098 105.197 76.0224 105.192 75.6356C105.184 74.9659 104.264 74.8205 104.055 75.4569C103.95 75.7762 104.133 76.1227 104.458 76.2097Z" fill="#5A6070"/>
<path d="M168.118 230.273C168.248 230.505 168.601 230.416 168.606 230.15C168.608 230.04 168.54 229.94 168.437 229.902C168.424 229.897 168.41 229.893 168.397 229.888C168.174 229.806 167.986 230.039 168.103 230.246L168.118 230.273Z" fill="#5A6070"/>
<path d="M235.709 326.564C235.937 325.097 234.625 323.855 233.177 324.187C231.215 324.638 230.947 327.339 232.786 328.16C234.043 328.721 235.496 327.925 235.709 326.564Z" fill="#5A6070"/>
<path d="M394.316 379.383C394.922 379.174 395.12 378.428 394.7 377.944C394.134 377.291 393.046 377.721 393.101 378.583C393.139 379.177 393.754 379.577 394.316 379.383Z" fill="#5A6070"/>
<path d="M4.24575 179.564C3.54426 178.362 1.85822 178.246 1.00435 179.345C-0.161328 180.845 1.24077 182.992 3.07611 182.502C4.32513 182.168 4.93392 180.744 4.28254 179.627C4.27028 179.606 4.25801 179.585 4.24575 179.564Z" fill="#5A6070"/>
<path d="M115.982 25.642C115.976 25.6787 116.01 25.7108 116.046 25.7012C116.075 25.6934 116.092 25.6616 116.081 25.6338L116.076 25.6232C116.056 25.5741 115.992 25.578 115.984 25.6304C115.983 25.6343 115.983 25.6382 115.982 25.642Z" fill="#5A6070"/>
<path d="M287.971 194.032C287.994 194.003 287.981 193.958 287.945 193.949C287.916 193.941 287.885 193.96 287.881 193.99L287.88 194.001C287.872 194.054 287.93 194.083 287.963 194.041C287.966 194.038 287.968 194.035 287.971 194.032Z" fill="#5A6070"/>
<path d="M354.156 186.969C354.378 187.097 354.659 186.956 354.688 186.701L354.691 186.674C354.721 186.412 354.476 186.209 354.229 186.3C353.94 186.406 353.89 186.815 354.156 186.969Z" fill="#5A6070"/>
<path d="M434.725 379.125C434.733 379.115 434.724 379.1 434.711 379.102C434.702 379.104 434.697 379.115 434.702 379.123C434.707 379.131 434.718 379.132 434.725 379.125Z" fill="#5A6070"/>
<path d="M301.452 262.743C301.438 262.739 301.427 262.754 301.434 262.766C301.441 262.778 301.459 262.776 301.463 262.762C301.465 262.754 301.46 262.745 301.452 262.743Z" fill="#5A6070"/>
<path d="M320.907 373.013C320.901 373.059 320.913 373.106 320.941 373.144L322.01 374.625C322.674 375.544 324.083 375.413 324.557 374.382C325.08 373.246 324.041 372.019 322.836 372.356L321.041 372.856C320.969 372.877 320.916 372.938 320.907 373.013Z" fill="#5A6070"/>
<path d="M107.421 379.601C107.434 379.617 107.453 379.628 107.474 379.632L108.644 379.85C109.363 379.984 109.96 379.286 109.723 378.594C109.464 377.836 108.446 377.736 108.039 378.426L107.41 379.492C107.39 379.527 107.394 379.571 107.421 379.601Z" fill="#5A6070"/>
<path d="M81.8494 357.917C81.8454 357.932 81.8481 357.948 81.8567 357.96L82.0526 358.251C82.1724 358.429 82.4359 358.413 82.5296 358.22C82.6369 358 82.4349 357.745 82.1965 357.804L81.8881 357.879C81.8693 357.884 81.8544 357.898 81.8494 357.917Z" fill="#5A6070"/>
<path d="M253.43 161.853C253.468 161.858 253.507 161.846 253.537 161.821L254.612 160.931C255.26 160.394 255.092 159.36 254.305 159.06C253.427 158.726 252.553 159.571 252.861 160.459L253.312 161.759C253.33 161.81 253.376 161.847 253.43 161.853Z" fill="#5A6070"/>
<path d="M237.043 7.3458C237.011 7.32249 236.972 7.31299 236.934 7.3195L235.558 7.55328C234.728 7.69424 234.357 8.67359 234.888 9.3264C235.481 10.0552 236.661 9.76028 236.838 8.83754L237.097 7.48625C237.107 7.43288 237.086 7.37836 237.043 7.3458Z" fill="#5A6070"/>
<path d="M572.06 123.146C572.368 124.012 573.444 124.312 574.158 123.734C574.61 123.368 574.767 122.752 574.549 122.214L574.302 121.601C574.101 121.104 573.623 120.773 573.087 120.761L573.067 120.761C572.754 120.754 572.449 120.861 572.209 121.063C571.797 121.409 571.643 121.975 571.824 122.482L572.06 123.146Z" fill="#5A6070"/>
<path d="M73.4447 248.451C74.2647 250.357 76.7286 250.879 78.2583 249.477C78.6621 249.107 79.0649 248.738 79.4662 248.37C80.4327 247.483 80.7043 246.07 80.1409 244.885L78.8569 242.185C78.3443 241.107 77.2415 240.436 76.0485 240.475L75.2159 240.503C74.4911 240.527 73.7994 240.812 73.2694 241.307C73.0878 241.477 72.906 241.647 72.7242 241.817C71.8087 242.675 71.5357 244.015 72.0316 245.167L73.4447 248.451Z" fill="#5A6070"/>
<path d="M247.016 262.813C248.428 264.316 250.903 263.979 251.86 262.151C252.149 261.599 252.437 261.048 252.724 260.497C253.332 259.332 253.105 257.907 252.169 256.985L249.927 254.776C249.077 253.938 247.811 253.684 246.704 254.128L245.83 254.479C245.157 254.749 244.604 255.254 244.276 255.901C244.155 256.139 244.034 256.377 243.913 256.615C243.341 257.744 243.536 259.111 244.403 260.034L247.016 262.813Z" fill="#5A6070"/>
<path d="M173.824 433.024C173.727 433.053 173.646 433.119 173.596 433.208C173.458 433.452 173.626 433.739 173.906 433.748C173.936 433.749 173.965 433.75 173.995 433.752C174.141 433.758 174.28 433.687 174.356 433.562C174.535 433.263 174.255 432.9 173.92 432.997L173.824 433.024Z" fill="#5A6070"/>
<path d="M426.137 176.695C426.221 176.741 426.32 176.753 426.414 176.732C426.683 176.67 426.786 176.356 426.599 176.153C426.577 176.128 426.554 176.104 426.532 176.08C426.444 175.986 426.312 175.946 426.185 175.974C425.849 176.047 425.783 176.498 426.084 176.665L426.137 176.695Z" fill="#5A6070"/>
<path d="M282.171 243.338C282.217 243.36 282.271 243.355 282.311 243.324L283.236 242.617C283.758 242.218 283.716 241.416 283.162 241.063C282.431 240.596 281.531 241.288 281.773 242.121L282.102 243.255C282.112 243.291 282.137 243.321 282.171 243.338Z" fill="#5A6070"/>
<path d="M238.943 82.5323C239.655 82.8344 240.365 82.102 240.034 81.4035L239.482 80.2375C239.286 79.8244 238.731 79.7482 238.431 80.0934C238.317 80.2246 238.262 80.3968 238.281 80.5694C238.326 80.9917 238.379 81.4133 238.428 81.8444C238.464 82.1488 238.661 82.4125 238.943 82.5323Z" fill="#5A6070"/>
<path d="M209.93 83.2829C209.466 82.6656 208.484 82.9449 208.422 83.7151L208.317 85.001C208.28 85.4565 208.722 85.8002 209.155 85.651C209.319 85.5944 209.453 85.4729 209.523 85.3141C209.695 84.926 209.86 84.5343 210.032 84.136C210.154 83.8548 210.115 83.5276 209.93 83.2829Z" fill="#5A6070"/>
<path d="M319.024 311.959C319.24 311.954 319.317 311.704 319.149 311.567L318.864 311.334C318.768 311.256 318.624 311.302 318.592 311.422C318.58 311.465 318.586 311.512 318.609 311.55C318.665 311.643 318.722 311.729 318.772 311.816C318.822 311.904 318.922 311.962 319.024 311.959Z" fill="#5A6070"/>
<path d="M525.083 177.889C525.34 178.16 525.796 177.993 525.817 177.62C525.834 177.3 525.504 177.076 525.213 177.211C524.95 177.333 524.884 177.678 525.083 177.889Z" fill="#5A6070"/>
<path d="M-1.73292 253.892C-1.857 256.037 0.652246 257.283 2.28607 255.887C3.69216 254.686 3.30269 252.419 1.57648 251.756C0.0346592 251.164 -1.63754 252.243 -1.73292 253.892Z" fill="#5A6070"/>
<path d="M5.44508 221.333C5.83838 221.226 5.92439 220.707 5.58652 220.479C5.29645 220.283 4.90152 220.457 4.84956 220.803C4.79852 221.143 5.11342 221.423 5.44508 221.333Z" fill="#5A6070"/>
<path d="M232.423 29.9538C232.731 30.4313 233.449 30.3659 233.666 29.8406C233.694 29.7709 233.723 29.7013 233.752 29.6317C233.802 29.5108 233.778 29.3721 233.691 29.2743C233.602 29.1734 233.462 29.1345 233.333 29.1749L232.423 29.4607C232.346 29.485 232.289 29.5516 232.277 29.6319C232.27 29.6823 232.281 29.7336 232.309 29.7764L232.423 29.9538Z" fill="#5A6070"/>
<path d="M189.287 132.077C189.259 131.509 188.604 131.207 188.154 131.554C188.094 131.599 188.035 131.645 187.975 131.691C187.872 131.771 187.822 131.903 187.849 132.031C187.876 132.163 187.978 132.267 188.109 132.296L189.04 132.504C189.119 132.521 189.202 132.492 189.252 132.428C189.284 132.388 189.299 132.338 189.297 132.287L189.287 132.077Z" fill="#5A6070"/>
<path d="M237.478 116.947C239.202 115.336 238.399 112.439 236.092 111.946C235.782 111.88 235.471 111.813 235.161 111.748C234.657 111.641 234.135 111.826 233.81 112.227C233.462 112.656 233.405 113.252 233.665 113.74L235.514 117.213C235.68 117.524 236.009 117.711 236.36 117.695C236.576 117.685 236.782 117.598 236.94 117.451L237.478 116.947Z" fill="#5A6070"/>
<path d="M228.404 54.211C226.106 54.7441 225.352 57.6548 227.104 59.2357C227.34 59.4483 227.575 59.6606 227.811 59.8725C228.194 60.2174 228.739 60.3177 229.22 60.1332C229.737 59.9355 230.084 59.448 230.103 58.8955L230.238 54.9626C230.25 54.6111 230.059 54.2841 229.746 54.1226C229.554 54.0233 229.333 53.9956 229.122 54.0444L228.404 54.211Z" fill="#5A6070"/>
<path d="M29.4373 100.827C29.5263 100.849 29.6035 100.746 29.5619 100.664C29.5305 100.603 29.4504 100.588 29.4016 100.637C29.3975 100.641 29.3934 100.646 29.3893 100.65C29.333 100.707 29.3503 100.804 29.4278 100.824C29.431 100.825 29.4341 100.826 29.4373 100.827Z" fill="#5A6070"/>
<path d="M553.004 47.0493C552.949 47.0909 552.97 47.1865 553.039 47.1979L553.075 47.2038C553.122 47.2117 553.164 47.1768 553.16 47.1292C553.159 47.1236 553.158 47.1179 553.158 47.1122C553.151 47.0472 553.057 47.0102 553.004 47.0493Z" fill="#5A6070"/>
<path d="M343.165 237.647C343.074 237.633 343.012 237.732 343.061 237.81C343.1 237.871 343.179 237.89 343.226 237.834C343.281 237.77 343.249 237.66 343.165 237.647Z" fill="#5A6070"/>
<path d="M412.797 350.309C413.059 349.993 412.826 349.514 412.415 349.54L412.381 349.543C412.067 349.563 411.863 349.88 411.98 350.173C412.115 350.51 412.565 350.588 412.797 350.309Z" fill="#5A6070"/>
<path d="M604.047 60.9307C604.183 61.0792 604.377 61.1612 604.578 61.1557C604.867 61.1476 605.155 61.1399 605.439 61.1333C605.807 61.1247 606.142 60.9209 606.316 60.5975C606.526 60.2081 606.46 59.7277 606.152 59.4098L605.195 58.4208C605.122 58.3448 605.013 58.3146 604.911 58.342C604.828 58.3641 604.759 58.4212 604.723 58.4984L603.932 60.1651C603.811 60.4199 603.856 60.7227 604.047 60.9307Z" fill="#5A6070"/>
<path d="M-3.11721 68.8473C-3.37262 69.1887 -3.46534 69.6247 -3.37402 70.0412C-3.24337 70.6369 -3.11682 71.2316 -2.98816 71.8268C-2.82382 72.5871 -2.26027 73.1967 -1.51742 73.4273C-0.617006 73.7068 0.360959 73.3744 0.904532 72.6041L2.55814 70.2607C2.69317 70.0693 2.71192 69.8192 2.60693 69.6099C2.52455 69.4456 2.37504 69.325 2.19702 69.2794L-1.58824 68.3086C-2.15995 68.162 -2.76364 68.3747 -3.11721 68.8473Z" fill="#5A6070"/>
<path d="M138.396 417.974C138.575 418.056 138.785 418.011 138.916 417.864L140.034 416.603C140.893 415.635 140.209 414.113 138.915 414.126C137.855 414.137 137.139 415.214 137.539 416.195L138.168 417.736C138.211 417.842 138.293 417.927 138.396 417.974Z" fill="#5A6070"/>
<path d="M182.88 319.66C182.954 319.868 183.162 319.996 183.381 319.967L185.118 319.74C186.431 319.569 186.931 317.946 185.928 317.081C185.096 316.363 183.783 316.7 183.428 317.741L182.878 319.354C182.845 319.453 182.845 319.561 182.88 319.66Z" fill="#5A6070"/>
<path d="M350.331 69.4863C350.239 69.5822 350.281 69.7411 350.408 69.7799C350.521 69.8145 350.636 69.7315 350.638 69.6133C350.642 69.4506 350.443 69.3685 350.331 69.4863Z" fill="#5A6070"/>
<path d="M106.941 38.8869C107.068 38.8496 107.112 38.6912 107.021 38.5942C106.941 38.5077 106.8 38.5222 106.739 38.6232C106.654 38.7624 106.785 38.9327 106.941 38.8869Z" fill="#5A6070"/>
<path d="M291.808 349.252C291.99 349.315 292.162 349.165 292.12 348.977C292.114 348.95 292.108 348.923 292.102 348.896C292.089 348.826 292.04 348.771 291.972 348.749C291.884 348.721 291.777 348.738 291.721 348.811L291.681 348.863C291.577 348.996 291.635 349.192 291.795 349.247L291.808 349.252Z" fill="#5A6070"/>
<path d="M491.089 124.582C491.471 124.764 491.822 124.288 491.518 123.993C491.286 123.767 490.885 123.918 490.878 124.242C490.875 124.386 490.959 124.52 491.089 124.582Z" fill="#5A6070"/>
<path d="M622.499 146.709C622.447 146.997 622.786 147.191 623.008 147C623.241 146.798 623.07 146.416 622.765 146.456C622.63 146.474 622.523 146.576 622.499 146.709Z" fill="#5A6070"/>
<path d="M546.39 15.8112C547.312 15.0552 546.79 13.544 545.597 13.5424C544.34 13.5408 543.83 15.1846 544.874 15.8854C545.337 16.1966 545.958 16.1652 546.39 15.8112Z" fill="#5A6070"/>
<path d="M48.7003 166.425C50.2101 166.459 51.3277 165.029 50.9239 163.573C50.7108 162.805 50.497 162.04 50.2818 161.279C50.2514 161.171 50.1898 161.075 50.1048 161.002C49.8758 160.806 49.5335 160.823 49.325 161.041C48.3415 162.068 47.3621 163.079 46.3779 164.108C46.2751 164.215 46.1908 164.339 46.1284 164.474C45.72 165.358 46.3511 166.37 47.3241 166.393L48.7003 166.425Z" fill="#5A6070"/>
<path d="M422.557 125.196C423.182 124.955 423.403 124.187 422.991 123.659C422.775 123.381 422.56 123.106 422.349 122.829C422.315 122.783 422.266 122.75 422.211 122.735C422.082 122.698 421.946 122.764 421.895 122.888C421.661 123.467 421.43 124.061 421.195 124.637C421.169 124.701 421.154 124.77 421.151 124.839C421.133 125.271 421.563 125.579 421.966 125.424L422.557 125.196Z" fill="#5A6070"/>
<path d="M108.979 240.893C108.656 241.184 108.686 241.7 109.041 241.951L111.157 243.442C111.166 243.448 111.178 243.449 111.188 243.443C111.198 243.437 111.204 243.424 111.201 243.412L110.845 241.943C110.761 241.595 110.545 241.294 110.242 241.104L109.787 240.818C109.534 240.659 109.201 240.693 108.979 240.893Z" fill="#5A6070"/>
<path d="M189.601 8.87499C188.447 9.25413 187.95 10.6015 188.576 11.6434L192.325 17.8849C192.339 17.908 192.366 17.9191 192.392 17.9121C192.414 17.9061 192.431 17.8878 192.436 17.865L193.279 13.3565C193.424 12.5798 193.257 11.7771 192.814 11.1229L191.795 9.61849C191.314 8.90828 190.416 8.60739 189.601 8.87499Z" fill="#5A6070"/>
<path d="M215.83 171.743C217.02 171.992 218.123 171.073 218.102 169.858L217.977 162.579C217.976 162.552 217.958 162.528 217.932 162.521C217.909 162.515 217.886 162.523 217.87 162.54L214.886 166.023C214.372 166.623 214.115 167.402 214.172 168.19L214.302 170.002C214.363 170.858 214.991 171.567 215.83 171.743Z" fill="#5A6070"/>
<path d="M2.02729 140.696C1.99931 141.006 2.26695 141.261 2.57537 141.219C4.05051 141.018 5.52738 140.801 6.983 140.596C7.18918 140.567 7.35528 140.412 7.39853 140.209C7.47012 139.871 7.18362 139.566 6.84253 139.616L2.4367 140.263C2.21687 140.295 2.04725 140.475 2.02729 140.696Z" fill="#5A6070"/>
<path d="M111.226 339.627C111.342 340.796 112.616 341.478 113.637 340.897L118.463 338.149C119.21 337.724 119.335 336.699 118.694 336.128C118.339 335.812 117.834 335.727 117.393 335.902L112.239 337.944C111.562 338.212 111.154 338.903 111.226 339.627Z" fill="#5A6070"/>
<path d="M278.233 135.479C278.629 135.201 278.593 134.593 278.168 134.362L276.236 133.31C275.942 133.15 275.574 133.325 275.515 133.654C275.482 133.835 275.556 134.019 275.703 134.128L277.499 135.453C277.721 135.617 278.008 135.637 278.233 135.479Z" fill="#5A6070"/>
<path d="M202.376 17.7844C201.894 17.8273 201.622 18.3714 201.874 18.7845L203.021 20.6611C203.196 20.9468 203.602 20.9792 203.819 20.7238C203.937 20.5841 203.965 20.3876 203.892 20.2197L202.999 18.1742C202.889 17.9215 202.651 17.76 202.376 17.7844Z" fill="#5A6070"/>
<path d="M312.109 69.3532C311.161 69.4167 310.607 70.4391 311.061 71.2729L313.176 75.1536C313.498 75.7434 314.299 75.8477 314.763 75.362C315.028 75.084 315.11 74.6807 314.975 74.3208L313.426 70.1936C313.224 69.6554 312.682 69.3148 312.109 69.3532Z" fill="#5A6070"/>
<path d="M139.975 58.1128C140.827 58.5316 141.819 57.9232 141.842 56.974L141.951 52.5557C141.967 51.8842 141.326 51.3932 140.681 51.582C140.312 51.69 140.039 51.9982 139.976 52.3774L139.255 56.7264C139.161 57.2935 139.459 57.8593 139.975 58.1128Z" fill="#5A6070"/>
</g>
</svg>
