<?xml version="1.0" encoding="utf-8"?>
<!-- Generator: Adobe Illustrator 17.1.0, SVG Export Plug-In . SVG Version: 6.00 Build 0)  -->
<!DOCTYPE svg PUBLIC "-//W3C//DTD SVG 1.1//EN" "http://www.w3.org/Graphics/SVG/1.1/DTD/svg11.dtd">
<svg version="1.1" id="Layer_1" xmlns="http://www.w3.org/2000/svg" xmlns:xlink="http://www.w3.org/1999/xlink" x="0px" y="0px"
	 viewBox="13.5 18.8 36.6 26.5" enable-background="new 13.5 18.8 36.6 26.5" xml:space="preserve">
<g opacity="0.8">
	<path fill="#31394D" d="M15,27c0-3.9,3.1-7,7-7h20c3.9,0,7,3.1,7,7v10c0,3.9-3.1,7-7,7H22c-3.9,0-7-3.1-7-7V27z M22,22
		c-2.8,0-5,2.2-5,5v10c0,2.8,2.2,5,5,5h20c2.8,0,5-2.2,5-5V27c0-2.8-2.2-5-5-5H22z"/>
	<path fill="#31394D" d="M28.5,26.4c0.3-0.2,0.7-0.2,1,0l8.4,4.7c0.3,0.2,0.5,0.5,0.5,0.9c0,0.4-0.2,0.7-0.5,0.9l-8.4,4.7
		c-0.3,0.2-0.7,0.2-1,0c-0.3-0.2-0.5-0.5-0.5-0.9v-9.4C28,26.9,28.2,26.6,28.5,26.4z M30,29v6l5.4-3L30,29z"/>
</g>
</svg>
