<svg width="198" height="158" viewBox="0 0 198 158" fill="none" xmlns="http://www.w3.org/2000/svg">
<path opacity="0.3" d="M48.5209 12.9654L47.05 12.9045C45.1606 12.8263 43.3591 13.7055 42.2583 15.243C40.9259 17.1038 40.858 19.5876 42.0867 21.5185L42.1336 21.5921C43.0408 23.0178 44.5306 23.971 46.2053 24.1974L54.3077 25.2926L58.4763 26.3532C61.4076 27.099 63.1942 30.0633 62.4844 33.0036L62.4283 33.2362C62.0123 34.9595 62.5216 36.7751 63.773 38.0306C64.286 38.5453 64.9031 38.9443 65.5829 39.201L107.509 55.0282L150.803 73.0251C152.421 73.6977 154.168 74.0028 155.918 73.9185L158.363 73.8006C159.896 73.7267 161.338 73.0542 162.38 71.9277C164.23 69.9275 167.215 69.4675 169.581 70.8181L174.517 73.6355C175.295 74.0797 176.119 74.4392 176.973 74.7078L180.526 75.8242C182.125 76.3266 183.867 76.0331 185.213 75.0346L185.609 74.7413C187.168 73.5846 187.82 71.5652 187.232 69.715C186.708 68.0669 185.295 66.8589 183.585 66.5986L177.293 65.6403L173.365 64.8376C171.223 64.3997 170.116 62.0127 171.167 60.0947C171.542 59.4088 171.658 58.6105 171.492 57.8462L171.162 56.3225C170.655 53.9822 169.05 52.0302 166.852 51.08L129.124 34.77L83.6682 17.9085C80.7638 16.8312 77.5914 16.7085 74.6125 17.5582L71.5345 18.4362C70.5041 18.7302 69.5967 19.3504 68.9486 20.2038C67.3094 22.3624 64.2396 22.8025 62.0599 21.1914L53.129 14.5901C51.7898 13.6002 50.1848 13.0343 48.5209 12.9654Z" fill="#B49A94"/>
<path d="M173.851 89.7184C173.121 94.1083 172.904 98.6418 173.294 103.099L173.529 105.238C173.705 106.56 173.933 107.873 174.222 109.17C174.544 110.614 172.33 111.22 172.032 109.78C170.821 103.925 170.276 97.9567 170.955 92.0009C171.281 89.1384 171.807 86.3024 172.574 83.5262C172.989 82.0284 174.574 79.2572 175.122 77.8052C175.453 76.931 175.373 76.891 174.708 76.5598L174.707 76.5597C174.469 76.4411 174.036 76.8099 173.634 77.2464C173.328 77.614 173.013 78.0526 172.722 78.3851C170.935 80.4256 169.49 82.7647 168.36 85.2488C168.221 85.5544 167.967 85.6804 167.701 85.6823C167.048 86.0009 166.074 85.5715 166.036 84.6782C165.917 81.957 166.422 79.1302 166.56 76.4027C166.689 73.8217 166.718 71.2358 166.68 68.6522C166.646 66.2626 166.521 63.8573 166.116 61.4993C165.895 60.2075 165.586 60.2478 165.097 58.8403C165.115 60.8537 164.94 61.2105 164.753 63.2116C164.183 69.3057 163.469 75.3849 162.869 81.476C162.713 83.057 160.234 83.0355 160.425 81.476C161.022 76.6053 161.55 71.7272 162.125 66.8544C162.411 64.4406 162.778 62.0321 162.955 59.6068C163.04 58.446 163.261 56.7016 163.083 55.8016C162.955 55.1558 161.686 54.761 161.124 55.3536C159.953 56.5879 159.157 59.3625 158.694 60.5852C157.925 62.6161 157.162 64.6533 156.508 66.7254C155.13 71.0897 154.217 75.5994 152.862 79.9722C152.861 79.9767 152.858 79.9801 152.857 79.9845C152.289 80.2962 151.458 81.476 150.167 81.0135C148.814 80.5289 148.137 79.523 148.137 78.2204C148.137 76.9177 147.892 72.1395 147.703 69.1875C147.504 66.07 147.287 62.9533 147.123 59.8335C147.094 59.2839 146.992 56.0564 146.476 54.2049C143.506 53.7257 143.775 56.1158 143.506 57.6454C141.253 70.4808 139.722 83.6481 136.286 96.2362C136.025 97.1912 134.437 97.0255 134.536 95.9968C134.732 93.9373 134.98 91.8841 135.262 89.8354C135.059 89.7551 134.861 89.6161 134.68 89.4013C131.723 85.8882 128.817 82.105 124.776 79.8031C123.189 78.899 120.29 77.473 118.4 77.8418C117.24 78.0682 116.516 78.4291 117.6 79.4589C117.866 79.712 118.232 79.8827 118.527 80.1131C119.35 80.7566 120.046 81.4904 120.697 82.3094C123.495 85.8302 125.773 89.8544 128.034 93.7403C130.317 97.6671 132.418 101.731 133.967 106.012C134.314 106.97 132.913 107.443 132.417 106.672C129.205 101.679 126.445 96.3998 123.34 91.3351C121.863 88.9262 120.311 86.5663 118.811 84.173C118.029 82.9258 117.179 81.996 116.12 81.0135C115.524 80.4615 115.015 79.9102 114.94 79.0659C114.517 74.2786 122.475 76.1473 124.747 77.0905C129.212 78.9451 132.702 82.3574 135.84 85.9737C137.552 75.2568 140.133 64.654 142.18 54.0142C142.817 50.7014 144.738 51.1014 145.892 51.0863C147.992 51.0587 149.468 53.4965 149.624 56.8573C150.051 60.4655 150.162 64.1231 150.383 67.7484C150.603 71.3548 151.147 74.6352 150.628 78.2204C151.835 72.814 153.259 68.1901 155.259 63.0529C156.337 60.2837 157.422 57.5157 158.536 54.761C160.143 50.7867 165.19 51.597 165.74 55.8655C165.761 56.0235 165.772 56.1823 165.789 56.341C165.931 56.3655 166.07 56.4429 166.176 56.5879C166.993 57.7039 166.913 57.4509 167.489 58.7393C167.948 59.7691 168.279 60.0358 168.541 61.1313C169.08 63.3926 169.191 65.7309 169.201 68.0495C169.214 70.9342 169.079 73.824 168.945 76.7048L168.942 76.7618C168.894 77.799 168.871 78.8685 168.826 79.9417C169.777 78.3484 170.933 76.8975 172.261 75.5898C173.76 74.115 175.43 74.7489 176.368 75.6387C177.064 76.2994 177.357 76.7289 176.875 78.5089C176.675 79.2439 176.41 79.9855 176.154 80.741C175.159 83.6752 174.36 86.6578 173.851 89.7184Z" fill="#31394D"/>
<path d="M174.707 76.5597C175.373 76.891 175.453 76.9308 175.122 77.8052C174.574 79.2572 172.989 82.0284 172.574 83.5262C171.807 86.3024 171.281 89.1384 170.955 92.0009C170.276 97.9567 170.821 103.925 172.032 109.78C172.33 111.22 174.544 110.614 174.222 109.17C173.933 107.873 173.705 106.56 173.529 105.238L173.294 103.099C172.904 98.6418 173.121 94.1083 173.851 89.7184C174.36 86.6578 175.159 83.6752 176.154 80.741C176.41 79.9855 176.675 79.2439 176.875 78.5089C177.357 76.7289 177.064 76.2994 176.368 75.6387C175.43 74.7489 173.76 74.115 172.261 75.5898C170.933 76.8975 169.777 78.3484 168.826 79.9417C168.871 78.8685 168.894 77.799 168.942 76.7618C169.077 73.8622 169.214 70.9532 169.201 68.0495C169.191 65.7309 169.08 63.3926 168.541 61.1313C168.279 60.0358 167.948 59.7691 167.489 58.7393C166.913 57.4509 166.993 57.7039 166.176 56.5879C166.07 56.4429 165.931 56.3655 165.789 56.341C165.772 56.1823 165.761 56.0235 165.74 55.8655C165.19 51.597 160.143 50.7867 158.536 54.761C157.422 57.5157 156.337 60.2837 155.259 63.0529C153.259 68.1901 151.835 72.814 150.628 78.2204C151.147 74.6352 150.603 71.3548 150.383 67.7484C150.162 64.1231 150.051 60.4655 149.624 56.8573C149.468 53.4965 147.992 51.0587 145.892 51.0863C144.738 51.1014 142.817 50.7014 142.18 54.0142C140.133 64.654 137.552 75.2568 135.84 85.9737C132.702 82.3574 129.212 78.9451 124.747 77.0905C122.475 76.1473 114.517 74.2786 114.94 79.0659C115.015 79.9102 115.524 80.4615 116.12 81.0135C117.179 81.996 118.029 82.9258 118.811 84.173C120.311 86.5663 121.863 88.9262 123.34 91.3351C126.445 96.3998 129.205 101.679 132.417 106.672C132.913 107.443 134.314 106.97 133.967 106.012C132.418 101.731 130.317 97.6671 128.034 93.7403C125.773 89.8544 123.495 85.8302 120.697 82.3094C120.046 81.4905 119.35 80.7566 118.527 80.1131C118.232 79.8827 117.866 79.712 117.6 79.4589C116.516 78.4291 117.24 78.0682 118.4 77.8418C120.29 77.473 123.189 78.899 124.776 79.8031C128.817 82.105 131.723 85.8882 134.68 89.4013C134.861 89.6161 135.059 89.7551 135.262 89.8354C134.98 91.8841 134.732 93.9373 134.536 95.9968C134.437 97.0255 136.025 97.1912 136.286 96.2362C139.722 83.6481 141.253 70.4808 143.506 57.6454C143.775 56.1158 143.506 53.7257 146.476 54.2049C146.992 56.0564 147.094 59.2839 147.123 59.8335C147.287 62.9533 147.504 66.07 147.703 69.1875C147.892 72.1395 148.137 76.9177 148.137 78.2204C148.137 79.523 148.814 80.5289 150.167 81.0135C151.458 81.476 152.289 80.2962 152.857 79.9845C152.858 79.9801 152.861 79.9767 152.862 79.9722C154.217 75.5994 155.13 71.0897 156.508 66.7254C157.162 64.6533 157.925 62.6161 158.694 60.5852C159.157 59.3625 159.953 56.5879 161.124 55.3536C161.686 54.761 162.955 55.1558 163.083 55.8016C163.261 56.7016 163.04 58.446 162.955 59.6068C162.778 62.0321 162.411 64.4406 162.125 66.8544C161.55 71.7272 161.022 76.6053 160.425 81.476C160.234 83.0355 162.713 83.057 162.869 81.476C163.469 75.3849 164.183 69.3057 164.753 63.2116C164.94 61.2105 165.115 60.8537 165.097 58.8403C165.586 60.2478 165.895 60.2075 166.116 61.4993C166.521 63.8573 166.646 66.2626 166.68 68.6522C166.718 71.2358 166.689 73.8217 166.56 76.4027C166.422 79.1302 165.917 81.957 166.036 84.6782C166.074 85.5715 167.048 86.0009 167.701 85.6823C167.967 85.6804 168.221 85.5544 168.36 85.2488C169.49 82.7647 170.935 80.4256 172.722 78.3851M174.707 76.5597C174.185 76.2995 173.39 77.6217 172.722 78.3851M174.707 76.5597C174.185 76.2995 172.722 78.3851 172.722 78.3851" stroke="#31394D"/>
<path d="M131.874 103.996C127.415 104.612 124.618 104.693 123.547 109.224C122.475 113.754 121.612 126.734 113.916 136.186" stroke="#31394D" stroke-width="2" stroke-linecap="round"/>
<path d="M131.512 106.142C127.084 106.716 125.639 106.917 124.61 111.391C123.581 115.865 121.492 128.557 113.917 137.847" stroke="#31394D" stroke-width="4" stroke-linecap="round"/>
<path d="M132.363 106.451C133.902 110.145 141.371 118.076 158.959 118.076C172.441 118.076 176.381 111.234 174.103 107.541" stroke="#31394D" stroke-width="2" stroke-linecap="round"/>
<path d="M130.701 106.451C132.301 110.145 140.062 118.076 158.339 118.076C172.351 118.076 176.445 111.235 174.078 107.541" stroke="#31394D" stroke-width="3" stroke-linecap="round"/>
<path d="M174.758 108.179C175.898 109.212 178.383 111.883 179.199 114.301C180.22 117.323 177.36 120.601 178.701 129.231C180.043 137.861 178.828 150.236 173.795 155.691" stroke="#31394D" stroke-width="2" stroke-linecap="round"/>
<path d="M173.928 108.179C175.068 109.212 177.553 111.883 178.369 114.301C179.389 117.323 175.443 123.977 176.784 132.607C178.126 141.237 177.998 150.236 172.965 155.691" stroke="#31394D" stroke-width="4" stroke-linecap="round"/>
<path fill-rule="evenodd" clip-rule="evenodd" d="M74.2553 5.68971C70.012 7.58756 66.7749 11.1409 64.7811 15.0926C61.5466 13.0704 58.9815 10.423 56.4039 7.55821C54.3447 5.26651 51.9783 2.86687 49.1053 1.61308C44.4472 -0.421222 40.6443 2.90008 39.0999 7.2676C37.2815 12.4239 40.0216 16.7416 44.9205 18.7095C47.37 19.6893 49.8941 19.9218 52.5014 20.0546C52.8109 20.0701 53.1216 20.084 53.4331 20.098L53.4335 20.098L53.434 20.0981C55.2943 20.1815 57.1799 20.2661 58.9862 20.6857C59.9295 20.9047 60.7933 21.2778 61.6568 21.6507L61.6569 21.6508C62.009 21.8028 62.361 21.9549 62.7183 22.0964C62.6947 22.1722 62.6711 22.2463 62.6473 22.3183C61.3299 26.31 62.6148 23.8335 63.029 23.0032C63.0879 23.9815 63.3689 23.2263 63.615 22.5651L63.6638 22.4344C63.7508 22.4615 63.8385 22.4876 63.9267 22.5124C64.3834 22.6452 64.7985 22.1138 64.5494 21.6987L64.5291 21.6653C64.6031 21.5823 64.6832 21.477 64.7698 21.3425C66.7831 15.656 70.1595 10.4834 74.6372 6.19621C74.9195 5.9305 74.5625 5.55686 74.2553 5.68971ZM55.1561 18.336C57.7061 18.4834 61.0712 18.6779 63.2139 20.2541C63.2598 20.0683 63.3059 19.8797 63.3525 19.6893L63.3527 19.6882L63.3533 19.6859C63.6614 18.4259 63.988 17.0905 64.3857 16.0149C60.5241 14.5401 57.5017 11.3554 54.6798 8.38177C54.417 8.1049 54.156 7.82986 53.8962 7.55821C51.9615 5.53221 49.1799 3.35813 46.0081 3.49098C42.6204 3.63213 40.5779 7.0102 40.3039 9.94955C39.6046 17.4245 48.8642 17.9671 54.2098 18.2804L54.2119 18.2805C54.3879 18.2908 54.5596 18.3009 54.7267 18.3109C54.8669 18.3193 55.0101 18.3276 55.1561 18.336ZM75.1617 5.85649C80.5987 6.74986 85.8356 9.09319 90.8932 11.3563C91.8525 11.7855 92.8054 12.2119 93.7519 12.6249C94.4699 12.938 95.191 13.2532 95.9149 13.5696L95.9273 13.575L95.9328 13.5775L95.933 13.5775C101.364 15.9514 106.945 18.3903 112.434 20.513C116.913 22.2434 120.99 24.2247 125.134 26.2381L125.134 26.2381L125.134 26.2382L125.134 26.2382L125.134 26.2383L125.134 26.2383C127.512 27.3938 129.911 28.5598 132.421 29.6952C136.835 31.6973 141.173 33.9673 145.515 36.2391C153.061 40.1877 160.617 44.1415 168.6 46.7029C167.217 47.5653 166.065 49.0466 165.16 50.4044C164.535 51.5515 163.954 52.8535 163.413 54.2412L163.914 54.1409L164.33 56.2167L164.609 56.5893C166.137 52.8055 168.221 48.768 170.913 47.4013C171.058 47.4421 171.202 47.4824 171.347 47.5223C171.726 47.6753 172.025 47.5322 172.193 47.2757C172.188 47.6129 172.186 47.9413 172.185 48.2638V48.2652C172.179 49.9726 172.174 51.516 171.603 53.3346C171.16 54.743 170.61 56.1155 170.06 57.4881L170.06 57.4884L170.06 57.4887L170.06 57.4891C169.837 58.0435 169.615 58.598 169.4 59.1548C168.321 58.9198 167.229 58.797 166.1 58.9263L166.439 59.6049C170.299 60.9921 174.468 62.4758 178.571 62.4679C179.242 62.4679 179.913 62.4293 180.583 62.3907C181.672 62.328 182.759 62.2655 183.843 62.3682C187.557 62.7173 190.523 66.935 188.232 69.2564C187.311 70.1891 186.445 71.3024 185.807 72.4469C184.731 74.3755 182.155 75.1268 179.467 73.3119C178.493 72.6541 177.59 71.8932 176.686 71.1318L176.686 71.1315L176.685 71.1313C176.049 70.5956 175.413 70.0595 174.751 69.5589C172.763 68.0581 170.502 66.3628 168.066 65.359V67.7027C169.861 68.5879 171.636 69.5024 173.306 70.7296C174.062 71.2841 174.81 71.9231 175.568 72.5712C177.126 73.903 178.729 75.2731 180.539 76.0271C185.18 77.9535 189.406 73.9347 190.519 69.6004C191.607 65.3325 189.357 61.5545 184.973 60.8653C183.365 60.609 181.752 60.6976 180.138 60.7862C178.458 60.8785 176.777 60.9708 175.1 60.6744C174.028 60.4845 172.983 60.1678 171.943 59.8525L171.942 59.8525L171.942 59.8524C171.581 59.743 171.22 59.6337 170.859 59.53C171.079 58.962 171.308 58.396 171.537 57.8295L171.538 57.8281C172.294 55.9561 173.052 54.0793 173.513 52.114C173.903 50.445 174.484 47.8046 172.998 46.5342C172.924 46.4723 172.84 46.4349 172.755 46.4196C172.722 46.3431 172.651 46.2842 172.533 46.2677C172.385 46.2101 172.24 46.1613 172.096 46.1207C172.015 46.0384 171.912 45.9693 171.787 45.9197C163.556 42.6569 155.711 38.7975 147.845 34.9282C142.46 32.2791 137.066 29.6254 131.532 27.1553C129.928 26.4398 128.345 25.7196 126.769 25.0027L126.769 25.0026L126.769 25.0026L126.768 25.0025L126.768 25.0025L126.768 25.0024L126.768 25.0024C122.034 22.8495 117.368 20.727 112.434 18.8521C105.111 16.0705 97.9782 12.9736 90.8457 9.71875L90.6889 9.64732C86.238 7.62003 80.2833 4.90781 75.2281 5.43302C74.9957 5.45793 74.896 5.81497 75.1617 5.85649ZM152.909 74.0896C152.774 74.0481 152.64 74.0067 152.505 73.9653L152.505 73.9653C151.497 73.6558 150.489 73.3461 149.5 73.0204L149.077 69.7799C150.621 70.4715 152.167 71.1593 153.715 71.8424L152.909 74.0896ZM140.932 66.0931L140.312 69.1942C135.002 66.7852 129.77 64.3114 124.543 61.8399L124.543 61.8398L124.543 61.8397L124.543 61.8397L124.543 61.8397L124.543 61.8396C116.034 57.8164 107.539 53.7995 98.7427 50.0791C96.5861 49.168 94.6132 48.3188 92.7549 47.519L92.7537 47.5185L92.7537 47.5185C84.1811 43.8287 78.0496 41.1897 67.5956 38.3647C67.0558 38.2235 69.1494 37.4511 69.6725 37.5341C72.0528 37.9213 73.229 37.9221 74.1468 37.9226C75.5117 37.9235 76.3049 37.924 79.6363 39.195C96.5473 45.646 112.941 53.2046 129.344 60.7677L129.344 60.7679L129.346 60.7686C133.205 62.548 137.065 64.3276 140.932 66.0931Z" fill="#31394D"/>
<path d="M64.7811 15.0926L64.5161 15.5165L64.9807 15.807L65.2275 15.3178L64.7811 15.0926ZM74.2553 5.68971L74.0568 5.23074L74.0511 5.23328L74.2553 5.68971ZM56.4039 7.55821L56.032 7.8924L56.0322 7.89264L56.4039 7.55821ZM49.1053 1.61308L48.9052 2.07129L48.9053 2.07134L49.1053 1.61308ZM39.0999 7.2676L38.6285 7.10091L38.6284 7.10131L39.0999 7.2676ZM44.9205 18.7095L44.7341 19.1735L44.7348 19.1737L44.9205 18.7095ZM52.5014 20.0546L52.4759 20.554L52.4764 20.554L52.5014 20.0546ZM53.4331 20.098L53.4107 20.5975L53.413 20.5976L53.4331 20.098ZM53.4335 20.098L53.459 19.5986L53.4536 19.5984L53.4335 20.098ZM53.434 20.0981L53.4085 20.5974L53.4116 20.5976L53.434 20.0981ZM58.9862 20.6857L58.8731 21.1727L58.8731 21.1727L58.9862 20.6857ZM61.6568 21.6507L61.8561 21.1922L61.855 21.1917L61.6568 21.6507ZM61.6569 21.6508L61.4575 22.1093L61.4586 22.1098L61.6569 21.6508ZM62.7183 22.0964L63.1958 22.2447L63.3332 21.8022L62.9024 21.6316L62.7183 22.0964ZM62.6473 22.3183L63.1221 22.475L63.1221 22.475L62.6473 22.3183ZM63.029 23.0032L63.5281 22.9731L63.4159 21.1073L62.5816 22.78L63.029 23.0032ZM63.615 22.5651L63.1466 22.3903L63.1464 22.3907L63.615 22.5651ZM63.6638 22.4344L63.8126 21.957L63.3608 21.8162L63.1953 22.2596L63.6638 22.4344ZM63.9267 22.5124L64.0663 22.0323L64.0622 22.0311L63.9267 22.5124ZM64.5494 21.6987L64.9782 21.4414L64.9765 21.4386L64.5494 21.6987ZM64.5291 21.6653L64.1558 21.3328L63.9095 21.6092L64.1021 21.9254L64.5291 21.6653ZM64.7698 21.3425L65.1901 21.6133L65.2217 21.5643L65.2411 21.5094L64.7698 21.3425ZM74.6372 6.19621L74.2945 5.83209L74.2914 5.83505L74.6372 6.19621ZM63.2139 20.2541L62.9176 20.6569L63.5199 21.0999L63.6993 20.374L63.2139 20.2541ZM55.1561 18.336L55.1849 17.8369L55.1561 18.336ZM63.3525 19.6893L62.867 19.5698L62.8668 19.5705L63.3525 19.6893ZM63.3527 19.6882L63.8383 19.8076L63.8383 19.8074L63.3527 19.6882ZM63.3533 19.6859L63.8389 19.8051L63.839 19.8046L63.3533 19.6859ZM64.3857 16.0149L64.8547 16.1883L65.0262 15.7243L64.5641 15.5478L64.3857 16.0149ZM54.6798 8.38177L54.3171 8.72595V8.72595L54.6798 8.38177ZM53.8962 7.55821L53.5346 7.90352L53.5348 7.90378L53.8962 7.55821ZM46.0081 3.49098L46.0289 3.99055L46.029 3.99054L46.0081 3.49098ZM40.3039 9.94955L40.8017 9.99613L40.8017 9.99596L40.3039 9.94955ZM54.2098 18.2804L54.2397 17.7813L54.2391 17.7812L54.2098 18.2804ZM54.2119 18.2805L54.182 18.7796L54.1826 18.7796L54.2119 18.2805ZM54.7267 18.3109L54.6966 18.81L54.6968 18.81L54.7267 18.3109ZM90.8932 11.3563L91.0975 10.8999L90.8932 11.3563ZM75.1617 5.85649L75.2428 5.36309L75.2389 5.36248L75.1617 5.85649ZM93.7519 12.6249L93.5519 13.0832L93.552 13.0832L93.7519 12.6249ZM95.9149 13.5696L96.1152 13.1115L96.1151 13.1114L95.9149 13.5696ZM95.9273 13.575L96.1276 13.1169L96.1276 13.1169L95.9273 13.575ZM95.9328 13.5775L95.7325 14.0356L95.7355 14.0369L95.9328 13.5775ZM95.933 13.5775L96.1332 13.1194L96.1303 13.1181L95.933 13.5775ZM112.434 20.513L112.254 20.9793L112.254 20.9794L112.434 20.513ZM125.134 26.2381L125.357 25.7909L125.352 25.7884L125.134 26.2381ZM125.134 26.2383L124.91 26.6856L124.915 26.688L125.134 26.2383ZM132.421 29.6952L132.628 29.2398L132.627 29.2396L132.421 29.6952ZM145.515 36.2391L145.283 36.6821L145.515 36.2391ZM168.6 46.7029L168.865 47.1271L169.78 46.5563L168.753 46.2268L168.6 46.7029ZM165.16 50.4044L164.744 50.1271L164.732 50.1457L164.721 50.1653L165.16 50.4044ZM163.413 54.2412L162.947 54.0596L162.615 54.9107L163.511 54.7315L163.413 54.2412ZM163.914 54.1409L164.405 54.0428L164.307 53.5525L163.816 53.6506L163.914 54.1409ZM164.33 56.2167L163.839 56.3148L163.862 56.426L163.93 56.5167L164.33 56.2167ZM164.609 56.5893L164.209 56.8893L164.741 57.5984L165.073 56.7765L164.609 56.5893ZM170.913 47.4013L171.049 46.9202L170.861 46.867L170.687 46.9555L170.913 47.4013ZM171.347 47.5223L171.534 47.0586L171.507 47.0478L171.479 47.0402L171.347 47.5223ZM172.193 47.2757L172.693 47.2831L172.718 45.5609L171.774 47.0017L172.193 47.2757ZM172.185 48.2638L171.685 48.2621V48.2638H172.185ZM172.185 48.2652L172.685 48.2669V48.2652H172.185ZM171.603 53.3346L172.08 53.4845L172.08 53.4844L171.603 53.3346ZM170.06 57.4881L170.52 57.6851L170.524 57.6741L170.06 57.4881ZM170.06 57.4891L169.6 57.2921L169.595 57.3031L170.06 57.4891ZM169.4 59.1548L169.294 59.6434L169.712 59.7345L169.866 59.335L169.4 59.1548ZM166.1 58.9263L166.043 58.4295L165.333 58.5108L165.652 59.1499L166.1 58.9263ZM166.439 59.6049L165.992 59.8285L166.081 60.0076L166.27 60.0754L166.439 59.6049ZM178.571 62.4679V61.9679H178.57L178.571 62.4679ZM180.583 62.3907L180.612 62.8898L180.583 62.3907ZM183.843 62.3682L183.796 62.866L183.796 62.866L183.843 62.3682ZM188.232 69.2564L187.876 68.9052L188.232 69.2564ZM185.807 72.4469L185.37 72.2034L185.807 72.4469ZM179.467 73.3119L179.747 72.8976L179.747 72.8975L179.467 73.3119ZM176.686 71.1318L177.008 70.7494L177.006 70.7477L176.686 71.1318ZM176.686 71.1315L176.332 71.485L176.348 71.5011L176.365 71.5156L176.686 71.1315ZM176.685 71.1313L177.039 70.7778L177.024 70.7627L177.008 70.749L176.685 71.1313ZM174.751 69.5589L175.053 69.1601L175.052 69.1598L174.751 69.5589ZM168.066 65.359L168.257 64.8967L167.566 64.6121V65.359H168.066ZM168.066 67.7027H167.566V68.0136L167.845 68.1511L168.066 67.7027ZM173.306 70.7296L173.01 71.1325L173.011 71.1327L173.306 70.7296ZM175.568 72.5712L175.243 72.9513H175.243L175.568 72.5712ZM180.539 76.0271L180.346 76.4886L180.347 76.4889L180.539 76.0271ZM190.519 69.6004L191.003 69.7247L191.004 69.7239L190.519 69.6004ZM184.973 60.8653L184.894 61.3591L184.895 61.3593L184.973 60.8653ZM180.138 60.7862L180.166 61.2855L180.138 60.7862ZM175.1 60.6744L175.013 61.1667L175.013 61.1667L175.1 60.6744ZM171.943 59.8525L171.784 60.3271L171.798 60.3311L171.943 59.8525ZM171.942 59.8525L172.1 59.3781L172.093 59.3758L172.086 59.3736L171.942 59.8525ZM171.942 59.8524L171.797 60.331L171.799 60.3314L171.942 59.8524ZM170.859 59.53L170.393 59.3492L170.195 59.8594L170.721 60.0105L170.859 59.53ZM171.537 57.8295L171.075 57.6388L171.073 57.6422L171.537 57.8295ZM171.538 57.8281L172 58.0188L172.001 58.0154L171.538 57.8281ZM173.513 52.114L173.999 52.228L173.999 52.2278L173.513 52.114ZM172.998 46.5342L173.323 46.1541L173.319 46.1509L172.998 46.5342ZM172.755 46.4196L172.296 46.6177L172.402 46.8645L172.667 46.9118L172.755 46.4196ZM172.533 46.2677L172.351 46.7333L172.405 46.7547L172.463 46.7629L172.533 46.2677ZM172.096 46.1207L171.74 46.472L171.833 46.5661L171.96 46.6019L172.096 46.1207ZM171.787 45.9197L171.603 46.3845L171.603 46.3848L171.787 45.9197ZM147.845 34.9282L148.066 34.4796L147.845 34.9282ZM131.532 27.1553L131.736 26.6987L131.736 26.6987L131.532 27.1553ZM126.769 25.0027L126.976 24.5476L126.974 24.5467L126.769 25.0027ZM126.768 25.0024L126.973 24.5465L126.969 24.5444L126.768 25.0024ZM126.768 25.0024L126.561 25.4576L126.568 25.4605L126.768 25.0024ZM112.434 18.8521L112.612 18.3847L112.612 18.3846L112.434 18.8521ZM90.8457 9.71875L91.0533 9.26388L91.053 9.26372L90.8457 9.71875ZM90.6889 9.64732L90.4816 10.1023L90.4816 10.1023L90.6889 9.64732ZM75.2281 5.43302L75.1765 4.93569L75.1749 4.93587L75.2281 5.43302ZM152.909 74.0896L152.762 74.5675L153.219 74.7079L153.38 74.2583L152.909 74.0896ZM152.505 73.9653L152.347 74.4398L152.358 74.4433L152.505 73.9653ZM152.505 73.9653L152.663 73.4908L152.652 73.4873L152.505 73.9653ZM149.5 73.0204L149.004 73.0851L149.045 73.397L149.343 73.4954L149.5 73.0204ZM149.077 69.7799L149.281 69.3236L148.466 68.9581L148.581 69.8446L149.077 69.7799ZM153.715 71.8424L154.185 72.0111L154.342 71.5729L153.917 71.3849L153.715 71.8424ZM140.932 66.0931L141.422 66.1912L141.5 65.8028L141.14 65.6383L140.932 66.0931ZM140.312 69.1942L140.105 69.6495L140.679 69.9096L140.802 69.2922L140.312 69.1942ZM124.543 61.8399L124.757 61.3879L124.756 61.3872L124.543 61.8399ZM124.543 61.8398L124.319 62.2871L124.331 62.2925L124.543 61.8398ZM124.543 61.8397L124.767 61.3925L124.757 61.388L124.748 61.3838L124.543 61.8397ZM124.543 61.8397L124.335 62.2942L124.338 62.2957L124.543 61.8397ZM124.543 61.8397L124.751 61.3851L124.735 61.3777L124.718 61.3715L124.543 61.8397ZM124.543 61.8396L124.329 62.2916L124.348 62.3005L124.367 62.3078L124.543 61.8396ZM98.7427 50.0791L98.9375 49.6186L98.9373 49.6185L98.7427 50.0791ZM92.7549 47.519L92.9526 47.0597L92.9513 47.0592L92.7549 47.519ZM92.7537 47.5185L92.5568 47.9781L92.5573 47.9783L92.7537 47.5185ZM92.7537 47.5185L92.556 47.9777L92.5567 47.978L92.7537 47.5185ZM67.5956 38.3647L67.726 37.882L67.7221 37.8809L67.5956 38.3647ZM69.6725 37.5341L69.7528 37.0406L69.7509 37.0403L69.6725 37.5341ZM74.1468 37.9226L74.1465 38.4226L74.1468 37.9226ZM79.6363 39.195L79.4581 39.6622L79.4581 39.6622L79.6363 39.195ZM129.344 60.7677L129.554 60.3142L129.553 60.3136L129.344 60.7677ZM129.344 60.7679L129.134 61.2214L129.134 61.2217L129.344 60.7679ZM129.346 60.7686L129.136 61.2224L129.136 61.2226L129.346 60.7686ZM65.2275 15.3178C67.1805 11.447 70.3414 7.98799 74.4594 6.14613L74.0511 5.23328C69.6827 7.18712 66.3693 10.8348 64.3347 14.8674L65.2275 15.3178ZM56.0322 7.89264C58.6139 10.7619 61.2182 13.4548 64.5161 15.5165L65.0462 14.6686C61.875 12.6861 59.3491 10.084 56.7756 7.22378L56.0322 7.89264ZM48.9053 2.07134C51.6693 3.27757 53.973 5.60087 56.032 7.8924L56.7758 7.22403C54.7165 4.93214 52.2872 2.45617 49.3053 1.15482L48.9053 2.07134ZM39.5713 7.43429C40.317 5.3255 41.5964 3.50611 43.2075 2.45887C44.7975 1.4253 46.7356 1.12376 48.9052 2.07129L49.3054 1.15487C46.817 0.0680979 44.5245 0.410055 42.6625 1.62044C40.8214 2.81716 39.4272 4.84218 38.6285 7.10091L39.5713 7.43429ZM45.1069 18.2455C42.7417 17.2955 40.934 15.7929 39.9306 13.9456C38.9323 12.1078 38.7062 9.88727 39.5714 7.43389L38.6284 7.10131C37.6752 9.80426 37.9099 12.3207 39.0518 14.4229C40.1885 16.5155 42.2004 18.1557 44.7341 19.1735L45.1069 18.2455ZM52.5268 19.5553C49.926 19.4227 47.4734 19.1921 45.1062 18.2453L44.7348 19.1737C47.2666 20.1864 49.8623 20.4208 52.4759 20.554L52.5268 19.5553ZM53.4555 19.5985C53.1438 19.5845 52.8344 19.5707 52.5263 19.5552L52.4764 20.554C52.7874 20.5696 53.0995 20.5835 53.4107 20.5975L53.4555 19.5985ZM53.4536 19.5984L53.4532 19.5984L53.413 20.5976L53.4134 20.5976L53.4536 19.5984ZM53.4594 19.5987L53.459 19.5987L53.4081 20.5974L53.4085 20.5974L53.4594 19.5987ZM59.0993 20.1986C57.2406 19.7669 55.3085 19.6816 53.4564 19.5986L53.4116 20.5976C55.2802 20.6814 57.1192 20.7653 58.8731 21.1727L59.0993 20.1986ZM61.855 21.1917C60.9977 20.8214 60.0934 20.4295 59.0993 20.1986L58.8731 21.1727C59.7655 21.38 60.5889 21.7342 61.4585 22.1097L61.855 21.1917ZM61.8563 21.1923L61.8561 21.1922L61.4574 22.1093L61.4575 22.1093L61.8563 21.1923ZM62.9024 21.6316C62.5534 21.4933 62.2084 21.3443 61.8551 21.1918L61.4586 22.1098C61.8096 22.2614 62.1685 22.4164 62.5341 22.5613L62.9024 21.6316ZM63.1221 22.475C63.1469 22.3999 63.1714 22.323 63.1958 22.2447L62.2407 21.9481C62.218 22.0214 62.1952 22.0926 62.1725 22.1616L63.1221 22.475ZM62.5816 22.78C62.4793 22.9851 62.3248 23.2885 62.1716 23.5662C62.0949 23.7053 62.0207 23.8338 61.9552 23.9384C61.8847 24.0509 61.8401 24.1097 61.8227 24.1285C61.8203 24.1311 61.8258 24.1248 61.8388 24.1143C61.8489 24.1061 61.8837 24.0789 61.9402 24.0568C61.9974 24.0346 62.116 24.0033 62.2571 24.0509C62.4054 24.1009 62.4868 24.2066 62.5239 24.278C62.5574 24.3428 62.5647 24.396 62.5665 24.411C62.5689 24.4304 62.568 24.4397 62.5683 24.4335C62.5688 24.4206 62.5721 24.3849 62.5846 24.3168C62.636 24.0384 62.7922 23.4746 63.1221 22.475L62.1725 22.1616C61.8437 23.1579 61.6665 23.7814 61.6012 24.1354C61.5846 24.2254 61.5723 24.3131 61.5691 24.3929C61.5669 24.4466 61.5617 24.5947 61.636 24.7382C61.6822 24.8272 61.7752 24.9438 61.9376 24.9985C62.0927 25.0508 62.2276 25.0181 62.3032 24.9887C62.4345 24.9375 62.5223 24.8446 62.5549 24.8095C62.7092 24.6436 62.8969 24.3216 63.0472 24.0493C63.2102 23.7539 63.3717 23.4364 63.4764 23.2263L62.5816 22.78ZM63.1464 22.3907C63.084 22.5583 63.0238 22.7199 62.9664 22.8578C62.9038 23.0078 62.8631 23.0834 62.8473 23.1051C62.8458 23.1072 62.854 23.0952 62.8728 23.0778C62.8892 23.0626 62.936 23.0223 63.0135 22.9958C63.1028 22.9652 63.2201 22.9584 63.337 23.0081C63.4424 23.0529 63.4998 23.1235 63.524 23.1589C63.5647 23.2187 63.5629 23.2547 63.552 23.1979C63.5439 23.1558 63.5348 23.0843 63.5281 22.9731L62.5299 23.0332C62.5379 23.1666 62.5505 23.2856 62.57 23.3869C62.5867 23.4734 62.6184 23.6058 62.6976 23.722C62.741 23.7856 62.8189 23.8745 62.9459 23.9284C63.0844 23.9873 63.2243 23.9806 63.3373 23.9419C63.5184 23.8799 63.6218 23.7404 63.6563 23.6929C63.7489 23.5654 63.8282 23.3893 63.8894 23.2424C63.9557 23.0833 64.0229 22.9025 64.0836 22.7395L63.1464 22.3907ZM63.1953 22.2596L63.1466 22.3903L64.0835 22.7399L64.1322 22.6092L63.1953 22.2596ZM64.0622 22.0311C63.9786 22.0076 63.8955 21.9828 63.8126 21.957L63.515 22.9117C63.6062 22.9401 63.6983 22.9675 63.7912 22.9937L64.0622 22.0311ZM64.1207 21.9559C64.1236 21.9608 64.124 21.9631 64.1241 21.9632C64.1241 21.9637 64.1244 21.965 64.1241 21.968C64.1234 21.975 64.1193 21.9895 64.1069 22.0056C64.0944 22.0218 64.0812 22.0296 64.0744 22.0321C64.073 22.0327 64.072 22.0329 64.0715 22.0331C64.0709 22.0332 64.0707 22.0332 64.0707 22.0332C64.0707 22.0332 64.0707 22.0332 64.0706 22.0332C64.0705 22.0332 64.0704 22.0332 64.0701 22.0331C64.0697 22.0331 64.0685 22.0329 64.0663 22.0323L63.787 22.9925C64.248 23.1266 64.6672 22.9163 64.8986 22.6165C65.131 22.3152 65.2267 21.8557 64.9782 21.4414L64.1207 21.9559ZM64.1021 21.9254L64.1224 21.9587L64.9765 21.4386L64.9562 21.4053L64.1021 21.9254ZM64.3495 21.0717C64.2742 21.1886 64.2095 21.2724 64.1558 21.3328L64.9025 21.9979C64.9967 21.8921 65.0921 21.7654 65.1901 21.6133L64.3495 21.0717ZM74.2914 5.83505C69.7592 10.1744 66.3387 15.4129 64.2985 21.1756L65.2411 21.5094C67.2274 15.8991 70.5597 10.7924 74.983 6.55736L74.2914 5.83505ZM74.4537 6.14864C74.3717 6.18411 74.3097 6.14523 74.2844 6.11501C74.2664 6.09354 74.2385 6.04656 74.2399 5.97614C74.2415 5.89672 74.2791 5.84661 74.2945 5.83211L74.9799 6.56031C75.1364 6.41295 75.2353 6.2165 75.2397 5.99644C75.244 5.78538 75.1606 5.60347 75.0502 5.47199C74.8401 5.22173 74.4461 5.06245 74.0568 5.23078L74.4537 6.14864ZM63.5102 19.8513C62.3512 18.9988 60.8892 18.5377 59.4287 18.2676C57.9651 17.9969 56.4553 17.9103 55.1849 17.8369L55.1272 18.8352C56.4069 18.9092 57.8547 18.9935 59.2468 19.2509C60.6419 19.5089 61.9339 19.9332 62.9176 20.6569L63.5102 19.8513ZM62.8668 19.5705C62.8202 19.761 62.7742 19.9491 62.7285 20.1342L63.6993 20.374C63.7454 20.1876 63.7916 19.9983 63.8382 19.808L62.8668 19.5705ZM62.8672 19.5687L62.867 19.5698L63.838 19.8087L63.8383 19.8076L62.8672 19.5687ZM62.8677 19.5666L62.8672 19.5689L63.8383 19.8074L63.8389 19.8051L62.8677 19.5666ZM63.9167 15.8415C63.5071 16.9494 63.1738 18.3152 62.8676 19.5671L63.839 19.8046C64.149 18.5367 64.4689 17.2316 64.8547 16.1883L63.9167 15.8415ZM54.3171 8.72595C57.1219 11.6815 60.2207 14.9595 64.2073 16.482L64.5641 15.5478C60.8274 14.1208 57.8815 11.0292 55.0424 8.03758L54.3171 8.72595ZM53.5348 7.90378C53.7939 8.17463 54.0542 8.44896 54.3171 8.72595L55.0424 8.03758C54.7798 7.76084 54.5181 7.4851 54.2576 7.21264L53.5348 7.90378ZM46.029 3.99054C48.9679 3.86745 51.6139 5.89216 53.5346 7.90352L54.2578 7.2129C52.3092 5.17227 49.392 2.84881 45.9872 2.99142L46.029 3.99054ZM40.8017 9.99596C40.9305 8.61426 41.4772 7.12813 42.3811 5.9803C43.2804 4.83839 44.512 4.05375 46.0289 3.99055L45.9873 2.99141C44.1165 3.06936 42.6329 4.04433 41.5955 5.36159C40.5628 6.67291 39.9512 8.34549 39.806 9.90315L40.8017 9.99596ZM54.2391 17.7812C51.5484 17.6236 47.9789 17.41 45.1689 16.3337C43.7708 15.7982 42.6034 15.064 41.8259 14.0554C41.0579 13.0591 40.6374 11.7526 40.8017 9.99613L39.806 9.90298C39.6207 11.8839 40.0954 13.4484 41.0339 14.6659C41.963 15.8712 43.3135 16.6938 44.8112 17.2675C47.7925 18.4095 51.5256 18.6239 54.1806 18.7795L54.2391 17.7812ZM54.2417 17.7814L54.2397 17.7813L54.18 18.7795L54.182 18.7796L54.2417 17.7814ZM54.7567 17.8118C54.5892 17.8018 54.417 17.7917 54.2411 17.7814L54.1826 18.7796C54.3587 18.79 54.5301 18.8 54.6966 18.81L54.7567 17.8118ZM55.1849 17.8369C55.0389 17.8284 54.8961 17.8202 54.7565 17.8118L54.6968 18.81C54.8376 18.8185 54.9814 18.8268 55.1272 18.8352L55.1849 17.8369ZM91.0975 10.8999C86.0515 8.64199 80.7549 6.26882 75.2428 5.3631L75.0806 6.34987C80.4425 7.2309 85.6198 9.54439 90.689 11.8127L91.0975 10.8999ZM93.9519 12.1666C93.0078 11.7547 92.0571 11.3293 91.0975 10.8999L90.689 11.8127C91.6479 12.2417 92.6029 12.6691 93.5519 13.0832L93.9519 12.1666ZM96.1151 13.1114C95.3913 12.7951 94.6699 12.4798 93.9518 12.1666L93.552 13.0832C94.2698 13.3963 94.9908 13.7114 95.7146 14.0278L96.1151 13.1114ZM96.1276 13.1169L96.1152 13.1115L95.7146 14.0277L95.727 14.0332L96.1276 13.1169ZM96.1332 13.1193L96.1276 13.1169L95.727 14.0332L95.7325 14.0356L96.1332 13.1193ZM96.1303 13.1181L96.1302 13.118L95.7355 14.0369L95.7357 14.0369L96.1303 13.1181ZM112.615 20.0466C107.137 17.9285 101.567 15.4941 96.1332 13.1194L95.7327 14.0357C101.162 16.4088 106.752 18.8521 112.254 20.9793L112.615 20.0466ZM125.352 25.7884C121.211 23.7761 117.116 21.7857 112.614 20.0466L112.254 20.9794C116.71 22.7011 120.769 24.6732 124.915 26.6878L125.352 25.7884ZM125.357 25.7909L125.357 25.7909L124.91 26.6853L124.91 26.6854L125.357 25.7909ZM125.357 25.791L125.357 25.7909L124.91 26.6854L124.91 26.6854L125.357 25.791ZM125.357 25.791L125.357 25.791L124.91 26.6854L124.91 26.6855L125.357 25.791ZM125.357 25.7911L125.357 25.791L124.91 26.6855L124.91 26.6855L125.357 25.7911ZM125.358 25.7911L125.357 25.7911L124.91 26.6855L124.91 26.6855L125.358 25.7911ZM132.627 29.2396C130.125 28.1076 127.731 26.9445 125.353 25.7886L124.915 26.688C127.292 27.8431 129.698 29.0121 132.215 30.1507L132.627 29.2396ZM145.747 35.7961C141.407 33.5255 137.057 31.2487 132.628 29.2398L132.214 30.1505C136.614 32.1459 140.939 34.4092 145.283 36.6821L145.747 35.7961ZM168.753 46.2268C160.818 43.6808 153.3 39.7483 145.747 35.7961L145.283 36.6821C152.822 40.6271 160.416 44.6022 168.447 47.179L168.753 46.2268ZM165.576 50.6818C166.475 49.3328 167.578 47.9295 168.865 47.1271L168.336 46.2787C166.857 47.2012 165.655 48.7604 164.744 50.1271L165.576 50.6818ZM163.879 54.4229C164.415 53.0483 164.988 51.7668 165.599 50.6435L164.721 50.1653C164.083 51.3362 163.493 52.6586 162.947 54.0596L163.879 54.4229ZM163.816 53.6506L163.315 53.751L163.511 54.7315L164.013 54.6312L163.816 53.6506ZM164.82 56.1186L164.405 54.0428L163.424 54.2389L163.839 56.3148L164.82 56.1186ZM165.009 56.2893L164.73 55.9167L163.93 56.5167L164.209 56.8893L165.009 56.2893ZM165.073 56.7765C165.832 54.8968 166.722 52.9731 167.747 51.3567C168.778 49.7306 169.913 48.4699 171.14 47.8472L170.687 46.9555C169.221 47.6995 167.968 49.1409 166.902 50.8211C165.83 52.5111 164.914 54.498 164.145 56.4021L165.073 56.7765ZM170.777 47.8825C170.923 47.9236 171.068 47.9642 171.214 48.0043L171.479 47.0402C171.336 47.0007 171.193 46.9607 171.049 46.9202L170.777 47.8825ZM171.16 47.986C171.446 48.1015 171.74 48.1179 172.01 48.0258C172.276 47.9354 172.476 47.755 172.611 47.5496L171.774 47.0017C171.741 47.0528 171.708 47.0722 171.688 47.0792C171.672 47.0846 171.627 47.096 171.534 47.0586L171.16 47.986ZM171.693 47.2682C171.688 47.6088 171.686 47.94 171.685 48.2621L172.685 48.2656C172.686 47.9426 172.688 47.617 172.693 47.2831L171.693 47.2682ZM171.685 48.2638V48.2652H172.685V48.2638H171.685ZM171.685 48.2634C171.679 49.9741 171.672 51.447 171.126 53.1847L172.08 53.4844C172.676 51.585 172.679 49.9712 172.685 48.2669L171.685 48.2634ZM171.126 53.1846C170.69 54.5717 170.147 55.9265 169.596 57.3021L170.524 57.6741C171.073 56.3045 171.63 54.9142 172.08 53.4845L171.126 53.1846ZM169.6 57.2911L169.6 57.2915L170.519 57.6854L170.52 57.6851L169.6 57.2911ZM169.6 57.2915L169.6 57.2918L170.519 57.6857L170.519 57.6854L169.6 57.2915ZM169.6 57.2918L169.6 57.2921L170.519 57.686L170.519 57.6857L169.6 57.2918ZM169.595 57.3031C169.373 57.8571 169.15 58.4144 168.934 58.9746L169.866 59.335C170.08 58.7816 170.301 58.23 170.524 57.6751L169.595 57.3031ZM169.506 58.6663C168.395 58.4242 167.245 58.2919 166.043 58.4295L166.156 59.423C167.213 59.302 168.247 59.4154 169.294 59.6434L169.506 58.6663ZM166.886 59.3813L166.547 58.7027L165.652 59.1499L165.992 59.8285L166.886 59.3813ZM166.27 60.0754C170.113 61.4567 174.367 62.976 178.572 62.9679L178.57 61.9679C174.57 61.9756 170.484 60.5275 166.608 59.1343L166.27 60.0754ZM178.571 62.9679C179.258 62.9679 179.944 62.9283 180.612 62.8898L180.555 61.8915C179.882 61.9302 179.225 61.9679 178.571 61.9679V62.9679ZM180.612 62.8898C181.707 62.8268 182.756 62.7674 183.796 62.866L183.89 61.8705C182.762 61.7635 181.637 61.8292 180.555 61.8915L180.612 62.8898ZM183.796 62.866C185.487 63.025 187.028 64.073 187.873 65.3488C188.72 66.6286 188.791 67.9785 187.876 68.9052L188.588 69.6077C189.965 68.2129 189.698 66.2933 188.706 64.7966C187.713 63.2959 185.913 62.0606 183.89 61.8704L183.796 62.866ZM187.876 68.9052C186.928 69.8655 186.033 71.0143 185.37 72.2034L186.244 72.6905C186.857 71.5904 187.694 70.5127 188.588 69.6077L187.876 68.9052ZM185.37 72.2034C184.904 73.0394 184.117 73.6163 183.152 73.7912C182.188 73.9661 181.002 73.745 179.747 72.8976L179.188 73.7263C180.62 74.6938 182.067 75.0044 183.331 74.7752C184.595 74.546 185.634 73.783 186.244 72.6905L185.37 72.2034ZM179.747 72.8975C178.798 72.257 177.915 71.5138 177.008 70.7494L176.364 71.5142C177.264 72.2727 178.187 73.0511 179.188 73.7263L179.747 72.8975ZM177.006 70.7477L177.006 70.7474L176.365 71.5156L176.366 71.5159L177.006 70.7477ZM177.039 70.7779L177.039 70.7778L176.332 71.4849L176.332 71.485L177.039 70.7779ZM177.008 70.749C176.373 70.2146 175.727 69.67 175.053 69.1601L174.45 69.9576C175.099 70.449 175.726 70.9765 176.363 71.5137L177.008 70.749ZM175.052 69.1598C173.073 67.6656 170.762 65.9291 168.257 64.8967L167.876 65.8213C170.242 66.7965 172.453 68.4505 174.45 69.9579L175.052 69.1598ZM168.566 67.7027V65.359H167.566V67.7027H168.566ZM173.602 70.3267C171.894 69.0713 170.084 68.1404 168.287 67.2543L167.845 68.1511C169.638 69.0354 171.379 69.9335 173.01 71.1325L173.602 70.3267ZM175.893 72.1912C175.137 71.5455 174.375 70.894 173.602 70.3265L173.011 71.1327C173.749 71.6743 174.482 72.3007 175.243 72.9513L175.893 72.1912ZM180.731 75.5656C179.007 74.8474 177.464 73.5344 175.893 72.1912L175.243 72.9513C176.788 74.2715 178.451 75.6988 180.346 76.4886L180.731 75.5656ZM190.035 69.4761C189.504 71.5419 188.231 73.5275 186.556 74.7587C184.895 75.9799 182.861 76.4497 180.73 75.5653L180.347 76.4889C182.857 77.5308 185.258 76.9544 187.148 75.5643C189.026 74.1842 190.421 71.9931 191.003 69.7247L190.035 69.4761ZM184.895 61.3593C186.955 61.6832 188.482 62.7243 189.373 64.1553C190.267 65.5896 190.549 67.4581 190.035 69.4769L191.004 69.7239C191.577 67.4748 191.278 65.3203 190.222 63.6264C189.165 61.9292 187.374 60.7367 185.05 60.3714L184.895 61.3593ZM180.166 61.2855C181.789 61.1964 183.348 61.1126 184.894 61.3591L185.051 60.3716C183.383 60.1055 181.716 60.1988 180.111 60.287L180.166 61.2855ZM175.013 61.1667C176.756 61.4749 178.495 61.3772 180.166 61.2855L180.111 60.287C178.421 60.3798 176.798 60.4667 175.187 60.182L175.013 61.1667ZM171.798 60.3311C172.833 60.6449 173.907 60.9707 175.013 61.1667L175.187 60.182C174.15 59.9982 173.133 59.6907 172.087 59.374L171.798 60.3311ZM171.784 60.3268L171.784 60.3269L172.101 59.3782L172.1 59.3781L171.784 60.3268ZM171.799 60.3314L171.799 60.3314L172.086 59.3736L172.086 59.3735L171.799 60.3314ZM170.721 60.0105C171.078 60.1131 171.435 60.2213 171.797 60.331L172.087 59.3739C171.727 59.2646 171.362 59.1543 170.997 59.0494L170.721 60.0105ZM171.073 57.6422C170.845 58.2081 170.615 58.7775 170.393 59.3492L171.325 59.7107C171.544 59.1466 171.771 58.5839 172.001 58.0168L171.073 57.6422ZM171.075 57.6374L171.075 57.6388L171.999 58.0203L172 58.0188L171.075 57.6374ZM173.026 52C172.576 53.9214 171.833 55.7626 171.074 57.6408L172.001 58.0154C172.755 56.1495 173.529 54.2371 173.999 52.228L173.026 52ZM172.673 46.9143C173.249 47.4071 173.467 48.1998 173.459 49.1706C173.451 50.1348 173.222 51.1607 173.026 52.0001L173.999 52.2278C174.193 51.3983 174.45 50.2695 174.459 49.1787C174.468 48.0944 174.232 46.9317 173.323 46.1541L172.673 46.9143ZM172.667 46.9118C172.667 46.9119 172.668 46.9122 172.67 46.9128C172.671 46.9134 172.673 46.9147 172.677 46.9174L173.319 46.1509C173.177 46.0321 173.012 45.9578 172.843 45.9275L172.667 46.9118ZM172.463 46.7629C172.455 46.7617 172.423 46.7551 172.384 46.7271C172.344 46.6983 172.313 46.6589 172.296 46.6177L173.214 46.2216C173.104 45.9656 172.871 45.8102 172.602 45.7725L172.463 46.7629ZM171.96 46.6019C172.088 46.638 172.218 46.6816 172.351 46.7333L172.715 45.802C172.553 45.7387 172.392 45.6846 172.231 45.6394L171.96 46.6019ZM171.603 46.3848C171.666 46.4095 171.709 46.4406 171.74 46.472L172.452 45.7694C172.32 45.6363 172.159 45.529 171.971 45.4547L171.603 46.3848ZM147.624 35.3769C155.487 39.2447 163.35 43.1131 171.603 46.3845L171.971 45.4549C163.762 42.2006 155.934 38.3502 148.066 34.4796L147.624 35.3769ZM131.328 27.6119C136.852 30.0776 142.238 32.7271 147.624 35.3769L148.066 34.4796C142.682 31.8312 137.28 29.1733 131.736 26.6987L131.328 27.6119ZM126.562 25.4578C128.138 26.1746 129.723 26.8955 131.328 27.6119L131.736 26.6987C130.134 25.984 128.552 25.2645 126.976 24.5476L126.562 25.4578ZM126.563 25.4586L126.564 25.4587L126.974 24.5467L126.974 24.5467L126.563 25.4586ZM126.563 25.4586L126.563 25.4586L126.974 24.5467L126.974 24.5466L126.563 25.4586ZM126.563 25.4585L126.563 25.4586L126.974 24.5466L126.974 24.5466L126.563 25.4585ZM126.563 25.4585L126.563 25.4585L126.974 24.5466L126.973 24.5465L126.563 25.4585ZM126.563 25.4584L126.563 25.4585L126.973 24.5465L126.973 24.5465L126.563 25.4584ZM126.568 25.4605L126.568 25.4605L126.969 24.5444L126.968 24.5443L126.568 25.4605ZM112.257 19.3194C117.173 21.1878 121.825 23.3037 126.561 25.4575L126.975 24.5473C122.244 22.3954 117.562 20.2661 112.612 18.3847L112.257 19.3194ZM90.6382 10.1736C97.7758 13.4309 104.919 16.5326 112.257 19.3195L112.612 18.3846C105.302 15.6084 98.1807 12.5164 91.0533 9.26388L90.6382 10.1736ZM90.4816 10.1023L90.6385 10.1738L91.053 9.26372L90.8961 9.19229L90.4816 10.1023ZM75.2798 5.93034C77.707 5.67817 80.3824 6.20197 83.0313 7.05872C85.6766 7.91431 88.2525 9.087 90.4816 10.1023L90.8961 9.1923C88.6744 8.18035 86.0475 6.98328 83.339 6.10724C80.634 5.23236 77.8045 4.66266 75.1765 4.9357L75.2798 5.93034ZM75.2389 5.36248C75.2925 5.37086 75.3889 5.40973 75.4533 5.51458C75.5107 5.608 75.507 5.69614 75.4972 5.7426C75.4814 5.81656 75.4181 5.91553 75.2814 5.93017L75.1749 4.93587C74.8057 4.97542 74.5763 5.26536 74.5191 5.53446C74.4884 5.67848 74.4951 5.86522 74.6013 6.03804C74.7145 6.22229 74.898 6.32136 75.0845 6.35049L75.2389 5.36248ZM153.056 73.6117C152.921 73.5702 152.786 73.5288 152.652 73.4874L152.358 74.4433C152.493 74.4847 152.627 74.5261 152.762 74.5675L153.056 73.6117ZM152.663 73.491L152.663 73.491L152.347 74.4396L152.347 74.4397L152.663 73.491ZM152.652 73.4873C151.643 73.1776 150.64 72.8694 149.656 72.5455L149.343 73.4954C150.338 73.8229 151.351 74.134 152.358 74.4433L152.652 73.4873ZM149.996 72.9558L149.573 69.7152L148.581 69.8446L149.004 73.0851L149.996 72.9558ZM148.873 70.2362C150.417 70.9282 151.964 71.6163 153.513 72.2998L153.917 71.3849C152.369 70.7023 150.825 70.0149 149.281 69.3236L148.873 70.2362ZM153.244 71.6736L152.438 73.9209L153.38 74.2583L154.185 72.0111L153.244 71.6736ZM140.442 65.9951L139.821 69.0961L140.802 69.2922L141.422 66.1912L140.442 65.9951ZM140.518 68.7389C135.213 66.3318 129.984 63.8596 124.757 61.3879L124.33 62.292C129.556 64.7631 134.791 67.2387 140.105 69.6495L140.518 68.7389ZM124.756 61.3872L124.755 61.387L124.331 62.2925L124.331 62.2927L124.756 61.3872ZM124.767 61.3926L124.767 61.3925L124.319 62.2869L124.319 62.287L124.767 61.3926ZM124.748 61.3838L124.748 61.3837L124.338 62.2957L124.338 62.2957L124.748 61.3838ZM124.751 61.3852L124.751 61.3851L124.334 62.2942L124.335 62.2942L124.751 61.3852ZM124.718 61.3715L124.718 61.3715L124.367 62.3078L124.367 62.3078L124.718 61.3715ZM124.756 61.3876C116.249 57.365 107.745 53.3437 98.9375 49.6186L98.5479 50.5396C107.333 54.2553 115.819 58.2677 124.329 62.2916L124.756 61.3876ZM98.9373 49.6185C96.7825 48.7081 94.811 47.8596 92.9526 47.0597L92.5572 47.9783C94.4153 48.778 96.3898 49.6278 98.5481 50.5397L98.9373 49.6185ZM92.9513 47.0592L92.9501 47.0587L92.5573 47.9783L92.5585 47.9788L92.9513 47.0592ZM92.9507 47.0589L92.9506 47.0589L92.5567 47.978L92.5568 47.9781L92.9507 47.0589ZM92.9514 47.0592C84.3751 43.3679 78.2164 40.7169 67.726 37.882L67.4651 38.8474C77.8829 41.6626 83.987 44.2896 92.556 47.9777L92.9514 47.0592ZM67.7221 37.8809C67.727 37.8822 67.7433 37.8868 67.7661 37.8975C67.7883 37.908 67.8266 37.9291 67.8674 37.9676C67.9706 38.065 68.0301 38.2196 67.9994 38.3793C67.977 38.496 67.9162 38.5602 67.9097 38.5673C67.896 38.5822 67.8913 38.5833 67.9077 38.5718C67.9826 38.5188 68.1609 38.4296 68.4149 38.332C68.6574 38.2388 68.9304 38.1524 69.1684 38.0951C69.2875 38.0664 69.3912 38.0466 69.4737 38.0362C69.5648 38.0247 69.599 38.0287 69.5941 38.0279L69.7509 37.0403C69.6152 37.0187 69.4696 37.0287 69.3481 37.0441C69.2182 37.0606 69.0766 37.0886 68.9343 37.1229C68.6496 37.1915 68.3348 37.2914 68.0561 37.3986C67.7887 37.5014 67.5121 37.6266 67.33 37.7555C67.282 37.7895 67.2255 37.8341 67.1742 37.8897C67.1303 37.9375 67.0464 38.0396 67.0173 38.1908C66.9801 38.385 67.0494 38.5705 67.181 38.6948C67.2845 38.7925 67.4028 38.8311 67.469 38.8484L67.7221 37.8809ZM69.5922 38.0276C72.0063 38.4204 73.2107 38.4221 74.1465 38.4226L74.1471 37.4226C73.2474 37.4221 72.0992 37.4223 69.7528 37.0406L69.5922 38.0276ZM74.1465 38.4226C74.8255 38.4231 75.3221 38.4241 76.0548 38.5726C76.7995 38.7234 77.8003 39.0297 79.4581 39.6622L79.8146 38.7278C78.141 38.0893 77.0794 37.7598 76.2534 37.5925C75.4155 37.4227 74.8331 37.4231 74.1471 37.4226L74.1465 38.4226ZM79.4581 39.6622C96.3506 46.1062 112.729 53.6575 129.134 61.2218L129.553 60.3136C113.153 52.7517 96.7439 45.1859 79.8145 38.7278L79.4581 39.6622ZM129.133 61.2212L129.134 61.2214L129.555 60.3144L129.554 60.3142L129.133 61.2212ZM129.134 61.2217L129.136 61.2224L129.555 60.3147L129.554 60.314L129.134 61.2217ZM129.136 61.2226C132.995 63.0019 136.856 64.782 140.724 66.548L141.14 65.6383C137.273 63.8732 133.414 62.094 129.555 60.3145L129.136 61.2226Z" fill="#31394D"/>
<path d="M24.848 39.5404C24.4411 40.8474 24.8111 42.4221 25.2081 43.7891C25.1121 46.6723 26.5853 49.5422 28.148 51.9101C30.1875 55.0007 32.5143 57.9056 35.7556 59.8332C36.9291 60.5314 38.0505 59.9944 38.6044 59.1011C38.818 59.1656 39.0333 59.2166 39.2506 59.2607C38.5837 59.5851 37.9214 59.9197 37.2731 60.2788C36.5466 60.6811 37.0401 61.7902 37.834 61.5898C43.2075 60.2339 48.3315 57.9035 53.5659 56.106C58.9547 54.2551 64.8394 51.9435 70.5784 51.6154C72.6494 51.4971 75.1667 51.7705 76.7388 50.122C77.7986 49.0112 77.6628 46.6576 76.7285 45.4225C75.0679 43.7841 67.4465 42.5172 64.586 42.3735C66.7853 40.9972 69.2148 39.8983 71.3731 38.5419C74.4869 36.5853 77.2848 34.3463 79.7043 31.5846C82.0725 28.8817 84.173 25.9262 86.1744 22.9531C87.633 20.786 92.5048 14.2852 85.0318 13.0397C84.4187 12.9376 82.7437 14.7004 82.0544 15.6764C80.3763 18.0524 78.3459 20.2571 75.8982 21.8106C73.6554 23.2339 71.1375 24.9801 68.8404 26.3251C70.3986 24.4827 72.8825 21.6217 74.2949 19.6675C75.6129 17.8441 80.687 9.58469 76.5811 8.68691C74.6527 8.26526 72.745 9.75292 69.801 12.7593C68.0101 14.7004 66.7857 16.5173 65.2893 18.3593C62.1019 18.0165 58.5833 20.1984 56.0032 21.8106C52.7413 23.8488 49.4656 25.8446 46.082 27.6828C39.1715 31.4373 32.1426 34.8499 24.9038 37.9466C24.193 38.2498 24.3393 39.1442 24.848 39.5404ZM46.7397 30.9946C50.0493 29.2432 53.2782 27.3303 56.4387 25.3296C57.9823 24.3523 59.4704 23.2849 61.0413 22.3517C61.5621 22.042 62.0978 21.7836 62.6396 21.5449C61.7256 22.6214 60.803 23.6905 59.8749 24.7539C59.2308 25.492 60.2602 26.5444 60.9722 25.8356C64.0123 22.8111 66.9379 19.6638 69.6708 16.361C70.9077 14.8667 72.0132 13.6027 73.4072 12.209C74.6527 10.9639 76.3832 10.9067 75.8982 12.209C74.9234 14.8267 73.1774 17.0368 71.4697 19.2982C70.0386 21.1932 68.4673 22.9809 66.946 24.8049C65.9455 26.0049 64.8191 27.1875 64.0855 28.5626C63.2146 29.0539 62.3437 29.5456 61.4719 30.0332C60.468 30.5943 61.1519 32.3766 62.2816 31.927C62.9551 31.6589 63.6232 31.3826 64.2876 31.0999C64.3762 31.0856 64.4651 31.0587 64.5521 31.0019C64.5728 30.9885 64.591 30.9722 64.6113 30.9587C68.9648 29.0862 73.1304 26.901 77.1598 24.3829C85.8273 18.0217 83.7863 15.5503 86.109 16.2558C87.198 16.5865 84.0443 21.688 82.5408 23.834C80.5576 26.665 78.2485 29.153 75.7789 31.5981C73.4202 33.9338 70.6583 35.4868 67.9734 37.3895C65.3606 39.2413 63.1508 41.0212 60.973 43.3394C60.3625 43.989 61.2926 44.9006 61.9562 44.3085C62.1586 44.1277 62.3677 43.9543 62.5796 43.7841C62.6798 43.8931 62.8214 43.9731 63.0114 44.0028C65.2633 44.3546 67.9009 44.3601 70.1213 44.8943C71.2266 45.1603 72.3343 45.4614 73.4072 45.8376C73.9003 46.0106 74.5352 46.1502 74.9434 46.4971C75.3938 46.8802 75.7226 47.9907 75.2565 48.662C74.5962 49.6123 72.3285 49.1263 71.3309 49.1308C70.3428 49.1349 69.3531 49.241 68.3757 49.381C66.0038 49.7205 63.689 50.3501 61.399 51.038C57.2467 52.2854 53.1606 53.7336 49.1076 55.2626C46.9008 56.0946 44.6688 56.9083 42.4811 57.815C42.6644 57.1604 37.0327 58.4282 36.4577 57.8774C30.8625 52.5144 25.6635 47.9134 26.9089 40.0253C26.6875 39.1672 27.2525 39.195 28.1596 38.8953C34.549 36.784 40.8165 34.1296 46.7397 30.9946Z" fill="#31394D" stroke="#31394D"/>
<path d="M29.4008 36.7041C28.9856 34.2131 21.9278 28.4009 19.852 29.6463C17.7762 30.8918 9.8881 44.177 2 42.9315M42.686 58.7077C43.6547 60.5067 45.0109 64.7691 42.686 67.4261C39.7799 70.7474 23.1733 71.9929 22.343 74.0687" stroke="#31394D" stroke-width="2" stroke-linecap="round"/>
<path d="M29.4008 37.5346C28.9856 35.0436 21.9278 30.4769 19.852 31.7223C17.7762 32.9678 9.8881 45.0074 2 43.7619M41.4405 60.7835C42.4092 62.5825 44.7382 65.3836 42.686 68.2566C38.5344 74.0687 23.1733 72.8234 22.343 74.8992" stroke="#31394D" stroke-width="4" stroke-linecap="round"/>
</svg>
