<svg width="113" height="113" viewBox="0 0 113 113" fill="none" xmlns="http://www.w3.org/2000/svg">
<path d="M4.509 85.7496C13.1903 95.4877 23.3004 106.784 36.8499 110.631C50.2174 114.701 62.4384 112.141 71.8628 100.575C71.9471 100.472 104.823 55.8702 104.898 55.7662C105.58 54.8499 106.193 53.8836 106.731 52.8754C107.28 51.9095 107.652 50.8526 107.828 49.7551C107.971 48.7648 107.93 47.7567 107.708 46.781C107.54 45.973 107.291 45.1838 106.965 44.4253C106.459 43.2479 105.853 42.1164 105.152 41.0434C104.323 39.7608 103.412 38.5331 102.424 37.3682C101.145 35.874 100.881 35.883 100.664 36.0237C100.447 36.1644 100.327 36.4235 101.247 38.1696C101.696 39.0427 102.439 40.2698 103.387 42.0733C103.932 43.1001 104.403 44.1648 104.796 45.259C105.307 46.553 105.474 47.957 105.282 49.3348C105.11 50.1335 104.798 50.8953 104.36 51.5846C103.848 52.4576 103.274 53.2928 102.642 54.0837C61.7608 107.21 75.5657 90.4313 69.093 98.3184C62.0494 106.888 52.167 111.495 37.8933 107.137C25.19 103.545 15.3738 92.5718 7.12638 83.4513C3.39301 79.2509 2.1892 76.5098 4.89443 71.5377C14.0643 54.6358 48.871 17.9063 55.3231 13.5115C58.4505 11.604 61.0661 10.4638 67.6867 11.6085C71.1215 12.2198 74.3744 13.2515 77.561 14.0771C76.3058 15.5852 75.1483 17.172 74.0956 18.8278C73.5562 19.6778 73.0655 20.5577 72.6256 21.4632C68.8959 20.902 64.5709 21.1431 61.3135 23.0721C60.222 23.7244 59.3004 24.626 58.6244 25.703C56.3584 29.4569 58.1502 34.5196 61.4121 37.4597C65.2423 41.0666 70.702 42.7249 74.9078 42.0428C75.2904 41.9956 75.6671 41.9087 76.0318 41.7838C76.3545 41.6843 76.6288 41.5892 76.861 41.4996C77.1967 41.3431 77.5092 41.141 77.7896 40.899C77.9174 40.8137 78.0094 40.6844 78.0483 40.5357C78.0871 40.387 78.07 40.2292 78.0002 40.0923C77.9561 39.9473 77.8697 39.8187 77.7522 39.7229C77.6348 39.6272 77.4915 39.5686 77.3405 39.5545C77.0305 39.503 76.7153 39.4897 76.4021 39.5151C75.9682 39.4622 75.4402 39.5374 74.7276 39.472C70.6859 39.2918 66.8432 37.6668 63.8986 34.8925C61.1468 32.1962 59.9851 28.2047 63.1985 26.1126C65.4162 24.699 68.7372 24.4032 71.3644 24.5511C71.3322 24.6524 71.2882 24.7608 71.2587 24.8612C70.8033 26.3008 70.5951 27.8071 70.6429 29.3162C70.6895 30.3775 70.8661 30.9449 70.9754 30.9377C71.2963 30.9377 71.1753 28.6117 72.5961 25.3408C72.6857 25.1329 72.7996 24.9123 72.9008 24.6972C73.5572 24.7797 74.2086 24.8975 74.8522 25.0504C76.8054 25.5171 78.5906 26.517 80.009 27.9385C81.2243 29.0607 81.9985 30.5803 82.192 32.2231C82.3855 33.8659 81.9854 35.5239 81.064 36.8977C80.4984 37.7967 79.7787 38.589 78.9379 39.2381C78.3355 39.7266 77.9518 39.9552 78.0002 40.0959C78.0361 40.1945 78.5174 40.1936 79.3027 39.8772C80.4275 39.4109 81.423 38.6796 82.2042 37.7456C83.4333 36.3225 84.158 34.5334 84.2658 32.6561C84.3215 30.2927 83.4879 27.9946 81.9299 26.2166C80.2782 24.2861 78.1069 22.8705 75.6742 22.1381C75.2834 22.0189 74.8881 21.9301 74.4937 21.8351C74.8845 21.2247 75.3004 20.608 75.7746 19.9833C77.1735 18.1429 78.6862 16.3918 80.3039 14.7404C81.0389 14.9062 81.7381 15.0765 82.4364 15.2396C88.7576 16.7437 91.9916 19.942 94.6153 25.0997C95.7806 27.4222 96.6904 29.5134 97.5545 31.16C97.982 31.9874 98.3746 32.7143 98.752 33.3265C99.0496 33.8531 99.3739 34.3641 99.7236 34.8576C100.286 35.6643 100.604 36.0649 100.657 36.03C100.199 34.8788 99.6665 33.7592 99.0613 32.6785C99.2579 32.7289 99.4652 32.7196 99.6565 32.6516C100.847 32.201 101.937 31.5185 102.862 30.6437C110.336 24.2275 115.998 11.9204 109.592 4.20718C108.741 3.13257 107.677 2.24567 106.467 1.60234C105.182 0.913073 103.791 0.443751 102.352 0.213857C93.5396 -1.28487 85.0887 5.33931 78.9647 12.4045C78.9154 12.4609 78.8697 12.5174 78.8213 12.5738C67.4545 9.45181 62.1651 6.78604 54.0494 11.569C46.839 16.2983 11.8197 52.2363 1.93014 69.9395C-1.56927 76.3163 -0.073221 80.4853 4.509 85.7496ZM101.745 3.72672C103.7 4.00354 105.487 4.98812 106.765 6.49383C111.93 12.7845 106.311 22.5388 101.06 28.7936C100.261 29.6514 99.5123 30.5556 98.8192 31.5015C98.7588 31.5988 98.7095 31.7025 98.6722 31.8108C98.5288 31.4988 98.3836 31.1833 98.2312 30.8328C97.4819 29.1512 96.6904 27.0448 95.6058 24.6175C95.0284 23.3034 94.3442 22.0389 93.5603 20.8366C92.161 18.7198 90.2762 16.968 88.0629 15.7273C86.4281 14.8249 84.6923 14.119 82.8917 13.6244C82.5054 13.5222 82.1065 13.4138 81.7085 13.3071C86.8886 8.1333 94.5678 2.34721 101.745 3.72672Z" fill="#31394D"/>
<path opacity="0.2" transform="translate(20px, 50px)" d="M28.7546 13.6728L6.40285 48.2671C3.87617 52.1776 2.24132 56.5913 1.78015 61.2243C0.943844 69.6258 0 81.179 0 81.9774C0 82.5804 6.10228 86.2182 13.1727 90.2189C22.9858 95.7715 35.022 95.4537 44.6978 89.6649L47.0656 88.2483C51.012 85.8873 54.4031 82.7034 57.008 78.9136L78.6041 47.4933C83.1561 40.8706 83.6856 32.2776 79.9811 25.1461L74.8089 15.189C73.5717 12.8074 70.9471 11.4873 68.2975 11.9141L68.0812 11.9489C64.6002 12.5096 62.3437 15.9279 63.1962 19.3492C63.7901 21.7329 62.8764 24.2384 60.8873 25.6801L59.2439 26.8713C55.6721 29.4603 50.7522 29.0885 47.6099 25.9922L47.1293 25.5186C42.6854 21.1395 43.3959 13.7812 48.5956 10.3333L50.4631 9.09498C51.0371 8.71433 51.7106 8.51131 52.3994 8.51131C56.2744 8.51131 57.2263 3.28843 53.5639 2.02287C50.124 0.834223 47.4243 0 46.6368 0C45.2662 0 41.0245 2.52721 37.1673 5.05174C33.7705 7.27495 30.9578 10.263 28.7546 13.6728Z" fill="#EB5769"/>
</svg>
