<svg width="143" height="187" viewBox="0 0 143 187" fill="none" xmlns="http://www.w3.org/2000/svg">
<path opacity="0.8" d="M52.1166 131.45L52.7714 125.557C53.51 118.91 58.3048 113.424 64.793 111.802L96.7266 103.818C105.201 101.7 113.809 106.77 116.065 115.21L123.668 143.662C125.829 151.749 121.392 160.135 113.49 162.897L88.0419 171.791C80.9965 174.254 73.1845 171.518 69.2144 165.198L54.4704 141.728C52.547 138.667 51.7174 135.044 52.1166 131.45Z" fill="#DED3C1"/>
<path d="M12.6214 53.3505C12.1846 54.5969 11.8618 55.8805 11.657 57.1852C10.6483 63.1913 10.5854 71.7773 13.829 76.9417C14.7511 78.4131 16.1585 79.516 17.8077 80.0594C18.1414 80.4455 18.498 80.8112 18.8758 81.1542C21.1365 83.1543 26.0586 86.6371 36.3786 91.509C42.018 94.2142 51.0086 97.896 58.299 101.423C61.96 103.17 65.1595 104.944 67.5295 106.199L68.2286 106.586L67.4236 106.819L65.4062 107.392C64.7588 107.559 64.0983 107.711 63.4212 107.855L59.3655 108.695C54.1211 109.599 48.9872 111.057 44.0498 113.043C41.5222 114.066 39.2717 115.672 37.4812 117.729C36.519 118.917 35.8794 120.334 35.6242 121.842C35.4587 123.14 35.486 124.455 35.7053 125.745C36.7054 132.376 40.7621 141.292 42.4752 146.395C49.1826 166.033 49.8801 168.783 51.3533 172.909C51.8383 174.34 52.6469 175.639 53.7162 176.706C54.1433 177.163 54.6982 177.48 55.3085 177.618C55.4141 177.639 55.5238 177.627 55.6225 177.584C55.7212 177.541 55.8042 177.468 55.86 177.376C56.1077 177.06 56.0491 176.786 55.3094 175.447C54.7737 174.375 54.3819 173.238 54.1443 172.064C52.1856 162.905 49.7441 153.857 46.8302 144.957C45.5426 140.765 43.5609 136.098 41.9012 130.505C41.3474 128.724 40.9258 126.904 40.6397 125.061C40.5078 124.268 40.486 123.46 40.5748 122.661C40.7019 122 40.9989 121.385 41.4365 120.874C42.7461 119.478 44.3535 118.396 46.1393 117.707C51.3188 115.445 58.1384 114.244 64.5263 112.939C65.2322 112.788 65.961 112.619 66.7067 112.433L68.8719 111.823L69.2241 111.722C70.576 124.3 70.1409 123.105 70.5989 124.865C70.8573 126.005 71.4654 127.036 72.3381 127.813C72.8577 128.251 73.4657 128.572 74.1205 128.754C74.7194 128.911 75.3394 128.97 75.9571 128.931C79.4189 128.444 82.8497 127.759 86.2328 126.878C86.5049 126.77 86.7675 126.639 87.0179 126.487C87.9627 125.902 88.6798 125.012 89.0512 123.965C89.334 123.148 89.475 122.288 89.4683 121.423C89.5007 117.447 88.9661 110.56 86.8382 106.613C108.583 100.278 107.797 100.435 108.441 100.415C108.595 100.393 108.753 100.407 108.901 100.455C109.052 100.531 109.181 100.644 109.277 100.784C114.25 106.42 123.104 137.824 125.436 149.524C125.59 150.459 125.604 151.412 125.477 152.351C125.106 154.233 124.136 155.944 122.714 157.23C121.176 158.657 119.443 159.859 117.567 160.798C112.977 163.184 87.8345 172.641 66.5665 177.322C64.6498 177.778 62.6985 178.074 60.7327 178.206C59.0702 178.247 57.4156 177.965 55.8609 177.375C55.8218 177.423 56.1091 177.824 56.9064 178.269C58.0848 178.885 59.3888 179.223 60.7182 179.258C62.7665 179.325 64.8163 179.188 66.8373 178.848C87.6563 175.765 114.469 166.402 119.244 164.085C121.474 163.035 123.54 161.668 125.38 160.027C127.45 158.201 128.876 155.756 129.446 153.055C130.327 148.123 121.938 113.664 115.106 100.98C114.561 99.8144 113.91 98.7019 113.162 97.6559C112.587 96.8922 111.83 96.2853 110.959 95.8911C110.089 95.4969 109.133 95.328 108.18 95.4C106.642 95.5072 107.744 95.2479 83.5085 102.186C84.9618 100.047 86.9342 96.9047 89.1923 93.4546C98.4267 79.2897 104.92 72.1056 107.663 62.8758C108.394 60.6292 108.711 58.2689 108.601 55.9091C108.587 55.5776 108.552 55.2472 108.498 54.9199C109.243 54.3949 109.905 53.7617 110.463 53.0413C111.316 51.9162 111.921 50.6228 112.237 49.2466C112.517 47.9638 112.6 46.6458 112.482 45.3381C110.927 25.712 81.8634 7.85721 57.8776 11.6268C49.5678 12.6251 41.6243 15.6242 34.7283 20.3669C29.1585 24.2087 24.3658 29.0695 20.603 34.6929C18.0878 38.4562 16.1497 42.5746 14.8531 46.9113C14.4903 48.079 14.2191 49.2731 14.0417 50.4829C13.9124 51.3099 13.8872 51.7503 13.9771 51.7707C14.067 51.7912 14.2638 51.3899 14.5599 50.6152C14.8561 49.8404 15.2308 48.6882 15.8491 47.2549C17.5035 43.2027 19.6598 39.374 22.2675 35.8587C26.1353 30.6963 30.9013 26.2727 36.3373 22.7996C40.5931 20.1285 45.2179 18.0963 50.0639 16.768C39.5972 30.7759 39.3798 51.6276 44.2136 59.752C44.3525 60.0032 44.4818 60.2119 44.6066 60.4086C28.2649 67.0553 26.8239 73.2575 21.624 75.4044C20.8571 75.8019 19.9824 75.9412 19.13 75.8018C18.4122 75.5886 17.7973 75.12 17.4013 74.4845C14.6433 70.5665 14.519 62.2192 14.5711 57.4626C14.6043 55.7252 14.6379 54.5274 14.6315 53.7024C14.6194 52.0508 14.3402 51.8503 13.9796 51.7701C13.6189 51.6898 13.2384 51.7272 12.6214 53.3505ZM84.2572 121.333C84.2565 121.589 84.2293 121.845 84.1762 122.096C84.1762 122.096 84.1762 122.096 84.1785 122.104C84.1983 122.099 84.163 122.116 84.0577 122.149C84.0043 122.162 75.7161 124.326 75.5634 124.349L75.218 124.395C75.1609 124.398 75.1036 124.39 75.0501 124.369C74.9732 124.389 74.7298 124.117 74.5435 123.636C74.336 123.074 74.1823 122.494 74.0845 121.903C73.4542 118.229 72.3789 114.646 70.8824 111.233L77.5474 109.31L83.1941 107.664C83.9324 112.182 84.288 116.755 84.2572 121.333ZM106.093 40.2643C106.86 41.9866 107.337 43.8235 107.506 45.7012C107.791 49.2823 106.029 51.3665 102.808 51.8324C101.039 52.0416 99.2536 52.0659 97.48 51.9052C95.5353 51.8063 93.5997 51.7329 91.7342 51.7155C88.2721 51.6827 84.9833 51.7983 81.8889 52.0066C81.8991 51.8717 81.9105 51.7365 81.9109 51.579C82.2832 43.8695 74.7027 25.5491 59.445 16.4313C58.7658 16.043 58.0624 15.6987 57.3392 15.4005C57.6508 15.3677 57.9552 15.317 58.2691 15.2929C75.4506 13.0352 99.3125 23.0088 106.093 40.2643ZM47.7288 58.6627C47.6394 58.0852 47.5852 57.3572 47.4503 56.4859C44.6914 39.8583 47.2782 29.8632 52.5849 16.7883C52.6933 16.5487 52.7962 16.3185 52.8935 16.0976C53.9785 15.8733 55.0799 15.6923 56.1906 15.5473C56.7299 16.4696 57.4028 17.3069 58.1874 18.0321C71.3357 32.776 72.4033 36.8377 78.2957 52.296L78.3124 52.33C68.6264 53.2696 59.0813 55.3245 49.8666 58.4538C49.1533 58.6933 48.465 58.9476 47.7707 59.1995C47.7623 59.0284 47.7517 58.8592 47.7288 58.6627ZM27.7322 77.0297C31.3409 74.247 35.3241 68.578 51.5039 63.2879C61.2283 60.0545 71.3138 58.0303 81.5328 57.261C84.7005 57.0245 88.1057 56.8882 91.6941 56.9029C93.4924 56.9112 95.3213 56.9711 97.2194 57.0529C99.3645 57.2247 101.522 57.164 103.654 56.8718C103.977 56.8163 104.307 56.7458 104.637 56.6644C101.414 68.7257 94.0067 75.2872 85.9834 91.6343C84.1494 95.2369 82.593 98.9743 81.3278 102.814L76.1078 104.308L70.2229 106.01C69.7981 105.574 69.2953 105.086 68.7013 104.542C60.6631 97.4809 48.743 91.6619 38.6247 86.8027C31.3405 83.3619 26.7887 80.9661 23.7934 79.4558C25.2005 78.8118 26.5224 77.9959 27.7287 77.0266L27.7322 77.0297Z" fill="#31394D"/>
</svg>
