<svg width="104" height="109" viewBox="0 0 104 109" fill="none" xmlns="http://www.w3.org/2000/svg">
<mask id="path-1-outside-1" maskUnits="userSpaceOnUse" x="-5.12889" y="-4.12907" width="117.404" height="117.404" fill="black">
<rect fill="white" x="-5.12889" y="-4.12907" width="117.404" height="117.404"/>
<path d="M1.60862 49.2012C1.69847 49.9324 1.86601 50.6519 2.10838 51.3475C2.93998 53.6729 4.29332 55.7773 6.06491 57.4999C8.20165 59.6033 10.8949 61.0549 13.8291 61.6846C13.8363 61.7653 13.8415 61.8315 13.8487 61.9121C13.9123 62.624 16.7655 93.0716 19.1333 99.1075C19.6785 100.527 20.4103 101.869 21.3094 103.096C22.2599 104.401 23.471 105.494 24.8662 106.308C26.2894 107.111 27.8587 107.622 29.4823 107.811C31.0338 108.004 32.6006 108.044 34.16 107.93C36.7904 107.77 55.857 105.786 68.3503 103.78C76.1289 102.631 84.8663 102.25 93.4344 99.8117C94.3728 99.5596 95.2773 99.1955 96.1284 98.7272C97.0184 98.2245 97.8012 97.5526 98.4325 96.7495C99.5153 95.2906 100.221 93.5879 100.487 91.792C101.589 85.3256 98.2871 64.1297 96.8448 57.2975C96.3958 54.9903 95.8084 52.7121 95.0859 50.4753C101.485 47.3394 103.341 39.8868 102.491 36.3429C102.414 35.7546 102.136 35.2111 101.703 34.8042C101.675 34.7854 101.645 34.7689 101.615 34.7546C100.717 31.2118 81.6309 6.62397 78.7262 3.62391C77.6255 2.41118 76.2311 1.50105 74.6767 0.980704C73.0396 0.572941 71.3332 0.52423 69.6751 0.837915C59.7852 2.29802 47.7284 4.12083 29.1641 7.10124C27.8812 7.29199 26.6169 7.59119 25.3846 7.99561C24.0714 8.43455 22.8551 9.12214 21.8024 10.0207C20.8133 10.8924 19.9455 11.8923 19.2221 12.9937C15.7203 18.2997 0.534733 49.0127 1.37888 49.4178C1.41283 49.4384 1.49302 49.357 1.60862 49.2012ZM94.5514 57.6966C95.252 62.9045 98.2415 86.0885 97.3095 91.235C97.1212 92.4982 96.6304 93.6976 95.8786 94.7313C92.7964 98.7345 34.0593 105.199 33.9744 105.206C31.1546 105.432 28.3228 105.32 26.1184 104.094C23.8763 102.897 22.3169 100.647 21.29 98.2213C18.5418 91.7399 18.4157 81.7654 14.5093 61.8181L14.5081 61.8092C16.7411 62.1889 19.0301 62.0831 21.2189 61.4993C23.4077 60.9155 25.4448 59.8673 27.1913 58.4262C28.2334 57.5559 29.1796 56.5772 30.0138 55.5066C30.0629 55.4426 30.1047 55.3846 30.1518 55.3241C30.1574 55.4049 32.7518 80.3421 32.7637 80.4269C32.9573 82.4254 33.428 84.3873 34.1621 86.2563C34.6108 87.3828 35.3618 88.364 36.3325 89.0922C37.4125 89.7406 38.669 90.0347 39.9255 89.9332C43.9155 89.7833 47.8324 89.5145 51.686 89.1494C58.5375 88.5068 65.3448 87.4578 72.0718 86.008C74.6118 85.4593 76.905 84.9002 79.1826 84.2991C79.86 84.118 80.5097 83.8456 81.1136 83.4895C81.7845 83.077 82.3515 82.5162 82.7709 81.8504C83.4194 80.7325 83.7769 79.4704 83.811 78.1793C83.7784 70.5254 83.0766 62.8893 81.7137 55.3579C81.4644 53.9953 81.1336 52.649 80.7229 51.326C84.6446 52.2893 88.8804 52.5816 92.7105 51.4108C93.075 51.3043 93.4305 51.1803 93.7808 51.048C93.8413 52.2403 94.065 54.2604 94.5514 57.6966ZM32.0313 61.3948C31.4198 58.2919 30.9212 55.9723 30.5861 54.7401C30.8764 54.3365 31.132 53.9601 31.353 53.6108C31.5634 53.9549 31.7988 54.2832 32.0571 54.5931C36.8016 60.3161 46.4885 63.1756 53.3734 55.8651C53.8882 55.319 54.3456 54.7216 54.7383 54.0824C55.0962 54.4449 55.4928 54.7672 55.921 55.0434C62.3564 58.9594 71.6707 57.623 76.8905 52.2107L77.4434 51.557C77.709 51.2502 77.9418 50.9167 78.1383 50.5619C78.4423 50.672 78.7914 50.7881 79.1888 50.9047L79.216 50.9124C79.1519 52.5006 79.215 54.0913 79.4047 55.6694C79.4103 55.7503 80.9497 73.3382 80.5884 77.9518C80.574 78.7035 80.3787 79.4408 80.019 80.1015C79.865 80.3452 79.6557 80.5492 79.4081 80.6972C79.0522 80.8958 78.6716 81.0464 78.2761 81.1453C76.1987 81.6807 73.827 82.2574 71.3707 82.7846C65.9496 83.969 58.9179 85.2546 51.3646 86.1267C47.6031 86.5712 43.6585 86.941 39.8374 87.1987C39.1408 87.297 38.4307 87.1888 37.7953 86.8877C37.2143 86.4489 36.7595 85.8649 36.4766 85.1947C35.7831 83.5638 35.3107 81.8477 35.0719 80.0918C33.8507 72.7005 35.4945 78.974 32.0313 61.3948ZM21.3126 14.4457C21.9322 13.5516 22.6677 12.7433 23.4998 12.0419C24.3146 11.3819 25.2501 10.8865 26.2543 10.5832C28.9934 9.70378 30.4314 9.99894 70.1281 4.09439C71.3206 3.8498 72.5511 3.85873 73.7396 4.12062C74.7628 4.48094 75.6781 5.09365 76.4003 5.90181C79.8306 9.37936 97.5958 32.7054 100.517 35.0845C100.5 35.104 100.485 35.1243 100.471 35.1455C100.299 35.5815 100.197 36.0425 100.172 36.5106C98.579 48.7606 90.6401 49.9739 79.4016 49.6432C79.0729 49.632 78.781 49.6263 78.5101 49.625C78.5525 49.4583 78.5389 49.2823 78.4714 49.1241C78.4039 48.9659 78.2863 48.8342 78.1366 48.7492C77.779 48.4727 77.4042 48.2721 76.4319 48.9615L75.5316 49.605C69.332 54.4254 63.5907 55.3077 56.4313 53.8627C55.9715 53.7322 55.5035 53.6324 55.0305 53.564C55.1422 53.3459 55.2321 53.1464 55.3044 52.9674C55.8305 51.5608 55.4317 51.317 55.0453 51.1155C54.6319 50.8958 54.2652 50.8002 53.3522 51.6976C52.8834 52.1338 52.273 52.8208 51.2594 53.6891C46.4378 57.7674 41.0734 58.7725 32.9179 53.6319C32.4558 53.339 32.0767 53.09 31.7776 52.9164C32.103 52.3549 32.3471 51.8727 32.5352 51.4749C33.3619 49.6451 33.0309 49.36 32.6498 49.1202C32.2688 48.8805 31.876 48.7444 30.5812 50.2038C29.9258 50.92 29.0584 52.0494 27.6961 53.5461C24.1382 57.3407 19.8698 59.4348 14.667 58.7651C12.0837 58.4246 9.64415 57.3823 7.61447 55.7518C5.88702 54.371 4.41842 52.6955 3.27676 50.8029C2.66349 49.7859 2.26735 48.994 2.00079 48.6141C3.73917 45.8013 18.094 19.006 21.3126 14.4457Z"/>
</mask>
<path d="M1.60862 49.2012C1.69847 49.9324 1.86601 50.6519 2.10838 51.3475C2.93998 53.6729 4.29332 55.7773 6.06491 57.4999C8.20165 59.6033 10.8949 61.0549 13.8291 61.6846C13.8363 61.7653 13.8415 61.8315 13.8487 61.9121C13.9123 62.624 16.7655 93.0716 19.1333 99.1075C19.6785 100.527 20.4103 101.869 21.3094 103.096C22.2599 104.401 23.471 105.494 24.8662 106.308C26.2894 107.111 27.8587 107.622 29.4823 107.811C31.0338 108.004 32.6006 108.044 34.16 107.93C36.7904 107.77 55.857 105.786 68.3503 103.78C76.1289 102.631 84.8663 102.25 93.4344 99.8117C94.3728 99.5596 95.2773 99.1955 96.1284 98.7272C97.0184 98.2245 97.8012 97.5526 98.4325 96.7495C99.5153 95.2906 100.221 93.5879 100.487 91.792C101.589 85.3256 98.2871 64.1297 96.8448 57.2975C96.3958 54.9903 95.8084 52.7121 95.0859 50.4753C101.485 47.3394 103.341 39.8868 102.491 36.3429C102.414 35.7546 102.136 35.2111 101.703 34.8042C101.675 34.7854 101.645 34.7689 101.615 34.7546C100.717 31.2118 81.6309 6.62397 78.7262 3.62391C77.6255 2.41118 76.2311 1.50105 74.6767 0.980704C73.0396 0.572941 71.3332 0.52423 69.6751 0.837915C59.7852 2.29802 47.7284 4.12083 29.1641 7.10124C27.8812 7.29199 26.6169 7.59119 25.3846 7.99561C24.0714 8.43455 22.8551 9.12214 21.8024 10.0207C20.8133 10.8924 19.9455 11.8923 19.2221 12.9937C15.7203 18.2997 0.534733 49.0127 1.37888 49.4178C1.41283 49.4384 1.49302 49.357 1.60862 49.2012ZM94.5514 57.6966C95.252 62.9045 98.2415 86.0885 97.3095 91.235C97.1212 92.4982 96.6304 93.6976 95.8786 94.7313C92.7964 98.7345 34.0593 105.199 33.9744 105.206C31.1546 105.432 28.3228 105.32 26.1184 104.094C23.8763 102.897 22.3169 100.647 21.29 98.2213C18.5418 91.7399 18.4157 81.7654 14.5093 61.8181L14.5081 61.8092C16.7411 62.1889 19.0301 62.0831 21.2189 61.4993C23.4077 60.9155 25.4448 59.8673 27.1913 58.4262C28.2334 57.5559 29.1796 56.5772 30.0138 55.5066C30.0629 55.4426 30.1047 55.3846 30.1518 55.3241C30.1574 55.4049 32.7518 80.3421 32.7637 80.4269C32.9573 82.4254 33.428 84.3873 34.1621 86.2563C34.6108 87.3828 35.3618 88.364 36.3325 89.0922C37.4125 89.7406 38.669 90.0347 39.9255 89.9332C43.9155 89.7833 47.8324 89.5145 51.686 89.1494C58.5375 88.5068 65.3448 87.4578 72.0718 86.008C74.6118 85.4593 76.905 84.9002 79.1826 84.2991C79.86 84.118 80.5097 83.8456 81.1136 83.4895C81.7845 83.077 82.3515 82.5162 82.7709 81.8504C83.4194 80.7325 83.7769 79.4704 83.811 78.1793C83.7784 70.5254 83.0766 62.8893 81.7137 55.3579C81.4644 53.9953 81.1336 52.649 80.7229 51.326C84.6446 52.2893 88.8804 52.5816 92.7105 51.4108C93.075 51.3043 93.4305 51.1803 93.7808 51.048C93.8413 52.2403 94.065 54.2604 94.5514 57.6966ZM32.0313 61.3948C31.4198 58.2919 30.9212 55.9723 30.5861 54.7401C30.8764 54.3365 31.132 53.9601 31.353 53.6108C31.5634 53.9549 31.7988 54.2832 32.0571 54.5931C36.8016 60.3161 46.4885 63.1756 53.3734 55.8651C53.8882 55.319 54.3456 54.7216 54.7383 54.0824C55.0962 54.4449 55.4928 54.7672 55.921 55.0434C62.3564 58.9594 71.6707 57.623 76.8905 52.2107L77.4434 51.557C77.709 51.2502 77.9418 50.9167 78.1383 50.5619C78.4423 50.672 78.7914 50.7881 79.1888 50.9047L79.216 50.9124C79.1519 52.5006 79.215 54.0913 79.4047 55.6694C79.4103 55.7503 80.9497 73.3382 80.5884 77.9518C80.574 78.7035 80.3787 79.4408 80.019 80.1015C79.865 80.3452 79.6557 80.5492 79.4081 80.6972C79.0522 80.8958 78.6716 81.0464 78.2761 81.1453C76.1987 81.6807 73.827 82.2574 71.3707 82.7846C65.9496 83.969 58.9179 85.2546 51.3646 86.1267C47.6031 86.5712 43.6585 86.941 39.8374 87.1987C39.1408 87.297 38.4307 87.1888 37.7953 86.8877C37.2143 86.4489 36.7595 85.8649 36.4766 85.1947C35.7831 83.5638 35.3107 81.8477 35.0719 80.0918C33.8507 72.7005 35.4945 78.974 32.0313 61.3948ZM21.3126 14.4457C21.9322 13.5516 22.6677 12.7433 23.4998 12.0419C24.3146 11.3819 25.2501 10.8865 26.2543 10.5832C28.9934 9.70378 30.4314 9.99894 70.1281 4.09439C71.3206 3.8498 72.5511 3.85873 73.7396 4.12062C74.7628 4.48094 75.6781 5.09365 76.4003 5.90181C79.8306 9.37936 97.5958 32.7054 100.517 35.0845C100.5 35.104 100.485 35.1243 100.471 35.1455C100.299 35.5815 100.197 36.0425 100.172 36.5106C98.579 48.7606 90.6401 49.9739 79.4016 49.6432C79.0729 49.632 78.781 49.6263 78.5101 49.625C78.5525 49.4583 78.5389 49.2823 78.4714 49.1241C78.4039 48.9659 78.2863 48.8342 78.1366 48.7492C77.779 48.4727 77.4042 48.2721 76.4319 48.9615L75.5316 49.605C69.332 54.4254 63.5907 55.3077 56.4313 53.8627C55.9715 53.7322 55.5035 53.6324 55.0305 53.564C55.1422 53.3459 55.2321 53.1464 55.3044 52.9674C55.8305 51.5608 55.4317 51.317 55.0453 51.1155C54.6319 50.8958 54.2652 50.8002 53.3522 51.6976C52.8834 52.1338 52.273 52.8208 51.2594 53.6891C46.4378 57.7674 41.0734 58.7725 32.9179 53.6319C32.4558 53.339 32.0767 53.09 31.7776 52.9164C32.103 52.3549 32.3471 51.8727 32.5352 51.4749C33.3619 49.6451 33.0309 49.36 32.6498 49.1202C32.2688 48.8805 31.876 48.7444 30.5812 50.2038C29.9258 50.92 29.0584 52.0494 27.6961 53.5461C24.1382 57.3407 19.8698 59.4348 14.667 58.7651C12.0837 58.4246 9.64415 57.3823 7.61447 55.7518C5.88702 54.371 4.41842 52.6955 3.27676 50.8029C2.66349 49.7859 2.26735 48.994 2.00079 48.6141C3.73917 45.8013 18.094 19.006 21.3126 14.4457Z" fill="#31394D"/>
<path d="M1.60862 49.2012C1.69847 49.9324 1.86601 50.6519 2.10838 51.3475C2.93998 53.6729 4.29332 55.7773 6.06491 57.4999C8.20165 59.6033 10.8949 61.0549 13.8291 61.6846C13.8363 61.7653 13.8415 61.8315 13.8487 61.9121C13.9123 62.624 16.7655 93.0716 19.1333 99.1075C19.6785 100.527 20.4103 101.869 21.3094 103.096C22.2599 104.401 23.471 105.494 24.8662 106.308C26.2894 107.111 27.8587 107.622 29.4823 107.811C31.0338 108.004 32.6006 108.044 34.16 107.93C36.7904 107.77 55.857 105.786 68.3503 103.78C76.1289 102.631 84.8663 102.25 93.4344 99.8117C94.3728 99.5596 95.2773 99.1955 96.1284 98.7272C97.0184 98.2245 97.8012 97.5526 98.4325 96.7495C99.5153 95.2906 100.221 93.5879 100.487 91.792C101.589 85.3256 98.2871 64.1297 96.8448 57.2975C96.3958 54.9903 95.8084 52.7121 95.0859 50.4753C101.485 47.3394 103.341 39.8868 102.491 36.3429C102.414 35.7546 102.136 35.2111 101.703 34.8042C101.675 34.7854 101.645 34.7689 101.615 34.7546C100.717 31.2118 81.6309 6.62397 78.7262 3.62391C77.6255 2.41118 76.2311 1.50105 74.6767 0.980704C73.0396 0.572941 71.3332 0.52423 69.6751 0.837915C59.7852 2.29802 47.7284 4.12083 29.1641 7.10124C27.8812 7.29199 26.6169 7.59119 25.3846 7.99561C24.0714 8.43455 22.8551 9.12214 21.8024 10.0207C20.8133 10.8924 19.9455 11.8923 19.2221 12.9937C15.7203 18.2997 0.534733 49.0127 1.37888 49.4178C1.41283 49.4384 1.49302 49.357 1.60862 49.2012ZM94.5514 57.6966C95.252 62.9045 98.2415 86.0885 97.3095 91.235C97.1212 92.4982 96.6304 93.6976 95.8786 94.7313C92.7964 98.7345 34.0593 105.199 33.9744 105.206C31.1546 105.432 28.3228 105.32 26.1184 104.094C23.8763 102.897 22.3169 100.647 21.29 98.2213C18.5418 91.7399 18.4157 81.7654 14.5093 61.8181L14.5081 61.8092C16.7411 62.1889 19.0301 62.0831 21.2189 61.4993C23.4077 60.9155 25.4448 59.8673 27.1913 58.4262C28.2334 57.5559 29.1796 56.5772 30.0138 55.5066C30.0629 55.4426 30.1047 55.3846 30.1518 55.3241C30.1574 55.4049 32.7518 80.3421 32.7637 80.4269C32.9573 82.4254 33.428 84.3873 34.1621 86.2563C34.6108 87.3828 35.3618 88.364 36.3325 89.0922C37.4125 89.7406 38.669 90.0347 39.9255 89.9332C43.9155 89.7833 47.8324 89.5145 51.686 89.1494C58.5375 88.5068 65.3448 87.4578 72.0718 86.008C74.6118 85.4593 76.905 84.9002 79.1826 84.2991C79.86 84.118 80.5097 83.8456 81.1136 83.4895C81.7845 83.077 82.3515 82.5162 82.7709 81.8504C83.4194 80.7325 83.7769 79.4704 83.811 78.1793C83.7784 70.5254 83.0766 62.8893 81.7137 55.3579C81.4644 53.9953 81.1336 52.649 80.7229 51.326C84.6446 52.2893 88.8804 52.5816 92.7105 51.4108C93.075 51.3043 93.4305 51.1803 93.7808 51.048C93.8413 52.2403 94.065 54.2604 94.5514 57.6966ZM32.0313 61.3948C31.4198 58.2919 30.9212 55.9723 30.5861 54.7401C30.8764 54.3365 31.132 53.9601 31.353 53.6108C31.5634 53.9549 31.7988 54.2832 32.0571 54.5931C36.8016 60.3161 46.4885 63.1756 53.3734 55.8651C53.8882 55.319 54.3456 54.7216 54.7383 54.0824C55.0962 54.4449 55.4928 54.7672 55.921 55.0434C62.3564 58.9594 71.6707 57.623 76.8905 52.2107L77.4434 51.557C77.709 51.2502 77.9418 50.9167 78.1383 50.5619C78.4423 50.672 78.7914 50.7881 79.1888 50.9047L79.216 50.9124C79.1519 52.5006 79.215 54.0913 79.4047 55.6694C79.4103 55.7503 80.9497 73.3382 80.5884 77.9518C80.574 78.7035 80.3787 79.4408 80.019 80.1015C79.865 80.3452 79.6557 80.5492 79.4081 80.6972C79.0522 80.8958 78.6716 81.0464 78.2761 81.1453C76.1987 81.6807 73.827 82.2574 71.3707 82.7846C65.9496 83.969 58.9179 85.2546 51.3646 86.1267C47.6031 86.5712 43.6585 86.941 39.8374 87.1987C39.1408 87.297 38.4307 87.1888 37.7953 86.8877C37.2143 86.4489 36.7595 85.8649 36.4766 85.1947C35.7831 83.5638 35.3107 81.8477 35.0719 80.0918C33.8507 72.7005 35.4945 78.974 32.0313 61.3948ZM21.3126 14.4457C21.9322 13.5516 22.6677 12.7433 23.4998 12.0419C24.3146 11.3819 25.2501 10.8865 26.2543 10.5832C28.9934 9.70378 30.4314 9.99894 70.1281 4.09439C71.3206 3.8498 72.5511 3.85873 73.7396 4.12062C74.7628 4.48094 75.6781 5.09365 76.4003 5.90181C79.8306 9.37936 97.5958 32.7054 100.517 35.0845C100.5 35.104 100.485 35.1243 100.471 35.1455C100.299 35.5815 100.197 36.0425 100.172 36.5106C98.579 48.7606 90.6401 49.9739 79.4016 49.6432C79.0729 49.632 78.781 49.6263 78.5101 49.625C78.5525 49.4583 78.5389 49.2823 78.4714 49.1241C78.4039 48.9659 78.2863 48.8342 78.1366 48.7492C77.779 48.4727 77.4042 48.2721 76.4319 48.9615L75.5316 49.605C69.332 54.4254 63.5907 55.3077 56.4313 53.8627C55.9715 53.7322 55.5035 53.6324 55.0305 53.564C55.1422 53.3459 55.2321 53.1464 55.3044 52.9674C55.8305 51.5608 55.4317 51.317 55.0453 51.1155C54.6319 50.8958 54.2652 50.8002 53.3522 51.6976C52.8834 52.1338 52.273 52.8208 51.2594 53.6891C46.4378 57.7674 41.0734 58.7725 32.9179 53.6319C32.4558 53.339 32.0767 53.09 31.7776 52.9164C32.103 52.3549 32.3471 51.8727 32.5352 51.4749C33.3619 49.6451 33.0309 49.36 32.6498 49.1202C32.2688 48.8805 31.876 48.7444 30.5812 50.2038C29.9258 50.92 29.0584 52.0494 27.6961 53.5461C24.1382 57.3407 19.8698 59.4348 14.667 58.7651C12.0837 58.4246 9.64415 57.3823 7.61447 55.7518C5.88702 54.371 4.41842 52.6955 3.27676 50.8029C2.66349 49.7859 2.26735 48.994 2.00079 48.6141C3.73917 45.8013 18.094 19.006 21.3126 14.4457Z" stroke="#31394D" mask="url(#path-1-outside-1)"/>
</svg>
