<svg width="18" height="18" viewBox="0 0 18 18" fill="none" xmlns="http://www.w3.org/2000/svg">
<path d="M4.38462 4.0769C2.51534 4.0769 1 5.59225 1 7.46152C1 9.33079 2.51534 10.8461 4.38462 10.8461V10.8461" stroke="#7AD398" stroke-width="1.5" stroke-linecap="round"/>
<path d="M4.38477 10.8461H13.6155C15.4848 10.8461 17.0001 9.33079 17.0001 7.46152C17.0001 5.59225 15.4848 4.0769 13.6155 4.0769" stroke="#7AD398" stroke-width="1.5" stroke-linecap="round"/>
<path d="M13.129 6.53977C13.2453 6.14941 13.3078 5.73585 13.3078 5.30769C13.3078 2.92862 11.3791 1 9.00007 1C6.621 1 4.69238 2.92862 4.69238 5.30769C4.69238 5.73483 4.75455 6.14745 4.87033 6.53699" stroke="#7AD398" stroke-width="1.5" stroke-linecap="round"/>
<path d="M3.15381 10.8462L3.90225 14.5884C4.1827 15.9907 5.41395 17 6.84399 17H11.1559C12.586 17 13.8172 15.9907 14.0977 14.5884L14.8461 10.8462" stroke="#7AD398" stroke-width="1.5" stroke-linecap="round"/>
</svg>
