<svg width="24" height="24" viewBox="0 0 24 24" fill="none" xmlns="http://www.w3.org/2000/svg">
<path d="M20.8289 9.91738L12.8449 17.9004C11.9634 18.8131 10.764 19.3509 9.49609 19.4017C8.22822 19.4526 6.98957 19.0126 6.03785 18.1734C5.57312 17.7358 5.20102 17.2094 4.94363 16.6253C4.68624 16.0411 4.5488 15.4113 4.53947 14.7731C4.53015 14.1348 4.64912 13.5012 4.88933 12.9098C5.12955 12.3184 5.48611 11.7813 5.93785 11.3304L12.7379 4.53038C13.274 4.00983 13.9934 3.72112 14.7407 3.72663C15.4879 3.73214 16.203 4.03143 16.7314 4.55983C17.2598 5.08824 17.5591 5.80332 17.5646 6.55057C17.5701 7.29783 17.2814 8.01725 16.7609 8.55338L9.96085 15.3534C9.78543 15.5199 9.55276 15.6128 9.31085 15.6128C9.06895 15.6128 8.83628 15.5199 8.66085 15.3534C8.48986 15.1803 8.39397 14.9467 8.39397 14.7034C8.39397 14.46 8.48986 14.2265 8.66085 14.0534L14.0979 8.61638C14.2856 8.42755 14.3907 8.17186 14.3899 7.90556C14.3892 7.63925 14.2827 7.38416 14.0939 7.19638C13.905 7.00861 13.6493 6.90354 13.383 6.90429C13.1167 6.90504 12.8616 7.01155 12.6739 7.20038L7.23685 12.6354C6.68989 13.184 6.38275 13.9272 6.38275 14.7019C6.38275 15.4766 6.68989 16.2197 7.23685 16.7684C7.79345 17.2997 8.53336 17.5962 9.30285 17.5962C10.0723 17.5962 10.8123 17.2997 11.3689 16.7684L18.1689 9.96838C18.6261 9.51997 18.99 8.98534 19.2393 8.39542C19.4887 7.8055 19.6186 7.172 19.6216 6.53155C19.6246 5.8911 19.5005 5.25642 19.2567 4.66421C19.0128 4.072 18.6539 3.53402 18.2008 3.08138C17.7477 2.62874 17.2094 2.27043 16.6169 2.02716C16.0245 1.7839 15.3896 1.66051 14.7492 1.66414C14.1088 1.66777 13.4754 1.79834 12.8857 2.0483C12.2961 2.29825 11.7618 2.66264 11.3139 3.12038L4.51385 9.92038C3.87304 10.5609 3.36741 11.3236 3.02698 12.1632C2.68654 13.0028 2.51823 13.9023 2.53204 14.8082C2.54584 15.7141 2.74148 16.608 3.10733 17.4369C3.47319 18.2658 4.00182 19.0127 4.66185 19.6334C5.9004 20.7844 7.5331 21.4168 9.22385 21.4004C11.1125 21.3998 12.9236 20.6491 14.2589 19.3134L22.2429 11.3294C22.3384 11.2371 22.4145 11.1268 22.467 11.0048C22.5194 10.8828 22.5469 10.7516 22.5481 10.6188C22.5493 10.486 22.524 10.3543 22.4737 10.2314C22.4234 10.1085 22.3491 9.99688 22.2552 9.90299C22.1614 9.8091 22.0497 9.73484 21.9268 9.68456C21.8039 9.63428 21.6722 9.60898 21.5395 9.61013C21.4067 9.61129 21.2755 9.63887 21.1534 9.69128C21.0314 9.74369 20.9211 9.81987 20.8289 9.91538V9.91738Z" fill="#31394D"/>
</svg>
