<svg width="40" height="40" viewBox="0 0 40 40" fill="none" xmlns="http://www.w3.org/2000/svg">
<path d="M12 14H12.1462C13.5608 14 14.7832 14.9882 15.0796 16.3714L15.6082 18.8381C16.0034 20.6824 17.6332 22 19.5194 22H23.0362C24.7968 22 26.3503 20.8489 26.8629 19.1646L28 15.4286" stroke="#31394D" stroke-width="1.5" stroke-linecap="round"/>
<path d="M19.25 26C19.25 26.6904 18.6904 27.25 18 27.25C17.3096 27.25 16.75 26.6904 16.75 26C16.75 25.3096 17.3096 24.75 18 24.75C18.6904 24.75 19.25 25.3096 19.25 26Z" stroke="#31394D" stroke-width="1.5" stroke-linecap="round"/>
<path d="M26.25 26C26.25 26.6904 25.6904 27.25 25 27.25C24.3096 27.25 23.75 26.6904 23.75 26C23.75 25.3096 24.3096 24.75 25 24.75C25.6904 24.75 26.25 25.3096 26.25 26Z" stroke="#31394D" stroke-width="1.5" stroke-linecap="round"/>
<rect x="1" y="1" width="38" height="38" rx="5" stroke="#31394D" stroke-opacity="0.2" stroke-width="2"/>
</svg>
