<svg width="21" height="21" viewBox="0 0 21 21" fill="none" xmlns="http://www.w3.org/2000/svg">
<g opacity="0.5">
<rect x="7.80615" y="7.3335" width="12.1938" height="12.6669" rx="4" stroke="#31394D" stroke-width="2"/>
<path d="M5 2H10.5701V0H5V2ZM2 10.4625V5H0V10.4625H2ZM0 10.4625C0 13.1527 2.18084 15.3336 4.87103 15.3336V13.3336C3.28541 13.3336 2 12.0482 2 10.4625H0ZM10.5701 2C11.8588 2 12.9034 3.04469 12.9034 4.33339H14.9034C14.9034 1.94013 12.9633 0 10.5701 0V2ZM5 0C2.23858 0 0 2.23858 0 5H2C2 3.34315 3.34315 2 5 2V0Z" fill="#31394D"/>
</g>
</svg>
