<svg width="15" height="14" viewBox="0 0 15 14" fill="none" xmlns="http://www.w3.org/2000/svg">
<g opacity="0.4">
<path d="M12.4 2L6.8 7.6L6 10L8.4 9.2L14 3.6L12.4 2Z" stroke="#31394D" stroke-width="1.5" stroke-linecap="round" stroke-linejoin="round"/>
<path fill-rule="evenodd" clip-rule="evenodd" d="M3 0.25C1.48122 0.25 0.25 1.48122 0.25 3V11C0.25 12.5188 1.48122 13.75 3 13.75H8C9.51878 13.75 10.75 12.5188 10.75 11V10.2857C10.75 10.115 10.693 9.95759 10.5969 9.83153L9.23515 11.1933C9.14225 11.7919 8.62463 12.25 8 12.25H3C2.30964 12.25 1.75 11.6904 1.75 11V3C1.75 2.30964 2.30964 1.75 3 1.75H8C8.49267 1.75 8.91877 2.03502 9.1224 2.44916L9.98577 1.58579C10.0602 1.51134 10.1399 1.44336 10.224 1.38223C9.72401 0.695985 8.91409 0.25 8 0.25H3Z" fill="#31394D"/>
</g>
</svg>
