<svg width="22" height="17" viewBox="0 0 22 17" fill="none" xmlns="http://www.w3.org/2000/svg">
<path d="M11.0003 16.5163C15.5608 16.5163 19.6149 13.7845 21.3282 9.55626C21.6002 8.88555 21.6002 8.11508 21.3282 7.44436C19.6149 3.21523 15.5608 0.483398 11.0003 0.483398C6.4398 0.483398 2.38572 3.21523 0.672459 7.44347C0.400372 8.11418 0.400372 8.88466 0.672459 9.55537C2.38572 13.7845 6.4398 16.5163 11.0003 16.5163ZM11.0003 1.37412C15.2036 1.37412 18.9391 3.88951 20.5163 7.78195C20.7006 8.238 20.7006 8.76085 20.5163 9.2169C18.9391 13.1102 15.2036 15.6256 11.0003 15.6256C6.79702 15.6256 3.06155 13.1102 1.48433 9.21778C1.30001 8.76174 1.30001 8.23889 1.48433 7.78284C3.06155 3.88951 6.79702 1.37412 11.0003 1.37412Z" fill="#31394C"/>
<path fill-rule="evenodd" clip-rule="evenodd" d="M21.7596 9.74309C22.0801 8.95294 22.0801 8.04799 21.7597 7.25784C19.9709 2.84239 15.7423 0 11 0C6.25778 0 2.02923 2.84229 0.240437 7.25673C-0.0801468 8.04699 -0.0801468 8.95212 0.240437 9.74238C2.02923 14.1577 6.25777 17 11 17C15.7422 17 19.9708 14.1577 21.7596 9.74327M0.672148 7.44361C2.38541 3.21537 6.43949 0.483532 11 0.483532C15.5605 0.483532 19.6146 3.21537 21.3279 7.4445C21.5999 8.11521 21.5999 8.88568 21.3279 9.55639C19.6146 13.7846 15.5605 16.5165 11 16.5165C6.43949 16.5165 2.38541 13.7846 0.672148 9.5555C0.400063 8.88479 0.400063 8.11432 0.672148 7.44361ZM20.0841 7.96862C18.5825 4.26281 15.0217 1.85778 11 1.85778C6.97824 1.85778 3.41746 4.26286 1.91582 7.96963C1.77986 8.30633 1.77987 8.69476 1.91589 9.03144C3.41758 12.7372 6.9783 15.1422 11 15.1422C15.0218 15.1422 18.5825 12.7371 20.0842 9.03037C20.2201 8.6937 20.2201 8.30528 20.0841 7.96862ZM20.516 7.78208C18.9388 3.88964 15.2033 1.37425 11 1.37425C6.79671 1.37425 3.06124 3.88964 1.48402 7.78297C1.2997 8.23902 1.2997 8.76187 1.48402 9.21792C3.06124 13.1104 6.79671 15.6257 11 15.6257C15.2033 15.6257 18.9388 13.1104 20.516 9.21703C20.7003 8.76098 20.7003 8.23813 20.516 7.78208Z" fill="#31394C"/>
<path d="M20.8424 7.28564C20.8424 9.96817 16.436 12.1428 11.0003 12.1428C5.56466 12.1428 1.1582 9.96817 1.1582 7.28564" stroke="#31394C" stroke-width="1.7"/>
</svg>
