<svg width="22" height="16" viewBox="0 0 22 16" fill="none" xmlns="http://www.w3.org/2000/svg">
<path d="M11.0003 15.5449C15.5608 15.5449 19.6149 12.9738 21.3282 8.99424C21.6002 8.36298 21.6002 7.63783 21.3282 7.00658C19.6149 3.02622 15.5608 0.455078 11.0003 0.455078C6.4398 0.455078 2.38572 3.02622 0.672459 7.00574C0.400372 7.63699 0.400372 8.36215 0.672459 8.9934C2.38572 12.9738 6.4398 15.5449 11.0003 15.5449ZM11.0003 1.2934C15.2036 1.2934 18.9391 3.66083 20.5163 7.3243C20.7006 7.75352 20.7006 8.24562 20.5163 8.67484C18.9391 12.3392 15.2036 14.7066 11.0003 14.7066C6.79702 14.7066 3.06155 12.3392 1.48433 8.67568C1.30001 8.24646 1.30001 7.75436 1.48433 7.32514C3.06155 3.66083 6.79702 1.2934 11.0003 1.2934Z" fill="#31394C"/>
<path fill-rule="evenodd" clip-rule="evenodd" d="M21.7596 9.16997C22.0801 8.4263 22.0801 7.57457 21.7597 6.8309C19.9709 2.67519 15.7423 0 11 0C6.25778 0 2.02923 2.6751 0.240437 6.82986C-0.0801468 7.57364 -0.0801468 8.42553 0.240437 9.1693C2.02923 13.3249 6.25777 16 11 16C15.7422 16 19.9708 13.3249 21.7596 9.17014M0.672148 7.00575C2.38541 3.02623 6.43949 0.455089 11 0.455089C15.5605 0.455089 19.6146 3.02623 21.3279 7.00659C21.5999 7.63784 21.5999 8.36299 21.3279 8.99425C19.6146 12.9738 15.5605 15.5449 11 15.5449C6.43949 15.5449 2.38541 12.9738 0.672148 8.99341C0.400063 8.36216 0.400063 7.63701 0.672148 7.00575ZM20.0841 7.49988C18.5825 4.01206 15.0217 1.7485 11 1.7485C6.97824 1.7485 3.41746 4.01211 1.91582 7.50083C1.77986 7.81772 1.77987 8.18331 1.91589 8.50018C3.41758 11.988 6.9783 14.2515 11 14.2515C15.0218 14.2515 18.5825 11.9879 20.0842 8.49917C20.2201 8.1823 20.2201 7.81673 20.0841 7.49988ZM20.516 7.32431C18.9388 3.66084 15.2033 1.29341 11 1.29341C6.79671 1.29341 3.06124 3.66084 1.48402 7.32515C1.2997 7.75437 1.2997 8.24647 1.48402 8.67569C3.06124 12.3392 6.79671 14.7066 11 14.7066C15.2033 14.7066 18.9388 12.3392 20.516 8.67485C20.7003 8.24563 20.7003 7.75353 20.516 7.32431Z" fill="#31394C"/>
<path d="M11 11.3533C12.9362 11.3533 14.5107 9.84937 14.5107 8.00003C14.5107 6.15068 12.9362 4.64673 11 4.64673C9.06377 4.64673 7.48918 6.15068 7.48918 8.00003C7.48918 9.84937 9.06377 11.3533 11 11.3533ZM11 5.48505C12.4517 5.48505 13.633 6.61344 13.633 8.00003C13.633 9.38662 12.4517 10.515 11 10.515C9.54826 10.515 8.36688 9.38662 8.36688 8.00003C8.36688 6.61344 9.54826 5.48505 11 5.48505Z" fill="#31394C"/>
<path fill-rule="evenodd" clip-rule="evenodd" d="M10.9997 11.8084C13.1865 11.8084 14.9785 10.1083 14.9785 8.00004C14.9785 5.89178 13.1865 4.19165 10.9997 4.19165C8.8128 4.19165 7.02079 5.89178 7.02079 8.00004C7.02079 10.1083 8.8128 11.8084 10.9997 11.8084ZM10.9997 5.94015C12.2007 5.94015 13.1647 6.87237 13.1647 8.00004C13.1647 9.12771 12.2007 10.0599 10.9997 10.0599C9.7986 10.0599 8.83465 9.12771 8.83465 8.00004C8.83465 6.87237 9.7986 5.94015 10.9997 5.94015ZM14.5104 8.00004C14.5104 9.84938 12.9358 11.3533 10.9997 11.3533C9.06346 11.3533 7.48887 9.84938 7.48887 8.00004C7.48887 6.15069 9.06346 4.64674 10.9997 4.64674C12.9358 4.64674 14.5104 6.15069 14.5104 8.00004ZM13.6327 8.00004C13.6327 6.61345 12.4514 5.48506 10.9997 5.48506C9.54794 5.48506 8.36657 6.61345 8.36657 8.00004C8.36657 9.38663 9.54794 10.515 10.9997 10.515C12.4514 10.515 13.6327 9.38663 13.6327 8.00004Z" fill="#31394C"/>
</svg>
