<svg width="12" height="9" viewBox="0 0 12 9" fill="none" xmlns="http://www.w3.org/2000/svg">
<path d="M6.00044 8.74389C8.48799 8.74389 10.6993 7.29762 11.6338 5.05914C11.7822 4.70406 11.7822 4.29616 11.6338 3.94108C10.6993 1.70212 8.48799 0.255859 6.00044 0.255859C3.51289 0.255859 1.30157 1.70212 0.367062 3.94061C0.218652 4.29569 0.218652 4.70358 0.367062 5.05867C1.30157 7.29762 3.51289 8.74389 6.00044 8.74389ZM6.00044 0.727416C8.29314 0.727416 10.3307 2.05909 11.191 4.1198C11.2915 4.36123 11.2915 4.63804 11.191 4.87948C10.3307 6.94065 8.29314 8.27233 6.00044 8.27233C3.70773 8.27233 1.6702 6.94065 0.809899 4.87995C0.709364 4.63851 0.709364 4.36171 0.809899 4.12027C1.6702 2.05909 3.70773 0.727416 6.00044 0.727416Z" fill="#4670DA"/>
<path fill-rule="evenodd" clip-rule="evenodd" d="M11.8689 5.15811C12.0437 4.73979 12.0437 4.2607 11.8689 3.84238C10.8932 1.50479 8.58671 0 6 0C3.41333 0 1.10685 1.50474 0.131147 3.8418C-0.0437164 4.26017 -0.0437164 4.73936 0.131147 5.15773C1.10685 7.49526 3.41333 9 6 9C8.58667 9 10.8931 7.49526 11.8689 5.1582M0.366627 3.94073C1.30113 1.70225 3.51245 0.255988 6 0.255988C8.48755 0.255988 10.6989 1.70225 11.6334 3.94121C11.7818 4.29629 11.7818 4.70418 11.6334 5.05927C10.6989 7.29775 8.48755 8.74401 6 8.74401C3.51245 8.74401 1.30113 7.29775 0.366627 5.0588C0.218216 4.70371 0.218216 4.29582 0.366627 3.94073ZM10.955 4.21868C10.1359 2.25678 8.19367 0.983532 6 0.983532C3.80631 0.983532 1.86407 2.25681 1.04499 4.21922C0.97083 4.39747 0.970841 4.60311 1.04503 4.78135C1.86413 6.74323 3.80635 8.01647 6 8.01647C8.19369 8.01647 10.1359 6.74319 10.955 4.78078C11.0292 4.60254 11.0292 4.39691 10.955 4.21868ZM11.1905 4.11993C10.3302 2.05922 8.2927 0.727545 6 0.727545C3.7073 0.727545 1.66977 2.05922 0.809464 4.1204C0.708928 4.36183 0.708928 4.63864 0.809464 4.88007C1.66977 6.94078 3.7073 8.27246 6 8.27246C8.2927 8.27246 10.3302 6.94078 11.1905 4.8796C11.2911 4.63817 11.2911 4.36136 11.1905 4.11993Z" fill="#4670DA"/>
<path d="M6.00007 6.38623C7.05617 6.38623 7.91504 5.54026 7.91504 4.5C7.91504 3.45974 7.05617 2.61377 6.00007 2.61377C4.94396 2.61377 4.0851 3.45974 4.0851 4.5C4.0851 5.54026 4.94396 6.38623 6.00007 6.38623ZM6.00007 3.08533C6.79191 3.08533 7.4363 3.72004 7.4363 4.5C7.4363 5.27996 6.79191 5.91467 6.00007 5.91467C5.20823 5.91467 4.56384 5.27996 4.56384 4.5C4.56384 3.72004 5.20823 3.08533 6.00007 3.08533Z" fill="#4670DA"/>
<path fill-rule="evenodd" clip-rule="evenodd" d="M5.99963 6.6421C7.19246 6.6421 8.16992 5.68578 8.16992 4.49988C8.16992 3.31399 7.19246 2.35767 5.99963 2.35767C4.80681 2.35767 3.82934 3.31399 3.82934 4.49988C3.82934 5.68578 4.80681 6.6421 5.99963 6.6421ZM5.99963 3.3412C6.65475 3.3412 7.18054 3.86557 7.18054 4.49988C7.18054 5.1342 6.65475 5.65857 5.99963 5.65857C5.34451 5.65857 4.81872 5.1342 4.81872 4.49988C4.81872 3.86557 5.34451 3.3412 5.99963 3.3412ZM7.9146 4.49988C7.9146 5.54014 7.05574 6.38612 5.99963 6.38612C4.94353 6.38612 4.08466 5.54014 4.08466 4.49988C4.08466 3.45963 4.94353 2.61365 5.99963 2.61365C7.05574 2.61365 7.9146 3.45963 7.9146 4.49988ZM7.43586 4.49988C7.43586 3.71993 6.79147 3.08521 5.99963 3.08521C5.20779 3.08521 4.5634 3.71993 4.5634 4.49988C4.5634 5.27984 5.20779 5.91456 5.99963 5.91456C6.79147 5.91456 7.43586 5.27984 7.43586 4.49988Z" fill="#4670DA"/>
</svg>
