<svg width="24" height="24" viewBox="0 0 24 24" fill="none" xmlns="http://www.w3.org/2000/svg">
<g opacity="0.8">
<mask id="path-1-inside-1" fill="white">
<path fill-rule="evenodd" clip-rule="evenodd" d="M6 0C2.68629 0 0 2.68629 0 6V18C0 21.3137 2.68629 24 6 24H13.2371H18C21.3137 24 24 21.3137 24 18V6C24 2.68629 21.3137 0 18 0H6ZM13.2371 24L13.2508 16.2236H16.0061C16.2539 16.2236 16.4626 16.0428 16.4917 15.8029L16.7965 13.2963C16.831 13.0127 16.6038 12.7634 16.3109 12.7634H13.2371V10.6666C13.2371 9.71564 13.508 9.06766 14.9069 9.06766L16.2022 9.06708C16.4721 9.06692 16.691 8.85355 16.691 8.59036V6.47672C16.691 6.21342 16.472 6 16.2019 6H14.0912C11.5189 6 9.75785 7.5305 9.75785 10.3413V12.7634H7.68905C7.41823 12.7634 7.19897 12.9779 7.2 13.2419L7.20994 15.7486C7.21098 16.0111 7.42959 16.2234 7.69894 16.2234H9.7715L9.7578 23.9999L13.2371 24Z"/>
</mask>
<path d="M13.2508 16.2236V14.7236H11.7535L11.7508 16.2209L13.2508 16.2236ZM16.4917 15.8029L15.0027 15.6219L15.0027 15.6219L16.4917 15.8029ZM16.7965 13.2963L15.3075 13.115L15.3075 13.1152L16.7965 13.2963ZM13.2371 12.7634H11.7371V14.2634H13.2371V12.7634ZM14.9069 9.06766V10.5677H14.9075L14.9069 9.06766ZM16.2022 9.06708L16.2029 10.5671H16.2031L16.2022 9.06708ZM9.75785 12.7634V14.2634H11.2579V12.7634H9.75785ZM7.2 13.2419L5.70002 13.2478L5.70002 13.2479L7.2 13.2419ZM7.20994 15.7486L8.70993 15.7427V15.7426L7.20994 15.7486ZM9.7715 16.2234L11.2715 16.2261L11.2741 14.7234H9.7715V16.2234ZM9.7578 23.9999L8.2578 23.9972L8.25515 25.4998L9.75775 25.4999L9.7578 23.9999ZM1.5 6C1.5 3.51472 3.51472 1.5 6 1.5V-1.5C1.85786 -1.5 -1.5 1.85786 -1.5 6H1.5ZM1.5 18V6H-1.5V18H1.5ZM6 22.5C3.51472 22.5 1.5 20.4853 1.5 18H-1.5C-1.5 22.1421 1.85786 25.5 6 25.5V22.5ZM13.2371 22.5H6V25.5H13.2371V22.5ZM18 22.5H13.2371V25.5H18V22.5ZM22.5 18C22.5 20.4853 20.4853 22.5 18 22.5V25.5C22.1421 25.5 25.5 22.1421 25.5 18H22.5ZM22.5 6V18H25.5V6H22.5ZM18 1.5C20.4853 1.5 22.5 3.51472 22.5 6H25.5C25.5 1.85786 22.1421 -1.5 18 -1.5V1.5ZM6 1.5H18V-1.5H6V1.5ZM14.7371 24.0026L14.7508 16.2262L11.7508 16.2209L11.7371 23.9974L14.7371 24.0026ZM13.2508 17.7236H16.0061V14.7236H13.2508V17.7236ZM16.0061 17.7236C16.9824 17.7236 17.8565 17.006 17.9808 15.984L15.0027 15.6219C15.0686 15.0796 15.5254 14.7236 16.0061 14.7236V17.7236ZM17.9808 15.984L18.2856 13.4773L15.3075 13.1152L15.0027 15.6219L17.9808 15.984ZM18.2855 13.4775C18.434 12.2579 17.4608 11.2634 16.3109 11.2634V14.2634C15.7468 14.2634 15.2281 13.7676 15.3075 13.115L18.2855 13.4775ZM16.3109 11.2634H13.2371V14.2634H16.3109V11.2634ZM14.7371 12.7634V10.6666H11.7371V12.7634H14.7371ZM14.7371 10.6666C14.7371 10.5821 14.7402 10.5159 14.745 10.4641C14.7498 10.4123 14.7557 10.3826 14.7589 10.3697C14.7645 10.3467 14.7528 10.4097 14.6826 10.491C14.649 10.5299 14.613 10.5599 14.5809 10.5807C14.5501 10.6007 14.5327 10.606 14.5392 10.6038C14.5467 10.6012 14.5773 10.5918 14.6393 10.5832C14.7014 10.5746 14.7888 10.5677 14.9069 10.5677V7.56766C14.0181 7.56766 13.0688 7.76985 12.4122 8.53005C11.7963 9.24313 11.7371 10.1218 11.7371 10.6666H14.7371ZM14.9075 10.5677L16.2029 10.5671L16.2015 7.56708L14.9062 7.56766L14.9075 10.5677ZM16.2031 10.5671C17.2646 10.5664 18.191 9.71768 18.191 8.59036H15.191C15.191 7.98942 15.6797 7.56738 16.2013 7.56708L16.2031 10.5671ZM18.191 8.59036V6.47672H15.191V8.59036H18.191ZM18.191 6.47672C18.191 5.34901 17.2639 4.5 16.2019 4.5V7.5C15.68 7.5 15.191 7.07783 15.191 6.47672H18.191ZM16.2019 4.5H14.0912V7.5H16.2019V4.5ZM14.0912 4.5C12.5113 4.5 11.0218 4.97403 9.91916 6.0364C8.8072 7.10775 8.25785 8.61451 8.25785 10.3413H11.2579C11.2579 9.2573 11.589 8.59341 12.0007 8.1968C12.4216 7.79122 13.0988 7.5 14.0912 7.5V4.5ZM8.25785 10.3413V12.7634H11.2579V10.3413H8.25785ZM9.75785 11.2634H7.68905V14.2634H9.75785V11.2634ZM7.68905 11.2634C6.62414 11.2634 5.69557 12.1169 5.70002 13.2478L8.69999 13.236C8.70236 13.8389 8.21233 14.2634 7.68905 14.2634V11.2634ZM5.70002 13.2479L5.70995 15.7545L8.70993 15.7426L8.69999 13.236L5.70002 13.2479ZM5.70995 15.7545C5.7144 16.8787 6.6395 17.7234 7.69894 17.7234V14.7234C8.21968 14.7234 8.70756 15.1435 8.70993 15.7427L5.70995 15.7545ZM7.69894 17.7234H9.7715V14.7234H7.69894V17.7234ZM8.27151 16.2208L8.2578 23.9972L11.2578 24.0025L11.2715 16.2261L8.27151 16.2208ZM9.75775 25.4999L13.2371 25.5L13.2371 22.5L9.75784 22.4999L9.75775 25.4999Z" fill="#4267B2" mask="url(#path-1-inside-1)"/>
</g>
</svg>
