<svg width="96" height="96" viewBox="0 0 96 96" fill="none" xmlns="http://www.w3.org/2000/svg">
<path opacity="0.3" fill-rule="evenodd" clip-rule="evenodd" d="M92.8967 16.8317C92.679 13.1584 89.7141 10.1815 86.0572 9.96436C81.8867 9.71664 78.4205 12.9901 78.3209 17.0942C78.3112 17.4963 78.1408 17.8776 77.8577 18.1618C77.5106 18.5105 76.9629 18.3484 76.6158 17.9997C73.6993 15.0699 71.4325 12.7928 71.5048 12.8654C69.8649 11.218 67.2913 10.9572 65.3656 12.2553C45.7746 25.4606 32.4627 37.6859 19.3171 57.3658C16.393 61.7493 16.3918 67.317 19.3171 70.8292C19.5964 71.1098 20.1722 71.6983 20.9404 72.4867C21.3165 72.8728 21.0429 73.5211 20.5039 73.5211L20.5038 73.521C20.5038 73.521 20.5037 73.521 20.5037 73.521C20.5037 73.5211 20.5038 73.5211 20.5038 73.5211H20.5039C21.1545 74.1747 21.1219 75.2547 20.4065 75.8657C20.1289 76.1029 19.7719 76.2312 19.4077 76.2418C15.3089 76.3607 12.0522 79.8837 12.3489 84.1C12.6114 87.8311 15.5737 90.7228 19.2936 90.8888C23.4145 91.0725 26.8204 87.8208 26.9191 83.7531C26.9288 83.3509 27.0992 82.9697 27.3823 82.6855C27.8502 82.2155 28.5375 82.1003 29.113 82.3399C29.3246 82.428 29.6261 82.2919 29.6261 82.0626C29.6261 81.8317 29.9071 81.7181 30.068 81.8837C31.8302 83.6973 33.2409 85.1459 33.7327 85.6399C35.3727 87.2873 37.9462 87.5481 39.872 86.25C59.463 73.0447 76.3033 56.128 89.4489 36.4481C90.7411 34.5134 90.4815 31.9282 88.8415 30.281C88.7831 30.2223 87.1461 28.5778 84.8992 26.3207C84.5509 25.9709 84.3881 25.4214 84.7363 25.0716C85.0194 24.7872 85.3989 24.6161 85.7991 24.6063C89.8863 24.5065 93.1451 21.0219 92.8967 16.8317Z" fill="#B09C9A"/>
<path d="M85.4668 20.3756C87.9796 20.3145 90.333 19.289 92.0931 17.4878C93.8571 15.683 94.8284 13.2993 94.8284 10.7756C94.8284 5.64672 93.4014 1.64625 85.8065 1.18935C80.4514 0.867186 75.756 5.17016 75.6248 10.5331C75.6171 10.8629 75.1768 11.0593 74.9119 10.7959L70.2758 6.15983C67.9113 3.79752 64.278 3.52112 61.6162 5.3074C50.5422 12.7381 42.7309 17.4878 30.7157 30.7172C18.7005 43.9467 12.7364 50.5441 5.30586 61.6181C3.51519 64.2863 3.80001 67.9189 6.16013 70.2792L10.794 74.9131C11.0397 75.1584 10.906 75.6157 10.488 75.6274C7.85349 75.7035 5.42568 76.8241 3.65257 78.7829C1.88074 80.7404 1.00781 83.2754 1.19477 85.9216C1.64169 92.2476 5.46903 94.604 10.3382 94.8201C10.4853 94.8267 10.6316 94.83 10.7778 94.83C13.2213 94.83 15.5324 93.9219 17.3262 92.2476C19.2281 90.4719 20.3104 88.0646 20.3739 85.4689C20.3814 85.1489 20.8171 84.9384 21.086 85.2051L25.7205 89.8395C28.0804 92.1993 31.713 92.4843 34.3817 90.6936C45.4557 83.263 53.4383 76.1288 65.2821 65.284C77.1259 54.4392 83.2612 45.4576 90.6921 34.3836C92.4826 31.7147 92.1976 28.0827 89.8378 25.7224L85.2045 21.089C84.9321 20.8168 85.151 20.3829 85.4668 20.3756ZM82.99 18.8743L82.0442 17.9286C81.5084 17.3932 80.6399 17.3928 80.1039 17.9286C79.5681 18.4646 79.5681 19.3331 80.1039 19.8689L83.2634 23.0284L83.2649 23.0299L87.8975 27.6623C89.3117 29.0769 89.487 31.2547 88.4136 32.8547C74.9119 54.4392 54.916 73.6108 32.853 88.4151C31.2537 89.4883 29.075 89.3138 27.6608 87.8992L19.7324 79.9708C19.1964 79.4352 18.3279 79.4352 17.7921 79.9708C17.2563 80.5068 17.2563 81.3753 17.7921 81.9111L18.8726 82.9917C18.0751 83.6019 17.6529 84.4924 17.6306 85.4017C17.5854 87.2544 17.748 88.8781 16.3894 90.1465C15.0318 91.4138 12.3956 91.399 10.5358 91.3172C7.05925 91.1629 4.17666 89.1944 3.93172 85.7281C3.798 83.8348 4.04038 82.1786 5.30586 80.7807C6.57281 79.3815 8.68672 78.4245 10.5678 78.3702C11.4974 78.3429 12.4014 77.9253 13.0093 77.1281L13.904 78.0228C14.4401 78.5586 15.3085 78.5584 15.8443 78.0228C16.3801 77.4869 16.3801 76.6183 15.8443 76.0825L8.10044 68.3387C6.68897 66.9276 6.50842 64.7498 7.58422 63.1467C21.086 42.1465 41.0818 22.3904 63.145 7.58575C64.7474 6.51051 66.9253 6.68977 68.3372 8.10197L76.2138 15.9786C76.7498 16.5142 77.6183 16.5142 78.1541 15.9786C78.6899 15.4426 78.6899 14.5741 78.1541 14.0383L77.1259 13.0101C77.9174 12.4029 78.3453 11.5172 78.3678 10.6C78.4605 6.80191 81.7362 3.69471 85.6437 3.92813C90.6921 4.22969 92.0845 7.10355 92.0845 10.7756C92.0845 14.4671 89.0858 17.543 85.3998 17.6325C84.487 17.6548 83.5996 18.0793 82.99 18.8743Z" fill="#31394D" stroke="#31394D"/>
</svg>
