<svg width="16" height="17" viewBox="0 0 16 17" fill="none" xmlns="http://www.w3.org/2000/svg">
<rect y="0.5" width="16" height="16" rx="4" fill="#D7C049"/>
<path d="M8.84457 13.3697C7.8879 13.7375 6.60362 13.3507 6.60362 12.1856C6.60362 11.889 6.63985 11.598 6.72347 11.2077L7.1985 9.35408C7.2825 8.99673 7.34769 8.67715 7.34769 8.41345C7.34769 7.96956 7.15002 7.78039 6.70787 7.78039C6.46385 7.78039 6.18278 7.88638 6 7.96383L6.12547 7.39283C6.74766 7.11264 7.31811 6.88322 7.82335 6.88322C8.71275 6.88322 9.62047 7.17243 9.62047 8.19761C9.62047 9.50145 8.87765 10.6819 8.87765 11.9698C8.87765 12.4221 9.10009 12.6056 9.54307 12.6056C9.77849 12.6056 10.0405 12.5283 10.2497 12.4215C9.8206 12.914 9.46135 13.1332 8.84457 13.3697ZM9.66916 5.49021C9.44881 5.7164 9.18352 5.82949 8.87328 5.82949C8.56367 5.82949 8.2965 5.7164 8.07428 5.49021C7.85331 5.26402 7.74157 4.98886 7.74157 4.66751C7.74157 4.34684 7.85393 4.07099 8.07428 3.84273C8.2965 3.61379 8.56367 3.5 8.87328 3.5C9.18352 3.5 9.44944 3.61379 9.66916 3.84273C9.88951 4.07099 10 4.34684 10 4.66751C10 4.98955 9.88951 5.26402 9.66916 5.49021Z" fill="white"/>
</svg>
