<svg width="16" height="16" viewBox="0 0 16 16" fill="none" xmlns="http://www.w3.org/2000/svg">
<rect width="16" height="16" rx="4" fill="#EB5769"/>
<path d="M8.84457 12.8697C7.8879 13.2375 6.60362 12.8507 6.60362 11.6856C6.60362 11.389 6.63985 11.098 6.72347 10.7077L7.1985 8.85408C7.2825 8.49673 7.34769 8.17715 7.34769 7.91345C7.34769 7.46956 7.15002 7.28039 6.70787 7.28039C6.46385 7.28039 6.18278 7.38638 6 7.46383L6.12547 6.89283C6.74766 6.61264 7.31811 6.38322 7.82335 6.38322C8.71275 6.38322 9.62047 6.67243 9.62047 7.69761C9.62047 9.00145 8.87765 10.1819 8.87765 11.4698C8.87765 11.9221 9.10009 12.1056 9.54307 12.1056C9.77849 12.1056 10.0405 12.0283 10.2497 11.9215C9.8206 12.414 9.46135 12.6332 8.84457 12.8697ZM9.66916 4.99021C9.44881 5.2164 9.18352 5.32949 8.87328 5.32949C8.56367 5.32949 8.2965 5.2164 8.07428 4.99021C7.85331 4.76402 7.74157 4.48886 7.74157 4.16751C7.74157 3.84684 7.85393 3.57099 8.07428 3.34273C8.2965 3.11379 8.56367 3 8.87328 3C9.18352 3 9.44944 3.11379 9.66916 3.34273C9.88951 3.57099 10 3.84684 10 4.16751C10 4.48955 9.88951 4.76402 9.66916 4.99021Z" fill="white"/>
</svg>
