<svg width="24" height="24" viewBox="0 0 24 24" fill="none" xmlns="http://www.w3.org/2000/svg">
<rect x="0.75" y="0.75" width="22.5" height="22.5" rx="11.25" stroke="#ADB0B8" stroke-width="1.5"/>
<path d="M23.25 12C23.25 12.39 23.0555 12.8375 22.5416 13.3234C22.0263 13.8108 21.2402 14.2843 20.2067 14.6977C18.1439 15.5228 15.2427 16.0499 12 16.0499C8.75728 16.0499 5.85609 15.5228 3.79326 14.6977C2.75977 14.2843 1.97374 13.8108 1.45835 13.3234C0.944545 12.8375 0.75 12.39 0.75 12C0.75 11.6099 0.944545 11.1624 1.45835 10.6765C1.97374 10.1891 2.75977 9.71559 3.79326 9.3022C5.85609 8.47707 8.75728 7.94995 12 7.94995C15.2427 7.94995 18.1439 8.47707 20.2067 9.3022C21.2402 9.71559 22.0263 10.1891 22.5416 10.6765C23.0555 11.1624 23.25 11.6099 23.25 12Z" stroke="#ADB0B8" stroke-width="1.5"/>
<path d="M12.0002 23.25C10.3789 23.25 8.78299 22.1508 7.55215 20.0994C6.33026 18.0629 5.5502 15.2011 5.5502 12C5.5502 8.79885 6.33026 5.93707 7.55215 3.90059C8.78299 1.84918 10.3789 0.75 12.0002 0.75C13.6215 0.75 15.2174 1.84918 16.4482 3.90059C17.6701 5.93707 18.4502 8.79885 18.4502 12C18.4502 15.2011 17.6701 18.0629 16.4482 20.0994C15.2174 22.1508 13.6215 23.25 12.0002 23.25Z" stroke="#ADB0B8" stroke-width="1.5"/>
<path d="M12 1.19995V22.7999" stroke="#ADB0B8" stroke-width="1.5"/>
</svg>
