<svg width="20" height="19" viewBox="0 0 20 19" fill="none" xmlns="http://www.w3.org/2000/svg">
<rect x="4" y="12.001" width="12" height="6" rx="2" stroke="#31394D" stroke-width="2" stroke-linecap="round"/>
<path fill-rule="evenodd" clip-rule="evenodd" d="M4.33333 7.33073C4.33333 7.69892 4.03486 7.9974 3.66667 7.9974C3.29848 7.9974 3 7.69892 3 7.33073C3 6.96254 3.29848 6.66406 3.66667 6.66406C4.03486 6.66406 4.33333 6.96254 4.33333 7.33073ZM6.32943 7.33073C6.32943 7.69892 6.03095 7.9974 5.66276 7.9974C5.29457 7.9974 4.99609 7.69892 4.99609 7.33073C4.99609 6.96254 5.29457 6.66406 5.66276 6.66406C6.03095 6.66406 6.32943 6.96254 6.32943 7.33073Z" fill="#31394D"/>
<path d="M4 3.00098C4 1.89641 4.89543 1.00098 6 1.00098H14C15.1046 1.00098 16 1.89641 16 3.00098V4.00098H4V3.00098Z" stroke="#31394D" stroke-width="2" stroke-linecap="round"/>
<path d="M3.25 15.001V15.001C2.00736 15.001 1 13.9936 1 12.751V7.00098C1 5.34412 2.34315 4.00098 4 4.00098H16C17.6569 4.00098 19 5.34412 19 7.00098V13.0724C19 14.1375 18.1365 15.001 17.0714 15.001V15.001" stroke="#31394D" stroke-width="2" stroke-linecap="round"/>
</svg>
