<svg width="16" height="14" viewBox="0 0 16 14" fill="none" xmlns="http://www.w3.org/2000/svg">
<path d="M7.99997 3.25091L7.40017 2.45183C7.14027 2.10557 6.84994 1.81487 6.53544 1.58056L6.5354 1.58053C5.91963 1.12171 5.23078 0.893066 4.4696 0.893066C3.43144 0.893066 2.49292 1.29123 1.81108 2.00367L7.99997 3.25091ZM7.99997 3.25091L8.5998 2.45186M7.99997 3.25091L8.5998 2.45186M8.5998 2.45186C8.85985 2.10544 9.15011 1.81482 9.46453 1.58049C10.0804 1.12168 10.7693 0.893066 11.5304 0.893066C12.5686 0.893066 13.507 1.29123 14.1888 2.00371C14.8638 2.70913 15.25 3.68746 15.25 4.77557C15.25 5.85522 14.8431 6.8815 13.8446 8.04209L13.8446 8.04212C12.9278 9.10796 11.5943 10.206 9.96514 11.5435L9.96507 11.5435L9.95042 11.5556C9.40371 12.0045 8.78125 12.5157 8.13504 13.0601L8.13465 13.0604C8.1017 13.0882 8.05413 13.1074 8 13.1074C7.94593 13.1074 7.89847 13.0884 7.86516 13.0602L7.86465 13.0598C7.21362 12.5114 6.58708 11.997 6.03759 11.5458L6.03528 11.5439L6.03524 11.5438M8.5998 2.45186L6.03524 11.5438M6.03524 11.5438C4.40588 10.2061 3.07231 9.10798 2.1555 8.04223M6.03524 11.5438L1.81102 2.00374C1.13614 2.70916 0.75 3.68748 0.75 4.77569C0.75 5.85517 1.15703 6.88146 2.1555 8.04223M2.1555 8.04223L1.58691 8.53132L2.1555 8.04223Z" fill="#EB5769" stroke="#EB5769" stroke-width="1.5"/>
</svg>
