<svg width="48" height="45" viewBox="0 0 48 45" fill="none" xmlns="http://www.w3.org/2000/svg">
<path d="M7.18823 39.0697C6.98826 39.0731 6.98826 39.0733 6.98827 39.0734L6.98827 39.0738L6.98829 39.0748L6.98837 39.0783L6.98873 39.0902C6.98908 39.1004 6.98966 39.1151 6.99063 39.1338C6.99257 39.1714 6.99606 39.2254 7.00229 39.2937C7.01474 39.4302 7.03819 39.6237 7.08226 39.8554C7.17025 40.3179 7.34134 40.9373 7.67486 41.5588C8.00885 42.1813 8.50722 42.8084 9.24937 43.2794C9.99245 43.751 10.9687 44.0588 12.2463 44.0588C13.524 44.0588 14.5002 43.751 15.2433 43.2794C15.9855 42.8084 16.4838 42.1813 16.8178 41.5588C17.1513 40.9373 17.3224 40.3179 17.4104 39.8554C17.4545 39.6237 17.4779 39.4302 17.4904 39.2937C17.4966 39.2254 17.5001 39.1714 17.5021 39.1338C17.5025 39.1252 17.5029 39.1174 17.5032 39.1105C17.5035 39.1025 17.5038 39.0957 17.504 39.0902L17.5043 39.0783L17.5044 39.0748L17.5044 39.0738L17.5044 39.0734C17.5044 39.0733 17.5044 39.0731 17.3045 39.0697L17.5045 39.0731V39.0697V25.4661C17.5045 25.2582 17.6517 25.1206 17.8143 25.1206H37.6899C38.002 25.1206 38.2335 24.9238 38.3348 24.6795C38.4356 24.4365 38.4153 24.1323 38.2239 23.8909L38.2235 23.8904C37.4168 22.8802 36.9313 21.5283 36.9313 20.0443C36.9313 18.4667 37.4847 17.4666 38.3547 16.8517C39.2374 16.2278 40.476 15.9788 41.8811 15.9788H41.8812H41.8813H41.8813H41.8814H41.8814H41.8815H41.8816H41.8816H41.8817H41.8817H41.8818H41.8819H41.8819H41.882H41.882H41.8821H41.8821H41.8822H41.8822H41.8823H41.8824H41.8824H41.8825H41.8825H41.8826H41.8826H41.8827H41.8827H41.8828H41.8828H41.8829H41.8829H41.883H41.8831H41.8831H41.8832H41.8832H41.8833H41.8833H41.8834H41.8834H41.8835H41.8835H41.8836H41.8836H41.8837H41.8837H41.8838H41.8838H41.8839H41.8839H41.884H41.884H41.8841H41.8841H41.8842H41.8842H41.8843H41.8843H41.8843H41.8844H41.8844H41.8845H41.8845H41.8846H41.8846H41.8847H41.8847H41.8848H41.8848H41.8849H41.8849H41.8849H41.885H41.885H41.8851H41.8851H41.8852H41.8852H41.8853H41.8853H41.8853H41.8854H41.8854H41.8855H41.8855H41.8856H41.8856H41.8857H41.8857H41.8857H41.8858H41.8858H41.8859H41.8859H41.8859H41.886H41.886H41.8861H41.8861H41.8862H41.8862H41.8862H41.8863H41.8863H41.8864H41.8864H41.8864H41.8865H41.8865H41.8866H41.8866H41.8866H41.8867H41.8867H41.8867H41.8868H41.8868H41.8869H41.8869H41.8869H41.887H41.887H41.8871H41.8871H41.8871H41.8872H41.8872H41.8872H41.8873H41.8873H41.8874H41.8874H41.8874H41.8875H41.8875H41.8875H41.8876H41.8876H41.8876H41.8877H41.8877H41.8878H41.8878H41.8878H41.8879H41.8879H41.8879H41.888H41.888H41.888H41.8881H41.8881H41.8881H41.8882H41.8882H41.8882H41.8883H41.8883H41.8883H41.8884H41.8884H41.8884H41.8885H41.8885H41.8885H41.8886H41.8886H41.8886H41.8887H41.8887H41.8887H41.8888H41.8888H41.8888H41.8889H41.8889H41.8889H41.889H41.889H41.889H41.8891H41.8891H41.8891H41.8892H41.8892H41.8892H41.8893H41.8893H41.8893H41.8894H41.8894H41.8894H41.8895H41.8895H41.8895H41.8896H41.8896H41.8896H41.8896H41.8897H41.8897H41.8897H41.8898H41.8898H41.8898H41.8899H41.8899H41.8899H41.89H41.89H41.89H41.8901H41.8901H41.8901H41.8901H41.8902H41.8902H41.8902H41.8903H41.8903H41.8903H41.8904H41.8904H41.8904H41.8904H41.8905H41.8905H41.8905H41.8906H41.8906H41.8907H41.8907H41.8907H41.8908H41.8908H41.8908H41.8908H41.8909H41.8909H41.891H41.891H41.891H41.8911H41.8911H41.8911H41.8912H41.8912H41.8912H41.8913H41.8913H41.8913H41.8914H41.8914H41.8914H41.8915H41.8915H41.8916H41.8916H41.8916H41.8917H41.8917H41.8917H41.8918H41.8918H41.8918H41.8919H41.8919H41.8919H41.892H41.892H41.892H41.8921H41.8921H41.8922H41.8922H41.8922H41.8923H41.8923H41.8923H41.8923H41.8924H41.8924H41.8924H41.8925H41.8925H41.8925H41.8926H41.8926H41.8926H41.8926H41.8927H41.8927H41.8927H41.8928H41.8928H41.8928H41.8929H41.8929H41.8929H41.893H41.893H41.893H41.8931H41.8931H41.8931H41.8931H41.8932H41.8932H41.8932H41.8933H41.8933H41.8933H41.8934H41.8934H41.8934H41.8935H41.8935H41.8935H41.8936H41.8936H41.8936H41.8937H41.8937H41.8937H41.8938H41.8938H41.8938H41.8939H41.8939H41.8939H41.894H41.894H41.894H41.8941H41.8941H41.8941H41.8941H41.8942H41.8942H41.8943H41.8943H41.8943H41.8944H41.8944H41.8944H41.8945H41.8945H41.8945H41.8946H41.8946H41.8946H41.8947H41.8947H41.8947H41.8948H41.8948H41.8948H41.8949H41.8949H41.8949H41.895H41.895H41.8951H41.8951H41.8951H41.8952H41.8952H41.8952H41.8953H41.8953H41.8953H41.8954H41.8954H41.8955H41.8955H41.8955H41.8956H41.8956H41.8956H41.8957H41.8957H41.8958H41.8958H41.8958H41.8959H41.8959H41.896H41.896H41.896H41.8961H41.8961H41.8961H41.8962H41.8962H41.8963H41.8963H41.8963H41.8964H41.8964H41.8965H41.8965H41.8965H41.8966H41.8966H41.8967H41.8967H41.8968H41.8968H41.8968H41.8969H41.8969H41.897H41.897H41.897H41.8971H41.8971H41.8972H41.8972H41.8973H41.8973H41.8974H41.8974H41.8974H41.8975H41.8975H41.8976H41.8976H41.8977H41.8977H41.8978H41.8978H41.8978H41.8979H41.8979H41.898H41.898H41.8981H41.8981H41.8982H41.8982H41.8983H41.8983H41.8984H41.8984H41.8984H41.8985H41.8985H41.8986H41.8986H41.8987H41.8987H41.8988H41.8988H41.8989H41.8989H41.899H41.899H41.8991H41.8991H41.8992H41.8992H41.8993H41.8993H41.8994H41.8994H41.8995H41.8995H41.8996H41.8996H41.8997H41.8998H41.8998H41.8999H41.8999H41.9H41.9H41.9001H41.9001H41.9002H41.9002H41.9003H41.9003H41.9004H41.9005H41.9005H41.9006H41.9006H41.9007H41.9007H41.9008H41.9008H41.9009H41.901H41.901H41.9011H41.9011H41.9012H41.9013H41.9013H41.9014H41.9014H41.9015H41.9016H41.9018H41.902H41.9023H41.9025H41.9027H41.903H41.9032H41.9035H41.9037H41.9039H41.9042H41.9044H41.9047H41.9049H41.9051H41.9054H41.9056H41.9059H41.9061H41.9063H41.9066H41.9068H41.907H41.9073H41.9075H41.9078H41.908H41.9082H41.9085H41.9087H41.909H41.9092H41.9094H41.9097H41.9099H41.9102H41.9104H41.9106H41.9109H41.9111H41.9114H41.9116H41.9118H41.9121H41.9123H41.9126H41.9128H41.913H41.9133H41.9135H41.9137H41.914H41.9142H41.9145H41.9147H41.9149H41.9152H41.9154H41.9157H41.9159H41.9161H41.9164H41.9166H41.9169H41.9171H41.9173H41.9176H41.9178H41.9181H41.9183H41.9185H41.9188H41.919H41.9193H41.9195H41.9197H41.92H41.9202H41.9205H41.9207H41.921H41.9212H41.9214H41.9217H41.9219H41.9222H41.9224H41.9226H41.9229H41.9231H41.9234H41.9236H41.9238H41.9241H41.9243H41.9246H41.9248H41.925H41.9253H41.9255H41.9258H41.926H41.9263H41.9265H41.9267H41.927H41.9272H41.9275H41.9277H41.9279H41.9282H41.9284H41.9287H41.9289H41.9292H41.9294H41.9296H41.9299H41.9301H41.9304H41.9306H41.9308H41.9311H41.9313H41.9316H41.9318H41.9321H41.9323H41.9325H41.9328H41.933H41.9333H41.9335H41.9338H41.934H41.9342H41.9345H41.9347H41.935H41.9352H41.9355H41.9357H41.936H41.9362H41.9364H41.9367H41.9369H41.9372H41.9374H41.9377H41.9379H41.9381H41.9384H41.9386H41.9389H41.9391H41.9394H41.9396H41.9399H41.9401H41.9403H41.9406H41.9408H41.9411H41.9413H41.9416H41.9418H41.9421H41.9423H41.9426H41.9428H41.943H41.9433H41.9435H41.9438H41.944H41.9443H41.9445H41.9448H41.945H41.9453H41.9455H41.9458H41.946H41.9462H41.9465H41.9467H41.947H41.9472H41.9475H41.9477H41.948H41.9482H41.9485H41.9487H41.949H41.9492H41.9495H41.9497H41.95H41.9502H41.9505H41.9507H41.951H41.9512H41.9515H41.9517H41.9519H41.9522H41.9524H41.9527H41.9529H41.9532H41.9534H41.9537H41.9539H41.9542H41.9544H41.9547H41.9549H41.9552H41.9554H41.9557H41.9559H41.9562H41.9564H41.9567H41.9569H41.9572H41.9574H41.9577H41.9579H41.9582H41.9585H41.9587H41.959H41.9592H41.9595H41.9597H41.96H41.9602H41.9605H41.9607H41.961H41.9612H41.9615H41.9617H41.962H41.9622H41.9625H41.9627H41.963H41.9632H41.9635H41.9638H41.964H41.9643H41.9645H41.9648H41.965H41.9653H41.9655H41.9658H41.966H41.9663H41.9666H41.9668H41.9671H41.9673H41.9676H41.9678H41.9681H41.9683H41.9686H41.9689H41.9691H41.9694H41.9696H41.9699H41.9701H41.9704H41.9707H41.9709H41.9712H41.9714H41.9717H41.9719H41.9722H41.9725H41.9727H41.973H41.9732H41.9735H41.9737H41.974H41.9743H41.9745H41.9748H41.975H41.9753H41.9756H41.9758H41.9761H41.9763H41.9766H41.9769H41.9771H41.9774H41.9776H41.9779H41.9782H41.9784H41.9787H41.979H41.9792H41.9795H41.9797H41.98H41.9803H41.9805H41.9808H41.981H41.9813H41.9816H41.9818H41.9821H41.9824H41.9826H41.9829H41.9832H41.9834H41.9837H41.9839H41.9842H41.9845H41.9847H41.985H41.9853H41.9855H41.9858H41.9861H41.9863H41.9866H41.9869H41.9871H41.9874H41.9877H41.9879H41.9882H41.9885H41.9887H41.989H41.9893H41.9895H41.9898H41.9901H41.9903H41.9906H41.9909H41.9911H41.9914H41.9917H41.9919H41.9922H41.9925H41.9928H41.993H41.9933H41.9936H41.9938H41.9941H41.9944H41.9946H41.9949H41.9952H41.9955H41.9957H41.996H41.9963H41.9965H41.9968H41.9971H41.9974H41.9976H41.9979H41.9982H41.9985H41.9987H41.999H41.9993H41.9995H41.9998H42.0001H42.0004H42.0006H42.0009H42.0012H42.0015H42.0017H42.002H42.0023H42.0026H42.0028H42.0031H42.0034H42.0037H42.0039H42.0042H42.0045H42.0048H42.0051H42.0053H42.0056H42.0059H42.0062H42.0064H42.0067H42.007H42.0073H42.0076H42.0078H42.0081H42.0084H42.0087H42.009H42.0092H42.0095H42.0098H42.0101H42.0104H42.0106H42.0109H42.0112H42.0115H42.0118H42.0121H42.0123H42.0126H42.0129H42.0132H42.0135H42.0138H42.014H42.0143H42.0146H42.0149H42.0152H42.0155H42.0157H42.016H42.0163H42.0166H42.0169H42.0172H42.0175H42.0177H42.018H42.0183H42.0186H42.0189H42.0192H42.0195H42.0198H42.02H42.0203H42.0206H42.0209H42.0212H42.0215H42.0218H42.0221H42.0224H42.0226H42.0229H42.0232H42.0235H42.0238H42.0241H42.0244H42.0247H42.025H42.0253H42.0256H42.0258H42.0261H42.0264H42.0267H42.027H42.0273H42.0276H42.0279H42.0282H42.0285H42.0288H42.0291H42.0294H42.0297H42.03H42.0303H42.0306H42.0308H42.0311H42.0314H42.0317H42.032H42.0323H42.0326H42.0329H42.0332H42.0335H42.0338H42.0341H42.2341V15.7788V14.4807H42.2342L42.234 14.4742C42.2209 14.0663 41.9129 13.7243 41.514 13.7243H17.9061C17.6925 13.7243 17.4943 13.5322 17.4943 13.2697V6.68065C17.4943 6.20844 17.4418 5.72148 17.314 5.2542C17.1305 4.55884 16.7482 3.59017 15.9646 2.79316C15.1752 1.99036 13.9915 1.3752 12.2361 1.3752C10.5549 1.3752 9.39837 1.9392 8.61022 2.69343C7.82712 3.44282 7.42068 4.36723 7.21086 5.07395C7.05097 5.5988 6.98823 6.15352 6.98823 6.70247L6.98823 6.70332L7.01883 13.9022L7.01883 13.9028L6.9882 39.0695L6.98826 39.0731L7.18823 39.0697Z" fill="white" stroke="#31394D" stroke-width="0.4"/>
<path d="M6.36616 39.08V39.0803C6.36616 39.1244 6.40641 40.5252 7.15737 41.9227C7.53447 42.6244 8.09309 43.3294 8.91914 43.8586C9.74625 44.3885 10.8304 44.7348 12.2463 44.7348C13.6623 44.7348 14.7464 44.3885 15.5736 43.8584C16.3996 43.3291 16.9582 42.6236 17.3353 41.9212C18.0863 40.5224 18.1265 39.1188 18.1265 39.0693V25.7857H37.7001C38.2311 25.7857 38.7003 25.474 38.9144 24.9651L38.9151 24.9635C39.1245 24.4531 39.0566 23.8738 38.7131 23.4428L38.7123 23.4419C37.9687 22.5209 37.5635 21.3009 37.5635 20.033C37.5635 19.5851 37.567 18.7454 38.0931 18.0144C38.6103 17.2957 39.6718 16.6333 41.9001 16.633C41.9006 16.633 41.9011 16.633 41.9016 16.633L42.6533 16.6439L42.8562 16.6468V16.4439V14.4693C42.8562 13.6954 42.2692 13.0475 41.514 13.0475H41.5138L18.1265 13.0692V6.68026C18.1265 6.1099 18.0639 5.5682 17.9258 5.0679C17.7529 4.41804 17.3537 3.32833 16.4857 2.39833C15.6115 1.46178 14.2716 0.698437 12.2463 0.698437C10.3497 0.698437 9.05262 1.34791 8.1731 2.20324C7.29855 3.05374 6.84915 4.0954 6.61924 4.86677C6.44993 5.43286 6.36616 6.05232 6.36616 6.69116L6.36616 6.69201L6.39676 13.8909L6.39676 13.8915L6.36616 39.08ZM17.9061 14.8003H41.2019V14.9225C39.0962 15.0435 37.769 15.7366 36.9686 16.7022C36.1486 17.6914 35.9092 18.9335 35.9092 20.0439C35.9092 21.4968 36.3115 22.8969 37.0637 24.0548H17.8143C17.0591 24.0548 16.4722 24.7027 16.4722 25.4766V39.0693C16.4722 39.1333 16.4362 40.1282 15.8875 41.0996C15.3477 42.0552 14.3049 43.0039 12.2463 43.0039C10.1825 43.0039 9.13985 42.055 8.60143 41.101C8.05417 40.1314 8.02051 39.1396 8.02049 39.0803C8.02049 39.0803 8.02049 39.0803 8.02049 39.0803L8.05109 13.9023L8.05108 13.9012L8.02049 6.70207C8.02049 6.70194 8.02049 6.70181 8.02049 6.70168C8.02052 6.22754 8.07963 5.78906 8.1957 5.39565C8.40345 4.70802 8.76306 3.97082 9.39084 3.40624C10.0148 2.8451 10.9193 2.44026 12.2463 2.44026C13.6131 2.44026 14.5338 2.86609 15.161 3.45635C15.7923 4.0505 16.1427 4.82698 16.3359 5.55248C16.4231 5.89512 16.4722 6.28174 16.4722 6.69116V13.2803C16.4722 14.1087 17.0999 14.8003 17.9061 14.8003Z" fill="#31394D" stroke="#31394D" stroke-width="0.4"/>
<path d="M1.46083 22.1417L1.46091 22.1436V22.3463C1.46091 22.8662 1.49187 23.4026 1.58649 23.9201C2.09536 26.7526 3.35503 28.1351 4.51627 28.8007C5.09287 29.1312 5.63722 29.2803 6.03846 29.3468C6.23917 29.38 6.40458 29.3927 6.52107 29.397C6.57934 29.3991 6.62545 29.3991 6.65772 29.3986C6.67386 29.3983 6.68654 29.3979 6.69555 29.3976L6.7038 29.3972H31.2957C31.5807 29.3972 31.8402 29.6547 31.8402 29.9935V39.1354H31.8401L31.8403 39.1414L32.0402 39.1354C31.8403 39.1414 31.8403 39.1415 31.8403 39.1416L31.8403 39.142L31.8403 39.1431L31.8404 39.1465L31.8409 39.1583C31.8414 39.1684 31.8422 39.1828 31.8434 39.2014C31.8458 39.2385 31.8499 39.2919 31.8568 39.3594C31.8708 39.4942 31.8962 39.6855 31.9422 39.9146C32.0341 40.3717 32.2092 40.9838 32.5425 41.598C32.8764 42.2131 33.3706 42.833 34.1009 43.2988C34.8323 43.7652 35.7895 44.0699 37.0371 44.0699C38.2847 44.0699 39.2419 43.7652 39.9732 43.2988C40.7036 42.833 41.1978 42.2131 41.5316 41.598C41.865 40.9838 42.04 40.3717 42.1319 39.9146C42.178 39.6855 42.2034 39.4942 42.2173 39.3594C42.2243 39.2919 42.2284 39.2385 42.2308 39.2014C42.232 39.1828 42.2328 39.1684 42.2332 39.1583L42.2337 39.1465L42.2339 39.1431L42.2339 39.142L42.2339 39.1416C42.2339 39.1416 42.2339 39.1415 42.2208 39.1411C42.2022 39.1405 42.1573 39.1391 42.0488 39.1358L42.234 39.1414V39.1354V18.2881V6.84773L42.234 6.84679L42.2344 6.83385C42.2346 6.82277 42.2349 6.80682 42.235 6.78632C42.2353 6.74532 42.2349 6.68609 42.2325 6.61124C42.2278 6.4616 42.215 6.24908 42.1831 5.99454C42.1193 5.48652 41.9783 4.80555 41.668 4.12179C41.3573 3.43721 40.8746 2.7454 40.1261 2.22522C39.3763 1.7041 38.3728 1.36445 37.0371 1.36445C35.7013 1.36445 34.6979 1.7041 33.9481 2.22522C33.1996 2.7454 32.7169 3.43721 32.4062 4.12179C32.0958 4.80555 31.9549 5.48652 31.8911 5.99454C31.8592 6.24908 31.8464 6.4616 31.8417 6.61124C31.8393 6.68609 31.8389 6.74532 31.8391 6.78632C31.8393 6.80682 31.8395 6.82277 31.8398 6.83385L31.8401 6.84679L31.8402 6.84779V17.6335C31.8402 17.896 31.6419 18.088 31.4284 18.0881C31.4284 18.0881 31.4283 18.0881 31.4283 18.0881L7.98364 18.0772H7.98355C7.69858 18.0772 7.43911 17.8196 7.43911 17.4808V15.0045C7.43911 14.4808 7.03875 14.0287 6.53147 13.9869L6.52954 13.9868C5.15335 13.8869 4.1346 14.3597 3.39271 15.129C2.6581 15.8907 2.20397 16.933 1.92178 17.9668C1.63891 19.0029 1.52415 20.0479 1.47972 20.8314C1.45747 21.2237 1.45278 21.5519 1.45367 21.7824C1.45411 21.8977 1.45595 21.9886 1.4577 22.0511C1.45857 22.0823 1.45942 22.1064 1.46005 22.1229L1.46083 22.1417Z" fill="white" stroke="#31394D" stroke-width="0.4"/>
<path d="M6.56988 13.3209L6.57077 13.321C7.41946 13.384 8.06128 14.1352 8.06128 15.0041V17.4113H31.2182V6.84418C31.2182 6.8443 31.2182 6.84366 31.2182 6.84157L31.218 6.83306L31.2177 6.80439C31.2174 6.78057 31.2173 6.74796 31.2178 6.70735C31.2186 6.62615 31.2217 6.51323 31.2304 6.37472C31.2477 6.09791 31.2876 5.71803 31.3779 5.28423C31.558 4.41875 31.9411 3.3261 32.758 2.41257L32.7583 2.41227C33.7924 1.26032 35.2379 0.687695 37.0372 0.687695C38.8364 0.687695 40.2818 1.26026 41.316 2.41211C42.1331 3.32027 42.5189 4.41311 42.7003 5.28277C42.8729 6.11054 42.8639 6.75354 42.8562 6.87303V18.2768V39.1241V39.1357L42.855 39.1455C42.8551 39.1455 42.8548 39.1492 42.854 39.1613C42.8532 39.1719 42.8522 39.1861 42.8508 39.2035L42.8499 39.2152C42.8462 39.2609 42.8405 39.3249 42.8313 39.4044C42.8131 39.5634 42.7815 39.7846 42.7267 40.0472C42.6173 40.5715 42.4142 41.265 42.0363 41.958C41.2749 43.3543 39.808 44.735 37.027 44.735C34.2461 44.735 32.7791 43.3544 32.019 41.9622C31.2671 40.5852 31.208 39.2041 31.208 39.1568V30.0732H6.68853C6.69822 30.0732 6.61042 30.0773 6.47981 30.072C6.34643 30.0666 6.15791 30.0515 5.93 30.0131C5.47456 29.9364 4.8596 29.7662 4.21295 29.3921M6.56988 13.3209L4.31244 29.2186M6.56988 13.3209C5.10762 13.2189 3.87495 13.6744 2.92314 14.681M6.56988 13.3209L0.82875 22.1444M4.21295 29.3921C4.21272 29.392 4.21249 29.3918 4.21226 29.3917L4.31244 29.2186M4.21295 29.3921C4.21316 29.3922 4.21337 29.3923 4.21358 29.3925L4.31244 29.2186M4.21295 29.3921C3.02724 28.7177 1.5352 27.2364 0.964434 24.0392M4.31244 29.2186C3.18049 28.575 1.7222 27.1459 1.16132 24.0041M0.964434 24.0392C0.964439 24.0392 0.964445 24.0393 0.96445 24.0393L1.16132 24.0041M0.964434 24.0392C0.870136 23.5124 0.82875 22.9548 0.82875 22.3459V22.1444M0.964434 24.0392L1.16132 24.0041M1.16132 24.0041L0.82875 22.1444M0.82875 22.1444C0.828895 22.147 0.829025 22.1493 0.829137 22.151L1.02875 22.1386H0.82875V22.1444ZM0.82875 22.1444C0.821437 22.0105 0.77421 20.7792 1.00183 19.2791C1.23298 17.7556 1.7531 15.9157 2.92314 14.681M2.92314 14.681C2.92309 14.6811 2.92303 14.6811 2.92298 14.6812L3.06828 14.8186L2.92314 14.681ZM31.2855 28.3313H31.2856C32.1613 28.3313 32.8623 29.0863 32.8623 29.9932V39.1283C32.8623 39.1285 32.8624 39.1286 32.8624 39.1288C32.8699 39.2442 32.9318 40.1907 33.4619 41.118C33.9997 42.0589 35.0255 42.9931 37.027 42.9931C39.0285 42.9931 40.0568 42.0589 40.5959 41.1153C40.8686 40.638 41.0181 40.1538 41.0993 39.7775C41.1397 39.5898 41.1629 39.4301 41.176 39.3133C41.1825 39.2548 41.1865 39.2074 41.1888 39.1726C41.1899 39.1553 41.1907 39.1413 41.1911 39.1309L41.1916 39.1183L41.1916 39.1146L41.1916 39.1135V39.1132V18.2877V6.84406C41.1916 6.84326 41.1917 6.84167 41.1917 6.83931C41.1924 6.78391 41.1987 6.30492 41.0708 5.68154C40.9369 5.02908 40.6594 4.23602 40.0909 3.60728C39.3938 2.84136 38.3729 2.44042 37.0168 2.44042C35.6607 2.44042 34.6398 2.84136 33.9426 3.60728L31.2855 28.3313ZM31.2855 28.3313L6.61714 28.3422C6.61711 28.3422 6.61708 28.3422 6.61706 28.3422C6.61529 28.3422 6.61279 28.3423 6.60959 28.3423C6.51038 28.3434 5.73306 28.3518 4.87051 27.816C3.98648 27.2668 2.98173 26.1259 2.55152 23.7299C2.48214 23.316 2.44229 22.8692 2.44229 22.3568V22.1168C2.44229 22.1152 2.44214 22.1102 2.4419 22.102C2.43785 21.9654 2.40732 20.9341 2.58059 19.6912C2.76571 18.3634 3.17753 16.8445 4.05969 15.9164L4.05975 15.9163M31.2855 28.3313L4.05975 15.9163M4.05975 15.9163C4.65862 15.2857 5.41084 14.9977 6.37635 15.0588V17.4913C6.37635 18.3981 7.07734 19.1532 7.95306 19.1532H31.408C32.2142 19.1532 32.8419 18.4616 32.8419 17.6332V6.82224L32.8419 6.82018M4.05975 15.9163L32.8419 6.82018M32.8419 6.82018C32.8413 6.78424 32.8334 6.30668 32.9627 5.67896M32.8419 6.82018L32.9627 5.67896M32.9627 5.67896C33.0966 5.02932 33.374 4.23645 33.9422 3.60775L32.9627 5.67896Z" fill="#31394D" stroke="#31394D" stroke-width="0.4"/>
<path d="M41.8144 14.1251L41.8142 14.1251L41.8138 14.1336L41.7538 15.5682C40.3709 15.5841 39.0861 15.8426 38.133 16.5135C37.1357 17.2155 36.5312 18.348 36.5312 20.0329C36.5312 23.3788 38.9007 26.1347 41.8811 26.1347C43.372 26.1347 44.4781 25.4355 45.2027 24.3157C45.8924 23.2498 46.234 21.8093 46.2605 20.2329H46.2724V20.0329V19.422H46.2724L46.2723 19.4173C46.2361 17.8851 45.9131 16.4949 45.2568 15.4688C44.5951 14.4342 43.5968 13.7758 42.2457 13.724L42.2457 13.7238H42.238C41.9966 13.7238 41.832 13.9173 41.8144 14.1251Z" fill="white" stroke="#31394D" stroke-width="0.4"/>
<path d="M41.192 14.1084L41.1919 14.1084L41.1918 14.1126L41.1584 14.9236C39.0682 15.0537 37.7515 15.7475 36.958 16.71C36.1459 17.695 35.9091 18.9288 35.9091 20.0336C35.9091 23.7515 38.5653 26.8117 41.8811 26.8117C43.4107 26.8117 44.673 26.133 45.5467 24.9394C46.4163 23.7515 46.8945 22.0643 46.8945 20.0445V19.4117H46.8945L46.8944 19.4074C46.8531 17.5054 46.411 15.9479 45.6176 14.8479C44.8197 13.7417 43.6742 13.1105 42.2657 13.0591L42.2657 13.0591L42.2632 13.0591C41.6813 13.0452 41.2283 13.5264 41.192 14.1084ZM42.7835 15.7027L42.784 15.7028L42.7846 15.6886L42.8162 14.8762C43.8045 15.1202 44.3951 15.8668 44.7498 16.747C45.1313 17.6934 45.2249 18.7631 45.2401 19.425V20.0336C45.2401 20.6421 45.1763 21.9195 44.7148 23.0377C44.4848 23.5949 44.1602 24.1022 43.7054 24.4695C43.2539 24.8342 42.6632 25.0699 41.8811 25.0699C39.5298 25.0699 37.5635 22.8426 37.5635 20.0336C37.5635 19.5857 37.5669 18.7459 38.093 18.0149C38.6103 17.2962 39.6722 16.6336 41.9015 16.6336C42.0856 16.6336 42.2906 16.5681 42.4589 16.4129C42.629 16.2562 42.7486 16.0205 42.7835 15.7027Z" fill="#31394D" stroke="#31394D" stroke-width="0.4"/>
</svg>
