<svg width="24" height="24" viewBox="0 0 24 24" fill="none" xmlns="http://www.w3.org/2000/svg">
<g opacity="0.6">
<path d="M8.79122 17C4.94488 17.4177 3.00073 18.5654 3.00073 19.9157C3.00073 21.6191 6.5783 23 12.0007 23C17.4232 23 21.0007 21.6191 21.0007 19.9157C21.0007 18.5871 19.1447 17.4547 15.3949 17.0207" stroke="#31394D" stroke-width="1.5" stroke-linecap="round"/>
<path fill-rule="evenodd" clip-rule="evenodd" d="M11.346 19.667C11.7159 20.0229 12.2856 20.0229 12.6554 19.667C14.5661 17.8285 20.0007 12.282 20.0007 8.6735C20.0007 4.29537 16.8007 1 12.0007 1C7.20073 1 4.00073 4.29537 4.00073 8.6735C4.00073 12.282 9.43534 17.8285 11.346 19.667Z" stroke="#31394D" stroke-width="1.5" stroke-linecap="round"/>
<path fill-rule="evenodd" clip-rule="evenodd" d="M12.0007 12C13.6576 12 15.0007 10.6569 15.0007 9C15.0007 7.34315 13.6576 6 12.0007 6C10.3439 6 9.00073 7.34315 9.00073 9C9.00073 10.6569 10.3439 12 12.0007 12Z" stroke="#31394D" stroke-width="1.5" stroke-linecap="round"/>
</g>
</svg>
