<svg width="24" height="24" viewBox="0 0 24 24" fill="none" xmlns="http://www.w3.org/2000/svg">
<g opacity="0.6">
<circle cx="12" cy="8" r="5.25" stroke="#31394D" stroke-width="1.5" stroke-linecap="round"/>
<mask id="path-2-inside-1" fill="white">
<path d="M5 23C3.34314 23 1.95695 21.6276 2.44664 20.0447C2.92288 18.5054 3.76861 17.0893 4.92893 15.9289C6.8043 14.0536 9.34784 13 12 13C14.6522 13 17.1957 14.0536 19.0711 15.9289C20.2314 17.0893 21.0771 18.5054 21.5534 20.0447C22.043 21.6276 20.6569 23 19 23L12 23L5 23Z"/>
</mask>
<path d="M5 23C3.34314 23 1.95695 21.6276 2.44664 20.0447C2.92288 18.5054 3.76861 17.0893 4.92893 15.9289C6.8043 14.0536 9.34784 13 12 13C14.6522 13 17.1957 14.0536 19.0711 15.9289C20.2314 17.0893 21.0771 18.5054 21.5534 20.0447C22.043 21.6276 20.6569 23 19 23L12 23L5 23Z" stroke="#31394D" stroke-width="3" stroke-linecap="round" mask="url(#path-2-inside-1)"/>
</g>
</svg>
