<svg width="24" height="24" viewBox="0 0 24 24" fill="none" xmlns="http://www.w3.org/2000/svg">
<g opacity="0.6">
<path d="M21.9961 10.3333V9C21.9961 7.34315 20.6529 6 18.9961 6H3.99609C2.33924 6 0.996094 7.34315 0.996094 9V19C0.996094 20.6569 2.33924 22 3.99609 22H18.9961C20.6529 22 21.9961 20.6569 21.9961 19V18.4286" stroke="#31394D" stroke-width="1.5" stroke-linecap="round"/>
<path fill-rule="evenodd" clip-rule="evenodd" d="M13.9961 13C13.9961 11.8954 14.8915 11 15.9961 11L20.9961 11C22.1007 11 22.9961 11.8954 22.9961 13V16C22.9961 17.1046 22.1007 18 20.9961 18H15.9961C14.8915 18 13.9961 17.1046 13.9961 16V13Z" stroke="#31394D" stroke-width="1.5" stroke-linecap="round"/>
<path fill-rule="evenodd" clip-rule="evenodd" d="M17.6008 15.2001C18.0426 15.2001 18.4008 14.8419 18.4008 14.4001C18.4008 13.9583 18.0426 13.6001 17.6008 13.6001C17.159 13.6001 16.8008 13.9583 16.8008 14.4001C16.8008 14.8419 17.159 15.2001 17.6008 15.2001Z" fill="#31394D"/>
<path d="M7.99609 6L14.7593 2.44039C15.2289 2.19329 15.8096 2.35586 16.0826 2.81082L17.9961 6" stroke="#31394D" stroke-width="1.5" stroke-linecap="round"/>
</g>
</svg>
