<svg width="24" height="24" viewBox="0 0 24 24" fill="none" xmlns="http://www.w3.org/2000/svg">
<g opacity="0.6">
<mask id="path-1-inside-1" fill="white">
<path fill-rule="evenodd" clip-rule="evenodd" d="M8.00005 23.2002L9.52614 20.6567C10.0683 19.7531 11.0448 19.2002 12.0986 19.2002H20.2C21.8569 19.2002 23.2 17.857 23.2 16.2002V6.2002C23.2 4.54334 21.8569 3.2002 20.2 3.2002H3.80005C2.14319 3.2002 0.800049 4.54334 0.800049 6.2002V16.2002C0.800049 17.857 2.14319 19.2002 3.80005 19.2002H5.60005"/>
</mask>
<path d="M6.71381 22.4285C6.28759 23.1388 6.51793 24.0602 7.22831 24.4864C7.93868 24.9127 8.86007 24.6823 9.28629 23.9719L6.71381 22.4285ZM5.60005 20.7002C6.42848 20.7002 7.10005 20.0286 7.10005 19.2002C7.10005 18.3718 6.42848 17.7002 5.60005 17.7002V20.7002ZM9.52614 20.6567L8.2399 19.885L9.52614 20.6567ZM9.28629 23.9719L10.8124 21.4285L8.2399 19.885L6.71381 22.4285L9.28629 23.9719ZM12.0986 20.7002H20.2V17.7002H12.0986V20.7002ZM24.7 16.2002V6.2002H21.7V16.2002H24.7ZM20.2 1.7002H3.80005V4.7002H20.2V1.7002ZM-0.699951 6.2002V16.2002H2.30005V6.2002H-0.699951ZM3.80005 20.7002H5.60005V17.7002H3.80005V20.7002ZM-0.699951 16.2002C-0.699951 18.6855 1.31477 20.7002 3.80005 20.7002V17.7002C2.97162 17.7002 2.30005 17.0286 2.30005 16.2002H-0.699951ZM3.80005 1.7002C1.31476 1.7002 -0.699951 3.71492 -0.699951 6.2002H2.30005C2.30005 5.37177 2.97162 4.7002 3.80005 4.7002V1.7002ZM24.7 6.2002C24.7 3.71491 22.6853 1.7002 20.2 1.7002V4.7002C21.0285 4.7002 21.7 5.37177 21.7 6.2002H24.7ZM20.2 20.7002C22.6853 20.7002 24.7 18.6855 24.7 16.2002H21.7C21.7 17.0286 21.0285 17.7002 20.2 17.7002V20.7002ZM10.8124 21.4285C11.0835 20.9766 11.5717 20.7002 12.0986 20.7002V17.7002C10.5179 17.7002 9.05316 18.5295 8.2399 19.885L10.8124 21.4285Z" fill="#31394D" mask="url(#path-1-inside-1)"/>
<path d="M8 9.5H16" stroke="#31394D" stroke-width="1.5" stroke-linecap="round"/>
<path d="M8 12.5H16" stroke="#31394D" stroke-width="1.5" stroke-linecap="round"/>
</g>
</svg>
