<svg width="18" height="16" viewBox="0 0 18 16" fill="none" xmlns="http://www.w3.org/2000/svg">
<path fill="#EB5769" d="M15.7307 2.48519C14.9025 1.61972 13.766 1.14307 12.5304 1.14307C11.6068 1.14307 10.761 1.42438 10.0164 1.97913C9.64062 2.25915 9.30017 2.60174 9 3.0016C8.69995 2.60185 8.35938 2.25915 7.98352 1.97913C7.23901 1.42438 6.39319 1.14307 5.4696 1.14307C4.23401 1.14307 3.09741 1.61972 2.26917 2.48519C1.45081 3.34054 1 4.50907 1 5.77569C1 7.07935 1.50427 8.2727 2.58691 9.53132C3.55542 10.6572 4.94739 11.8001 6.55933 13.1235C7.10974 13.5754 7.73364 14.0877 8.38147 14.6334C8.55261 14.7778 8.77222 14.8574 9 14.8574C9.22766 14.8574 9.44739 14.7778 9.61829 14.6337C10.2661 14.0879 10.8904 13.5753 11.441 13.1231C13.0527 11.7999 14.4447 10.6572 15.4132 9.53121C16.4958 8.2727 17 7.07935 17 5.77557C17 4.50907 16.5492 3.34054 15.7307 2.48519Z" />
</svg>
