<svg width="212" height="200" viewBox="0 0 212 200" fill="none" xmlns="http://www.w3.org/2000/svg">
<path opacity="0.5" d="M83.4684 64.382L80.6851 72.697C78.4896 79.2558 79.2305 86.443 82.7178 92.416L90.6514 106.005C92.0914 108.471 93.9599 110.66 96.1693 112.47L119.369 131.474C126.746 137.516 137 138.618 145.492 134.281L146.224 133.908C152.343 130.783 156.829 125.186 158.547 118.534L165.93 89.9405C166.634 87.217 165.75 84.3291 163.644 82.4647C159.812 79.0728 153.782 80.4408 151.789 85.1543L150.647 87.8573C148.216 93.6049 141.036 95.5378 136.14 91.6681C126.2 83.8106 115.033 74.3901 114.666 71.8338C114.23 68.7912 121.395 58.5586 126.4 52.0213C127.532 50.5426 129.586 50.1564 131.198 51.0886C135.162 53.381 139.005 47.9381 135.518 44.9696L130.301 40.5292C129.119 39.5225 127.492 39.217 126.024 39.7261L98.359 49.3267C91.3302 51.7658 85.8301 57.3268 83.4684 64.382Z" fill="#BFC8D0"/>
<path d="M139.578 95.5918C147.659 95.8127 152.721 87.9786 151.24 80.1186C150.882 78.2277 150.236 76.4027 149.325 74.7071C148.568 73.1214 147.515 71.6948 146.223 70.5037C145.577 70.0037 145.289 70.1262 145.016 70.3001C144.742 70.4739 144.514 70.6893 144.671 71.4659C145.133 73.0183 145.674 74.5464 146.29 76.0442C146.836 77.5434 147.206 79.101 147.393 80.6855C147.923 85.9804 145.037 91.2017 139.687 90.9985C130.655 90.7429 121.328 77.4512 119.025 68.0867C117.772 63.023 116.98 56.1853 121.14 52.992C121.692 52.5228 122.356 52.2036 123.068 52.065C123.414 51.9921 123.768 51.9576 124.122 51.9621C124.491 51.9923 124.858 52.0519 125.218 52.1403C130.216 53.3782 136.35 60.0872 139.644 64.0433C142.844 67.9414 144.723 70.4915 145.016 70.3001C145.512 69.9802 136.837 52.9255 126.143 48.9554C120.533 46.9023 111.147 52.1231 114.814 69.063C117.282 80.586 127.958 95.396 139.578 95.5918Z" fill="#31394D"/>
<path d="M18.0046 112.574C19.3117 113.091 20.7484 113.185 22.1114 112.84C23.1234 113.554 27.612 114.765 33.2322 114.847C36.6075 114.906 39.9796 114.609 43.2926 113.96C44.8816 113.654 46.4532 113.264 48.0006 112.791C49.6175 112.345 51.1087 111.53 52.3567 110.409C53.3433 109.435 54.0798 108.237 54.5034 106.917C54.8254 105.917 55.0375 104.886 55.1361 103.841C55.2791 102.334 55.338 100.821 55.3126 99.3085C55.3066 97.9528 55.1242 96.6037 54.7698 95.2952C66.8924 88.3893 71.8987 85.1916 73.8633 83.5493C76.0104 86.8212 78.5739 89.9964 81.2236 93.3027C85.8041 99.027 87.8811 101.708 97.0924 118.563C98.3711 120.899 99.6424 123.271 100.907 125.681C107.397 138.134 115.61 144.123 129.841 141.429C132.784 140.879 135.646 139.959 138.359 138.692C146.112 135.286 152.935 130.069 158.256 123.48C163.576 116.89 167.237 109.121 168.933 100.824C175.045 71.6523 152.427 33.9236 117.93 25.8868C107.64 23.6398 97.5192 24.4366 83.6593 37.0739C77.9578 42.4286 75.619 45.8485 74.5292 47.6654C73.467 49.5117 73.6681 49.8345 73.9198 50.0124C74.1937 50.2081 74.5076 50.229 75.9696 48.785C79.1082 45.548 82.4069 42.4702 85.8534 39.5632C99.8162 28.1501 108.101 28.014 116.929 30.0928C165.637 42.1659 186.208 111.355 136.619 134.95C122.174 141.827 111.522 137.917 103.962 124.032C96.4363 110.306 90.5106 100.224 83.2452 91.6301C80.365 88.3857 77.662 84.9881 75.1479 81.4523C71.3958 75.7442 69.5219 69.006 69.7883 62.1803C69.8548 59.864 70.3592 57.5812 71.2748 55.4525C72.8013 51.9111 74.0941 50.1232 73.9198 50.0124C73.8573 49.9687 73.4709 50.3593 72.8357 51.185C71.9166 52.4021 71.1071 53.6983 70.4167 55.0582C69.2814 57.2395 68.5944 59.626 68.396 62.0771C68.0966 65.3007 68.2795 68.5509 68.9387 71.7206L68.947 71.7557C65.9641 73.0097 57.8556 77.34 47.907 83.0905C47.6935 82.6631 47.4464 82.2534 47.1677 81.8654C41.5834 74.4968 36.5134 74.2944 30.2103 78.7408C27.5883 80.6361 25.1071 82.719 22.7863 84.973C20.0038 87.4952 17.6373 90.4412 15.7742 93.7019C14.2108 96.4943 13.573 99.7105 13.9527 102.888C14.085 103.929 14.4272 104.933 14.9586 105.837C14.7544 106.666 14.7094 107.526 14.8258 108.372C14.9544 109.275 15.3043 110.131 15.8441 110.866C16.4009 111.616 17.1463 112.205 18.0046 112.574ZM50.99 99.2119C50.898 100.32 50.772 101.806 50.577 103.277C50.5006 104.653 49.9838 105.969 49.1028 107.029C48.351 107.67 47.4743 108.149 46.528 108.434C45.2625 108.88 43.798 109.345 42.3156 109.745C39.2846 110.571 36.1959 111.169 33.0755 111.533C29.5653 111.963 26.3972 112.014 24.3347 112.111C24.8569 111.887 25.3484 111.642 25.8188 111.388L28.3483 110.01L32.9817 107.468C40.1533 103.512 46.115 100.188 51.07 97.39C51.062 97.9267 51.0385 98.5242 50.985 99.2148L50.99 99.2119ZM72.6377 81.5808C70.1034 82.4229 64.558 85.0486 51.99 91.7727C51.7863 91.8134 51.5959 91.904 51.4361 92.0366C51.3911 92.0693 51.3498 92.1038 51.3069 92.1378C23.7305 106.911 21.4648 109.101 19.7837 108.392C19.6546 108.343 19.5402 108.262 19.4513 108.157C19.3496 108.02 19.2832 107.86 19.2581 107.691C18.8181 105.441 20.3515 104.876 44.0043 89.2248C55.8132 81.444 65.8936 74.9564 69.1101 72.4689C69.8361 75.6619 71.0227 78.7323 72.6328 81.5837L72.6377 81.5808ZM15.7856 102.833C16.0766 100.157 17.0555 97.6014 18.6271 95.4158C20.662 92.7124 23.0374 90.2828 25.6942 88.1874C28.3148 85.9695 30.9168 84.019 32.9321 82.5774C38.6775 78.4437 39.6061 80.7339 44.8289 84.2212C45.0257 84.3616 45.1981 84.4736 45.3653 84.5765C44.34 85.1765 43.3005 85.7873 42.2468 86.4089C38.478 88.6354 34.557 90.9989 30.6204 93.414C28.6108 94.6581 20.4277 99.6978 18.8541 100.787C17.6834 101.556 16.6736 102.546 15.881 103.701C15.8169 103.802 15.7729 103.912 15.7141 104.015C15.7181 103.661 15.7352 103.266 15.7794 102.834L15.7856 102.833Z" fill="#31394D"/>
</svg>
