<svg width="129" height="120" viewBox="0 0 129 120" fill="none" xmlns="http://www.w3.org/2000/svg">
<g opacity="0.4">
<path d="M51.5071 70.2518L53.1504 73.9658C54.1962 76.8501 58.5085 75.7689 58.0697 72.7324L56.1191 59.2331C55.8608 57.4454 54.422 56.0611 52.6256 55.872L49.7445 55.5687C46.8655 55.2656 44.0094 56.5884 42.7782 59.2085C41.6973 61.5087 40.7866 64.1029 40.9412 65.9542C41.3009 70.2605 49.7586 66.3001 51.5071 70.2518Z" fill="#EB5769"/>
<path d="M67.7979 71.2705L67.8734 62.8727C67.8949 60.4865 71.2891 60.0617 71.898 62.369C72.1844 63.4544 73.2917 64.1063 74.3797 63.8303L76.8244 63.21C77.7893 62.9652 78.6485 62.4134 79.2727 61.6379L79.4007 61.4789C82.3249 57.8456 88.1755 59.5981 88.605 64.2421C89.7156 76.2534 90.8634 89.518 90.6487 90.4015C90.538 90.857 89.7242 91.2013 88.6078 91.457C84.966 92.2912 81.6205 89.5325 80.7176 85.9071L78.7877 78.1585C78.1791 75.7149 75.888 74.0735 73.3785 74.2831L71.236 74.4621C69.374 74.6176 67.7811 73.139 67.7979 71.2705Z" fill="#EB5769"/>
</g>
<mask id="path-2-outside-1" maskUnits="userSpaceOnUse" x="-0.349745" y="-0.405657" width="128.908" height="119.715" fill="black">
<rect fill="white" x="-0.349745" y="-0.405657" width="128.908" height="119.715"/>
<path d="M9.23024 59.3717C9.98416 62.121 10.7343 64.8884 11.4932 67.6882C14.5402 78.8666 17.6757 90.3752 20.7955 101.793C21.5774 104.647 22.3546 107.493 23.1268 110.333L24.29 114.577L24.4383 115.099L24.5095 115.364C24.5311 115.445 24.5893 115.662 24.6421 115.795C24.865 116.403 25.2872 116.917 25.8399 117.255C26.3926 117.593 27.0433 117.733 27.6861 117.654C27.8461 117.631 28.0048 117.6 28.1617 117.561L28.4494 117.476L28.9808 117.333C34.592 115.795 40.1205 114.271 45.5304 112.786C67.1476 106.83 86.7073 101.408 100.856 97.4011C107.931 95.4017 113.644 93.7588 117.585 92.5906C119.559 92.0014 121.084 91.5411 122.115 91.2042C122.656 91.0762 123.177 90.8756 123.664 90.608C123.109 90.6198 122.557 90.7066 122.025 90.866C120.963 91.0901 119.41 91.4459 117.408 91.9304C113.411 92.8893 107.642 94.3229 100.515 96.129C86.2586 99.7333 66.6061 104.809 44.9091 110.468C39.4819 111.887 33.9318 113.331 28.3033 114.805L27.7698 114.939L27.4799 115.017C27.3981 115.027 27.3155 115.006 27.2485 114.958C27.2132 114.939 27.1822 114.912 27.1574 114.88C27.1325 114.848 27.1143 114.812 27.1038 114.773L26.8746 113.885L25.7596 109.627C25.0135 106.778 24.2632 103.924 23.5088 101.066C20.5017 89.6179 17.4628 78.0835 14.5124 66.8792C13.7697 64.0751 13.0437 61.3012 12.3139 58.5454C12.068 57.6276 11.8242 56.7178 11.5885 55.8058L12.3292 55.6073C29.9651 50.7506 85.778 35.4159 103.502 29.9521C105.144 29.4433 106.342 29.0532 107.049 28.7946C110.664 42.0473 116.081 61.9381 119.911 75.1833C122.135 82.906 123.415 86.9728 124.148 88.9338C124.232 89.192 124.218 89.4726 124.108 89.721C124.044 89.8871 123.95 90.0406 123.833 90.1745C123.664 90.3835 123.632 90.4873 123.664 90.608C123.692 90.7127 123.763 90.849 124.15 90.7798C124.448 90.7071 124.718 90.5478 124.925 90.3219C125.127 90.1035 125.278 89.8433 125.368 89.5597C125.457 89.2761 125.483 88.9762 125.443 88.6815C125.066 86.4354 124.167 82.4047 122.23 74.562C116.292 50.6272 112.324 37.0738 107.608 17.1593C107.265 15.7841 106.891 14.2274 106.47 12.4936C106.414 12.2843 106.362 12.0566 106.303 11.8393C106.222 11.445 106.064 11.0709 105.836 10.7391C105.592 10.3867 105.273 10.0924 104.902 9.87712C104.531 9.66182 104.117 9.53077 103.69 9.49329C103.467 9.47887 103.244 9.48675 103.023 9.5167C102.834 9.54857 102.646 9.59017 102.461 9.64138C102.209 9.70021 101.96 9.76708 101.71 9.83396C101.395 9.90982 101.074 9.99588 100.751 10.0737C100.003 7.18747 99.8375 6.59063 99.7233 6.16127C99.6822 6.02387 99.6281 5.84152 99.5673 5.68524C99.2517 4.89068 98.6958 4.21453 97.9773 3.75125C97.2587 3.28796 96.4134 3.06066 95.5594 3.10111C95.1414 3.13273 94.7287 3.21436 94.3302 3.34422C94.1981 3.3796 93.9475 3.45541 93.7231 3.54228C93.4975 3.63444 93.2802 3.74574 93.0736 3.87505C92.3298 4.34527 91.7607 5.04639 91.4535 5.87093C91.1462 6.69547 91.1177 7.59803 91.3723 8.44031L91.5271 8.96314C92.2897 11.5099 92.0756 10.8009 92.503 12.1931C86.8431 13.6493 88.1245 14.3544 86.8655 9.6556C86.7099 9.02879 86.408 8.44788 85.9844 7.9604C85.5608 7.47292 85.0275 7.09281 84.4286 6.85133C83.8296 6.60986 83.1819 6.5138 82.5386 6.57118C81.8953 6.62855 81.2748 6.83769 80.728 7.18135C79.9017 7.70686 79.2934 8.5135 79.0153 9.45245C78.8746 9.92645 78.8232 10.4225 78.8636 10.9153C78.8862 11.1609 78.93 11.4041 78.9944 11.6421C79.7898 14.3173 79.7412 14.1422 80.1281 15.3994C73.2958 17.1887 75.4336 17.5504 73.9009 12.8706C73.7965 12.5352 73.6502 12.2143 73.4655 11.9155C73.0183 11.2062 72.365 10.6505 71.5933 10.3228C69.9808 9.61574 65.6603 10.1349 64.867 13.4126C64.7414 13.9223 64.7181 14.4517 64.7986 14.9704C64.9068 15.5705 65.7834 18.4172 65.9973 19.1219L61.6302 20.2791C60.984 17.7901 61.1972 18.6054 60.7494 16.9115L60.6532 16.5523C60.4675 15.8852 60.1156 15.276 59.6305 14.7818C59.1454 14.2876 58.5429 13.9245 57.8793 13.7265C57.4386 13.5917 56.9777 13.5347 56.5173 13.5581C55.2809 13.7155 54.0793 14.0775 52.9616 14.6291C52.1807 15.1096 51.5905 15.846 51.2917 16.7128C50.9929 17.5797 51.004 18.5233 51.323 19.3829C51.9079 21.3533 52.046 21.8237 52.3291 22.7514L47.5365 24.0305C47.3888 23.4599 47.2349 22.8695 47.0719 22.2384C46.9595 21.8192 46.8448 21.3857 46.7277 20.9378L46.6371 20.5996C46.6056 20.4821 46.5859 20.3924 46.5249 20.2069C46.2079 19.191 45.5079 18.3385 44.5731 17.8299C43.6384 17.3214 42.5424 17.1968 41.5173 17.4824L40.5387 17.7594L40.2715 17.8378L39.9189 17.9582C39.6854 18.0529 39.4606 18.1679 39.2473 18.3021C38.3703 18.8613 37.7419 19.7363 37.492 20.746C37.3671 21.2556 37.3441 21.785 37.4244 22.3036C37.5076 22.7186 37.6151 23.1283 37.7463 23.5307C37.9614 24.2497 38.1778 24.977 38.3937 25.6993C38.4665 25.9386 38.5401 26.1778 38.6129 26.4172L35.6943 27.1993L34.5759 27.4989C33.9127 24.9463 34.1078 25.6905 33.6724 24.0433C33.5971 23.7343 33.4927 23.4333 33.3607 23.144C33.2067 22.8175 33.0091 22.5134 32.7733 22.24C30.3817 19.3755 24.6841 21.2094 23.9704 24.4459C23.8533 24.9715 23.8438 25.5154 23.9423 26.0447L24.0327 26.4304L24.1146 26.707C25.0298 29.8005 24.9113 29.3939 25.1127 30.0519L20.3647 31.3335C19.359 27.4609 19.3014 26.7627 18.3385 25.81C17.7223 25.1928 16.9255 24.7879 16.0638 24.6539C14.5848 24.4289 11.7789 25.4672 11.2325 25.8113C10.7805 26.0997 10.3906 26.4752 10.0854 26.9159C9.78019 27.3567 9.56587 27.8539 9.45494 28.3784C9.34219 28.9122 9.3401 29.4635 9.44881 29.9981C9.52181 30.3349 9.54164 30.3831 10.4587 33.4675L10.6115 33.9702C9.72803 34.2155 8.82707 34.457 7.92828 34.7064L6.51126 35.0861L6.15916 35.1891C5.75202 35.2797 5.36677 35.4498 5.02554 35.6896C4.68432 35.9295 4.39381 36.2344 4.17073 36.5868C3.94765 36.9393 3.7964 37.3323 3.72561 37.7434C3.65482 38.1544 3.66591 38.5754 3.75825 38.9822L4.17892 40.5522C4.20049 40.6327 7.86174 54.2354 7.57088 53.2433C7.75209 53.9196 7.9333 54.5959 8.12257 55.2701C8.48673 56.6291 8.86155 57.9957 9.23024 59.3717ZM7.28612 39.7171L6.93447 38.4047C6.93172 38.3932 6.93291 38.3811 6.93787 38.3704C6.94283 38.3597 6.95123 38.3509 6.96176 38.3455C8.5189 37.9283 10.0235 37.5338 11.5731 37.1272C11.6964 37.5326 12.8854 41.4131 13.1198 41.9561C13.3611 42.4789 13.7578 42.9144 14.2559 43.2032C14.7541 43.492 15.3292 43.62 15.9028 43.5696C16.1958 43.5353 16.483 43.463 16.7573 43.3545C18.5986 42.7032 19.7187 42.2295 19.6731 42.0597C19.6276 41.8898 18.421 42.0405 16.5008 42.3971C15.3857 42.6156 14.6782 42.1555 14.4318 41.4034C11.6258 28.841 11.5555 29.6062 11.7413 28.8954C12.0704 27.6051 15.4557 26.5195 16.5365 27.6063C17.1812 28.2378 18.0557 32.9542 20.0029 38.8846C20.3075 39.7928 20.3907 39.9552 20.3412 40.3179C20.2534 40.7539 20.0573 41.1607 19.7711 41.501C19.7094 41.5786 19.6682 41.6703 19.6511 41.7679C19.6339 41.8655 19.6415 41.9658 19.6731 42.0597C19.7163 42.2207 19.7729 42.3997 20.1579 42.4131C20.453 42.4035 20.7397 42.3132 20.9871 42.152C21.4802 41.8486 21.8584 41.39 22.0625 40.8482C22.2196 40.4472 22.2875 40.0167 22.2612 39.5868C22.2118 39.1682 22.139 38.7527 22.0434 38.3422C21.8746 37.5383 21.6581 36.5823 21.3881 35.4457L21.1725 34.5767L26.0942 33.2674C26.1526 33.4562 26.2121 33.6526 26.2692 33.8401C26.7097 35.2521 27.1147 36.5476 27.5323 37.8069C27.6631 38.177 27.8695 38.5158 28.1384 38.8018C28.4073 39.0878 28.7327 39.3147 29.0941 39.468C29.7035 39.7236 30.385 39.7491 31.0117 39.5394C32.824 38.8958 33.932 38.4254 33.8865 38.2555C33.841 38.0856 32.6505 38.232 30.7551 38.582C30.3628 38.6488 29.9595 38.5754 29.6158 38.3747C29.4335 38.2678 29.275 38.125 29.1497 37.9549C29.0245 37.7847 28.9352 37.5909 28.8872 37.3852C28.6162 36.1513 28.317 34.7964 28.0043 33.3752C27.6734 31.9468 26.7288 27.9353 26.3026 26.1225L26.2344 25.8421L26.2033 25.665C26.1738 25.4405 26.1896 25.2124 26.2496 24.9941C26.644 23.5673 29.8643 22.7036 30.8336 23.8927C30.9236 23.9965 30.9988 24.1123 31.0569 24.2368C31.1247 24.3868 31.177 24.5434 31.2132 24.704C31.6738 26.4005 31.4333 25.5252 32.241 28.4465C32.6712 29.9423 33.041 31.2291 33.3605 32.3378C33.68 33.4465 33.9779 34.3651 34.2309 35.1353C34.6863 36.545 34.7758 36.2543 33.9814 37.6985C33.9208 37.7763 33.8804 37.8679 33.8638 37.9651C33.8473 38.0623 33.8551 38.1621 33.8865 38.2555C33.9309 38.4214 33.987 38.5954 34.3674 38.6108C34.6587 38.6032 34.9424 38.5161 35.1879 38.359C36.7588 37.4264 36.4946 35.8283 36.2703 34.5888C36.1051 33.7951 35.8915 32.853 35.6262 31.7307C35.552 31.4313 35.4739 31.1174 35.3928 30.7923L36.5683 30.4773L39.602 29.6644L39.6864 29.9403C40.1203 31.3023 40.5344 32.5996 40.9103 33.7803C41.0068 34.1308 41.1519 34.4661 41.3412 34.7764C41.5423 35.0851 41.803 35.3505 42.1079 35.5573C42.6418 35.9216 43.2883 36.0832 43.9308 36.0129C44.379 35.9258 44.8162 35.7892 45.2343 35.6058C45.5831 35.4709 45.8811 35.3462 46.1237 35.2406C46.6078 35.0247 46.8664 34.8691 46.8431 34.7821C46.8198 34.6952 46.518 34.6897 45.9911 34.7455C45.7275 34.773 45.4059 34.816 45.0382 34.874C44.657 34.9537 44.2702 35.0034 43.8812 35.0226C43.4951 35.0008 43.1278 34.8481 42.8401 34.5896C42.6894 34.4531 42.5666 34.2889 42.4783 34.1058C42.3842 33.8839 42.3194 33.6506 42.2855 33.4119C42.0215 32.2011 41.7306 30.8708 41.4254 29.4744C41.104 28.0814 40.7677 26.6234 40.4291 25.1539C40.2551 24.4239 40.0793 23.684 39.9048 22.9524C39.6916 22.4434 39.6401 21.8812 39.7573 21.342C39.8805 20.9336 40.1534 20.5868 40.5214 20.371C40.6095 20.3226 40.7008 20.2805 40.7948 20.245L40.9406 20.206L41.1733 20.1436L42.1592 19.8941C42.4913 19.8125 42.8407 19.8373 43.158 19.9648C43.4753 20.0924 43.7447 20.3163 43.928 20.605C43.9977 20.7197 44.0532 20.8425 44.0933 20.9706C44.1112 21.0115 44.1471 21.1521 44.1762 21.2608L44.2668 21.5989L44.6198 22.8971L45.2694 25.2472C45.6894 26.7052 46.0512 27.9588 46.3623 29.0395C46.6735 30.1203 46.9659 31.0153 47.2143 31.7651C47.2773 31.953 47.3372 32.1314 47.3939 32.3003C47.4301 32.3964 47.461 32.4943 47.4865 32.5939C47.5183 32.7576 47.5219 32.9258 47.497 33.0907C47.3961 33.5077 47.2031 33.8966 46.9322 34.2292C46.8731 34.3073 46.8339 34.3987 46.8183 34.4954C46.8027 34.5921 46.8111 34.6912 46.8427 34.7839C46.8871 34.9498 46.942 35.1223 47.3144 35.1434C47.599 35.1385 47.877 35.0575 48.1196 34.9086C48.5989 34.6256 48.9759 34.1976 49.1961 33.6864C49.3626 33.3058 49.4481 32.8947 49.4474 32.4792C49.4427 32.2414 49.4151 32.0047 49.3649 31.7722L49.2537 31.2186C49.0931 30.4453 48.8866 29.5264 48.628 28.4324C48.5416 28.0811 48.4475 27.7041 48.3514 27.3165L53.3093 25.9811L53.4556 26.4597C53.8963 27.8465 54.3158 29.1676 54.6984 30.3698C54.8091 30.7413 54.9949 31.0861 55.2443 31.3829C55.4936 31.6798 55.8012 31.9224 56.148 32.0956C56.737 32.3907 57.4142 32.4584 58.05 32.2858C59.9131 31.6451 60.9633 31.1781 60.9324 31.0078C60.9014 30.8374 59.6778 30.9988 57.8529 31.3152C57.4452 31.3619 57.035 31.2525 56.7047 31.0089C56.3744 30.7653 56.1487 30.4057 56.073 30.0024C55.8031 28.7699 55.506 27.4162 55.1942 25.9948C54.8662 24.5777 53.9311 20.598 53.5085 18.799C53.1256 17.1671 54.1439 16.713 54.5154 16.5695L54.6635 16.5298L54.9051 16.4651L55.9095 16.2106C56.1382 16.137 56.375 16.0918 56.6147 16.076C56.97 16.0704 57.3174 16.1816 57.6036 16.3923C57.8898 16.6031 58.099 16.9018 58.1993 17.2427L58.2877 17.5728C58.7451 19.2572 58.5181 18.4327 59.3076 21.2854C59.7345 22.7692 60.1025 24.0461 60.4188 25.1462C60.7352 26.2462 61.0319 27.1573 61.2842 27.9216C61.3478 28.1117 61.4086 28.2934 61.4665 28.4666L61.5321 28.6569C61.547 28.701 61.559 28.7459 61.5682 28.7914C61.6069 28.9566 61.6144 29.1275 61.5902 29.2954C61.4943 29.7208 61.2997 30.1176 61.0221 30.4538C60.9619 30.5318 60.9219 30.6234 60.9056 30.7205C60.8894 30.8176 60.8973 30.9172 60.9288 31.0105C60.9732 31.1764 61.0283 31.3496 61.4067 31.3673C61.6958 31.36 61.9777 31.275 62.2226 31.1211C62.7076 30.8286 63.0852 30.3872 63.299 29.8627C63.5074 29.3573 63.5747 28.8048 63.4937 28.2642L63.4351 27.9391L63.3212 27.3758C63.1567 26.588 62.9459 25.653 62.6821 24.5397C62.6022 24.2159 62.5174 23.8736 62.4296 23.5201C63.9773 23.1019 65.4869 22.6932 66.9585 22.2937L67.056 22.6127C67.4898 23.9738 67.9031 25.2714 68.28 26.4528C68.3758 26.8038 68.521 27.1393 68.7111 27.4496C68.9126 27.7578 69.1734 28.0229 69.4783 28.2294C70.0126 28.5932 70.6592 28.7542 71.3016 28.6832C71.7496 28.5962 72.1866 28.4597 72.6044 28.2763C72.954 28.1412 73.2519 28.0166 73.4946 27.911C73.9786 27.695 74.2372 27.5394 74.2139 27.4524C74.1906 27.3655 73.8889 27.3601 73.3619 27.4158C73.0983 27.4433 72.7768 27.4863 72.4083 27.5445C72.0271 27.6239 71.6403 27.6739 71.2515 27.6939C70.8651 27.6719 70.4978 27.5194 70.2096 27.2612C70.0588 27.1249 69.9359 26.9605 69.8478 26.7773C69.7534 26.5558 69.6884 26.3229 69.6544 26.0845C69.3901 24.873 69.0992 23.5425 68.7951 22.1467C66.9915 14.3302 66.9386 14.6188 67.1265 14.0127C67.2498 13.6044 67.5227 13.2576 67.8906 13.0417C68.3232 12.7981 70.4999 11.9266 71.2974 13.2731C71.5094 13.665 71.3103 13.1023 72.6402 17.9141C73.0604 19.3729 73.4224 20.6272 73.7333 21.7072C74.0443 22.7871 74.3371 23.6837 74.5855 24.4335C74.6482 24.6204 74.7081 24.7988 74.7652 24.9687C74.8014 25.0648 74.8323 25.1629 74.8577 25.2624C74.8895 25.4262 74.893 25.5942 74.8682 25.7592C74.7673 26.1761 74.5743 26.5651 74.3035 26.8978C74.2443 26.9758 74.2052 27.0672 74.1896 27.1639C74.1739 27.2606 74.1823 27.3597 74.2139 27.4524C74.2584 27.6183 74.3132 27.7909 74.6856 27.8119C74.9702 27.8071 75.2483 27.726 75.4908 27.5772C75.9701 27.2941 76.3471 26.8661 76.5674 26.355C76.7338 25.9743 76.8193 25.5632 76.8186 25.1477C76.8139 24.9099 76.7863 24.6731 76.7362 24.4406L76.6249 23.887C76.4643 23.1137 76.2576 22.194 75.999 21.1001L75.7059 19.9161C77.5644 19.4095 79.3462 18.9226 81.061 18.4528C81.445 19.6443 81.8119 20.7852 82.1467 21.8251L82.4171 22.6345L82.558 23.0412C82.6142 23.2009 82.6844 23.3554 82.7679 23.5027C83.0757 24.0281 83.5512 24.4346 84.118 24.6571C84.5677 24.8318 85.0582 24.8739 85.5311 24.7782C85.8422 24.6993 86.144 24.5877 86.4317 24.4453C86.8867 24.2371 87.1293 24.0858 87.106 23.9989C87.0827 23.9119 86.797 23.9022 86.299 23.9502C85.7099 24.1046 85.0847 24.0366 84.5426 23.7589C84.2317 23.5688 83.9893 23.2847 83.8506 22.9477C83.7797 22.7344 83.7269 22.5156 83.6926 22.2936L83.5221 21.4574C83.2756 20.3153 83.0056 19.0596 82.7218 17.7429C82.1333 15.1667 81.7409 13.4381 81.1817 11.0871C81.1611 10.9826 81.1485 10.8766 81.1442 10.7701C81.1388 10.563 81.1712 10.3567 81.24 10.1612C81.3693 9.79692 81.6213 9.48891 81.9527 9.28992C82.2841 9.09093 82.6744 9.01326 83.0567 9.07027C83.3798 9.12271 83.6798 9.27066 83.9181 9.49498C84.1564 9.71931 84.3222 10.0098 84.3941 10.3291C85.3552 13.9159 86.1156 16.6151 86.7258 18.6444C87.0312 19.6585 87.2987 20.5058 87.5352 21.2113C87.6267 21.4372 87.6977 21.6709 87.7473 21.9095C87.7679 22.0654 87.7622 22.2236 87.7304 22.3776C87.6196 22.7692 87.4326 23.135 87.1801 23.4543C87.1249 23.5334 87.0891 23.6244 87.0757 23.72C87.0623 23.8155 87.0717 23.9128 87.103 24.004C87.1173 24.1115 87.1721 24.2094 87.2562 24.2778C87.3403 24.3462 87.4473 24.38 87.5555 24.3721C87.8251 24.3745 88.0906 24.3064 88.3257 24.1743C88.7857 23.9227 89.158 23.5366 89.3927 23.0677C89.5726 22.7193 89.6807 22.3382 89.7103 21.9471C89.7278 21.5146 89.6819 21.0817 89.574 20.6625C89.4261 19.9332 89.2325 19.066 88.9916 18.0346C88.8707 17.5225 88.7375 16.9705 88.591 16.3755L93.3632 15.0459L93.4028 15.1743C93.8247 16.4911 94.2273 17.7458 94.5929 18.8879L94.8785 19.7381C94.9967 20.074 95.178 20.3843 95.4125 20.6522C95.8261 21.1208 96.3884 21.4326 97.0049 21.5355C97.4853 21.6099 97.977 21.5492 98.4249 21.3604C98.7616 21.2287 99.0475 21.1073 99.2845 21.0032C99.7517 20.7917 100.001 20.6384 99.9781 20.5515C99.9548 20.4645 99.6619 20.4568 99.1518 20.5081C98.8995 20.5325 98.586 20.5733 98.2288 20.6284C97.897 20.697 97.5529 20.6764 97.2316 20.5687C96.8779 20.4456 96.5744 20.2098 96.3675 19.8976C96.2601 19.7315 96.1846 19.5468 96.1448 19.3531C96.0885 19.0806 96.0303 18.8013 95.9704 18.5153C95.3108 15.4707 95.0191 14.0439 93.6797 8.39151L93.5523 7.86135C93.5246 7.74636 93.5073 7.6291 93.5007 7.51101C93.4832 7.19952 93.5522 6.88921 93.7 6.61447C93.8478 6.33973 94.0687 6.11121 94.3383 5.95415C94.4232 5.90644 94.5118 5.86545 94.6031 5.83146C94.6973 5.80622 94.7671 5.77977 94.959 5.7361C95.1851 5.66434 95.4192 5.62078 95.656 5.60634C95.9854 5.60138 96.3086 5.69652 96.5828 5.87934C96.8569 6.06215 97.069 6.32399 97.191 6.63006C98.7563 12.2978 98.2427 10.4774 99.5558 15.0236C99.8676 16.0619 100.143 16.9374 100.384 17.6606C100.442 17.8331 100.498 17.9978 100.55 18.1546C100.583 18.2383 100.607 18.3256 100.62 18.4147C100.645 18.5741 100.644 18.7366 100.616 18.8956C100.509 19.2982 100.32 19.674 100.06 19.9989C100.003 20.0775 99.9652 20.1688 99.9508 20.2649C99.9365 20.361 99.9454 20.4591 99.9771 20.5509C100.022 20.7176 100.075 20.8888 100.438 20.915C100.714 20.9154 100.985 20.8427 101.224 20.7045C101.693 20.4404 102.067 20.0361 102.295 19.5485C102.572 18.9664 102.655 18.3107 102.532 17.6779L102.423 17.1178C102.269 16.3687 102.07 15.4787 101.821 14.4202C101.697 13.92 101.563 13.3778 101.42 12.7975C101.758 12.7069 102.096 12.6163 102.416 12.5219C102.663 12.447 102.913 12.3801 103.16 12.3052L103.329 12.2599C103.353 12.252 103.379 12.2482 103.404 12.2485C103.453 12.2473 103.502 12.2576 103.547 12.2786C103.591 12.2997 103.63 12.3309 103.661 12.3696C103.704 12.4161 103.732 12.475 103.74 12.5381C103.799 12.7555 103.867 12.9787 103.923 13.1881C104.425 14.9003 104.88 16.4353 105.278 17.7954C106.128 20.6745 106.94 23.3364 107.914 26.1501C107.969 26.2907 108.012 26.4174 108.062 26.5419C108.088 26.6042 108.105 26.6686 108.128 26.7228L108.174 26.8312C108.213 26.9461 108.231 27.067 108.227 27.1882C108.192 27.5141 108.061 27.8224 107.851 28.0741C107.806 28.1284 107.775 28.1924 107.759 28.2611C107.743 28.3297 107.743 28.4012 107.759 28.4699C107.746 28.4215 107.478 28.4503 106.965 28.5357C106.224 28.6655 104.991 28.9269 103.315 29.3069C85.3894 33.4023 28.3917 48.2796 10.8687 52.8524C10.8435 52.8575 10.8175 52.8587 10.7919 52.8557C10.7679 52.8478 10.746 52.8346 10.7278 52.817C10.7097 52.7995 10.6958 52.778 10.6871 52.7543C9.30489 47.4154 7.38645 40.1044 7.28633 39.7178L7.28612 39.7171Z"/>
</mask>
<path d="M9.23024 59.3717C9.98416 62.121 10.7343 64.8884 11.4932 67.6882C14.5402 78.8666 17.6757 90.3752 20.7955 101.793C21.5774 104.647 22.3546 107.493 23.1268 110.333L24.29 114.577L24.4383 115.099L24.5095 115.364C24.5311 115.445 24.5893 115.662 24.6421 115.795C24.865 116.403 25.2872 116.917 25.8399 117.255C26.3926 117.593 27.0433 117.733 27.6861 117.654C27.8461 117.631 28.0048 117.6 28.1617 117.561L28.4494 117.476L28.9808 117.333C34.592 115.795 40.1205 114.271 45.5304 112.786C67.1476 106.83 86.7073 101.408 100.856 97.4011C107.931 95.4017 113.644 93.7588 117.585 92.5906C119.559 92.0014 121.084 91.5411 122.115 91.2042C122.656 91.0762 123.177 90.8756 123.664 90.608C123.109 90.6198 122.557 90.7066 122.025 90.866C120.963 91.0901 119.41 91.4459 117.408 91.9304C113.411 92.8893 107.642 94.3229 100.515 96.129C86.2586 99.7333 66.6061 104.809 44.9091 110.468C39.4819 111.887 33.9318 113.331 28.3033 114.805L27.7698 114.939L27.4799 115.017C27.3981 115.027 27.3155 115.006 27.2485 114.958C27.2132 114.939 27.1822 114.912 27.1574 114.88C27.1325 114.848 27.1143 114.812 27.1038 114.773L26.8746 113.885L25.7596 109.627C25.0135 106.778 24.2632 103.924 23.5088 101.066C20.5017 89.6179 17.4628 78.0835 14.5124 66.8792C13.7697 64.0751 13.0437 61.3012 12.3139 58.5454C12.068 57.6276 11.8242 56.7178 11.5885 55.8058L12.3292 55.6073C29.9651 50.7506 85.778 35.4159 103.502 29.9521C105.144 29.4433 106.342 29.0532 107.049 28.7946C110.664 42.0473 116.081 61.9381 119.911 75.1833C122.135 82.906 123.415 86.9728 124.148 88.9338C124.232 89.192 124.218 89.4726 124.108 89.721C124.044 89.8871 123.95 90.0406 123.833 90.1745C123.664 90.3835 123.632 90.4873 123.664 90.608C123.692 90.7127 123.763 90.849 124.15 90.7798C124.448 90.7071 124.718 90.5478 124.925 90.3219C125.127 90.1035 125.278 89.8433 125.368 89.5597C125.457 89.2761 125.483 88.9762 125.443 88.6815C125.066 86.4354 124.167 82.4047 122.23 74.562C116.292 50.6272 112.324 37.0738 107.608 17.1593C107.265 15.7841 106.891 14.2274 106.47 12.4936C106.414 12.2843 106.362 12.0566 106.303 11.8393C106.222 11.445 106.064 11.0709 105.836 10.7391C105.592 10.3867 105.273 10.0924 104.902 9.87712C104.531 9.66182 104.117 9.53077 103.69 9.49329C103.467 9.47887 103.244 9.48675 103.023 9.5167C102.834 9.54857 102.646 9.59017 102.461 9.64138C102.209 9.70021 101.96 9.76708 101.71 9.83396C101.395 9.90982 101.074 9.99588 100.751 10.0737C100.003 7.18747 99.8375 6.59063 99.7233 6.16127C99.6822 6.02387 99.6281 5.84152 99.5673 5.68524C99.2517 4.89068 98.6958 4.21453 97.9773 3.75125C97.2587 3.28796 96.4134 3.06066 95.5594 3.10111C95.1414 3.13273 94.7287 3.21436 94.3302 3.34422C94.1981 3.3796 93.9475 3.45541 93.7231 3.54228C93.4975 3.63444 93.2802 3.74574 93.0736 3.87505C92.3298 4.34527 91.7607 5.04639 91.4535 5.87093C91.1462 6.69547 91.1177 7.59803 91.3723 8.44031L91.5271 8.96314C92.2897 11.5099 92.0756 10.8009 92.503 12.1931C86.8431 13.6493 88.1245 14.3544 86.8655 9.6556C86.7099 9.02879 86.408 8.44788 85.9844 7.9604C85.5608 7.47292 85.0275 7.09281 84.4286 6.85133C83.8296 6.60986 83.1819 6.5138 82.5386 6.57118C81.8953 6.62855 81.2748 6.83769 80.728 7.18135C79.9017 7.70686 79.2934 8.5135 79.0153 9.45245C78.8746 9.92645 78.8232 10.4225 78.8636 10.9153C78.8862 11.1609 78.93 11.4041 78.9944 11.6421C79.7898 14.3173 79.7412 14.1422 80.1281 15.3994C73.2958 17.1887 75.4336 17.5504 73.9009 12.8706C73.7965 12.5352 73.6502 12.2143 73.4655 11.9155C73.0183 11.2062 72.365 10.6505 71.5933 10.3228C69.9808 9.61574 65.6603 10.1349 64.867 13.4126C64.7414 13.9223 64.7181 14.4517 64.7986 14.9704C64.9068 15.5705 65.7834 18.4172 65.9973 19.1219L61.6302 20.2791C60.984 17.7901 61.1972 18.6054 60.7494 16.9115L60.6532 16.5523C60.4675 15.8852 60.1156 15.276 59.6305 14.7818C59.1454 14.2876 58.5429 13.9245 57.8793 13.7265C57.4386 13.5917 56.9777 13.5347 56.5173 13.5581C55.2809 13.7155 54.0793 14.0775 52.9616 14.6291C52.1807 15.1096 51.5905 15.846 51.2917 16.7128C50.9929 17.5797 51.004 18.5233 51.323 19.3829C51.9079 21.3533 52.046 21.8237 52.3291 22.7514L47.5365 24.0305C47.3888 23.4599 47.2349 22.8695 47.0719 22.2384C46.9595 21.8192 46.8448 21.3857 46.7277 20.9378L46.6371 20.5996C46.6056 20.4821 46.5859 20.3924 46.5249 20.2069C46.2079 19.191 45.5079 18.3385 44.5731 17.8299C43.6384 17.3214 42.5424 17.1968 41.5173 17.4824L40.5387 17.7594L40.2715 17.8378L39.9189 17.9582C39.6854 18.0529 39.4606 18.1679 39.2473 18.3021C38.3703 18.8613 37.7419 19.7363 37.492 20.746C37.3671 21.2556 37.3441 21.785 37.4244 22.3036C37.5076 22.7186 37.6151 23.1283 37.7463 23.5307C37.9614 24.2497 38.1778 24.977 38.3937 25.6993C38.4665 25.9386 38.5401 26.1778 38.6129 26.4172L35.6943 27.1993L34.5759 27.4989C33.9127 24.9463 34.1078 25.6905 33.6724 24.0433C33.5971 23.7343 33.4927 23.4333 33.3607 23.144C33.2067 22.8175 33.0091 22.5134 32.7733 22.24C30.3817 19.3755 24.6841 21.2094 23.9704 24.4459C23.8533 24.9715 23.8438 25.5154 23.9423 26.0447L24.0327 26.4304L24.1146 26.707C25.0298 29.8005 24.9113 29.3939 25.1127 30.0519L20.3647 31.3335C19.359 27.4609 19.3014 26.7627 18.3385 25.81C17.7223 25.1928 16.9255 24.7879 16.0638 24.6539C14.5848 24.4289 11.7789 25.4672 11.2325 25.8113C10.7805 26.0997 10.3906 26.4752 10.0854 26.9159C9.78019 27.3567 9.56587 27.8539 9.45494 28.3784C9.34219 28.9122 9.3401 29.4635 9.44881 29.9981C9.52181 30.3349 9.54164 30.3831 10.4587 33.4675L10.6115 33.9702C9.72803 34.2155 8.82707 34.457 7.92828 34.7064L6.51126 35.0861L6.15916 35.1891C5.75202 35.2797 5.36677 35.4498 5.02554 35.6896C4.68432 35.9295 4.39381 36.2344 4.17073 36.5868C3.94765 36.9393 3.7964 37.3323 3.72561 37.7434C3.65482 38.1544 3.66591 38.5754 3.75825 38.9822L4.17892 40.5522C4.20049 40.6327 7.86174 54.2354 7.57088 53.2433C7.75209 53.9196 7.9333 54.5959 8.12257 55.2701C8.48673 56.6291 8.86155 57.9957 9.23024 59.3717ZM7.28612 39.7171L6.93447 38.4047C6.93172 38.3932 6.93291 38.3811 6.93787 38.3704C6.94283 38.3597 6.95123 38.3509 6.96176 38.3455C8.5189 37.9283 10.0235 37.5338 11.5731 37.1272C11.6964 37.5326 12.8854 41.4131 13.1198 41.9561C13.3611 42.4789 13.7578 42.9144 14.2559 43.2032C14.7541 43.492 15.3292 43.62 15.9028 43.5696C16.1958 43.5353 16.483 43.463 16.7573 43.3545C18.5986 42.7032 19.7187 42.2295 19.6731 42.0597C19.6276 41.8898 18.421 42.0405 16.5008 42.3971C15.3857 42.6156 14.6782 42.1555 14.4318 41.4034C11.6258 28.841 11.5555 29.6062 11.7413 28.8954C12.0704 27.6051 15.4557 26.5195 16.5365 27.6063C17.1812 28.2378 18.0557 32.9542 20.0029 38.8846C20.3075 39.7928 20.3907 39.9552 20.3412 40.3179C20.2534 40.7539 20.0573 41.1607 19.7711 41.501C19.7094 41.5786 19.6682 41.6703 19.6511 41.7679C19.6339 41.8655 19.6415 41.9658 19.6731 42.0597C19.7163 42.2207 19.7729 42.3997 20.1579 42.4131C20.453 42.4035 20.7397 42.3132 20.9871 42.152C21.4802 41.8486 21.8584 41.39 22.0625 40.8482C22.2196 40.4472 22.2875 40.0167 22.2612 39.5868C22.2118 39.1682 22.139 38.7527 22.0434 38.3422C21.8746 37.5383 21.6581 36.5823 21.3881 35.4457L21.1725 34.5767L26.0942 33.2674C26.1526 33.4562 26.2121 33.6526 26.2692 33.8401C26.7097 35.2521 27.1147 36.5476 27.5323 37.8069C27.6631 38.177 27.8695 38.5158 28.1384 38.8018C28.4073 39.0878 28.7327 39.3147 29.0941 39.468C29.7035 39.7236 30.385 39.7491 31.0117 39.5394C32.824 38.8958 33.932 38.4254 33.8865 38.2555C33.841 38.0856 32.6505 38.232 30.7551 38.582C30.3628 38.6488 29.9595 38.5754 29.6158 38.3747C29.4335 38.2678 29.275 38.125 29.1497 37.9549C29.0245 37.7847 28.9352 37.5909 28.8872 37.3852C28.6162 36.1513 28.317 34.7964 28.0043 33.3752C27.6734 31.9468 26.7288 27.9353 26.3026 26.1225L26.2344 25.8421L26.2033 25.665C26.1738 25.4405 26.1896 25.2124 26.2496 24.9941C26.644 23.5673 29.8643 22.7036 30.8336 23.8927C30.9236 23.9965 30.9988 24.1123 31.0569 24.2368C31.1247 24.3868 31.177 24.5434 31.2132 24.704C31.6738 26.4005 31.4333 25.5252 32.241 28.4465C32.6712 29.9423 33.041 31.2291 33.3605 32.3378C33.68 33.4465 33.9779 34.3651 34.2309 35.1353C34.6863 36.545 34.7758 36.2543 33.9814 37.6985C33.9208 37.7763 33.8804 37.8679 33.8638 37.9651C33.8473 38.0623 33.8551 38.1621 33.8865 38.2555C33.9309 38.4214 33.987 38.5954 34.3674 38.6108C34.6587 38.6032 34.9424 38.5161 35.1879 38.359C36.7588 37.4264 36.4946 35.8283 36.2703 34.5888C36.1051 33.7951 35.8915 32.853 35.6262 31.7307C35.552 31.4313 35.4739 31.1174 35.3928 30.7923L36.5683 30.4773L39.602 29.6644L39.6864 29.9403C40.1203 31.3023 40.5344 32.5996 40.9103 33.7803C41.0068 34.1308 41.1519 34.4661 41.3412 34.7764C41.5423 35.0851 41.803 35.3505 42.1079 35.5573C42.6418 35.9216 43.2883 36.0832 43.9308 36.0129C44.379 35.9258 44.8162 35.7892 45.2343 35.6058C45.5831 35.4709 45.8811 35.3462 46.1237 35.2406C46.6078 35.0247 46.8664 34.8691 46.8431 34.7821C46.8198 34.6952 46.518 34.6897 45.9911 34.7455C45.7275 34.773 45.4059 34.816 45.0382 34.874C44.657 34.9537 44.2702 35.0034 43.8812 35.0226C43.4951 35.0008 43.1278 34.8481 42.8401 34.5896C42.6894 34.4531 42.5666 34.2889 42.4783 34.1058C42.3842 33.8839 42.3194 33.6506 42.2855 33.4119C42.0215 32.2011 41.7306 30.8708 41.4254 29.4744C41.104 28.0814 40.7677 26.6234 40.4291 25.1539C40.2551 24.4239 40.0793 23.684 39.9048 22.9524C39.6916 22.4434 39.6401 21.8812 39.7573 21.342C39.8805 20.9336 40.1534 20.5868 40.5214 20.371C40.6095 20.3226 40.7008 20.2805 40.7948 20.245L40.9406 20.206L41.1733 20.1436L42.1592 19.8941C42.4913 19.8125 42.8407 19.8373 43.158 19.9648C43.4753 20.0924 43.7447 20.3163 43.928 20.605C43.9977 20.7197 44.0532 20.8425 44.0933 20.9706C44.1112 21.0115 44.1471 21.1521 44.1762 21.2608L44.2668 21.5989L44.6198 22.8971L45.2694 25.2472C45.6894 26.7052 46.0512 27.9588 46.3623 29.0395C46.6735 30.1203 46.9659 31.0153 47.2143 31.7651C47.2773 31.953 47.3372 32.1314 47.3939 32.3003C47.4301 32.3964 47.461 32.4943 47.4865 32.5939C47.5183 32.7576 47.5219 32.9258 47.497 33.0907C47.3961 33.5077 47.2031 33.8966 46.9322 34.2292C46.8731 34.3073 46.8339 34.3987 46.8183 34.4954C46.8027 34.5921 46.8111 34.6912 46.8427 34.7839C46.8871 34.9498 46.942 35.1223 47.3144 35.1434C47.599 35.1385 47.877 35.0575 48.1196 34.9086C48.5989 34.6256 48.9759 34.1976 49.1961 33.6864C49.3626 33.3058 49.4481 32.8947 49.4474 32.4792C49.4427 32.2414 49.4151 32.0047 49.3649 31.7722L49.2537 31.2186C49.0931 30.4453 48.8866 29.5264 48.628 28.4324C48.5416 28.0811 48.4475 27.7041 48.3514 27.3165L53.3093 25.9811L53.4556 26.4597C53.8963 27.8465 54.3158 29.1676 54.6984 30.3698C54.8091 30.7413 54.9949 31.0861 55.2443 31.3829C55.4936 31.6798 55.8012 31.9224 56.148 32.0956C56.737 32.3907 57.4142 32.4584 58.05 32.2858C59.9131 31.6451 60.9633 31.1781 60.9324 31.0078C60.9014 30.8374 59.6778 30.9988 57.8529 31.3152C57.4452 31.3619 57.035 31.2525 56.7047 31.0089C56.3744 30.7653 56.1487 30.4057 56.073 30.0024C55.8031 28.7699 55.506 27.4162 55.1942 25.9948C54.8662 24.5777 53.9311 20.598 53.5085 18.799C53.1256 17.1671 54.1439 16.713 54.5154 16.5695L54.6635 16.5298L54.9051 16.4651L55.9095 16.2106C56.1382 16.137 56.375 16.0918 56.6147 16.076C56.97 16.0704 57.3174 16.1816 57.6036 16.3923C57.8898 16.6031 58.099 16.9018 58.1993 17.2427L58.2877 17.5728C58.7451 19.2572 58.5181 18.4327 59.3076 21.2854C59.7345 22.7692 60.1025 24.0461 60.4188 25.1462C60.7352 26.2462 61.0319 27.1573 61.2842 27.9216C61.3478 28.1117 61.4086 28.2934 61.4665 28.4666L61.5321 28.6569C61.547 28.701 61.559 28.7459 61.5682 28.7914C61.6069 28.9566 61.6144 29.1275 61.5902 29.2954C61.4943 29.7208 61.2997 30.1176 61.0221 30.4538C60.9619 30.5318 60.9219 30.6234 60.9056 30.7205C60.8894 30.8176 60.8973 30.9172 60.9288 31.0105C60.9732 31.1764 61.0283 31.3496 61.4067 31.3673C61.6958 31.36 61.9777 31.275 62.2226 31.1211C62.7076 30.8286 63.0852 30.3872 63.299 29.8627C63.5074 29.3573 63.5747 28.8048 63.4937 28.2642L63.4351 27.9391L63.3212 27.3758C63.1567 26.588 62.9459 25.653 62.6821 24.5397C62.6022 24.2159 62.5174 23.8736 62.4296 23.5201C63.9773 23.1019 65.4869 22.6932 66.9585 22.2937L67.056 22.6127C67.4898 23.9738 67.9031 25.2714 68.28 26.4528C68.3758 26.8038 68.521 27.1393 68.7111 27.4496C68.9126 27.7578 69.1734 28.0229 69.4783 28.2294C70.0126 28.5932 70.6592 28.7542 71.3016 28.6832C71.7496 28.5962 72.1866 28.4597 72.6044 28.2763C72.954 28.1412 73.2519 28.0166 73.4946 27.911C73.9786 27.695 74.2372 27.5394 74.2139 27.4524C74.1906 27.3655 73.8889 27.3601 73.3619 27.4158C73.0983 27.4433 72.7768 27.4863 72.4083 27.5445C72.0271 27.6239 71.6403 27.6739 71.2515 27.6939C70.8651 27.6719 70.4978 27.5194 70.2096 27.2612C70.0588 27.1249 69.9359 26.9605 69.8478 26.7773C69.7534 26.5558 69.6884 26.3229 69.6544 26.0845C69.3901 24.873 69.0992 23.5425 68.7951 22.1467C66.9915 14.3302 66.9386 14.6188 67.1265 14.0127C67.2498 13.6044 67.5227 13.2576 67.8906 13.0417C68.3232 12.7981 70.4999 11.9266 71.2974 13.2731C71.5094 13.665 71.3103 13.1023 72.6402 17.9141C73.0604 19.3729 73.4224 20.6272 73.7333 21.7072C74.0443 22.7871 74.3371 23.6837 74.5855 24.4335C74.6482 24.6204 74.7081 24.7988 74.7652 24.9687C74.8014 25.0648 74.8323 25.1629 74.8577 25.2624C74.8895 25.4262 74.893 25.5942 74.8682 25.7592C74.7673 26.1761 74.5743 26.5651 74.3035 26.8978C74.2443 26.9758 74.2052 27.0672 74.1896 27.1639C74.1739 27.2606 74.1823 27.3597 74.2139 27.4524C74.2584 27.6183 74.3132 27.7909 74.6856 27.8119C74.9702 27.8071 75.2483 27.726 75.4908 27.5772C75.9701 27.2941 76.3471 26.8661 76.5674 26.355C76.7338 25.9743 76.8193 25.5632 76.8186 25.1477C76.8139 24.9099 76.7863 24.6731 76.7362 24.4406L76.6249 23.887C76.4643 23.1137 76.2576 22.194 75.999 21.1001L75.7059 19.9161C77.5644 19.4095 79.3462 18.9226 81.061 18.4528C81.445 19.6443 81.8119 20.7852 82.1467 21.8251L82.4171 22.6345L82.558 23.0412C82.6142 23.2009 82.6844 23.3554 82.7679 23.5027C83.0757 24.0281 83.5512 24.4346 84.118 24.6571C84.5677 24.8318 85.0582 24.8739 85.5311 24.7782C85.8422 24.6993 86.144 24.5877 86.4317 24.4453C86.8867 24.2371 87.1293 24.0858 87.106 23.9989C87.0827 23.9119 86.797 23.9022 86.299 23.9502C85.7099 24.1046 85.0847 24.0366 84.5426 23.7589C84.2317 23.5688 83.9893 23.2847 83.8506 22.9477C83.7797 22.7344 83.7269 22.5156 83.6926 22.2936L83.5221 21.4574C83.2756 20.3153 83.0056 19.0596 82.7218 17.7429C82.1333 15.1667 81.7409 13.4381 81.1817 11.0871C81.1611 10.9826 81.1485 10.8766 81.1442 10.7701C81.1388 10.563 81.1712 10.3567 81.24 10.1612C81.3693 9.79692 81.6213 9.48891 81.9527 9.28992C82.2841 9.09093 82.6744 9.01326 83.0567 9.07027C83.3798 9.12271 83.6798 9.27066 83.9181 9.49498C84.1564 9.71931 84.3222 10.0098 84.3941 10.3291C85.3552 13.9159 86.1156 16.6151 86.7258 18.6444C87.0312 19.6585 87.2987 20.5058 87.5352 21.2113C87.6267 21.4372 87.6977 21.6709 87.7473 21.9095C87.7679 22.0654 87.7622 22.2236 87.7304 22.3776C87.6196 22.7692 87.4326 23.135 87.1801 23.4543C87.1249 23.5334 87.0891 23.6244 87.0757 23.72C87.0623 23.8155 87.0717 23.9128 87.103 24.004C87.1173 24.1115 87.1721 24.2094 87.2562 24.2778C87.3403 24.3462 87.4473 24.38 87.5555 24.3721C87.8251 24.3745 88.0906 24.3064 88.3257 24.1743C88.7857 23.9227 89.158 23.5366 89.3927 23.0677C89.5726 22.7193 89.6807 22.3382 89.7103 21.9471C89.7278 21.5146 89.6819 21.0817 89.574 20.6625C89.4261 19.9332 89.2325 19.066 88.9916 18.0346C88.8707 17.5225 88.7375 16.9705 88.591 16.3755L93.3632 15.0459L93.4028 15.1743C93.8247 16.4911 94.2273 17.7458 94.5929 18.8879L94.8785 19.7381C94.9967 20.074 95.178 20.3843 95.4125 20.6522C95.8261 21.1208 96.3884 21.4326 97.0049 21.5355C97.4853 21.6099 97.977 21.5492 98.4249 21.3604C98.7616 21.2287 99.0475 21.1073 99.2845 21.0032C99.7517 20.7917 100.001 20.6384 99.9781 20.5515C99.9548 20.4645 99.6619 20.4568 99.1518 20.5081C98.8995 20.5325 98.586 20.5733 98.2288 20.6284C97.897 20.697 97.5529 20.6764 97.2316 20.5687C96.8779 20.4456 96.5744 20.2098 96.3675 19.8976C96.2601 19.7315 96.1846 19.5468 96.1448 19.3531C96.0885 19.0806 96.0303 18.8013 95.9704 18.5153C95.3108 15.4707 95.0191 14.0439 93.6797 8.39151L93.5523 7.86135C93.5246 7.74636 93.5073 7.6291 93.5007 7.51101C93.4832 7.19952 93.5522 6.88921 93.7 6.61447C93.8478 6.33973 94.0687 6.11121 94.3383 5.95415C94.4232 5.90644 94.5118 5.86545 94.6031 5.83146C94.6973 5.80622 94.7671 5.77977 94.959 5.7361C95.1851 5.66434 95.4192 5.62078 95.656 5.60634C95.9854 5.60138 96.3086 5.69652 96.5828 5.87934C96.8569 6.06215 97.069 6.32399 97.191 6.63006C98.7563 12.2978 98.2427 10.4774 99.5558 15.0236C99.8676 16.0619 100.143 16.9374 100.384 17.6606C100.442 17.8331 100.498 17.9978 100.55 18.1546C100.583 18.2383 100.607 18.3256 100.62 18.4147C100.645 18.5741 100.644 18.7366 100.616 18.8956C100.509 19.2982 100.32 19.674 100.06 19.9989C100.003 20.0775 99.9652 20.1688 99.9508 20.2649C99.9365 20.361 99.9454 20.4591 99.9771 20.5509C100.022 20.7176 100.075 20.8888 100.438 20.915C100.714 20.9154 100.985 20.8427 101.224 20.7045C101.693 20.4404 102.067 20.0361 102.295 19.5485C102.572 18.9664 102.655 18.3107 102.532 17.6779L102.423 17.1178C102.269 16.3687 102.07 15.4787 101.821 14.4202C101.697 13.92 101.563 13.3778 101.42 12.7975C101.758 12.7069 102.096 12.6163 102.416 12.5219C102.663 12.447 102.913 12.3801 103.16 12.3052L103.329 12.2599C103.353 12.252 103.379 12.2482 103.404 12.2485C103.453 12.2473 103.502 12.2576 103.547 12.2786C103.591 12.2997 103.63 12.3309 103.661 12.3696C103.704 12.4161 103.732 12.475 103.74 12.5381C103.799 12.7555 103.867 12.9787 103.923 13.1881C104.425 14.9003 104.88 16.4353 105.278 17.7954C106.128 20.6745 106.94 23.3364 107.914 26.1501C107.969 26.2907 108.012 26.4174 108.062 26.5419C108.088 26.6042 108.105 26.6686 108.128 26.7228L108.174 26.8312C108.213 26.9461 108.231 27.067 108.227 27.1882C108.192 27.5141 108.061 27.8224 107.851 28.0741C107.806 28.1284 107.775 28.1924 107.759 28.2611C107.743 28.3297 107.743 28.4012 107.759 28.4699C107.746 28.4215 107.478 28.4503 106.965 28.5357C106.224 28.6655 104.991 28.9269 103.315 29.3069C85.3894 33.4023 28.3917 48.2796 10.8687 52.8524C10.8435 52.8575 10.8175 52.8587 10.7919 52.8557C10.7679 52.8478 10.746 52.8346 10.7278 52.817C10.7097 52.7995 10.6958 52.778 10.6871 52.7543C9.30489 47.4154 7.38645 40.1044 7.28633 39.7178L7.28612 39.7171Z" fill="#31394D"/>
<path d="M9.23024 59.3717C9.98416 62.121 10.7343 64.8884 11.4932 67.6882C14.5402 78.8666 17.6757 90.3752 20.7955 101.793C21.5774 104.647 22.3546 107.493 23.1268 110.333L24.29 114.577L24.4383 115.099L24.5095 115.364C24.5311 115.445 24.5893 115.662 24.6421 115.795C24.865 116.403 25.2872 116.917 25.8399 117.255C26.3926 117.593 27.0433 117.733 27.6861 117.654C27.8461 117.631 28.0048 117.6 28.1617 117.561L28.4494 117.476L28.9808 117.333C34.592 115.795 40.1205 114.271 45.5304 112.786C67.1476 106.83 86.7073 101.408 100.856 97.4011C107.931 95.4017 113.644 93.7588 117.585 92.5906C119.559 92.0014 121.084 91.5411 122.115 91.2042C122.656 91.0762 123.177 90.8756 123.664 90.608C123.109 90.6198 122.557 90.7066 122.025 90.866C120.963 91.0901 119.41 91.4459 117.408 91.9304C113.411 92.8893 107.642 94.3229 100.515 96.129C86.2586 99.7333 66.6061 104.809 44.9091 110.468C39.4819 111.887 33.9318 113.331 28.3033 114.805L27.7698 114.939L27.4799 115.017C27.3981 115.027 27.3155 115.006 27.2485 114.958C27.2132 114.939 27.1822 114.912 27.1574 114.88C27.1325 114.848 27.1143 114.812 27.1038 114.773L26.8746 113.885L25.7596 109.627C25.0135 106.778 24.2632 103.924 23.5088 101.066C20.5017 89.6179 17.4628 78.0835 14.5124 66.8792C13.7697 64.0751 13.0437 61.3012 12.3139 58.5454C12.068 57.6276 11.8242 56.7178 11.5885 55.8058L12.3292 55.6073C29.9651 50.7506 85.778 35.4159 103.502 29.9521C105.144 29.4433 106.342 29.0532 107.049 28.7946C110.664 42.0473 116.081 61.9381 119.911 75.1833C122.135 82.906 123.415 86.9728 124.148 88.9338C124.232 89.192 124.218 89.4726 124.108 89.721C124.044 89.8871 123.95 90.0406 123.833 90.1745C123.664 90.3835 123.632 90.4873 123.664 90.608C123.692 90.7127 123.763 90.849 124.15 90.7798C124.448 90.7071 124.718 90.5478 124.925 90.3219C125.127 90.1035 125.278 89.8433 125.368 89.5597C125.457 89.2761 125.483 88.9762 125.443 88.6815C125.066 86.4354 124.167 82.4047 122.23 74.562C116.292 50.6272 112.324 37.0738 107.608 17.1593C107.265 15.7841 106.891 14.2274 106.47 12.4936C106.414 12.2843 106.362 12.0566 106.303 11.8393C106.222 11.445 106.064 11.0709 105.836 10.7391C105.592 10.3867 105.273 10.0924 104.902 9.87712C104.531 9.66182 104.117 9.53077 103.69 9.49329C103.467 9.47887 103.244 9.48675 103.023 9.5167C102.834 9.54857 102.646 9.59017 102.461 9.64138C102.209 9.70021 101.96 9.76708 101.71 9.83396C101.395 9.90982 101.074 9.99588 100.751 10.0737C100.003 7.18747 99.8375 6.59063 99.7233 6.16127C99.6822 6.02387 99.6281 5.84152 99.5673 5.68524C99.2517 4.89068 98.6958 4.21453 97.9773 3.75125C97.2587 3.28796 96.4134 3.06066 95.5594 3.10111C95.1414 3.13273 94.7287 3.21436 94.3302 3.34422C94.1981 3.3796 93.9475 3.45541 93.7231 3.54228C93.4975 3.63444 93.2802 3.74574 93.0736 3.87505C92.3298 4.34527 91.7607 5.04639 91.4535 5.87093C91.1462 6.69547 91.1177 7.59803 91.3723 8.44031L91.5271 8.96314C92.2897 11.5099 92.0756 10.8009 92.503 12.1931C86.8431 13.6493 88.1245 14.3544 86.8655 9.6556C86.7099 9.02879 86.408 8.44788 85.9844 7.9604C85.5608 7.47292 85.0275 7.09281 84.4286 6.85133C83.8296 6.60986 83.1819 6.5138 82.5386 6.57118C81.8953 6.62855 81.2748 6.83769 80.728 7.18135C79.9017 7.70686 79.2934 8.5135 79.0153 9.45245C78.8746 9.92645 78.8232 10.4225 78.8636 10.9153C78.8862 11.1609 78.93 11.4041 78.9944 11.6421C79.7898 14.3173 79.7412 14.1422 80.1281 15.3994C73.2958 17.1887 75.4336 17.5504 73.9009 12.8706C73.7965 12.5352 73.6502 12.2143 73.4655 11.9155C73.0183 11.2062 72.365 10.6505 71.5933 10.3228C69.9808 9.61574 65.6603 10.1349 64.867 13.4126C64.7414 13.9223 64.7181 14.4517 64.7986 14.9704C64.9068 15.5705 65.7834 18.4172 65.9973 19.1219L61.6302 20.2791C60.984 17.7901 61.1972 18.6054 60.7494 16.9115L60.6532 16.5523C60.4675 15.8852 60.1156 15.276 59.6305 14.7818C59.1454 14.2876 58.5429 13.9245 57.8793 13.7265C57.4386 13.5917 56.9777 13.5347 56.5173 13.5581C55.2809 13.7155 54.0793 14.0775 52.9616 14.6291C52.1807 15.1096 51.5905 15.846 51.2917 16.7128C50.9929 17.5797 51.004 18.5233 51.323 19.3829C51.9079 21.3533 52.046 21.8237 52.3291 22.7514L47.5365 24.0305C47.3888 23.4599 47.2349 22.8695 47.0719 22.2384C46.9595 21.8192 46.8448 21.3857 46.7277 20.9378L46.6371 20.5996C46.6056 20.4821 46.5859 20.3924 46.5249 20.2069C46.2079 19.191 45.5079 18.3385 44.5731 17.8299C43.6384 17.3214 42.5424 17.1968 41.5173 17.4824L40.5387 17.7594L40.2715 17.8378L39.9189 17.9582C39.6854 18.0529 39.4606 18.1679 39.2473 18.3021C38.3703 18.8613 37.7419 19.7363 37.492 20.746C37.3671 21.2556 37.3441 21.785 37.4244 22.3036C37.5076 22.7186 37.6151 23.1283 37.7463 23.5307C37.9614 24.2497 38.1778 24.977 38.3937 25.6993C38.4665 25.9386 38.5401 26.1778 38.6129 26.4172L35.6943 27.1993L34.5759 27.4989C33.9127 24.9463 34.1078 25.6905 33.6724 24.0433C33.5971 23.7343 33.4927 23.4333 33.3607 23.144C33.2067 22.8175 33.0091 22.5134 32.7733 22.24C30.3817 19.3755 24.6841 21.2094 23.9704 24.4459C23.8533 24.9715 23.8438 25.5154 23.9423 26.0447L24.0327 26.4304L24.1146 26.707C25.0298 29.8005 24.9113 29.3939 25.1127 30.0519L20.3647 31.3335C19.359 27.4609 19.3014 26.7627 18.3385 25.81C17.7223 25.1928 16.9255 24.7879 16.0638 24.6539C14.5848 24.4289 11.7789 25.4672 11.2325 25.8113C10.7805 26.0997 10.3906 26.4752 10.0854 26.9159C9.78019 27.3567 9.56587 27.8539 9.45494 28.3784C9.34219 28.9122 9.3401 29.4635 9.44881 29.9981C9.52181 30.3349 9.54164 30.3831 10.4587 33.4675L10.6115 33.9702C9.72803 34.2155 8.82707 34.457 7.92828 34.7064L6.51126 35.0861L6.15916 35.1891C5.75202 35.2797 5.36677 35.4498 5.02554 35.6896C4.68432 35.9295 4.39381 36.2344 4.17073 36.5868C3.94765 36.9393 3.7964 37.3323 3.72561 37.7434C3.65482 38.1544 3.66591 38.5754 3.75825 38.9822L4.17892 40.5522C4.20049 40.6327 7.86174 54.2354 7.57088 53.2433C7.75209 53.9196 7.9333 54.5959 8.12257 55.2701C8.48673 56.6291 8.86155 57.9957 9.23024 59.3717ZM7.28612 39.7171L6.93447 38.4047C6.93172 38.3932 6.93291 38.3811 6.93787 38.3704C6.94283 38.3597 6.95123 38.3509 6.96176 38.3455C8.5189 37.9283 10.0235 37.5338 11.5731 37.1272C11.6964 37.5326 12.8854 41.4131 13.1198 41.9561C13.3611 42.4789 13.7578 42.9144 14.2559 43.2032C14.7541 43.492 15.3292 43.62 15.9028 43.5696C16.1958 43.5353 16.483 43.463 16.7573 43.3545C18.5986 42.7032 19.7187 42.2295 19.6731 42.0597C19.6276 41.8898 18.421 42.0405 16.5008 42.3971C15.3857 42.6156 14.6782 42.1555 14.4318 41.4034C11.6258 28.841 11.5555 29.6062 11.7413 28.8954C12.0704 27.6051 15.4557 26.5195 16.5365 27.6063C17.1812 28.2378 18.0557 32.9542 20.0029 38.8846C20.3075 39.7928 20.3907 39.9552 20.3412 40.3179C20.2534 40.7539 20.0573 41.1607 19.7711 41.501C19.7094 41.5786 19.6682 41.6703 19.6511 41.7679C19.6339 41.8655 19.6415 41.9658 19.6731 42.0597C19.7163 42.2207 19.7729 42.3997 20.1579 42.4131C20.453 42.4035 20.7397 42.3132 20.9871 42.152C21.4802 41.8486 21.8584 41.39 22.0625 40.8482C22.2196 40.4472 22.2875 40.0167 22.2612 39.5868C22.2118 39.1682 22.139 38.7527 22.0434 38.3422C21.8746 37.5383 21.6581 36.5823 21.3881 35.4457L21.1725 34.5767L26.0942 33.2674C26.1526 33.4562 26.2121 33.6526 26.2692 33.8401C26.7097 35.2521 27.1147 36.5476 27.5323 37.8069C27.6631 38.177 27.8695 38.5158 28.1384 38.8018C28.4073 39.0878 28.7327 39.3147 29.0941 39.468C29.7035 39.7236 30.385 39.7491 31.0117 39.5394C32.824 38.8958 33.932 38.4254 33.8865 38.2555C33.841 38.0856 32.6505 38.232 30.7551 38.582C30.3628 38.6488 29.9595 38.5754 29.6158 38.3747C29.4335 38.2678 29.275 38.125 29.1497 37.9549C29.0245 37.7847 28.9352 37.5909 28.8872 37.3852C28.6162 36.1513 28.317 34.7964 28.0043 33.3752C27.6734 31.9468 26.7288 27.9353 26.3026 26.1225L26.2344 25.8421L26.2033 25.665C26.1738 25.4405 26.1896 25.2124 26.2496 24.9941C26.644 23.5673 29.8643 22.7036 30.8336 23.8927C30.9236 23.9965 30.9988 24.1123 31.0569 24.2368C31.1247 24.3868 31.177 24.5434 31.2132 24.704C31.6738 26.4005 31.4333 25.5252 32.241 28.4465C32.6712 29.9423 33.041 31.2291 33.3605 32.3378C33.68 33.4465 33.9779 34.3651 34.2309 35.1353C34.6863 36.545 34.7758 36.2543 33.9814 37.6985C33.9208 37.7763 33.8804 37.8679 33.8638 37.9651C33.8473 38.0623 33.8551 38.1621 33.8865 38.2555C33.9309 38.4214 33.987 38.5954 34.3674 38.6108C34.6587 38.6032 34.9424 38.5161 35.1879 38.359C36.7588 37.4264 36.4946 35.8283 36.2703 34.5888C36.1051 33.7951 35.8915 32.853 35.6262 31.7307C35.552 31.4313 35.4739 31.1174 35.3928 30.7923L36.5683 30.4773L39.602 29.6644L39.6864 29.9403C40.1203 31.3023 40.5344 32.5996 40.9103 33.7803C41.0068 34.1308 41.1519 34.4661 41.3412 34.7764C41.5423 35.0851 41.803 35.3505 42.1079 35.5573C42.6418 35.9216 43.2883 36.0832 43.9308 36.0129C44.379 35.9258 44.8162 35.7892 45.2343 35.6058C45.5831 35.4709 45.8811 35.3462 46.1237 35.2406C46.6078 35.0247 46.8664 34.8691 46.8431 34.7821C46.8198 34.6952 46.518 34.6897 45.9911 34.7455C45.7275 34.773 45.4059 34.816 45.0382 34.874C44.657 34.9537 44.2702 35.0034 43.8812 35.0226C43.4951 35.0008 43.1278 34.8481 42.8401 34.5896C42.6894 34.4531 42.5666 34.2889 42.4783 34.1058C42.3842 33.8839 42.3194 33.6506 42.2855 33.4119C42.0215 32.2011 41.7306 30.8708 41.4254 29.4744C41.104 28.0814 40.7677 26.6234 40.4291 25.1539C40.2551 24.4239 40.0793 23.684 39.9048 22.9524C39.6916 22.4434 39.6401 21.8812 39.7573 21.342C39.8805 20.9336 40.1534 20.5868 40.5214 20.371C40.6095 20.3226 40.7008 20.2805 40.7948 20.245L40.9406 20.206L41.1733 20.1436L42.1592 19.8941C42.4913 19.8125 42.8407 19.8373 43.158 19.9648C43.4753 20.0924 43.7447 20.3163 43.928 20.605C43.9977 20.7197 44.0532 20.8425 44.0933 20.9706C44.1112 21.0115 44.1471 21.1521 44.1762 21.2608L44.2668 21.5989L44.6198 22.8971L45.2694 25.2472C45.6894 26.7052 46.0512 27.9588 46.3623 29.0395C46.6735 30.1203 46.9659 31.0153 47.2143 31.7651C47.2773 31.953 47.3372 32.1314 47.3939 32.3003C47.4301 32.3964 47.461 32.4943 47.4865 32.5939C47.5183 32.7576 47.5219 32.9258 47.497 33.0907C47.3961 33.5077 47.2031 33.8966 46.9322 34.2292C46.8731 34.3073 46.8339 34.3987 46.8183 34.4954C46.8027 34.5921 46.8111 34.6912 46.8427 34.7839C46.8871 34.9498 46.942 35.1223 47.3144 35.1434C47.599 35.1385 47.877 35.0575 48.1196 34.9086C48.5989 34.6256 48.9759 34.1976 49.1961 33.6864C49.3626 33.3058 49.4481 32.8947 49.4474 32.4792C49.4427 32.2414 49.4151 32.0047 49.3649 31.7722L49.2537 31.2186C49.0931 30.4453 48.8866 29.5264 48.628 28.4324C48.5416 28.0811 48.4475 27.7041 48.3514 27.3165L53.3093 25.9811L53.4556 26.4597C53.8963 27.8465 54.3158 29.1676 54.6984 30.3698C54.8091 30.7413 54.9949 31.0861 55.2443 31.3829C55.4936 31.6798 55.8012 31.9224 56.148 32.0956C56.737 32.3907 57.4142 32.4584 58.05 32.2858C59.9131 31.6451 60.9633 31.1781 60.9324 31.0078C60.9014 30.8374 59.6778 30.9988 57.8529 31.3152C57.4452 31.3619 57.035 31.2525 56.7047 31.0089C56.3744 30.7653 56.1487 30.4057 56.073 30.0024C55.8031 28.7699 55.506 27.4162 55.1942 25.9948C54.8662 24.5777 53.9311 20.598 53.5085 18.799C53.1256 17.1671 54.1439 16.713 54.5154 16.5695L54.6635 16.5298L54.9051 16.4651L55.9095 16.2106C56.1382 16.137 56.375 16.0918 56.6147 16.076C56.97 16.0704 57.3174 16.1816 57.6036 16.3923C57.8898 16.6031 58.099 16.9018 58.1993 17.2427L58.2877 17.5728C58.7451 19.2572 58.5181 18.4327 59.3076 21.2854C59.7345 22.7692 60.1025 24.0461 60.4188 25.1462C60.7352 26.2462 61.0319 27.1573 61.2842 27.9216C61.3478 28.1117 61.4086 28.2934 61.4665 28.4666L61.5321 28.6569C61.547 28.701 61.559 28.7459 61.5682 28.7914C61.6069 28.9566 61.6144 29.1275 61.5902 29.2954C61.4943 29.7208 61.2997 30.1176 61.0221 30.4538C60.9619 30.5318 60.9219 30.6234 60.9056 30.7205C60.8894 30.8176 60.8973 30.9172 60.9288 31.0105C60.9732 31.1764 61.0283 31.3496 61.4067 31.3673C61.6958 31.36 61.9777 31.275 62.2226 31.1211C62.7076 30.8286 63.0852 30.3872 63.299 29.8627C63.5074 29.3573 63.5747 28.8048 63.4937 28.2642L63.4351 27.9391L63.3212 27.3758C63.1567 26.588 62.9459 25.653 62.6821 24.5397C62.6022 24.2159 62.5174 23.8736 62.4296 23.5201C63.9773 23.1019 65.4869 22.6932 66.9585 22.2937L67.056 22.6127C67.4898 23.9738 67.9031 25.2714 68.28 26.4528C68.3758 26.8038 68.521 27.1393 68.7111 27.4496C68.9126 27.7578 69.1734 28.0229 69.4783 28.2294C70.0126 28.5932 70.6592 28.7542 71.3016 28.6832C71.7496 28.5962 72.1866 28.4597 72.6044 28.2763C72.954 28.1412 73.2519 28.0166 73.4946 27.911C73.9786 27.695 74.2372 27.5394 74.2139 27.4524C74.1906 27.3655 73.8889 27.3601 73.3619 27.4158C73.0983 27.4433 72.7768 27.4863 72.4083 27.5445C72.0271 27.6239 71.6403 27.6739 71.2515 27.6939C70.8651 27.6719 70.4978 27.5194 70.2096 27.2612C70.0588 27.1249 69.9359 26.9605 69.8478 26.7773C69.7534 26.5558 69.6884 26.3229 69.6544 26.0845C69.3901 24.873 69.0992 23.5425 68.7951 22.1467C66.9915 14.3302 66.9386 14.6188 67.1265 14.0127C67.2498 13.6044 67.5227 13.2576 67.8906 13.0417C68.3232 12.7981 70.4999 11.9266 71.2974 13.2731C71.5094 13.665 71.3103 13.1023 72.6402 17.9141C73.0604 19.3729 73.4224 20.6272 73.7333 21.7072C74.0443 22.7871 74.3371 23.6837 74.5855 24.4335C74.6482 24.6204 74.7081 24.7988 74.7652 24.9687C74.8014 25.0648 74.8323 25.1629 74.8577 25.2624C74.8895 25.4262 74.893 25.5942 74.8682 25.7592C74.7673 26.1761 74.5743 26.5651 74.3035 26.8978C74.2443 26.9758 74.2052 27.0672 74.1896 27.1639C74.1739 27.2606 74.1823 27.3597 74.2139 27.4524C74.2584 27.6183 74.3132 27.7909 74.6856 27.8119C74.9702 27.8071 75.2483 27.726 75.4908 27.5772C75.9701 27.2941 76.3471 26.8661 76.5674 26.355C76.7338 25.9743 76.8193 25.5632 76.8186 25.1477C76.8139 24.9099 76.7863 24.6731 76.7362 24.4406L76.6249 23.887C76.4643 23.1137 76.2576 22.194 75.999 21.1001L75.7059 19.9161C77.5644 19.4095 79.3462 18.9226 81.061 18.4528C81.445 19.6443 81.8119 20.7852 82.1467 21.8251L82.4171 22.6345L82.558 23.0412C82.6142 23.2009 82.6844 23.3554 82.7679 23.5027C83.0757 24.0281 83.5512 24.4346 84.118 24.6571C84.5677 24.8318 85.0582 24.8739 85.5311 24.7782C85.8422 24.6993 86.144 24.5877 86.4317 24.4453C86.8867 24.2371 87.1293 24.0858 87.106 23.9989C87.0827 23.9119 86.797 23.9022 86.299 23.9502C85.7099 24.1046 85.0847 24.0366 84.5426 23.7589C84.2317 23.5688 83.9893 23.2847 83.8506 22.9477C83.7797 22.7344 83.7269 22.5156 83.6926 22.2936L83.5221 21.4574C83.2756 20.3153 83.0056 19.0596 82.7218 17.7429C82.1333 15.1667 81.7409 13.4381 81.1817 11.0871C81.1611 10.9826 81.1485 10.8766 81.1442 10.7701C81.1388 10.563 81.1712 10.3567 81.24 10.1612C81.3693 9.79692 81.6213 9.48891 81.9527 9.28992C82.2841 9.09093 82.6744 9.01326 83.0567 9.07027C83.3798 9.12271 83.6798 9.27066 83.9181 9.49498C84.1564 9.71931 84.3222 10.0098 84.3941 10.3291C85.3552 13.9159 86.1156 16.6151 86.7258 18.6444C87.0312 19.6585 87.2987 20.5058 87.5352 21.2113C87.6267 21.4372 87.6977 21.6709 87.7473 21.9095C87.7679 22.0654 87.7622 22.2236 87.7304 22.3776C87.6196 22.7692 87.4326 23.135 87.1801 23.4543C87.1249 23.5334 87.0891 23.6244 87.0757 23.72C87.0623 23.8155 87.0717 23.9128 87.103 24.004C87.1173 24.1115 87.1721 24.2094 87.2562 24.2778C87.3403 24.3462 87.4473 24.38 87.5555 24.3721C87.8251 24.3745 88.0906 24.3064 88.3257 24.1743C88.7857 23.9227 89.158 23.5366 89.3927 23.0677C89.5726 22.7193 89.6807 22.3382 89.7103 21.9471C89.7278 21.5146 89.6819 21.0817 89.574 20.6625C89.4261 19.9332 89.2325 19.066 88.9916 18.0346C88.8707 17.5225 88.7375 16.9705 88.591 16.3755L93.3632 15.0459L93.4028 15.1743C93.8247 16.4911 94.2273 17.7458 94.5929 18.8879L94.8785 19.7381C94.9967 20.074 95.178 20.3843 95.4125 20.6522C95.8261 21.1208 96.3884 21.4326 97.0049 21.5355C97.4853 21.6099 97.977 21.5492 98.4249 21.3604C98.7616 21.2287 99.0475 21.1073 99.2845 21.0032C99.7517 20.7917 100.001 20.6384 99.9781 20.5515C99.9548 20.4645 99.6619 20.4568 99.1518 20.5081C98.8995 20.5325 98.586 20.5733 98.2288 20.6284C97.897 20.697 97.5529 20.6764 97.2316 20.5687C96.8779 20.4456 96.5744 20.2098 96.3675 19.8976C96.2601 19.7315 96.1846 19.5468 96.1448 19.3531C96.0885 19.0806 96.0303 18.8013 95.9704 18.5153C95.3108 15.4707 95.0191 14.0439 93.6797 8.39151L93.5523 7.86135C93.5246 7.74636 93.5073 7.6291 93.5007 7.51101C93.4832 7.19952 93.5522 6.88921 93.7 6.61447C93.8478 6.33973 94.0687 6.11121 94.3383 5.95415C94.4232 5.90644 94.5118 5.86545 94.6031 5.83146C94.6973 5.80622 94.7671 5.77977 94.959 5.7361C95.1851 5.66434 95.4192 5.62078 95.656 5.60634C95.9854 5.60138 96.3086 5.69652 96.5828 5.87934C96.8569 6.06215 97.069 6.32399 97.191 6.63006C98.7563 12.2978 98.2427 10.4774 99.5558 15.0236C99.8676 16.0619 100.143 16.9374 100.384 17.6606C100.442 17.8331 100.498 17.9978 100.55 18.1546C100.583 18.2383 100.607 18.3256 100.62 18.4147C100.645 18.5741 100.644 18.7366 100.616 18.8956C100.509 19.2982 100.32 19.674 100.06 19.9989C100.003 20.0775 99.9652 20.1688 99.9508 20.2649C99.9365 20.361 99.9454 20.4591 99.9771 20.5509C100.022 20.7176 100.075 20.8888 100.438 20.915C100.714 20.9154 100.985 20.8427 101.224 20.7045C101.693 20.4404 102.067 20.0361 102.295 19.5485C102.572 18.9664 102.655 18.3107 102.532 17.6779L102.423 17.1178C102.269 16.3687 102.07 15.4787 101.821 14.4202C101.697 13.92 101.563 13.3778 101.42 12.7975C101.758 12.7069 102.096 12.6163 102.416 12.5219C102.663 12.447 102.913 12.3801 103.16 12.3052L103.329 12.2599C103.353 12.252 103.379 12.2482 103.404 12.2485C103.453 12.2473 103.502 12.2576 103.547 12.2786C103.591 12.2997 103.63 12.3309 103.661 12.3696C103.704 12.4161 103.732 12.475 103.74 12.5381C103.799 12.7555 103.867 12.9787 103.923 13.1881C104.425 14.9003 104.88 16.4353 105.278 17.7954C106.128 20.6745 106.94 23.3364 107.914 26.1501C107.969 26.2907 108.012 26.4174 108.062 26.5419C108.088 26.6042 108.105 26.6686 108.128 26.7228L108.174 26.8312C108.213 26.9461 108.231 27.067 108.227 27.1882C108.192 27.5141 108.061 27.8224 107.851 28.0741C107.806 28.1284 107.775 28.1924 107.759 28.2611C107.743 28.3297 107.743 28.4012 107.759 28.4699C107.746 28.4215 107.478 28.4503 106.965 28.5357C106.224 28.6655 104.991 28.9269 103.315 29.3069C85.3894 33.4023 28.3917 48.2796 10.8687 52.8524C10.8435 52.8575 10.8175 52.8587 10.7919 52.8557C10.7679 52.8478 10.746 52.8346 10.7278 52.817C10.7097 52.7995 10.6958 52.778 10.6871 52.7543C9.30489 47.4154 7.38645 40.1044 7.28633 39.7178L7.28612 39.7171Z" stroke="#31394D" mask="url(#path-2-outside-1)"/>
<path d="M57.3434 102.787C57.3537 102.789 57.3639 102.791 57.3741 102.794C57.3847 102.91 57.4265 103.021 57.4954 103.116L57.4953 103.116L57.4999 103.122C57.5709 103.213 57.6857 103.35 57.9026 103.478C58.1158 103.603 58.4144 103.711 58.847 103.773L58.8541 103.774L58.8612 103.774C59.2464 103.807 59.6335 103.741 59.9867 103.584C60.3387 103.428 60.6455 103.185 60.8791 102.879C61.1672 102.524 61.404 102.13 61.5825 101.709C61.7596 101.294 61.9107 100.868 62.035 100.434C63.0276 97.0899 62.9484 92.2647 62.484 87.5701C62.0185 82.865 61.1615 78.253 60.5759 75.318L60.576 75.318L60.5745 75.3114C60.2409 73.8473 59.864 72.2828 59.4334 70.7075C59.3368 70.2688 59.2392 69.8203 59.1403 69.366C58.5594 66.6964 57.9345 63.8251 57.199 61.5421L57.1987 61.5412C57.039 61.0517 56.8653 60.5525 56.6671 60.0494C55.9241 57.9107 54.5863 56.0283 52.8108 54.6234L52.8109 54.6232L52.8018 54.6166C51.641 53.7806 50.2598 53.3048 48.8305 53.2484C47.4022 53.1921 45.9889 53.557 44.7665 54.2979C42.004 55.8795 39.2806 59.2406 38.143 63.9038C37.8569 64.969 37.7872 66.0807 37.938 67.1733C37.9902 67.6327 38.1657 68.0695 38.446 68.4373C38.727 68.8059 39.1027 69.0915 39.5332 69.2633L39.5474 69.269L39.5622 69.2729C39.9816 69.3835 40.4207 69.3963 40.8458 69.3105C41.2666 69.2255 41.6625 69.046 42.0037 68.7857C42.812 68.2855 43.739 67.3422 44.5219 66.5455C44.5489 66.518 44.5758 66.4907 44.6024 66.4636C45.0108 66.0483 45.3764 65.6791 45.674 65.4227C45.8233 65.294 45.9459 65.2022 46.0412 65.1479C46.0985 65.1153 46.1304 65.1051 46.1432 65.1017C46.1439 65.1021 46.1446 65.1025 46.1453 65.1029C46.206 65.1441 46.263 65.1903 46.3158 65.2411C46.6145 65.5357 46.8382 65.8976 46.9681 66.2966L46.968 66.2966L46.9704 66.3032C47.1143 66.706 47.2809 67.4436 47.4698 68.4565C47.6577 69.4636 47.8646 70.7259 48.0915 72.1671C48.2271 73.028 48.3697 73.9526 48.5196 74.9239C48.8711 77.2022 49.2624 79.7379 49.6948 82.3127C50.3117 85.9857 51.0136 89.7463 51.8066 92.9674C52.5964 96.1759 53.4842 98.8831 54.4853 100.429C55 101.283 55.726 101.99 56.5932 102.482L56.5932 102.482L56.599 102.485C56.9017 102.646 57.1545 102.741 57.3434 102.787ZM57.8728 102.014C57.7903 102.044 57.7141 102.089 57.6478 102.146C57.6131 102.117 57.5752 102.086 57.5342 102.052C57.4243 101.961 57.2917 101.852 57.135 101.713C56.5214 101.171 56.0265 100.507 55.6814 99.7648L55.6814 99.7648L55.6791 99.7601C54.981 98.3364 54.3579 95.7577 53.7978 92.5886C53.2393 89.4293 52.7482 85.7144 52.3042 82.039C52.093 80.2908 51.8921 78.5481 51.6997 76.8796C51.4884 75.0468 51.2874 73.3034 51.0944 71.7401C50.7263 68.7586 50.3823 66.3865 50.04 65.2547L50.0396 65.2532C49.7658 64.368 49.2871 63.5599 48.6424 62.8944L48.6424 62.8943L48.641 62.8929C48.4583 62.7072 48.2602 62.5372 48.0488 62.3848L48.0477 62.384C47.7812 62.194 47.4914 62.0389 47.1855 61.9226L47.1855 61.9226C45.9671 61.4597 44.9561 61.8255 44.0924 62.4233C43.6642 62.7197 43.2652 63.0774 42.8902 63.4237C42.8321 63.4773 42.7748 63.5305 42.718 63.5832C42.4032 63.8753 42.106 64.151 41.8102 64.3821L41.8011 64.3892L41.7928 64.3971L41.7414 64.4455C42.6665 61.1631 44.8419 58.5743 46.6058 57.6262L46.6058 57.6262L46.6078 57.6251C47.3632 57.2103 48.0549 57.046 48.6839 57.0712C49.3123 57.0964 49.8947 57.3116 50.4309 57.6821C51.5111 58.4283 52.3967 59.8007 53.043 61.4701L53.0436 61.4716C53.2054 61.882 53.351 62.3014 53.4866 62.7245L53.4869 62.7252C53.9071 64.0225 56.5148 74.7633 56.8281 76.0538C56.8444 76.1209 56.8545 76.1624 56.8577 76.1758C57.5007 79.1867 58.3669 83.5822 58.9509 87.9863C59.5361 92.3996 59.8337 96.7937 59.3526 99.8115C59.2844 100.236 59.2245 100.571 59.1546 100.853C59.1024 101.064 59.0421 101.243 59.0006 101.366C58.9869 101.407 58.9752 101.441 58.9665 101.469C58.9392 101.547 58.8952 101.617 58.8377 101.676C58.7794 101.736 58.7086 101.781 58.6303 101.81L58.6303 101.81L58.6219 101.814C58.5056 101.861 58.3793 101.89 58.2478 101.918C58.2334 101.921 58.2185 101.924 58.2032 101.927C58.0963 101.948 57.9707 101.974 57.8728 102.014Z" fill="#31394D" stroke="#31394D" stroke-width="0.5"/>
<mask id="path-4-outside-2" maskUnits="userSpaceOnUse" x="55.8465" y="41.5" width="43.6611" height="59.2175" fill="black">
<rect fill="white" x="55.8465" y="41.5" width="43.6611" height="59.2175"/>
<path d="M89.2264 62.595C89.0144 62.7183 88.936 62.9317 89.1737 63.7577C89.3234 64.262 89.2885 64.803 89.0753 65.2838C88.8739 65.7189 88.6069 66.1205 88.2837 66.4745L87.6298 67.2064C87.1777 67.701 86.9009 68.3307 86.8423 68.9983C86.8264 69.1782 86.8258 69.359 86.8405 69.539C86.8476 69.6493 86.8556 69.7628 86.8632 69.8781C86.878 70.1071 86.8934 70.3419 86.9092 70.5845C86.9385 71.0674 86.9691 71.5789 87.0012 72.1192C87.061 73.1991 87.1185 74.3927 87.148 75.7043C87.1792 77.0024 87.1564 78.4634 87.1302 80.0565C87.0447 83.7245 86.7589 87.334 85.3226 90.7012C85.1859 91.0602 84.9904 91.394 84.7441 91.6889C84.5438 91.8895 84.2923 92.0315 84.0171 92.0994C83.7185 92.1788 83.4039 92.175 83.1072 92.0886C82.8042 91.9837 82.538 91.7935 82.3408 91.5407C80.2659 89.1109 80.1759 80.7783 80.1253 77.7974L80.1199 77.1136C80.1299 76.7108 80.0714 76.3093 79.9467 75.9261C79.8093 75.5303 79.5946 75.1659 79.315 74.8539C79.0354 74.542 78.6966 74.2887 78.3182 74.109C77.9398 73.9293 77.5294 73.8267 77.1109 73.8072C76.6925 73.7877 76.2744 73.8516 75.8809 73.9952L74.402 74.5339C73.9652 74.688 73.5327 74.8323 73.1028 74.957C68.1015 76.4076 66.9775 74.7956 65.8583 70.3191C65.046 66.9849 63.7081 52.3688 66.7492 50.672C66.788 50.6391 66.8359 50.6188 66.8866 50.6139C66.9372 50.609 66.9881 50.6196 67.0326 50.6444C67.0732 50.6786 67.1063 50.7208 67.1297 50.7685C67.1258 50.754 67.1523 50.8143 67.177 50.8741L67.2487 51.0516C67.259 51.1351 69.8933 66.2608 69.9478 66.3325C71.561 68.7876 76.2265 65.9135 79.2796 64.4448C79.6649 64.2501 80.0946 64.0857 80.4359 63.8683L80.5968 62.6748L80.8366 60.971L81.0796 59.4527C81.3546 57.601 81.8064 55.78 82.4288 54.0146C82.5119 53.7834 82.6219 53.5627 82.7566 53.3572C82.8138 53.2479 82.9035 53.1591 83.0134 53.1029C83.1232 53.0468 83.2477 53.0261 83.3698 53.0436C83.5864 53.1393 83.7688 53.2988 83.8926 53.5006C83.961 53.5977 84.0243 53.6982 84.0821 53.8019C84.1397 53.8944 84.1957 54.0131 84.2853 54.1962C84.833 55.4423 85.2896 56.7265 85.6514 58.0387C85.8314 58.6394 85.9459 59.1377 86.13 59.7123C86.3128 60.234 86.6373 60.6945 87.0672 61.0421C87.2487 61.1822 87.4476 61.298 87.6591 61.3866C87.8066 61.4504 87.9477 61.5281 88.0803 61.6188C88.298 61.7733 88.5018 61.9466 88.6893 62.1366C89.0052 62.4523 89.1806 62.6271 89.2297 62.5915C89.2789 62.5559 89.1978 62.3274 88.9569 61.9242C88.8036 61.669 88.6181 61.4345 88.4049 61.2265C88.2626 61.0886 88.1058 60.9666 87.9372 60.8625C87.7814 60.7717 87.638 60.661 87.5107 60.5332C87.2247 60.2337 87.0234 59.8636 86.9273 59.4607L86.6171 57.8007C86.3538 56.397 85.9736 55.0178 85.4804 53.6775C85.3936 53.4501 85.2934 53.228 85.1805 53.0123C85.0613 52.7623 84.9222 52.5222 84.7646 52.2944C84.4788 51.8366 84.0484 51.4873 83.5416 51.3018C83.4106 51.2609 83.2738 51.242 83.1365 51.2456C82.9986 51.2649 82.8628 51.2974 82.7312 51.3429C82.4702 51.4336 82.2304 51.5766 82.0265 51.7631C81.5921 52.2185 81.24 52.7458 80.9857 53.3216C80.2045 55.1802 79.6185 57.115 79.2371 59.0947C79.1334 59.6052 79.0283 60.1223 78.9219 60.6461L78.6548 62.0907L78.5776 62.5014C78.4794 62.5507 78.3784 62.5942 78.2751 62.6316C68.007 67.0985 73.4111 63.5414 71.8689 63.789C71.8277 63.1672 71.7859 62.5418 71.7434 61.9129C71.4869 58.0863 71.1663 53.9205 70.0351 50.5587L69.8762 50.0879L69.7779 49.8242C69.7435 49.7376 69.7103 49.6525 69.6371 49.4953C69.4147 48.9719 69.0661 48.5117 68.6224 48.156C68.1447 47.849 67.5898 47.6833 67.022 47.6781C66.4541 47.6728 65.8963 47.8282 65.4129 48.1262C64.6664 48.5438 64.018 49.1165 63.5115 49.8059C61.3901 52.6387 61.6367 63.8875 62.0439 67.4071C62.1858 68.6447 62.3997 69.8731 62.6844 71.0859C62.9502 72.3188 63.3339 73.5233 63.8303 74.6828C65.7529 78.8792 69.6051 79.4876 74.0385 78.2142C74.5635 78.0641 75.0595 77.8992 75.5321 77.7337L76.7307 77.3021L76.7361 77.8408C76.7521 78.6604 76.7671 79.4681 76.7813 80.2639C76.8973 84.4035 77.3115 90.6998 79.8292 93.7126C80.4298 94.4351 81.2277 94.9671 82.1256 95.2437C83.0236 95.5203 83.9826 95.5294 84.8856 95.2701C85.7579 95.0343 86.5456 94.5567 87.1579 93.8924C87.6522 93.3205 88.0433 92.667 88.3137 91.9612C90.2745 87.1599 90.3612 81.3162 89.9638 75.5754C89.8704 74.2093 89.7449 72.9873 89.614 71.8868C89.5429 71.338 89.4757 70.8179 89.4124 70.3263C89.3529 69.9108 89.2949 69.5173 89.2414 69.1468C89.2334 68.9875 89.2756 68.8298 89.3622 68.6959L90.0506 67.7227C90.4488 67.1451 90.7376 66.4994 90.9028 65.8176C91.0342 65.2588 91.0191 64.6755 90.8589 64.1242C90.7508 63.7713 90.5795 63.4408 90.3534 63.149C89.6487 62.3385 89.417 62.4852 89.2264 62.595Z"/>
</mask>
<path d="M89.2264 62.595C89.0144 62.7183 88.936 62.9317 89.1737 63.7577C89.3234 64.262 89.2885 64.803 89.0753 65.2838C88.8739 65.7189 88.6069 66.1205 88.2837 66.4745L87.6298 67.2064C87.1777 67.701 86.9009 68.3307 86.8423 68.9983C86.8264 69.1782 86.8258 69.359 86.8405 69.539C86.8476 69.6493 86.8556 69.7628 86.8632 69.8781C86.878 70.1071 86.8934 70.3419 86.9092 70.5845C86.9385 71.0674 86.9691 71.5789 87.0012 72.1192C87.061 73.1991 87.1185 74.3927 87.148 75.7043C87.1792 77.0024 87.1564 78.4634 87.1302 80.0565C87.0447 83.7245 86.7589 87.334 85.3226 90.7012C85.1859 91.0602 84.9904 91.394 84.7441 91.6889C84.5438 91.8895 84.2923 92.0315 84.0171 92.0994C83.7185 92.1788 83.4039 92.175 83.1072 92.0886C82.8042 91.9837 82.538 91.7935 82.3408 91.5407C80.2659 89.1109 80.1759 80.7783 80.1253 77.7974L80.1199 77.1136C80.1299 76.7108 80.0714 76.3093 79.9467 75.9261C79.8093 75.5303 79.5946 75.1659 79.315 74.8539C79.0354 74.542 78.6966 74.2887 78.3182 74.109C77.9398 73.9293 77.5294 73.8267 77.1109 73.8072C76.6925 73.7877 76.2744 73.8516 75.8809 73.9952L74.402 74.5339C73.9652 74.688 73.5327 74.8323 73.1028 74.957C68.1015 76.4076 66.9775 74.7956 65.8583 70.3191C65.046 66.9849 63.7081 52.3688 66.7492 50.672C66.788 50.6391 66.8359 50.6188 66.8866 50.6139C66.9372 50.609 66.9881 50.6196 67.0326 50.6444C67.0732 50.6786 67.1063 50.7208 67.1297 50.7685C67.1258 50.754 67.1523 50.8143 67.177 50.8741L67.2487 51.0516C67.259 51.1351 69.8933 66.2608 69.9478 66.3325C71.561 68.7876 76.2265 65.9135 79.2796 64.4448C79.6649 64.2501 80.0946 64.0857 80.4359 63.8683L80.5968 62.6748L80.8366 60.971L81.0796 59.4527C81.3546 57.601 81.8064 55.78 82.4288 54.0146C82.5119 53.7834 82.6219 53.5627 82.7566 53.3572C82.8138 53.2479 82.9035 53.1591 83.0134 53.1029C83.1232 53.0468 83.2477 53.0261 83.3698 53.0436C83.5864 53.1393 83.7688 53.2988 83.8926 53.5006C83.961 53.5977 84.0243 53.6982 84.0821 53.8019C84.1397 53.8944 84.1957 54.0131 84.2853 54.1962C84.833 55.4423 85.2896 56.7265 85.6514 58.0387C85.8314 58.6394 85.9459 59.1377 86.13 59.7123C86.3128 60.234 86.6373 60.6945 87.0672 61.0421C87.2487 61.1822 87.4476 61.298 87.6591 61.3866C87.8066 61.4504 87.9477 61.5281 88.0803 61.6188C88.298 61.7733 88.5018 61.9466 88.6893 62.1366C89.0052 62.4523 89.1806 62.6271 89.2297 62.5915C89.2789 62.5559 89.1978 62.3274 88.9569 61.9242C88.8036 61.669 88.6181 61.4345 88.4049 61.2265C88.2626 61.0886 88.1058 60.9666 87.9372 60.8625C87.7814 60.7717 87.638 60.661 87.5107 60.5332C87.2247 60.2337 87.0234 59.8636 86.9273 59.4607L86.6171 57.8007C86.3538 56.397 85.9736 55.0178 85.4804 53.6775C85.3936 53.4501 85.2934 53.228 85.1805 53.0123C85.0613 52.7623 84.9222 52.5222 84.7646 52.2944C84.4788 51.8366 84.0484 51.4873 83.5416 51.3018C83.4106 51.2609 83.2738 51.242 83.1365 51.2456C82.9986 51.2649 82.8628 51.2974 82.7312 51.3429C82.4702 51.4336 82.2304 51.5766 82.0265 51.7631C81.5921 52.2185 81.24 52.7458 80.9857 53.3216C80.2045 55.1802 79.6185 57.115 79.2371 59.0947C79.1334 59.6052 79.0283 60.1223 78.9219 60.6461L78.6548 62.0907L78.5776 62.5014C78.4794 62.5507 78.3784 62.5942 78.2751 62.6316C68.007 67.0985 73.4111 63.5414 71.8689 63.789C71.8277 63.1672 71.7859 62.5418 71.7434 61.9129C71.4869 58.0863 71.1663 53.9205 70.0351 50.5587L69.8762 50.0879L69.7779 49.8242C69.7435 49.7376 69.7103 49.6525 69.6371 49.4953C69.4147 48.9719 69.0661 48.5117 68.6224 48.156C68.1447 47.849 67.5898 47.6833 67.022 47.6781C66.4541 47.6728 65.8963 47.8282 65.4129 48.1262C64.6664 48.5438 64.018 49.1165 63.5115 49.8059C61.3901 52.6387 61.6367 63.8875 62.0439 67.4071C62.1858 68.6447 62.3997 69.8731 62.6844 71.0859C62.9502 72.3188 63.3339 73.5233 63.8303 74.6828C65.7529 78.8792 69.6051 79.4876 74.0385 78.2142C74.5635 78.0641 75.0595 77.8992 75.5321 77.7337L76.7307 77.3021L76.7361 77.8408C76.7521 78.6604 76.7671 79.4681 76.7813 80.2639C76.8973 84.4035 77.3115 90.6998 79.8292 93.7126C80.4298 94.4351 81.2277 94.9671 82.1256 95.2437C83.0236 95.5203 83.9826 95.5294 84.8856 95.2701C85.7579 95.0343 86.5456 94.5567 87.1579 93.8924C87.6522 93.3205 88.0433 92.667 88.3137 91.9612C90.2745 87.1599 90.3612 81.3162 89.9638 75.5754C89.8704 74.2093 89.7449 72.9873 89.614 71.8868C89.5429 71.338 89.4757 70.8179 89.4124 70.3263C89.3529 69.9108 89.2949 69.5173 89.2414 69.1468C89.2334 68.9875 89.2756 68.8298 89.3622 68.6959L90.0506 67.7227C90.4488 67.1451 90.7376 66.4994 90.9028 65.8176C91.0342 65.2588 91.0191 64.6755 90.8589 64.1242C90.7508 63.7713 90.5795 63.4408 90.3534 63.149C89.6487 62.3385 89.417 62.4852 89.2264 62.595Z" fill="#31394D"/>
<path d="M89.2264 62.595C89.0144 62.7183 88.936 62.9317 89.1737 63.7577C89.3234 64.262 89.2885 64.803 89.0753 65.2838C88.8739 65.7189 88.6069 66.1205 88.2837 66.4745L87.6298 67.2064C87.1777 67.701 86.9009 68.3307 86.8423 68.9983C86.8264 69.1782 86.8258 69.359 86.8405 69.539C86.8476 69.6493 86.8556 69.7628 86.8632 69.8781C86.878 70.1071 86.8934 70.3419 86.9092 70.5845C86.9385 71.0674 86.9691 71.5789 87.0012 72.1192C87.061 73.1991 87.1185 74.3927 87.148 75.7043C87.1792 77.0024 87.1564 78.4634 87.1302 80.0565C87.0447 83.7245 86.7589 87.334 85.3226 90.7012C85.1859 91.0602 84.9904 91.394 84.7441 91.6889C84.5438 91.8895 84.2923 92.0315 84.0171 92.0994C83.7185 92.1788 83.4039 92.175 83.1072 92.0886C82.8042 91.9837 82.538 91.7935 82.3408 91.5407C80.2659 89.1109 80.1759 80.7783 80.1253 77.7974L80.1199 77.1136C80.1299 76.7108 80.0714 76.3093 79.9467 75.9261C79.8093 75.5303 79.5946 75.1659 79.315 74.8539C79.0354 74.542 78.6966 74.2887 78.3182 74.109C77.9398 73.9293 77.5294 73.8267 77.1109 73.8072C76.6925 73.7877 76.2744 73.8516 75.8809 73.9952L74.402 74.5339C73.9652 74.688 73.5327 74.8323 73.1028 74.957C68.1015 76.4076 66.9775 74.7956 65.8583 70.3191C65.046 66.9849 63.7081 52.3688 66.7492 50.672C66.788 50.6391 66.8359 50.6188 66.8866 50.6139C66.9372 50.609 66.9881 50.6196 67.0326 50.6444C67.0732 50.6786 67.1063 50.7208 67.1297 50.7685C67.1258 50.754 67.1523 50.8143 67.177 50.8741L67.2487 51.0516C67.259 51.1351 69.8933 66.2608 69.9478 66.3325C71.561 68.7876 76.2265 65.9135 79.2796 64.4448C79.6649 64.2501 80.0946 64.0857 80.4359 63.8683L80.5968 62.6748L80.8366 60.971L81.0796 59.4527C81.3546 57.601 81.8064 55.78 82.4288 54.0146C82.5119 53.7834 82.6219 53.5627 82.7566 53.3572C82.8138 53.2479 82.9035 53.1591 83.0134 53.1029C83.1232 53.0468 83.2477 53.0261 83.3698 53.0436C83.5864 53.1393 83.7688 53.2988 83.8926 53.5006C83.961 53.5977 84.0243 53.6982 84.0821 53.8019C84.1397 53.8944 84.1957 54.0131 84.2853 54.1962C84.833 55.4423 85.2896 56.7265 85.6514 58.0387C85.8314 58.6394 85.9459 59.1377 86.13 59.7123C86.3128 60.234 86.6373 60.6945 87.0672 61.0421C87.2487 61.1822 87.4476 61.298 87.6591 61.3866C87.8066 61.4504 87.9477 61.5281 88.0803 61.6188C88.298 61.7733 88.5018 61.9466 88.6893 62.1366C89.0052 62.4523 89.1806 62.6271 89.2297 62.5915C89.2789 62.5559 89.1978 62.3274 88.9569 61.9242C88.8036 61.669 88.6181 61.4345 88.4049 61.2265C88.2626 61.0886 88.1058 60.9666 87.9372 60.8625C87.7814 60.7717 87.638 60.661 87.5107 60.5332C87.2247 60.2337 87.0234 59.8636 86.9273 59.4607L86.6171 57.8007C86.3538 56.397 85.9736 55.0178 85.4804 53.6775C85.3936 53.4501 85.2934 53.228 85.1805 53.0123C85.0613 52.7623 84.9222 52.5222 84.7646 52.2944C84.4788 51.8366 84.0484 51.4873 83.5416 51.3018C83.4106 51.2609 83.2738 51.242 83.1365 51.2456C82.9986 51.2649 82.8628 51.2974 82.7312 51.3429C82.4702 51.4336 82.2304 51.5766 82.0265 51.7631C81.5921 52.2185 81.24 52.7458 80.9857 53.3216C80.2045 55.1802 79.6185 57.115 79.2371 59.0947C79.1334 59.6052 79.0283 60.1223 78.9219 60.6461L78.6548 62.0907L78.5776 62.5014C78.4794 62.5507 78.3784 62.5942 78.2751 62.6316C68.007 67.0985 73.4111 63.5414 71.8689 63.789C71.8277 63.1672 71.7859 62.5418 71.7434 61.9129C71.4869 58.0863 71.1663 53.9205 70.0351 50.5587L69.8762 50.0879L69.7779 49.8242C69.7435 49.7376 69.7103 49.6525 69.6371 49.4953C69.4147 48.9719 69.0661 48.5117 68.6224 48.156C68.1447 47.849 67.5898 47.6833 67.022 47.6781C66.4541 47.6728 65.8963 47.8282 65.4129 48.1262C64.6664 48.5438 64.018 49.1165 63.5115 49.8059C61.3901 52.6387 61.6367 63.8875 62.0439 67.4071C62.1858 68.6447 62.3997 69.8731 62.6844 71.0859C62.9502 72.3188 63.3339 73.5233 63.8303 74.6828C65.7529 78.8792 69.6051 79.4876 74.0385 78.2142C74.5635 78.0641 75.0595 77.8992 75.5321 77.7337L76.7307 77.3021L76.7361 77.8408C76.7521 78.6604 76.7671 79.4681 76.7813 80.2639C76.8973 84.4035 77.3115 90.6998 79.8292 93.7126C80.4298 94.4351 81.2277 94.9671 82.1256 95.2437C83.0236 95.5203 83.9826 95.5294 84.8856 95.2701C85.7579 95.0343 86.5456 94.5567 87.1579 93.8924C87.6522 93.3205 88.0433 92.667 88.3137 91.9612C90.2745 87.1599 90.3612 81.3162 89.9638 75.5754C89.8704 74.2093 89.7449 72.9873 89.614 71.8868C89.5429 71.338 89.4757 70.8179 89.4124 70.3263C89.3529 69.9108 89.2949 69.5173 89.2414 69.1468C89.2334 68.9875 89.2756 68.8298 89.3622 68.6959L90.0506 67.7227C90.4488 67.1451 90.7376 66.4994 90.9028 65.8176C91.0342 65.2588 91.0191 64.6755 90.8589 64.1242C90.7508 63.7713 90.5795 63.4408 90.3534 63.149C89.6487 62.3385 89.417 62.4852 89.2264 62.595Z" stroke="#31394D" mask="url(#path-4-outside-2)"/>
</svg>
