<svg width="49" height="50" viewBox="0 0 49 50" fill="none" xmlns="http://www.w3.org/2000/svg">
<path d="M13.4819 30.4032C13.5043 30.453 13.522 30.5049 13.5345 30.5581L13.5492 30.6395C14.1689 39.1263 14.535 39.7253 15.571 40.6539C20.2374 44.8383 24.9428 34.7653 26.8184 34.997C34.7812 36.4978 34.2664 36.4096 34.6464 36.4506C35.3235 36.5208 36.0073 36.4104 36.6278 36.1304C37.1086 35.9147 37.5406 35.6034 37.8974 35.2157C38.2543 34.8279 38.5285 34.3716 38.7036 33.8745C38.8786 33.3775 38.9509 32.85 38.9158 32.3242C38.8808 31.7984 38.7392 31.2852 38.4997 30.8158C35.373 24.5843 34.9523 23.9707 35.0467 23.9344C35.0062 23.792 35.0115 23.6404 35.062 23.5011C35.4343 22.5715 38.859 16.8857 39.1186 15.6255C39.2765 14.8338 39.1697 14.0121 38.8147 13.2871C38.4597 12.562 37.8763 11.9738 37.1541 11.613C36.792 11.435 36.4026 11.3188 36.0021 11.269C34.8411 11.1989 27.8083 12.6142 27.251 12.602C27.1459 12.6013 27.0416 12.5827 26.9427 12.5472C26.8433 12.5126 26.75 12.4624 26.6663 12.3984C26.6605 12.394 21.2683 6.79903 20.8354 6.48518C20.5713 6.2944 20.2799 6.14487 19.9709 6.04169C19.3778 5.84719 18.7416 5.82517 18.1365 5.97827C17.5315 6.13137 16.9823 6.45324 16.5531 6.9064C16.1447 7.34149 15.8665 7.88233 15.75 8.46754C15.6972 8.6948 15.6953 8.75275 14.9268 14.2323L14.6511 16.2572C14.6176 16.4789 14.5382 16.6912 14.4177 16.8803C14.2973 17.0695 14.1385 17.2313 13.9518 17.3554C13.5241 17.5848 7.03771 20.9671 7.18355 21.2761C7.32939 21.585 14.3031 18.6286 14.6022 18.4582C14.9636 18.2579 15.2789 17.9838 15.5274 17.6536C15.7759 17.3234 15.9521 16.9446 16.0446 16.5418L16.468 14.4983C17.5018 9.36857 17.58 8.93994 17.6032 8.88584C17.6603 8.65358 17.7827 8.4425 17.9561 8.27771C18.1289 8.11569 18.3435 8.00508 18.5757 7.95824C18.8079 7.9114 19.0485 7.93017 19.2706 8.01252C19.3757 8.05442 19.4736 8.1125 19.5608 8.18466C19.8246 8.41364 24.7035 13.9618 25.0769 14.2786C26.2712 15.3011 27.1063 15.4953 35.3014 14.0433C35.4992 13.9954 35.7078 14.0241 35.8853 14.1236C36.0398 14.2116 36.162 14.3468 36.2342 14.5092C36.3064 14.6716 36.3247 14.8529 36.2865 15.0265C36.256 15.1228 36.2154 15.2156 36.1654 15.3034C32.1998 22.2639 32.3005 22.0695 32.1802 22.3832C31.8871 23.1214 31.8322 23.9328 32.0231 24.7038C32.2277 25.6612 35.6935 32.1165 35.6692 32.6185C35.6548 32.7343 35.6111 32.8446 35.5422 32.9388C35.4734 33.033 35.3816 33.1081 35.2756 33.157C35.1807 33.1967 35.077 33.2107 34.9749 33.1974C34.983 33.304 35.631 33.3064 27.2395 31.7546C26.2324 31.6232 25.2139 31.8909 24.4015 32.5004C24.0923 32.7315 18.6741 38.147 18.6162 38.2044C18.5522 38.2689 18.4821 38.3271 18.407 38.3783C18.3224 38.4242 18.2288 38.4509 18.1328 38.4563C18.0367 38.4617 17.9407 38.4458 17.8515 38.4097C17.7624 38.3736 17.6823 38.3182 17.6171 38.2475C17.5519 38.1768 17.5031 38.0925 17.4743 38.0007C16.2544 28.855 16.4684 30.5579 16.4108 30.1387C16.3861 30.0107 16.355 29.884 16.3175 29.7592C16.2433 29.5137 16.1441 29.2766 16.0214 29.0514C15.3847 27.8965 14.8975 27.5905 8.07255 24.5318C6.99845 24.0537 6.42445 23.5038 6.99383 22.1819C7.08794 22.006 7.16648 21.8222 7.22851 21.6326C7.25097 21.5135 7.23162 21.3903 7.17371 21.2838C7.15367 21.2264 7.11958 21.1748 7.07457 21.1338C7.02956 21.0929 6.97502 21.0638 6.91593 21.0493C6.77168 21.0289 6.62484 21.038 6.48417 21.0759C6.3435 21.1138 6.21189 21.1798 6.09742 21.2699C5.78462 21.4813 5.52125 21.7578 5.32524 22.0805C5.12922 22.4032 5.00525 22.7644 4.9618 23.1394C4.87031 23.7773 4.97756 24.4279 5.26893 25.0028C5.5603 25.5776 6.02165 26.0487 6.59025 26.352C6.72478 26.4315 6.86434 26.5142 7.00899 26.5999C12.9237 30.0724 13.2444 29.896 13.4819 30.4032Z" fill="white"/>
</svg>
