<svg width="48" height="49" viewBox="0 0 48 49" fill="none" xmlns="http://www.w3.org/2000/svg">
<path d="M23.2202 37.3606C23.277 37.3663 23.3332 37.3774 23.3878 37.3939L23.4691 37.4231C31.4692 41.2946 32.2023 41.2763 33.5832 40.8241C39.8051 38.7885 33.151 29.272 34.3401 27.6965C39.8559 21.2777 39.5074 21.6973 39.7429 21.3749C40.16 20.7991 40.4172 20.123 40.488 19.4155C40.544 18.8679 40.488 18.3147 40.3236 17.7894C40.1592 17.2642 39.8897 16.7778 39.5315 16.3599C39.1734 15.9419 38.734 15.6011 38.2401 15.3583C37.7462 15.1154 37.2081 14.9754 36.6584 14.9469C29.3891 14.5208 28.6143 14.581 28.6308 14.4766C28.4808 14.4389 28.3465 14.3549 28.2469 14.2365C27.6005 13.4142 24.2459 7.3473 23.2417 6.45434C22.608 5.89809 21.809 5.56562 20.9678 5.50806C20.1266 5.45051 19.2899 5.67105 18.5863 6.1358C18.2363 6.3705 17.9278 6.66197 17.6736 6.99816C17.0038 8.01177 14.6114 15.1122 14.3093 15.6099C14.2537 15.7046 14.1825 15.7892 14.0987 15.8601C14.0155 15.932 13.9213 15.9902 13.8198 16.0324C13.8128 16.0354 5.93607 17.9909 5.42608 18.2186C5.11563 18.3578 4.82816 18.5434 4.57348 18.769C4.08783 19.2038 3.73569 19.7678 3.55818 20.395C3.38066 21.0223 3.38502 21.6871 3.57077 22.312C3.75106 22.9086 4.09497 23.4427 4.56346 23.8537C4.74145 24.0201 4.79288 24.0521 9.3479 27.6088L11.0355 28.9156C11.2185 29.0617 11.3691 29.2444 11.4772 29.4521C11.5854 29.6599 11.6489 29.888 11.6636 30.1217C11.6478 30.6283 11.3198 38.2617 11.6754 38.2912C12.0311 38.3206 12.9987 30.4688 13.0008 30.1093C13.0084 29.6778 12.9251 29.2494 12.7562 28.8522C12.5873 28.455 12.3367 28.0978 12.0207 27.8038L10.3934 26.3537C6.29328 22.7397 5.94643 22.4451 5.90963 22.3958C5.72935 22.2229 5.60235 22.002 5.54382 21.7591C5.48752 21.5182 5.49953 21.2663 5.57843 21.0318C5.65732 20.7973 5.79996 20.5895 5.99044 20.4316C6.08322 20.3584 6.18689 20.3002 6.29767 20.259C6.64259 20.1399 14.2089 18.6243 14.6904 18.452C16.239 17.9057 16.8508 17.2517 19.817 9.08086C19.8771 8.87693 20.012 8.70323 20.1947 8.59461C20.355 8.50088 20.541 8.46085 20.7256 8.48039C20.9103 8.49993 21.0838 8.57804 21.2208 8.70324C21.2921 8.78111 21.3548 8.86629 21.4081 8.95736C25.6331 16.1794 25.5098 15.9867 25.7307 16.2593C26.2454 16.9099 26.9507 17.3833 27.7477 17.6133C28.7206 17.9283 36.3694 18.1644 36.8108 18.4486C36.9081 18.5221 36.985 18.6192 37.0342 18.7307C37.0835 18.8422 37.1035 18.9644 37.0924 19.0858C37.0787 19.1924 37.0372 19.2935 36.9718 19.3789C37.0725 19.4273 37.4131 18.8423 31.6272 25.6222C30.9824 26.4646 30.6927 27.5256 30.8197 28.5787C30.8673 28.9792 32.9362 36.7081 32.9579 36.7905C32.9828 36.8821 32.9988 36.9759 33.0059 37.0706C33.0033 37.171 32.9785 37.2696 32.9332 37.3593C32.888 37.449 32.8234 37.5276 32.7442 37.5894C32.665 37.6512 32.5731 37.6947 32.4751 37.7167C32.377 37.7388 32.2754 37.7389 32.1773 37.717C23.2677 34.0443 24.9198 34.7401 24.5105 34.5732C24.3819 34.5287 24.2511 34.4907 24.1186 34.4595C23.8578 34.3983 23.5915 34.3642 23.3237 34.3577C21.9465 34.3304 21.4154 34.6113 15.0845 39.1873C14.0912 39.9091 13.2941 40.1412 12.3957 38.9358C12.2857 38.7588 12.1605 38.5918 12.0214 38.4367C11.9254 38.3541 11.8038 38.3073 11.6773 38.3041C11.6149 38.2922 11.5504 38.2961 11.4899 38.3155C11.4293 38.3348 11.3745 38.3689 11.3305 38.4148C11.2368 38.5346 11.1683 38.6722 11.1291 38.8192C11.09 38.9663 11.0809 39.1198 11.1026 39.2704C11.1305 39.6637 11.2431 40.0463 11.4326 40.3921C11.6221 40.7379 11.8841 41.0387 12.2006 41.2739C12.7298 41.6898 13.3743 41.9325 14.0464 41.9691C14.7185 42.0058 15.3856 41.8345 15.9569 41.4786C16.0991 41.3984 16.2467 41.3154 16.3998 41.2293C22.6296 37.6927 22.6375 37.3106 23.2202 37.3606Z" fill="white"/>
</svg>
