<svg width="48" height="47" viewBox="0 0 48 47" fill="none" xmlns="http://www.w3.org/2000/svg">
<path d="M15.3008 13.8149C15.2571 13.8507 15.21 13.8822 15.1602 13.9089L15.0829 13.9453C6.7776 16.8337 6.2776 17.3593 5.62783 18.6417C2.69918 24.4186 14.012 26.4212 14.2823 28.3553C14.914 36.7047 14.8643 36.1673 14.9251 36.5575C15.0361 37.2522 15.3292 37.9051 15.7746 38.4496C16.1185 38.8718 16.5447 39.2197 17.0272 39.4722C17.5097 39.7247 18.0385 39.8764 18.5814 39.9182C19.1244 39.96 19.6702 39.891 20.1856 39.7154C20.7011 39.5398 21.1755 39.2613 21.58 38.8967C26.9637 34.1092 27.4636 33.5251 27.525 33.6096C27.6564 33.5311 27.8091 33.4959 27.9616 33.509C28.9891 33.632 35.5803 35.5296 36.9076 35.4518C37.74 35.3976 38.5316 35.0712 39.1604 34.523C39.7891 33.9747 40.2202 33.2351 40.3873 32.4178C40.468 32.0086 40.4799 31.5889 40.4225 31.1759C40.182 29.9982 36.8883 23.3571 36.7514 22.7975C36.7241 22.6924 36.7147 22.5834 36.7237 22.4752C36.7316 22.3666 36.7568 22.2601 36.7983 22.1595C36.8011 22.1525 40.9436 15.274 41.141 14.7579C41.2608 14.4433 41.3321 14.1124 41.3525 13.7764C41.388 13.1324 41.2398 12.4915 40.9252 11.9285C40.6105 11.3655 40.1424 10.9034 39.5753 10.5962C39.0318 10.305 38.4175 10.1719 37.8023 10.2121C37.5613 10.2202 37.503 10.2338 31.8281 10.9323L29.7332 11.1986C29.5029 11.2245 29.2698 11.202 29.0488 11.1323C28.8278 11.0627 28.6238 10.9475 28.45 10.7943C28.1066 10.4288 22.9958 4.85903 22.7264 5.08724C22.457 5.31545 27.2731 11.4855 27.5231 11.7385C27.8198 12.0456 28.1777 12.287 28.5738 12.4467C28.9698 12.6065 29.395 12.681 29.8217 12.6656L31.9747 12.5417C37.3714 12.2016 37.8202 12.1651 37.8804 12.1738C38.1275 12.1687 38.3709 12.2344 38.5818 12.3633C38.7897 12.4925 38.9575 12.6771 39.0663 12.8963C39.1752 13.1156 39.2208 13.3608 39.198 13.6045C39.1843 13.7206 39.1525 13.8339 39.1038 13.9402C38.9458 14.2648 34.7128 20.6184 34.4965 21.0759C33.7953 22.5414 33.8248 23.4269 37.4659 31.2184C37.5666 31.403 37.5937 31.6189 37.5419 31.8228C37.4954 32.0005 37.3932 32.1586 37.2504 32.2741C37.1075 32.3896 36.9315 32.4564 36.748 32.4647C36.6437 32.46 36.5402 32.4443 36.4392 32.4179C28.431 30.3212 28.6521 30.3697 28.3067 30.3336C27.4915 30.2385 26.6669 30.4007 25.9484 30.7974C25.0475 31.2577 19.5312 36.4435 19.0236 36.5535C18.9041 36.5701 18.7824 36.556 18.6699 36.5125C18.5575 36.4689 18.458 36.3974 18.3808 36.3047C18.3158 36.2206 18.2741 36.1208 18.2601 36.0154C18.1559 36.0519 18.3268 36.6994 17.6314 27.9084C17.4932 26.8681 16.9536 25.9231 16.128 25.2752C15.8145 25.0284 8.96001 21.0686 8.8872 21.0262C8.80569 20.9795 8.72886 20.9251 8.65766 20.8638C8.58924 20.7917 8.5376 20.7054 8.50651 20.611C8.47542 20.5166 8.46561 20.4165 8.4778 20.3178C8.48999 20.2192 8.52386 20.1244 8.577 20.0404C8.63014 19.9564 8.70123 19.8852 8.78514 19.8319C17.5876 16.1682 15.9451 16.8372 16.3481 16.6676C16.4693 16.6088 16.5873 16.5439 16.7019 16.473C16.9271 16.3334 17.1373 16.1709 17.3292 15.9882C18.3117 15.0438 18.4868 14.4757 19.7145 6.84533C19.9045 5.64535 20.2998 4.92538 21.7715 5.14014C21.9723 5.18702 22.1767 5.21626 22.3826 5.22747C22.5075 5.21804 22.6253 5.16577 22.716 5.07949C22.768 5.04412 22.8104 4.9963 22.8392 4.94042C22.8681 4.88454 22.8825 4.82234 22.8812 4.75947C22.863 4.61003 22.8146 4.4659 22.7392 4.33563C22.6637 4.20536 22.5626 4.09163 22.4421 4.00148C22.1474 3.7458 21.801 3.55688 21.4265 3.44753C21.052 3.33818 20.6583 3.31103 20.2723 3.36797C19.6111 3.44727 18.9904 3.72832 18.4946 4.17289C17.9988 4.61745 17.6519 5.20395 17.5012 5.85261C17.4578 6.00816 17.4127 6.16957 17.3658 6.33688C15.4816 13.1694 15.7435 13.4422 15.3008 13.8149Z" fill="white"/>
</svg>
