<svg width="138" height="163" viewBox="0 0 138 163" fill="none" xmlns="http://www.w3.org/2000/svg">
<path opacity="0.8" d="M40.2067 84.7646L37.7725 103.542C37.2789 107.351 38.3552 111.196 40.7541 114.195C43.4378 117.549 47.5008 119.502 51.7968 119.502H53.6608C56.1301 119.502 58.5098 118.576 60.3301 116.908C62.3516 115.055 65.0529 114.126 67.7865 114.345L71.3643 114.631C74.3377 114.869 77.2873 113.942 79.5899 112.046L80.9024 110.965C83.1409 109.121 86.1703 108.559 88.9213 109.476C91.7575 110.421 94.8823 109.792 97.1322 107.824L98.0866 106.989C100.253 105.093 103.14 104.236 105.99 104.643L106.335 104.693C109.81 105.189 113.269 103.689 115.282 100.814C117.517 97.6212 117.528 93.3751 115.309 90.1711L110 82.502C106.109 76.3413 100.297 71.627 93.4469 69.142C88.7923 67.4533 84.7231 66.002 84.5 66.002C84.3819 66.002 84.1157 66.5539 83.7733 67.4134C82.4892 70.6372 78.1317 71.3099 76.1722 68.4459C75.1712 66.9829 73.3533 66.3147 71.643 66.7811L70.7164 67.0338C69.6097 67.3357 68.6495 68.0278 68.0131 68.9823C66.8246 70.7651 64.5898 71.5319 62.557 70.8543L61.9448 70.6502C60.6891 70.2316 59.3256 70.2717 58.0966 70.7633L57.3725 71.053C55.9047 71.6401 54.8622 72.9665 54.6386 74.5315L54.3644 76.451C53.99 79.0721 50.8694 80.2472 48.8591 78.5241C47.5279 77.383 45.5427 77.4593 44.3029 78.6991L42.1133 80.8887C41.0673 81.9347 40.3969 83.2975 40.2067 84.7646Z" fill="#FACCCB"/>
<path d="M115.537 81.2867C114.626 80.4638 113.535 79.8646 112.351 79.5366C111.521 79.3209 110.65 79.3169 109.818 79.525C109.473 79.6022 109.137 79.7178 108.817 79.8695C108.689 78.2774 108.254 76.7252 107.536 75.298C103.844 67.0841 95.7583 61.1315 82.1269 61.0668C81.9316 60.4637 81.741 59.8739 81.5598 59.3108C79.4812 53.0528 77.8775 48.2658 76.4834 44.4912C75.8648 42.7855 75.0863 41.1423 74.1582 39.5833C74.0546 39.4146 73.9561 39.2479 73.8433 39.0907C73.7626 38.9698 73.5932 38.7021 73.4076 38.4533C73.0901 37.9953 72.7416 37.5595 72.3645 37.1491C71.8139 36.5424 71.0768 36.1365 70.2698 35.9955C69.898 35.9435 69.5195 35.972 69.1597 36.0791C68.8 36.1861 68.4674 36.3692 68.1846 36.6159C67.7529 36.9908 67.4299 37.4746 67.2491 38.017C67.0097 38.7259 66.9724 39.4875 67.1414 40.2165C67.3901 41.1779 67.7239 41.1042 68.0472 41.1253C68.2246 41.1259 68.4 41.0868 68.5604 41.011C68.7209 40.9352 68.8624 40.8246 68.9747 40.6871C69.1231 40.5193 69.2809 40.3601 69.4473 40.2103C69.554 40.1038 69.6974 40.0422 69.8481 40.0382C69.9987 40.0341 70.1452 40.0879 70.2575 40.1885C70.3609 40.3052 70.4389 40.4422 70.4864 40.5907L70.5469 40.7787C70.5677 40.8573 70.6021 40.9317 70.6485 40.9984L70.8631 41.4224C71.5454 42.8614 72.1243 44.3472 72.5954 45.8685C73.7621 49.565 75.2973 54.4736 77.3621 60.6926C79.9283 68.2845 80.234 69.0062 80.2149 69.8565C80.2348 70.0577 80.1856 70.2597 80.0754 70.4292C79.8165 70.7162 79.5029 70.9487 79.1531 71.113C78.7884 71.3244 78.3903 71.472 77.976 71.5496C77.774 71.6006 77.5602 71.5719 77.3788 71.4694C76.5859 71.1577 75.9312 67.956 74.0941 61.2382C71.3019 51.2365 68.824 43.1742 68.231 43.3151C67.638 43.4561 69.0467 51.7712 71.0574 61.9599L71.0944 62.1442C70.3347 62.2871 69.5626 62.4424 68.7756 62.6173L68.7635 62.5723C67.9959 60.2269 67.2851 58.0559 66.6628 56.1564C64.5126 49.774 62.8632 44.9083 61.4229 41.0619C60.7794 39.3185 59.9582 37.646 58.9722 36.0709C58.7484 35.7301 58.5255 35.4049 58.2967 35.1082L58.123 34.8786L57.8468 34.5306C57.6605 34.3089 57.4913 34.0793 57.3006 33.8913C56.6991 33.2138 55.8763 32.7723 54.9792 32.6458C54.5768 32.6077 54.171 32.655 53.7881 32.7845C53.4053 32.9139 53.054 33.1227 52.7573 33.3971C52.2998 33.8127 51.9622 34.3435 51.7797 34.9341C51.5513 35.6524 51.53 36.4205 51.7181 37.1504C51.9735 37.8395 52.2937 37.866 52.62 37.8773C52.9462 37.8886 53.2573 37.8266 53.5599 37.2382C53.6965 37.0124 53.8611 36.8046 54.0496 36.6199C54.1483 36.5041 54.285 36.4273 54.4352 36.4031C54.5854 36.3788 54.7394 36.4089 54.8695 36.4878C54.9813 36.5856 55.0662 36.7105 55.1159 36.8505L55.1498 36.9435L55.1619 36.9886L55.268 37.1711C55.4225 37.4249 55.5722 37.699 55.7265 37.9899C56.4523 39.4301 57.0618 40.9261 57.5492 42.4634C58.7573 46.2139 60.3447 51.2207 62.4753 57.5557C65.068 65.1372 65.422 65.9391 65.3558 66.7896C65.3616 66.9974 65.2925 67.2003 65.1611 67.3614C64.8581 67.6668 64.5037 67.9164 64.114 68.0988C63.7034 68.328 63.2604 68.4937 62.8001 68.59C62.539 68.6568 62.2638 68.6416 62.0117 68.5465C61.7378 68.3924 61.5224 68.1523 61.3988 67.8633C60.9811 67.0875 60.8527 66.3823 58.6819 58.3645C55.8707 48.1703 53.3683 39.954 52.7761 40.0936C52.1839 40.2332 53.6102 48.7019 55.6442 59.0785L57.0617 66.1197C56.7879 66.2245 56.5159 66.3153 56.2453 66.4237C55.465 66.7327 54.6857 67.0661 53.9109 67.4208C53.6246 66.5199 54.095 67.9528 50.7534 57.8402C49.873 55.25 49.1439 53.048 48.3734 51.0816C47.7299 49.3626 46.9039 47.7176 45.9094 46.1749C45.4898 45.5209 45.0029 44.9126 44.4567 44.3599C44.0906 44.0035 43.6556 43.7255 43.1783 43.543C42.5792 43.3241 41.9205 43.3328 41.3274 43.5676C40.9573 43.7256 40.6247 43.9599 40.3512 44.2552C40.0778 44.5505 39.8697 44.9001 39.7405 45.2813C39.5874 45.7033 39.5168 46.1509 39.5326 46.5996C39.5337 47.0582 39.6348 47.511 39.8287 47.9266C39.8916 48.1005 40.0117 48.2478 40.1693 48.3445C40.3269 48.4411 40.5128 48.4813 40.6962 48.4584C40.8769 48.4706 41.0568 48.4249 41.2098 48.328C41.3628 48.2311 41.4811 48.088 41.5474 47.9195C41.6805 47.6874 41.8024 47.3383 41.9748 46.9598C41.9977 46.9111 42.0265 46.8596 42.0533 46.8086C42.2241 47.0648 42.5028 47.5479 42.7627 48.0529C43.4734 49.4767 44.0702 50.9545 44.5474 52.4726C45.1513 54.3075 45.8206 56.5917 46.6392 59.1861C52.1931 76.5624 52.3021 76.1314 52.3466 77.307C52.3714 77.5179 52.3405 77.7317 52.2568 77.927C52.0478 78.1913 51.7805 78.4035 51.4757 78.5471C51.1731 78.7345 50.8359 78.8592 50.4841 78.9137C50.4083 78.9292 50.3298 78.9259 50.2555 78.9041C50.1812 78.8824 50.1134 78.8428 50.0579 78.7889C49.7791 78.5059 49.5683 78.1633 49.4414 77.7868C49.0149 76.7395 42.0356 50.3656 40.9107 50.6367C40.3179 50.7787 41.7279 59.0105 43.7383 69.0937C43.9779 70.2641 44.2243 71.4686 44.4753 72.6819C41.7919 74.4907 39.3073 76.5781 37.063 78.9094C32.6231 83.4216 29.4315 89.0098 27.801 95.1265C26.8473 99.17 27.0668 101.945 27.3021 102.643C26.7183 103.125 26.1985 103.679 25.7551 104.292C24.1756 106.506 23.3963 109.191 23.5451 111.907C23.6229 113.616 24.0609 115.289 24.8303 116.816C25.6356 118.398 26.7734 119.786 28.1657 120.887C29.5075 121.951 31.067 122.708 32.7337 123.103C33.4378 123.267 34.1559 123.363 34.8784 123.391C35.4887 124.923 36.4774 127.185 37.7611 130.007C38.9754 132.675 40.4461 135.839 42.1046 139.34C42.9359 141.089 43.809 142.923 44.7157 144.829C45.6344 146.997 46.9322 148.984 48.5484 150.696C50.4699 152.464 52.8647 153.633 55.4402 154.062C57.9139 154.47 60.4321 154.539 62.9243 154.264C67.6838 153.738 72.403 152.896 77.0509 151.745C85.097 149.687 93.0119 147.147 100.752 144.137L104.969 142.52C106.362 141.984 107.721 141.361 109.038 140.657C110.367 139.944 111.598 139.06 112.7 138.029C113.788 136.982 114.667 135.738 115.29 134.363C116.201 132.034 116.637 129.547 116.573 127.048C116.604 124.953 116.595 123.05 116.566 121.272C116.504 116.229 116.157 111.193 115.526 106.189C115.26 104.307 115.016 102.974 114.788 102.01C117.115 100.223 118.806 97.734 119.609 94.9119C119.992 93.5297 120.144 92.0934 120.057 90.6616C119.962 88.8776 119.513 87.1303 118.737 85.5211C117.961 83.9118 116.874 82.4725 115.537 81.2867ZM112.415 106.42C112.435 109.612 112.586 114.324 112.5 121.286C112.474 123.022 112.432 124.918 112.362 126.928C112.386 128.862 112.042 130.783 111.347 132.588C110.939 133.449 110.374 134.226 109.681 134.879C108.85 135.635 107.926 136.281 106.932 136.803C104.418 138.023 101.833 139.094 99.1927 140.008C92.8994 142.378 84.8267 145.429 76.0434 147.805C71.6013 149.02 67.089 149.961 62.5318 150.625C60.3724 150.941 58.1807 150.967 56.0143 150.705C54.0504 150.469 52.1962 149.671 50.6739 148.408C49.251 147 48.0811 145.357 47.2154 143.552C46.2063 141.704 45.2325 139.921 44.3038 138.223C42.44 134.828 40.7423 131.78 39.2941 129.232C37.8955 126.772 36.7313 124.786 35.8675 123.397C36.2836 123.383 36.6988 123.349 37.1115 123.293C39.2415 122.976 41.2701 122.173 43.0406 120.947C44.8111 119.721 46.2761 118.105 47.3226 116.223C51.3248 120.507 62.801 119.779 66.1146 111.973C66.2589 112.093 66.3935 112.214 66.571 112.34C71.3069 115.673 79.7777 114.715 83.7906 108.019C83.8385 108.056 83.8768 108.094 83.9247 108.13C89.2325 112.085 97.2252 110.436 99.8192 104.2C100.023 103.698 100.17 103.175 100.259 102.64C100.567 102.868 100.889 103.077 101.222 103.266C102.938 104.182 104.845 104.678 106.789 104.717C108.733 104.755 110.658 104.333 112.408 103.486C112.396 104.281 112.396 105.247 112.415 106.42ZM115.654 90.9413C115.792 93.077 115.248 95.2014 114.099 97.0069C111.721 100.861 107.132 102.888 101.857 101.663C101.258 101.524 100.747 101.371 100.32 101.242C100.313 101.219 100.317 101.187 100.314 101.163C100.081 99.827 99.4562 99.8214 98.8689 99.8116C98.5403 99.7717 98.2075 99.8329 97.9147 99.9872C97.6219 100.141 97.3832 100.381 97.2303 100.675C96.9605 101.063 96.6808 101.619 96.186 102.373C93.5474 106.24 89.4561 107.177 85.0593 105.935C84.9729 105.91 84.9002 105.886 84.8151 105.861L84.8645 105.736C85.2491 104.72 85.4042 103.632 85.3185 102.55C85.1304 101.153 84.5298 101.098 83.9382 101.051C83.5885 100.989 83.2282 101.051 82.9191 101.226C82.6099 101.401 82.3713 101.678 82.2442 102.009C81.9565 102.481 81.659 103.176 81.1214 104.144C77.527 110.483 72.6171 111.41 66.582 110.664C66.8269 109.91 66.9674 109.127 66.9996 108.335C67.002 106.996 66.4705 106.805 65.8903 106.629C65.3102 106.453 64.7661 106.362 64.0277 107.381C63.5255 108.133 63.0631 108.912 62.6424 109.713C59.7727 114.534 52.3463 116.592 48.1586 114.476C48.3021 114.099 48.4259 113.715 48.5295 113.326C49.0282 111.128 48.4243 110.885 47.8721 110.696C47.273 110.492 46.7824 110.471 45.6822 112.036C43.5543 114.872 41.2457 118.231 36.4933 118.921C34.4288 119.247 32.3173 118.782 30.5816 117.618C29.5555 116.923 28.6786 116.031 28.0028 114.993C27.3269 113.954 26.8657 112.791 26.6463 111.572C26.258 109.406 26.4712 107.175 27.2625 105.122C27.8771 103.465 28.4744 102.44 28.229 102.236C28.1476 102.163 27.9345 102.218 27.6383 102.403C28.0869 100.105 28.6902 97.8407 29.444 95.6246C31.5445 90.0937 34.9061 85.129 39.2616 81.1251C41.1157 79.3936 43.1163 77.826 45.2409 76.4398C45.4027 77.3356 45.6214 78.2202 45.8956 79.0882C46.1823 80.0101 46.6746 80.8549 47.3354 81.5588C47.7558 81.9872 48.2583 82.3262 48.8129 82.5556C49.3676 82.785 49.9628 82.9 50.5629 82.8938C51.5481 82.8641 52.5128 82.6056 53.3808 82.1388C54.273 81.7188 55.0512 81.0907 55.65 80.3074C56.2662 79.4115 56.585 78.3444 56.5612 77.2574C56.4795 75.8064 56.1831 74.3755 55.6816 73.0115C55.4889 72.4054 55.3015 71.8148 55.1179 71.2343C55.9763 70.8775 56.8386 70.5353 57.6991 70.224C57.8914 70.1545 58.0822 70.0955 58.2738 70.0273C58.705 70.8096 59.3349 71.4642 60.1 71.9252C61.0855 72.4796 62.2265 72.693 63.3458 72.5325C64.244 72.4092 65.1163 72.1413 65.929 71.7393C66.7769 71.3634 67.5483 70.8345 68.2046 70.179C68.9787 69.3533 69.4542 68.2923 69.5553 67.1649C69.5616 67.0757 69.5587 66.9934 69.5633 66.9058C70.3864 66.7357 71.1841 66.5837 71.9681 66.4477C72.1959 67.5771 72.4253 68.7128 72.6565 69.8548C72.8054 70.6296 73.0205 71.3901 73.2993 72.1281C75.7722 78.3119 84.305 75.085 84.4322 70.0306C84.4169 68.5231 84.1346 67.0301 83.5986 65.6209L83.5528 65.4795C93.0901 65.7837 99.709 68.9934 104.789 76.7816C106.096 78.8266 106.715 79.9772 107.197 80.5137C107.338 80.7029 107.528 80.8509 107.746 80.9423C107.67 81.0593 107.632 81.1965 107.637 81.3357C107.641 81.4749 107.688 81.6094 107.771 81.7211C107.972 81.9836 108.243 82.1835 108.553 82.2972C109.005 82.4687 109.476 82.5834 109.956 82.6387C110.187 82.6693 110.416 82.7139 110.642 82.7723C110.838 82.8343 111.028 82.9137 111.21 83.0096C111.79 83.3366 112.312 83.7563 112.756 84.252C114.47 86.0776 115.494 88.4427 115.654 90.9413Z" fill="#31394D"/>
<path d="M35.9688 41.0518C36.5878 41.6815 37.3234 42.1847 38.1346 42.5333C39.1446 42.9623 40.2731 43.0237 41.3237 42.7068C42.2779 42.3848 43.1175 41.7912 43.7393 40.999C44.6411 39.8282 45.1619 38.4088 45.2311 36.9325C45.3719 32.4862 42.4023 28.5366 38.9457 25.6726C37.6457 24.6158 37.1874 24.8238 36.6619 25.1622C36.497 25.2436 36.3557 25.366 36.2517 25.5177C36.1477 25.6694 36.0844 25.8452 36.068 26.0284C36.049 26.019 36.0283 26.0136 36.0072 26.0125C35.986 26.0114 35.9649 26.0147 35.945 26.0221C35.639 26.1366 35.7473 27.0852 35.3777 28.4872C34.8193 30.7009 33.9151 32.097 33.6062 34.5299C33.5101 35.2876 33.5208 36.0551 33.638 36.8099C33.7787 37.6477 34.0745 38.4518 34.5102 39.1811C34.9171 39.8627 35.407 40.4911 35.9688 41.0518ZM37.0946 28.6995C38.4836 30.9514 40.9396 33.8343 40.8187 36.6962C40.7949 37.282 40.6215 37.8521 40.315 38.3519C40.2227 38.4863 40.11 38.6055 39.981 38.7052C39.9346 38.7288 39.8524 38.7991 39.575 38.723C38.7729 38.3975 38.0764 37.8567 37.5624 37.1601C35.8293 35.0734 37.3106 31.6462 37.0946 28.6995Z" fill="#31394D"/>
<path d="M52.1413 29.8989C53.0502 30.1396 54.0067 30.1343 54.9128 29.8836C56.0102 29.5298 56.9895 28.8819 57.7444 28.0104C58.4993 27.1389 59.0008 26.0771 59.1945 24.9405C59.4828 23.0816 59.1246 21.1801 58.1798 19.5535C57.5871 18.4926 56.8499 17.5192 55.9894 16.6611C55.0871 15.7435 54.0971 14.9164 53.0336 14.1915C51.7394 13.3239 51.3014 13.5614 50.7969 13.9323C50.6361 14.0234 50.501 14.1538 50.4045 14.3114C50.3079 14.4691 50.253 14.6486 50.2448 14.8333C50.1424 14.7485 50.0523 14.7221 49.987 14.7464C49.6905 14.8673 49.7792 15.7471 49.3126 16.9922C48.5683 19.1445 46.5675 21.8266 47.1963 24.8602C47.3749 25.6963 47.7413 26.4808 48.2679 27.1544C49.2205 28.4719 50.5825 29.4369 52.1413 29.8989ZM50.2822 22.8559C50.3067 21.9004 50.4376 20.9505 50.6727 20.024C50.8902 19.1112 51.0051 18.1769 51.0151 17.2386C51.0131 17.0596 50.9992 16.8905 50.982 16.7256C52.2346 18.6986 55.3343 21.6594 54.8551 24.1223C54.7585 24.6216 54.5299 25.086 54.1929 25.4669C54.0594 25.6378 53.8834 25.7706 53.6825 25.8522C53.4817 25.9338 53.2629 25.9613 53.0481 25.9319C52.2915 25.765 51.6033 25.3726 51.0743 24.8065C50.8228 24.5806 50.6235 24.3028 50.4902 23.9922C50.3494 23.6289 50.2786 23.2423 50.2814 22.8528L50.2822 22.8559Z" fill="#31394D"/>
<path d="M64.9227 32.8346C65.4041 33.3421 65.9809 33.7498 66.62 34.0342C67.2592 34.3186 67.9481 34.4742 68.6474 34.4921C69.521 34.4713 70.3678 34.1861 71.0759 33.6741C71.6542 33.2553 72.1421 32.7241 72.5104 32.1124C73.0883 31.1576 73.4197 30.0741 73.4748 28.9594C73.452 26.1268 72.3566 23.4081 70.4092 21.3509C69.6173 20.4254 68.736 19.5803 67.778 18.828C66.5945 17.9252 66.1361 18.1456 65.6119 18.4803C65.4603 18.5565 65.3272 18.6651 65.2221 18.7984C65.117 18.9316 65.0425 19.0863 65.0037 19.2515C64.9953 19.2538 64.982 19.2416 64.9739 19.2449C64.7373 19.3297 64.7267 19.8892 64.5493 20.7055C64.0389 23.3665 61.7905 26.4437 62.9997 29.9177C63.4147 31.0215 64.0718 32.0182 64.9227 32.8346ZM65.9562 24.6451C66.071 23.8351 66.1243 23.0175 66.1157 22.1994C67.2711 24.0403 69.1622 26.4483 69.0664 28.7254C69.0477 29.1323 68.9455 29.531 68.7663 29.8967C68.7038 30.0217 68.6251 30.1379 68.5323 30.2423C68.4832 30.2936 68.5122 30.297 68.4756 30.3282C68.4849 30.3964 67.9872 30.3064 67.5055 29.9248C67.0127 29.558 66.5923 29.1028 66.2659 28.5824C65.7749 27.3296 65.6671 25.9592 65.9562 24.6451Z" fill="#31394D"/>
</svg>
