<svg width="51" height="52" viewBox="0 0 51 52" fill="none" xmlns="http://www.w3.org/2000/svg">
<path d="M19.1586 50.081C20.6728 50.4916 22.22 50.7691 23.7826 50.9104C28.0278 51.3033 32.2923 50.3983 36.0119 48.3149C36.2822 48.162 36.5432 47.993 36.7934 47.8089C37.6045 47.2349 37.6107 47.1119 37.5523 47.0189C37.4939 46.9259 37.3741 46.8749 36.4914 47.2707C36.2668 47.3626 36.0111 47.5132 35.6687 47.6408C31.66 49.3186 28.278 50.023 23.9048 49.6008C22.4263 49.4365 20.9643 49.148 19.5342 48.7383C8.9651 45.6358 4.88955 39.1979 3.13627 29.9703C3.11032 29.7887 3.08437 29.6051 3.05843 29.4196C3.01951 29.1549 2.98916 28.8852 2.95764 28.6167C3.33711 29.223 3.83767 29.7445 4.42797 30.1485C5.03334 30.5479 5.71234 30.8224 6.42516 30.9559C7.13799 31.0894 7.8703 31.0793 8.57916 30.9261C9.28802 30.7729 9.95917 30.4797 10.5533 30.0638C11.1474 29.6478 11.6524 29.1175 12.0389 28.5038C12.2144 28.2376 12.321 28.1387 12.3783 28.1146C12.4822 28.0286 12.8352 28.0924 13.1033 28.257C13.234 28.332 13.357 28.4197 13.4703 28.519C13.5898 28.6225 13.7038 28.7307 13.8128 28.8331C14.0017 29.0186 14.2025 29.1917 14.4137 29.3514C14.576 29.4765 14.7591 29.5719 14.9547 29.6332C15.0557 29.9082 15.1705 30.178 15.2987 30.4415C17.2699 34.512 21.8222 37.722 26.6119 37.3219C27.6605 37.2356 28.6869 36.9724 29.6476 36.5436C33.6274 34.7887 36.8576 30.0652 36.8086 25.5195C37.1132 25.3974 37.4395 25.3391 37.7675 25.3483C37.989 25.3543 38.2084 25.3923 38.419 25.4611C38.6566 25.5375 38.886 25.6375 39.1036 25.7596C40.0295 26.2562 40.8857 27.2059 42.0404 27.9223C42.6224 28.2988 43.2808 28.541 43.968 28.6314C44.5956 28.6986 45.2299 28.6059 45.812 28.3621C46.5961 28.0298 47.2825 27.503 47.8062 26.8315C48.1812 26.3491 48.4846 25.8151 48.7068 25.2459C48.778 25.0626 48.836 24.8937 48.8885 24.7318C48.8959 32.3851 45.7844 40.0766 39.7718 45.2212C39.4189 45.5123 39.1188 45.7907 38.8378 46.002L38.1205 46.5359C37.9096 46.6694 37.7184 46.8319 37.5527 47.0185C37.7873 46.9343 38.0088 46.8172 38.2104 46.6706L38.9795 46.1973C39.2807 46.0051 39.6002 45.7447 39.9742 45.4696C46.8239 40.2432 50.5274 30.9179 49.756 21.9044C49.5507 19.409 48.979 16.9574 48.0595 14.6286C44.7993 6.61874 38.1824 2.33031 29.3572 1.23787C26.6809 0.897526 23.9707 0.922501 21.3011 1.31217C-5.50327 5.18301 -5.24718 43.3069 19.1586 50.081ZM21.5245 2.75608C24.0624 2.36606 26.6415 2.32115 29.1915 2.62259C37.5508 3.59905 43.7614 7.36635 47.022 15.0551C47.9585 17.3388 48.5473 19.75 48.7686 22.2083C48.597 22.2017 48.4149 22.3169 48.1335 22.9341C47.9525 23.312 47.7482 23.8923 47.3734 24.6508C47.165 25.0785 46.9073 25.4803 46.6056 25.848C46.2298 26.3017 45.7525 26.6605 45.2123 26.8953C44.8668 27.0439 44.4913 27.1092 44.1159 27.086C43.6409 27.0383 43.1811 26.8915 42.7662 26.6552C41.8042 26.1652 40.8071 25.2424 39.5784 24.7447C39.2778 24.6219 38.9646 24.5326 38.6444 24.4784C38.3343 24.4257 38.0179 24.421 37.7064 24.4644C37.38 24.5113 37.0641 24.6138 36.7724 24.7676V24.7552C36.7216 24.2356 36.6244 23.7216 36.4817 23.2194C36.4132 22.9777 36.3202 22.7474 36.2419 22.5189C36.1579 22.2944 36.061 22.0958 35.9734 21.89C33.2269 15.8642 27.6837 15.2006 27.5744 15.9086C27.4545 16.6971 32.0683 16.4768 34.6381 22.4812C34.7109 22.666 34.7992 22.8579 34.8646 23.047C34.9226 23.2362 34.9965 23.4241 35.0483 23.623C35.1571 24.0386 35.2296 24.4629 35.2647 24.891C35.6387 29.5892 31.541 35.3313 26.4792 35.7753C22.32 36.1645 18.2674 33.348 16.4803 29.8597C15.535 27.994 15.356 25.8329 15.9813 23.8371C16.5735 21.9907 17.6435 20.3338 19.0828 19.0345C20.2617 17.9493 21.6482 17.114 23.1587 16.5791C24.1881 16.226 25.2628 16.0223 26.35 15.974C26.7392 15.9491 27.0412 15.9568 27.2486 15.9545C27.4561 15.9522 27.5685 15.9343 27.5724 15.9071C27.5763 15.8798 27.472 15.8417 27.2669 15.7934C26.9681 15.7204 26.6633 15.6739 26.3562 15.6545C25.2179 15.5707 24.0736 15.6842 22.9738 15.99C21.3297 16.4551 19.8039 17.2658 18.4982 18.3679C16.8616 19.7212 15.6226 21.493 14.913 23.4946C14.5377 24.6044 14.3695 25.7737 14.4168 26.9443C14.425 27.1428 14.4425 27.3413 14.4643 27.5398L14.4619 27.5374C14.2963 27.3485 14.1091 27.1797 13.9042 27.0342C13.645 26.8476 13.3553 26.7076 13.048 26.6205C12.7128 26.5191 12.356 26.5127 12.0173 26.602C11.6786 26.6913 11.3714 26.8729 11.1297 27.1265C10.9877 27.276 10.8583 27.437 10.7429 27.6079C10.1515 28.5326 9.23886 29.2057 8.18076 29.4976C7.12266 29.7895 5.99397 29.6795 5.01214 29.1888C4.24014 28.7875 3.5804 28.2 3.09268 27.4795C2.9841 27.3238 2.89419 27.1829 2.81713 27.0557C1.98895 13.9576 9.70533 4.55334 21.5245 2.75608Z" fill="#31394D" stroke="#31394D"/>
<path d="M13.1744 14.8204C13.9115 13.5992 14.0613 12.8621 14.0672 12.4787C14.0824 12.3548 14.0495 12.2297 13.9752 12.1294C13.9008 12.0291 13.7908 11.9612 13.6679 11.9397C13.5602 11.8834 13.4362 11.8668 13.3176 11.8929C13.1989 11.9189 13.0933 11.9859 13.0191 12.0821C6.8579 18.0752 10.0667 20.0009 13.1744 14.8204Z" fill="#31394D" stroke="#31394D"/>
<path d="M22.0694 9.03763C22.9306 9.10418 23.9336 9.17032 24.5707 9.18433C25.7336 9.20924 26.331 9.19523 26.6509 9.07887C26.7646 9.04865 26.8645 8.98038 26.934 8.88541C27.0035 8.79044 27.0383 8.67453 27.0327 8.55699C27.0663 8.44277 27.058 8.32028 27.0094 8.21161C26.9607 8.10294 26.8748 8.01526 26.7672 7.96428C26.464 7.79421 25.8406 7.62646 24.5991 7.59961C23.714 7.59999 22.8323 7.7079 21.9732 7.92105C21.0956 8.13977 20.42 8.44997 20.4554 8.66403C20.4908 8.87808 21.2093 8.9668 22.0694 9.03763Z" fill="#31394D" stroke="#31394D"/>
<path d="M40.9284 21.2263C41.4896 21.3526 42.0715 21.355 42.6338 21.2333C43.4168 21.0337 43.7577 20.7616 43.8842 20.5546C43.9302 20.4602 43.9495 20.355 43.9399 20.2505C43.9304 20.1459 43.8924 20.046 43.8301 19.9615C43.7344 19.7645 43.6355 19.5913 43.4207 19.5334C43.0244 19.497 42.6251 19.5518 42.2532 19.6933C41.9134 19.7801 41.3841 19.9549 40.9031 20.1047C40.4267 20.2604 39.9959 20.4016 39.969 20.6203C39.9422 20.8391 40.3532 21.0955 40.9284 21.2263Z" fill="#31394D" stroke="#31394D"/>
</svg>
