<svg width="152" height="147" viewBox="0 0 152 147" fill="none" xmlns="http://www.w3.org/2000/svg">
<path d="M49 57.5L28 57.5L31.5 76L45.5 94.5C52.6667 83.8333 67.2 62 68 60C68.8 58 55.6667 57.5 49 57.5Z" fill="#FBE4E4"/>
<path d="M118 49.583L118 59.0614C118 67.1506 109.562 72.4729 102.262 68.9887C98.4361 67.1627 96 63.3007 96 59.0614L96 49.583C96 45.2695 98.5212 41.354 102.448 39.569C109.731 36.2585 118 41.5829 118 49.583Z" fill="#FFF1E2"/>
<path d="M55.1411 42.2838C55.8952 41.4493 48.1122 33.1821 44.1984 29.6455C37.0574 23.1918 36.2966 23.7324 35.5435 24.5667C34.7904 25.401 34.3268 26.2121 41.468 32.6667C45.3779 36.2042 54.3871 43.1184 55.1411 42.2838Z" fill="#31394D"/>
<path d="M61.1703 15.0886C60.8051 14.069 60.2955 14.0129 59.734 14.0056C59.1724 13.9983 58.6623 14.0271 58.2907 15.0999C57.9507 16.168 57.6684 18.3144 58.1713 22.4496C58.5869 25.3811 59.3707 28.2486 60.5042 30.9839C61.6616 33.769 63.0252 35.8106 63.5395 35.6082C64.071 35.4001 63.6822 33.0426 63.2768 30.2082C62.8488 27.3735 62.4635 24.0434 62.2106 21.9373C61.7471 18.086 61.5661 16.1078 61.1703 15.0886Z" fill="#31394D"/>
<path d="M80.7758 24.3215C84.0345 15.7785 83.2518 15.2751 82.2005 14.8744C81.1492 14.4736 80.2302 14.3271 76.9716 22.8701C75.1859 27.5512 72.2053 37.9222 73.2566 38.3229C74.3079 38.7237 78.9901 29.0026 80.7758 24.3215Z" fill="#31394D"/>
<path d="M149.237 111.333C149.012 110.817 148.759 110.371 147.289 110.619C145.829 110.884 143.117 111.796 138.168 114.344C137.719 114.574 137.223 114.845 136.71 115.132C136.655 114.908 136.585 114.662 136.488 114.373C134.386 108.283 126.095 96.7245 116.951 81.8153C115.994 80.2398 115.324 79.2741 115.051 79.3542C115.643 79.0181 116.168 78.5762 116.6 78.0505C117.15 77.3606 117.559 76.57 117.804 75.7231C119.78 70.123 119.759 64.0517 120.61 35.9016C120.622 35.4985 120.614 35.0951 120.584 34.693C120.538 34.2483 120.45 33.8091 120.319 33.3815C119.157 29.4987 114.332 27.0106 109.583 29.2432C109.494 29.303 77.4399 48.6367 71.8361 51.5923C71.3881 51.8115 70.9577 52.0652 70.549 52.3512C69.9369 52.7743 69.4516 53.3561 69.145 54.034C68.8645 54.7045 68.7935 55.4441 68.9413 56.1557C69.0114 56.5111 69.1188 56.858 69.2617 57.1908C69.3788 57.455 69.5153 57.7101 69.67 57.954C70.2265 58.7948 70.9636 59.5008 71.8277 60.0204C71.952 60.0963 92.8486 71.5314 101.188 75.6239C107.747 78.84 108.25 78.5377 108.523 78.0459C108.795 77.5541 108.786 76.9684 102.585 73.1056C89.4771 64.9442 73.5611 56.7249 73.0724 55.8029C73.0338 55.74 72.9986 55.675 72.967 55.6084L72.9659 55.6035L72.9702 55.5945L72.978 55.5928C73.2037 55.4506 73.437 55.3209 73.6769 55.2043C82.6362 50.5345 111.094 32.5621 111.185 32.5009C113.932 31.1707 116.478 32.5214 117.106 34.4085C117.177 34.6191 117.228 34.8358 117.259 35.0559C117.284 35.32 117.296 35.5854 117.293 35.8508C117.244 65.2945 117.851 69.518 116.292 75.2633C116.181 75.915 115.935 76.5362 115.569 77.0871C115.204 77.638 114.727 78.1063 114.17 78.4618C113.289 78.9602 112.248 79.0946 111.27 78.8362C110.593 78.6765 109.929 78.4701 109.281 78.2182C108.818 78.0542 108.561 77.9847 108.529 78.0476C108.498 78.1105 108.684 78.297 109.09 78.5864C109.694 79.0176 110.351 79.3666 111.047 79.6242C111.636 79.8605 112.267 79.9742 112.902 79.9585C113.536 79.9428 114.161 79.7979 114.738 79.5326C114.839 79.4837 114.938 79.424 115.036 79.3675C114.802 79.5039 114.982 80.6667 115.511 82.4632C118.565 92.5317 130.701 111.784 133.98 115.77C134.155 115.988 134.342 116.197 134.539 116.396C132.426 117.675 130.122 119.199 128.143 120.685C124.903 123.098 122.512 125.357 122.825 125.816C123.139 126.275 126.087 124.886 129.646 123.141C133.206 121.396 137.403 119.316 140.049 117.957C144.874 115.473 147.325 114.174 148.469 113.246C149.609 112.339 149.462 111.847 149.237 111.333Z" fill="#31394D"/>
<path d="M65.2975 57.1247C64.2798 56.9222 64.1374 57.1822 64.0255 57.4317C63.9135 57.6811 63.9153 57.9659 64.6035 58.5495C65.0586 58.9023 65.4446 59.3361 65.742 59.8291C65.9505 60.2812 66.0647 60.771 66.0778 61.2686C66.0908 61.7663 66.0023 62.2614 65.8178 62.7238C65.559 63.5567 65.2223 64.3633 64.8122 65.133C63.7133 67.192 51.0551 92.6215 41.7405 93.6625C41.4177 93.7334 41.084 93.7391 40.7589 93.6791C40.4339 93.6192 40.1241 93.4949 39.8478 93.3134C33.9366 88.0344 22.0061 61.2392 20.4237 56.2013C20.1053 55.4498 20.0731 54.6076 20.3334 53.834C20.6005 53.5544 20.9242 53.335 21.2828 53.1905C21.6415 53.046 22.0269 52.9796 22.4132 52.9959C49.9485 50.4557 63.5352 58.6786 64.0284 57.4311C64.3001 56.8147 46.7644 48.3442 22.1667 49.8634C21.381 49.902 20.6053 50.0559 19.8644 50.3202C18.9407 50.6432 18.1447 51.2533 17.5927 52.0613C17.0799 52.8745 16.8174 53.8204 16.8377 54.7816C16.8448 55.5694 16.957 56.3527 17.1714 57.1108C18.9616 63.411 32.0733 94.9505 38.9538 97.4539C39.0211 97.4776 39.0891 97.4949 39.1554 97.5136C37.921 103.152 36.4353 113.095 35.8435 118.683C34.9725 126.908 34.8536 130.697 35.1095 132.463C33.2772 132.595 31.4534 132.827 29.6464 133.158C25.8324 133.852 22.8695 134.917 22.9675 135.46C23.0679 136.023 26.1559 135.973 29.8945 136.027C33.6369 136.055 38.0287 136.261 40.8164 136.41C45.905 136.677 48.4993 136.936 49.8831 136.757C51.2606 136.615 51.4112 136.128 51.5094 135.571C51.6075 135.013 51.6489 134.507 50.3424 133.914C49.036 133.359 46.3635 132.623 41.0122 132.341C40.1068 132.292 39.0265 132.287 37.8703 132.319C38.4521 130.47 39.0913 126.71 39.895 119.112C40.4856 113.537 41.1087 103.54 41.0902 97.7618C41.4727 97.7692 41.8553 97.7477 42.2346 97.6973C52.8504 96.3912 63.3509 76.3212 67.6622 66.4596C68.0993 65.4611 68.4241 64.4171 68.6308 63.3468C68.8099 62.4128 68.8033 61.4526 68.6114 60.521C68.4468 59.7517 68.0851 59.0384 67.5618 58.451C66.967 57.7797 66.174 57.3151 65.2975 57.1247Z" fill="#31394D"/>
</svg>
