<svg width="101" height="104" viewBox="0 0 101 104" fill="none" xmlns="http://www.w3.org/2000/svg">
<path d="M97.5358 52.9612C74.1075 24.867 71.3774 21.579 68.2921 18.2236C62.8823 12.2455 57.519 7.78396 52.3601 5.10031C50.029 3.86773 47.5673 2.89979 45.021 2.21462C42.9814 1.68918 40.9071 1.30962 38.8136 1.07881C35.9585 0.780077 33.0899 0.627871 30.2192 0.622737C28.1351 0.531358 26.7011 0.496897 25.7175 0.509723C23.7497 0.534571 23.5806 0.734943 23.5581 0.959383C23.5357 1.18382 23.6583 1.40987 25.6117 1.77539C26.5881 1.95814 28.0237 2.17617 30.1302 2.4455C32.2191 2.64589 34.9725 2.83588 38.5066 3.36732C40.478 3.66385 42.4279 4.08932 44.3436 4.64101C46.6839 5.34452 48.9413 6.29856 51.0768 7.48657C55.8181 10.0821 60.8359 14.3496 66.0662 20.2459C69.121 23.6374 69.5931 24.3452 95.0261 55.0221C97.6304 58.1915 98.6845 60.3661 95.7796 66.8052C95.0885 68.3159 94.3107 69.7855 93.4502 71.2066C87.5282 81.1461 76.089 93.5872 65.3448 98.3085C57.1279 101.916 52.3521 99.8202 45.978 93.7075C40.9225 88.8043 23.8202 71.2739 7.72228 53.6153C6.05662 51.7597 4.60659 49.9193 4.01262 47.7246C3.33095 45.4573 2.86003 43.132 2.60586 40.7782C1.55821 31.9938 2.18185 22.528 1.63758 14.6085C1.57506 13.6082 1.49088 12.6847 1.49008 11.7814C1.47785 10.8973 1.54276 10.0138 1.68406 9.14099C1.90755 7.52519 2.56025 5.99892 3.57417 4.72115C4.53637 3.58367 5.76549 2.70238 7.15158 2.15611C8.4241 1.65543 9.75179 1.30832 11.1065 1.1221C13.3223 0.83495 15.558 0.73197 17.7908 0.814274C21.4925 0.925692 23.5509 1.08684 23.5621 0.956985C23.09 0.781824 22.5947 0.677033 22.092 0.645976C21.1221 0.500892 19.6873 0.309309 17.8253 0.157813C15.5497 -0.0526042 13.2595 -0.0526042 10.9839 0.157813C9.53587 0.30127 8.11083 0.62105 6.74038 1.11007C5.15227 1.67999 3.73125 2.6368 2.60586 3.89394C1.40158 5.31986 0.602615 7.0432 0.292543 8.88369C0.112276 9.8334 0.0159759 10.7972 0.00477198 11.7637C-0.0184735 12.7433 0.0488632 13.7412 0.0849339 14.6903C0.447244 22.6875 -0.371963 32.0146 0.544232 41.0074C0.771696 43.4948 1.23032 45.9555 1.91413 48.3578C2.27092 49.6614 2.83406 50.8994 3.58219 52.025C4.31062 53.1199 5.11693 54.1609 5.9949 55.1399C21.0267 72.1196 38.1146 90.0723 43.9324 95.8164C51.1762 102.865 57.1431 105.216 66.5744 101.169C78.1114 96.1707 90.0243 83.3271 96.2565 72.8738C97.1789 71.348 98.0125 69.7703 98.7534 68.1486C102.178 60.5016 100.936 57.135 97.5358 52.9612Z" fill="#31394D"/>
<path d="M12.5813 12.1068C11.7833 12.949 11.2533 14.009 11.0583 15.1527C10.8975 16.0379 10.8608 16.9411 10.9493 17.8364C11.0808 19.1728 11.382 20.4869 11.8454 21.7472C14.2886 28.5093 20.0455 30.7497 24.8309 29.2579C25.7218 29.0419 26.5235 28.5542 27.125 27.8624C27.2182 27.7628 27.2729 27.6334 27.2795 27.4971C27.2861 27.3609 27.2441 27.2267 27.161 27.1185C27.102 27.0008 27.0099 26.9029 26.896 26.8368C26.782 26.7707 26.6513 26.7394 26.5198 26.7466C26.1414 26.7386 25.5058 26.8773 24.3467 27.0015C18.2885 27.4769 14.7904 23.4017 14.2037 17.543C14.089 16.3671 14.2453 14.9924 14.8513 14.3576C18.2628 10.6479 32.5725 15.5599 30.4595 22.5969C30.2701 23.1607 30.0036 23.6957 29.6676 24.1864C29.3733 24.612 29.052 25.0181 28.7057 25.4024L27.8536 26.2617C27.3598 26.7162 27.1041 27.0184 27.1627 27.1146C27.2212 27.2108 27.5931 27.0969 28.2344 26.7939C28.615 26.5921 28.985 26.3708 29.3429 26.131C29.8144 25.7868 30.2541 25.4011 30.6567 24.9784C31.1637 24.442 31.5848 23.8304 31.9047 23.1652C34.0465 18.4584 29.7726 13.7268 25.0802 11.5866C20.8262 9.62592 15.2609 9.46239 12.5813 12.1068Z" fill="#31394D"/>
<path opacity="0.6" d="M53.1072 48.958L51.2391 48.3354C48.9423 47.5697 48.1181 44.745 49.6428 42.8643C51.9239 40.0506 48.9044 36.0646 45.5782 37.4986L39.2885 40.2101C36.9705 41.2094 35.7181 43.7411 36.3303 46.19L38.262 53.9169C39.2675 57.9388 43.3268 60.3986 47.3574 59.4283L51.0423 58.5412C55.496 57.469 59.2904 61.8936 57.5517 66.1318C56.3315 69.1058 57.8525 72.4952 60.8853 73.5608L65.6553 75.2368C68.1314 76.1067 70.8443 74.8069 71.7178 72.332C72.2341 70.8691 72.0046 69.2463 71.1029 67.9839L69.82 66.1878C68.975 65.0049 68.4293 63.6349 68.2293 62.1951L68.0543 60.9354C67.1672 54.5485 61.905 49.6697 55.4694 49.2675L54.3332 49.1965C53.9159 49.1704 53.5038 49.0903 53.1072 48.958Z" fill="#8ABF71"/>
<path d="M70.9583 63.8063C71.2751 63.0885 71.5472 62.3519 71.7731 61.6006C72.9179 57.3652 70.9629 52.6283 67.4422 50.213C64.6469 48.2565 60.8119 47.3966 56.5669 48.4476L55.3453 48.7741C53.789 49.1779 52.3525 49.4197 51.1826 49.261C50.673 49.2107 50.1896 49.0114 49.7926 48.6879C49.4933 48.405 49.2782 48.0448 49.171 47.6472C49.0638 47.2496 49.0687 46.8301 49.1852 46.4352C49.3374 46.0855 49.5488 45.7647 49.81 45.4869C50.3224 44.8987 50.857 44.4099 51.2966 43.974C51.966 43.3564 52.5793 42.6807 53.1293 41.9548C53.3598 41.662 53.5353 41.3297 53.6472 40.9741C53.6894 40.7981 53.6484 40.751 53.5952 40.7204C53.542 40.6899 53.4787 40.6804 53.3448 40.7874C53.2109 40.8943 53.0064 41.116 52.6069 41.51C52.2073 41.9041 51.5904 42.4501 50.6363 43.2427C50.0603 43.7103 49.5085 44.207 48.9831 44.7309C47.3311 46.4636 47.6808 48.5142 48.9091 49.6423C49.4857 50.1593 50.2034 50.4926 50.9705 50.5994C52.4849 50.8379 54.0553 50.5716 55.6954 50.1885C59.6453 49.21 63.1737 49.1513 66.5037 51.5348C69.4659 53.5995 71.0935 57.6446 70.1262 61.1491C69.9118 61.84 69.6559 62.5173 69.3598 63.1774C68.9849 64.0099 68.802 64.916 68.8246 65.8288C68.9113 66.8462 69.3583 67.7993 70.0853 68.5165C70.7539 69.1549 71.5131 69.6912 72.3383 70.108C73.0826 70.4815 73.8073 70.8928 74.5097 71.3402C74.7946 71.5286 75.0455 71.7639 75.2519 72.036C75.4131 72.2573 75.4953 72.5263 75.4852 72.7999C75.4688 73.1444 75.3826 73.4819 75.2317 73.792C75.0649 74.1676 74.8639 74.5271 74.631 74.8659C74.2086 75.5531 73.6127 76.1169 72.9032 76.5007C72.5694 76.6695 72.2052 76.7697 71.832 76.7954C71.4387 76.8114 71.0455 76.7616 70.6686 76.6481C69.8185 76.3598 69.0359 75.902 68.3679 75.3024C67.4431 74.6155 64.3271 68.4321 59.984 74.2413L58.8215 75.8539C56.9066 78.4273 55.0063 77.9644 53.4971 75.5534C52.5904 74.1276 52.9483 73.2897 53.63 72.6006C54.6624 71.5843 55.7982 70.6787 57.0191 69.8989C58.0752 69.1783 59.9299 67.932 60.7914 66.9574C63.2608 64.2251 63.3687 59.9969 60.4646 57.4162C57.6882 54.9669 54.1583 55.7566 50.7195 57.1723C49.2368 57.7873 47.8245 58.4691 46.3957 58.9576C42.7257 60.2229 39.5373 59.4305 37.3537 55.5575C37.0071 54.9423 36.726 54.2924 36.5151 53.6185C35.0151 48.5417 37.7178 45.8482 36.5274 43.3996C36.4322 43.2219 36.3249 43.0509 36.2064 42.8878C35.2878 41.639 34.2331 41.3596 34.6372 39.8715C34.7989 39.2778 35.0293 38.7051 35.3235 38.1648C36.2119 36.5549 37.5961 36.0463 38.9491 37.8743C39.4749 38.5768 39.9855 39.4505 40.6794 39.9788C40.9458 40.2051 41.2701 40.3525 41.6158 40.4043C41.9615 40.4562 42.3148 40.4104 42.6359 40.2722C43.8892 39.7183 44.8721 38.7306 45.8301 37.8673C46.4833 37.2324 47.2003 36.6666 47.9697 36.1789C48.623 35.7548 49.4007 35.5646 50.176 35.6394C50.8544 35.743 51.4962 36.0146 52.0429 36.4296C52.5297 36.7625 52.9636 37.1669 53.3299 37.6292C53.6168 37.9918 53.8124 38.4181 53.9003 38.8721C53.9532 39.2102 53.938 39.5555 53.8557 39.8877C53.716 40.4334 53.5576 40.7018 53.5943 40.7201C53.8001 40.4982 53.9492 40.2298 54.0287 39.9378C54.1532 39.5856 54.2001 39.2106 54.1663 38.8385C54.1046 38.328 53.9167 37.841 53.6197 37.4213C53.2548 36.9073 52.8121 36.4534 52.3073 36.0759C51.7136 35.5877 51.0055 35.2583 50.2496 35.1188C49.3564 34.9995 48.4491 35.1864 47.6756 35.6488C46.8515 36.1343 46.081 36.7055 45.3771 37.3531C44.4068 38.1852 43.4628 39.0773 42.3406 39.5465C41.6787 39.8415 41.104 39.3494 40.6552 38.7783C40.3196 38.3571 40.0175 37.8581 39.6599 37.3549C38.1384 35.2771 36.3348 35.4471 35.0854 36.8065C34.8516 37.0749 34.6456 37.3662 34.4703 37.6759C34.1244 38.2832 33.8515 38.9293 33.6572 39.6006C33.051 41.7629 34.6165 42.4791 35.3266 43.5194C35.41 43.6386 35.4857 43.763 35.5534 43.8917C36.3742 45.736 33.8381 48.7044 35.3245 53.971C35.5536 54.737 35.8629 55.4767 36.2473 56.1778C37.8345 59.0734 40.7656 61.2977 44.4279 60.855C46.7506 60.5775 49.0479 59.4143 51.2762 58.5176C60.9721 54.6129 62.7699 62.4196 59.5958 65.859C57.617 67.8446 54.6294 69.13 52.4302 71.4209C50.917 72.9066 50.9802 74.7155 52.0551 76.4555C52.494 77.1558 53.0606 77.7675 53.7254 78.2585C56.2411 80.0912 58.3767 79.3227 60.2127 76.8997C61.3649 75.366 63.0484 72.4022 64.8624 74.0518C65.4522 74.6609 66.0079 75.3021 66.5269 75.9725C66.744 76.2144 66.9803 76.4384 67.2334 76.6423C68.0861 77.4005 69.0855 77.9755 70.1697 78.3313C70.7456 78.5036 71.3466 78.5768 71.947 78.5477C72.5517 78.5064 73.1421 78.3453 73.684 78.0739C74.6685 77.5554 75.4983 76.7857 76.0892 75.8429C76.3835 75.4126 76.637 74.9559 76.8464 74.4785C77.0888 73.9568 77.2223 73.3912 77.239 72.8162C77.2509 72.1805 77.0599 71.5576 76.6939 71.0379C76.3704 70.5958 75.9722 70.2135 75.5173 69.9083C74.7608 69.4228 73.9787 68.9785 73.1744 68.5773C72.5005 68.2433 71.8785 67.8136 71.3276 67.3016C70.8833 66.8792 70.6065 66.3104 70.5484 65.7001C70.5458 65.0465 70.6857 64.4002 70.9583 63.8063Z" fill="#31394D" stroke="#31394D" stroke-width="2"/>
</svg>
