<svg width="290" height="221" viewBox="0 0 290 221" fill="none" xmlns="http://www.w3.org/2000/svg">
<rect width="290" height="221" rx="16" fill="white"/>
<path d="M218.671 60H179.677C171.318 60 162.614 64.5186 157.387 71.041C152.027 77.7295 151.853 85.619 155.043 93.5741L175.392 144.307C182.102 161.036 198.313 172 216.337 172H223.785C232.158 172 240.1 168.281 245.46 161.848C249.686 156.777 252 150.385 252 143.785V93.3293C252 85.3732 249.154 77.6796 243.976 71.6389C237.644 64.2516 228.4 60 218.671 60Z" fill="#E0EDFA"/>
<path d="M171.799 104.091C172.632 104.252 173.482 104.308 174.328 104.259C175.065 104.229 175.643 104.139 176.145 104.08C178.132 103.814 178.245 103.542 176.145 103.26C174.806 103.164 173.48 102.927 172.189 102.554C170.387 101.96 168.781 100.885 167.547 99.443C166.073 97.7383 165.231 95.5778 165.162 93.325C165.139 92.71 165.174 91.9899 165.262 89.3169C165.309 88.1131 165.591 86.9302 166.093 85.835C167.09 83.6494 168.885 81.9278 171.11 81.023C172.16 80.6011 173.279 80.3803 174.41 80.372C174.961 80.35 175.71 80.383 176.33 80.384C176.95 80.385 177.685 80.384 178.144 80.433C180.438 80.5839 182.591 81.5943 184.172 83.2626C185.754 84.9309 186.648 87.1344 186.676 89.433C186.702 91.844 186.696 91.338 186.711 92.486C186.719 92.819 186.695 93.028 186.692 93.298C186.648 94.2442 186.458 95.1778 186.129 96.066C185.594 97.4774 184.747 98.75 183.652 99.789C182.887 100.506 182.025 101.112 181.09 101.589C180.759 101.769 180.417 101.928 180.066 102.066C179.801 102.191 179.528 102.302 179.25 102.397C178.774 102.597 178.434 102.727 178.198 102.855C178.036 102.919 177.898 103.033 177.804 103.18C177.711 103.327 177.667 103.501 177.678 103.675C177.678 103.956 177.709 104.223 178.278 104.438C178.706 104.591 179.16 104.661 179.614 104.644C179.98 104.66 180.347 104.638 180.708 104.576C181.19 104.521 181.665 104.421 182.127 104.276C183.468 103.879 184.723 103.235 185.827 102.376C187.186 101.318 188.31 99.9881 189.127 98.4716C189.944 96.9551 190.436 95.2852 190.571 93.568C190.636 92.442 190.62 93.4519 190.664 89.4369C190.675 87.4898 190.247 85.5652 189.411 83.8063C188.576 82.0474 187.355 80.4993 185.839 79.277C183.709 77.5594 181.084 76.5703 178.35 76.455C177.555 76.409 177.001 76.445 176.329 76.446C175.653 76.462 175.076 76.446 174.292 76.491C172.683 76.5536 171.101 76.9236 169.63 77.581C166.593 78.9444 164.207 81.4388 162.98 84.534C161.4 88.534 161.462 96.847 165.895 101.017C167.517 102.601 169.571 103.671 171.799 104.091Z" fill="#31394D"/>
<path d="M171.312 133.217C172.686 133.623 174.13 133.738 175.551 133.555C176.507 133.423 177.036 133.285 177.036 133.145C177.036 133.005 176.507 132.867 175.551 132.735C174.276 132.582 173.032 132.242 171.856 131.727C170.18 130.974 168.732 129.795 167.656 128.306C166.383 126.537 165.725 124.399 165.784 122.219C165.804 121.571 165.826 120.915 165.848 120.251C165.875 119.602 165.876 118.863 165.942 118.329C166.103 116.597 166.742 114.944 167.788 113.553C168.834 112.163 170.245 111.09 171.865 110.454C172.884 110.055 173.97 109.849 175.065 109.846C175.599 109.826 176.32 109.857 176.924 109.859C177.438 109.87 177.95 109.92 178.457 110.008C180.035 110.286 181.513 110.973 182.742 112.001C183.971 113.029 184.909 114.361 185.462 115.865C185.682 116.45 185.835 117.058 185.919 117.676C186 118.298 186.037 118.925 186.029 119.552C186.035 120.919 186.088 122.313 186.013 123.197C185.921 124.11 185.699 125.004 185.352 125.852C184.79 127.203 183.936 128.412 182.852 129.392C182.102 130.076 181.258 130.648 180.347 131.092C180.025 131.265 179.693 131.418 179.353 131.551C179.059 131.693 178.793 131.783 178.562 131.87C178.102 132.07 177.772 132.191 177.543 132.322C177.385 132.39 177.251 132.505 177.162 132.652C177.072 132.799 177.031 132.97 177.043 133.141C177.043 133.422 177.073 133.689 177.625 133.905C178.038 134.059 178.477 134.132 178.918 134.119C179.273 134.138 179.628 134.12 179.98 134.066C180.447 134.017 180.908 133.925 181.358 133.79C182.664 133.431 183.892 132.83 184.976 132.016C186.606 130.81 187.912 129.217 188.776 127.382C189.333 126.199 189.705 124.936 189.876 123.639C190.037 122.139 189.988 120.949 190.018 119.548C190.038 118.742 190.001 117.935 189.908 117.134C189.796 116.231 189.583 115.344 189.273 114.488C188.495 112.295 187.137 110.353 185.344 108.869C183.55 107.386 181.388 106.417 179.088 106.064C178.371 105.958 177.647 105.906 176.923 105.91C176.269 105.926 175.711 105.91 174.952 105.955C173.393 106.011 171.858 106.36 170.429 106.985C167.478 108.274 165.121 110.627 163.829 113.576C163.201 115.021 162.853 116.571 162.805 118.145C162.771 118.961 162.82 119.566 162.835 120.245L162.906 122.231C163.015 124.998 164.065 127.644 165.883 129.731C167.324 131.386 169.208 132.595 171.312 133.217Z" fill="#31394D"/>
<path d="M187.085 137.872C184.914 136.175 182.25 135.23 179.495 135.179C178.088 135.166 176.943 135.179 175.455 135.23C173.835 135.292 172.243 135.666 170.764 136.33C167.711 137.711 165.322 140.236 164.111 143.362C163.523 144.892 163.241 146.523 163.281 148.162L163.345 150.255C163.356 150.601 163.367 150.945 163.378 151.288C163.393 151.64 163.433 152.05 163.462 152.424C163.785 155.284 165.111 157.937 167.204 159.912C168.102 160.738 169.116 161.43 170.213 161.965C171.165 162.409 172.172 162.722 173.207 162.898C173.654 162.968 174.104 163.015 174.556 163.039C174.982 163.05 175.385 163.026 175.756 163.016C176.471 162.961 177.072 162.889 177.571 162.825C179.571 162.558 179.686 162.286 177.571 162.005C177.077 161.936 176.462 161.877 175.766 161.805C175.433 161.751 175.079 161.715 174.71 161.648C174.346 161.548 173.954 161.493 173.564 161.352C172.712 161.085 171.896 160.716 171.132 160.253C170.282 159.712 169.509 159.06 168.832 158.314C167.325 156.617 166.443 154.457 166.332 152.19C166.332 151.89 166.33 151.589 166.326 151.285L166.359 150.253C166.381 149.561 166.402 148.861 166.423 148.159C166.467 146.947 166.743 145.754 167.235 144.646C168.221 142.438 170.018 140.694 172.255 139.776C173.31 139.348 174.435 139.124 175.573 139.115C176.773 139.11 178.257 139.127 179.378 139.164C181.688 139.268 183.873 140.243 185.493 141.893C187.112 143.543 188.047 145.745 188.107 148.057C188.15 151.177 188.161 151.528 188.133 151.948C188.104 152.901 187.92 153.844 187.59 154.738C187.065 156.165 186.221 157.452 185.121 158.501C184.354 159.225 183.488 159.837 182.549 160.319C182.215 160.499 181.871 160.66 181.518 160.799C181.251 160.926 180.977 161.037 180.697 161.133C180.218 161.333 179.876 161.464 179.638 161.591C179.475 161.655 179.336 161.769 179.242 161.916C179.148 162.064 179.103 162.238 179.115 162.413C179.115 162.694 179.146 162.96 179.715 163.175C180.146 163.327 180.602 163.395 181.059 163.376C181.427 163.391 181.796 163.367 182.159 163.304C182.644 163.247 183.122 163.144 183.587 162.997C184.935 162.592 186.195 161.938 187.302 161.069C188.96 159.765 190.259 158.059 191.073 156.113C191.604 154.861 191.92 153.528 192.009 152.17C192.064 151.478 192.064 151.162 192.089 148.013C192.078 146.053 191.622 144.123 190.755 142.366C189.888 140.609 188.633 139.072 187.085 137.872Z" fill="#31394D"/>
<path d="M179.593 92.0988C185.217 86.5898 184.693 85.8229 183.91 85.0199C183.127 84.2169 182.367 83.6798 176.743 89.1898C176.36 89.5638 175.922 90.0148 175.476 90.4898C175.165 90.835 174.797 91.1239 174.387 91.3438C173.448 91.8433 172.359 91.981 171.325 91.7308C170.774 91.5913 170.246 91.3719 169.758 91.0798C169.201 90.7898 168.688 90.5438 168.243 90.3568C167.352 89.9818 166.729 89.8439 166.559 90.0669C166.389 90.2899 166.685 90.8548 167.28 91.6168C167.58 91.9968 167.95 92.4268 168.38 92.8888C168.897 93.4873 169.513 93.9918 170.201 94.3799C171.056 94.843 171.999 95.1206 172.969 95.1947C173.939 95.2688 174.913 95.1376 175.828 94.8098C176.729 94.4932 177.557 93.9972 178.261 93.3518C178.761 92.8918 179.205 92.4788 179.593 92.0988Z" fill="#31394D"/>
<path d="M180.152 123.644C186.252 118.298 185.779 117.501 185.038 116.656C184.297 115.811 183.569 115.235 177.468 120.581C176.825 121.18 176.002 121.548 175.127 121.63C174.05 121.716 172.982 121.378 172.151 120.686C171.945 120.509 171.753 120.315 171.579 120.107C171.394 119.901 171.179 119.571 170.988 119.331C170.598 118.816 170.23 118.361 169.899 117.99C169.238 117.248 168.725 116.842 168.476 116.972C168.227 117.102 168.264 117.754 168.493 118.721C168.608 119.205 168.77 119.767 168.969 120.383C169.08 120.703 169.149 120.984 169.318 121.372C169.491 121.787 169.706 122.184 169.961 122.555C170.549 123.377 171.313 124.056 172.197 124.545C173.08 125.034 174.062 125.32 175.07 125.383C176.061 125.446 177.055 125.299 177.986 124.953C178.78 124.648 179.513 124.205 180.152 123.644Z" fill="#31394D"/>
<path d="M184.628 154.971C184.504 154.931 184.374 154.912 184.244 154.913L184.43 154.748C184.28 153.939 183.342 152.653 180.58 150.148C180.342 149.933 180.066 149.696 179.773 149.448C179.824 149.382 179.881 149.311 179.928 149.248C183.673 144.253 183.022 143.602 182.122 142.927C181.222 142.252 180.415 141.81 176.67 146.805C176.628 146.86 176.582 146.926 176.539 146.985C174.122 145.293 171.667 143.885 171.195 144.385C170.695 144.917 172.572 147.478 174.65 149.846C172.887 152.752 171.202 156.152 171.843 156.633C172.443 157.085 174.943 154.846 177.143 152.496C177.392 152.739 177.634 152.97 177.854 153.17C180.635 155.69 182.009 156.498 182.82 156.561L184.628 154.971Z" fill="#31394D"/>
<path d="M196.73 118.343C198.008 118.511 199.259 118.845 200.451 119.337C201.846 119.866 203.364 120.581 205.051 121.293C206.909 122.152 208.902 122.68 210.941 122.855C211.576 122.876 212.21 122.809 212.826 122.655C213.42 122.494 213.992 122.264 214.531 121.969C215.531 121.424 216.313 120.828 217.026 120.375C217.616 119.964 218.265 119.646 218.951 119.432C224.527 117.972 230.44 118.534 235.642 121.016C236.299 121.359 236.981 121.652 237.681 121.894C238.452 122.135 239.269 122.194 240.067 122.066C241.124 121.875 242.107 121.397 242.911 120.686C243.617 120.158 244.148 119.431 244.435 118.598C244.474 118.447 244.468 118.288 244.419 118.14C244.37 117.993 244.28 117.862 244.159 117.764C244.065 117.642 243.939 117.548 243.796 117.492C243.652 117.437 243.496 117.421 243.344 117.448C242.635 117.645 241.953 117.928 241.313 118.291C240.806 118.544 240.251 118.688 239.685 118.711C239.397 118.703 239.115 118.635 238.855 118.511C238.511 118.365 238.055 118.077 237.388 117.695C235.832 116.811 234.179 116.112 232.461 115.61C230.193 114.937 227.843 114.583 225.477 114.558C222.872 114.532 220.28 114.924 217.798 115.718C216.755 116.084 215.777 116.613 214.898 117.284C213.976 118.085 212.955 118.765 211.86 119.308C211.561 119.406 211.25 119.463 210.936 119.476C208.15 119.588 204.55 117.94 201.102 117.155C199.672 116.783 198.19 116.648 196.716 116.755C195.692 116.826 194.703 117.161 193.845 117.726C193.258 118.138 193.051 118.494 193.123 118.593C193.305 118.872 194.582 118.084 196.73 118.343Z" fill="#31394D"/>
<path d="M201.182 92.2235C202.114 92.3092 203.034 92.4887 203.929 92.7594C206.352 93.4444 211.093 95.3734 215.879 95.5174C217.339 95.5699 218.8 95.4354 220.225 95.1174C221.365 94.8332 222.49 94.4922 223.595 94.0954C226.107 93.2747 228.703 92.7381 231.334 92.4955C233.318 92.2695 234.701 92.1214 235.634 91.9254C237.509 91.5474 237.593 91.0435 237.59 90.4795C237.587 89.9155 237.519 89.4045 235.613 89.0465C234.119 88.8037 232.605 88.7048 231.091 88.7514C228.098 88.776 225.127 89.2787 222.291 90.2405C221.321 90.5665 220.291 90.9625 219.26 91.2495C218.15 91.5493 217.01 91.7224 215.86 91.7655C213.248 91.7971 210.639 91.5625 208.073 91.0654C206.792 90.8654 205.543 90.6275 204.327 90.5205C203.234 90.4024 202.129 90.4448 201.047 90.6465C200.298 90.7887 199.589 91.0962 198.973 91.5465C198.549 91.8765 198.404 92.1594 198.473 92.2674C198.644 92.5184 199.623 92.1005 201.182 92.2235Z" fill="#31394D"/>
<path d="M249.57 69.5048C248.107 66.7118 246.177 64.1888 243.865 62.0448C241.253 59.6989 238.05 58.1087 234.602 57.4448C233.524 57.2276 232.435 57.0684 231.339 56.9677C231.414 56.6449 231.52 56.3304 231.657 56.0288C231.926 55.4493 232.315 54.9334 232.797 54.5147C233.28 54.0961 233.846 53.7843 234.457 53.5998C235.457 53.2758 236.227 53.4307 236.357 53.1547C236.414 53.0347 236.301 52.8148 235.972 52.5748C235.491 52.2474 234.93 52.0551 234.349 52.0178C233.472 51.9457 232.59 52.0935 231.783 52.4478C230.758 52.8888 229.873 53.5998 229.22 54.5048C228.71 55.2021 228.32 55.9793 228.065 56.8048C226.146 56.7798 217.357 56.7718 213.709 56.7668C213.773 56.5153 213.856 56.2692 213.958 56.0308C214.227 55.452 214.615 54.9364 215.096 54.5178C215.578 54.0992 216.143 53.787 216.753 53.6018C217.753 53.2778 218.524 53.4328 218.653 53.1568C218.711 53.0368 218.597 52.8167 218.268 52.5767C217.787 52.2494 217.227 52.057 216.646 52.0197C215.768 51.9477 214.886 52.0956 214.079 52.4498C213.055 52.8913 212.169 53.6022 211.516 54.5068C211.016 55.1916 210.631 55.9536 210.377 56.7628L201.616 56.7508C200.76 56.7628 199.893 56.7508 199.016 56.7348C199.057 56.6258 199.08 56.5037 199.129 56.3997C199.398 55.821 199.786 55.3055 200.268 54.8869C200.749 54.4684 201.314 54.1562 201.924 53.9708C202.924 53.6458 203.695 53.8018 203.824 53.5258C203.882 53.4058 203.768 53.1848 203.439 52.9458C202.958 52.6182 202.397 52.4259 201.816 52.3888C200.939 52.3178 200.057 52.4656 199.25 52.8188C198.226 53.2597 197.34 53.9703 196.687 54.8748C196.294 55.4135 195.973 56.0014 195.732 56.6237C192.132 56.4537 188.382 56.1768 184.483 56.0518C185.065 55.0553 185.998 54.3127 187.1 53.9708C188.1 53.6458 188.87 53.8018 189 53.5258C189.057 53.4058 188.944 53.1848 188.615 52.9458C188.134 52.6184 187.573 52.4261 186.992 52.3888C186.115 52.3177 185.233 52.4655 184.426 52.8188C183.401 53.2586 182.515 53.9681 181.861 54.8718C181.605 55.2246 181.38 55.5994 181.19 55.9918C179.444 55.9868 177.677 56.0127 175.867 56.1237C172.695 56.2954 169.553 56.8323 166.503 57.7238C166.575 57.2654 166.707 56.8184 166.896 56.3947C167.165 55.816 167.552 55.3005 168.034 54.8819C168.515 54.4633 169.08 54.1512 169.69 53.9658C170.69 53.6408 171.461 53.7968 171.59 53.5208C171.647 53.4008 171.534 53.1798 171.205 52.9408C170.724 52.6134 170.163 52.4211 169.582 52.3838C168.705 52.3127 167.823 52.4605 167.016 52.8138C165.991 53.255 165.104 53.9662 164.451 54.8718C163.561 56.1194 163.025 57.5844 162.899 59.1118C161.8 59.627 160.743 60.2289 159.739 60.9118C157.109 62.7298 154.927 65.1238 153.361 67.9118C152.587 69.2774 151.892 70.6867 151.281 72.1328C150.637 73.6202 150.103 75.1526 149.681 76.7177C147.013 86.6077 148.066 152.227 149.129 158.041C149.738 161.663 150.985 165.148 152.811 168.334C154.708 171.561 157.418 174.234 160.67 176.088C162.365 177.01 164.244 177.543 166.17 177.648C167.984 177.775 169.607 177.737 171.312 177.767L181.321 177.86C187.921 177.894 194.368 178.033 200.581 177.96L218.498 177.803L226.842 177.721C229.542 177.634 232.088 177.827 234.742 177.721C236.073 177.677 237.392 177.461 238.666 177.077C239.92 176.68 241.091 176.056 242.118 175.235C243.939 173.686 245.407 171.766 246.426 169.604C247.342 167.712 248.079 165.739 248.626 163.711C249.901 159.066 250.611 154.284 250.74 149.469C250.833 147.044 250.81 145.163 250.769 143.889C250.803 143.236 250.744 142.581 250.592 141.945C250.429 141.945 250.347 144.62 249.921 149.415C249.554 154.128 248.67 158.786 247.285 163.306C246.7 165.228 245.94 167.092 245.015 168.876C244.05 170.792 242.693 172.483 241.032 173.841C239.18 175.168 236.943 175.85 234.665 175.781C232.246 175.828 229.542 175.581 226.834 175.609C216.811 175.509 220.865 175.547 200.576 175.37C194.361 175.337 187.949 175.101 181.371 174.976L171.401 174.749C169.744 174.701 167.983 174.707 166.413 174.573C164.925 174.488 163.476 174.062 162.177 173.33C159.449 171.716 157.186 169.42 155.613 166.668C154.021 163.801 152.948 160.675 152.444 157.435C151.572 152.396 151.116 86.4637 153.524 77.7597C153.898 76.3828 154.373 75.0352 154.944 73.7277C155.5 72.4259 156.129 71.1572 156.83 69.9278C158.102 67.6642 159.876 65.7224 162.015 64.2518C162.451 63.9518 162.903 63.6927 163.358 63.4367C163.814 64.8778 164.573 66.2046 165.584 67.3278C166.559 68.4143 167.777 69.2539 169.139 69.7778C170.272 70.2418 171.502 70.4206 172.72 70.2985C173.938 70.1765 175.107 69.7573 176.125 69.0778C176.355 68.9343 176.552 68.7446 176.705 68.5208C176.858 68.2971 176.962 68.0441 177.012 67.7778C177.01 67.6381 176.981 67.5 176.926 67.3717C176.871 67.2433 176.791 67.1271 176.69 67.0297C176.331 66.5627 175.957 66.3208 174.872 66.4858C174.074 66.6065 173.264 66.6319 172.459 66.5617C170.965 66.4137 169.582 65.7053 168.589 64.5788C167.87 63.7804 167.307 62.8549 166.927 61.8498C169.91 60.9021 173.002 60.3408 176.127 60.1798C177.508 60.0918 178.88 60.0608 180.247 60.0518C180.241 60.602 180.28 61.1517 180.362 61.6958C180.666 63.7909 181.582 65.7497 182.994 67.3267C183.969 68.4134 185.188 69.2532 186.55 69.7768C187.683 70.2408 188.912 70.4195 190.13 70.2974C191.348 70.1754 192.517 69.7562 193.535 69.0767C193.765 68.9332 193.962 68.7436 194.115 68.5199C194.268 68.2961 194.372 68.0431 194.422 67.7768C194.421 67.637 194.391 67.499 194.336 67.3706C194.281 67.2422 194.201 67.126 194.1 67.0288C193.741 66.5618 193.367 66.3198 192.282 66.4848C191.484 66.6055 190.674 66.6309 189.869 66.5608C188.375 66.4128 186.992 65.7043 185.999 64.5778C185.068 63.5527 184.397 62.3176 184.045 60.9777C183.973 60.6861 183.917 60.3906 183.878 60.0927C187.671 60.2017 191.41 60.4707 195.087 60.6447C195.102 60.9962 195.136 61.3468 195.187 61.6948C195.491 63.7899 196.407 65.7488 197.819 67.3258C198.794 68.4124 200.013 69.2522 201.375 69.7758C202.508 70.2398 203.737 70.4185 204.955 70.2965C206.173 70.1744 207.342 69.7553 208.36 69.0758C208.59 68.9324 208.788 68.7428 208.94 68.519C209.093 68.2952 209.198 68.0422 209.247 67.7758C209.246 67.6361 209.216 67.498 209.161 67.3696C209.106 67.2412 209.026 67.125 208.925 67.0278C208.567 66.5608 208.192 66.3188 207.107 66.4838C206.309 66.6045 205.499 66.63 204.695 66.5598C203.201 66.4122 201.818 65.7035 200.825 64.5767C199.893 63.5519 199.222 62.3168 198.87 60.9768C198.853 60.9108 198.848 60.8398 198.832 60.7768C199.757 60.7948 200.68 60.8058 201.598 60.7938L209.952 60.7818C209.97 60.9648 209.985 61.1488 210.012 61.3288C210.317 63.4238 211.232 65.3825 212.644 66.9598C213.619 68.0463 214.838 68.8862 216.2 69.4107C217.333 69.8746 218.562 70.0534 219.78 69.9314C220.998 69.8093 222.167 69.3902 223.185 68.7108C223.415 68.5677 223.613 68.3781 223.766 68.1543C223.919 67.9304 224.023 67.6772 224.072 67.4107C224.071 67.2708 224.042 67.1326 223.986 67.004C223.931 66.8754 223.851 66.7591 223.75 66.6618C223.392 66.1948 223.018 65.9527 221.933 66.1187C221.135 66.2385 220.325 66.2637 219.52 66.1938C218.026 66.046 216.643 65.3374 215.65 64.2108C214.762 63.2269 214.111 62.0516 213.75 60.7758C216.425 60.7758 226.15 60.7568 227.65 60.7638C227.669 60.9528 227.684 61.1428 227.712 61.3278C228.017 63.423 228.933 65.3816 230.345 66.9588C231.32 68.0457 232.539 68.8857 233.901 69.4098C235.034 69.8736 236.263 70.0524 237.481 69.9304C238.699 69.8083 239.868 69.3892 240.886 68.7098C241.116 68.5663 241.314 68.3767 241.466 68.1529C241.619 67.9291 241.723 67.676 241.773 67.4098C241.771 67.2699 241.742 67.1318 241.687 67.0033C241.632 66.8747 241.552 66.7583 241.451 66.6607C241.092 66.1937 240.718 65.9518 239.633 66.1178C238.835 66.2375 238.025 66.2627 237.22 66.1928C235.726 66.0448 234.343 65.3363 233.35 64.2098C232.507 63.2707 231.879 62.1588 231.51 60.9517C232.291 61.0377 233.051 61.1518 233.79 61.2988C236.559 61.8026 239.137 63.0557 241.244 64.9218C243.227 66.7443 244.889 68.8867 246.162 71.2597C247.315 73.468 248.087 75.8548 248.446 78.3198C248.619 79.4932 248.714 80.6768 248.728 81.8628C248.903 105.977 248.834 99.5278 249.15 122.25C249.519 141.187 250.028 141.937 250.59 141.95C251.152 141.963 251.662 141.189 252.03 122.25C252.183 111.27 252.36 101.05 252.441 81.8317C252.438 80.4776 252.344 79.1253 252.16 77.7838C251.769 74.8979 250.894 72.0989 249.57 69.5048Z" fill="#31394D"/>
<path d="M244.91 148.486C242.806 147.821 240.596 147.552 238.393 147.691C236.622 147.777 234.861 148.003 233.125 148.368L230.114 149.046C225.934 149.795 221.644 149.67 217.514 148.679C214.082 147.869 210.259 146.207 206.304 145.827C204.599 145.603 202.866 145.74 201.217 146.232C199.569 146.723 198.043 147.558 196.739 148.679C195.976 149.39 195.405 150.282 195.081 151.273C194.875 151.968 194.91 152.373 195.031 152.414C195.343 152.536 195.889 151.088 197.731 149.914C200.198 148.494 203.109 148.052 205.886 148.678C209.202 149.314 212.691 151.136 216.528 152.301C221.195 153.712 226.137 153.958 230.921 153.015C232.155 152.745 233.058 152.476 233.971 152.267C235.517 151.899 237.083 151.62 238.661 151.434C240.543 151.227 242.439 151.184 244.328 151.308C245.091 151.402 245.862 151.386 246.62 151.262C246.77 151.221 246.906 151.141 247.014 151.03C247.122 150.919 247.199 150.782 247.237 150.632C247.31 150.493 247.339 150.336 247.321 150.181C247.303 150.026 247.239 149.88 247.137 149.762C246.524 149.142 245.754 148.701 244.91 148.486Z" fill="#31394D"/>
<path fill-rule="evenodd" clip-rule="evenodd" d="M40.5632 61.7069C41.1133 59.5652 42.3096 57.645 43.9894 56.207C45.56 54.9267 47.3477 53.9387 49.2674 53.2904C50.9997 52.6848 52.7648 52.1774 54.5542 51.7704C56.3453 51.3433 57.3541 51.1085 58.3601 50.8621C62.5562 49.8341 66.7028 48.6039 127.362 32.3753L129.73 31.7409C129.799 31.723 129.864 31.7054 129.93 31.6873C130.121 31.6353 130.323 31.5804 130.682 31.5094C131.503 31.3671 132.345 31.4067 133.148 31.6251C133.952 31.8435 134.698 32.2355 135.334 32.7736C135.939 33.2776 136.443 33.8921 136.818 34.5842C137.133 35.1931 137.369 35.8395 137.521 36.5079C138.757 41.1434 139.551 44.1212 140.344 47.0995C141.902 52.9569 143.452 58.8164 148.344 77.293L147.144 87.493C145.732 82.2867 144.532 77.859 143.499 74.0485C137.356 51.3958 137.127 50.5502 133.628 37.555C133.558 37.1955 133.439 36.847 133.277 36.5185C133.146 36.2773 132.97 36.0632 132.759 35.8872C132.577 35.7251 132.361 35.6058 132.127 35.5378C131.892 35.4698 131.646 35.4549 131.405 35.4942L128.409 36.2907C61.3353 54.2913 60.1083 54.5651 57.0244 55.2533C56.5997 55.3481 56.1397 55.4507 55.4677 55.6086C52.1588 56.4 48.7731 57.2835 46.5272 59.1638C45.4314 60.0836 44.6514 61.3237 44.297 62.7098C43.9231 64.2584 43.844 65.8635 44.0637 67.4414C44.6486 72.9339 54.7565 108.878 57.778 119.623C58.0722 120.669 58.2992 121.476 58.4437 121.993C62.2594 135.648 64.0459 142.396 65.208 146.786C66.906 153.2 67.2712 154.58 70.6853 165.11C71.6175 168.405 73.0563 171.536 74.9501 174.389C75.8111 175.63 77 176.608 78.3841 177.213C79.76 177.715 81.2605 177.764 82.6661 177.352C83.5421 177.125 84.4766 176.883 85.4638 176.627C101.145 172.558 130.099 165.046 148.183 160.544L148.365 161.679C130.3 166.866 101.173 174.918 85.6752 179.202C84.8341 179.434 84.0331 179.656 83.2763 179.865C81.3557 180.428 79.3062 180.369 77.4212 179.697C75.5632 178.937 73.9532 177.675 72.7714 176.052C70.6455 172.985 69.0182 169.601 67.95 166.025C64.3944 155.507 64.1258 154.539 62.2044 147.609C60.9747 143.175 59.0679 136.298 55.1892 122.914C55.044 122.413 54.8349 121.695 54.5725 120.794C51.4741 110.155 40.9421 73.989 40.2546 67.8615C39.9697 65.8088 40.0743 63.7208 40.5632 61.7069Z" fill="#31394D"/>
<path d="M129.131 51.1274C128.819 50.4343 128.406 49.7914 127.905 49.2197C126.854 48.0051 125.461 47.1351 123.909 46.7229C123.094 46.5091 122.252 46.4204 121.412 46.4601C119.825 46.5436 99.9595 52.1048 99.3611 52.317C97.5715 52.9549 96.076 54.2236 95.1549 55.8853C94.2338 57.5471 93.9504 59.4876 94.3578 61.3433L94.4727 61.8415L94.582 62.2265C94.883 63.2919 100.276 82.3193 100.782 83.7068C101.22 84.8449 101.936 85.8554 102.863 86.6472C103.791 87.4389 104.902 87.9869 106.094 88.2412C107.212 88.4727 108.369 88.4403 109.472 88.1467C113.36 86.9922 117.177 85.8389 121.027 84.6168C126.104 83.004 129.214 81.8931 129.141 81.6217C129.069 81.3503 125.819 81.9434 120.617 83.0859C116.65 83.9563 112.877 84.8492 108.893 85.7788C108.163 85.9282 107.409 85.908 106.688 85.7197C105.956 85.5135 105.281 85.1403 104.718 84.6295C103.208 83.182 103.894 83.9567 98.0297 60.8907L97.9767 60.6117C97.8705 60.076 97.8793 59.524 98.0024 58.992C98.15 58.3025 98.4734 57.6629 98.9412 57.1352C99.4089 56.6076 100.005 56.2097 100.672 55.9804C100.767 55.9478 121.092 50.5606 121.646 50.5165C122.06 50.4977 122.474 50.5392 122.876 50.6395C123.649 50.839 124.344 51.2658 124.871 51.8648C125.124 52.144 125.332 52.4605 125.489 52.803C125.715 53.2601 125.62 53.0464 128.915 64.8434C131.961 75.5188 132.338 75.3662 131.943 77.1596C131.746 78.0372 131.33 78.8506 130.734 79.5241C130.39 79.9109 130.021 80.2738 129.628 80.6101C129.082 81.0836 129.06 81.3434 129.141 81.6207C129.216 81.8793 129.328 82.166 130.248 82.0686C130.956 81.9544 131.628 81.6767 132.211 81.2577C133.362 80.4632 134.232 79.3241 134.694 78.0041C135.577 75.5936 135.209 74.517 132.539 63.8704C129.408 51.6721 129.55 52.0203 129.131 51.1274Z" fill="#31394D"/>
<path d="M111.817 98.7251C96.9574 102.707 65.3022 112.132 65.5933 113.218C65.8845 114.305 98.0113 106.64 112.871 102.658C139.99 95.3915 140.322 94.3598 140.03 93.2731C139.739 92.1864 138.937 91.4585 111.817 98.7251Z" fill="#31394D"/>
<path d="M115.459 112.319C100.599 116.301 68.9441 125.727 69.2353 126.813C69.5264 127.9 101.653 120.235 116.513 116.253C143.632 108.986 143.963 107.954 143.672 106.868C143.381 105.782 142.578 105.052 115.459 112.319Z" fill="#31394D"/>
<path d="M119.102 125.913C104.243 129.894 72.5876 139.321 72.8786 140.406C73.1695 141.492 105.297 133.828 120.156 129.846C147.276 122.579 147.607 121.548 147.316 120.461C147.025 119.374 146.222 118.646 119.102 125.913Z" fill="#31394D"/>
<path d="M108.989 142.374C98.8215 145.098 77.2361 151.826 77.527 152.912C77.8179 153.998 99.8754 149.032 110.043 146.307C128.6 141.335 128.752 140.351 128.461 139.264C128.17 138.178 127.546 137.402 108.989 142.374Z" fill="#31394D"/>
</svg>
