<svg width="125" height="107" viewBox="0 0 125 107" fill="none" xmlns="http://www.w3.org/2000/svg">
<path d="M47.7818 4.00657L38.764 7.56286C28.3973 11.6511 19.6115 18.9505 13.6926 28.3925L3.19822 45.1336L8.61079 48.792C15.5744 53.4989 20.4034 60.7596 22.0518 69.0015L24.4468 80.9765C24.9084 83.2848 26.4283 85.2417 28.5504 86.2603C32.8986 88.3475 38.0573 85.8409 39.1036 81.1325L42.7576 64.6895L43.2043 61.2654C44.7461 49.4449 50.8239 38.6872 60.153 31.2663L62.3478 29.5204C65.1021 27.3296 68.2195 25.6392 71.5583 24.5263L83.6508 20.4954C85.4134 19.9079 86.7769 18.4949 87.3011 16.7124C88.1606 13.7901 86.5601 10.7103 83.6745 9.73431L65.4477 3.56938C59.6925 1.62274 53.4337 1.77763 47.7818 4.00657Z" fill="#FBE4E4"/>
<path fill-rule="evenodd" clip-rule="evenodd" d="M94.9446 38.214C93.3073 37.7235 91.6151 37.404 89.8947 37.2658C75.6264 35.7864 60.1818 41.534 53.0044 54.1529C47.9344 63.0434 43.6141 85.8962 57.8216 93.1619C66.8157 97.7226 78.8141 94.2518 88.4676 90.2412C92.1243 88.7917 95.6083 86.9398 98.8555 84.7199C100.287 83.6576 100.267 83.3669 100.134 83.1379C100.002 82.9089 99.761 82.7579 98.1306 83.4002C97.5725 83.6042 96.859 83.9124 95.9253 84.3158L95.925 84.3159C94.1055 85.1019 91.4499 86.249 87.4785 87.69C40.9129 104.167 51.5146 64.4914 56.3461 56.0636C62.8013 44.7806 76.8692 39.7884 89.5061 41.0369C93.5226 41.3188 97.3708 42.7614 100.583 45.1891C118.731 59.4632 93.0454 81.6396 79.2341 76.164C77.298 75.4454 75.5742 74.2504 74.2222 72.6893C72.8702 71.1282 71.9336 69.2514 71.499 67.2325C71.1818 65.2755 71.4436 63.2686 72.2524 61.4585C73.09 59.6375 74.2785 57.9996 75.7499 56.6384C78.9652 53.503 85.9317 49.2064 90.8639 49.8107C92.4537 50.0181 93.9347 50.7311 95.0882 51.8448C98.4346 55.0477 98.1144 60.1368 89.8947 64.0343C88.1411 64.9197 86.2621 65.5308 84.3231 65.8462C83.1085 66.0316 81.8671 65.9219 80.704 65.5261C80.3329 65.3862 80.0517 65.2536 79.8524 65.1597C79.6266 65.0533 79.506 64.9964 79.4792 65.0348C79.4507 65.068 79.7519 65.4444 80.5425 65.8901C81.7341 66.4824 83.0653 66.737 84.3915 66.6263C86.4508 66.4472 88.4663 65.9287 90.3565 65.0919C99.6679 61.2504 100.552 54.7731 96.3861 50.5383C94.9749 49.09 93.1324 48.138 91.1346 47.8248C83.3092 46.6371 67.0095 55.9268 68.7986 67.6734C69.2188 70.1915 70.3203 72.5464 71.9836 74.4831C73.6432 76.4533 75.7604 77.9865 78.15 78.9487C81.7311 80.4253 87.0965 80.6525 93.1357 78.1526C95.4527 77.1897 97.6564 75.9739 99.7069 74.5276C108.216 68.5758 111.345 60.765 110.031 53.723L94.9446 38.214ZM121.676 65.6953C121.572 68.1351 121.314 70.5796 120.918 73.0038C120.771 73.9539 120.633 74.7559 120.496 75.4267C120.423 75.7833 120.371 76.1098 120.324 76.4034C120.282 76.6621 120.245 76.8952 120.201 77.1008C119.873 78.8918 120.071 79.1104 120.324 79.1969C120.577 79.2833 120.857 79.2415 121.643 77.536C121.819 77.1768 121.98 76.7304 122.172 76.1953C122.206 76.1005 122.241 76.003 122.277 75.9027C122.519 75.2357 122.777 74.432 123.032 73.4628C123.498 71.7578 123.865 70.0044 124.132 68.2193L121.676 65.6953ZM85.5508 9.3385C82.6761 7.70451 79.693 6.25853 76.62 5.01157C45.7555 -7.30326 17.9723 7.15589 5.54917 32.9979C2.36321 39.7385 0.502068 47.0285 0.0668745 54.4713C-0.693241 70.2561 4.75298 85.6816 30.5361 99.5357C33.6799 101.249 36.9519 102.715 40.3226 103.922C41.497 104.378 42.7115 104.724 43.9502 104.954C44.9615 105.374 46.0118 105.692 47.0857 105.905C49.6022 106.363 52.1659 106.509 54.7182 106.338C56.5646 106.248 58.3653 106.085 60.1354 105.926L60.1367 105.926C60.7345 105.872 61.3289 105.818 61.9203 105.768C64.9723 105.506 67.9967 105.31 70.9713 105.118L70.9717 105.118H70.9718C77.1021 104.72 83.0211 104.337 88.5348 103.42C92.4322 102.823 96.264 101.857 99.9784 100.534C103.238 99.3733 106.318 97.7604 109.129 95.7427C111.447 94.0742 113.505 92.0725 115.238 89.8025C116.531 88.0972 117.643 86.2623 118.557 84.3276C119.138 83.1158 119.626 81.8618 120.017 80.5764C120.202 80.1418 120.307 79.6774 120.326 79.2055C120.262 79.1836 120.03 79.6092 119.648 80.4349C119.283 81.2663 118.691 82.4701 117.865 83.9694C115.55 88.1963 112.26 91.81 108.268 94.5103C103.262 97.9422 96.2348 100.233 88.2203 101.28C82.9472 102.024 77.2633 102.276 71.2906 102.542C68.1705 102.68 64.9716 102.822 61.7113 103.04C60.9298 103.088 60.1449 103.146 59.359 103.203H59.3589C55.4044 103.492 51.4232 103.782 47.7138 102.987C45.5283 102.538 43.4912 101.545 41.7906 100.101C40.0761 98.5753 38.6771 96.7287 37.6726 94.6653C36.5589 92.5593 35.6895 90.3328 35.0816 88.0293C34.4418 85.7174 34.0125 83.3526 33.7989 80.9633C33.3862 76.1907 33.6172 71.3841 34.4858 66.6731C36.1254 57.685 39.5451 49.1152 44.5441 41.4676C46.7759 38.0334 49.3729 34.8509 52.2896 31.9756C59.0951 25.2179 68.1709 21.233 77.7516 20.7961C80.7607 20.6264 83.7732 20.7706 86.7412 21.2229L86.2793 17.2965C83.3883 16.9106 80.4619 16.7945 77.5378 16.9529C67.0236 17.4116 57.0605 21.7831 49.6036 29.2096C46.4949 32.2912 43.7337 35.7047 41.3696 39.3887C36.1406 47.4867 32.6039 56.5589 30.9722 66.0593C30.0983 71.0896 29.9103 76.215 30.4135 81.2957C30.6765 83.878 31.1733 86.4311 31.8977 88.9236C32.6003 91.4446 33.5885 93.8771 34.8431 96.174C36.067 98.5757 37.7497 100.714 39.7962 102.469C40.1955 102.799 40.6116 103.108 41.0428 103.395C37.6938 101.857 34.4343 100.131 31.28 98.2246C6.02899 82.9349 2.30636 68.8554 3.26886 54.6546C3.8151 47.6663 5.67712 40.8444 8.75689 34.5477C20.4057 11.1742 45.7298 -2.93179 75.3183 8.32362C78.9258 9.74262 82.4299 11.4013 85.8076 13.287L85.627 11.7522C85.5312 10.9381 85.5075 10.1314 85.5508 9.3385Z" fill="#31394D"/>
</svg>
