<svg width="119" height="148" viewBox="0 0 119 148" fill="none" xmlns="http://www.w3.org/2000/svg">
<path d="M9.97648 29.9728L13.6005 35.975C20.7281 47.7801 33.2544 55.2734 47.0268 55.9707L52.0747 56.2263C56.93 56.4722 59.8211 50.8922 56.8202 47.0675L41.9763 28.1488C40.0278 25.6654 37.4491 23.7497 34.5088 22.6011L20.7218 17.2155C14.517 14.7918 7.97109 19.867 8.77267 26.48C8.92252 27.7162 9.33281 28.9067 9.97648 29.9728Z" fill="#FFF1E2"/>
<path d="M90.3305 48.2577C89.0405 38.6297 87.1085 26.7767 79.8635 21.0267C73.6385 15.9267 64.3815 17.2767 58.4835 22.9427C58.0835 23.3237 57.7125 23.7257 57.3495 24.1357C55.8761 23.195 54.2819 22.4587 52.6105 21.9467C41.2105 18.3697 26.0045 28.5287 25.1455 52.9207C24.4665 52.8067 23.7855 52.7037 23.1085 52.5817C21.4166 52.2503 19.7044 52.0321 17.9835 51.9287C16.0776 51.7981 14.1662 52.0862 12.3835 52.7727C10.5448 53.6034 9.01042 54.9861 7.99348 56.7287C7.08271 58.2678 6.39295 59.9274 5.94447 61.6587C5.06044 64.8749 4.53492 68.179 4.37749 71.5107C3.23849 91.1447 6.34247 57.0957 0.0944654 130.56C-0.720535 141.594 3.66448 147.331 16.1145 147.825C21.5595 148.053 54.0625 146.669 71.9725 145.53C91.5725 144.278 104.782 143.036 113.698 142.098L117.698 141.673L118.298 141.604C118.437 141.634 118.384 141.47 118.408 141.385L118.435 141.085C118.468 140.69 118.501 140.301 118.535 139.918C118.557 139.55 118.579 139.187 118.6 138.83L118.615 138.565V138.039C118.607 136.47 118.473 134.905 118.215 133.358C117.913 131.492 117.475 129.65 116.905 127.848C116.151 125.524 115.842 125.417 115.57 125.476C115.298 125.535 115.082 125.776 115.355 128.176C115.478 129.376 115.755 131.117 115.955 133.626C116.078 135.071 116.103 136.524 116.03 137.973L116.013 138.284L116.004 138.434L115.995 138.502L115.96 138.771L115.918 139.004C115.904 139.034 115.918 139.096 115.881 139.104H115.752H115.499C115.382 139.104 115.432 139.098 115.088 139.122L113.463 139.222C107.243 139.622 98.9405 140.196 87.8705 140.862C88.0705 140.539 88.2705 140.187 88.4705 139.774C91.7565 133.074 91.0035 119.416 90.5215 110.101C89.4815 88.5667 85.0825 66.0227 81.8845 56.1307C83.1955 55.8987 88.1285 54.9557 90.2085 54.5587C96.2765 53.7927 99.1705 58.0077 101.142 63.8247C103.794 71.9247 102.305 74.4857 113.607 118.635C114.174 120.849 114.629 122.565 114.961 123.724C115.078 124.331 115.282 124.919 115.567 125.468C115.591 124.849 115.524 124.231 115.367 123.632C115.167 122.444 114.845 120.698 114.408 118.454C102.322 56.4877 104.593 66.7677 103.462 63.0797C101.269 56.3047 97.7225 51.3247 90.5345 51.7957C90.5954 50.6124 90.527 49.4261 90.3305 48.2577ZM66.4305 54.9847C62.1305 55.2847 57.7655 55.4117 53.3805 55.3847C53.3045 54.3137 53.1415 52.7027 53.0005 50.6437C52.5255 42.9347 53.3645 35.8507 57.6155 29.4437C57.8215 29.6327 58.0245 29.8227 58.2155 30.0137C64.8595 36.5697 66.4815 45.6987 66.4365 54.9847H66.4305ZM51.4395 25.7617C52.6701 26.1634 53.8459 26.717 54.9395 27.4097C51.3635 33.2607 49.5865 41.1657 51.4325 50.8547C51.7222 52.3895 52.111 53.904 52.5965 55.3887C44.1065 55.309 35.6341 54.6014 27.2485 53.2717C29.4305 33.4377 40.7305 22.2677 51.4455 25.7617H51.4395ZM86.4395 110.31C87.1465 123.94 87.3935 133.076 85.7755 138.729C85.4685 139.736 85.2065 140.475 85.0085 141.039C80.9475 141.278 76.5405 141.528 71.7465 141.783C62.8375 142.256 22.4675 144.054 16.2565 143.776C5.91648 143.36 3.49347 139.306 4.14747 130.868C10.3645 55.4507 7.48747 69.9387 9.54747 62.6787C10.3175 59.7537 11.6225 57.0867 13.8315 56.1427C15.1121 55.662 16.4807 55.4608 17.8455 55.5527C19.4003 55.6362 20.9479 55.8216 22.4785 56.1077C23.3515 56.2567 24.2285 56.3827 25.1045 56.5187C25.1155 57.4597 25.1365 58.3677 25.1645 59.1947C25.2339 61.3889 25.4218 63.5778 25.7275 65.7517C25.6015 65.7907 25.4745 65.8257 25.3495 65.8737C23.9736 66.3965 22.8595 67.4412 22.2495 68.7807C20.5625 72.6227 22.2495 79.8397 26.3865 80.5907C26.7355 80.7026 27.1076 80.7212 27.466 80.6448C27.8245 80.5683 28.1566 80.3993 28.4295 80.1547C28.5153 80.0366 28.5686 79.8981 28.5841 79.753C28.5995 79.6078 28.5765 79.4611 28.5175 79.3277C28.3265 78.5877 28.0175 78.4887 27.3875 77.8897C25.6005 76.0897 25.2615 71.9127 25.9375 70.5087C26.1031 70.1055 26.4124 69.778 26.8055 69.5897C27.3923 69.353 28.0442 69.3328 28.6445 69.5327C29.4266 69.7901 30.1119 70.2795 30.6091 70.9357C31.1064 71.592 31.3922 72.3841 31.4285 73.2067C31.5665 74.7987 31.0799 76.382 30.0715 77.6217C29.2615 78.6077 28.4315 79.0217 28.5175 79.3277C28.5555 79.5577 29.6225 79.7047 31.0885 78.8377C32.6203 77.7815 33.7047 76.1936 34.1313 74.3825C34.5578 72.5714 34.2959 70.6665 33.3965 69.0377C32.6175 67.6765 31.407 66.6138 29.9565 66.0177C28.8047 65.5431 27.5426 65.4021 26.3145 65.6107C26.4565 64.3677 26.5795 62.1397 26.7525 59.2107C26.8045 58.4597 26.8625 57.6447 26.9265 56.8027C39.9801 58.72 53.2092 59.1481 66.3595 58.0787C66.3175 59.1067 66.2705 60.0197 66.2435 60.8007C66.0525 64.0007 66.1335 65.2777 66.3675 65.8107C65.0608 65.3825 63.6483 65.4043 62.3555 65.8727C60.9792 66.3949 59.8649 67.4397 59.2555 68.7797C57.5685 72.6217 59.2495 79.8387 63.3925 80.5897C63.7412 80.7021 64.1134 80.721 64.4717 80.6445C64.8301 80.568 65.162 80.3988 65.4345 80.1537C65.5207 80.0358 65.5743 79.8973 65.5899 79.7521C65.6055 79.6069 65.5826 79.4602 65.5235 79.3267C65.4646 79.0555 65.3391 78.8033 65.1585 78.5927C64.9665 78.3777 64.7155 78.1927 64.3925 77.8927C62.6065 76.0927 62.2665 71.9157 62.9425 70.5117C63.1088 70.1086 63.4183 69.7813 63.8115 69.5927C64.3979 69.356 65.0495 69.3358 65.6495 69.5357C66.4317 69.7931 67.1171 70.2824 67.6145 70.9387C68.112 71.5949 68.398 72.387 68.4345 73.2097C68.5721 74.8017 68.0855 76.3848 67.0775 77.6247C66.2675 78.6107 65.4375 79.0247 65.5235 79.3307C65.5615 79.5607 66.6235 79.7077 68.0935 78.8407C69.6244 77.7837 70.7082 76.196 71.1348 74.3853C71.5614 72.5745 71.3005 70.6699 70.4025 69.0407C69.6808 67.7918 68.5922 66.7953 67.2845 66.1867C67.7395 65.9947 68.2985 65.0487 69.1055 61.1517C69.2735 60.2137 69.4665 59.0997 69.6325 57.7817C73.4495 57.4037 77.2185 56.9177 80.9105 56.3067C81.3105 59.8987 82.4625 67.0657 83.4765 75.3717C85.0005 87.5887 85.8685 98.3657 86.4455 110.31H86.4395ZM69.9225 54.6987C70.5615 44.4127 68.3645 34.3237 61.0735 27.1097C60.7895 26.8287 60.4875 26.5487 60.1735 26.2697C64.9025 21.5767 72.2735 20.1177 77.3405 24.2217C83.9565 29.5117 85.0745 41.2097 87.5215 48.8837C87.8256 49.9626 88.2224 51.0132 88.7075 52.0237L88.6355 52.0347C82.4494 53.2537 76.2029 54.1429 69.9225 54.6987Z" fill="#31394D"/>
<mask id="path-3-outside-1" maskUnits="userSpaceOnUse" x="-0.414062" y="0" width="66" height="58" fill="black">
<rect fill="white" x="-0.414062" width="66" height="58"/>
<path fill-rule="evenodd" clip-rule="evenodd" d="M63.9557 55.9012C61.2605 51.4564 58.4431 47.0806 55.3713 42.8869C54.8547 42.1809 54.3387 41.4739 53.8225 40.7665C46.281 30.4325 38.6965 20.0394 28.5379 12.0914C23.5275 8.17099 18.1089 4.28549 12.0758 2.1052C9.50939 1.17859 6.6045 0.51102 3.93738 1.46256C1.20274 2.44205 0.445091 5.2855 0.60654 7.93094C0.781973 10.8598 1.71687 13.703 2.69597 16.4464C3.81708 19.5762 5.17761 22.5884 6.69084 25.5455C9.86015 31.7268 13.308 37.8055 16.8081 43.8025C18.4468 46.6088 20.1376 49.3836 21.8285 52.1588C22.2244 52.8086 22.6203 53.4584 23.0156 54.1086L24.929 54.4275C24.8157 54.2386 24.7025 54.0497 24.5892 53.8608C24.0522 52.9651 23.515 52.0693 22.9785 51.1727C19.6365 45.598 16.3805 39.9786 13.2515 34.2853C12.8184 33.4973 12.3816 32.7101 11.9445 31.9223C9.26077 27.0854 6.56437 22.2257 4.62748 17.04C3.54877 14.1508 2.47206 11.1157 2.33129 8.00275C2.27387 6.80259 2.36436 5.25543 3.11991 4.25915C4.10082 2.96348 6.04089 2.86364 7.52973 2.97366C10.3486 3.18668 13.1283 4.58677 15.5951 5.86694C18.4035 7.31689 21.0399 9.05973 23.5964 10.9095C26.2557 12.8346 28.7771 14.8773 31.1873 17.0388C30.1487 16.4405 29.0713 15.92 27.9305 15.5337C26.424 15.0252 24.8747 14.6827 23.2912 14.5154C23.2622 14.5124 23.2333 14.5094 23.2042 14.5063C21.8406 14.3632 20.3203 14.2036 18.9835 14.5901C18.021 14.8702 17.1441 15.512 17.2495 16.6259C17.3645 17.8241 18.8955 18.979 19.8766 19.4775C22.182 20.6455 24.8818 21.0991 27.467 21.5333C28.0325 21.6283 28.5926 21.7224 29.1418 21.8228C29.2541 21.8433 29.3666 21.8638 29.4792 21.8843C31.1893 22.1951 32.9187 22.5095 34.5362 23.1573C35.9507 23.7232 37.294 24.4401 38.6377 25.1571C38.9811 25.3403 39.3245 25.5236 39.6692 25.7044C40.8304 27.0285 41.9597 28.3732 43.0752 29.7307C43.0344 29.7108 42.9934 29.6908 42.9524 29.6708C42.7024 29.5489 42.4491 29.4254 42.1922 29.3116C40.3292 28.4691 38.4028 27.7608 36.4286 27.2316C34.4108 26.6916 32.3445 26.3483 30.2685 26.124C28.5136 25.9359 26.6129 25.7458 24.9493 26.4898C23.6644 27.065 22.6616 28.3552 22.9858 29.8191C23.3359 31.3946 24.7113 32.4718 26.0777 33.1509C29.4939 34.8487 33.329 35.8668 37.1551 35.5896C37.2637 35.5818 37.3728 35.5739 37.4821 35.566C39.5639 35.415 41.7675 35.2552 43.7895 35.8652C46.1443 36.5792 48.7156 37.5944 50.4468 39.421C50.4805 39.4578 50.5104 39.4813 50.5491 39.5051C51.6688 41.0425 52.7977 42.5715 53.9267 44.1006L53.9297 44.1047C53.807 44.0521 53.6843 44.0001 53.5619 43.9483C53.2257 43.8059 52.892 43.6646 52.5682 43.5142C50.6536 42.6074 48.4627 42.0069 46.4079 41.4437C46.2979 41.4136 46.1882 41.3835 46.079 41.3535C42.0799 40.2487 37.6362 39.6014 33.6061 40.8949C32.0684 41.3881 30.7136 42.6452 30.8707 44.3889C30.997 45.8307 32.4078 46.7063 33.6187 47.2061C34.2988 47.4849 35.0056 47.6218 35.7173 47.7595C35.9413 47.8029 36.1658 47.8463 36.3901 47.8943C36.9014 48.0072 37.4069 48.1397 37.9128 48.2724C38.5716 48.4452 39.2312 48.6182 39.9054 48.748C41.3664 49.0298 42.8483 49.1468 44.3309 49.2639C45.0806 49.3231 45.8304 49.3823 46.5778 49.4628C49.2391 49.744 51.8932 50.184 54.4109 51.1129C54.5233 51.1546 54.6359 51.1962 54.7485 51.2378C55.8948 51.6615 57.0474 52.0875 58.1156 52.682C58.9853 53.166 59.8245 53.7241 60.6567 54.2775C60.8316 54.3938 61.0062 54.5098 61.1807 54.625C61.2301 54.7067 61.2806 54.7874 61.3312 54.8681C61.3818 54.9487 61.4323 55.0294 61.4818 55.1111C61.6669 55.4177 61.8519 55.7245 62.0367 56.0313L63.9557 55.9012ZM55.4492 56.4779C55.3988 56.4644 55.3484 56.4509 55.298 56.4375C51.428 55.4091 46.8823 54.7706 42.9281 55.6475C41.9798 55.856 41.1 56.3262 40.6581 57.049L42.4991 57.3559L42.7261 57.3405C43.3548 57.0546 44.27 56.9942 44.9732 56.9477C45.0794 56.9407 45.1808 56.934 45.2756 56.9269C46.2645 56.8513 47.2624 56.8689 48.2558 56.8907C48.4907 56.8961 48.7251 56.9053 48.959 56.9179L55.4492 56.4779ZM53.9513 45.0815C53.8909 45.0585 53.8305 45.0356 53.7703 45.0125C53.329 44.8434 52.9045 44.6426 52.4796 44.4416C51.9379 44.1853 51.3957 43.9288 50.8172 43.7373C48.7531 43.045 46.6448 42.3508 44.5122 41.9074C42.581 41.5083 40.6071 41.1735 38.6257 41.2096C36.8874 41.2433 34.2278 41.4261 32.8205 42.5704C30.6387 44.3388 33.1877 46.0602 34.9045 46.5117C36.7785 47.0056 38.7699 47.4428 40.6836 47.7395C42.2924 47.9914 43.9104 48.1187 45.5276 48.246C47.8633 48.4298 50.1973 48.6135 52.4992 49.1722C54.9738 49.7766 57.383 50.6609 59.5203 51.9972C58.0537 49.7846 56.5096 47.626 54.9471 45.4843C54.6172 45.3351 54.2832 45.2079 53.9513 45.0815ZM42.7299 34.6429C44.5918 34.9108 46.6843 35.6618 48.503 36.7056C47.2056 34.9645 45.8856 33.2357 44.5417 31.5455C43.5192 31.0363 42.4447 30.6117 41.4064 30.2014C41.2284 30.1311 41.0515 30.0612 40.8762 29.9914C39.0046 29.2413 37.0689 28.6431 35.0947 28.2155C33.2869 27.8218 31.4496 27.5992 29.6129 27.4605C29.5791 27.458 29.5443 27.4553 29.5087 27.4526C28.0507 27.3416 25.1347 27.1196 24.5625 28.8414C24.0158 30.5099 26.5963 31.6183 27.7381 32.0798C29.3098 32.7149 30.9357 33.2243 32.5747 33.637C34.5065 34.1204 36.5227 34.2156 38.537 34.3108C39.9455 34.3773 41.3529 34.4438 42.7299 34.6429ZM31.0525 20.9881C33.1463 21.4077 35.3082 22.0866 37.2939 23.0539C36.1258 21.7869 34.9205 20.5625 33.6959 19.3726C31.3373 18.0442 28.9517 16.8251 26.264 16.145C24.5682 15.7165 22.7826 15.5226 21.0275 15.5378L21.0032 15.5381C20.1333 15.5491 17.9852 15.5761 18.8474 17.0677C19.3155 17.8751 20.3005 18.3871 21.1303 18.711C23.4804 19.6338 25.9962 20.0769 28.4925 20.5166C29.3506 20.6677 30.2065 20.8184 31.0525 20.9881Z"/>
</mask>
<path fill-rule="evenodd" clip-rule="evenodd" d="M63.9557 55.9012C61.2605 51.4564 58.4431 47.0806 55.3713 42.8869C54.8547 42.1809 54.3387 41.4739 53.8225 40.7665C46.281 30.4325 38.6965 20.0394 28.5379 12.0914C23.5275 8.17099 18.1089 4.28549 12.0758 2.1052C9.50939 1.17859 6.6045 0.51102 3.93738 1.46256C1.20274 2.44205 0.445091 5.2855 0.60654 7.93094C0.781973 10.8598 1.71687 13.703 2.69597 16.4464C3.81708 19.5762 5.17761 22.5884 6.69084 25.5455C9.86015 31.7268 13.308 37.8055 16.8081 43.8025C18.4468 46.6088 20.1376 49.3836 21.8285 52.1588C22.2244 52.8086 22.6203 53.4584 23.0156 54.1086L24.929 54.4275C24.8157 54.2386 24.7025 54.0497 24.5892 53.8608C24.0522 52.9651 23.515 52.0693 22.9785 51.1727C19.6365 45.598 16.3805 39.9786 13.2515 34.2853C12.8184 33.4973 12.3816 32.7101 11.9445 31.9223C9.26077 27.0854 6.56437 22.2257 4.62748 17.04C3.54877 14.1508 2.47206 11.1157 2.33129 8.00275C2.27387 6.80259 2.36436 5.25543 3.11991 4.25915C4.10082 2.96348 6.04089 2.86364 7.52973 2.97366C10.3486 3.18668 13.1283 4.58677 15.5951 5.86694C18.4035 7.31689 21.0399 9.05973 23.5964 10.9095C26.2557 12.8346 28.7771 14.8773 31.1873 17.0388C30.1487 16.4405 29.0713 15.92 27.9305 15.5337C26.424 15.0252 24.8747 14.6827 23.2912 14.5154C23.2622 14.5124 23.2333 14.5094 23.2042 14.5063C21.8406 14.3632 20.3203 14.2036 18.9835 14.5901C18.021 14.8702 17.1441 15.512 17.2495 16.6259C17.3645 17.8241 18.8955 18.979 19.8766 19.4775C22.182 20.6455 24.8818 21.0991 27.467 21.5333C28.0325 21.6283 28.5926 21.7224 29.1418 21.8228C29.2541 21.8433 29.3666 21.8638 29.4792 21.8843C31.1893 22.1951 32.9187 22.5095 34.5362 23.1573C35.9507 23.7232 37.294 24.4401 38.6377 25.1571C38.9811 25.3403 39.3245 25.5236 39.6692 25.7044C40.8304 27.0285 41.9597 28.3732 43.0752 29.7307C43.0344 29.7108 42.9934 29.6908 42.9524 29.6708C42.7024 29.5489 42.4491 29.4254 42.1922 29.3116C40.3292 28.4691 38.4028 27.7608 36.4286 27.2316C34.4108 26.6916 32.3445 26.3483 30.2685 26.124C28.5136 25.9359 26.6129 25.7458 24.9493 26.4898C23.6644 27.065 22.6616 28.3552 22.9858 29.8191C23.3359 31.3946 24.7113 32.4718 26.0777 33.1509C29.4939 34.8487 33.329 35.8668 37.1551 35.5896C37.2637 35.5818 37.3728 35.5739 37.4821 35.566C39.5639 35.415 41.7675 35.2552 43.7895 35.8652C46.1443 36.5792 48.7156 37.5944 50.4468 39.421C50.4805 39.4578 50.5104 39.4813 50.5491 39.5051C51.6688 41.0425 52.7977 42.5715 53.9267 44.1006L53.9297 44.1047C53.807 44.0521 53.6843 44.0001 53.5619 43.9483C53.2257 43.8059 52.892 43.6646 52.5682 43.5142C50.6536 42.6074 48.4627 42.0069 46.4079 41.4437C46.2979 41.4136 46.1882 41.3835 46.079 41.3535C42.0799 40.2487 37.6362 39.6014 33.6061 40.8949C32.0684 41.3881 30.7136 42.6452 30.8707 44.3889C30.997 45.8307 32.4078 46.7063 33.6187 47.2061C34.2988 47.4849 35.0056 47.6218 35.7173 47.7595C35.9413 47.8029 36.1658 47.8463 36.3901 47.8943C36.9014 48.0072 37.4069 48.1397 37.9128 48.2724C38.5716 48.4452 39.2312 48.6182 39.9054 48.748C41.3664 49.0298 42.8483 49.1468 44.3309 49.2639C45.0806 49.3231 45.8304 49.3823 46.5778 49.4628C49.2391 49.744 51.8932 50.184 54.4109 51.1129C54.5233 51.1546 54.6359 51.1962 54.7485 51.2378C55.8948 51.6615 57.0474 52.0875 58.1156 52.682C58.9853 53.166 59.8245 53.7241 60.6567 54.2775C60.8316 54.3938 61.0062 54.5098 61.1807 54.625C61.2301 54.7067 61.2806 54.7874 61.3312 54.8681C61.3818 54.9487 61.4323 55.0294 61.4818 55.1111C61.6669 55.4177 61.8519 55.7245 62.0367 56.0313L63.9557 55.9012ZM55.4492 56.4779C55.3988 56.4644 55.3484 56.4509 55.298 56.4375C51.428 55.4091 46.8823 54.7706 42.9281 55.6475C41.9798 55.856 41.1 56.3262 40.6581 57.049L42.4991 57.3559L42.7261 57.3405C43.3548 57.0546 44.27 56.9942 44.9732 56.9477C45.0794 56.9407 45.1808 56.934 45.2756 56.9269C46.2645 56.8513 47.2624 56.8689 48.2558 56.8907C48.4907 56.8961 48.7251 56.9053 48.959 56.9179L55.4492 56.4779ZM53.9513 45.0815C53.8909 45.0585 53.8305 45.0356 53.7703 45.0125C53.329 44.8434 52.9045 44.6426 52.4796 44.4416C51.9379 44.1853 51.3957 43.9288 50.8172 43.7373C48.7531 43.045 46.6448 42.3508 44.5122 41.9074C42.581 41.5083 40.6071 41.1735 38.6257 41.2096C36.8874 41.2433 34.2278 41.4261 32.8205 42.5704C30.6387 44.3388 33.1877 46.0602 34.9045 46.5117C36.7785 47.0056 38.7699 47.4428 40.6836 47.7395C42.2924 47.9914 43.9104 48.1187 45.5276 48.246C47.8633 48.4298 50.1973 48.6135 52.4992 49.1722C54.9738 49.7766 57.383 50.6609 59.5203 51.9972C58.0537 49.7846 56.5096 47.626 54.9471 45.4843C54.6172 45.3351 54.2832 45.2079 53.9513 45.0815ZM42.7299 34.6429C44.5918 34.9108 46.6843 35.6618 48.503 36.7056C47.2056 34.9645 45.8856 33.2357 44.5417 31.5455C43.5192 31.0363 42.4447 30.6117 41.4064 30.2014C41.2284 30.1311 41.0515 30.0612 40.8762 29.9914C39.0046 29.2413 37.0689 28.6431 35.0947 28.2155C33.2869 27.8218 31.4496 27.5992 29.6129 27.4605C29.5791 27.458 29.5443 27.4553 29.5087 27.4526C28.0507 27.3416 25.1347 27.1196 24.5625 28.8414C24.0158 30.5099 26.5963 31.6183 27.7381 32.0798C29.3098 32.7149 30.9357 33.2243 32.5747 33.637C34.5065 34.1204 36.5227 34.2156 38.537 34.3108C39.9455 34.3773 41.3529 34.4438 42.7299 34.6429ZM31.0525 20.9881C33.1463 21.4077 35.3082 22.0866 37.2939 23.0539C36.1258 21.7869 34.9205 20.5625 33.6959 19.3726C31.3373 18.0442 28.9517 16.8251 26.264 16.145C24.5682 15.7165 22.7826 15.5226 21.0275 15.5378L21.0032 15.5381C20.1333 15.5491 17.9852 15.5761 18.8474 17.0677C19.3155 17.8751 20.3005 18.3871 21.1303 18.711C23.4804 19.6338 25.9962 20.0769 28.4925 20.5166C29.3506 20.6677 30.2065 20.8184 31.0525 20.9881Z" fill="#31394D"/>
<path d="M63.9557 55.9012L63.9895 56.4001L64.8092 56.3445L64.3832 55.642L63.9557 55.9012ZM55.3713 42.8869L54.9677 43.1821L54.9679 43.1823L55.3713 42.8869ZM53.8225 40.7665L53.4186 41.0613L53.8225 40.7665ZM28.5379 12.0914L28.2298 12.4852L28.2298 12.4852L28.5379 12.0914ZM12.0758 2.1052L12.2457 1.63496L12.2456 1.63492L12.0758 2.1052ZM3.93738 1.46256L3.76937 0.991632L3.76878 0.991843L3.93738 1.46256ZM0.60654 7.93094L1.10565 7.90105L1.10561 7.90048L0.60654 7.93094ZM2.69597 16.4464L2.22506 16.6145L2.22526 16.615L2.69597 16.4464ZM6.69084 25.5455L6.24573 25.7733L6.24591 25.7737L6.69084 25.5455ZM16.8081 43.8025L16.3762 44.0545L16.3763 44.0546L16.8081 43.8025ZM21.8285 52.1588L22.2554 51.8986L21.8285 52.1588ZM23.0156 54.1086L22.5884 54.3684L22.7074 54.5642L22.9334 54.6018L23.0156 54.1086ZM24.929 54.4275L24.8468 54.9207L25.9143 55.0987L25.3578 54.1704L24.929 54.4275ZM24.5892 53.8608L25.018 53.6037L24.5892 53.8608ZM22.9785 51.1727L23.4076 50.9159L23.4073 50.9156L22.9785 51.1727ZM13.2515 34.2853L13.6897 34.0444L13.6897 34.0444L13.2515 34.2853ZM11.9445 31.9223L12.3817 31.6797L11.9445 31.9223ZM4.62748 17.04L4.15906 17.2149L4.15909 17.215L4.62748 17.04ZM2.33129 8.00275L2.83078 7.98016L2.83071 7.97885L2.33129 8.00275ZM3.11991 4.25915L3.5183 4.56128L3.51855 4.56095L3.11991 4.25915ZM7.52973 2.97366L7.56741 2.47508L7.56658 2.47502L7.52973 2.97366ZM15.5951 5.86694L15.3648 6.31073L15.3657 6.31122L15.5951 5.86694ZM23.5964 10.9095L23.8896 10.5045L23.8895 10.5045L23.5964 10.9095ZM31.1873 17.0388L30.9377 17.472L31.5211 16.6666L31.1873 17.0388ZM27.9305 15.5337L28.0909 15.0601L28.0905 15.06L27.9305 15.5337ZM23.2912 14.5154L23.3437 14.0182L23.3433 14.0182L23.2912 14.5154ZM23.2042 14.5063L23.152 15.0036H23.152L23.2042 14.5063ZM18.9835 14.5901L18.8446 14.1098L18.8438 14.11L18.9835 14.5901ZM17.2495 16.6259L16.7517 16.673L16.7518 16.6736L17.2495 16.6259ZM19.8766 19.4775L19.6501 19.9233L19.6507 19.9236L19.8766 19.4775ZM27.467 21.5333L27.5499 21.0402H27.5499L27.467 21.5333ZM29.1418 21.8228L29.0518 22.3147L29.0519 22.3147L29.1418 21.8228ZM29.4792 21.8843L29.3898 22.3762H29.3898L29.4792 21.8843ZM34.5362 23.1573L34.3502 23.6215L34.3504 23.6216L34.5362 23.1573ZM38.6377 25.1571L38.8731 24.716L38.6377 25.1571ZM39.6692 25.7044L40.0451 25.3747L39.9838 25.3048L39.9014 25.2616L39.6692 25.7044ZM43.0752 29.7307L42.8565 30.1803L43.4615 29.4132L43.0752 29.7307ZM42.9524 29.6708L43.1716 29.2214V29.2214L42.9524 29.6708ZM42.1922 29.3116L41.9862 29.7672L41.9896 29.7687L42.1922 29.3116ZM36.4286 27.2316L36.5581 26.7486L36.5579 26.7486L36.4286 27.2316ZM30.2685 26.124L30.3223 25.6269L30.3218 25.6268L30.2685 26.124ZM24.9493 26.4898L24.7451 26.0334L24.745 26.0335L24.9493 26.4898ZM22.9858 29.8191L22.4976 29.9272L22.4977 29.9276L22.9858 29.8191ZM26.0777 33.1509L25.8552 33.5987L26.0777 33.1509ZM37.1551 35.5896L37.1194 35.0908L37.1189 35.0909L37.1551 35.5896ZM37.4821 35.566L37.5183 36.0647L37.4821 35.566ZM43.7895 35.8652L43.9345 35.3867L43.9339 35.3865L43.7895 35.8652ZM50.4468 39.421L50.8156 39.0833L50.8097 39.077L50.4468 39.421ZM50.5491 39.5051L50.9533 39.2107L50.8951 39.1309L50.811 39.0792L50.5491 39.5051ZM53.9267 44.1006L53.5244 44.3975L53.5247 44.3979L53.9267 44.1006ZM53.9297 44.1047L53.7327 44.5643L55.4298 45.2919L54.3317 43.8074L53.9297 44.1047ZM53.5619 43.9483L53.7569 43.4879L53.5619 43.9483ZM52.5682 43.5142L52.3542 43.9661L52.3576 43.9677L52.5682 43.5142ZM46.4079 41.4437L46.5401 40.9615H46.5401L46.4079 41.4437ZM46.079 41.3535L45.9459 41.8355L45.9466 41.8357L46.079 41.3535ZM33.6061 40.8949L33.7588 41.371L33.7589 41.3709L33.6061 40.8949ZM30.8707 44.3889L31.3688 44.3453L31.3687 44.344L30.8707 44.3889ZM33.6187 47.2061L33.4279 47.6683L33.4291 47.6688L33.6187 47.2061ZM35.7173 47.7595L35.8124 47.2686H35.8124L35.7173 47.7595ZM36.3901 47.8943L36.4978 47.4061L36.4947 47.4054L36.3901 47.8943ZM37.9128 48.2724L38.0396 47.7888L37.9128 48.2724ZM39.9054 48.748L40.0001 48.257L40 48.257L39.9054 48.748ZM44.3309 49.2639L44.3702 48.7654L44.3309 49.2639ZM46.5778 49.4628L46.5243 49.96L46.5253 49.9601L46.5778 49.4628ZM54.4109 51.1129L54.585 50.6441L54.584 50.6438L54.4109 51.1129ZM54.7485 51.2378L54.5751 51.7068L54.7485 51.2378ZM58.1156 52.682L58.3588 52.2451L58.1156 52.682ZM60.6567 54.2775L60.3799 54.6938L60.6567 54.2775ZM61.1807 54.625L61.6085 54.3663L61.5502 54.2698L61.4561 54.2077L61.1807 54.625ZM61.3312 54.8681L61.7549 54.6025L61.7549 54.6025L61.3312 54.8681ZM61.4818 55.1111L61.9098 54.8527L61.9096 54.8524L61.4818 55.1111ZM62.0367 56.0313L61.6084 56.2893L61.7659 56.5508L62.0705 56.5302L62.0367 56.0313ZM55.4492 56.4779L55.483 56.9768L55.579 55.9951L55.4492 56.4779ZM55.298 56.4375L55.1696 56.9207L55.1697 56.9207L55.298 56.4375ZM42.9281 55.6475L43.0354 56.1359L43.0363 56.1357L42.9281 55.6475ZM40.6581 57.049L40.2315 56.7882L39.845 57.4204L40.5759 57.5422L40.6581 57.049ZM42.4991 57.3559L42.4169 57.8491L42.4745 57.8587L42.5329 57.8547L42.4991 57.3559ZM42.7261 57.3405L42.7599 57.8393L42.8505 57.8332L42.9331 57.7957L42.7261 57.3405ZM44.9732 56.9477L45.0062 57.4466H45.0062L44.9732 56.9477ZM45.2756 56.9269L45.313 57.4255L45.3137 57.4254L45.2756 56.9269ZM48.2558 56.8907L48.2673 56.3908L48.2668 56.3908L48.2558 56.8907ZM48.959 56.9179L48.9321 57.4172L48.9625 57.4188L48.9928 57.4168L48.959 56.9179ZM53.7703 45.0125L53.5914 45.4794H53.5914L53.7703 45.0125ZM53.9513 45.0815L53.7733 45.5488L53.9513 45.0815ZM52.4796 44.4416L52.6934 43.9896L52.4796 44.4416ZM50.8172 43.7373L50.6582 44.2114L50.66 44.212L50.8172 43.7373ZM44.5122 41.9074L44.614 41.4179L44.6134 41.4178L44.5122 41.9074ZM38.6257 41.2096L38.6166 40.7097L38.616 40.7097L38.6257 41.2096ZM32.8205 42.5704L33.1353 42.9588L33.1359 42.9583L32.8205 42.5704ZM34.9045 46.5117L35.0319 46.0282L35.0316 46.0282L34.9045 46.5117ZM40.6836 47.7395L40.761 47.2455L40.7602 47.2454L40.6836 47.7395ZM45.5276 48.246L45.4883 48.7445L45.5276 48.246ZM52.4992 49.1722L52.6179 48.6865L52.6172 48.6864L52.4992 49.1722ZM59.5203 51.9972L59.2552 52.4212L59.937 51.721L59.5203 51.9972ZM54.9471 45.4843L55.351 45.1896L55.2733 45.0831L55.1531 45.0287L54.9471 45.4843ZM48.503 36.7056L48.2542 37.1392L48.904 36.4068L48.503 36.7056ZM42.7299 34.6429L42.6583 35.1377L42.6586 35.1378L42.7299 34.6429ZM44.5417 31.5455L44.9331 31.2343L44.864 31.1475L44.7646 31.098L44.5417 31.5455ZM41.4064 30.2014L41.5901 29.7364L41.4064 30.2014ZM40.8762 29.9914L40.6902 30.4555L40.6912 30.4559L40.8762 29.9914ZM35.0947 28.2155L34.9883 28.7041L34.9889 28.7042L35.0947 28.2155ZM29.6129 27.4605L29.6505 26.962L29.6505 26.962L29.6129 27.4605ZM29.5087 27.4526L29.5466 26.9541L29.5087 27.4526ZM24.5625 28.8414L24.088 28.6838L24.0873 28.6858L24.5625 28.8414ZM27.7381 32.0798L27.5508 32.5433L27.5508 32.5433L27.7381 32.0798ZM32.5747 33.637L32.4526 34.1219L32.4533 34.1221L32.5747 33.637ZM38.537 34.3108L38.5606 33.8113L38.537 34.3108ZM37.2939 23.0539L37.075 23.5034L37.6615 22.7149L37.2939 23.0539ZM31.0525 20.9881L30.9541 21.4783L30.9542 21.4783L31.0525 20.9881ZM33.6959 19.3726L34.0443 19.014L33.9978 18.9688L33.9413 18.937L33.6959 19.3726ZM26.264 16.145L26.3866 15.6603L26.3865 15.6602L26.264 16.145ZM21.0275 15.5378L21.0231 15.0378L21.0211 15.0379L21.0275 15.5378ZM21.0032 15.5381L21.0095 16.0381H21.0096L21.0032 15.5381ZM18.8474 17.0677L18.4145 17.318L18.4149 17.3185L18.8474 17.0677ZM21.1303 18.711L21.313 18.2456L21.3121 18.2452L21.1303 18.711ZM28.4925 20.5166L28.5793 20.0241L28.4925 20.5166ZM64.3832 55.642C61.6836 51.1899 58.858 46.8008 55.7746 42.5914L54.9679 43.1823C58.0282 47.3603 60.8373 51.7228 63.5281 56.1604L64.3832 55.642ZM55.7748 42.5916C55.2584 41.8859 54.7426 41.1792 54.2264 40.4718L53.4186 41.0613C53.9348 41.7686 54.4509 42.4759 54.9677 43.1821L55.7748 42.5916ZM54.2264 40.4718C46.692 30.1474 39.0685 19.6956 28.846 11.6976L28.2298 12.4852C38.3245 20.3833 45.8701 30.7175 53.4186 41.0613L54.2264 40.4718ZM28.8461 11.6977C23.8315 7.77399 18.3595 3.84438 12.2457 1.63496L11.9058 2.57544C17.8584 4.72659 23.2235 8.56798 28.2298 12.4852L28.8461 11.6977ZM12.2456 1.63492C9.65982 0.701307 6.61056 -0.0220109 3.76937 0.991632L4.10539 1.93349C6.59843 1.04405 9.35896 1.65586 11.906 2.57549L12.2456 1.63492ZM3.76878 0.991843C0.70756 2.08831 -0.0580077 5.24997 0.107469 7.9614L1.10561 7.90048C0.94819 5.32104 1.69793 2.79579 4.10598 1.93328L3.76878 0.991843ZM0.107435 7.96084C0.287572 10.9683 1.24617 13.8716 2.22506 16.6145L3.16688 16.2784C2.18758 13.5343 1.27637 10.7514 1.10565 7.90105L0.107435 7.96084ZM2.22526 16.615C3.35528 19.7697 4.72525 22.802 6.24573 25.7733L7.13594 25.3178C5.62998 22.3748 4.27888 19.3827 3.16668 16.2778L2.22526 16.615ZM6.24591 25.7737C9.42133 31.9668 12.8744 38.0545 16.3762 44.0545L17.2399 43.5504C13.7416 37.5564 10.299 31.4867 7.13576 25.3174L6.24591 25.7737ZM16.3763 44.0546C18.0178 46.8656 19.711 49.6445 21.4015 52.4189L22.2554 51.8986C20.5642 49.1228 18.8759 46.3519 17.2398 43.5503L16.3763 44.0546ZM21.4015 52.4189C21.7974 53.0688 22.1932 53.7184 22.5884 54.3684L23.4429 53.8489C23.0474 53.1984 22.6514 52.5484 22.2554 51.8986L21.4015 52.4189ZM25.0112 53.9343L23.0978 53.6154L22.9334 54.6018L24.8468 54.9207L25.0112 53.9343ZM25.3578 54.1704C25.2446 53.9815 25.1313 53.7926 25.018 53.6037L24.1604 54.1179C24.2736 54.3068 24.3869 54.4957 24.5002 54.6846L25.3578 54.1704ZM25.018 53.6037C24.481 52.708 23.9439 51.8123 23.4076 50.9159L22.5494 51.4294C23.0861 52.3263 23.6233 53.2223 24.1604 54.1179L25.018 53.6037ZM23.4073 50.9156C20.0679 45.3451 16.8151 39.7312 13.6897 34.0444L12.8133 34.5261C15.9459 40.226 19.2052 45.8509 22.5497 51.4297L23.4073 50.9156ZM13.6897 34.0444C13.256 33.2555 12.8188 32.4674 12.3817 31.6797L11.5073 32.1649C11.9445 32.9529 12.3808 33.7392 12.8134 34.5261L13.6897 34.0444ZM12.3817 31.6797C9.69488 26.8372 7.01751 22.0099 5.09587 16.8651L4.15909 17.215C6.11123 22.4414 8.82666 27.3336 11.5073 32.1649L12.3817 31.6797ZM5.0959 16.8652C4.01483 13.9696 2.96752 11.004 2.83077 7.98016L1.8318 8.02534C1.97661 11.2275 3.0827 14.3319 4.15906 17.2149L5.0959 16.8652ZM2.83071 7.97885C2.80295 7.39844 2.812 6.75012 2.91397 6.13645C3.01654 5.51917 3.20762 4.97096 3.5183 4.56128L2.72151 3.95702C2.27665 4.54363 2.04471 5.26714 1.9275 5.97254C1.80969 6.68156 1.80221 7.40689 1.83186 8.02664L2.83071 7.97885ZM3.51855 4.56095C3.91219 4.04101 4.51593 3.73595 5.24092 3.57778C5.96695 3.41938 6.76953 3.41884 7.49289 3.4723L7.56658 2.47502C6.8011 2.41845 5.88922 2.41282 5.02777 2.60076C4.16529 2.78893 3.30854 3.18163 2.72126 3.95735L3.51855 4.56095ZM7.49206 3.47223C10.1926 3.67631 12.8829 5.02273 15.3648 6.31073L15.8254 5.42314C13.3737 4.1508 10.5047 2.69704 7.56741 2.47508L7.49206 3.47223ZM15.3657 6.31122C18.1433 7.74525 20.7572 9.47236 23.3033 11.3146L23.8895 10.5045C21.3226 8.6471 18.6637 6.88852 15.8245 5.42265L15.3657 6.31122ZM23.3032 11.3145C25.9479 13.2291 28.4559 15.2608 30.8535 17.411L31.5211 16.6666C29.0984 14.4938 26.5634 12.4401 23.8896 10.5045L23.3032 11.3145ZM31.4369 16.6056C30.3777 15.9954 29.2702 15.4594 28.0909 15.0601L27.7702 16.0073C28.8725 16.3806 29.9197 16.8856 30.9377 17.472L31.4369 16.6056ZM28.0905 15.06C26.5497 14.5399 24.9645 14.1894 23.3437 14.0182L23.2386 15.0127C24.7849 15.176 26.2982 15.5104 27.7706 16.0074L28.0905 15.06ZM23.3433 14.0182C23.3144 14.0151 23.2855 14.0121 23.2564 14.0091L23.152 15.0036C23.181 15.0066 23.2101 15.0097 23.239 15.0127L23.3433 14.0182ZM23.2564 14.0091C21.915 13.8682 20.2924 13.6911 18.8446 14.1098L19.1224 15.0705C20.3482 14.716 21.7662 14.8581 23.152 15.0036L23.2564 14.0091ZM18.8438 14.11C18.3114 14.265 17.7641 14.5298 17.358 14.9462C16.9383 15.3767 16.684 15.9573 16.7517 16.673L17.7473 16.5787C17.7096 16.1805 17.841 15.8833 18.074 15.6444C18.3207 15.3914 18.6931 15.1954 19.1232 15.0702L18.8438 14.11ZM16.7518 16.6736C16.8266 17.4534 17.3447 18.1475 17.8913 18.6742C18.4518 19.2141 19.122 19.6549 19.6501 19.9233L20.1032 19.0318C19.6501 18.8016 19.0643 18.4157 18.5852 17.954C18.0923 17.4791 17.7874 16.9966 17.7472 16.5781L16.7518 16.6736ZM19.6507 19.9236C22.0361 21.1321 24.8148 21.5948 27.3842 22.0264L27.5499 21.0402C24.9489 20.6033 22.3278 20.1589 20.1026 19.0315L19.6507 19.9236ZM27.3842 22.0264C27.9504 22.1215 28.5068 22.215 29.0518 22.3147L29.2317 21.331C28.6783 21.2298 28.1147 21.1351 27.5499 21.0402L27.3842 22.0264ZM29.0519 22.3147C29.1645 22.3353 29.2772 22.3557 29.3898 22.3762L29.5686 21.3923C29.456 21.3719 29.3437 21.3514 29.2316 21.331L29.0519 22.3147ZM29.3898 22.3762C31.1085 22.6886 32.7875 22.9955 34.3502 23.6215L34.7221 22.6932C33.0499 22.0234 31.27 21.7016 29.5686 21.3923L29.3898 22.3762ZM34.3504 23.6216C35.7352 24.1755 37.0546 24.879 38.4023 25.5982L38.8731 24.716C37.5335 24.0011 36.1661 23.2708 34.7219 22.6931L34.3504 23.6216ZM38.4023 25.5982C38.7454 25.7813 39.0905 25.9654 39.437 26.1472L39.9014 25.2616C39.5586 25.0818 39.2168 24.8994 38.8731 24.716L38.4023 25.5982ZM39.2933 26.0341C40.4499 27.3529 41.5756 28.6933 42.6889 30.0481L43.4615 29.4132C42.3438 28.0531 41.2109 26.704 40.0451 25.3747L39.2933 26.0341ZM43.2939 29.281C43.2533 29.2613 43.2126 29.2414 43.1716 29.2214L42.7333 30.1203C42.7743 30.1402 42.8154 30.1603 42.8565 30.1803L43.2939 29.281ZM43.1716 29.2214C42.9229 29.1001 42.6614 28.9726 42.3948 28.8544L41.9896 29.7687C42.2368 29.8782 42.4819 29.9977 42.7333 30.1203L43.1716 29.2214ZM42.3982 28.856C40.5133 28.0036 38.5613 27.2856 36.5581 26.7486L36.2992 27.7145C38.2442 28.2359 40.145 28.9346 41.9862 29.7671L42.3982 28.856ZM36.5579 26.7486C34.5093 26.2003 32.4167 25.8532 30.3223 25.6269L30.2148 26.6211C32.2724 26.8434 34.3124 27.1828 36.2994 27.7146L36.5579 26.7486ZM30.3218 25.6268C28.592 25.4414 26.5523 25.2252 24.7451 26.0334L25.1534 26.9463C26.6735 26.2664 28.4351 26.4304 30.2153 26.6211L30.3218 25.6268ZM24.745 26.0335C23.3309 26.6664 22.1039 28.1495 22.4976 29.9272L23.4739 29.711C23.2193 28.561 23.9978 27.4635 25.1535 26.9462L24.745 26.0335ZM22.4977 29.9276C22.8983 31.7301 24.4492 32.8999 25.8552 33.5987L26.3003 32.7032C24.9734 32.0437 23.7736 31.0591 23.4739 29.7106L22.4977 29.9276ZM25.8552 33.5987C29.3296 35.3254 33.2543 36.3735 37.1912 36.0883L37.1189 35.0909C33.4037 35.36 29.6582 34.372 26.3003 32.7032L25.8552 33.5987ZM37.1907 36.0883C37.2997 36.0805 37.409 36.0726 37.5183 36.0647L37.446 35.0673C37.3365 35.0752 37.2278 35.0831 37.1194 35.0908L37.1907 36.0883ZM37.5183 36.0647C39.6187 35.9123 41.7269 35.7652 43.645 36.3439L43.9339 35.3865C41.808 34.7452 39.5091 34.9177 37.446 35.0673L37.5183 36.0647ZM43.6444 36.3437C45.9886 37.0545 48.4489 38.0398 50.0839 39.7649L50.8097 39.077C48.9824 37.149 46.3 36.1039 43.9345 35.3867L43.6444 36.3437ZM50.078 39.7586C50.1464 39.8334 50.2134 39.8856 50.2872 39.931L50.811 39.0792C50.8056 39.0758 50.8072 39.0765 50.8115 39.08C50.8135 39.0816 50.8151 39.083 50.8161 39.084C50.8171 39.0849 50.817 39.0849 50.8156 39.0834L50.078 39.7586ZM50.1449 39.7994C51.2658 41.3384 52.3957 42.8687 53.5244 44.3975L54.3289 43.8036C53.1998 42.2743 52.0719 40.7466 50.9533 39.2107L50.1449 39.7994ZM53.5247 44.3979L53.5278 44.4021L54.3317 43.8074L54.3286 43.8032L53.5247 44.3979ZM54.1268 43.6452C54.0029 43.5921 53.8791 43.5397 53.7569 43.4879L53.3669 44.4087C53.4895 44.4606 53.6112 44.5122 53.7327 44.5643L54.1268 43.6452ZM53.7569 43.4879C53.4193 43.3449 53.0936 43.2069 52.7788 43.0607L52.3576 43.9677C52.6905 44.1223 53.0321 44.2669 53.3669 44.4087L53.7569 43.4879ZM52.7822 43.0623C50.821 42.1334 48.5861 41.5223 46.5401 40.9615L46.2757 41.9259C48.3392 42.4915 50.4863 43.0814 52.3542 43.9661L52.7822 43.0623ZM46.5401 40.9615C46.43 40.9314 46.3205 40.9013 46.2115 40.8714L45.9466 41.8357C46.056 41.8657 46.1657 41.8958 46.2757 41.9259L46.5401 40.9615ZM46.2122 40.8716C42.1849 39.759 37.6247 39.08 33.4533 40.4188L33.7589 41.3709C37.6477 40.1229 41.9748 40.7384 45.9459 41.8355L46.2122 40.8716ZM33.4533 40.4188C31.8027 40.9483 30.1858 42.3589 30.3728 44.4338L31.3687 44.344C31.2414 42.9315 32.3342 41.828 33.7588 41.371L33.4533 40.4188ZM30.3727 44.4325C30.4503 45.3188 30.9237 46.0076 31.506 46.5246C32.0845 47.0383 32.7968 47.4078 33.4279 47.6683L33.8095 46.744C33.2297 46.5046 32.6312 46.1864 32.17 45.7769C31.7126 45.3707 31.4175 44.9008 31.3688 44.3453L30.3727 44.4325ZM33.4291 47.6688C34.1625 47.9695 34.9183 48.1141 35.6223 48.2504L35.8124 47.2686C35.093 47.1294 34.4351 47.0004 33.8084 46.7435L33.4291 47.6688ZM35.6223 48.2504C35.8471 48.2939 36.0667 48.3365 36.2854 48.3833L36.4947 47.4054C36.2648 47.3562 36.0356 47.3119 35.8124 47.2686L35.6223 48.2504ZM36.2823 48.3826C36.7825 48.493 37.2785 48.623 37.7859 48.7561L38.0396 47.7888C37.5353 47.6565 37.0203 47.5214 36.4978 47.4061L36.2823 48.3826ZM37.7859 48.7561C38.4422 48.9282 39.1177 49.1055 39.8109 49.239L40 48.257C39.3447 48.1309 38.7011 47.9622 38.0396 47.7888L37.7859 48.7561ZM39.8107 49.239C41.3037 49.5269 42.8136 49.6456 44.2915 49.7623L44.3702 48.7654C42.883 48.648 41.4291 48.5327 40.0001 48.257L39.8107 49.239ZM44.2915 49.7623C45.0424 49.8216 45.7851 49.8803 46.5243 49.96L46.6314 48.9657C45.8757 48.8843 45.1187 48.8246 44.3702 48.7654L44.2915 49.7623ZM46.5253 49.9601C49.17 50.2395 51.7769 50.674 54.2379 51.582L54.584 50.6438C52.0096 49.694 49.3081 49.2485 46.6304 48.9656L46.5253 49.9601ZM54.2369 51.5816C54.3497 51.6235 54.4626 51.6652 54.5751 51.7068L54.9218 50.7688C54.8092 50.7272 54.697 50.6857 54.585 50.6441L54.2369 51.5816ZM54.5751 51.7068C55.7276 52.1328 56.8436 52.5463 57.8725 53.1189L58.3588 52.2451C57.2512 51.6287 56.0619 51.1902 54.9218 50.7688L54.5751 51.7068ZM57.8725 53.1189C58.722 53.5917 59.5448 54.1385 60.3799 54.6938L60.9336 53.8611C60.1042 53.3096 59.2486 52.7403 58.3588 52.2451L57.8725 53.1189ZM60.3799 54.6938C60.5546 54.81 60.7299 54.9266 60.9052 55.0423L61.4561 54.2077C61.2824 54.0931 61.1086 53.9775 60.9336 53.8611L60.3799 54.6938ZM60.7528 54.8837C60.8046 54.9694 60.8573 55.0535 60.9076 55.1336L61.7549 54.6025C61.7039 54.5213 61.6555 54.444 61.6085 54.3663L60.7528 54.8837ZM60.9076 55.1336C60.9585 55.2149 61.0069 55.2921 61.0539 55.3698L61.9096 54.8524C61.8578 54.7667 61.8051 54.6826 61.7549 54.6025L60.9076 55.1336ZM61.0537 55.3696C61.2388 55.676 61.4236 55.9826 61.6084 56.2893L62.465 55.7733C62.2801 55.4663 62.095 55.1595 61.9098 54.8527L61.0537 55.3696ZM63.9218 55.4023L62.0029 55.5324L62.0705 56.5302L63.9895 56.4001L63.9218 55.4023ZM55.579 55.9951C55.5282 55.9814 55.4773 55.9678 55.4264 55.9543L55.1697 56.9207C55.2196 56.934 55.2695 56.9473 55.3193 56.9608L55.579 55.9951ZM55.4264 55.9543C51.5266 54.9179 46.8892 54.2569 42.8198 55.1594L43.0363 56.1357C46.8755 55.2842 51.3294 55.9002 55.1696 56.9207L55.4264 55.9543ZM42.8207 55.1592C41.8039 55.3828 40.7727 55.903 40.2315 56.7882L41.0847 57.3099C41.4273 56.7495 42.1556 56.3293 43.0354 56.1359L42.8207 55.1592ZM42.5813 56.8627L40.7403 56.5559L40.5759 57.5422L42.4169 57.8491L42.5813 56.8627ZM42.6923 56.8416L42.4652 56.857L42.5329 57.8547L42.7599 57.8393L42.6923 56.8416ZM42.9331 57.7957C43.4611 57.5556 44.2729 57.4951 45.0062 57.4466L44.9402 56.4488C44.267 56.4933 43.2485 56.5537 42.5191 56.8853L42.9331 57.7957ZM45.0062 57.4466C45.1119 57.4396 45.2156 57.4328 45.313 57.4255L45.2383 56.4283C45.146 56.4352 45.047 56.4417 44.9402 56.4488L45.0062 57.4466ZM45.3137 57.4254C46.2747 57.3519 47.2494 57.3687 48.2448 57.3906L48.2668 56.3908C47.2755 56.369 46.2542 56.3506 45.2375 56.4283L45.3137 57.4254ZM48.2443 57.3906C48.4738 57.3958 48.703 57.4048 48.9321 57.4172L48.986 56.4187C48.7472 56.4058 48.5076 56.3963 48.2673 56.3908L48.2443 57.3906ZM55.4154 55.9791L48.9252 56.4191L48.9928 57.4168L55.483 56.9768L55.4154 55.9791ZM53.5914 45.4794C53.6522 45.5027 53.713 45.5258 53.7733 45.5488L54.1292 44.6143C54.0688 44.5912 54.0089 44.5684 53.9492 44.5456L53.5914 45.4794ZM52.2658 44.8936C52.6879 45.0932 53.1295 45.3024 53.5914 45.4794L53.9492 44.5456C53.5286 44.3844 53.1211 44.1919 52.6934 43.9896L52.2658 44.8936ZM50.66 44.212C51.2048 44.3923 51.7198 44.6353 52.2658 44.8936L52.6934 43.9896C52.1561 43.7354 51.5865 43.4653 50.9743 43.2626L50.66 44.212ZM44.4105 42.3969C46.51 42.8335 48.5917 43.5183 50.6582 44.2114L50.9762 43.2633C48.9144 42.5718 46.7797 41.8682 44.614 41.4179L44.4105 42.3969ZM38.6348 41.7096C40.5581 41.6745 42.487 41.9994 44.411 42.3971L44.6134 41.4178C42.675 41.0171 40.6561 40.6725 38.6166 40.7097L38.6348 41.7096ZM33.1359 42.9583C33.7414 42.466 34.6583 42.1533 35.6887 41.9654C36.7074 41.7796 37.7756 41.7262 38.6354 41.7095L38.616 40.7097C37.7376 40.7267 36.6068 40.7815 35.5093 40.9816C34.4235 41.1796 33.3068 41.5305 32.5051 42.1824L33.1359 42.9583ZM35.0316 46.0282C34.2339 45.8184 33.277 45.3166 32.7875 44.7183C32.5502 44.4282 32.458 44.1607 32.4819 43.9177C32.5056 43.6766 32.6546 43.3485 33.1353 42.9588L32.5056 42.182C31.8955 42.6765 31.545 43.2268 31.4867 43.8199C31.4285 44.4111 31.6717 44.9337 32.0135 45.3515C32.6823 46.1689 33.8583 46.7536 34.7773 46.9953L35.0316 46.0282ZM40.7602 47.2454C38.867 46.9518 36.8928 46.5186 35.0319 46.0282L34.7771 46.9952C36.6642 47.4925 38.6729 47.9337 40.607 48.2336L40.7602 47.2454ZM45.5668 47.7476C43.9465 47.62 42.3476 47.494 40.761 47.2455L40.6063 48.2335C42.2372 48.4889 43.8743 48.6175 45.4883 48.7445L45.5668 47.7476ZM52.6172 48.6864C50.27 48.1166 47.8961 47.9309 45.5668 47.7476L45.4883 48.7445C47.8305 48.9288 50.1246 49.1104 52.3813 49.6581L52.6172 48.6864ZM59.7854 51.5733C57.5899 50.2006 55.127 49.2993 52.6179 48.6865L52.3806 49.658C54.8206 50.2539 57.176 51.1212 59.2552 52.4212L59.7854 51.5733ZM54.5431 45.779C56.1042 47.9187 57.6431 50.0702 59.1035 52.2735L59.937 51.721C58.4643 49.499 56.915 47.3333 55.351 45.1896L54.5431 45.779ZM53.7733 45.5488C54.1074 45.676 54.4273 45.798 54.741 45.9399L55.1531 45.0287C54.8071 44.8723 54.4589 44.7398 54.1292 44.6143L53.7733 45.5488ZM48.7519 36.2719C46.8853 35.2007 44.7331 34.426 42.8011 34.148L42.6586 35.1378C44.4505 35.3956 46.4832 36.1229 48.2542 37.1392L48.7519 36.2719ZM44.1503 31.8567C45.4902 33.5418 46.807 35.2663 48.1021 37.0043L48.904 36.4068C47.6043 34.6627 46.281 32.9295 44.9331 31.2343L44.1503 31.8567ZM41.2227 30.6664C42.2643 31.078 43.3187 31.495 44.3188 31.9931L44.7646 31.098C43.7197 30.5776 42.6251 30.1454 41.5901 29.7364L41.2227 30.6664ZM40.6912 30.4559C40.8673 30.526 41.0448 30.5962 41.2227 30.6664L41.5901 29.7364C41.4121 29.6661 41.2358 29.5964 41.0611 29.5269L40.6912 30.4559ZM34.9889 28.7042C36.9349 29.1257 38.8438 29.7156 40.6902 30.4555L41.0622 29.5273C39.1654 28.7671 37.2029 28.1605 35.2005 27.7269L34.9889 28.7042ZM29.5752 27.9591C31.3976 28.0967 33.2104 28.3169 34.9883 28.7041L35.2011 27.727C33.3635 27.3268 31.5016 27.1017 29.6505 26.962L29.5752 27.9591ZM29.4707 27.9512C29.5063 27.9539 29.5412 27.9566 29.5753 27.9591L29.6505 26.962C29.6169 26.9594 29.5823 26.9568 29.5466 26.9541L29.4707 27.9512ZM25.0369 28.9991C25.2275 28.4258 25.8307 28.0947 26.7768 27.9543C27.6951 27.818 28.7329 27.895 29.4707 27.9512L29.5466 26.9541C28.8265 26.8993 27.6772 26.8097 26.63 26.9652C25.6106 27.1164 24.4697 27.5352 24.088 28.6838L25.0369 28.9991ZM27.9255 31.6162C27.3529 31.3848 26.4793 31.0132 25.8184 30.5142C25.1353 29.9983 24.8712 29.5049 25.0376 28.9971L24.0873 28.6858C23.707 29.8464 24.4599 30.7414 25.2158 31.3122C25.994 31.8999 26.9816 32.3133 27.5508 32.5433L27.9255 31.6162ZM32.6968 33.1522C31.0761 32.744 29.4725 32.2414 27.9255 31.6162L27.5508 32.5433C29.1472 33.1885 30.7954 33.7046 32.4526 34.1219L32.6968 33.1522ZM38.5606 33.8113C36.5373 33.7157 34.5715 33.6212 32.6961 33.152L32.4533 34.1221C34.4415 34.6195 36.5081 34.7155 38.5134 34.8102L38.5606 33.8113ZM42.8014 34.148C41.3966 33.9449 39.9648 33.8777 38.5606 33.8113L38.5134 34.8102C39.9261 34.8769 41.3093 34.9427 42.6583 35.1377L42.8014 34.148ZM37.5129 22.6044C35.4832 21.6157 33.2797 20.9245 31.1507 20.4978L30.9542 21.4783C33.013 21.8909 35.1333 22.5576 37.075 23.5034L37.5129 22.6044ZM33.3475 19.7312C34.5667 20.916 35.7655 22.1338 36.9263 23.3928L37.6615 22.7149C36.4861 21.4401 35.2742 20.2091 34.0443 19.014L33.3475 19.7312ZM26.1413 16.6297C28.7619 17.2928 31.0997 18.4843 33.4505 19.8083L33.9413 18.937C31.5749 17.6041 29.1416 16.3574 26.3866 15.6603L26.1413 16.6297ZM21.0318 16.0378C22.7482 16.0229 24.4909 16.2127 26.1415 16.6298L26.3865 15.6602C24.6456 15.2203 22.817 15.0223 21.0231 15.0378L21.0318 16.0378ZM21.0096 16.0381L21.0338 16.0378L21.0211 15.0379L20.9969 15.0382L21.0096 16.0381ZM19.2803 16.8175C19.1043 16.513 19.1531 16.4087 19.1557 16.4028C19.1672 16.3766 19.2245 16.2979 19.4458 16.2179C19.8889 16.0576 20.5516 16.0438 21.0095 16.0381L20.9969 15.0382C20.5849 15.0433 19.7387 15.0486 19.1057 15.2775C18.7891 15.392 18.4166 15.6005 18.2407 15.9992C18.0559 16.4183 18.1594 16.8766 18.4145 17.318L19.2803 16.8175ZM21.3121 18.2452C20.4905 17.9245 19.6548 17.4634 19.28 16.8169L18.4149 17.3185C18.9762 18.2867 20.1105 18.8496 20.9484 19.1768L21.3121 18.2452ZM28.5793 20.0241C26.0741 19.5829 23.6086 19.147 21.313 18.2456L20.9475 19.1764C23.3522 20.1206 25.9182 20.5709 28.4058 21.009L28.5793 20.0241ZM31.1508 20.4978C30.298 20.3268 29.4364 20.1751 28.5793 20.0241L28.4058 21.009C29.2649 21.1603 30.1149 21.31 30.9541 21.4783L31.1508 20.4978Z" fill="#31394D" mask="url(#path-3-outside-1)"/>
</svg>
