<svg width="104" height="113" viewBox="0 0 104 113" fill="none" xmlns="http://www.w3.org/2000/svg">
<path d="M17.1995 75.5476L17.2206 75.4738L17.2359 75.3986C17.4606 74.3002 18.0242 73.6411 18.7104 73.2474C19.443 72.827 20.4207 72.6567 21.4409 72.8017C23.5737 73.1047 24.9708 74.5151 24.8626 76.3239C24.5476 81.5608 24.2744 84.0157 23.2462 89.0488C22.7121 91.0186 21.5952 91.7536 20.565 91.8538L20.4005 91.8698L20.2409 91.9125C19.6685 92.0659 19.2763 92.1695 18.5935 92.1384C13.7067 91.3604 9.66939 87.8068 5.18516 83.8597C5.00186 83.6983 4.81782 83.5363 4.63294 83.3738L4.62217 83.3644L4.61127 83.3551C3.81631 82.6763 3.5327 81.9094 3.52865 81.1454C3.52432 80.3266 3.84848 79.4072 4.46732 78.5986C5.75235 76.9196 7.65179 76.3658 9.2252 77.3536L9.25656 77.3733L9.28862 77.3918C10.9594 78.3564 12.0796 79.0067 13.2799 79.9485L15.6199 81.7845L16.4375 78.9248C16.7354 77.8827 16.8076 77.4256 16.8738 76.9804C16.8753 76.9702 16.8768 76.9601 16.8783 76.9499C16.9206 76.6643 16.964 76.3711 17.1995 75.5476Z" stroke="white" stroke-width="4"/>
<path d="M67.5144 90.4001L67.4933 90.3263L67.4779 90.2511C67.2533 89.1528 66.6896 88.4936 66.0035 88.0999C65.2709 87.6795 64.2931 87.5092 63.2729 87.6542C61.1402 87.9573 59.7431 89.3676 59.8512 91.1765C60.1663 96.4134 60.4395 98.8683 61.4677 103.901C62.0018 105.871 63.1187 106.606 64.1489 106.706L64.3134 106.722L64.473 106.765C65.0454 106.918 65.4375 107.022 66.1203 106.991C71.0072 106.213 75.0445 102.659 79.5287 98.7122C79.712 98.5509 79.896 98.3889 80.0809 98.2264L80.0917 98.2169L80.1026 98.2076C80.8976 97.5288 81.1812 96.762 81.1852 95.9979C81.1895 95.1792 80.8654 94.2597 80.2465 93.4511C78.9615 91.7722 77.0621 91.2184 75.4887 92.2062L75.4573 92.2258L75.4252 92.2444C73.7545 93.209 72.6342 93.8593 71.4339 94.801L69.094 96.637L68.2764 93.7774C67.9784 92.7352 67.9062 92.2781 67.8401 91.8329C67.8386 91.8227 67.8371 91.8126 67.8356 91.8024C67.7933 91.5168 67.7499 91.2236 67.5144 90.4001Z" stroke="white" stroke-width="4"/>
<path d="M64.0331 46.6802L64.0883 46.6268L64.1392 46.5694C65.0636 45.5267 66.1003 45.1527 67.1093 45.1553C68.1718 45.1581 69.3206 45.5857 70.3082 46.3598C72.3569 47.9654 73.0538 50.3713 71.7728 52.3125C68.428 57.3769 64.808 61.9815 60.8042 66.5001C59.0486 68.2492 57.3585 68.399 56.1172 67.8347L55.9668 67.7663L55.8071 67.7236C55.1291 67.5419 54.6349 67.4079 53.9159 66.9455C49.3729 63.2695 47.3487 57.2683 45.1441 50.7321C45.0489 50.45 44.9535 50.1669 44.8574 49.8829L44.8528 49.8693L44.848 49.8558C44.4112 48.6228 44.5815 47.5908 45.0658 46.7418C45.5771 45.8452 46.4965 45.0662 47.6417 44.5902C50.004 43.6083 52.4402 44.1461 53.5508 46.2454L53.5681 46.2781L53.5866 46.3102C54.7043 48.2462 55.4642 49.5684 56.1337 51.2353L57.2421 53.9953L59.38 51.9275C60.284 51.0532 61.0973 50.0647 61.827 49.1777L61.8606 49.137C62.627 48.2055 63.3074 47.3821 64.0331 46.6802Z" stroke="white" stroke-width="4"/>
</svg>
