<svg width="68" height="65" viewBox="0 0 68 65" fill="none" xmlns="http://www.w3.org/2000/svg">
<path opacity="0.6" d="M27.1435 52.9899L18.2692 40.2082C14.371 34.5936 14.004 27.2511 17.3229 21.2758C20.354 15.8187 26.005 12.3308 32.2418 12.0676L41.2889 11.6859C48.1735 11.3954 54.824 14.2153 59.4014 19.366C64.2711 24.8455 66.2284 32.3224 64.6682 39.4851L64.4921 40.2936C63.1903 46.2699 59.7059 51.5456 54.7202 55.0888L51.6474 57.2726C47.2489 60.3985 41.654 61.3196 36.4856 59.7687C32.6943 58.6311 29.4009 56.2414 27.1435 52.9899Z" fill="#BBD2BD"/>
<path d="M61.254 12.2256C56.151 7.6733 49.4015 7.69801 43.3176 9.07514C43.0402 9.13792 42.8135 9.25273 42.6232 9.39762C40.5009 9.79989 38.3857 10.1898 36.2448 10.3543C37.0426 7.98983 38.2676 5.74247 39.9663 3.63027C41.6187 1.57533 38.7156 -1.36626 37.0463 0.709319C34.6348 3.70729 32.9165 6.92937 31.9356 10.3642C29.732 10.2086 27.5579 9.81108 25.3763 9.39748C25.1857 9.25244 24.9593 9.13763 24.6819 9.07499C18.5982 7.69801 11.8482 7.6733 6.74518 12.2256C2.25716 16.2282 0.416285 22.4365 0.0595038 28.6978C-0.73021 42.565 6.40134 58.4123 17.8387 64.1743C18.0283 64.2702 18.2139 64.319 18.3977 64.3493C18.6524 64.5536 18.9546 64.7042 19.3177 64.7588C24.5953 65.5469 29.5297 63.9027 33.8288 60.418C33.8496 60.4019 33.8662 60.3827 33.8835 60.365C33.9226 60.3568 33.9621 60.3501 33.9997 60.3413C34.0385 60.3503 34.0776 60.3568 34.1172 60.365C34.1345 60.3827 34.151 60.4019 34.1714 60.418C38.47 63.9028 43.4057 65.5469 48.683 64.7588C49.046 64.7042 49.3471 64.5536 49.6017 64.3493C49.7854 64.319 49.9715 64.2702 50.1611 64.1743C61.5982 58.4123 68.7307 42.565 67.9404 28.6978C67.5829 22.4365 65.7425 16.2282 61.254 12.2256ZM64.1212 31.5719C65.4584 45.1273 57.9671 55.5246 48.2267 60.4322C48.2008 60.4447 48.1831 60.4625 48.1595 60.4758C43.6897 61.0019 39.7893 59.6617 36.1069 56.6761C35.9217 56.527 35.7402 56.4392 35.56 56.3757C35.4449 56.3042 35.3238 56.2429 35.1954 56.1985C34.83 55.913 34.4142 55.7942 34.0002 55.8341C33.5869 55.7948 33.1704 55.9137 32.8054 56.1985C32.6771 56.2429 32.5561 56.3042 32.4405 56.3757C32.2607 56.4393 32.0785 56.527 31.8941 56.6761C28.2109 59.6619 24.311 61.0021 19.8419 60.4758C19.8176 60.4625 19.7994 60.4447 19.774 60.4322C10.0325 55.5246 3.87815 45.9993 3.87815 31.5719C3.65042 26.4013 4.64606 20.8979 7.79343 16.9742C11.7221 12.0766 18.0849 12.0411 23.4087 13.2013C23.6105 13.3636 23.8635 13.4847 24.1742 13.5437C26.4797 13.9795 28.787 14.4353 31.116 14.6507C30.9496 16.2657 30.9308 17.9214 31.075 19.6191C30.1297 19.3971 29.1891 19.055 28.2596 18.5613C25.9085 17.3131 23.8221 20.8781 26.1744 22.1282C30.7509 24.5584 35.1954 23.9094 40.0999 22.4032C42.5131 21.2818 40.4144 17.7226 38.0152 18.8373C37.0823 19.2708 36.1467 19.5564 35.2131 19.7273C35.0641 18.0262 35.0826 16.3676 35.2677 14.7544C38.1465 14.6422 40.9877 14.0811 43.8252 13.5446C44.136 13.4856 44.3891 13.3645 44.5907 13.2022C49.9143 12.042 56.2771 12.0779 60.2061 16.975C63.3537 20.8977 64.3491 26.4012 64.1212 31.5719Z" fill="#31394D"/>
<path d="M25.7548 51.9272C24.6029 53.0407 23.2335 53.6983 21.7097 54.1491C19.1614 54.9034 20.3999 58.0939 22.9598 57.3351C25.1668 56.6813 27.012 56.4554 28.6754 54.8466C30.5927 52.9928 27.6687 50.0756 25.7548 51.9272Z" fill="#31394D"/>
<path d="M55.5122 24.7488C58.5645 34.8093 55.704 46.3039 45.9974 51.8794C43.6897 53.2055 45.7686 56.7743 48.0823 55.4451C59.5171 48.8773 61.4631 35.6831 59.4949 23.6499C59.0655 21.0272 55.0864 22.1442 55.5122 24.7488Z" fill="#31394D"/>
</svg>
