<svg width="115" height="95" viewBox="0 0 115 95" fill="none" xmlns="http://www.w3.org/2000/svg">
<path d="M85.9576 61.6846C85.0389 61.5437 84.1197 61.3233 83.2807 60.9619C81.8045 60.3256 80.5946 59.2619 80.0936 57.8732C79.872 57.2586 78.8046 57.5104 78.9866 58.1402C79.4446 59.722 80.6484 61.0009 82.1972 61.8813C83.0706 62.3776 84.0561 62.7328 85.0547 62.9847C85.9914 63.221 87.3523 63.6178 88.2963 63.3036C88.8759 63.1106 89.0687 62.4098 88.4753 62.1058C87.7331 61.7256 86.7904 61.8124 85.9576 61.6846Z" fill="#3C3E43"/>
<path fill-rule="evenodd" clip-rule="evenodd" d="M67.2905 62.3549C63.6099 65.2425 60.1604 67.4271 58.2801 68.618C57.5936 69.0528 57.1163 69.3551 56.9132 69.5108C56.6051 69.9341 56.5145 70.4226 56.8904 70.9768C57.2483 71.5045 57.8896 71.6287 58.4817 71.6809C59.4233 71.7638 60.3837 71.7388 61.3254 71.6732C63.8573 71.4972 66.3271 70.8877 68.6089 69.8467C67.8056 70.3919 66.9785 70.9063 66.1526 71.4199L66.1526 71.4199C65.6911 71.7069 65.23 71.9936 64.7738 72.2854L64.5517 72.4271C63.8267 72.8897 63.0918 73.3586 62.4019 73.8674C62.3081 73.9366 62.183 74.0155 62.0443 74.103C61.5408 74.4204 60.8578 74.851 60.8395 75.3451C60.8118 76.086 61.8611 76.1972 62.469 76.2617L62.469 76.2617C62.5324 76.2684 62.591 76.2746 62.6431 76.281C63.0252 76.3277 63.4077 76.342 63.7892 76.3346C63.837 76.3995 63.9105 76.4501 64.017 76.4711C65.9685 76.8543 68.1464 76.6801 70.1027 76.4184C72.1764 76.141 74.2174 75.6716 76.2205 75.0715C78.2496 74.4636 80.2219 73.6841 82.1725 72.8619C83.0994 72.471 84.0209 72.0676 84.9389 71.656C85.0861 71.59 85.2366 71.5242 85.3889 71.4577L85.3889 71.4577C86.0077 71.1873 86.6552 70.9044 87.2249 70.5417C88.4066 74.584 89.9525 78.4736 92.0072 82.1743C94.1272 85.9924 96.6657 90.2236 100.774 92.1493C104.77 94.0226 109.407 94.4086 113.731 93.6009C108.464 93.5355 101.419 92.4114 97.7631 88.1754C96.3174 86.5002 95.0324 84.6493 93.8558 82.7807C91.3082 78.735 89.3274 74.261 88.202 69.6135C88.6639 69.482 89.1039 69.3024 89.5199 69.0821C89.0393 68.8683 88.5073 68.6386 87.9384 68.3986C87.7335 68.4709 87.5232 68.533 87.3077 68.584C86.9948 68.6582 86.8082 69.0018 86.876 69.3035C86.2587 69.4622 85.6413 69.7518 85.0508 70.0288L85.0508 70.0288C84.8535 70.1213 84.6592 70.2124 84.469 70.2968L84.2812 70.3801C83.4237 70.7605 82.5662 71.1409 81.7013 71.5049C79.8213 72.2964 77.9121 73.0163 75.9777 73.6643C74.1291 74.2838 72.2413 74.798 70.3206 75.1396C69.8044 75.2314 69.2856 75.3097 68.7654 75.3776C69.049 75.296 69.3323 75.2131 69.6155 75.1302C69.7533 75.0899 69.891 75.0496 70.0288 75.0094C70.1524 74.9734 70.276 74.9376 70.3997 74.9018L70.3997 74.9018C70.921 74.7508 71.4424 74.5998 71.9583 74.4312C72.0286 74.4082 72.1005 74.3854 72.1733 74.3623C72.7435 74.1812 73.3727 73.9815 73.7676 73.5414C74.0709 73.2037 73.8772 72.5981 73.3811 72.6099C72.8822 72.6216 72.3962 72.8209 71.9193 73.0166L71.9192 73.0166C71.7222 73.0974 71.5268 73.1776 71.3327 73.2436C70.7927 73.4272 70.2479 73.5977 69.7033 73.7681L69.703 73.7682L69.7024 73.7684C69.5136 73.8275 69.3249 73.8865 69.1363 73.9462C68.7948 74.0542 68.4538 74.1669 68.1125 74.2797C67.0142 74.6428 65.9125 75.007 64.7761 75.2198C64.0081 75.3636 63.2094 75.4468 62.4279 75.3811C62.2339 75.3698 62.043 75.3421 61.8545 75.2985C61.852 75.2972 61.85 75.2964 61.8476 75.2951C61.9549 75.2222 62.0874 75.1552 62.2057 75.0954L62.2058 75.0954C62.2708 75.0625 62.3315 75.0318 62.3814 75.0034C62.652 74.8496 62.9229 74.6963 63.1938 74.5429L63.1946 74.5424L63.1948 74.5423C63.9892 74.0927 64.7839 73.6429 65.5707 73.1796C65.8748 73.0005 66.1838 72.8226 66.4946 72.6436L66.4947 72.6436L66.4947 72.6436C67.9481 71.8067 69.442 70.9465 70.6758 69.8323C71.1665 69.389 71.6037 68.8329 71.979 68.2925C72.0038 68.2568 72.0317 68.218 72.0614 68.1767C72.1936 67.9928 72.3624 67.7579 72.4574 67.5206C72.9367 67.0632 72.4287 66.1626 71.8235 66.575C69.0951 68.4333 65.9648 69.7274 62.6946 70.2307C61.8995 70.3531 61.0964 70.421 60.2921 70.4415C59.9043 70.4514 59.516 70.45 59.1281 70.4377C59.0879 70.4364 59.0318 70.4377 58.9662 70.4391C58.5844 70.4476 57.8813 70.4633 58.1248 70.0281C58.2753 69.7591 59.1426 69.3872 59.1426 69.3872C59.1426 69.3872 65.2477 65.5339 69.1778 62.5831C68.565 62.4972 67.9351 62.4203 67.2905 62.3549ZM72.9463 59.4672C72.3151 59.3544 71.6971 59.2489 71.1012 59.1513C72.8318 57.5837 74.5123 55.8828 76.0036 54.0789C73.0427 51.4347 71.8386 49.1627 72.0545 45.7213C72.1273 44.5618 73.5937 45.3157 75.9765 46.5406L75.9765 46.5407C76.5239 46.8221 77.1197 47.1283 77.758 47.442C81.8124 49.4341 87.0931 51.8856 92.0948 54.0304C92.2389 53.92 92.4337 53.8786 92.6653 53.9618C94.2437 54.529 95.8356 55.1666 97.3914 55.8948C100.567 57.2236 104.275 59.1296 105.831 60.6551C108.213 58.7737 110.168 56.6147 111.862 54.066C112.773 56.0456 108.305 61.0658 105.764 62.1446C105.407 62.296 105.104 62.1426 104.977 61.8982C104.408 61.5528 103.843 61.2027 103.278 60.8527C102.957 60.6541 102.637 60.4555 102.316 60.2578C101.908 60.0219 101.484 59.7614 101.054 59.4904C100.382 59.0879 99.7048 58.6941 99.0163 58.3169C97.3352 57.396 95.5991 56.5836 93.8183 55.8752C94.0522 56.7643 94.1058 57.7285 94.1551 58.614L94.1662 58.8116C94.2641 60.5373 94.1421 62.3101 93.607 63.9637C93.3888 64.6382 93.0943 65.2971 92.7305 65.9155C92.3336 65.7453 91.9267 65.5732 91.5131 65.3998C91.8527 64.8408 92.1249 64.2381 92.3225 63.6126C92.7577 62.2352 92.878 60.796 92.8272 59.3588C92.8002 58.5991 92.7281 57.84 92.6192 57.0874L92.6003 56.954C92.5443 56.5581 92.4853 56.1411 92.3467 55.761C91.018 55.3508 89.7338 54.7265 88.4731 54.1136L88.4726 54.1134C88.1746 53.9685 87.8779 53.8243 87.5823 53.6837C85.9716 52.9176 84.3659 52.1404 82.766 51.3518C79.7196 49.8503 76.6995 48.2967 73.6986 46.707C73.3839 48.3161 74.1539 49.9088 75.2419 51.1394C75.8066 51.7785 76.4437 52.3441 77.0814 52.9079C77.6056 53.3711 78.0631 53.8938 77.758 54.6281C77.555 55.1165 77.0911 55.5432 76.6687 55.9318C76.5321 56.0574 76.3998 56.1791 76.2821 56.2975C75.6758 56.9077 75.0603 57.5086 74.4356 58.0997C73.9459 58.5632 73.4493 59.0188 72.9463 59.4672Z" fill="#31394D"/>
<path d="M67.2905 62.3549L67.341 61.8575L67.1404 61.8372L66.9819 61.9616L67.2905 62.3549ZM58.2801 68.618L58.5476 69.0404H58.5476L58.2801 68.618ZM56.9132 69.5108L56.609 69.114L56.5515 69.158L56.5089 69.2166L56.9132 69.5108ZM56.8904 70.9768L57.3043 70.6961L57.3042 70.696L56.8904 70.9768ZM58.4817 71.6809L58.4378 72.179L58.4379 72.179L58.4817 71.6809ZM61.3254 71.6732L61.2907 71.1744L61.2907 71.1744L61.3254 71.6732ZM68.6089 69.8467L68.8897 70.2604L68.4014 69.3918L68.6089 69.8467ZM66.1526 71.4199L65.8886 70.9953L65.8819 70.9995L65.8753 71.0039L66.1526 71.4199ZM66.1526 71.4199L66.4167 71.8445L66.4234 71.8403L66.43 71.8359L66.1526 71.4199ZM64.7738 72.2854L65.0428 72.7068L65.0431 72.7066L64.7738 72.2854ZM64.5517 72.4271L64.8207 72.8486L64.8208 72.8485L64.5517 72.4271ZM62.4019 73.8674L62.1051 73.465L62.105 73.4651L62.4019 73.8674ZM62.0443 74.103L61.7776 73.68L61.7776 73.68L62.0443 74.103ZM60.8395 75.3451L61.3391 75.3637L61.3391 75.3636L60.8395 75.3451ZM62.469 76.2617L62.5584 75.7698L62.5402 75.7665L62.5217 75.7645L62.469 76.2617ZM62.469 76.2617L62.3796 76.7536L62.3979 76.757L62.4163 76.7589L62.469 76.2617ZM62.6431 76.281L62.5824 76.7773L62.5825 76.7773L62.6431 76.281ZM63.7892 76.3346L64.1919 76.0382L64.0384 75.8297L63.7796 75.8347L63.7892 76.3346ZM64.017 76.4711L63.9202 76.9616L63.9207 76.9617L64.017 76.4711ZM70.1027 76.4184L70.169 76.914L70.169 76.914L70.1027 76.4184ZM76.2205 75.0715L76.077 74.5925L76.077 74.5925L76.2205 75.0715ZM82.1725 72.8619L82.3667 73.3226L82.3668 73.3226L82.1725 72.8619ZM84.9389 71.656L85.1435 72.1122L85.1435 72.1122L84.9389 71.656ZM85.3889 71.4577L85.5891 71.9159L85.6009 71.9107L85.6125 71.9049L85.3889 71.4577ZM85.3889 71.4577L85.1887 70.9995L85.1768 71.0047L85.1653 71.0105L85.3889 71.4577ZM87.2249 70.5417L87.7048 70.4014L87.518 69.7624L86.9564 70.1199L87.2249 70.5417ZM92.0072 82.1743L91.5701 82.4171L91.5701 82.4171L92.0072 82.1743ZM100.774 92.1493L100.986 91.6966L100.986 91.6966L100.774 92.1493ZM113.731 93.6009L113.823 94.0924L113.738 93.1009L113.731 93.6009ZM97.7631 88.1754L98.1417 87.8487L97.7631 88.1754ZM93.8558 82.7807L94.2789 82.5143L94.2789 82.5143L93.8558 82.7807ZM88.202 69.6135L88.065 69.1326L87.6029 69.2642L87.716 69.7312L88.202 69.6135ZM89.5199 69.0821L89.754 69.5239L90.6621 69.0428L89.7231 68.6252L89.5199 69.0821ZM87.9384 68.3986L88.1327 67.9379L87.9545 67.8628L87.7721 67.9271L87.9384 68.3986ZM87.3077 68.584L87.1925 68.0975L87.1923 68.0975L87.3077 68.584ZM86.876 69.3035L87.0005 69.7877L87.4701 69.6669L87.3638 69.1938L86.876 69.3035ZM85.0508 70.0288L84.8385 69.5761L84.8046 69.592L84.7734 69.6127L85.0508 70.0288ZM85.0508 70.0288L85.2631 70.4815L85.297 70.4656L85.3281 70.4448L85.0508 70.0288ZM84.469 70.2968L84.2664 69.8397L84.2663 69.8397L84.469 70.2968ZM84.2812 70.3801L84.0785 69.923L84.0785 69.923L84.2812 70.3801ZM81.7013 71.5049L81.5073 71.0441L81.5073 71.0441L81.7013 71.5049ZM75.9777 73.6643L75.8189 73.1902L75.8189 73.1902L75.9777 73.6643ZM70.3206 75.1396L70.233 74.6473L70.233 74.6473L70.3206 75.1396ZM68.7654 75.3776L68.6272 74.8971L68.8301 75.8734L68.7654 75.3776ZM69.6155 75.1302L69.475 74.6504H69.475L69.6155 75.1302ZM70.0288 75.0094L70.1687 75.4894L70.1688 75.4894L70.0288 75.0094ZM70.3997 74.9018L70.2784 74.4167L70.2695 74.4189L70.2606 74.4215L70.3997 74.9018ZM70.3997 74.9018L70.521 75.3868L70.5299 75.3846L70.5388 75.382L70.3997 74.9018ZM71.9583 74.4312L71.803 73.9559L71.8029 73.9559L71.9583 74.4312ZM72.1733 74.3623L72.022 73.8857L72.022 73.8857L72.1733 74.3623ZM73.7676 73.5414L73.3955 73.2074L73.3954 73.2075L73.7676 73.5414ZM73.3811 72.6099L73.3928 73.1098L73.393 73.1098L73.3811 72.6099ZM71.9193 73.0166L72.105 73.4808L72.109 73.4792L71.9193 73.0166ZM71.9192 73.0166L71.7335 72.5523L71.7295 72.554L71.9192 73.0166ZM71.3327 73.2436L71.4936 73.717L71.4937 73.717L71.3327 73.2436ZM69.7033 73.7681L69.8496 74.2462L69.8526 74.2453L69.7033 73.7681ZM69.703 73.7682L69.5566 73.2901L69.5531 73.2912L69.703 73.7682ZM69.7024 73.7684L69.8517 74.2456L69.8523 74.2454L69.7024 73.7684ZM69.1363 73.9462L68.9856 73.4694L68.9855 73.4694L69.1363 73.9462ZM68.1125 74.2797L67.9556 73.805L68.1125 74.2797ZM64.7761 75.2198L64.6841 74.7283L64.684 74.7283L64.7761 75.2198ZM62.4279 75.3811L62.4698 74.8827L62.4571 74.882L62.4279 75.3811ZM61.8545 75.2985L61.6097 75.7345L61.6721 75.7695L61.7418 75.7857L61.8545 75.2985ZM61.8476 75.2951L61.5666 74.8816L60.8607 75.3612L61.6242 75.7425L61.8476 75.2951ZM62.2057 75.0954L62.4314 75.5416L62.4427 75.5358L62.4538 75.5295L62.2057 75.0954ZM62.2058 75.0954L61.9802 74.6491L61.9688 74.6549L61.9577 74.6612L62.2058 75.0954ZM62.3814 75.0034L62.6282 75.4383L62.6286 75.4381L62.3814 75.0034ZM63.1938 74.5429L63.4401 74.978L63.4403 74.9779L63.1938 74.5429ZM63.1946 74.5424L62.9494 74.1067L62.9481 74.1074L63.1946 74.5424ZM63.1948 74.5423L63.4401 74.978L63.4411 74.9774L63.1948 74.5423ZM65.5707 73.1796L65.317 72.7487L65.3169 72.7487L65.5707 73.1796ZM66.4946 72.6436L66.7441 73.077L66.7518 73.0724L66.4946 72.6436ZM66.4947 72.6436L66.309 72.1793L66.2718 72.1942L66.2374 72.2148L66.4947 72.6436ZM66.4947 72.6436L66.6804 73.1078L66.7134 73.0946L66.7442 73.0769L66.4947 72.6436ZM70.6758 69.8323L71.0109 70.2034L71.011 70.2033L70.6758 69.8323ZM71.979 68.2925L71.5684 68.0072L71.5684 68.0072L71.979 68.2925ZM72.0614 68.1767L71.6554 67.8848L71.6554 67.8848L72.0614 68.1767ZM72.4574 67.5206L72.1122 67.1589L72.0336 67.2339L71.9932 67.3348L72.4574 67.5206ZM71.8235 66.575L72.1049 66.9883L72.105 66.9882L71.8235 66.575ZM62.6946 70.2307L62.6185 69.7365L62.6185 69.7365L62.6946 70.2307ZM60.2921 70.4415L60.3048 70.9414L60.3049 70.9414L60.2921 70.4415ZM59.1281 70.4377L59.1122 70.9374L59.1123 70.9374L59.1281 70.4377ZM58.9662 70.4391L58.9551 69.9392H58.9551L58.9662 70.4391ZM58.1248 70.0281L57.6885 69.7839L57.6884 69.784L58.1248 70.0281ZM59.1426 69.3872L59.3396 69.8467L59.376 69.8311L59.4095 69.81L59.1426 69.3872ZM69.1778 62.5831L69.478 62.983L70.4461 62.2561L69.2472 62.088L69.1778 62.5831ZM72.9463 59.4672L72.8583 59.9594L73.0976 60.0022L73.2791 59.8404L72.9463 59.4672ZM71.1012 59.1513L70.7655 58.7807L69.9967 59.477L71.0203 59.6447L71.1012 59.1513ZM76.0036 54.0789L76.389 54.3975L76.6957 54.0266L76.3367 53.706L76.0036 54.0789ZM72.0545 45.7213L71.5555 45.69V45.69L72.0545 45.7213ZM75.9765 46.5406L76.206 46.0964L76.2051 46.096L75.9765 46.5406ZM75.9765 46.5407L75.747 46.9849L75.7479 46.9854L75.9765 46.5407ZM77.758 47.442L77.9785 46.9932V46.9932L77.758 47.442ZM92.0948 54.0304L91.8978 54.4899L92.1666 54.6052L92.3988 54.4273L92.0948 54.0304ZM92.6653 53.9618L92.4961 54.4323L92.4962 54.4324L92.6653 53.9618ZM97.3914 55.8948L97.1794 56.3477L97.1888 56.3521L97.1984 56.3561L97.3914 55.8948ZM105.831 60.6551L105.481 61.0122L105.795 61.3205L106.141 61.0475L105.831 60.6551ZM111.862 54.066L112.316 53.8569L111.941 53.0429L111.445 53.7893L111.862 54.066ZM105.764 62.1446L105.568 61.6844L105.568 61.6844L105.764 62.1446ZM104.977 61.8982L105.421 61.668L105.356 61.5436L105.236 61.4709L104.977 61.8982ZM103.278 60.8527L103.015 61.2778L103.278 60.8527ZM102.316 60.2578L102.578 59.8319L102.566 59.8252L102.316 60.2578ZM101.054 59.4904L101.321 59.0672L101.311 59.0615L101.054 59.4904ZM99.0163 58.3169L99.2566 57.8784L99.2565 57.8784L99.0163 58.3169ZM93.8183 55.8752L94.0031 55.4106L93.0828 55.0444L93.3348 56.0023L93.8183 55.8752ZM94.1551 58.614L93.6559 58.6418L93.6559 58.642L94.1551 58.614ZM94.1662 58.8116L93.6669 58.8396L93.667 58.8399L94.1662 58.8116ZM93.607 63.9637L93.1313 63.8097L93.1313 63.8098L93.607 63.9637ZM92.7305 65.9155L92.5334 66.3751L92.9382 66.5486L93.1615 66.1691L92.7305 65.9155ZM91.5131 65.3998L91.0858 65.1402L90.7843 65.6365L91.3198 65.861L91.5131 65.3998ZM92.3225 63.6126L92.7993 63.7633L92.7993 63.7633L92.3225 63.6126ZM92.8272 59.3588L93.3269 59.3411V59.3411L92.8272 59.3588ZM92.6192 57.0874L92.1242 57.1579L92.1244 57.159L92.6192 57.0874ZM92.6003 56.954L92.1052 57.0241L92.1052 57.0245L92.6003 56.954ZM92.3467 55.761L92.8165 55.5897L92.7314 55.3565L92.4942 55.2832L92.3467 55.761ZM88.4731 54.1136L88.6917 53.664L88.6905 53.6634L88.4731 54.1136ZM88.4726 54.1134L88.254 54.5631L88.2552 54.5637L88.4726 54.1134ZM87.5823 53.6837L87.3675 54.1352L87.3676 54.1352L87.5823 53.6837ZM82.766 51.3518L82.987 50.9033L82.987 50.9033L82.766 51.3518ZM73.6986 46.707L73.9326 46.2652L73.3372 45.9497L73.2078 46.611L73.6986 46.707ZM75.2419 51.1394L75.6165 50.8083L75.6165 50.8083L75.2419 51.1394ZM77.0814 52.9079L76.7503 53.2825L76.7504 53.2826L77.0814 52.9079ZM77.758 54.6281L78.2197 54.82L78.2197 54.82L77.758 54.6281ZM76.6687 55.9318L76.3302 55.5638L76.6687 55.9318ZM76.2821 56.2975L76.6368 56.65L76.6368 56.6499L76.2821 56.2975ZM74.4356 58.0997L74.7793 58.4629L74.4356 58.0997ZM66.9819 61.9616C63.3226 64.8324 59.8915 67.0056 58.0126 68.1956L58.5476 69.0404C60.4293 67.8487 63.8972 65.6526 67.5991 62.7483L66.9819 61.9616ZM58.0126 68.1956C57.3403 68.6214 56.8351 68.9406 56.609 69.114L57.2174 69.9076C57.3975 69.7696 57.847 69.4842 58.5476 69.0404L58.0126 68.1956ZM56.5089 69.2166C56.3158 69.482 56.1674 69.8001 56.1461 70.1657C56.1246 70.5372 56.2374 70.9049 56.4767 71.2575L57.3042 70.696C57.1675 70.4945 57.1377 70.3409 57.1445 70.2237C57.1516 70.1007 57.2025 69.9629 57.3175 69.805L56.5089 69.2166ZM56.4766 71.2574C56.9779 71.9966 57.8488 72.127 58.4378 72.179L58.5256 71.1828C57.9305 71.1304 57.5187 71.0123 57.3043 70.6961L56.4766 71.2574ZM58.4379 72.179C59.416 72.2651 60.4054 72.2385 61.3601 72.172L61.2907 71.1744C60.362 71.2391 59.4305 71.2625 58.5256 71.1828L58.4379 72.179ZM61.3601 72.172C63.9491 71.9921 66.4777 71.3686 68.8164 70.3016L68.4014 69.3918C66.1765 70.4068 63.7655 71.0024 61.2907 71.1744L61.3601 72.172ZM68.3281 69.433C67.5345 69.9716 66.7159 70.4808 65.8886 70.9953L66.4167 71.8445C67.2411 71.3318 68.0768 70.8122 68.8897 70.2604L68.3281 69.433ZM65.8753 71.0039L65.8753 71.0039L66.43 71.8359L66.43 71.8359L65.8753 71.0039ZM65.8886 70.9953C65.4275 71.282 64.9638 71.5704 64.5044 71.8641L65.0431 72.7066C65.4963 72.4169 65.9547 72.1318 66.4167 71.8445L65.8886 70.9953ZM64.5047 71.8639L64.2827 72.0056L64.8208 72.8485L65.0428 72.7068L64.5047 71.8639ZM64.2828 72.0056C63.5603 72.4665 62.8109 72.9444 62.1051 73.465L62.6987 74.2698C63.3727 73.7727 64.0932 73.3128 64.8207 72.8486L64.2828 72.0056ZM62.105 73.4651C62.0292 73.521 61.922 73.589 61.7776 73.68L62.311 74.5259C62.444 74.442 62.5869 74.3523 62.6988 74.2697L62.105 73.4651ZM61.7776 73.68C61.5331 73.8342 61.2003 74.0426 60.9283 74.2836C60.674 74.5089 60.3571 74.8613 60.3398 75.3265L61.3391 75.3636C61.3402 75.3348 61.3739 75.2248 61.5915 75.032C61.7915 74.8548 62.052 74.6892 62.311 74.5259L61.7776 73.68ZM60.3398 75.3264C60.3279 75.6448 60.4366 75.9164 60.6251 76.1261C60.8018 76.3226 61.0295 76.4443 61.2368 76.5239C61.6439 76.6801 62.1265 76.7282 62.4163 76.7589L62.5217 75.7645C62.2036 75.7308 61.8576 75.691 61.595 75.5902C61.4675 75.5413 61.4 75.4922 61.3687 75.4575C61.3493 75.4359 61.3372 75.4158 61.3391 75.3637L60.3398 75.3264ZM62.3796 76.7536L62.3796 76.7536L62.5585 75.7698L62.5584 75.7698L62.3796 76.7536ZM62.4163 76.7589C62.4808 76.7658 62.5351 76.7715 62.5824 76.7773L62.7037 75.7847C62.6469 75.7778 62.5841 75.7711 62.5218 75.7645L62.4163 76.7589ZM62.5825 76.7773C62.9922 76.8274 63.3986 76.8422 63.7989 76.8345L63.7796 75.8347C63.4168 75.8417 63.0583 75.828 62.7037 75.7847L62.5825 76.7773ZM63.3865 76.631C63.5126 76.8023 63.6982 76.9178 63.9202 76.9616L64.1139 75.9806C64.1139 75.9806 64.1147 75.9807 64.1162 75.9812C64.1178 75.9816 64.1201 75.9823 64.1229 75.9834C64.1287 75.9857 64.1362 75.9892 64.1448 75.9945C64.1629 76.0057 64.1793 76.021 64.1919 76.0382L63.3865 76.631ZM63.9207 76.9617C65.9573 77.3617 68.2041 77.1768 70.169 76.914L70.0365 75.9228C68.0886 76.1833 65.9796 76.347 64.1134 75.9805L63.9207 76.9617ZM70.169 76.914C72.2733 76.6325 74.3403 76.1568 76.364 75.5504L76.077 74.5925C74.0944 75.1865 72.0795 75.6495 70.0364 75.9228L70.169 76.914ZM76.364 75.5504C78.4189 74.9348 80.4106 74.1471 82.3667 73.3226L81.9783 72.4012C80.0332 73.221 78.0803 73.9924 76.077 74.5925L76.364 75.5504ZM82.3668 73.3226C83.2978 72.93 84.2228 72.5251 85.1435 72.1122L84.7344 71.1998C83.819 71.6102 82.901 72.012 81.9782 72.4012L82.3668 73.3226ZM85.1435 72.1122C85.2881 72.0474 85.4364 71.9826 85.5891 71.9159L85.1887 70.9996C85.0368 71.0659 84.8841 71.1326 84.7343 71.1998L85.1435 72.1122ZM85.6125 71.9049L85.6125 71.9049L85.1653 71.0105L85.1653 71.0105L85.6125 71.9049ZM85.5891 71.9159C86.2011 71.6485 86.8853 71.3506 87.4934 70.9635L86.9564 70.1199C86.4252 70.4581 85.8143 70.7262 85.1887 70.9995L85.5891 71.9159ZM86.745 70.682C87.9354 74.7542 89.4947 78.6791 91.5701 82.4171L92.4444 81.9316C90.4103 78.2682 88.8778 74.4137 87.7048 70.4014L86.745 70.682ZM91.5701 82.4171C93.6797 86.2165 96.2864 90.598 100.561 92.602L100.986 91.6966C97.045 89.8492 94.5747 85.7684 92.4443 81.9316L91.5701 82.4171ZM100.561 92.602C104.666 94.5263 109.412 94.9163 113.823 94.0924L113.64 93.1094C109.402 93.9009 104.873 93.519 100.986 91.6966L100.561 92.602ZM113.738 93.1009C111.133 93.0686 108.101 92.7742 105.28 91.9712C102.454 91.167 99.8818 89.865 98.1417 87.8487L97.3846 88.5021C99.3003 90.7218 102.079 92.0999 105.006 92.933C107.938 93.7675 111.063 94.0678 113.725 94.1008L113.738 93.1009ZM98.1417 87.8487C96.7183 86.1994 95.4481 84.3711 94.2789 82.5143L93.4327 83.0471C94.6166 84.9274 95.9166 86.8011 97.3846 88.5021L98.1417 87.8487ZM94.2789 82.5143C91.7569 78.5093 89.7993 74.0852 88.6879 69.4959L87.716 69.7312C88.8556 74.4369 90.8594 78.9606 93.4327 83.0471L94.2789 82.5143ZM88.3389 70.0944C88.8358 69.9529 89.3083 69.76 89.754 69.5239L89.2858 68.6402C88.8995 68.8449 88.492 69.0111 88.065 69.1326L88.3389 70.0944ZM87.7441 68.8594C88.3106 69.0983 88.8396 69.3267 89.3167 69.5389L89.7231 68.6252C89.2389 68.4099 88.7039 68.1789 88.1327 67.9379L87.7441 68.8594ZM87.423 69.0705C87.6559 69.0154 87.8832 68.9483 88.1047 68.8702L87.7721 67.9271C87.5838 67.9935 87.3905 68.0506 87.1925 68.0975L87.423 69.0705ZM87.3638 69.1938C87.3599 69.1763 87.3619 69.1432 87.3813 69.1098C87.3995 69.0785 87.4179 69.0717 87.4232 69.0705L87.1923 68.0975C86.5846 68.2417 86.2669 68.8735 86.3881 69.4131L87.3638 69.1938ZM85.2631 70.4814C85.8625 70.2003 86.4368 69.9327 87.0005 69.7877L86.7514 68.8192C86.0807 68.9917 85.42 69.3033 84.8385 69.5761L85.2631 70.4814ZM85.3281 70.4448L85.3281 70.4448L84.7734 69.6127L84.7734 69.6128L85.3281 70.4448ZM84.6717 70.7538C84.8676 70.667 85.0667 70.5735 85.2631 70.4815L84.8384 69.5761C84.6403 69.6691 84.4509 69.7579 84.2664 69.8397L84.6717 70.7538ZM84.484 70.8371L84.6718 70.7538L84.2663 69.8397L84.0785 69.923L84.484 70.8371ZM81.8953 71.9658C82.7653 71.5996 83.6272 71.2172 84.484 70.8371L84.0785 69.923C83.2202 70.3038 82.3671 70.6822 81.5073 71.0441L81.8953 71.9658ZM76.1365 74.1384C78.0828 73.4865 80.0037 72.7621 81.8953 71.9658L81.5073 71.0441C79.639 71.8307 77.7415 72.5462 75.8189 73.1902L76.1365 74.1384ZM70.4081 75.6319C72.3581 75.2851 74.2701 74.7639 76.1366 74.1384L75.8189 73.1902C73.9881 73.8037 72.1245 74.3109 70.233 74.6473L70.4081 75.6319ZM68.8301 75.8734C69.3569 75.8047 69.8834 75.7252 70.4081 75.6319L70.233 74.6473C69.7254 74.7376 69.2143 74.8148 68.7007 74.8818L68.8301 75.8734ZM69.475 74.6504C69.1917 74.7333 68.9095 74.8159 68.6272 74.8971L68.9036 75.8581C69.1885 75.7761 69.4729 75.6929 69.7559 75.6101L69.475 74.6504ZM69.8889 74.5294C69.7508 74.5696 69.6128 74.61 69.475 74.6504L69.7559 75.6101C69.8937 75.5698 70.0313 75.5295 70.1687 75.4894L69.8889 74.5294ZM70.2606 74.4215C70.137 74.4573 70.0129 74.4932 69.8888 74.5294L70.1688 75.4894C70.2918 75.4535 70.415 75.4179 70.5387 75.382L70.2606 74.4215ZM70.2785 74.4167L70.2784 74.4167L70.5209 75.3868L70.521 75.3868L70.2785 74.4167ZM71.8029 73.9559C71.2965 74.1215 70.7833 74.2702 70.2607 74.4215L70.5388 75.382C71.0587 75.2315 71.5884 75.0782 72.1137 74.9064L71.8029 73.9559ZM72.022 73.8857C71.9495 73.9087 71.8756 73.9322 71.803 73.9559L72.1136 74.9064C72.1816 74.8842 72.2514 74.8621 72.3246 74.8388L72.022 73.8857ZM73.3954 73.2075C73.1086 73.5271 72.6258 73.694 72.022 73.8857L72.3246 74.8388C72.8611 74.6685 73.6367 74.4358 74.1397 73.8754L73.3954 73.2075ZM73.393 73.1098C73.4033 73.1095 73.4066 73.1109 73.4053 73.1105C73.404 73.1101 73.4017 73.1091 73.3997 73.1076C73.3958 73.1048 73.4009 73.1068 73.4063 73.1211C73.4119 73.136 73.4141 73.1547 73.4112 73.1723C73.4087 73.1883 73.4028 73.1993 73.3955 73.2074L74.1396 73.8755C74.4292 73.5529 74.4731 73.1156 74.3419 72.768C74.2047 72.4045 73.8574 72.0984 73.3692 72.1101L73.393 73.1098ZM72.109 73.4792C72.6044 73.2759 73.0029 73.1189 73.3928 73.1098L73.3695 72.1101C72.7616 72.1242 72.1879 72.3659 71.7295 72.554L72.109 73.4792ZM72.1049 73.4808L72.105 73.4808L71.7336 72.5523L71.7335 72.5523L72.1049 73.4808ZM71.4937 73.717C71.7049 73.6451 71.9147 73.5589 72.109 73.4792L71.7295 72.554C71.5298 72.6359 71.3487 72.71 71.1717 72.7702L71.4937 73.717ZM69.8526 74.2453C70.3963 74.0752 70.9469 73.9029 71.4936 73.717L71.1717 72.7702C70.6385 72.9515 70.0996 73.1202 69.5539 73.2909L69.8526 74.2453ZM69.8493 74.2463L69.8496 74.2462L69.5569 73.29L69.5566 73.2901L69.8493 74.2463ZM69.8523 74.2454L69.8529 74.2452L69.5531 73.2912L69.5525 73.2914L69.8523 74.2454ZM69.287 74.4229C69.4748 74.3635 69.6628 74.3047 69.8517 74.2456L69.5531 73.2912C69.3644 73.3503 69.1749 73.4095 68.9856 73.4694L69.287 74.4229ZM68.2695 74.7544C68.6113 74.6415 68.9491 74.5298 69.2871 74.4229L68.9855 73.4694C68.6404 73.5786 68.2964 73.6923 67.9556 73.805L68.2695 74.7544ZM64.8681 75.7112C66.0431 75.4913 67.1766 75.1157 68.2695 74.7544L67.9556 73.805C66.8518 74.1699 65.7819 74.5228 64.6841 74.7283L64.8681 75.7112ZM62.386 75.8794C63.2285 75.9502 64.0756 75.8597 64.8681 75.7112L64.684 74.7283C63.9406 74.8676 63.1903 74.9435 62.4698 74.8829L62.386 75.8794ZM61.7418 75.7857C61.9575 75.8356 62.1763 75.8673 62.3986 75.8803L62.4571 74.882C62.2914 74.8723 62.1284 74.8487 61.9672 74.8114L61.7418 75.7857ZM61.6242 75.7425C61.6299 75.7453 61.6345 75.7475 61.6371 75.7487C61.6383 75.7493 61.6393 75.7497 61.6395 75.7498C61.6399 75.75 61.6394 75.7498 61.6387 75.7495C61.6354 75.7479 61.624 75.7425 61.6097 75.7345L62.0993 74.8626C62.0825 74.8532 62.0689 74.8467 62.0634 74.8441C62.0621 74.8435 62.0611 74.843 62.0609 74.843C62.0605 74.8428 62.061 74.843 62.0616 74.8433C62.063 74.8439 62.0665 74.8456 62.071 74.8478L61.6242 75.7425ZM61.9801 74.6492C61.8687 74.7055 61.7056 74.7871 61.5666 74.8816L62.1286 75.7087C62.2042 75.6573 62.3061 75.6049 62.4314 75.5416L61.9801 74.6492ZM61.9577 74.6612L61.9577 74.6612L62.4538 75.5295L62.4538 75.5295L61.9577 74.6612ZM62.1347 74.5686C62.0973 74.5898 62.0484 74.6146 61.9802 74.6491L62.4314 75.5416C62.4931 75.5104 62.5656 75.4738 62.6282 75.4383L62.1347 74.5686ZM62.9475 74.1078C62.6766 74.2611 62.4053 74.4147 62.1343 74.5688L62.6286 75.4381C62.8986 75.2845 63.1691 75.1314 63.4401 74.978L62.9475 74.1078ZM62.9481 74.1074L62.9473 74.1079L63.4403 74.9779L63.4411 74.9774L62.9481 74.1074ZM62.9496 74.1066L62.9494 74.1067L63.4399 74.9781L63.4401 74.978L62.9496 74.1066ZM65.3169 72.7487C64.5345 73.2095 63.7435 73.6572 62.9485 74.1072L63.4411 74.9774C64.2349 74.5282 65.0333 74.0762 65.8244 73.6104L65.3169 72.7487ZM66.2451 72.2103C65.9347 72.3891 65.6236 72.5682 65.317 72.7487L65.8243 73.6104C66.1261 73.4328 66.4329 73.2561 66.7441 73.0769L66.2451 72.2103ZM66.2374 72.2148L66.2373 72.2149L66.7518 73.0724L66.7519 73.0723L66.2374 72.2148ZM66.309 72.1793L66.309 72.1793L66.6804 73.1078L66.6804 73.1078L66.309 72.1793ZM70.3407 69.4612C69.1532 70.5336 67.7075 71.3683 66.2452 72.2103L66.7442 73.0769C68.1887 72.2451 69.7308 71.3595 71.0109 70.2034L70.3407 69.4612ZM71.5684 68.0072C71.2025 68.534 70.7905 69.0549 70.3406 69.4613L71.011 70.2033C71.5425 69.7232 72.0048 69.1318 72.3897 68.5777L71.5684 68.0072ZM71.6554 67.8848C71.6263 67.9254 71.5959 67.9676 71.5684 68.0072L72.3897 68.5777C72.4117 68.546 72.4371 68.5107 72.4674 68.4685L71.6554 67.8848ZM71.9932 67.3348C71.9249 67.5054 71.795 67.6906 71.6554 67.8848L72.4674 68.4685C72.5921 68.295 72.7999 68.0104 72.9216 67.7065L71.9932 67.3348ZM72.105 66.9882C72.1319 66.9699 72.144 66.9684 72.1407 66.9691C72.1366 66.9699 72.1268 66.9704 72.1157 66.9674C72.0949 66.9618 72.1038 66.9554 72.1219 66.9847C72.1397 67.0134 72.1494 67.0517 72.147 67.0858C72.145 67.1137 72.1356 67.1366 72.1122 67.1589L72.8026 67.8824C73.2462 67.459 73.2137 66.8489 72.9724 66.4586C72.8477 66.2571 72.6461 66.0743 72.3748 66.0015C72.0908 65.9254 71.7972 65.9879 71.5419 66.1618L72.105 66.9882ZM62.7706 70.7249C66.1201 70.2094 69.3199 68.8852 72.1049 66.9883L71.542 66.1618C68.8704 67.9814 65.8095 69.2454 62.6185 69.7365L62.7706 70.7249ZM60.3049 70.9414C61.1287 70.9203 61.9531 70.8507 62.7706 70.7249L62.6185 69.7365C61.846 69.8554 61.064 69.9216 60.2793 69.9417L60.3049 70.9414ZM59.1123 70.9374C59.5095 70.95 59.9073 70.9514 60.3048 70.9414L60.2794 69.9417C59.9012 69.9513 59.5224 69.9499 59.144 69.9379L59.1123 70.9374ZM58.9774 70.939C59.0489 70.9374 59.0888 70.9367 59.1122 70.9374L59.1441 69.9379C59.087 69.9361 59.0147 69.9379 58.9551 69.9392L58.9774 70.939ZM57.6884 69.784C57.5823 69.9737 57.5013 70.2656 57.6771 70.5441C57.8214 70.7726 58.061 70.8521 58.187 70.8844C58.4607 70.9545 58.8087 70.9428 58.9774 70.939L58.9551 69.9392C58.8579 69.9414 58.7564 69.9436 58.6573 69.94C58.5544 69.9363 58.4801 69.9272 58.435 69.9156C58.4135 69.9101 58.4143 69.9079 58.4278 69.9155C58.4416 69.9232 58.4849 69.9504 58.5226 70.0102C58.5648 70.0769 58.5787 70.1507 58.5738 70.2113C58.5696 70.263 58.5536 70.2857 58.5612 70.2721L57.6884 69.784ZM59.1426 69.3872C58.9455 68.9276 58.9455 68.9277 58.9454 68.9277C58.9454 68.9277 58.9454 68.9277 58.9453 68.9277C58.9452 68.9278 58.9451 68.9278 58.945 68.9279C58.9448 68.928 58.9445 68.9281 58.9442 68.9282C58.9435 68.9285 58.9427 68.9289 58.9416 68.9294C58.9394 68.9303 58.9365 68.9316 58.9327 68.9332C58.9253 68.9364 58.9148 68.9411 58.9016 68.9469C58.8752 68.9587 58.838 68.9755 58.7932 68.9965C58.704 69.0381 58.582 69.0973 58.4535 69.1663C58.3268 69.2343 58.1842 69.3171 58.058 69.4066C57.9499 69.4833 57.785 69.6114 57.6885 69.7839L58.5612 70.2722C58.5399 70.3102 58.5398 70.2909 58.6366 70.2222C58.7154 70.1664 58.8178 70.1057 58.9268 70.0472C59.0339 69.9896 59.1382 69.939 59.2163 69.9025C59.2551 69.8844 59.2868 69.8701 59.3085 69.8604C59.3193 69.8556 59.3275 69.852 59.3329 69.8497C59.3355 69.8485 59.3375 69.8477 59.3386 69.8472C59.3392 69.8469 59.3396 69.8468 59.3397 69.8467C59.3398 69.8466 59.3398 69.8466 59.3398 69.8466C59.3398 69.8466 59.3398 69.8466 59.3398 69.8467C59.3398 69.8467 59.3397 69.8467 59.3397 69.8467C59.3397 69.8467 59.3396 69.8467 59.1426 69.3872ZM68.8776 62.1833C66.925 63.6493 64.4264 65.3436 62.4109 66.6744C61.4042 67.3392 60.52 67.9119 59.8876 68.3184C59.5714 68.5216 59.3182 68.6833 59.1441 68.794C59.0571 68.8494 58.9899 68.8921 58.9445 68.9208C58.9218 68.9352 58.9045 68.9462 58.893 68.9535C58.8872 68.9571 58.8829 68.9598 58.88 68.9617C58.8785 68.9626 58.8775 68.9633 58.8767 68.9637C58.8764 68.9639 58.8761 68.9641 58.876 68.9642C58.8759 68.9643 58.8758 68.9643 58.8758 68.9643C58.8757 68.9644 58.8757 68.9644 59.1426 69.3872C59.4095 69.81 59.4095 69.81 59.4095 69.81C59.4096 69.8099 59.4097 69.8099 59.4098 69.8098C59.41 69.8097 59.4103 69.8095 59.4107 69.8092C59.4114 69.8088 59.4126 69.808 59.4141 69.8071C59.4171 69.8052 59.4216 69.8024 59.4275 69.7986C59.4393 69.7912 59.4568 69.7801 59.4797 69.7655C59.5257 69.7364 59.5935 69.6934 59.681 69.6377C59.8562 69.5262 60.1107 69.3637 60.4283 69.1596C61.0634 68.7514 61.9511 68.1764 62.9619 67.5089C64.9815 66.1754 67.5005 64.4677 69.478 62.983L68.8776 62.1833ZM67.24 62.8524C67.8781 62.9171 68.5016 62.9932 69.1083 63.0783L69.2472 62.088C68.6283 62.0012 67.9922 61.9236 67.341 61.8575L67.24 62.8524ZM73.0344 58.9751C72.4006 58.8617 71.7802 58.7558 71.182 58.6578L71.0203 59.6447C71.614 59.7419 72.2296 59.847 72.8583 59.9594L73.0344 58.9751ZM75.6183 53.7603C74.1456 55.5417 72.4827 57.2253 70.7655 58.7807L71.4368 59.5218C73.1809 57.9421 74.879 56.224 76.389 54.3975L75.6183 53.7603ZM71.5555 45.69C71.4431 47.4811 71.6999 48.998 72.3878 50.4172C73.0717 51.8277 74.1651 53.1074 75.6706 54.4519L76.3367 53.706C74.8812 52.4062 73.8922 51.2278 73.2877 49.9809C72.6874 48.7426 72.45 47.4028 72.5535 45.7526L71.5555 45.69ZM76.2051 46.096C75.0359 45.4949 74.0207 44.9704 73.2894 44.7568C72.937 44.654 72.53 44.584 72.1788 44.723C71.7483 44.8935 71.5807 45.2887 71.5555 45.69L72.5535 45.7526C72.5647 45.5742 72.6077 45.6288 72.547 45.6528C72.5467 45.6529 72.5545 45.6498 72.5743 45.6475C72.5943 45.6451 72.6237 45.644 72.6646 45.6468C72.7483 45.6526 72.8614 45.6736 73.0091 45.7168C73.6248 45.8965 74.5343 46.3614 75.7479 46.9853L76.2051 46.096ZM76.2061 46.0965L76.206 46.0964L75.7469 46.9848L75.747 46.9849L76.2061 46.0965ZM77.9785 46.9932C77.3448 46.6819 76.7529 46.3776 76.2051 46.096L75.7479 46.9854C76.2949 47.2665 76.8945 47.5748 77.5375 47.8907L77.9785 46.9932ZM92.2919 53.5708C87.2986 51.4297 82.0257 48.9819 77.9785 46.9932L77.5375 47.8907C81.5991 49.8864 86.8876 52.3415 91.8978 54.4899L92.2919 53.5708ZM92.8344 53.4913C92.4512 53.3535 92.0767 53.4144 91.7908 53.6334L92.3988 54.4273C92.4071 54.421 92.4125 54.4192 92.4184 54.4184C92.4244 54.4175 92.4485 54.4152 92.4961 54.4323L92.8344 53.4913ZM97.6033 55.442C96.0307 54.7059 94.4241 54.0626 92.8344 53.4913L92.4962 54.4324C94.0634 54.9955 95.6405 55.6273 97.1794 56.3477L97.6033 55.442ZM106.181 60.2981C105.352 59.485 103.985 58.6003 102.459 57.7629C100.922 56.9196 99.1851 56.1034 97.5844 55.4336L97.1984 56.3561C98.7731 57.0151 100.478 57.8163 101.978 58.6396C103.489 59.4687 104.754 60.2998 105.481 61.0122L106.181 60.2981ZM111.445 53.7893C109.779 56.2966 107.859 58.4159 105.521 60.2628L106.141 61.0475C108.566 59.1316 110.557 56.9328 112.278 54.3427L111.445 53.7893ZM105.959 62.6049C107.34 62.0187 109.154 60.4211 110.496 58.757C111.173 57.9178 111.755 57.0317 112.11 56.2098C112.452 55.4157 112.637 54.5554 112.316 53.8569L111.407 54.2751C111.541 54.5664 111.51 55.076 111.191 55.8136C110.885 56.5235 110.362 57.331 109.718 58.1292C108.419 59.7398 106.729 61.1917 105.568 61.6844L105.959 62.6049ZM104.533 62.1284C104.777 62.5999 105.357 62.8605 105.959 62.6048L105.568 61.6844C105.531 61.7002 105.505 61.7041 105.489 61.7047C105.473 61.7053 105.463 61.7029 105.456 61.7004C105.442 61.6953 105.429 61.6843 105.421 61.668L104.533 62.1284ZM103.015 61.2778C103.579 61.6276 104.146 61.9788 104.717 62.3255L105.236 61.4709C104.67 61.1268 104.107 60.7779 103.541 60.4277L103.015 61.2778ZM102.053 60.6836C102.374 60.8809 102.694 61.0791 103.015 61.2778L103.541 60.4277C103.221 60.2291 102.9 60.0302 102.578 59.8321L102.053 60.6836ZM100.788 59.9135C101.221 60.1861 101.65 60.4502 102.065 60.6905L102.566 59.8252C102.166 59.5936 101.748 59.3366 101.321 59.0673L100.788 59.9135ZM98.776 58.7554C99.4573 59.1287 100.129 59.519 100.797 59.9193L101.311 59.0615C100.636 58.6568 99.9523 58.2596 99.2566 57.8784L98.776 58.7554ZM93.6335 56.3397C95.396 57.0409 97.1135 57.8447 98.7761 58.7554L99.2565 57.8784C97.5569 56.9473 95.8022 56.1263 94.0031 55.4106L93.6335 56.3397ZM94.6543 58.5862C94.6056 57.7102 94.5508 56.6944 94.3019 55.748L93.3348 56.0023C93.5536 56.8341 93.6061 57.7468 93.6559 58.6418L94.6543 58.5862ZM94.6654 58.7836L94.6543 58.586L93.6559 58.642L93.6669 58.8396L94.6654 58.7836ZM94.0827 64.1176C94.6426 62.3874 94.7656 60.5487 94.6654 58.7832L93.667 58.8399C93.7627 60.526 93.6416 62.2328 93.1313 63.8097L94.0827 64.1176ZM93.1615 66.1691C93.544 65.5187 93.8534 64.8264 94.0827 64.1176L93.1313 63.8098C92.9241 64.45 92.6446 65.0754 92.2995 65.662L93.1615 66.1691ZM92.9276 65.456C92.5291 65.2851 92.121 65.1125 91.7064 64.9387L91.3198 65.861C91.7325 66.0339 92.138 66.2055 92.5334 66.3751L92.9276 65.456ZM91.9404 65.6594C92.3012 65.0657 92.5898 64.4262 92.7993 63.7633L91.8458 63.462C91.66 64.0499 91.4042 64.616 91.0858 65.1402L91.9404 65.6594ZM92.7993 63.7633C93.2566 62.316 93.3791 60.8164 93.3269 59.3411L92.3275 59.3765C92.377 60.7755 92.2589 62.1545 91.8458 63.462L92.7993 63.7633ZM93.3269 59.3411C93.2992 58.5617 93.2253 57.7845 93.1141 57.0158L92.1244 57.159C92.231 57.8954 92.3013 58.6365 92.3275 59.3766L93.3269 59.3411ZM93.1143 57.0169L93.0953 56.8836L92.1052 57.0245L92.1242 57.1579L93.1143 57.0169ZM93.0953 56.884C93.0407 56.4979 92.9761 56.0277 92.8165 55.5897L91.877 55.9323C91.9945 56.2546 92.0478 56.6182 92.1052 57.0241L93.0953 56.884ZM92.4942 55.2832C91.2084 54.8863 89.9588 54.2799 88.6917 53.664L88.2545 54.5633C89.5088 55.1731 90.8276 55.8153 92.1992 56.2387L92.4942 55.2832ZM88.6905 53.6634L88.69 53.6631L88.2552 54.5637L88.2557 54.5639L88.6905 53.6634ZM88.6912 53.6637C88.3935 53.519 88.0949 53.3739 87.7971 53.2322L87.3676 54.1352C87.6609 54.2748 87.9557 54.4181 88.254 54.5631L88.6912 53.6637ZM87.7971 53.2322C86.1884 52.467 84.5848 51.6908 82.987 50.9033L82.5449 51.8003C84.147 52.5899 85.7548 53.3681 87.3675 54.1352L87.7971 53.2322ZM82.987 50.9033C79.9457 49.4044 76.93 47.853 73.9326 46.2652L73.4645 47.1488C76.4689 48.7404 79.4934 50.2963 82.5449 51.8003L82.987 50.9033ZM73.2078 46.611C72.8504 48.4389 73.731 50.1855 74.8673 51.4706L75.6165 50.8083C74.5767 49.6322 73.9174 48.1932 74.1893 46.803L73.2078 46.611ZM74.8672 51.4706C75.4555 52.1362 76.1156 52.7214 76.7503 53.2825L77.4126 52.5333C76.7718 51.9668 76.1577 51.4207 75.6165 50.8083L74.8672 51.4706ZM76.7504 53.2826C77.0069 53.5093 77.1888 53.7027 77.2845 53.8919C77.3651 54.0514 77.3889 54.2132 77.2962 54.4363L78.2197 54.82C78.4321 54.3087 78.3798 53.842 78.1769 53.4407C77.9891 53.0693 77.6801 52.7697 77.4125 52.5332L76.7504 53.2826ZM77.2962 54.4362C77.144 54.8025 76.7766 55.1531 76.3302 55.5638L77.0072 56.2998C77.4056 55.9332 77.966 55.4304 78.2197 54.82L77.2962 54.4362ZM76.3302 55.5638C76.1955 55.6877 76.0545 55.8172 75.9274 55.9451L76.6368 56.6499C76.7451 56.5409 76.8687 56.4271 77.0072 56.2998L76.3302 55.5638ZM75.9274 55.9451C75.3247 56.5517 74.7129 57.149 74.092 57.7366L74.7793 58.4629C75.4078 57.8682 76.027 57.2637 76.6368 56.65L75.9274 55.9451ZM74.092 57.7366C73.6059 58.1965 73.113 58.6487 72.6136 59.0941L73.2791 59.8404C73.7856 59.3888 74.2858 58.9299 74.7793 58.4629L74.092 57.7366ZM113.823 94.0924C113.915 94.0753 114.006 94.0577 114.097 94.0396L113.902 93.0588C113.815 93.0761 113.727 93.093 113.64 93.1094L113.823 94.0924Z" fill="#31394D"/>
<path d="M6.80599 27.6716L6.10233 31.739C5.77618 33.6242 7.43183 35.2557 9.31208 34.9019C9.57593 34.8522 9.84564 34.8416 10.1126 34.8703L17.2022 35.6327L28.3336 37.8484L29.8807 38.3864C32.2948 39.226 34.3016 36.3816 32.7011 34.3887C32.4547 34.0819 32.2828 33.7221 32.1989 33.3377L31.4963 30.1183C31.2497 28.9883 30.3754 28.1006 29.2491 27.837L28.0193 27.5491C26.594 27.2154 25.6176 25.9018 25.7089 24.4409L26.2967 15.0388C26.3565 14.0824 25.597 13.2739 24.6387 13.2739C24.2593 13.2739 23.8912 13.4038 23.5958 13.6421L18.4125 17.8227C18.1779 18.012 17.973 18.2356 17.805 18.4859L15.8766 21.359C15.6221 21.7383 15.2843 22.0544 14.889 22.2833L13.6028 23.0281C13.0444 23.3514 12.3599 23.3688 11.7859 23.0741C10.9591 22.6498 9.94664 22.8869 9.39419 23.6341L7.34973 26.3996C7.07186 26.7755 6.88567 27.211 6.80599 27.6716Z" fill="#FFE4E2"/>
<path d="M4.94727 34.6596C6.42788 25.0728 9.63587 17.4526 12.1036 18.9275C14.5712 20.4024 15.0648 20.8941 18.026 15.9778C20.9872 11.0615 29.1306 4.91619 30.1177 7.86595C31.1047 10.8157 26.1694 25.073 31.1047 25.073C36.0401 25.073 34.8063 25.5646 36.0401 29.006C37.274 32.4474 43.1964 41.0508 49.8591 44.2464" stroke="#31394D" stroke-width="2"/>
<path d="M5.42969 34.6597C6.9103 25.073 9.63632 17.4527 12.104 18.9275C14.5717 20.4024 15.5588 20.8941 18.52 15.9778C21.4812 11.0615 28.6375 5.40783 29.6246 8.35759C30.6117 11.3073 26.1698 25.073 31.1052 25.073C36.0406 25.073 34.3132 25.5646 35.547 29.006C36.7809 32.4474 43.1969 41.0508 49.8596 44.2464" stroke="#31394D" stroke-width="3"/>
<mask id="path-7-inside-1" fill="white">
<path fill-rule="evenodd" clip-rule="evenodd" d="M51.7056 63.7936C53.0727 63.4686 53.3942 63.0276 53.4559 62.8428C53.5177 62.658 53.5258 62.1131 52.6271 61.0366C51.7727 60.0133 50.3334 58.8088 48.3397 57.5127C44.3714 54.9329 38.518 52.1896 31.7241 49.9364C24.9302 47.6832 18.5941 46.384 13.8654 46.0794C11.4896 45.9264 9.61277 46.031 8.31309 46.34C6.94599 46.665 6.62453 47.106 6.56278 47.2908C6.50103 47.4755 6.33704 48.4869 7.23574 49.5634C8.09012 50.5867 9.52945 51.7912 11.5231 53.0872C15.4914 55.667 21.8491 58.5776 28.643 60.8308C35.4368 63.084 41.4246 63.7496 46.1534 64.0542C48.5291 64.2072 50.4059 64.1026 51.7056 63.7936ZM27.827 61.5964C41.6116 66.168 53.7633 66.9507 54.9686 63.3445C56.1739 59.7383 45.9764 53.1089 32.1917 48.5372C30.4782 47.9689 28.2955 47.1545 26.6503 46.7045C24.804 46.1995 23.5065 46.0742 21.7941 45.7212C12.7575 43.8581 5.93743 44.1343 5.0501 46.7891C3.8448 50.3953 14.0424 57.0247 27.827 61.5964Z"/>
</mask>
<path fill-rule="evenodd" clip-rule="evenodd" d="M51.7056 63.7936C53.0727 63.4686 53.3942 63.0276 53.4559 62.8428C53.5177 62.658 53.5258 62.1131 52.6271 61.0366C51.7727 60.0133 50.3334 58.8088 48.3397 57.5127C44.3714 54.9329 38.518 52.1896 31.7241 49.9364C24.9302 47.6832 18.5941 46.384 13.8654 46.0794C11.4896 45.9264 9.61277 46.031 8.31309 46.34C6.94599 46.665 6.62453 47.106 6.56278 47.2908C6.50103 47.4755 6.33704 48.4869 7.23574 49.5634C8.09012 50.5867 9.52945 51.7912 11.5231 53.0872C15.4914 55.667 21.8491 58.5776 28.643 60.8308C35.4368 63.084 41.4246 63.7496 46.1534 64.0542C48.5291 64.2072 50.4059 64.1026 51.7056 63.7936ZM27.827 61.5964C41.6116 66.168 53.7633 66.9507 54.9686 63.3445C56.1739 59.7383 45.9764 53.1089 32.1917 48.5372C30.4782 47.9689 28.2955 47.1545 26.6503 46.7045C24.804 46.1995 23.5065 46.0742 21.7941 45.7212C12.7575 43.8581 5.93743 44.1343 5.0501 46.7891C3.8448 50.3953 14.0424 57.0247 27.827 61.5964Z" fill="#31394D"/>
<path d="M20.791 50.6181L25.6472 51.6014L27.6534 41.8076L22.7972 40.8243L20.791 50.6181ZM51.7056 63.7936L54.0059 73.5148L54.0059 73.5148L51.7056 63.7936ZM52.6271 61.0366L60.3181 54.6291L60.3181 54.6291L52.6271 61.0366ZM48.3397 57.5127L42.8691 65.8905L48.3397 57.5127ZM13.8654 46.0794L14.5279 36.1071L13.8654 46.0794ZM8.31309 46.34L6.0128 36.6188L6.0128 36.6188L8.31309 46.34ZM7.23574 49.5634L-0.455256 55.9709L-0.455254 55.9709L7.23574 49.5634ZM11.5231 53.0872L6.05254 61.465L6.05254 61.465L11.5231 53.0872ZM46.1534 64.0542L45.4908 74.0265L46.1534 64.0542ZM21.7941 45.7212L19.7533 55.508L21.7941 45.7212ZM26.6503 46.7045L29.3108 37.0662L26.6503 46.7045ZM43.9643 59.6949C44.8121 57.1583 46.4434 55.6841 47.4951 54.9775C48.5406 54.2751 49.345 54.0868 49.4053 54.0725L54.0059 73.5148C56.2384 72.984 61.165 71.3241 62.9476 65.9907L43.9643 59.6949ZM44.9361 67.4442C44.8964 67.3967 44.3659 66.7657 43.9517 65.5791C43.5351 64.3856 43.1165 62.2316 43.9643 59.6949L62.9476 65.9907C64.7301 60.6573 61.7857 56.3869 60.3181 54.6291L44.9361 67.4442ZM42.8691 65.8905C43.6117 66.3733 44.1543 66.7768 44.5255 67.0833C44.9162 67.4058 45.0104 67.5332 44.9361 67.4442L60.3181 54.6291C58.5559 52.5184 56.19 50.682 53.8103 49.135L42.8691 65.8905ZM28.5542 59.4207C34.7788 61.4851 39.8031 63.8973 42.8691 65.8905L53.8103 49.135C48.9397 45.9686 42.2571 42.8941 34.894 40.4521L28.5542 59.4207ZM13.2028 56.0517C16.8563 56.287 22.3295 57.3563 28.5542 59.4207L34.894 40.4521C27.5309 38.0102 20.3319 36.4809 14.5279 36.1071L13.2028 56.0517ZM10.6134 56.0611C10.5004 56.088 10.6524 56.0423 11.1592 56.0174C11.6408 55.9937 12.3179 55.9947 13.2028 56.0517L14.5279 36.1071C11.6923 35.9244 8.69338 35.9816 6.0128 36.6188L10.6134 56.0611ZM16.0544 50.4387C15.2066 52.9753 13.5753 54.4495 12.5236 55.1561C11.4781 55.8585 10.6737 56.0468 10.6134 56.0611L6.0128 36.6188C3.78029 37.1496 -1.14626 38.8095 -2.92884 44.1429L16.0544 50.4387ZM14.9267 43.1558C15.7139 44.0986 16.2332 45.2867 16.4284 46.5463C16.5204 47.1398 16.5367 47.7206 16.4961 48.2784C16.4639 48.7209 16.3726 49.4867 16.0544 50.4387L-2.92884 44.1429C-3.927 47.1294 -3.87883 51.8702 -0.455256 55.9709L14.9267 43.1558ZM16.9937 44.7095C16.2511 44.2267 15.7085 43.8232 15.3373 43.5167C14.9466 43.1942 14.8525 43.0668 14.9267 43.1558L-0.455254 55.9709C1.3069 58.0816 3.67288 59.918 6.05254 61.465L16.9937 44.7095ZM31.8129 51.3465C25.5214 49.26 20.0166 46.6747 16.9937 44.7095L6.05254 61.465C10.9663 64.6594 18.1768 67.8953 25.473 70.3151L31.8129 51.3465ZM46.8159 54.0819C42.52 53.8052 37.4747 53.2243 31.8129 51.3465L25.473 70.3151C33.3989 72.9437 40.3292 73.6941 45.4908 74.0265L46.8159 54.0819ZM49.4053 54.0725C49.5183 54.0456 49.3663 54.0913 48.8595 54.1162C48.378 54.1399 47.7008 54.1389 46.8159 54.0819L45.4908 74.0265C48.3265 74.2092 51.3253 74.152 54.0059 73.5148L49.4053 54.0725ZM45.477 60.1966C46.1956 58.0467 47.5838 56.7763 48.4954 56.1715C48.9368 55.8787 49.2999 55.7146 49.5103 55.631C49.7241 55.5459 49.8507 55.5161 49.8574 55.5145C49.8675 55.5121 49.8032 55.5276 49.6506 55.5473C49.5001 55.5668 49.2891 55.587 49.0117 55.6006C48.4495 55.6283 47.7068 55.6247 46.7776 55.5648C42.9411 55.3177 37.32 54.2091 30.9969 52.1121L24.657 71.0807C32.1186 73.5553 39.4656 75.1238 45.4525 75.5094C48.3691 75.6973 51.5535 75.6472 54.458 74.9567C56.7376 74.4148 62.4177 72.6034 64.4602 66.4924L45.477 60.1966ZM29.0218 58.0215C35.3449 60.1185 40.5113 62.5876 43.7308 64.6806C44.5106 65.1876 45.1072 65.6281 45.5406 65.986C45.7544 66.1625 45.9112 66.3047 46.0199 66.4101C46.1302 66.517 46.1723 66.5678 46.1657 66.5599C46.1613 66.5546 46.0779 66.4551 45.9579 66.2594C45.8399 66.0668 45.648 65.7187 45.4709 65.2207C45.1051 64.1923 44.7584 62.3465 45.477 60.1966L64.4602 66.4924C66.5027 60.3814 63.0462 55.5397 61.5477 53.7448C59.6383 51.4579 57.1196 49.5164 54.672 47.9251C49.6479 44.659 42.8232 41.5275 35.3617 39.0529L29.0218 58.0215ZM30.9969 52.1121C24.6738 50.0151 19.5074 47.546 16.2879 45.4529C15.5081 44.946 14.9115 44.5055 14.4781 44.1476C14.2643 43.9711 14.1075 43.8289 13.9988 43.7235C13.8885 43.6166 13.8464 43.5657 13.853 43.5737C13.8574 43.579 13.9408 43.6785 14.0608 43.8742C14.1788 44.0668 14.3707 44.4149 14.5478 44.9129C14.9136 45.9413 15.2603 47.7871 14.5417 49.937L-4.44152 43.6412C-6.48401 49.7522 -3.02749 54.5939 -1.52896 56.3888C0.38038 58.6757 2.89911 60.6172 5.34674 62.2085C10.3708 65.4746 17.1955 68.606 24.657 71.0807L30.9969 52.1121ZM14.5417 49.937C13.4641 53.1612 11.012 54.2969 10.5464 54.4873C10.0132 54.7053 9.9995 54.5901 10.9183 54.5377C12.6618 54.4382 15.6836 54.6689 19.7533 55.508L23.835 35.9344C18.868 34.9103 13.9615 34.3476 9.81398 34.5841C7.78721 34.6998 5.33737 35.0349 2.99342 35.9932C0.717077 36.9238 -2.92021 39.0896 -4.44152 43.6412L14.5417 49.937ZM19.7533 55.508C22.6668 56.1086 22.4261 55.9151 23.9898 56.3428L29.3108 37.0662C27.182 36.4839 24.3462 36.0398 23.835 35.9344L19.7533 55.508ZM23.9898 56.3428C25.3164 56.7057 26.6968 57.2504 29.0218 58.0215L35.3617 39.0529C34.2595 38.6874 31.2746 37.6034 29.3108 37.0662L23.9898 56.3428Z" fill="#31394D" mask="url(#path-7-inside-1)"/>
<path fill-rule="evenodd" clip-rule="evenodd" d="M45.2427 61.7843C46.2169 61.5941 46.4389 61.3065 46.4796 61.1847C46.5203 61.0629 46.5157 60.7001 45.8504 59.9662C45.218 59.2684 44.1625 58.4389 42.7078 57.5378C39.8122 55.7441 35.5616 53.8054 30.646 52.1752C25.7304 50.5449 21.1615 49.5586 17.7644 49.2653C16.0577 49.118 14.7138 49.1518 13.7877 49.3327C12.8135 49.5229 12.5915 49.8104 12.5508 49.9323C12.5101 50.0541 12.4119 50.7244 13.0772 51.4584C13.7096 52.1561 14.7651 52.9856 16.2198 53.8868C19.1153 55.6805 23.7308 57.7401 28.6464 59.3704C33.562 61.0006 37.8689 61.5584 41.266 61.8516C42.9727 61.999 44.3166 61.9652 45.2427 61.7843ZM28.076 59.8645C38.0496 63.1723 46.7792 63.9258 47.5741 61.5477C48.369 59.1695 40.9281 54.5602 30.9544 51.2525C20.9808 47.9447 12.2512 47.1911 11.4563 49.5693C10.6614 51.9474 18.1023 56.5568 28.076 59.8645Z" fill="#31394D"/>
<path fill-rule="evenodd" clip-rule="evenodd" d="M37.8101 59.5871C38.328 59.54 38.4368 59.4221 38.4542 59.3702C38.4715 59.3182 38.4553 59.1589 38.0691 58.812C37.702 58.4822 37.1019 58.0788 36.2839 57.629C34.6558 56.7338 32.2918 55.7243 29.5811 54.8253C26.8704 53.9263 24.3707 53.3228 22.5288 53.0672C21.6034 52.9387 20.8803 52.9033 20.388 52.9481C19.8701 52.9952 19.7613 53.113 19.7439 53.165C19.7266 53.2169 19.6989 53.5074 20.0851 53.8543C20.4523 54.1841 21.0523 54.5875 21.8703 55.0373C23.4985 55.9325 26.0636 57.0087 28.7743 57.9077C31.4851 58.8067 33.8274 59.2124 35.6693 59.468C36.5947 59.5964 37.3178 59.6318 37.8101 59.5871ZM28.4855 58.1032C33.9855 59.9273 38.7189 60.5841 39.0577 59.5704C39.3966 58.5566 35.2126 56.256 29.7126 54.4319C24.2126 52.6079 19.4792 51.951 19.1404 52.9648C18.8015 53.9786 22.9855 56.2792 28.4855 58.1032Z" fill="#31394D" stroke="#31394D"/>
<path d="M5.54662 47.5917C3.84953 45.1092 2.46208 38.5532 3.29711 36.0549C4.68902 31.8903 19.2692 32.9756 35.8629 38.4789C52.4566 43.9821 64.78 51.8194 63.3881 55.9839C62.6888 58.0765 58.8181 62.314 54.2265 63.905" stroke="#31394D" stroke-width="2" stroke-linecap="round"/>
<path d="M5.54779 46.1167C3.8507 43.6342 2.95679 39.0447 3.79182 36.5464C4.93915 33.1136 14.7119 32.9138 27.4044 36.0317C30.11 36.6964 32.9483 38.0034 35.8641 38.9704C41.8604 40.9591 47.2346 42.7609 51.5877 45.0757C59.281 49.1666 63.7847 53.3242 62.8958 55.9838C62.1964 58.0764 58.8193 62.3139 54.2277 63.9049" stroke="#31394D" stroke-width="4" stroke-linecap="round"/>
<path d="M57.5088 62.2808C78.1414 60.2873 95.1175 73.2451 96.9457 72.7467C98.7739 72.2483 99.2963 71.0024 98.7739 69.0088C84.0206 60.3753 68.727 58.427 61.8295 58.5058" stroke="#31394D" stroke-width="2" stroke-linecap="round" stroke-linejoin="round"/>
<path d="M57.5088 62.2809C78.1414 60.2874 95.6111 72.7535 97.4393 72.2551C98.4724 71.9735 99.2963 71.0024 98.7739 69.0089C84.0206 60.3753 69.2206 57.9354 62.323 58.0143" stroke="#31394D" stroke-width="3" stroke-linecap="round" stroke-linejoin="round"/>
<mask id="path-15-inside-2" fill="white">
<ellipse cx="37.2736" cy="19.1734" rx="1.48061" ry="1.47488"/>
</mask>
<path d="M36.7542 19.1734C36.7542 18.8761 36.9941 18.6483 37.2736 18.6483V22.6483C39.1885 22.6483 40.7542 21.0999 40.7542 19.1734H36.7542ZM37.2736 18.6483C37.5531 18.6483 37.793 18.8761 37.793 19.1734H33.793C33.793 21.0999 35.3586 22.6483 37.2736 22.6483V18.6483ZM37.793 19.1734C37.793 19.4708 37.5531 19.6986 37.2736 19.6986V15.6986C35.3586 15.6986 33.793 17.247 33.793 19.1734H37.793ZM37.2736 19.6986C36.9941 19.6986 36.7542 19.4708 36.7542 19.1734H40.7542C40.7542 17.247 39.1885 15.6986 37.2736 15.6986V19.6986Z" fill="#31394D" mask="url(#path-15-inside-2)"/>
<mask id="path-17-inside-3" fill="white">
<ellipse cx="22.4679" cy="18.1902" rx="1.48061" ry="1.47488"/>
</mask>
<path d="M21.9485 18.1902C21.9485 17.8929 22.1884 17.6651 22.4679 17.6651V21.6651C24.3829 21.6651 25.9485 20.1166 25.9485 18.1902H21.9485ZM22.4679 17.6651C22.7474 17.6651 22.9873 17.8929 22.9873 18.1902H18.9873C18.9873 20.1166 20.5529 21.6651 22.4679 21.6651V17.6651ZM22.9873 18.1902C22.9873 18.4875 22.7474 18.7153 22.4679 18.7153V14.7153C20.5529 14.7153 18.9873 16.2638 18.9873 18.1902H22.9873ZM22.4679 18.7153C22.1884 18.7153 21.9485 18.4875 21.9485 18.1902H25.9485C25.9485 16.2638 24.3829 14.7153 22.4679 14.7153V18.7153Z" fill="#31394D" mask="url(#path-17-inside-3)"/>
<mask id="path-19-inside-4" fill="white">
<ellipse cx="32.0916" cy="1.72069" rx="1.72738" ry="1.72069"/>
</mask>
<path d="M31.819 1.72069C31.819 1.55913 31.9484 1.44139 32.0916 1.44139V5.44139C34.1429 5.44139 35.819 3.78288 35.819 1.72069H31.819ZM32.0916 1.44139C32.2349 1.44139 32.3643 1.55913 32.3643 1.72069H28.3643C28.3643 3.78288 30.0404 5.44139 32.0916 5.44139V1.44139ZM32.3643 1.72069C32.3643 1.88226 32.2349 2 32.0916 2V-2C30.0404 -2 28.3643 -0.341497 28.3643 1.72069H32.3643ZM32.0916 2C31.9484 2 31.819 1.88226 31.819 1.72069H35.819C35.819 -0.341497 34.1429 -2 32.0916 -2V2Z" fill="#31394D" mask="url(#path-19-inside-4)"/>
<mask id="path-21-inside-5" fill="white">
<ellipse cx="24.6887" cy="24.3355" rx="2.22092" ry="1.72069"/>
</mask>
<path d="M24.9096 24.3355C24.9096 24.2156 24.9428 24.1145 24.9796 24.0469C25.0138 23.9843 25.0426 23.9647 25.0342 23.9712C25.0111 23.9891 24.8956 24.0562 24.6887 24.0562V28.0562C26.515 28.0562 28.9096 26.8352 28.9096 24.3355H24.9096ZM24.6887 24.0562C24.4818 24.0562 24.3663 23.9891 24.3432 23.9712C24.3347 23.9647 24.3635 23.9843 24.3977 24.0469C24.4346 24.1145 24.4678 24.2156 24.4678 24.3355H20.4678C20.4678 26.8352 22.8623 28.0562 24.6887 28.0562V24.0562ZM24.4678 24.3355C24.4678 24.4555 24.4346 24.5566 24.3977 24.6241C24.3635 24.6867 24.3347 24.7063 24.3432 24.6998C24.3663 24.6819 24.4818 24.6148 24.6887 24.6148V20.6148C22.8623 20.6148 20.4678 21.8359 20.4678 24.3355H24.4678ZM24.6887 24.6148C24.8956 24.6148 25.0111 24.6819 25.0342 24.6998C25.0426 24.7063 25.0138 24.6867 24.9796 24.6241C24.9428 24.5566 24.9096 24.4555 24.9096 24.3355H28.9096C28.9096 21.8359 26.515 20.6148 24.6887 20.6148V24.6148Z" fill="#31394D" mask="url(#path-21-inside-5)"/>
<mask id="path-23-inside-6" fill="white">
<ellipse cx="19.5064" cy="6.88277" rx="1.97415" ry="1.47488"/>
</mask>
<path d="M19.4805 6.88277C19.4805 6.71463 19.5282 6.57173 19.585 6.47153C19.6385 6.37702 19.6913 6.33388 19.7053 6.32344C19.7262 6.30784 19.6624 6.35765 19.5064 6.35765V10.3577C20.4406 10.3577 21.3639 10.0773 22.0993 9.5279C22.835 8.97825 23.4805 8.06406 23.4805 6.88277H19.4805ZM19.5064 6.35765C19.3503 6.35765 19.2866 6.30784 19.3075 6.32344C19.3214 6.33388 19.3743 6.37702 19.4278 6.47153C19.4845 6.57173 19.5322 6.71463 19.5322 6.88277H15.5322C15.5322 8.06406 16.1777 8.97825 16.9134 9.5279C17.6488 10.0773 18.5721 10.3577 19.5064 10.3577V6.35765ZM19.5322 6.88277C19.5322 7.05092 19.4845 7.19382 19.4278 7.29402C19.3743 7.38853 19.3214 7.43167 19.3075 7.44211C19.2866 7.45771 19.3503 7.40789 19.5064 7.40789V3.40789C18.5721 3.40789 17.6488 3.68825 16.9134 4.23765C16.1777 4.7873 15.5322 5.70149 15.5322 6.88277H19.5322ZM19.5064 7.40789C19.6624 7.40789 19.7262 7.45771 19.7053 7.44211C19.6913 7.43167 19.6385 7.38853 19.585 7.29402C19.5282 7.19382 19.4805 7.05092 19.4805 6.88277H23.4805C23.4805 5.70149 22.835 4.7873 22.0993 4.23765C21.3639 3.68825 20.4406 3.40789 19.5064 3.40789V7.40789Z" fill="#31394D" mask="url(#path-23-inside-6)"/>
<mask id="path-25-inside-7" fill="white">
<ellipse cx="43.1964" cy="27.5311" rx="1.48061" ry="1.47488"/>
</mask>
<path d="M42.677 27.5311C42.677 27.2338 42.9169 27.006 43.1964 27.006V31.006C45.1114 31.006 46.677 29.4575 46.677 27.5311H42.677ZM43.1964 27.006C43.476 27.006 43.7158 27.2338 43.7158 27.5311H39.7158C39.7158 29.4575 41.2815 31.006 43.1964 31.006V27.006ZM43.7158 27.5311C43.7158 27.8284 43.476 28.0562 43.1964 28.0562V24.0562C41.2815 24.0562 39.7158 25.6047 39.7158 27.5311H43.7158ZM43.1964 28.0562C42.9169 28.0562 42.677 27.8284 42.677 27.5311H46.677C46.677 25.6047 45.1114 24.0562 43.1964 24.0562V28.0562Z" fill="#31394D" mask="url(#path-25-inside-7)"/>
<mask id="path-27-inside-8" fill="white">
<ellipse cx="20.9874" cy="28.0227" rx="1.48061" ry="1.47488"/>
</mask>
<path d="M20.4681 28.0227C20.4681 27.7254 20.7079 27.4976 20.9874 27.4976V31.4976C22.9024 31.4976 24.4681 29.9491 24.4681 28.0227H20.4681ZM20.9874 27.4976C21.267 27.4976 21.5068 27.7254 21.5068 28.0227H17.5068C17.5068 29.9491 19.0725 31.4976 20.9874 31.4976V27.4976ZM21.5068 28.0227C21.5068 28.32 21.267 28.5478 20.9874 28.5478V24.5478C19.0725 24.5478 17.5068 26.0963 17.5068 28.0227H21.5068ZM20.9874 28.5478C20.7079 28.5478 20.4681 28.32 20.4681 28.0227H24.4681C24.4681 26.0963 22.9024 24.5478 20.9874 24.5478V28.5478Z" fill="#31394D" mask="url(#path-27-inside-8)"/>
<path d="M13.584 10.57L14.0775 12.2907" stroke="#31394D" stroke-width="2" stroke-linecap="round"/>
<path d="M26.6016 4.05304L25.4467 4.47226" stroke="#31394D" stroke-width="2" stroke-linecap="round"/>
<path d="M29.0518 30.0608L27.8969 30.48" stroke="#31394D" stroke-width="2" stroke-linecap="round"/>
<path d="M26.584 14.8203L25.4292 15.2396" stroke="#31394D" stroke-width="2" stroke-linecap="round"/>
<path d="M10.2969 29.0775L9.14206 29.4967" stroke="#31394D" stroke-width="2" stroke-linecap="round"/>
<path d="M44.8447 22.6864L43.6899 23.1056" stroke="#31394D" stroke-width="2" stroke-linecap="round"/>
<path d="M5.85547 22.1947L4.70065 22.614" stroke="#31394D" stroke-width="2" stroke-linecap="round"/>
<path d="M37.7676 27.0395L38.2611 28.7602" stroke="#31394D" stroke-width="2" stroke-linecap="round"/>
<path d="M31.8447 33.4306L32.3383 35.1513" stroke="#31394D" stroke-width="2" stroke-linecap="round"/>
<path d="M12.5967 24.0897L13.0902 25.8104" stroke="#31394D" stroke-width="2" stroke-linecap="round"/>
<path d="M38.7549 13.7655L39.2484 15.4862" stroke="#31394D" stroke-width="2" stroke-linecap="round"/>
<ellipse cx="36.0401" cy="22.8606" rx="0.740307" ry="0.737439" fill="#31394D"/>
<ellipse cx="20.2471" cy="21.8774" rx="0.740306" ry="0.73744" fill="#31394D"/>
<ellipse cx="46.8975" cy="35.1513" rx="0.740305" ry="0.73744" fill="#31394D"/>
<rect width="7.09021" height="3.18101" rx="1.59051" transform="matrix(0.797228 0.603678 -0.669315 0.742978 61.4463 54.1121)" fill="white" stroke="#31394D" stroke-width="2"/>
<path d="M60.0611 55.4502C60.7204 54.5473 62.0912 54.3865 62.9483 55.1114L65.7383 57.471C66.4353 58.0606 66.5005 59.056 65.8866 59.7374V59.7374C65.3387 60.3457 64.4076 60.5231 63.6576 60.1622L62.047 59.3871C61.651 59.1966 61.3058 58.9289 61.0351 58.6025L60.1158 57.4939C59.6238 56.9006 59.6018 56.079 60.0611 55.4502V55.4502Z" stroke="#31394D" stroke-width="2"/>
</svg>
