<svg width="50" height="43" viewBox="0 0 50 43" fill="none" xmlns="http://www.w3.org/2000/svg">
<path fill-rule="evenodd" clip-rule="evenodd" d="M49.6604 24.7321L44.3102 20.1787C39.2066 24.8816 33.8525 29.5206 28.2114 33.9068C24.5107 30.2918 21.0329 26.3479 17.6665 22.5305L17.6636 22.5272C15.0365 19.5479 12.3255 16.4752 9.51268 13.5603C12.0536 12.1744 14.632 10.664 17.3639 8.9637L26.5823 20.1546C27.446 21.2054 28.4102 21.4255 29.0668 21.4255C29.906 21.4255 30.7462 21.0706 31.4418 20.4275C31.6882 20.2874 31.9092 20.1309 32.1135 19.9524C34.07 18.2382 36.0181 16.5105 37.9571 14.7719L32.8096 10.391C31.4867 11.3202 30.4135 11.9481 29.6404 12.2178L20.7545 1.42929C19.892 0.382125 18.9308 0.162109 18.2773 0.162109C17.4916 0.162109 16.6876 0.480586 16.0755 1.0107L15.9309 1.08731C11.1171 4.18222 6.61491 6.7797 2.16988 9.02662C0.985235 9.62416 0.294958 10.6572 0.262885 11.8741C-0.286027 13.2196 0.0346997 14.6387 1.13109 15.6863C5.10567 19.4894 8.80169 23.6924 12.3768 27.758L12.3823 27.7642L12.4084 27.7939C16.3107 32.2319 20.3449 36.8201 24.7723 40.9199C24.9296 41.0682 25.1029 41.201 25.2971 41.3297C25.9564 42.2112 26.8805 42.7133 27.8454 42.7133C28.5316 42.7133 29.2037 42.4686 29.8443 41.9853C37.2631 36.3879 43.8211 30.3923 49.6604 24.7321Z" fill="#7ED17C"/>
</svg>
