<svg width="65" height="64" viewBox="0 0 65 64" fill="none" xmlns="http://www.w3.org/2000/svg">
<path fill-rule="evenodd" clip-rule="evenodd" d="M52.6992 0.285156C53.9662 0.285156 55.0313 0.933963 55.6983 2.11125C57.9837 6.14669 60.4972 10.2193 63.3788 14.5601C64.1753 15.7624 64.2096 17.0925 63.4793 18.2252C63.3236 18.8424 63.0135 19.3988 62.5572 19.8787C54.2128 28.6764 45.3922 37.3446 36.8619 45.7268C35.6552 46.912 34.1868 48.12 32.7177 49.3285C31.2217 50.5592 29.7249 51.7904 28.5029 52.999C27.3397 54.1483 26.1419 55.3435 24.9077 56.5751C22.6218 58.8561 20.211 61.2618 17.6633 63.7313L12.3131 59.1779C17.4535 54.4411 22.3397 49.6394 27.0092 44.966C30.2678 41.7044 33.5549 38.4622 36.8445 35.2207L36.9917 35.0754C43.1762 28.9764 49.564 22.6767 55.6619 16.3143C54.1703 14.0182 52.8694 11.9465 51.7044 10.012C37.3411 24.3364 21.9611 39.4238 5.96005 53.771L0.8125 49.3902C10.3716 42.6758 32.9683 20.2331 49.5904 3.61709C49.9015 3.30576 50.2564 3.05837 50.6743 2.86083C50.9274 2.70458 51.2026 2.21605 51.4899 1.70584C51.8789 1.01535 52.2902 0.285156 52.6992 0.285156Z" fill="#7ED17C"/>
</svg>
