<svg width="91" height="92" viewBox="0 0 91 92" fill="none" xmlns="http://www.w3.org/2000/svg">
<path d="M34.559 68.7892L36.7713 65.2157C38.4451 62.5118 37.2379 58.9523 34.2646 57.8245L28.2381 55.5386C27.0627 55.0927 25.8626 56.1315 26.1353 57.3587C26.3329 58.2482 25.7393 59.1201 24.8393 59.2622L19.3163 60.1343C17.8151 60.3713 16.4356 61.102 15.3961 62.2108L12.5306 65.2674C10.5497 67.3803 9.199 70.005 8.631 72.845L8.42284 73.8858C8.14391 75.2805 8.15375 76.7175 8.45176 78.1082L8.96555 80.5059C9.30336 82.0823 10.3394 83.4197 11.7814 84.1407C12.8919 84.6959 14.1618 84.8443 15.3703 84.5599L22 83L24.0793 82.703C29.0147 81.9979 32.8187 77.9938 33.2701 73.0287L33.3178 72.5038C33.4376 71.186 33.8626 69.9143 34.559 68.7892Z" fill="#FFF1E2"/>
<path d="M47.2298 23.837C45.8843 24.8517 44.1479 28.7123 42.5816 32.9314C42.153 34.0857 43.5322 34.6542 44.0915 33.5572C44.2071 33.3303 44.4038 33.1551 44.6425 33.0662L45.2 32.8587C46.6124 32.333 48.1696 33.1439 48.5487 34.6025L49.5422 38.4248C49.8085 39.4494 50.3347 40.3868 51.0762 41.1423C53.6333 43.7478 57.4031 47.5148 58.0742 47.8922C59.405 48.6405 58.8065 45.1909 59.8296 44.0576L61.4269 42.2882C62.413 41.1958 63.0883 39.859 63.3825 38.417L64.0441 35.1739C64.1718 34.5479 64.5952 34.0227 65.1799 33.7651C65.8627 33.4642 66.3168 32.8034 66.3531 32.0582L66.5354 28.3096C66.793 23.0129 61.939 18.9145 56.8296 20.334C52.5557 21.5214 48.5653 22.8299 47.2298 23.837Z" fill="#FFF1E2"/>
<path fill-rule="evenodd" clip-rule="evenodd" d="M26.9985 43.5002C23.591 43.5002 19.1858 43.9902 15.5748 44.4882C11.0237 45.1158 8.63363 50.022 10.6701 54.0377C11.1976 55.0779 11.2131 56.3038 10.7119 57.3569L6.54169 66.1194C5.52075 68.2646 4.95549 70.5711 4.85254 72.8985C4.99681 72.3191 5.17814 71.7489 5.39564 71.1916L5.97854 69.6979C7.03017 67.0031 8.88921 64.7038 11.2955 63.1118L13.4207 58.6461C14.3215 56.7535 14.2938 54.5502 13.3457 52.6808C12.1998 50.4212 13.5655 47.7937 15.9846 47.4601C19.5751 46.9649 23.8091 46.5002 26.9985 46.5002C30.1169 46.5002 34.6 46.9439 38.5399 47.4268C40.9859 47.7267 42.165 50.5864 40.5774 52.5823C39.1871 54.3302 38.8249 56.6831 39.6252 58.7682L40.1293 60.0816C40.4278 60.0362 40.7243 59.9741 41.0172 59.8954C41.739 59.7015 42.4585 59.6105 43.1624 59.6117L42.426 57.6932C42.0064 56.6 42.1963 55.3663 42.9252 54.4499C45.9186 50.6865 43.7634 45.0447 38.905 44.4491C34.9597 43.9655 30.3169 43.5002 26.9985 43.5002ZM43.763 81.942L42.809 82.343C41.5543 82.8703 40.2376 83.2044 38.9029 83.3427C36.2162 86.081 32.6009 87.8216 28.6667 88.1486L25.9856 88.3714C24.9979 88.4535 24.005 88.4517 23.0177 88.3658L21.1559 88.204C18.1623 87.9438 15.3923 86.7765 13.161 84.9435L10.1931 86.3133C13.041 89.0674 16.7944 90.8362 20.8961 91.1927L22.7579 91.3546C23.9143 91.4551 25.0772 91.4573 26.2341 91.3611L28.9152 91.1383C35.0844 90.6255 40.5916 87.1794 43.763 81.942Z" fill="#31394D"/>
<path d="M73.2006 50.2774C70.528 51.5252 66.1477 52.8575 60.5289 54.5303C49.6452 50.3019 46.5902 70.2876 45.3096 75.2325" stroke="#31394D" stroke-width="3" stroke-linecap="round" stroke-linejoin="round"/>
<path d="M36 84.4031C38.9109 85 41.6045 83.4494 42.6155 82.7958C43.5736 84.3822 47.1358 84.9918 51.3052 85C53.5862 85 56.3184 84.7177 58.3125 84.3075C60.3178 83.8871 59.0629 83.1371 63.274 83.4664C67.4851 83.7958 73.0391 81.6662 74 80" stroke="#31394D" stroke-width="3" stroke-linecap="round" stroke-linejoin="round"/>
<path d="M51.7562 56.7662C51.7562 56.7662 46.189 57.9772 43.554 58.6268C41.3815 59.1663 39.3741 59.4231 38.0823 61.3572C34.8748 66.1684 32.6435 72.242 31.7041 77.8716C31.4362 79.4973 31.0435 81.7433 31.5536 83.3433" stroke="#31394D" stroke-width="3" stroke-linecap="round" stroke-linejoin="round"/>
<path d="M38.384 60.2484C35.7784 59.397 32.3654 59.3383 29.5763 59.1768C25.4881 58.9456 19.8548 59.4961 15.3996 61.0118C10.9444 62.5274 6.64332 64.9385 4.79004 70.7406" stroke="#31394D" stroke-width="3" stroke-linecap="round" stroke-linejoin="round"/>
<path d="M18.5164 64.9573C14.5895 64.9573 10.6236 66.9571 7.56209 69.3764C5.22288 71.2242 4.54941 73.3216 3.83691 76.3339" stroke="#31394D" stroke-width="3" stroke-linecap="round" stroke-linejoin="round"/>
<path d="M16.9877 70.5901C13.2922 70.9901 9.45717 73.893 6.58366 76.1316C4.52487 77.7244 2.10276 80.0143 2 83.3466C2.18349 84.4609 3.61474 86.0209 7.87179 83.3466" stroke="#31394D" stroke-width="3" stroke-linecap="round" stroke-linejoin="round"/>
<path d="M14.6776 77.802C10.9322 79.2199 6.51325 83.1233 6.78114 88.4447C10.6694 85.9042 13.2361 84.7575 17.4152 83.5388C20.4525 82.7045 23.5495 82.3303 26.6486 82.423C27.9243 82.114 29.4424 81.963 30.6237 81.3519" stroke="#31394D" stroke-width="3" stroke-linecap="round" stroke-linejoin="round"/>
<path d="M24.4045 59.1476C23.6338 57.5623 22.6466 54.0098 25.054 53.7639C27.4615 53.5181 33.2122 58.4137 35.9903 59.7055" stroke="#31394D" stroke-width="3" stroke-linecap="round" stroke-linejoin="round"/>
<path d="M82.9059 11.7246C73.8711 10.0526 74.9454 21.5658 74.6178 27.1624C74.5041 29.1154 73.8617 31.3385 73.4665 32.9186C73.0713 34.4987 75.0337 35.2011 76.3199 34.5517C75.2412 36.1245 78.4914 38.4386 80.495 37.8758" stroke="#31394D" stroke-width="3" stroke-linecap="round" stroke-linejoin="round"/>
<path d="M73.2393 32.8848C73.2393 32.8848 68.8247 33.3624 66.9932 33.9212C66.458 30.4817 66.3953 27.4945 66.294 24.0802C66.2393 22.1621 66.5553 19.8342 66.8047 17.8633C67.1285 15.2622 68.0606 15.7594 70.4667 15.5262C71.8576 15.3958 75.8651 15.5692 75.8651 15.5692" stroke="#31394D" stroke-width="3" stroke-linecap="round" stroke-linejoin="round"/>
<path d="M66.7512 17.2308C57.2286 19.6728 44.889 21.5828 38.9869 30.7329C37.3866 33.214 35.9436 35.5177 35.1334 38.3844C34.5643 40.3984 33.9939 42.531 34.0451 44.6775C36.031 44.7739 37.6709 45.0376 39.1254 45.3511C39.4315 43.9637 39.5658 42.4406 39.7693 41.4301C40.2219 39.1734 41.5468 36.67 42.869 34.8427C44.2642 32.9156 45.699 32.4848 47.0309 32.2899" stroke="#31394D" stroke-width="3" stroke-linecap="round" stroke-linejoin="round"/>
<path d="M46.5006 32.4998C45.4496 35.4921 43.7171 41.9067 43.5983 44.7354C43.5277 46.3763 43.3466 48.3191 44.768 49.5361C46.1893 50.7531 47.6604 49.8896 48.2733 48.0854C48.9972 45.9635 49.23 43.6819 50.2274 40.8068C51.1279 41.5515 53.7599 42.4755 54.8214 41.141" stroke="#31394D" stroke-width="3" stroke-linecap="round" stroke-linejoin="round"/>
<path d="M50.4903 43.9873C51.4745 46.3751 54.4813 47.7807 58.8925 44.7366" stroke="#31394D" stroke-width="3" stroke-linecap="round" stroke-linejoin="round"/>
<path d="M57.9521 45.0724C59.8216 44.6648 61.8833 42.4434 63.0927 40.0511C64.3021 37.6589 64.4445 35.9931 64.1664 33.8621L66.5018 33.3943" stroke="#31394D" stroke-width="3" stroke-linecap="round" stroke-linejoin="round"/>
</svg>
