<svg width="82" height="82" viewBox="0 0 82 82" fill="none" xmlns="http://www.w3.org/2000/svg">
<path d="M18.3792 30.907L19.3938 28.7027C20.0429 27.2926 20.848 25.9863 21.7829 24.8003L24.4898 19.1045C24.9828 18.0672 26.0288 17.4062 27.1772 17.4062C28.2833 17.4062 29.2061 17.9935 29.719 18.8348C32.0001 17.9071 34.4755 17.4062 37.0296 17.4062H43.6788C52.0107 17.4062 59.6916 21.9109 63.7589 29.1826L64.4845 30.48C64.7651 30.9816 65.0961 31.4534 65.4723 31.888L65.9959 32.4926C68.5303 35.4198 68.4479 39.7874 65.8047 42.6168C65.2103 43.253 64.7302 43.9869 64.3853 44.7864L61.6891 51.0366C60.413 53.9949 58.4853 56.6269 56.0499 58.7361L55.0801 59.576C52.4234 61.8769 49.1227 63.3142 45.6287 63.6949C41.2555 64.1715 36.858 62.9606 33.3484 60.3082C30.2584 57.973 28.0439 54.6662 27.0612 50.9197L24.5824 41.4695C23.9299 38.9817 24.0862 36.3508 25.0286 33.9577L29.9458 21.472C30.3093 20.5488 30.1792 19.5895 29.719 18.8348C26.6172 20.0962 23.8748 22.1469 21.7829 24.8003L18.0981 32.5538C17.8988 32.9731 17.7738 33.4239 17.7286 33.8859L17.3193 38.0738C17.1214 40.0985 14.5712 40.8691 13.2852 39.2927C12.5268 38.3631 12.619 37.0046 13.4961 36.186L16.7789 33.1221C17.4511 32.4947 17.9947 31.7423 18.3792 30.907Z" fill="#FFF1E2"/>
<path opacity="0.4" d="M27.3527 44.9097H22.6055C21.9583 44.9097 21.4336 44.385 21.4336 43.7378C21.4336 43.0906 21.9583 42.5659 22.6055 42.5659H27.3527C27.9999 42.5659 28.5246 43.0906 28.5246 43.7378C28.5246 44.385 27.9999 44.9097 27.3527 44.9097Z" fill="#FF8E9E"/>
<path opacity="0.4" d="M59.3945 44.9097H54.6475C54.0003 44.9097 53.4756 44.385 53.4756 43.7378C53.4756 43.0906 54.0003 42.5659 54.6475 42.5659H59.3945C60.0417 42.5659 60.5664 43.0906 60.5664 43.7378C60.5664 44.385 60.0417 44.9097 59.3945 44.9097Z" fill="#FF8E9E"/>
<path d="M55.8499 35.3244V38.8559C55.8499 39.5031 56.3528 39.5 57 39.5C57.6472 39.5 58.1937 39.5031 58.1937 38.8559L58 36C58 35.3528 57.6472 34.5 57 34.5C56.3528 34.5 55.8499 34.6772 55.8499 35.3244ZM41.0005 44.9563C42.4514 44.9563 43.836 44.2575 44.7043 43.0872C45.0899 42.5674 44.9811 41.8334 44.4613 41.4478C43.9416 41.0623 42.8858 40.9281 42.5 41.4478C42.0653 42.0338 41.7235 42.6127 41.0005 42.6127C40.2775 42.6127 39.5 42.6127 39.1789 41.6908C38.7931 41.1709 38.0591 41.0623 37.5395 41.4478C37.0197 41.8334 36.9111 42.5675 37.2966 43.0872C38.165 44.2575 39.5496 44.9563 41.0005 44.9563ZM69.8137 69.1353C69.2275 66.3901 65.4843 63.8445 62.1003 62.6798C62.6925 59.4288 63.0115 55.9444 63.172 52.5914C64.4292 50.08 65.2717 47.3267 65.61 44.4216C68.9126 43.9347 70.4119 41.0588 71.4559 37.6465C72.5 34.2343 68.8806 31.3239 65.5479 30.8636C65.4598 30.2171 65.3461 29.575 65.2075 28.9385C65.9168 28.4456 66.3829 27.6259 66.3829 26.6985V22.5585C66.3829 21.0545 65.2075 19.5 63.6554 19.831C62.1034 20.162 61.1625 19.831 61.1625 19.831C60.4975 18.9021 59.7664 18.0188 58.9779 17.1877C59.1929 16.8708 59.3189 16.4888 59.3189 16.0779V14.1899C59.3189 13.0971 58.4299 12.2082 57.3371 12.2082C57.3371 12.2082 55.8499 12.2082 55.3118 12.2082C54.7737 12.2082 55.3118 4.2797 55.3118 4.2797C55.3118 2.47126 53.8406 1 52.0321 1L44.5 1.5L29.9689 1C28.1604 1 26.6892 2.47126 26.6892 4.2797L26.481 12L24.6639 12.2082C23.5711 12.2082 22.6821 13.0971 22.6821 14.1899V16.0776C22.6821 16.4885 22.8081 16.8705 23.0231 17.1874C22.2346 18.0183 21.5035 18.9018 20.8385 19.8307H18.3456C16.8415 19.8307 16 21 15.6181 22.5582C15.2361 24.1164 15.6181 26.6982 15.6181 26.6982C15.6181 27.6257 16.0841 28.4453 16.7935 28.9382C16.6549 29.5746 16.5412 30.2168 16.4531 30.8632C13.1204 31.3236 11 34.1525 10.5451 37.6462C10.0901 41.14 13.0884 43.9344 16.3912 44.4213C17.1132 50.6218 20.1329 56.1304 24.5748 60.0715C23.8465 60.6785 23.1525 61.327 22.4948 62.0104C17.8174 62.8551 12.7734 67 12.1874 69.135C11.6015 71.2699 9.95928 75.6934 9.87319 77.9933C9.8435 78.7867 10.1307 79.5389 10.6818 80.1109C11.2341 80.6842 11.9769 81 12.7734 81C12.7734 81 37.0008 80.5 41.0004 81C45 81.5 69.2275 81 69.2275 81C70.0241 81 70.7669 80.6842 71.3192 80.1109C71.8703 79.5387 72.1575 78.7867 72.1278 77.9931C72.0417 75.6936 70.4 71.8804 69.8137 69.1353ZM69.1122 37.6465C69.1122 39.7287 67.692 41.4848 65.7728 41.9989C65.7756 41.8455 65.7787 41.692 65.7787 41.538V34.2345C65.7787 33.9197 65.7709 33.6053 65.759 33.2911C67.6867 33.8014 69.1122 35.5604 69.1122 37.6465ZM16.2282 41.998C14.3074 41.4828 12.8888 39.7275 12.8888 37.6464C12.8888 35.5598 14.3148 33.8006 16.2421 33.2906C16.2302 33.6048 16.2224 33.9193 16.2224 34.2343V41.5378C16.2223 41.6917 16.2254 41.8448 16.2282 41.998ZM63.6554 22.1746C63.867 22.1746 64.0392 22.3468 64.0392 22.5584V26.6984C64.0392 26.9101 63.867 27.0821 63.6554 27.0821H57.2496C57.0379 27.0821 56.8659 26.9099 56.8659 26.6984V22.5584C56.8659 22.3466 57.0381 22.1746 57.2496 22.1746H63.6554ZM29.0329 4.2797C29.0329 3.7636 29.4528 3.34376 29.9689 3.34376C29.9689 3.34376 34.501 2.68752 41.0005 3.34376C47.5 4 52.0321 3.34376 52.0321 3.34376C52.5482 3.34376 52.968 3.7636 52.968 4.2797V12.2082C52.968 12.2082 42.9995 11.7918 41.5 12C40.0005 12.2082 29.0329 12.2082 29.0329 12.2082V4.2797ZM25.0259 14.5519C25.0259 14.5519 36.501 13.1039 41.0005 13.5519C45.5 14 56.9751 14.5519 56.9751 14.5519V15.7155C56.9751 15.7155 47.5 16.5 41.0005 15.7155C34.501 14.9311 25.0259 15.7155 25.0259 15.7155V14.5519ZM17.9618 26.6984V22.5584C17.9618 22.3466 18.134 22.1746 18.3456 22.1746H24.7514C24.9631 22.1746 25.1351 22.3468 25.1351 22.5584V26.6984C25.1351 26.9101 24.9629 27.0821 24.7514 27.0821H18.3456C18.1338 27.0821 17.9618 26.9101 17.9618 26.6984ZM18.566 41.5378V34.2343C18.566 32.6125 18.7421 30.9995 19.0857 29.4259H24.7512C26.2553 29.4259 26.9575 28.3968 27.4787 26.6984C28 25 27.4787 22.5584 27.4787 22.5584C27.4787 21.0543 26.2551 19.8309 24.7512 19.8309H23.804C24.3232 19.2121 24.8759 18.6202 25.4595 18.0594H56.5412C57.1248 18.6202 57.6774 19.2119 58.1967 19.8309H57.2495C55.7456 19.8309 54.522 21.0545 54.522 22.5584C54.522 22.5584 54.0439 25.3968 54.522 26.6984C55 28 55.7456 29.4259 57.2495 29.4259H62.9151C63.2587 30.9995 63.4348 32.6125 63.4348 34.2343V41.5378C63.4348 42.3566 63.3895 43.1649 63.3036 43.9611C63.284 42.2806 63.2459 40.7677 63.2139 39.5042C63.1878 38.4695 63.167 37.6523 63.167 37.0901C63.167 33.7012 60.8234 30.5 57.0212 30.9442C53.6323 30.9442 51.5 34.1525 50.8752 37.0901C50.2505 40.0278 53.6323 43.2361 57.0212 43.2361C58.5018 43.2361 59.8618 42.7097 60.924 41.8344C60.9795 44.5917 61.0092 48.1913 60.8423 51.9972C58.1937 59.362 49.5958 63.9721 41.0005 63.9721C29.5 62.0104 18.566 53.9082 18.566 41.5378ZM60.8234 37.0901C60.8234 39.1867 59.1178 40.8923 57.0213 40.8923C54.9248 40.8923 53.2191 39.1867 53.2191 37.0901C53.2191 34.9936 54.9248 33.2879 57.0213 33.2879C59.1178 33.2881 60.8234 34.9937 60.8234 37.0901ZM60.5215 56.7815C60.3546 58.5798 60.1301 60.3648 59.8304 62.0727C59.7229 62.0513 59.6151 62.0302 59.5064 62.0107C58.8489 61.3273 58.1548 60.6788 57.4263 60.0718C58.5543 59.071 59.5912 57.9701 60.5215 56.7815ZM53.922 68.4587C53.8348 68.5362 53.7524 68.5064 53.7252 68.4964L46.18 65.7696C48.5369 65.2663 50.7712 64.4282 52.8291 63.3054L53.9827 68.2678C53.9891 68.2959 54.009 68.3814 53.922 68.4587ZM35.8211 65.7696L28.2758 68.4964C28.2487 68.5064 28.1662 68.536 28.079 68.4587C27.9919 68.3814 28.0117 68.2959 28.0183 68.2678L29.1719 63.3054C31.23 64.4282 33.4642 65.2663 35.8211 65.7696ZM12.7734 78.6566C12.5659 78.6566 12.4315 78.5492 12.3696 78.4851C12.3087 78.4219 12.2074 78.2851 12.2151 78.0811C12.2777 76.4079 12.9228 72.8134 14.2348 70.2753C15.5467 67.7371 17.4324 66.2364 19.8762 65.206C19.2381 66.1246 18.6579 67.0824 18.1465 68.0746C17 71.5 15.5051 74.9711 15.3359 78.6566H12.7734ZM17.6782 78.6566C17.8401 75.3173 18.9605 69.7971 20.2303 69.1485C21.5 68.5 23.8717 63.6299 26.4423 61.5749C26.6479 61.7246 26.8554 61.872 27.0658 62.0154L25.7356 67.7371C25.5247 68.6445 25.8264 69.5926 26.5228 70.2111C26.9954 70.6309 27.5972 70.8521 28.2089 70.8521C28.4987 70.8521 28.7909 70.8025 29.0725 70.7007C29.0725 70.7007 31.2184 68.1102 30.8592 70.0551C30.5 72 32.9959 78.6566 32.9959 78.6566H17.6782ZM46.5899 78.6566H35.4109C35.4109 78.6566 33.0752 76 33.5 73.9554C33.9248 71.9107 33.0752 69.2542 33.0752 69.2542L41.0005 66.3901L48.9258 69.2542C48.9258 69.2542 47.5 72.5 47.7579 73.9554C48.0157 75.4107 46.5899 78.6566 46.5899 78.6566ZM49.0049 78.6566L51.1418 70.055L52.9285 70.7006C53.2102 70.8023 53.5023 70.852 53.7921 70.852C54.4038 70.852 55.0056 70.6307 55.4782 70.2109C56.1748 69.5923 56.4763 68.6443 56.2654 67.737L54.9352 62.0154C55.1456 61.8718 55.3531 61.7246 55.5587 61.5748C56.8892 62.6385 58.1042 63.8482 59.1746 65.1732C58.3595 68.4032 57.1893 71.1465 55.5181 72.8592H53.033C52.3859 72.8592 51.8612 73.3839 51.8612 74.0311C51.8612 74.6783 52.3859 75.2029 53.033 75.2029H59.1924C59.8396 75.2029 60.3643 74.6783 60.3643 74.0311C60.3643 73.3839 59.8396 72.8592 59.1924 72.8592H58.5053C59.4874 71.3931 60.2746 69.607 60.9037 67.6179C61.2115 68.1176 61.5023 68.6274 61.7707 69.1485C63.3043 72.1243 64.1607 75.3173 64.3228 78.6566H49.0049ZM69.6312 78.4851C69.5695 78.5492 69.4351 78.6566 69.2275 78.6566H66.6651C66.4959 74.9711 65.5347 71.3354 63.8542 68.0748C63.3428 67.0826 62.7626 66.1248 62.1245 65.2062C64.5684 66.2365 66.4603 67.9307 67.7659 70.2753C69.3773 73.169 69.7231 76.408 69.7858 78.0809C69.7934 78.2851 69.6922 78.4219 69.6312 78.4851ZM26.1511 38.8559V35.3244C26.1511 34.6772 25.6264 34.1525 24.9792 34.1525C24.332 34.1525 23.8073 34.6772 23.8073 35.3244V38.8559C23.8073 39.5031 24.332 40.0278 24.9792 40.0278C25.6264 40.0278 26.1511 39.5031 26.1511 38.8559Z" fill="#31394D" stroke="#31394D"/>
</svg>
