<svg width="76" height="81" viewBox="0 0 76 81" fill="none" xmlns="http://www.w3.org/2000/svg">
<path d="M26.3748 61.3273L19.1992 59.7897C17.7759 59.4847 16.3391 60.2454 15.7912 61.594L13.5702 67.0611C12.5661 69.5327 15.0458 71.9872 17.507 70.958L26.9037 67.0285C29.6147 65.8947 29.2482 61.943 26.3748 61.3273Z" fill="#E3F7FF"/>
<path d="M47.4447 50.0031C39.3656 47.7288 30.4453 45.183 26.1093 43.8453C24.6277 43.3882 23.9556 41.8711 24.5193 40.4267L29.0478 28.8223C29.8463 26.7763 32.5003 26.2535 34.015 27.8439L50.4128 45.0617C52.5129 47.2668 50.376 50.8282 47.4447 50.0031Z" fill="#E3F7FF"/>
<path d="M26.6489 23.2505C26.1432 22.7448 25.4204 22.5229 24.7171 22.658C24.0147 22.7932 23.4253 23.2682 23.1435 23.9255C22.8617 24.5828 13.488 46.6404 12.2144 51.0422C10.9408 55.4439 0.174325 77.5202 0.174325 77.5202C-0.172868 78.3304 0.00820148 79.2704 0.631453 79.8937C1.04403 80.3062 1.59543 80.5251 2.15617 80.5251C2.44229 80.5251 2.73099 80.4682 3.00475 80.3508C3.00475 80.3508 21.9869 72.5316 29.405 68.31C36.8232 64.0885 56.5994 57.3816 56.5994 57.3816C57.2567 57.0998 57.7316 56.5103 57.8668 55.808C58.0021 55.1057 57.78 54.3819 57.2743 53.8762C57.2743 53.8762 43.4059 39.4229 38.0166 34.1054C32.6274 28.788 26.6489 23.2505 26.6489 23.2505ZM25.8518 28.5502L48.3438 51.0422C48.3438 51.0422 26.3686 46.8579 19.7176 42.8633C20.0355 41.5612 25.8518 28.5502 25.8518 28.5502ZM49.3284 55.8073C49.3284 55.8073 33.9289 63.1628 32.6459 62.9569C31.3629 62.7511 13.4559 57.474 13.4559 57.474L18.0056 46.8579L49.3284 55.8073ZM11.6391 62.9569C13.3511 62.3246 26.3686 65.6471 26.3686 65.6471L6.25969 74.2651C6.25969 74.2651 9.92717 63.5893 11.6391 62.9569Z" fill="#31394D"/>
<path d="M46.0367 23.7479C46.4465 26.1928 43.9962 28.3488 41.9473 30.1528C41.5328 30.5177 41.5002 31.1486 41.8706 31.5582L43.5906 33.4607C43.961 33.8704 44.5939 33.9034 45.0004 33.5295C47.8272 30.9297 50.7634 27.8467 50.7854 23.9882C53.6929 22.9843 65.7069 17.4222 68.5856 9.78407C68.7804 9.26728 68.4602 8.71715 67.9269 8.57375L65.4141 7.89817C64.895 7.7586 64.3599 8.05737 64.1817 8.56448C61.7897 15.3693 57.4267 18.2003 51.7472 19.2538C51.9855 16.6617 51.6626 14.5468 50.7615 12.7923C47.9075 7.23537 37.297 7.18795 38.6616 15.0422C39.3092 18.7699 42.2913 22.9428 46.0367 23.7479ZM47.998 18.5002C47.9962 18.5191 47.9733 18.55 47.9363 18.589C47.5364 19.0103 46.6606 19.2304 46.1123 19.0386C45.7588 18.915 45.4288 18.7664 45.1231 18.5931C43.8804 17.8884 43.0288 16.6459 43.0038 15.5011C42.998 10.0002 48.3649 14.8495 47.998 18.5002Z" fill="#31394D"/>
<path d="M55.6383 41.1239C58.8159 39.1778 63.0003 38.7804 66.4391 40.1944C66.9499 40.4045 67.5538 40.2227 67.812 39.7345L69.0285 37.4345C69.2799 36.9592 69.1099 36.3655 68.6291 36.1249C61.8993 32.7572 56.7148 36.4119 52.0919 39.3525C51.5406 39.7033 51.4562 40.4797 51.9254 40.9345L52.9855 41.9617C53.3765 42.3407 53.9961 42.3331 54.4177 41.9885C54.8037 41.6729 55.2121 41.3848 55.6383 41.1239Z" fill="#31394D"/>
<path d="M66.1328 50.1108C66.1328 49.481 66.708 49.008 67.3259 49.1296L69.4531 49.5483C69.8691 49.6302 70.1883 49.9656 70.2495 50.3852L70.5309 52.3154C70.6188 52.9187 70.151 53.4596 69.5413 53.4596H67.1328C66.5805 53.4596 66.1328 53.0119 66.1328 52.4596V50.1108Z" fill="#31394D"/>
<path d="M50.1123 1.18524C50.1123 0.565688 50.6699 0.0952231 51.2806 0.199513L53.3989 0.561249C53.8265 0.634266 54.1583 0.974618 54.2203 1.40393L54.512 3.42182C54.5991 4.02477 54.1315 4.56487 53.5223 4.56487H51.1123C50.56 4.56487 50.1123 4.11716 50.1123 3.56487V1.18524Z" fill="#31394D"/>
<path d="M67.6754 24.3355C67.4698 23.8216 67.7206 23.2385 68.235 23.0344L73.3851 20.991C73.8985 20.7873 74.4797 21.0383 74.6834 21.5517L75.5885 23.8329C75.8078 24.3855 75.4994 25.0062 74.9265 25.1652L69.5624 26.6543C69.0711 26.7906 68.5559 26.5356 68.3665 26.0623L67.6754 24.3355Z" fill="#31394D"/>
<path d="M28.0479 6.95505C28.0479 6.45313 28.4199 6.02897 28.9176 5.96357L31.4824 5.62655C32.0813 5.54785 32.6127 6.014 32.6127 6.61802V11.376C32.6127 11.9283 32.165 12.376 31.6127 12.376H29.0479C28.4956 12.376 28.0479 11.9283 28.0479 11.376V6.95505Z" fill="#31394D"/>
</svg>
