<svg width="137" height="140" viewBox="0 0 137 140" fill="none" xmlns="http://www.w3.org/2000/svg">
<path d="M79.524 24.0152L64.1374 84.9398C63.7627 86.4233 65.4999 87.5239 66.6812 86.5514C67.0097 86.2809 67.4333 86.1539 67.8564 86.1991L82.3825 87.7476C86.2341 88.1582 89.8266 85.7505 90.9108 82.0319L96.8136 61.7863C97.068 60.9138 97.1718 60.0043 97.1207 59.097L95.2287 25.5203C95.1645 24.381 94.8568 23.2687 94.3262 22.2585C90.9221 15.7773 81.3165 16.9172 79.524 24.0152Z" fill="white"/>
<path d="M78.4563 10.5544C67.901 52.8173 47.8597 118.832 47.6817 125.497C47.5036 132.161 48.7355 134.101 52.6345 135.554C54.8035 136.363 57.22 136.222 59.2649 135.167C59.38 135.108 59.4931 135.046 59.6047 134.982C61.4785 133.9 62.86 132.107 63.4221 130.009C64.0138 127.801 63.6633 125.512 62.4357 123.565C62.2468 123.265 61.9554 122.666 62.1272 122.024L67.9448 100.313C68.1665 99.4849 67.6754 98.6342 66.8478 98.4126C66.0202 98.1908 65.1694 98.682 64.9478 99.5095C64.9478 99.5095 60.4875 103.678 59.5516 113.809C58.6156 123.94 59.0182 123.962 59.8109 125.219C60.5721 126.427 60.7902 127.843 60.4249 129.206C60.0552 130.587 59.1157 131.754 57.8427 132.409C56.5543 133.074 55.0897 133.158 53.7183 132.647C52.3468 132.136 49.9664 128.958 50.6786 126.3L59.6478 92.8268L83.7833 99.2939C84.197 99.4047 84.6167 99.3374 84.9605 99.139C85.3043 98.9405 85.5725 98.6108 85.6833 98.1969L94.2114 70.3382C96.7005 61.0487 96.9501 50.6638 96.5332 41.4042C96.1993 33.9927 94.9294 26.659 92.7592 19.6065C90.8266 13.3268 88.521 8.43308 86.927 5.43349C83.1167 -1.73668 80.4799 2.02408 78.4563 10.5544ZM89.8376 20.6624C91.9136 27.4517 93.125 34.5103 93.4379 41.6428C93.8291 50.552 93.1457 60.1855 90.7478 69.1345L83.0879 95.8954C74.8861 95.2375 69.7525 90.558 60.4508 89.8298L80.6038 14.618C82.5345 19.0171 84.5987 24.9626 85.8217 32.1806C87.7417 43.5136 89.8937 49.7461 84.005 66.8387L76.6626 94.2412C76.4408 95.0688 76.932 95.9196 77.7595 96.1412C78.1732 96.252 78.593 96.1848 78.9367 95.9863C79.2805 95.7878 79.5488 95.4581 79.6595 95.0442L87.002 67.6417C90.2437 55.5435 90.8759 43.4382 88.8808 31.6624C87.2615 22.1034 84.218 14.6739 81.847 9.97821C81.847 9.97821 82.5861 5.67208 83.7493 7.08506C84.9125 8.49805 87.7773 13.9245 89.8376 20.6624Z" fill="#31394D"/>
</svg>
