<svg width="126" height="72" viewBox="0 0 126 72" fill="none" xmlns="http://www.w3.org/2000/svg">
<path d="M20.9804 40.5876L20.7939 40.7933C20.2493 41.3942 19.7905 42.0676 19.4306 42.7943C16.7625 48.1805 20.1667 54.5959 26.1227 55.4058L52.5538 59H105.122C110.282 59 114.197 54.3511 113.32 49.2664C113.001 47.4212 112.07 45.7375 110.675 44.4876L103.029 37.6322C99.4716 34.4431 96.6832 30.4896 94.8728 26.0685L94.0206 23.9873C90.5088 15.411 82.909 9.18387 73.8096 7.4268C65.8425 5.88835 57.5245 8.01485 51.2223 13.126C48.8859 15.0209 46.2293 16.5459 43.4109 17.5972L31.3528 22.0953C26.7957 23.7952 23.7742 28.1472 23.7742 33.011V33.3444C23.7742 36.0219 22.7784 38.6037 20.9804 40.5876Z" fill="#FFF1E2"/>
<path d="M75.7501 30C76.9929 30 78.001 28.995 78.001 27.7501C76.5854 15.1802 68.6944 14.7857 62.2508 12C61.009 12 60.001 13.006 60.001 14.2499C60.001 15.4948 61.009 16.5008 62.2508 16.5008C68.2998 17.8105 73.5002 20.5724 73.5002 27.7501C73.5002 28.992 74.5062 30 75.7501 30Z" fill="#31394D"/>
<path d="M81.8562 30.0004C83.039 30.0004 83.999 29.0258 83.999 27.8186C83.999 15.7883 77.9759 7.72243 62.5702 6.00037C57.8431 6.00037 53.999 9.91435 53.999 14.7273C53.999 15.9345 54.9591 16.91 56.1418 16.91C57.3245 16.91 58.2846 15.9345 58.2846 14.7273C58.2846 12.3208 60.2067 10.3638 62.5711 10.3638C72.9656 8.3601 78.7274 18.3076 79.7144 27.8186C79.7134 29.0229 80.6716 30.0004 81.8562 30.0004Z" fill="#31394D"/>
<path d="M62.401 18C61.0763 18 60.001 19.073 60.001 20.3998C60.001 21.7266 61.0763 22.7996 62.401 22.7996C65.0482 22.7996 67.201 24.9521 67.201 27.6002C67.201 28.927 68.2763 30 69.601 30C70.9257 30 72.001 28.927 72.001 27.6002C72.001 22.3052 67.6932 18 62.401 18Z" fill="#31394D"/>
<path d="M89.8011 30C91.0153 30 92.001 29.0429 92.001 27.8572C92.001 12.4973 79.1706 0 63.4013 0H59.0005C52.9352 0 48.001 4.80613 48.001 10.7139C48.001 11.8996 48.9866 12.8567 50.2009 12.8567C51.4151 12.8567 52.4008 11.8996 52.4008 10.7139C52.4008 7.16964 55.3617 4.28557 59.0015 4.28557H63.4013C76.7441 4.28557 87.6012 14.8608 87.6012 27.8572C87.6012 29.0399 88.5848 30 89.8011 30Z" fill="#31394D"/>
<path d="M114.977 53.3712C112.288 53.4446 109.319 51.5732 108.454 49.0257C105.252 39.5931 96.4342 28.0649 85.6072 32.142C78.132 34.957 74.1651 34.5319 72.1443 33.6638C70.7415 33.0611 68.8768 32.0319 68.2317 33.4158C68.0986 33.7014 68.0242 34.0204 68.0242 34.3572C68.0242 35.3441 68.6642 36.1789 69.5478 36.4654C69.9792 36.6052 70.4394 36.649 70.8776 36.7656C72.708 37.2529 78.2269 38.3651 85.6072 36.5715C94.3438 34.4482 103.386 43.5367 105.082 53.0602C105.198 53.7113 104.681 54.2862 104.019 54.2862C103.459 54.2862 102.991 53.8681 102.887 53.3177C101.319 44.9831 93.1408 37.649 85.6072 38.7857C79.0733 39.7715 74.2556 39.1108 72.8443 38.8661C72.5594 38.8167 72.2709 38.7715 71.9874 38.8285C70.9811 39.0306 70.2219 39.925 70.2219 40.9999C70.2219 42.1199 71.0448 43.0425 72.1128 43.1927C72.3157 43.2212 72.5175 43.2294 72.7205 43.2574C74.2027 43.4625 80.8502 44.2818 85.6072 43.2141C90.6228 42.0884 96.6538 47.2259 98.3058 53.0065C98.4946 53.6671 97.9704 54.2862 97.2833 54.2862C96.7546 54.2862 96.305 53.9115 96.1579 53.4038C94.8247 48.8015 90.6012 45.4283 85.6072 45.4283H74.6185C73.4054 45.4283 72.4197 46.4183 72.4197 47.6435C72.4197 48.7531 73.2295 49.6703 74.2844 49.8323C74.505 49.8662 74.7263 49.8761 74.9469 49.91C76.4995 50.1487 83.1303 51.0728 85.6072 49.8577C87.673 48.8444 89.5513 50.3203 90.764 52.1937C91.3841 53.1517 90.5994 54.2862 89.4582 54.2862C88.5451 54.2862 87.8375 53.4526 87.2192 52.7808C86.8177 52.3447 86.2439 52.072 85.6072 52.072H74.6185C73.7953 52.072 73.0769 52.5278 72.7001 53.2033C72.3959 53.7486 71.9135 54.2862 71.2891 54.2862C70.6751 54.2862 70.1737 53.7823 70.1515 53.1687C69.0054 21.4298 51.4918 9.99988 35.0569 9.99988H32.8592C20.7395 9.99988 10.8806 19.9336 10.8806 32.143V43.2141C10.8806 44.4393 11.8653 45.4283 13.0784 45.4283C14.2915 45.4283 14.8081 43.7488 14.8081 42.5236L15.2761 32.143C15.2761 22.3759 23.1646 14.4283 32.8592 14.4283H35.0569C50.9459 15.1646 60.9286 23.756 63.2464 37.4757C65.3969 50.2057 65.6051 48.7918 65.7587 53.1545C65.7804 53.7718 65.2839 54.2862 64.6662 54.2862C64.0722 54.2862 63.5867 53.8047 63.565 53.211C62.7287 30.2868 54.461 18.2942 35.0549 16.6425C26.5704 16.6425 19.6696 23.598 19.6696 32.143V34.3572C19.6696 35.5814 20.4608 36.5715 21.8739 35.9226C22.5327 35.6201 23.2852 35.5854 23.4902 34.8177C23.5697 34.5196 23.5797 34.2056 23.6504 33.9052L23.9588 32.595C24.0294 32.2947 24.062 31.9866 24.0747 31.6783C24.3173 25.7882 29.1501 21.0709 35.0549 21.0709C47.6076 20.6377 56.3037 29.9288 56.9519 37.4757C57.5561 44.511 59.0038 48.2655 59.1789 53.1912C59.2004 53.7961 58.7068 54.2862 58.1015 54.2862C57.4945 54.2862 57.0033 53.7838 56.9935 53.1768C56.6405 31.376 45.8613 23.2468 35.0539 23.756C31.4187 23.756 28.4606 26.2664 28.4606 29.9288C28.4606 31.153 29.4453 32.143 30.6584 32.143C31.8725 32.143 32.8572 31.153 32.8572 29.9288C32.8572 28.7067 33.8438 27.7146 35.0549 27.7146C45.8153 27.7146 51.9029 36.0731 52.5614 53.1893C52.5844 53.7873 52.1028 54.2862 51.5043 54.2862C50.916 54.2862 50.4611 53.783 50.19 53.2609C49.8229 52.5538 49.0877 52.072 48.2414 52.072H37.2526C36.6153 52.072 36.0411 52.3448 35.6395 52.7812C35.0213 53.4528 34.3139 54.2862 33.4011 54.2862C32.2602 54.2862 31.4825 53.1418 32.2067 52.2602C33.4098 50.7955 35.2185 49.8577 37.2516 49.8577H48.2414C49.4545 49.8577 50.4392 48.8677 50.4392 47.6435C50.4392 46.4183 49.4545 45.4283 48.2414 45.4283H37.2516C32.2606 45.4283 28.0347 48.8022 26.7011 53.4036C26.5539 53.9115 26.1042 54.2862 25.5754 54.2862C24.8883 54.2862 24.3635 53.667 24.5456 53.0045C26.1085 47.3183 31.4899 42.8122 37.2516 43.2141C42.1938 43.5588 44.8489 43.353 45.7179 43.256C45.9359 43.2317 46.1541 43.2223 46.371 43.1896C47.4294 43.0303 48.2414 42.1125 48.2414 40.9999C48.2414 39.7757 49.2709 38.0247 46.0427 38.7857C43.237 39.447 38.6678 38.9588 37.5198 38.8197C37.3398 38.7978 37.1597 38.785 36.9784 38.7878C28.4854 38.9189 21.4476 45.1521 19.969 53.3167C19.8692 53.8677 19.4006 54.2862 18.8406 54.2862C18.1792 54.2862 17.6622 53.7099 17.7753 53.0583C19.3999 43.7057 27.5113 36.5715 37.2516 36.5715C39.1913 36.5715 43.8459 37.4737 43.8459 34.3572C43.8459 33.1321 42.8612 32.142 41.6482 32.142H37.5613C37.3552 32.142 37.1477 32.1578 36.9443 32.1912C25.0499 34.1461 16.274 41.5405 13.8563 49.7541C13.1705 52.0838 11.0326 53.9962 8.60425 54.0187C5.29312 54.0495 1.24262 54.6279 0.291487 57.1494C-0.945058 60.4274 2.0514 62.8252 3.6905 63.8493C4.31619 64.2402 4.87954 64.7312 5.32615 65.3184C8.52234 69.521 13.4695 71.9999 18.7721 71.9999C67.2638 71.158 86.9158 71.1575 108.484 71.9999C114.075 71.9999 118.779 67.2642 122.414 64.525C122.527 64.4397 122.633 64.353 122.734 64.2535C123.543 63.4558 127.274 59.5263 125.551 56.5022C124.253 54.2247 119.285 53.2537 114.977 53.3712ZM118.925 61.9431C116.593 65.4683 112.689 67.5715 108.485 67.5715C92.9377 66.4974 73.7776 66.4684 18.7701 68.0892C14.6878 68.0892 10.8941 65.6215 8.54205 62.2545C8.39954 62.0505 8.22539 61.87 8.02118 61.7278C6.46302 60.6427 7.17396 58.2108 9.07227 58.1695C21.0157 57.9094 47.9632 57.481 62.0901 58.5144C77.1128 59.6133 106.634 59.0592 117.192 58.8123C118.82 58.7743 119.823 60.5851 118.925 61.9431Z" fill="#31394D"/>
</svg>
