<svg width="20" height="20" viewBox="0 0 20 20" fill="none" xmlns="http://www.w3.org/2000/svg">
<g opacity="0.4">
<path d="M11.2666 0.134509C9.49351 -0.247206 7.64282 0.193168 6.23171 1.33269C4.82061 2.47221 4.00024 4.18856 4 6.00239C3.99868 6.71755 4.37953 7.37897 4.99862 7.73694C5.61778 8.09491 6.38098 8.09491 7.00014 7.73694C7.61931 7.37897 8.00008 6.71755 7.99876 6.00239C7.99891 5.39221 8.27713 4.81546 8.75453 4.43546C9.23193 4.05546 9.8564 3.9137 10.451 4.05039C11.2014 4.21324 11.7873 4.7996 11.9498 5.55007C12.0733 6.10299 11.9599 6.68232 11.6373 7.148C11.3215 7.59947 10.8337 7.90104 10.2887 7.98181C8.97893 8.1727 8.00547 9.29247 7.99876 10.616V12.6683C7.99876 13.7726 8.89395 14.6679 9.99833 14.6679C11.1026 14.6679 11.9979 13.7727 11.9979 12.6683V11.6588C14.5287 10.7647 16.1581 8.29893 15.9881 5.62021C15.8182 2.94148 13.8901 0.701419 11.2666 0.134509ZM13.8208 8.6776C13.1826 9.58834 12.2409 10.2421 11.1644 10.5216C10.8702 10.5975 10.6647 10.8628 10.6648 11.1666V12.6682C10.6648 13.0363 10.3664 13.3347 9.99833 13.3347C9.6302 13.3347 9.33183 13.0363 9.33183 12.6682V10.6159C9.33558 9.95467 9.82282 9.39572 10.4774 9.30176C11.3949 9.16734 12.2153 8.65752 12.742 7.89433C13.2688 7.13121 13.4545 6.18337 13.2549 5.27786C12.9803 4.0104 11.9906 3.02022 10.7232 2.7452C10.482 2.69396 10.2362 2.66803 9.98958 2.66772C9.22685 2.66584 8.48732 2.92953 7.89792 3.41365C7.11715 4.04601 6.6642 4.99753 6.66576 6.00231C6.66654 6.24085 6.53969 6.46167 6.33317 6.58117C6.12666 6.70068 5.8721 6.70068 5.66558 6.58117C5.45907 6.46167 5.3323 6.24093 5.333 6.00231C5.33042 4.59629 5.96435 3.26462 7.05724 2.38004C8.86326 0.91028 11.4766 0.997371 13.1808 2.58414C14.8849 4.17091 15.1581 6.77137 13.8208 8.6776Z" fill="#31394D"/>
<path d="M9.99859 16.001C8.8943 16.001 7.99902 16.8962 7.99902 18.0005C7.99902 19.1049 8.89422 20.0001 9.99859 20.0001C11.103 20.0001 11.9982 19.1048 11.9982 18.0005C11.997 16.8967 11.1024 16.0021 9.99859 16.001ZM9.99859 18.667C9.63047 18.667 9.3321 18.3687 9.3321 18.0005C9.3321 17.6324 9.63047 17.334 9.99859 17.334C10.3667 17.334 10.6651 17.6324 10.6651 18.0005C10.6648 18.3685 10.3666 18.6667 9.99859 18.667Z" fill="#31394D"/>
</g>
</svg>
