<svg width="40" height="40" viewBox="0 0 40 40" fill="none" xmlns="http://www.w3.org/2000/svg">
<path d="M7.08925 32.9098C14.2199 40.0405 25.7811 40.0405 32.9117 32.9098C40.0424 25.7791 40.0424 14.2179 32.9117 7.0873C25.781 -0.0433998 14.2199 -0.0433998 7.08925 7.0873C-0.0414467 14.218 -0.0414467 25.7791 7.08925 32.9098ZM20.0005 13.6152C23.5259 13.6152 26.3838 16.4731 26.3838 19.9985C26.3838 23.524 23.5259 26.3819 20.0005 26.3819C16.475 26.3819 13.6172 23.524 13.6172 19.9985C13.6172 16.4731 16.475 13.6152 20.0005 13.6152Z" fill="white"/>
<path d="M7.09023 32.9098C14.2209 40.0405 25.7821 40.0405 32.9127 32.9098C38.094 27.7286 39.5091 20.2086 37.161 13.7485L37.1567 13.7508C36.1774 11.9227 33.5273 12.0101 32.6707 13.8988C32.1517 15.0429 30.7904 15.5324 29.6497 14.9748L29.5924 14.9468C28.1976 14.265 26.5134 14.8163 25.7919 16.191L25.4996 16.7479H25.4947C26.0595 17.7001 26.3848 18.8111 26.3848 19.9985C26.3848 23.524 23.5269 26.3819 20.0015 26.3819C16.476 26.3819 13.6181 23.524 13.6181 19.9985C13.6181 18.8129 13.9425 17.7034 14.5057 16.7521H14.5033V15.8203C14.5033 13.7253 11.9672 12.6798 10.4908 14.166C9.38281 15.2814 7.51294 15.0135 6.76267 13.6319L2.70644 14.1346C0.551102 20.5063 2.01184 27.8314 7.09023 32.9098Z" fill="#FBE4E4"/>
<path d="M14.5039 16.7515L14.5039 15.8196C14.5039 13.7247 11.9678 12.6791 10.4913 14.1654C9.38336 15.2808 7.5135 15.0129 6.76323 13.6313C5.44084 11.1962 1.74275 12.1355 1.74275 14.9065L1.74275 19.998L14.5039 16.7515Z" fill="#FBE4E4"/>
<path d="M20.6795 30.0007C21.0974 30.0007 21.5154 30.1601 21.8343 30.479C22.4719 31.1167 22.4719 32.1506 21.8343 32.7883L20.0803 34.5422C19.4426 35.1799 18.4087 35.1799 17.771 34.5422C17.1333 33.9045 17.1333 32.8706 17.771 32.2329L19.5249 30.479C19.8437 30.1601 20.2617 30.0007 20.6795 30.0007Z" fill="white"/>
<path d="M8.79575 18.872C9.21364 18.872 9.63159 19.0315 9.95046 19.3503C10.5881 19.988 10.5881 21.022 9.95046 21.6596L8.03858 23.5715C7.40085 24.2092 6.3669 24.2092 5.72924 23.5715C5.09157 22.9338 5.09157 21.8999 5.72924 21.2622L7.64111 19.3503C7.95991 19.0315 8.37787 18.872 8.79575 18.872Z" fill="white"/>
<path d="M32.9823 18.1085C33.4002 18.1085 33.8181 18.2679 34.137 18.5868C34.7747 19.2244 34.7747 20.2584 34.137 20.8961L32.402 22.6311C31.7642 23.2688 30.7304 23.2688 30.0926 22.6311C29.455 21.9934 29.455 20.9594 30.0926 20.3218L31.8276 18.5868C32.1464 18.2679 32.5644 18.1085 32.9823 18.1085Z" fill="white"/>
<path d="M13.9619 29.6473C13.9619 30.0652 13.8025 30.4832 13.4836 30.802C12.8459 31.4397 11.812 31.4397 11.1743 30.802L9.80117 29.4289C9.16343 28.7911 9.16343 27.7573 9.80117 27.1195C10.4388 26.4818 11.4728 26.4818 12.1105 27.1195L13.4836 28.4927C13.8025 28.8115 13.9619 29.2294 13.9619 29.6473Z" fill="white"/>
<path d="M31.3242 29.1522C31.3242 29.5701 31.1648 29.988 30.8459 30.3069C30.2083 30.9446 29.1743 30.9446 28.5366 30.3069L27.1635 28.9337C26.5257 28.296 26.5257 27.2621 27.1635 26.6244C27.8012 25.9867 28.8351 25.9867 29.4728 26.6244L30.8459 27.9976C31.1648 28.3163 31.3242 28.7343 31.3242 29.1522Z" fill="white"/>
<path d="M17.2465 31.7072C16.3205 32.6333 16.3205 34.1401 17.2465 35.0662C18.1727 35.9923 19.6794 35.9923 20.6056 35.0662L22.3595 33.3122C24.3621 31.3095 22.4788 29.5087 20.5622 29.4988C19.2578 29.4922 18.2383 30.7154 17.2465 31.7072ZM21.3098 32.2625L19.5558 34.0165C19.3822 34.1902 19.1541 34.2769 18.926 34.2769C18.698 34.2769 18.4699 34.1901 18.2962 34.0165C17.9489 33.6692 17.9489 33.1041 18.2962 32.7569L20.0502 31.0029C20.2184 30.8347 20.4421 30.742 20.68 30.742C20.9179 30.742 21.1416 30.8347 21.3098 31.0029C21.6571 31.3502 21.6571 31.9153 21.3098 32.2625Z" fill="#31394D"/>
<path d="M10.4763 18.8255C10.0277 18.3769 9.43124 18.1299 8.79676 18.1299C8.16229 18.1299 7.59828 18.4323 7.14966 18.8809L5.20533 20.7375C4.2793 21.6636 4.2793 23.1703 5.20533 24.0964C6.13151 25.0225 7.63827 25.0225 8.56444 24.0964L10.4766 21.7871C11.4025 20.8611 11.4023 19.7517 10.4763 18.8255ZM9.42656 21.1349L7.51468 23.0467C7.34107 23.2204 7.11298 23.3072 6.88489 23.3072C6.65679 23.3072 6.20546 22.9666 6.03193 22.793C5.68463 22.4457 5.90779 22.1344 6.25509 21.7871L8.16697 19.8752C8.33516 19.7069 8.55887 19.6143 8.79676 19.6143C9.03465 19.6143 9.25837 19.7069 9.42656 19.8751C9.77386 20.2226 9.77386 20.7876 9.42656 21.1349Z" fill="#31394D"/>
<path d="M34.6652 21.4213C36.8317 19.2545 33.4667 15.9014 31.3061 18.0623C29.9989 19.3694 27.6688 21.2538 29.5711 23.1563C31.4735 25.0587 33.358 22.7284 34.6652 21.4213ZM30.6209 20.847L32.3559 19.1121C33.1313 18.3362 34.44 19.5472 33.6155 20.3716L31.8805 22.1065C31.1055 22.8818 29.7963 21.6714 30.6209 20.847Z" fill="#31394D"/>
<path d="M10.6524 31.327C11.5785 32.253 13.0853 32.253 14.0114 31.327C14.46 30.8783 14.707 30.2818 14.707 29.6474C14.707 29.013 14.3042 28.8307 13.8556 28.382L12.6382 26.5947C12.1752 26.1317 11.567 25.9002 10.9588 25.9002C10.3506 25.9002 9.7423 26.1317 9.27928 26.5947C8.35318 27.5208 8.77288 29.3511 9.69898 30.2772L10.6524 31.327ZM10.329 27.8231C10.6763 27.4759 11.2413 27.2972 11.5886 27.6445L12.9617 29.0176C13.13 29.1859 13.2226 29.4095 13.2226 29.6474C13.2226 29.8853 13.13 30.109 12.9617 30.2772C12.788 30.4508 12.56 30.5377 12.3319 30.5377C12.1038 30.5377 11.8757 30.4508 11.7021 30.2772L10.329 28.904C9.98167 28.5568 9.98167 28.1704 10.329 27.8231Z" fill="#31394D"/>
<path d="M30.0033 26.0997C29.0773 25.1737 27.5704 25.1737 26.6444 26.0997C24.887 27.8571 26.7683 29.5827 28.0176 30.832C29.4963 32.3106 32.0723 31.1931 32.0723 29.1525C32.0723 27.8123 30.8656 26.962 30.0033 26.0997ZM30.3268 29.7822C30.1531 29.9559 29.9251 30.0427 29.697 30.0427C29.4689 30.0427 29.2408 29.9559 29.0672 29.7822C28.6611 29.3762 27.2695 27.8229 27.2695 27.8229C27.2695 27.8229 28.0187 26.2145 28.9536 27.1494L30.3268 28.5226C30.4951 28.6908 30.5877 28.9145 30.5877 29.1524C30.5877 29.3903 30.4951 29.614 30.3268 29.7822Z" fill="#31394D"/>
<path d="M6.56726 33.4346C10.651 37.9237 14.9279 39 20.0033 39C23.8719 39 28.3864 37.8823 33.1405 33.5162C33.4781 33.2837 33.5633 32.8215 33.3308 32.4839C33.0982 32.1463 32.636 32.0611 32.2985 32.2936C27.8275 36.2057 23.5698 37.5155 20.0033 37.5155C10.3444 37.5155 2.48631 29.6574 2.48631 19.9985V14.9071C2.48631 13.7991 3.27005 13.207 3.94119 13.0366C5.95713 12.5245 6.47692 15.296 8.38918 15.5701C10.1003 15.8152 11.2317 13.7028 12.7697 14.3364C13.2499 14.5343 13.763 15.0282 13.763 15.8203V16.5622C13.1992 17.5817 12.8778 18.7532 12.8778 19.9985C12.8778 23.9276 15.921 27.4952 20.0033 27.124C24.0857 26.7529 27.1289 23.9276 27.1289 19.9985C27.1289 18.8269 26.8446 17.7205 26.3415 16.7445L26.451 16.5359C26.9895 15.5098 28.227 15.1047 29.2683 15.6135L29.3255 15.6415C30.06 16.0005 30.8857 16.0467 31.6506 15.7717C32.4114 15.4982 33.0144 14.9419 33.3485 14.2053C33.6315 13.5814 34.2093 13.1953 34.8941 13.1728C35.5756 13.1521 36.1745 13.4941 36.4992 14.0924C37.1764 15.9834 37.5204 17.9698 37.5204 19.9985C37.5204 23.565 36.4553 26.9965 34.4404 29.922C34.2079 30.2596 34.293 30.7218 34.6307 30.9543C34.9682 31.1868 35.4304 31.1016 35.663 30.7641C38.2997 28.2003 39.0049 23.8671 39.0049 19.9985C39.0049 17.7636 38.6204 15.575 37.862 13.4935C36.5407 9.86664 34.1732 6.76078 31.0157 4.51162C27.7877 2.21229 26.2437 1.36806 20.0033 0.996933C13.763 0.625809 12.6931 2.06822 9.60068 4.09492C6.65641 6.02462 4.31514 8.71519 2.81624 11.8866C1.70584 12.4633 1.00182 13.597 1.00182 14.907V19.9985C1.00182 25.074 2.48349 28.9455 6.56726 33.4346ZM20.0033 25.6395C16.6261 26.0478 14.3623 23.109 14.3623 19.9985C14.3623 16.888 16.7746 14.3748 20.0033 14.3574C23.2321 14.34 25.6444 16.888 25.6444 19.9985C25.6444 23.109 23.3806 25.2313 20.0033 25.6395ZM20.0033 2.48143C26.2437 2.91698 32.43 6.11102 35.4466 11.7253C35.2856 11.701 35.1216 11.6872 34.9551 11.6872C34.9186 11.6872 34.8818 11.6878 34.8451 11.689C33.6018 11.73 32.1762 12.5389 31.9966 13.592C31.8869 14.2351 30.6044 14.6141 29.9775 14.3079C28.4024 13.5356 26.4747 13.9466 25.4261 15.3813C24.118 13.8474 22.9352 13.2069 20.0033 12.8729C17.0715 12.5389 16.3726 13.6213 15.0936 14.839C14.8207 14.0001 14.1976 13.3194 13.3354 12.9638C12.1562 12.4777 10.865 12.7377 9.96601 13.6428C9.60483 14.0063 9.10678 14.1729 8.59968 14.1004C6.93912 13.8625 6.68304 11.6376 4.68462 11.4965C7.75434 5.97845 13.763 2.04588 20.0033 2.48143Z" fill="#31394D" stroke="#31394D"/>
</svg>
