<svg width="119" height="50" viewBox="0 0 119 50" fill="none" xmlns="http://www.w3.org/2000/svg">
<path d="M49.5 17.356L34.3314 20.3054C32.5318 20.6553 30.9704 21.7639 30.0466 23.3475C27.5791 27.5775 30.6107 32.8934 35.5078 32.9235L91.6243 33.2678C97.5222 33.3039 100.913 26.5736 97.3744 21.8552C96.1796 20.2621 94.3732 19.241 92.3921 19.0388L79.6952 17.7432C74.1485 17.1772 69.085 14.3362 65.7114 9.89722L62.5757 5.7714C61.8788 4.8544 60.8942 4.19793 59.7797 3.90719L59.474 3.82745C55.533 2.79936 52.0909 6.67818 53.5801 10.469C54.6237 13.1254 53.2265 16.1138 50.5189 17.0163L49.5 17.356Z" fill="#FFF1E2"/>
<path d="M104.671 32.1411C103.352 32.1411 102.936 31.1516 102.589 29.8787C100.468 22.097 92.7479 15.5643 85.6072 16.6416C79.0733 17.6274 74.2556 16.9668 72.8443 16.7221C72.5594 16.6727 72.2709 16.6275 71.9874 16.6844C70.9811 16.8866 70.2219 17.781 70.2219 18.8558C70.2219 19.9758 71.0448 20.8985 72.1128 21.0487C72.3157 21.0772 72.5175 21.0853 72.7205 21.1134C74.2027 21.3185 80.8502 22.1377 85.6072 21.0701C90.6228 19.9443 96.6537 25.0818 98.3058 30.8625C98.4946 31.5231 97.9704 32.1421 97.2833 32.1421C96.7546 32.1421 96.305 31.7675 96.1579 31.2597C94.8247 26.6574 90.6012 23.2843 85.6072 23.2843H74.6185C73.4054 23.2843 72.4197 24.2743 72.4197 25.4995C72.4197 26.6091 73.2295 27.5263 74.2844 27.6883C74.505 27.7222 74.7263 27.7321 74.9469 27.766C76.4995 28.0047 83.1303 28.9287 85.6072 27.7137C87.673 26.7004 89.5513 28.1762 90.764 30.0497C91.3841 31.0077 90.5993 32.1421 89.4582 32.1421C88.5451 32.1421 87.8375 31.3085 87.2192 30.6368C86.8177 30.2006 86.2439 29.9279 85.6072 29.9279H74.6185C73.7953 29.9279 73.0769 30.3838 72.7001 31.0593C72.3959 31.6046 71.9135 32.1421 71.2891 32.1421C70.6751 32.1421 70.1738 31.6492 70.1537 31.0355C69.7101 17.5327 67.1149 10.4093 61.9828 3.64229C61.8382 3.45169 61.6767 3.27123 61.489 3.12297C59.0007 1.15799 57.2353 3.63137 58.3522 5.05547C58.4725 5.20887 58.6153 5.34725 58.7384 5.49836C61.4945 8.88023 62.4014 10.3296 63.2464 15.3317C65.3969 28.0617 65.6051 26.6478 65.7587 31.0104C65.7804 31.6277 65.2839 32.1421 64.6662 32.1421C64.0722 32.1421 63.5868 31.6657 63.5654 31.072C63.0164 15.8694 59.3066 5.73862 51 0.699101C47.5185 -1.41308 45.5 1.79561 47.8855 3.27022C53.2298 6.57387 56 11.856 56.9519 15.3317C57.8422 18.5825 59.0501 25.6532 59.1842 31.048C59.1992 31.6531 58.7068 32.1421 58.1015 32.1421C57.4945 32.1421 57.0033 31.6486 56.9936 31.0417C56.7905 18.3917 53.0776 10.3435 47.8855 5.91433C44.2085 2.85584 42 6.85584 44.2085 8.35584C49.2633 12.0956 52.1227 19.621 52.5616 31.0508C52.5846 31.6489 52.1028 32.1421 51.5043 32.1421C50.916 32.1421 50.4611 31.639 50.19 31.1169C49.8229 30.4098 49.0877 29.9279 48.2414 29.9279H37.2526C36.6153 29.9279 36.0411 30.2008 35.6395 30.6372C35.0213 31.3088 34.3139 32.1421 33.4011 32.1421C32.2602 32.1421 31.4825 30.9978 32.2067 30.1162C33.4098 28.6514 35.2185 27.7137 37.2516 27.7137H48.2414C49.4545 27.7137 50.4392 26.7237 50.4392 25.4995C50.4392 24.2743 49.4545 23.2843 48.2414 23.2843H37.2516C32.2606 23.2843 28.0347 26.6582 26.7011 31.2596C26.5539 31.7674 26.1042 32.1421 25.5754 32.1421C24.8883 32.1421 24.3635 31.523 24.5456 30.8605C26.1085 25.1743 31.4899 20.6682 37.2516 21.0701C42.1938 21.4148 44.8489 21.2089 45.7179 21.112C45.9359 21.0877 46.1541 21.0782 46.371 21.0456C47.4294 20.8863 48.2414 19.9684 48.2414 18.8558C48.2414 17.6317 49.2709 15.8806 46.0427 16.6416C43.237 17.303 38.6678 16.8147 37.5198 16.6756C37.3398 16.6538 37.1597 16.6409 36.9784 16.6437C28.4854 16.7749 21.4476 23.0081 19.969 31.1727C19.8692 31.7237 19.4006 32.1421 18.8406 32.1421C18.1792 32.1421 17.6622 31.5659 17.7753 30.9143C19.3999 21.5617 27.5113 14.4274 37.2516 14.4274C39.1913 14.4274 43.8459 15.3296 43.8459 12.2132C43.8459 10.988 42.8612 9.99797 41.6482 9.99797H37.5613C37.3552 9.99797 37.1477 10.0137 36.9443 10.0472C25.0499 12.0021 16.274 19.3965 13.8563 27.6101C13.1705 29.9398 11.0326 31.8521 8.60425 31.8747C5.29311 31.9054 1.24262 32.4839 0.291487 35.0053C-0.945058 38.2834 2.0514 40.6812 3.6905 41.7052C4.31619 42.0961 4.87954 42.5871 5.32615 43.1744C8.52234 47.377 13.4695 49.8558 18.7721 49.8558C67.2638 49.014 81.9158 49.0134 103.484 49.8558C109.162 49.8558 114.5 43.8558 115.583 42.2545C116.667 40.6531 119.477 37.7401 117.551 34.3582C115.624 30.9762 108.5 32.1411 104.671 32.1411ZM112.925 39.799C110.646 43.244 107.821 45.3309 103.77 45.4242C103.581 45.4285 103.398 45.4146 103.21 45.389C86.1356 43.0679 52.4141 49.3212 18.7701 44.9451C14.6885 44.9451 10.8955 43.4196 8.54334 40.1097C8.39919 39.9069 8.22539 39.726 8.02118 39.5838C6.46302 38.4987 7.17396 36.0668 9.07227 36.0254C21.0157 35.7654 47.9632 35.337 62.0901 36.3704C76.8257 37.4483 101.702 36.9358 111.209 36.6828C112.832 36.6396 113.82 38.4455 112.925 39.799Z" fill="#31394D"/>
</svg>
