<svg width="126" height="154" viewBox="0 0 126 154" fill="none" xmlns="http://www.w3.org/2000/svg">
<path d="M21.4558 122.87L21.2893 123.077C20.7654 123.728 20.3296 124.446 19.9931 125.211C17.4745 130.937 21.0753 137.494 27.259 138.441L48.5418 141.7C49.8454 141.9 51.1623 142 52.4811 142H97.6786C103.107 142 107.259 137.163 106.436 131.798C106.153 129.948 105.291 128.235 103.974 126.905L96.9812 119.845C93.6994 116.531 91.1748 112.546 89.5812 108.163L88.012 103.847C85.2034 96.122 78.6288 90.3775 70.5968 88.6308C63.0093 86.9807 55.0927 89.1122 49.3595 94.3489L49.1328 94.5559C47.0597 96.4496 44.6769 97.9734 42.0882 99.0609L31.8614 103.357C27.0984 105.358 24 110.021 24 115.187V115.65C24 118.277 23.1023 120.824 21.4558 122.87Z" fill="white"/>
<path d="M75.7501 112C76.9929 112 78.001 110.995 78.001 109.75C76.5854 97.1802 68.6944 96.7857 62.2508 94C61.009 94 60.001 95.006 60.001 96.2499C60.001 97.4948 61.009 98.5008 62.2508 98.5008C68.2998 99.8105 73.5002 102.572 73.5002 109.75C73.5002 110.992 74.5062 112 75.7501 112Z" fill="#31394D"/>
<path d="M81.8562 112C83.039 112 83.999 111.026 83.999 109.819C83.999 97.7883 77.9759 89.7224 62.5702 88.0004C57.8431 88.0004 53.999 91.9144 53.999 96.7273C53.999 97.9345 54.9591 98.91 56.1418 98.91C57.3245 98.91 58.2846 97.9345 58.2846 96.7273C58.2846 94.3208 60.2067 92.3638 62.5711 92.3638C72.9656 90.3601 78.7274 100.308 79.7144 109.819C79.7134 111.023 80.6716 112 81.8562 112Z" fill="#31394D"/>
<path d="M62.401 100C61.0763 100 60.001 101.073 60.001 102.4C60.001 103.727 61.0763 104.8 62.401 104.8C65.0482 104.8 67.201 106.952 67.201 109.6C67.201 110.927 68.2763 112 69.601 112C70.9257 112 72.001 110.927 72.001 109.6C72.001 104.305 67.6932 100 62.401 100Z" fill="#31394D"/>
<path d="M89.8011 112C91.0153 112 92.001 111.043 92.001 109.857C92.001 94.4973 79.1706 82 63.4013 82H59.0005C52.9352 82 48.001 86.8061 48.001 92.7139C48.001 93.8996 48.9866 94.8567 50.2009 94.8567C51.4151 94.8567 52.4008 93.8996 52.4008 92.7139C52.4008 89.1696 55.3617 86.2856 59.0015 86.2856H63.4013C76.7441 86.2856 87.6012 96.8608 87.6012 109.857C87.6012 111.04 88.5848 112 89.8011 112Z" fill="#31394D"/>
<path d="M114.977 135.371C112.288 135.445 109.319 133.573 108.454 131.026C105.252 121.593 96.4342 110.065 85.6072 114.142C78.132 116.957 74.1651 116.532 72.1443 115.664C70.7415 115.061 68.8768 114.032 68.2317 115.416C68.0986 115.702 68.0242 116.021 68.0242 116.357C68.0242 117.344 68.6642 118.179 69.5478 118.465C69.9792 118.605 70.4394 118.649 70.8776 118.766C72.708 119.253 78.2269 120.365 85.6072 118.572C94.3438 116.448 103.386 125.537 105.082 135.06C105.198 135.711 104.681 136.286 104.019 136.286C103.459 136.286 102.991 135.868 102.887 135.318C101.319 126.983 93.1408 119.649 85.6072 120.786C79.0733 121.772 74.2556 121.111 72.8443 120.866C72.5594 120.817 72.2709 120.772 71.9874 120.829C70.9811 121.031 70.2219 121.925 70.2219 123C70.2219 124.12 71.0448 125.043 72.1128 125.193C72.3157 125.221 72.5175 125.229 72.7205 125.258C74.2027 125.463 80.8502 126.282 85.6072 125.214C90.6228 124.089 96.6538 129.226 98.3058 135.007C98.4946 135.667 97.9704 136.286 97.2833 136.286C96.7546 136.286 96.305 135.912 96.1579 135.404C94.8247 130.802 90.6012 127.428 85.6072 127.428H74.6185C73.4054 127.428 72.4197 128.418 72.4197 129.644C72.4197 130.753 73.2295 131.67 74.2844 131.832C74.505 131.866 74.7263 131.876 74.9469 131.91C76.4995 132.149 83.1303 133.073 85.6072 131.858C87.673 130.845 89.5513 132.32 90.764 134.194C91.3841 135.152 90.5994 136.286 89.4582 136.286C88.5451 136.286 87.8375 135.453 87.2192 134.781C86.8177 134.345 86.2439 134.072 85.6072 134.072H74.6185C73.7953 134.072 73.0769 134.528 72.7001 135.203C72.3959 135.749 71.9135 136.286 71.2891 136.286C70.6751 136.286 70.1737 135.782 70.1515 135.169C69.0054 103.43 51.4918 92 35.0569 92H32.8592C20.7395 92 10.8806 101.934 10.8806 114.143V125.214C10.8806 126.439 11.8653 127.428 13.0784 127.428C14.2915 127.428 14.8081 125.749 14.8081 124.524L15.2761 114.143C15.2761 104.376 23.1646 96.4284 32.8592 96.4284H35.0569C50.9459 97.1647 60.9286 105.756 63.2464 119.476C65.3969 132.206 65.6051 130.792 65.7587 135.155C65.7804 135.772 65.2839 136.286 64.6662 136.286C64.0722 136.286 63.5867 135.805 63.565 135.211C62.7287 112.287 54.461 100.294 35.0549 98.6426C26.5704 98.6426 19.6696 105.598 19.6696 114.143V116.357C19.6696 117.582 20.4608 118.572 21.8739 117.923C22.5327 117.62 23.2852 117.586 23.4902 116.818C23.5697 116.52 23.5797 116.206 23.6504 115.905L23.9588 114.595C24.0294 114.295 24.062 113.987 24.0747 113.678C24.3173 107.788 29.1501 103.071 35.0549 103.071C47.6076 102.638 56.3037 111.929 56.9519 119.476C57.5561 126.511 59.0038 130.266 59.1789 135.191C59.2004 135.796 58.7068 136.286 58.1015 136.286C57.4945 136.286 57.0033 135.784 56.9935 135.177C56.6405 113.376 45.8613 105.247 35.0539 105.756C31.4187 105.756 28.4606 108.266 28.4606 111.929C28.4606 113.153 29.4453 114.143 30.6584 114.143C31.8725 114.143 32.8572 113.153 32.8572 111.929C32.8572 110.707 33.8438 109.715 35.0549 109.715C45.8153 109.715 51.9029 118.073 52.5614 135.189C52.5844 135.787 52.1028 136.286 51.5043 136.286C50.916 136.286 50.4611 135.783 50.19 135.261C49.8229 134.554 49.0877 134.072 48.2414 134.072H37.2526C36.6153 134.072 36.0411 134.345 35.6395 134.781C35.0213 135.453 34.3139 136.286 33.4011 136.286C32.2602 136.286 31.4825 135.142 32.2067 134.26C33.4098 132.796 35.2185 131.858 37.2516 131.858H48.2414C49.4545 131.858 50.4392 130.868 50.4392 129.644C50.4392 128.418 49.4545 127.428 48.2414 127.428H37.2516C32.2606 127.428 28.0347 130.802 26.7011 135.404C26.5539 135.912 26.1042 136.286 25.5754 136.286C24.8883 136.286 24.3635 135.667 24.5456 135.005C26.1085 129.318 31.4899 124.812 37.2516 125.214C42.1938 125.559 44.8489 125.353 45.7179 125.256C45.9359 125.232 46.1541 125.222 46.371 125.19C47.4294 125.03 48.2414 124.113 48.2414 123C48.2414 121.776 49.2709 120.025 46.0427 120.786C43.237 121.447 38.6678 120.959 37.5198 120.82C37.3398 120.798 37.1597 120.785 36.9784 120.788C28.4854 120.919 21.4476 127.152 19.969 135.317C19.8692 135.868 19.4006 136.286 18.8406 136.286C18.1792 136.286 17.6622 135.71 17.7753 135.058C19.3999 125.706 27.5113 118.572 37.2516 118.572C39.1913 118.572 43.8459 119.474 43.8459 116.357C43.8459 115.132 42.8612 114.142 41.6482 114.142H37.5613C37.3552 114.142 37.1477 114.158 36.9443 114.191C25.0499 116.146 16.274 123.541 13.8563 131.754C13.1705 134.084 11.0326 135.996 8.60425 136.019C5.29312 136.05 1.24262 136.628 0.291487 139.149C-0.945058 142.428 2.0514 144.825 3.6905 145.849C4.31619 146.24 4.87954 146.731 5.32615 147.319C8.52234 151.521 13.4695 154 18.7721 154C67.2638 153.158 86.9158 153.158 108.484 154C114.075 154 118.779 149.264 122.414 146.525C122.527 146.44 122.633 146.353 122.734 146.254C123.543 145.456 127.274 141.526 125.551 138.502C124.253 136.225 119.285 135.254 114.977 135.371ZM118.925 143.943C116.593 147.468 112.689 149.572 108.485 149.572C92.9377 148.498 73.7776 148.469 18.7701 150.089C14.6878 150.089 10.8941 147.622 8.54205 144.255C8.39954 144.051 8.22539 143.87 8.02118 143.728C6.46302 142.643 7.17396 140.211 9.07227 140.17C21.0157 139.91 47.9632 139.481 62.0901 140.515C77.1128 141.613 106.634 141.059 117.192 140.812C118.82 140.774 119.823 142.585 118.925 143.943Z" fill="#31394D"/>
<path fill-rule="evenodd" clip-rule="evenodd" d="M99.0654 4.23974C87.7401 3.98687 70.6042 3.76634 64.1601 4.50249C57.6658 5.24439 41.3907 5.05818 30.2153 4.82273C24.9754 4.71233 20.6696 9.02834 20.7728 14.2826C20.951 23.3549 21.0337 35.8795 20.4429 44.9249C19.9345 52.7076 19.933 63.2091 20.0614 71.8054C20.1255 76.095 20.2216 79.8947 20.3017 82.6217C20.3417 83.9851 20.3778 85.0799 20.4038 85.8334C20.4168 86.2101 20.4272 86.5014 20.4345 86.6983L20.4456 86.9952C20.4456 86.9953 20.4456 86.9962 18.4471 87.0736C16.4486 87.151 16.4486 87.1508 16.4486 87.1505L16.4372 86.845C16.4298 86.6454 16.4192 86.3511 16.4061 85.9713C16.3799 85.2117 16.3437 84.11 16.3034 82.7392C16.2229 79.9977 16.1263 76.1783 16.0619 71.8652C15.9333 63.2562 15.9318 52.6181 16.4514 44.6641C17.0301 35.8044 16.9517 23.4297 16.7735 14.3612C16.626 6.84856 22.7729 0.665037 30.2995 0.823616C41.6045 1.0618 57.5475 1.2319 63.7061 0.528339C70.4902 -0.24666 87.9663 -0.0090819 99.1547 0.240733C106.027 0.394181 111.532 5.91269 111.681 12.782C111.973 26.2659 112.302 49.866 111.415 63.2058C110.778 72.7786 110.776 90.9304 110.937 106.764C111.017 114.664 111.138 121.962 111.238 127.285C111.288 129.947 111.333 132.114 111.366 133.616C111.382 134.367 111.395 134.951 111.405 135.348L111.419 135.95L111.419 135.952C111.419 135.952 111.419 135.952 109.419 136C107.42 136.048 107.42 136.048 107.42 136.047L107.406 135.439C107.401 135.233 107.395 134.977 107.388 134.673C107.382 134.39 107.375 134.066 107.367 133.703C107.334 132.198 107.289 130.026 107.239 127.361C107.138 122.03 107.018 114.72 106.937 106.804C106.777 91.0063 106.775 72.6946 107.424 62.9404C108.297 49.8088 107.975 26.3918 107.682 12.8686C107.579 8.13635 103.794 4.34533 99.0654 4.23974ZM18.5245 89.0721C17.4208 89.1148 16.4913 88.2543 16.4486 87.1505L18.4471 87.0736L20.4456 86.9952C20.4883 88.0989 19.6283 89.0293 18.5245 89.0721ZM109.467 137.999C108.363 138.026 107.446 137.152 107.42 136.047L109.419 136L111.419 135.952C111.445 137.056 110.571 137.973 109.467 137.999Z" fill="#31394D"/>
<path fill-rule="evenodd" clip-rule="evenodd" d="M64.9017 12.5584C56.2529 11.7692 42.6011 11.9694 33.5681 12.2335C30.0191 12.3372 27.3104 15.5823 27.7787 19.2337C28.3184 23.4424 28.8857 28.6395 29.1681 33.6565C29.4483 38.6345 29.458 43.5835 28.8235 47.2289C27.9014 52.5264 27.8893 61.4097 28.1305 69.1289C28.2501 72.9545 28.4295 76.4387 28.579 78.9669C28.6538 80.2306 28.721 81.2544 28.7695 81.9613C28.7938 82.3147 28.8133 82.5888 28.8267 82.7741L28.8422 82.984L28.8473 83.0526C28.8473 83.0527 28.8474 83.0534 28.3581 83.0906L28.8473 83.0526C28.9312 84.154 28.1064 85.1156 27.005 85.1995C25.9036 85.2834 24.9428 84.4585 24.8589 83.3572L26.853 83.2053C24.8589 83.3572 24.8589 83.3575 24.8589 83.3572L24.8532 83.2809L24.8372 83.0636C24.8234 82.8734 24.8035 82.5939 24.7789 82.235C24.7297 81.517 24.6616 80.4807 24.586 79.2031C24.4349 76.6489 24.2535 73.1261 24.1325 69.2538C23.8926 61.5772 23.8805 52.3008 24.8828 46.543C25.4345 43.373 25.4517 38.8067 25.1744 33.8813C24.8994 28.9951 24.3445 23.9009 23.8112 19.7425C23.0589 13.8766 27.4091 8.41182 33.4512 8.2352C42.4595 7.97187 56.3421 7.7607 65.2651 8.5749C74.0194 9.3737 86.9478 9.1587 95.2722 8.89035C100.745 8.71393 105.455 12.9134 105.643 18.4708C105.989 28.6982 106.354 47.0911 105.31 63.3917C104.545 75.321 104.544 90.4394 104.736 102.609C104.832 108.687 104.976 114.016 105.096 117.825C105.156 119.729 105.21 121.253 105.249 122.301C105.269 122.824 105.284 123.229 105.295 123.502L105.312 123.915C105.312 123.916 105.312 123.916 103.314 124C101.315 124.083 101.315 124.083 101.315 124.083L101.315 124.081L101.298 123.661C101.287 123.384 101.271 122.977 101.252 122.45C101.213 121.395 101.158 119.864 101.098 117.951C100.978 114.126 100.833 108.776 100.737 102.672C100.544 90.4806 100.543 75.2312 101.318 63.1359C102.349 47.0353 101.99 28.7995 101.645 18.6062C101.534 15.3388 98.7538 12.7802 95.4011 12.8883C87.0884 13.1562 73.9319 13.3823 64.9017 12.5584ZM103.397 125.998C102.294 126.044 101.362 125.186 101.315 124.083L103.314 124L105.312 123.915C105.358 125.019 104.501 125.951 103.397 125.998Z" fill="#31394D"/>
<path fill-rule="evenodd" clip-rule="evenodd" d="M76.8087 28.2365C71.4145 28.0683 66.1275 27.9035 63.1073 28.0657C62.0043 28.1249 61.0622 27.2788 61.0029 26.1758C60.9437 25.0728 61.7898 24.1307 62.8928 24.0714C66.1009 23.8991 71.6125 24.0716 76.9846 24.2398C77.9615 24.2704 78.9338 24.3008 79.8868 24.329C83.0221 24.4218 85.969 24.4916 88.2803 24.4719C89.438 24.462 90.4038 24.4298 91.1383 24.371C91.7875 24.3191 92.0917 24.2561 92.1771 24.2384C92.2015 24.2334 92.208 24.232 92.1997 24.2357C93.2119 23.7937 94.3909 24.2559 94.8329 25.2682C95.275 26.2804 94.8127 27.4594 93.8004 27.9014C93.1401 28.1898 92.2299 28.2964 91.4574 28.3583C90.5847 28.4281 89.5106 28.4616 88.3144 28.4718C85.9179 28.4922 82.9013 28.4199 79.7685 28.3273C78.7872 28.2982 77.7962 28.2673 76.8087 28.2365ZM86.9801 41.0537C81.0991 40.9171 70.0361 40.6601 64.1286 41.1159C63.0273 41.2009 62.0657 40.377 61.9807 39.2757C61.8957 38.1744 62.7196 37.2128 63.8209 37.1278C69.986 36.6521 81.6755 36.9261 87.42 37.0607C88.9297 37.0961 90.0288 37.1218 90.5091 37.1218C91.6136 37.1218 92.5091 38.0173 92.5091 39.1218C92.5091 40.2264 91.6136 41.1218 90.5091 41.1218C89.9153 41.1218 88.6588 41.0927 86.9801 41.0537ZM92.7601 51.9851C90.4748 51.709 81.3684 51.2866 64.0569 51.9979C62.9533 52.0433 62.0218 51.1853 61.9765 50.0817C61.9311 48.9781 62.789 48.0466 63.8927 48.0013C81.2382 47.2886 90.6155 47.6969 93.24 48.014C94.3366 48.1466 95.1181 49.1429 94.9856 50.2395C94.8531 51.3361 93.8567 52.1177 92.7601 51.9851Z" fill="#31394D"/>
<path fill-rule="evenodd" clip-rule="evenodd" d="M37 61C37 59.8954 37.8954 59 39 59H93C94.1046 59 95 59.8954 95 61C95 62.1046 94.1046 63 93 63H39C37.8954 63 37 62.1046 37 61Z" fill="#31394D"/>
<path fill-rule="evenodd" clip-rule="evenodd" d="M37 71.0002C37 69.8957 37.8954 69.0002 39 69.0002H79C80.1046 69.0002 81 69.8957 81 71.0002C81 72.1048 80.1046 73.0002 79 73.0002H39C37.8954 73.0002 37 72.1048 37 71.0002Z" fill="#31394D"/>
<path fill-rule="evenodd" clip-rule="evenodd" d="M40.4277 28.4924C40.5323 30.5146 40.6509 32.5917 40.7626 34.5463C40.827 35.6746 40.8891 36.762 40.9448 37.7746C41.0359 39.4304 41.1103 40.8912 41.1483 41.9855C41.1672 42.5304 41.1779 43.0048 41.1759 43.3756C41.175 43.5593 41.1708 43.74 41.1605 43.9019L41.1602 43.9068C41.1535 44.0119 41.1351 44.3012 41.0448 44.5924C40.7177 45.6474 39.5973 46.2376 38.5423 45.9105C37.5592 45.6057 36.9798 44.6121 37.1699 43.6244C37.1727 43.5699 37.1753 43.4823 37.176 43.3546C37.1775 43.0637 37.169 42.6515 37.1507 42.1243C37.1143 41.0745 37.0419 39.6495 36.9509 37.9944C36.896 36.9984 36.8345 35.9209 36.7704 34.7984C36.6239 32.233 36.464 29.4327 36.3402 26.8337C36.2496 25.7611 37.0276 24.8036 38.1043 24.6796C42.3215 24.1937 49.3134 24.3302 55.5558 24.5008C55.9495 24.5116 56.3134 24.6354 56.6175 24.8403C57.3151 25.1526 57.8012 25.8529 57.8012 26.6666C57.8012 28.5211 57.6838 31.8637 57.5596 35.4008C57.5046 36.9675 57.4483 38.5723 57.4002 40.1029C57.321 42.6224 57.2637 44.9486 57.2668 46.6376C57.2683 47.4902 57.2854 48.1343 57.3168 48.5464C57.3195 48.5809 57.3221 48.6117 57.3246 48.6391C57.438 48.8901 57.5012 49.1687 57.5012 49.4621C57.5012 50.5666 56.6057 51.4621 55.5012 51.4621C55.41 51.4621 55.3227 51.4566 55.2391 51.4466C55.1571 51.4568 55.0736 51.4621 54.9888 51.4621C54.9918 51.4621 54.9862 51.4624 54.9675 51.4633C54.9298 51.4653 54.8392 51.47 54.6591 51.4806C54.6273 51.4825 54.5938 51.4845 54.5586 51.4866C54.3402 51.4996 54.0558 51.5164 53.7123 51.5348C52.9122 51.5777 51.7895 51.629 50.3594 51.6631C47.4995 51.7314 43.4182 51.731 38.2299 51.4593C37.1268 51.4016 36.2795 50.4605 36.3372 49.3575C36.395 48.2544 37.336 47.407 38.4391 47.4648C45.8529 47.8531 50.8164 47.6769 53.2751 47.5507C53.27 47.2658 53.2674 46.9623 53.2668 46.6448C53.2636 44.8829 53.323 42.4981 53.4021 39.9773C53.4522 38.3832 53.51 36.7372 53.5658 35.1485C53.6544 32.6282 53.7378 30.252 53.7773 28.4554C48.8891 28.3328 43.9707 28.2686 40.4277 28.4924ZM55.5012 47.4621C55.8576 47.4621 56.151 47.5476 56.3879 47.6689C56.1207 47.5365 55.8196 47.4621 55.5012 47.4621ZM37.1651 43.6866C37.165 43.6861 37.1656 43.6768 37.1677 43.6603C37.1664 43.6789 37.1653 43.6872 37.1651 43.6866Z" fill="#31394D"/>
</svg>
