<svg width="683" height="641" viewBox="0 0 683 641" fill="none" xmlns="http://www.w3.org/2000/svg">
<path d="M344.685 239.817C344.826 239.996 345.049 240.089 345.275 240.063C345.819 240 346.061 239.329 345.686 238.931C345.602 238.843 345.519 238.755 345.435 238.668C345.297 238.524 345.098 238.456 344.9 238.483C344.394 238.55 344.162 239.162 344.48 239.56C344.549 239.646 344.617 239.732 344.685 239.817Z" fill="white"/>
<path d="M212.227 270.279C212.194 270.054 212.047 269.862 211.838 269.771C211.336 269.554 210.791 270.014 210.917 270.547C210.945 270.665 210.973 270.783 211.002 270.9C211.05 271.094 211.189 271.252 211.373 271.328C211.845 271.522 212.352 271.109 212.275 270.604C212.259 270.496 212.243 270.388 212.227 270.279Z" fill="white"/>
<path d="M11.727 64.1372C11.4896 63.8566 11.1267 63.7144 10.7619 63.7594C9.86396 63.8702 9.47778 64.9711 10.112 65.6164C10.2475 65.7543 10.3831 65.8916 10.5192 66.028C10.7539 66.2634 11.0862 66.3727 11.4154 66.3267C12.255 66.2094 12.6332 65.2067 12.085 64.5601C11.9657 64.4194 11.8464 64.2784 11.727 64.1372Z" fill="white"/>
<path d="M412.737 588.902C412.802 589.264 413.045 589.569 413.384 589.712C414.217 590.065 415.102 589.305 414.875 588.429C414.827 588.242 414.778 588.055 414.728 587.869C414.643 587.548 414.409 587.287 414.101 587.162C413.316 586.844 412.487 587.523 412.638 588.357C412.671 588.539 412.704 588.72 412.737 588.902Z" fill="white"/>
<path d="M263.112 606.013C262.939 605.394 262.467 604.903 261.854 604.709C260.349 604.232 258.952 605.69 259.492 607.174C259.602 607.477 259.711 607.779 259.82 608.081C260.021 608.634 260.473 609.06 261.037 609.227C262.444 609.643 263.76 608.333 263.365 606.92C263.28 606.618 263.196 606.316 263.112 606.013Z" fill="white"/>
<path d="M320.596 190.042C319.748 190.609 319.908 191.896 320.87 192.236C321.667 192.519 322.501 191.939 322.522 191.094C322.534 190.584 322.546 190.072 322.558 189.559C322.562 189.382 322.459 189.219 322.296 189.148C322.159 189.088 322 189.102 321.876 189.185L320.596 190.042Z" fill="white"/>
<path d="M208.199 325.431C209.217 325.363 209.722 324.169 209.059 323.393C208.51 322.75 207.498 322.835 207.057 323.556C206.792 323.991 206.525 324.429 206.259 324.867C206.166 325.019 206.175 325.212 206.28 325.355C206.369 325.475 206.513 325.542 206.662 325.532L208.199 325.431Z" fill="white"/>
<path d="M571.998 256.947C571.521 256.504 570.736 256.802 570.668 257.449C570.613 257.978 571.094 258.398 571.614 258.284C571.933 258.214 572.252 258.146 572.573 258.083C572.69 258.06 572.787 257.956 572.807 257.838C572.821 257.751 572.785 257.679 572.72 257.62L571.998 256.947Z" fill="white"/>
<path d="M23.9297 141.788C24.1208 142.411 24.95 142.545 25.3321 142.019C25.6442 141.588 25.4375 140.984 24.9306 140.823C24.6193 140.724 24.3087 140.623 23.9993 140.517C23.8863 140.478 23.7501 140.52 23.6744 140.612C23.6186 140.68 23.6142 140.761 23.6401 140.845L23.9297 141.788Z" fill="white"/>
<path d="M230.511 87.9411C230.051 88.5123 230.445 89.3588 231.178 89.3858C231.785 89.4081 232.233 88.838 232.066 88.2544C231.963 87.8927 231.859 87.5284 231.759 87.1624C231.728 87.047 231.634 86.9607 231.514 86.9536C231.396 86.9465 231.277 86.9911 231.202 87.0831L230.511 87.9411Z" fill="white"/>
<path d="M235.165 458.895C235.849 458.631 235.931 457.7 235.31 457.311C234.796 456.988 234.122 457.258 233.975 457.846C233.883 458.211 233.791 458.579 233.695 458.945C233.665 459.061 233.703 459.183 233.803 459.249C233.901 459.314 234.027 459.335 234.138 459.293L235.165 458.895Z" fill="white"/>
<path d="M570.15 115.517C571.341 116.15 572.753 115.15 572.554 113.816C572.39 112.721 571.209 112.112 570.221 112.612C569.619 112.917 569.014 113.223 568.408 113.525C568.194 113.631 568.064 113.852 568.085 114.089C568.104 114.302 568.225 114.495 568.413 114.595L570.15 115.517Z" fill="white"/>
<path d="M681.166 298.015C681.194 297.996 681.201 297.956 681.175 297.936C681.17 297.933 681.165 297.929 681.16 297.926C681.128 297.904 681.086 297.928 681.086 297.966L681.085 297.978C681.085 298.018 681.133 298.036 681.166 298.015Z" fill="white"/>
<path d="M198.907 11.6405C199.032 11.6012 199.071 11.451 198.985 11.3528C198.982 11.3483 198.978 11.3438 198.974 11.3393C198.875 11.2267 198.694 11.2783 198.661 11.4243C198.63 11.5633 198.758 11.6871 198.894 11.6447C198.899 11.6433 198.903 11.6419 198.907 11.6405Z" fill="white"/>
<path d="M224.384 540.776C224.257 540.748 224.148 540.858 224.173 540.986C224.174 540.992 224.175 540.998 224.177 541.003C224.206 541.15 224.388 541.196 224.489 541.086C224.586 540.981 224.537 540.81 224.398 540.779C224.394 540.778 224.389 540.777 224.384 540.776Z" fill="white"/>
<path d="M440.657 274.99C440.634 274.97 440.596 274.972 440.581 274.999C440.562 275.032 440.588 275.074 440.625 275.069L440.635 275.068C440.674 275.064 440.689 275.019 440.66 274.993C440.659 274.992 440.658 274.991 440.657 274.99Z" fill="white"/>
<path d="M146.698 191.833C146.708 191.863 146.741 191.879 146.768 191.863C146.801 191.844 146.8 191.795 146.765 191.78L146.756 191.777C146.72 191.761 146.684 191.792 146.696 191.829C146.697 191.831 146.697 191.832 146.698 191.833Z" fill="white"/>
<path d="M601.525 276.643C601.514 276.601 601.459 276.575 601.425 276.6C601.424 276.601 601.423 276.602 601.422 276.603C601.383 276.632 601.396 276.688 601.442 276.701L601.452 276.703C601.495 276.714 601.536 276.685 601.525 276.643Z" fill="white"/>
<path d="M8.20847 109.968C8.19738 110.01 8.23134 110.06 8.27388 110.055C8.2752 110.055 8.27653 110.054 8.27785 110.054C8.32552 110.049 8.34334 109.993 8.30924 109.959L8.30202 109.952C8.27059 109.921 8.21993 109.925 8.20847 109.968Z" fill="white"/>
<path d="M515.075 51.4543C515.3 51.6392 515.641 51.5261 515.711 51.2435C515.752 51.0744 515.679 50.8979 515.529 50.8086C514.588 50.246 513.646 49.6835 512.705 49.121C512.589 49.0521 512.449 49.1584 512.483 49.2882C512.491 49.3184 512.509 49.3453 512.533 49.3651L515.075 51.4543Z" fill="white"/>
<path d="M501.013 96.6004C501.03 96.4776 500.911 96.3798 500.794 96.4203C500.727 96.4435 500.682 96.5069 500.683 96.5779C500.688 97.0289 500.709 97.4758 500.715 97.9265C500.715 97.9789 500.783 98.0007 500.814 97.9585C500.819 97.9513 500.822 97.9428 500.824 97.9339L501.013 96.6004Z" fill="white"/>
<path d="M5.23191 316.145C5.15539 316.243 5.20926 316.387 5.3311 316.41C5.40081 316.424 5.47141 316.391 5.50623 316.33C5.72741 315.936 5.93289 315.539 6.15306 315.146C6.17863 315.1 6.13136 315.048 6.08339 315.069C6.07516 315.072 6.06795 315.078 6.0624 315.085L5.23191 316.145Z" fill="white"/>
<path d="M77.1858 199.584C77.2155 199.567 77.2426 199.539 77.251 199.506C77.2627 199.46 77.2342 199.422 77.1946 199.395C77.123 199.347 77.0516 199.299 76.9807 199.249C76.7159 199.065 76.3553 199.056 76.1054 199.26C76.0095 199.338 75.914 199.417 75.8179 199.495C75.6223 199.655 75.6295 199.957 75.8338 200.106C75.9564 200.195 76.12 200.203 76.2511 200.127L77.1858 199.584Z" fill="white"/>
<path d="M423.77 438.872C423.736 438.872 423.698 438.882 423.674 438.907C423.641 438.941 423.647 438.988 423.668 439.031C423.706 439.109 423.743 439.186 423.78 439.264C423.917 439.557 424.225 439.745 424.543 439.693C424.666 439.673 424.788 439.653 424.91 439.633C425.159 439.592 425.304 439.327 425.202 439.096C425.14 438.957 425.003 438.868 424.851 438.869L423.77 438.872Z" fill="white"/>
<path d="M153.231 10.51C153.29 10.5049 153.344 10.467 153.381 10.4205C153.434 10.3538 153.448 10.2642 153.406 10.1901C153.284 9.97328 153.157 9.75344 153.03 9.5337C152.778 9.09758 152.269 8.87379 151.781 8.99575C151.471 9.073 151.163 9.15115 150.854 9.22864C150.371 9.3498 150.136 9.90186 150.387 10.3318C150.532 10.5787 150.806 10.7203 151.091 10.6956L153.231 10.51Z" fill="white"/>
<path d="M263.376 564.593C263.323 564.568 263.257 564.574 263.201 564.595C263.122 564.627 263.066 564.697 263.065 564.782C263.062 565.031 263.062 565.285 263.062 565.539C263.062 566.043 263.391 566.491 263.875 566.629C264.182 566.717 264.487 566.804 264.794 566.891C265.273 567.028 265.753 566.667 265.75 566.169C265.748 565.883 265.582 565.623 265.322 565.502L263.376 564.593Z" fill="white"/>
<path d="M627.893 183.402C628.237 183.513 628.615 183.395 628.835 183.108L629.165 182.678C629.671 182.018 629.273 181.06 628.448 180.954C627.743 180.863 627.138 181.465 627.235 182.169C627.261 182.354 627.287 182.539 627.315 182.725C627.363 183.042 627.588 183.303 627.893 183.402Z" fill="white"/>
<path d="M472.105 268.449C471.669 268.61 471.376 269.02 471.364 269.483L471.347 270.196C471.318 271.32 472.53 272.053 473.516 271.514C474.345 271.061 474.512 269.951 473.852 269.275C473.673 269.092 473.494 268.908 473.313 268.723C473 268.401 472.526 268.293 472.105 268.449Z" fill="white"/>
<path d="M116.192 181.774C116.65 181.853 117.109 181.644 117.351 181.248L117.722 180.64C118.309 179.681 117.627 178.44 116.503 178.414C115.558 178.392 114.859 179.269 115.092 180.185C115.155 180.433 115.219 180.682 115.283 180.933C115.393 181.368 115.749 181.699 116.192 181.774Z" fill="white"/>
<path d="M349.105 172.018C349.17 172.557 349.561 173 350.087 173.134L350.899 173.339C352.138 173.652 353.251 172.506 352.9 171.277C352.599 170.222 351.376 169.747 350.436 170.311C350.209 170.447 349.981 170.583 349.751 170.718C349.298 170.986 349.042 171.495 349.105 172.018Z" fill="white"/>
<path d="M174.498 326.786C174.711 326.286 174.595 325.707 174.206 325.328L173.605 324.745C172.689 323.854 171.152 324.29 170.841 325.53C170.575 326.594 171.396 327.617 172.492 327.598C172.757 327.594 173.023 327.59 173.289 327.588C173.815 327.583 174.291 327.27 174.498 326.786Z" fill="white"/>
<path d="M535.027 183.783C534.871 184.181 534.997 184.635 535.336 184.895C535.896 185.325 536.712 185.026 536.861 184.336C536.964 183.858 537.068 183.38 537.171 182.901C537.234 182.609 537.138 182.306 536.918 182.103C536.482 181.703 535.779 181.865 535.563 182.416L535.027 183.783Z" fill="white"/>
<path d="M19.3664 223.636C19.7007 223.369 19.8183 222.914 19.6551 222.518C19.3858 221.866 18.5288 221.717 18.055 222.24C17.7264 222.603 17.3978 222.965 17.0692 223.328C16.8686 223.549 16.8002 223.86 16.8896 224.146C17.0666 224.711 17.7561 224.921 18.219 224.552L19.3664 223.636Z" fill="white"/>
<path d="M250.189 279.15C249.649 279.438 249.362 280.046 249.484 280.645C249.688 281.643 250.866 282.085 251.678 281.472C252.242 281.046 252.805 280.621 253.371 280.191C253.712 279.932 253.891 279.512 253.841 279.086C253.743 278.235 252.819 277.75 252.063 278.153L250.189 279.15Z" fill="white"/>
<path d="M313.73 283.465C314.341 283.486 314.894 283.102 315.087 282.522C315.409 281.556 314.611 280.584 313.601 280.709C312.9 280.796 312.199 280.883 311.494 280.972C311.069 281.026 310.704 281.301 310.534 281.694C310.194 282.48 310.752 283.362 311.607 283.391L313.73 283.465Z" fill="white"/>
<path d="M65.4076 7.60892C64.4569 7.56942 63.5936 8.16006 63.2859 9.0604C62.7767 10.5505 63.9905 12.061 65.5546 11.8787C66.6415 11.752 67.7282 11.6248 68.8159 11.5009C69.486 11.4247 70.0653 10.9977 70.3346 10.3793C70.863 9.16579 70.0081 7.80005 68.6856 7.7451L65.4076 7.60892Z" fill="white"/>
<path d="M337.983 611.017C338.787 611.526 339.83 611.446 340.546 610.821C341.732 609.785 341.436 607.87 339.991 607.245C338.986 606.812 337.981 606.379 336.977 605.942C336.359 605.673 335.644 605.753 335.101 606.154C334.037 606.941 334.094 608.551 335.212 609.26L337.983 611.017Z" fill="white"/>
<path d="M34.1502 128.789C34.075 128.148 33.5865 127.633 32.9505 127.525C31.8956 127.345 31.0151 128.327 31.3052 129.357C31.5065 130.072 31.7058 130.788 31.9002 131.501C32.022 131.948 32.3741 132.296 32.8232 132.411C33.6942 132.633 34.517 131.912 34.4122 131.02L34.1502 128.789Z" fill="white"/>
<path d="M425.641 521.7C425.386 522.293 425.552 522.983 426.048 523.395C426.872 524.078 428.126 523.667 428.39 522.63C428.573 521.911 428.758 521.191 428.946 520.476C429.064 520.028 428.933 519.551 428.602 519.227C427.958 518.599 426.886 518.812 426.53 519.637L425.641 521.7Z" fill="white"/>
<path d="M293.014 367.678C292.161 366.928 290.813 367.431 290.659 368.556C290.595 369.019 290.532 369.482 290.469 369.948C290.448 370.103 290.506 370.259 290.624 370.362C290.742 370.466 290.903 370.503 291.055 370.463C291.515 370.341 291.977 370.221 292.439 370.101C293.538 369.818 293.867 368.428 293.014 367.678Z" fill="white"/>
<path d="M320.904 185.384C321.268 186.46 322.686 186.698 323.383 185.801C323.669 185.432 323.956 185.063 324.243 184.69C324.339 184.567 324.366 184.403 324.316 184.255C324.265 184.106 324.144 183.993 323.993 183.952C323.533 183.828 323.073 183.701 322.614 183.573C321.52 183.269 320.54 184.309 320.904 185.384Z" fill="white"/>
<path d="M247.241 62.9144C247.305 63.0318 247.409 63.1216 247.535 63.1666C247.649 63.2075 247.763 63.2484 247.878 63.2893C248.307 63.4429 248.786 63.3333 249.106 63.0084L249.253 62.8587C249.537 62.5695 249.592 62.1253 249.386 61.7756C249.085 61.2626 248.376 61.1811 247.965 61.6121L247.325 62.284C247.164 62.4538 247.13 62.7082 247.241 62.9144Z" fill="white"/>
<path d="M208.163 472.204C208.166 472.07 208.121 471.94 208.034 471.839C207.956 471.746 207.877 471.653 207.799 471.561C207.504 471.213 207.034 471.068 206.595 471.19L206.392 471.246C206.001 471.354 205.732 471.712 205.735 472.117C205.74 472.713 206.313 473.138 206.884 472.97L207.775 472.708C207.999 472.641 208.156 472.438 208.163 472.204Z" fill="white"/>
<path d="M489.65 28.1312C489.596 27.7224 489.122 27.5225 488.792 27.7688L486.286 29.634C486.199 29.6987 486.153 29.805 486.166 29.9125C486.168 29.9267 486.171 29.9408 486.174 29.9546C486.175 29.9565 486.175 29.9585 486.176 29.9605C486.235 30.1788 486.48 30.2637 486.678 30.1551L489.374 28.6765C489.57 28.5692 489.68 28.3526 489.65 28.1312Z" fill="white"/>
<path d="M121.544 123.5C121.291 123.549 121.179 123.847 121.336 124.051L122.494 125.548C122.546 125.615 122.632 125.644 122.714 125.622C122.863 125.582 122.912 125.414 122.836 125.28L121.91 123.667C121.836 123.539 121.689 123.471 121.544 123.5Z" fill="white"/>
<path d="M347.312 482.584C347.556 482.667 347.802 482.465 347.767 482.21L347.513 480.335C347.502 480.251 347.442 480.183 347.36 480.161C347.211 480.121 347.084 480.242 347.084 480.396L347.079 482.256C347.078 482.404 347.172 482.536 347.312 482.584Z" fill="white"/>
<path d="M510.196 152.408C510.322 152.477 510.477 152.466 510.589 152.374C510.596 152.368 510.603 152.362 510.611 152.356C510.713 152.272 510.76 152.135 510.726 152.006C510.703 151.919 510.644 151.846 510.565 151.803C510.258 151.637 509.958 151.468 509.654 151.294C509.29 151.085 508.872 150.989 508.454 151.02L507.922 151.059C507.914 151.06 507.907 151.062 507.9 151.067C507.872 151.086 507.873 151.128 507.903 151.145L510.196 152.408Z" fill="white"/>
<path d="M25.1826 263.222C25.1079 263.099 24.968 263.031 24.8257 263.055C24.8164 263.057 24.8071 263.058 24.7978 263.06C24.6665 263.082 24.5573 263.177 24.5228 263.305C24.4995 263.392 24.5133 263.485 24.5604 263.562C24.7434 263.859 24.9186 264.156 25.095 264.458C25.3062 264.821 25.6196 265.113 25.9974 265.296L26.4774 265.527C26.4844 265.531 26.4922 265.532 26.5001 265.532C26.5345 265.53 26.5545 265.492 26.5366 265.462L25.1826 263.222Z" fill="white"/>
<path d="M316.313 239.682C316.34 239.682 316.35 239.645 316.326 239.632C316.302 239.618 316.275 239.644 316.289 239.668C316.294 239.677 316.303 239.682 316.313 239.682Z" fill="white"/>
<path d="M236.729 284.582C236.705 284.569 236.678 284.596 236.692 284.62C236.706 284.643 236.742 284.634 236.743 284.606C236.743 284.596 236.738 284.587 236.729 284.582Z" fill="white"/>
<path d="M271.072 243.679C271.096 243.665 271.088 243.629 271.06 243.627C271.034 243.625 271.021 243.658 271.041 243.675C271.049 243.683 271.062 243.684 271.072 243.679Z" fill="white"/>
<path d="M277.908 303.743C277.88 303.742 277.869 303.778 277.892 303.793C277.914 303.808 277.942 303.786 277.934 303.761C277.93 303.75 277.92 303.743 277.908 303.743Z" fill="white"/>
<path d="M441.146 34.9215C441.123 34.8915 441.075 34.9091 441.078 34.9465C441.08 34.9859 441.134 34.9954 441.15 34.9592C441.155 34.9468 441.154 34.9324 441.146 34.9215Z" fill="white"/>
<path d="M26.2395 399.494C26.244 399.531 26.2941 399.54 26.3108 399.506C26.3283 399.471 26.2864 399.436 26.2546 399.459C26.2437 399.467 26.2379 399.48 26.2395 399.494Z" fill="white"/>
<path d="M148.244 38.5014C148.238 38.5216 148.263 38.5371 148.278 38.5217C148.292 38.5071 148.278 38.4832 148.258 38.4884C148.252 38.4902 148.247 38.495 148.244 38.5014Z" fill="white"/>
<path d="M281.69 542.844C281.706 542.83 281.692 542.804 281.671 542.81C281.652 542.815 281.652 542.843 281.671 542.848C281.678 542.85 281.685 542.848 281.69 542.844Z" fill="white"/>
<path d="M48.5612 561.831C48.5327 561.82 48.5019 561.818 48.472 561.823L45.0977 562.445C44.5675 562.542 44.1787 562.996 44.1654 563.535C44.1408 564.53 45.3133 565.075 46.0553 564.411L48.6176 562.121C48.7147 562.034 48.6838 561.875 48.5612 561.831Z" fill="white"/>
<path d="M457.38 397.304C457.351 397.374 457.365 397.454 457.415 397.511C457.547 397.66 457.792 397.539 457.761 397.342C457.73 397.146 457.465 397.104 457.387 397.287C457.385 397.292 457.382 397.298 457.38 397.304Z" fill="white"/>
<path d="M193.372 77.5442C193.432 77.4985 193.46 77.422 193.445 77.3479C193.405 77.1522 193.133 77.1342 193.061 77.3207C192.991 77.506 193.199 77.675 193.357 77.5556C193.362 77.5518 193.367 77.548 193.372 77.5442Z" fill="white"/>
<path d="M591.119 333.495C591.287 333.42 591.396 333.256 591.404 333.072C591.425 332.577 590.78 332.369 590.502 332.781C590.229 333.187 590.646 333.706 591.093 333.507C591.102 333.503 591.11 333.499 591.119 333.495Z" fill="white"/>
<path d="M45.6466 65.935C45.4637 65.9161 45.2866 66.0036 45.1879 66.1588C44.9218 66.5775 45.3773 67.0798 45.8231 66.8622C46.2633 66.6475 46.1614 65.989 45.6743 65.9379C45.665 65.937 45.6558 65.936 45.6466 65.935Z" fill="white"/>
<path d="M648.859 339.779C648.716 338.948 648.107 338.274 647.295 338.047L646.665 337.87C646.407 337.798 646.128 337.84 645.898 337.977C645.549 338.184 645.379 338.591 645.471 338.987L646.01 341.315C646.147 341.904 646.623 342.358 647.215 342.478C648.27 342.694 649.205 341.786 649.022 340.725L648.859 339.779Z" fill="white"/>
<path d="M-1.21634 31.6231C-1.50791 32.4145 -1.31788 33.303 -0.728133 33.9058L-0.270982 34.3731C-0.0832862 34.565 0.178558 34.6683 0.446946 34.6649C0.853068 34.6598 1.20303 34.3918 1.32152 34.0033L2.01858 31.7178C2.19493 31.1396 2.00926 30.5084 1.55673 30.1076C0.750784 29.3938 -0.512461 29.7127 -0.88466 30.7229L-1.21634 31.6231Z" fill="white"/>
<path d="M80.2879 577.475C80.2667 577.61 80.325 577.741 80.4373 577.819C80.5005 577.863 80.5638 577.907 80.6274 577.951C81.0148 578.219 81.523 577.829 81.3639 577.385C81.2621 577.102 80.9285 576.979 80.6676 577.13L80.4338 577.265C80.3591 577.308 80.3013 577.389 80.2879 577.475Z" fill="white"/>
<path d="M547.418 5.92883C547.222 5.77496 546.94 5.74463 546.722 5.86628C546.576 5.9482 546.429 6.03059 546.282 6.11329C545.495 6.55598 545.74 7.75938 546.636 7.86054C547.219 7.92621 547.715 7.44212 547.664 6.85841L547.617 6.31713C547.603 6.16159 547.541 6.02523 547.418 5.92883Z" fill="white"/>
<path d="M187.582 91.8184C187.694 91.5429 187.599 91.2306 187.374 91.0364C187.222 90.906 187.07 90.7755 186.919 90.645C186.125 89.9617 184.921 90.6982 185.168 91.7163C185.329 92.3791 186.057 92.7279 186.674 92.4377L187.232 92.1757C187.388 92.1022 187.516 91.9784 187.582 91.8184Z" fill="white"/>
<path d="M274.28 477.002C274.044 477.184 273.971 477.502 274.069 477.783C274.135 477.972 274.201 478.161 274.267 478.35C274.613 479.338 276.024 479.302 276.319 478.297C276.511 477.643 276.055 476.977 275.375 476.919L274.761 476.868C274.589 476.853 274.416 476.896 274.28 477.002Z" fill="white"/>
<path d="M347.476 102.653C347.573 102.658 347.665 102.605 347.707 102.517C347.742 102.445 347.776 102.372 347.81 102.299C347.976 101.949 347.583 101.585 347.246 101.778C347.031 101.901 346.981 102.19 347.142 102.378L347.307 102.569C347.35 102.618 347.411 102.649 347.476 102.653Z" fill="white"/>
<path d="M141.226 387.672C141.145 387.618 141.039 387.619 140.958 387.674C140.892 387.719 140.826 387.765 140.76 387.811C140.441 388.032 140.6 388.543 140.988 388.545C141.236 388.546 141.424 388.321 141.378 388.077L141.331 387.829C141.318 387.765 141.281 387.708 141.226 387.672Z" fill="white"/>
<path d="M0.544784 537.321C0.589316 536.769 0.276324 536.245 -0.226125 536.012C-0.594259 535.841 -0.962392 535.67 -1.33053 535.499C-3.19529 534.633 -5.07391 536.669 -4.06118 538.458C-3.4049 539.617 -1.8526 539.888 -0.842433 539.019L0.0760094 538.229C0.346832 537.997 0.51607 537.678 0.544784 537.321Z" fill="white"/>
<path d="M73.0942 43.8324C72.3419 42.9606 70.9802 42.9945 70.2724 43.9028C69.4915 44.9046 69.9472 46.3779 71.1574 46.764L73.0607 47.3711C73.9469 47.6538 74.8399 46.9084 74.7018 45.9885C74.6674 45.7589 74.5662 45.5383 74.4145 45.3625L73.0942 43.8324Z" fill="white"/>
<path d="M349.437 575.802C349.653 576.934 350.849 577.585 351.916 577.152C353.093 576.675 353.435 575.171 352.58 574.232L351.235 572.755C350.609 572.067 349.463 572.266 349.123 573.131C349.038 573.347 349.015 573.589 349.059 573.817L349.437 575.802Z" fill="white"/>
<path d="M563.864 218.383C562.65 218.464 561.812 219.634 562.127 220.81C562.475 222.107 564.007 222.662 565.105 221.889L566.841 220.666C567.644 220.1 567.583 218.879 566.724 218.402C566.503 218.28 566.25 218.224 565.998 218.241L563.864 218.383Z" fill="white"/>
<path d="M11.694 179.253C12.786 179.79 14.0965 179.195 14.4115 178.019C14.759 176.723 13.7097 175.476 12.3725 175.596L10.2575 175.787C9.27913 175.875 8.7213 176.964 9.22715 177.806C9.35714 178.023 9.54839 178.198 9.77494 178.309L11.694 179.253Z" fill="white"/>
<path d="M232.509 577.064C232.118 577.031 231.868 577.48 232.117 577.783L232.138 577.808C232.272 577.971 232.502 578.016 232.688 577.916C233.08 577.706 232.951 577.101 232.509 577.064Z" fill="white"/>
<path d="M629.609 260.188C629.751 259.973 629.566 259.683 629.312 259.727C629.175 259.751 629.075 259.87 629.074 260.009L629.074 260.03C629.073 260.318 629.451 260.428 629.609 260.188Z" fill="white"/>
<path d="M433.052 321.786C432.755 321.662 432.455 321.954 432.575 322.253L432.583 322.273C432.648 322.434 432.817 322.527 432.988 322.495C433.343 322.427 433.386 321.926 433.052 321.786Z" fill="white"/>
<path d="M176.683 155.109C176.878 155.365 177.283 155.262 177.329 154.943L177.333 154.922C177.357 154.75 177.257 154.585 177.093 154.528C176.751 154.409 176.464 154.821 176.683 155.109Z" fill="white"/>
<path d="M271.462 324.937C271.284 324.929 271.117 325.024 271.033 325.181L268.212 330.46C268.119 330.636 268.106 330.843 268.178 331.029C268.279 331.293 268.534 331.467 268.817 331.466L270.106 331.464C271.753 331.46 272.969 329.927 272.596 328.323L271.891 325.295C271.844 325.093 271.669 324.947 271.462 324.937Z" fill="white"/>
<path d="M318.201 233.175C318.351 233.271 318.543 233.273 318.694 233.178L323.777 230.017C323.946 229.912 324.06 229.739 324.091 229.542C324.135 229.263 324.002 228.985 323.756 228.844L322.638 228.201C321.211 227.381 319.391 228.101 318.912 229.677L318.008 232.651C317.947 232.849 318.026 233.063 318.201 233.175Z" fill="white"/>
<path d="M597.733 92.5897C597.713 92.6674 597.737 92.7495 597.796 92.8045L599.626 94.5347C599.776 94.6763 599.977 94.7499 600.183 94.738C600.485 94.7205 600.747 94.5225 600.846 94.2362C600.883 94.13 600.919 94.0241 600.956 93.9183C601.252 93.0567 600.557 92.1743 599.65 92.2601L597.927 92.423C597.833 92.4319 597.756 92.4987 597.733 92.5897Z" fill="white"/>
<path d="M369.912 330.696C369.925 330.629 369.902 330.56 369.851 330.514L367.899 328.763C367.746 328.626 367.545 328.556 367.34 328.569C367.022 328.59 366.75 328.805 366.656 329.11C366.62 329.223 366.585 329.337 366.549 329.451C366.271 330.335 366.999 331.202 367.919 331.084L369.747 330.849C369.829 330.838 369.895 330.777 369.912 330.696Z" fill="white"/>
<path d="M235.818 178.963C235.772 179.014 235.757 179.086 235.779 179.151L236.594 181.644C236.658 181.839 236.798 182 236.982 182.091C237.267 182.232 237.61 182.181 237.844 181.965C237.932 181.884 238.019 181.804 238.107 181.723C238.79 181.096 238.593 179.981 237.737 179.624L236.037 178.913C235.961 178.881 235.873 178.901 235.818 178.963Z" fill="white"/>
<path d="M318.685 148.36C318.544 148.224 318.336 148.181 318.152 148.252L312.351 150.491C311.882 150.672 311.508 151.035 311.313 151.498C311.019 152.197 311.182 153.004 311.722 153.535C311.945 153.755 312.168 153.976 312.391 154.196C313.946 155.732 316.559 155.138 317.3 153.082L318.809 148.894C318.876 148.707 318.828 148.498 318.685 148.36Z" fill="white"/>
<path d="M189.013 362.484C189.067 362.672 189.226 362.813 189.42 362.843L195.564 363.805C196.06 363.883 196.566 363.755 196.966 363.452C197.57 362.994 197.832 362.214 197.631 361.483C197.547 361.181 197.464 360.878 197.381 360.576C196.803 358.469 194.242 357.677 192.573 359.087L189.172 361.959C189.021 362.087 188.958 362.293 189.013 362.484Z" fill="white"/>
<path d="M199.306 567.853C199.094 568.108 199.051 568.463 199.192 568.764C199.431 569.276 200.093 569.408 200.512 569.028L202.559 567.169C202.919 566.842 203.005 566.31 202.765 565.887C202.406 565.253 201.524 565.175 201.059 565.736L199.306 567.853Z" fill="white"/>
<path d="M107.833 44.5366C108.376 44.9899 109.134 45.0831 109.773 44.782C110.859 44.271 111.139 42.8654 110.335 41.9745L106.408 37.6231C105.718 36.858 104.59 36.6726 103.691 37.1765C102.343 37.9321 102.169 39.8039 103.355 40.7949L107.833 44.5366Z" fill="white"/>
<path d="M319.705 557.824C319.462 557.16 318.852 556.7 318.147 556.641C316.952 556.541 316.006 557.618 316.257 558.791L317.482 564.523C317.697 565.531 318.582 566.256 319.612 566.269C321.157 566.288 322.244 564.754 321.712 563.303L319.705 557.824Z" fill="white"/>
<path d="M210.946 203.448C210.305 203.653 210.029 204.408 210.389 204.977C210.646 205.385 211.151 205.559 211.605 205.397L212.867 204.945C213.452 204.736 213.676 204.031 213.322 203.521C213.242 203.406 213.135 203.305 213.014 203.235C212.998 203.226 212.982 203.217 212.967 203.208C212.68 203.042 212.337 203.005 212.021 203.106L210.946 203.448Z" fill="white"/>
<path d="M309.863 368.646C310.521 368.789 311.137 368.273 311.11 367.6C311.091 367.119 310.741 366.715 310.267 366.629L308.948 366.389C308.337 366.278 307.791 366.776 307.842 367.395C307.854 367.534 307.896 367.676 307.966 367.797C307.975 367.813 307.984 367.828 307.993 367.844C308.159 368.131 308.437 368.334 308.761 368.405L309.863 368.646Z" fill="white"/>
<path d="M441.044 232.508C440.297 234.335 441.488 236.374 443.447 236.62L444.578 236.762C445.966 236.936 447.29 236.128 447.77 234.814L449.617 229.751C450.296 227.89 449.017 225.893 447.042 225.733C446.924 225.723 446.805 225.713 446.686 225.703C446.249 225.668 445.81 225.729 445.397 225.877C445.171 225.958 444.943 226.038 444.715 226.118C443.923 226.397 443.294 227.005 442.977 227.782L441.044 232.508Z" fill="white"/>
<path d="M125.121 228.431C126.682 227.222 126.669 224.861 125.096 223.668L124.187 222.98C123.072 222.135 121.521 222.173 120.449 223.071L116.318 226.532C114.799 227.804 114.908 230.173 116.538 231.299C116.636 231.367 116.734 231.435 116.832 231.503C117.193 231.752 117.604 231.918 118.035 231.997C118.272 232.04 118.509 232.085 118.747 232.129C119.572 232.284 120.42 232.072 121.084 231.558L125.121 228.431Z" fill="white"/>
<path d="M237.246 241.512C238.717 242.833 241.041 242.395 241.93 240.63L242.811 238.881C243.44 237.631 243.123 236.114 242.046 235.221L236.878 230.939C235.356 229.678 233.059 230.21 232.249 232.013C232.125 232.288 232.001 232.563 231.877 232.838C231.696 233.238 231.604 233.673 231.608 234.112C231.611 234.428 231.613 234.744 231.613 235.058C231.613 235.935 231.974 236.778 232.626 237.363L237.246 241.512Z" fill="white"/>
<path d="M306.117 322.531C305.503 320.652 303.272 319.869 301.619 320.953L299.982 322.028C298.812 322.795 298.328 324.268 298.815 325.58L301.149 331.872C301.837 333.725 304.092 334.413 305.695 333.256C305.94 333.08 306.184 332.904 306.43 332.728C306.786 332.472 307.083 332.141 307.299 331.759C307.455 331.484 307.611 331.21 307.769 330.937C308.207 330.177 308.316 329.268 308.044 328.434L306.117 322.531Z" fill="white"/>
<path d="M246.509 165.084C246.735 165.228 247.028 165.207 247.231 165.033C247.357 164.926 247.433 164.772 247.442 164.607C247.455 164.377 247.466 164.143 247.478 163.912C247.491 163.653 247.462 163.394 247.39 163.146L246.964 161.689C246.87 161.368 246.573 161.149 246.239 161.155C246.085 161.157 245.936 161.208 245.812 161.298C245.718 161.367 245.623 161.436 245.529 161.505C244.488 162.264 244.527 163.822 245.613 164.514C245.911 164.704 246.21 164.894 246.509 165.084Z" fill="white"/>
<path d="M259.881 384.089C259.757 383.851 259.493 383.723 259.23 383.772C259.067 383.802 258.924 383.897 258.834 384.036C258.708 384.228 258.582 384.426 258.456 384.62C258.315 384.837 258.21 385.075 258.149 385.327L257.789 386.802C257.71 387.126 257.858 387.464 258.15 387.627C258.284 387.701 258.439 387.732 258.591 387.716C258.707 387.703 258.824 387.691 258.94 387.678C260.221 387.542 260.966 386.173 260.372 385.03C260.209 384.717 260.045 384.403 259.881 384.089Z" fill="white"/>
<path d="M519.038 293.657C519.009 293.837 519.099 294.013 519.26 294.098C519.366 294.154 519.491 294.162 519.604 294.12C519.756 294.065 519.909 294.009 520.067 293.951C520.233 293.891 520.388 293.803 520.525 293.69L521.356 293.004C521.538 292.855 521.598 292.603 521.504 292.388C521.461 292.289 521.388 292.206 521.296 292.15C521.228 292.109 521.16 292.067 521.092 292.027C520.319 291.561 519.308 292.021 519.159 292.911C519.117 293.16 519.077 293.409 519.038 293.657Z" fill="white"/>
<path d="M88.1539 136.476C88.2678 136.335 88.2787 136.137 88.1818 135.984C88.1175 135.882 88.0132 135.813 87.8946 135.792C87.7356 135.765 87.575 135.737 87.4091 135.707C87.235 135.677 87.0569 135.675 86.8824 135.705L85.819 135.883C85.5875 135.922 85.4097 136.109 85.3833 136.342C85.3711 136.45 85.3922 136.558 85.4441 136.653C85.4823 136.723 85.5206 136.792 85.559 136.861C85.9958 137.651 87.1012 137.759 87.6754 137.062C87.8362 136.867 87.9958 136.672 88.1539 136.476Z" fill="white"/>
<path d="M545.733 357.372C545.651 357.037 545.257 356.885 544.973 357.079C544.575 357.352 544.763 357.979 545.245 357.988C545.569 357.995 545.811 357.687 545.733 357.372Z" fill="white"/>
<path d="M96.8905 67.9501C96.7945 68.281 97.0591 68.6101 97.4026 68.5837C97.8834 68.5468 98.0346 67.9101 97.6219 67.6608C97.3439 67.4927 96.981 67.6381 96.8905 67.9501Z" fill="white"/>
<path d="M85.2571 543.988C85.2298 543.793 85.1448 543.616 85.0166 543.466L80.4937 538.193C80.0417 537.666 79.421 537.312 78.7373 537.192L68.7804 535.437C66.6081 535.054 64.7726 537.069 65.3484 539.198C65.3921 539.36 65.4357 539.521 65.4793 539.682C65.7632 540.731 66.5938 541.543 67.6486 541.804C72.6592 543.045 77.7091 544.279 82.7565 545.531C83.3584 545.68 83.9965 545.553 84.4852 545.172C84.6181 545.068 84.7511 544.963 84.8853 544.858C85.1502 544.649 85.3039 544.321 85.2571 543.988Z" fill="white"/>
<path d="M498.866 205.136C498.934 205.078 498.908 204.97 498.82 204.956C498.818 204.956 498.816 204.955 498.814 204.955C498.741 204.943 498.674 205.012 498.685 205.086C498.698 205.167 498.799 205.194 498.861 205.14C498.863 205.139 498.864 205.138 498.866 205.136Z" fill="white"/>
<path d="M61.3607 223.224C61.2731 223.241 61.2408 223.347 61.31 223.403C61.3116 223.404 61.3131 223.406 61.3147 223.407C61.3726 223.454 61.4649 223.428 61.492 223.359C61.522 223.282 61.4478 223.208 61.3666 223.223C61.3647 223.223 61.3627 223.224 61.3607 223.224Z" fill="white"/>
<path d="M645.675 161.315C645.637 161.411 645.684 161.523 645.78 161.563C645.831 161.585 645.891 161.577 645.938 161.546C646.143 161.406 646.334 161.257 646.535 161.115C646.639 161.041 646.688 160.911 646.655 160.788C646.623 160.67 646.522 160.583 646.4 160.571L646.307 160.561C646.114 160.541 645.932 160.653 645.862 160.833L645.675 161.315Z" fill="white"/>
<path d="M356.816 205.875C356.881 205.7 356.799 205.506 356.628 205.431C356.514 205.381 356.381 205.396 356.279 205.469C355.89 205.752 355.498 206.024 355.109 206.303C354.908 206.448 354.819 206.702 354.883 206.941C354.949 207.187 355.162 207.364 355.415 207.385L355.589 207.399C355.967 207.43 356.32 207.205 356.453 206.849L356.816 205.875Z" fill="white"/>
<path d="M184.748 293.61C184.605 293.728 184.579 293.938 184.689 294.088C184.763 294.189 184.886 294.242 185.011 294.229C185.489 294.179 185.964 294.14 186.441 294.092C186.688 294.068 186.892 293.892 186.956 293.653C187.022 293.407 186.926 293.147 186.717 293.003L186.573 292.903C186.261 292.687 185.843 292.705 185.55 292.947L184.748 293.61Z" fill="white"/>
<path d="M368.299 292.747C367.177 293.302 366.517 294.496 366.645 295.742L366.849 297.736C366.913 298.36 367.232 298.934 367.721 299.329C368.442 299.91 369.432 300.02 370.256 299.598L375.483 296.925C377.432 295.928 377.694 293.244 375.973 291.889C375.703 291.677 375.432 291.464 375.162 291.251C374.255 290.539 373.02 290.413 371.986 290.924L368.299 292.747Z" fill="white"/>
<path d="M218.239 212.634C219.489 212.715 220.657 212.011 221.17 210.868L221.99 209.039C222.247 208.466 222.257 207.81 222.031 207.224C221.698 206.36 220.895 205.77 219.97 205.723L214.107 205.424C211.921 205.313 210.352 207.507 211.165 209.54C211.293 209.859 211.421 210.179 211.549 210.498C211.978 211.568 212.984 212.295 214.135 212.37L218.239 212.634Z" fill="white"/>
<path d="M210.323 151.383C209.716 151.756 209.713 152.643 210.306 153.039C211.028 153.522 211.958 152.885 211.79 152.032C211.659 151.366 210.902 151.028 210.323 151.383Z" fill="white"/>
<path d="M284.369 414.047C285.082 414.028 285.528 413.26 285.213 412.621C284.829 411.842 283.704 411.929 283.424 412.751C283.205 413.394 283.691 414.065 284.369 414.047Z" fill="white"/>
<path d="M123.46 83.1618C123.398 83.6887 123.918 84.0992 124.424 83.9397C125.044 83.7443 125.098 82.9015 124.52 82.6045C124.069 82.373 123.519 82.6587 123.46 83.1618Z" fill="white"/>
<path d="M325.483 516.56C325.8 516.134 325.555 515.519 325.037 515.404C324.403 515.263 323.935 515.966 324.287 516.512C324.561 516.938 325.181 516.966 325.483 516.56Z" fill="white"/>
<path d="M28.1743 459.277C28.2763 458.948 27.9907 458.626 27.649 458.671C27.2248 458.727 27.0847 459.275 27.423 459.537C27.6848 459.74 28.0685 459.619 28.1664 459.302L28.1743 459.277Z" fill="white"/>
<path d="M275.718 41.546C275.628 41.7468 275.597 41.9687 275.627 42.1865C275.657 42.4041 275.748 42.6089 275.888 42.7776L275.991 42.9007C276.808 43.8807 278.367 43.6732 278.899 42.5133C279.625 40.9282 280.346 39.3525 281.066 37.777C281.116 37.6674 281.1 37.5388 281.023 37.4457C280.967 37.3773 280.884 37.3358 280.796 37.331C280.419 37.3107 280.041 37.2874 279.664 37.2634C278.473 37.1878 277.366 37.8618 276.879 38.9511L275.718 41.546Z" fill="white"/>
<path d="M172.817 476.471C172.995 476.342 173.133 476.166 173.216 475.962C173.299 475.758 173.323 475.536 173.286 475.319L173.258 475.161C173.041 473.904 171.586 473.304 170.546 474.043C169.125 475.053 167.713 476.057 166.301 477.061C166.203 477.131 166.153 477.251 166.173 477.369C166.187 477.457 166.238 477.534 166.312 477.582C166.628 477.788 166.944 477.997 167.259 478.207C168.252 478.868 169.548 478.838 170.515 478.138L172.817 476.471Z" fill="white"/>
<path d="M311.356 116.261C311.294 116.246 311.229 116.253 311.17 116.279C311.128 116.298 311.091 116.327 311.063 116.364L311.036 116.397C310.828 116.663 310.964 117.054 311.293 117.128C311.717 117.223 312.139 117.315 312.564 117.417C312.595 117.425 312.627 117.411 312.642 117.384C312.651 117.369 312.654 117.353 312.651 117.337C312.637 117.249 312.622 117.161 312.608 117.074C312.554 116.747 312.31 116.485 311.988 116.409L311.356 116.261Z" fill="white"/>
<path d="M179.311 393.947C179.357 393.991 179.417 394.018 179.481 394.024C179.527 394.029 179.573 394.022 179.616 394.005L179.656 393.989C179.969 393.863 180.046 393.457 179.798 393.228C179.479 392.934 179.16 392.643 178.843 392.342C178.82 392.32 178.785 392.316 178.758 392.332C178.744 392.34 178.733 392.353 178.727 392.368C178.696 392.451 178.664 392.535 178.633 392.618C178.516 392.927 178.597 393.277 178.838 393.503L179.311 393.947Z" fill="white"/>
<path d="M410.136 152.818C410.251 152.826 410.365 152.8 410.465 152.745C410.561 152.691 410.641 152.612 410.695 152.516L410.738 152.44C411.061 151.864 410.678 151.148 410.019 151.102C409.115 151.04 408.217 150.984 407.329 150.925C407.273 150.921 407.219 150.95 407.191 150.998C407.17 151.034 407.166 151.078 407.179 151.117C407.239 151.306 407.296 151.496 407.352 151.686C407.525 152.27 408.043 152.679 408.651 152.719L410.136 152.818Z" fill="white"/>
<path d="M112.043 312.897C111.948 312.833 111.837 312.798 111.722 312.796C111.612 312.795 111.504 312.823 111.409 312.88L111.333 312.924C110.765 313.261 110.739 314.073 111.287 314.442C112.039 314.948 112.789 315.446 113.528 315.94C113.575 315.972 113.635 315.974 113.684 315.946C113.72 315.925 113.746 315.89 113.755 315.849C113.797 315.655 113.843 315.462 113.889 315.27C114.031 314.677 113.787 314.064 113.28 313.725L112.043 312.897Z" fill="white"/>
<path d="M530.313 124.354C530.351 124.347 530.387 124.329 530.416 124.303C530.448 124.275 530.471 124.238 530.482 124.197L530.487 124.179C530.544 123.974 530.364 123.781 530.155 123.818C529.853 123.872 529.55 123.923 529.25 123.983C529.227 123.988 529.209 124.006 529.205 124.028C529.201 124.044 529.205 124.059 529.213 124.072C529.246 124.122 529.28 124.176 529.313 124.229C529.424 124.405 529.631 124.492 529.834 124.451L530.313 124.354Z" fill="white"/>
<path d="M451.079 351.425C450.789 351.164 450.341 351.257 450.166 351.606L449.948 352.04C449.926 352.085 449.913 352.136 449.907 352.186C449.896 352.288 449.931 352.387 450.002 352.462L450.087 352.552C450.449 352.934 451.095 352.759 451.216 352.246C451.235 352.166 451.253 352.085 451.272 352.006C451.321 351.796 451.239 351.568 451.079 351.425Z" fill="white"/>
<path d="M175.888 120.427C176.009 120.798 176.444 120.941 176.769 120.727L177.175 120.46C177.217 120.432 177.254 120.394 177.284 120.354C177.345 120.271 177.363 120.168 177.339 120.068L177.311 119.947C177.188 119.435 176.541 119.264 176.181 119.647C176.124 119.708 176.068 119.768 176.012 119.828C175.865 119.985 175.822 120.223 175.888 120.427Z" fill="white"/>
<path d="M23.7956 98.0684C24.1373 98.2691 24.5388 97.9523 24.4424 97.5679C24.3615 97.2459 23.972 97.1147 23.7156 97.3257C23.4768 97.5221 23.5012 97.8949 23.7676 98.0519C23.7769 98.0574 23.7863 98.0629 23.7956 98.0684Z" fill="white"/>
<path d="M419.249 553.483C419.054 553.138 418.548 553.212 418.439 553.593C418.348 553.912 418.62 554.22 418.947 554.166C419.252 554.115 419.418 553.78 419.265 553.511C419.26 553.502 419.255 553.492 419.249 553.483Z" fill="white"/>
<path d="M389.827 85.4422C389.792 85.9762 390.408 86.2878 390.817 85.9432L390.844 85.9205C391.185 85.6337 391.11 85.0895 390.705 84.9042C390.31 84.7236 389.855 85.0092 389.827 85.4422Z" fill="white"/>
<path d="M95.9436 381.402C96.2407 380.957 95.8631 380.379 95.3363 380.473L95.3016 380.479C94.8633 380.557 94.6562 381.066 94.9142 381.429C95.1657 381.782 95.7026 381.763 95.9436 381.402Z" fill="white"/>
<path d="M657.431 280.303C657.299 280.291 657.211 280.46 657.295 280.562C657.359 280.641 657.483 280.628 657.529 280.538L657.547 280.504C657.592 280.418 657.529 280.312 657.431 280.303Z" fill="white"/>
<path d="M8.84361 432.289C8.80839 432.055 8.50799 431.982 8.36597 432.172C8.25072 432.326 8.32962 432.55 8.51707 432.594C8.70196 432.636 8.87181 432.477 8.84361 432.289Z" fill="white"/>
<path d="M221.982 121C224.142 120.233 224.684 117.425 222.965 115.909C222.931 115.879 222.898 115.85 222.865 115.821C222.104 115.15 221.057 114.907 220.079 115.176L215.691 116.386C214.737 116.649 213.974 117.365 213.653 118.301C213.592 118.48 213.531 118.659 213.47 118.838C212.654 121.222 214.961 123.503 217.334 122.656C218.886 122.102 220.435 121.55 221.982 121Z" fill="white"/>
<path d="M259.082 434.53C256.827 434.114 254.954 436.275 255.685 438.448C255.699 438.49 255.713 438.532 255.727 438.574C256.05 439.535 256.836 440.269 257.818 440.525L262.222 441.671C263.18 441.921 264.199 441.682 264.945 441.031C265.087 440.907 265.23 440.783 265.373 440.658C267.271 439.002 266.413 435.873 263.934 435.42C262.314 435.124 260.696 434.827 259.082 434.53Z" fill="white"/>
<path d="M233.268 28.2976C232.986 27.5924 232.045 27.4645 231.564 28.0527C231.35 28.3145 231.29 28.6566 231.392 28.979L231.822 30.3408C231.927 30.6762 232.192 30.9359 232.529 31.0372C233.374 31.2914 234.132 30.4628 233.805 29.6435C233.626 29.1949 233.448 28.7458 233.268 28.2976Z" fill="white"/>
<path d="M202.955 509.17C202.846 509.922 203.598 510.503 204.308 510.234C204.624 510.114 204.848 509.848 204.921 509.518L205.229 508.124C205.305 507.78 205.206 507.423 204.965 507.167C204.36 506.524 203.289 506.863 203.163 507.736C203.093 508.214 203.024 508.692 202.955 509.17Z" fill="white"/>
<path d="M551.871 48.6991C552.452 50.9064 555.185 51.6818 556.827 50.097C557.007 49.9232 557.187 49.7494 557.367 49.5757C558.087 48.879 558.409 47.8675 558.228 46.882L557.283 41.7564C557.104 40.7835 556.457 39.9612 555.552 39.5606C555.156 39.3852 554.759 39.2097 554.362 39.0342C552.065 38.0201 549.614 40.1139 550.253 42.5423C550.793 44.5962 551.332 46.6489 551.871 48.6991Z" fill="white"/>
<path d="M284.975 132.893C284.589 132.611 284.075 132.575 283.669 132.829C283.508 132.931 283.346 133.032 283.184 133.134C282.708 133.432 282.393 133.931 282.328 134.49C282.108 136.386 281.883 138.283 281.66 140.171C281.415 142.247 283.592 143.743 285.444 142.775C286.483 142.232 287.033 141.062 286.786 139.916L285.419 133.559C285.362 133.294 285.195 133.053 284.975 132.893Z" fill="white"/>
<path d="M210.473 392.734C210.667 393.172 211.094 393.46 211.573 393.442C211.764 393.435 211.954 393.428 212.145 393.421C212.707 393.4 213.229 393.126 213.564 392.674C214.703 391.142 215.847 389.612 216.984 388.089C218.234 386.414 217.097 384.03 215.008 383.941C213.837 383.892 212.777 384.63 212.417 385.746L210.423 391.935C210.339 392.194 210.363 392.485 210.473 392.734Z" fill="white"/>
<path d="M185.997 179.899C186.529 179.765 186.896 179.279 186.879 178.731L186.829 177.187C186.825 177.057 186.78 176.932 186.699 176.83C186.66 176.78 186.621 176.73 186.581 176.679C186.491 176.565 186.338 176.52 186.2 176.569C186.128 176.594 186.066 176.643 186.025 176.708C185.621 177.348 185.217 177.987 184.827 178.623C184.649 178.912 184.654 179.277 184.837 179.563C185.043 179.886 185.433 180.041 185.805 179.947L185.997 179.899Z" fill="white"/>
<path d="M319.694 401.514C319.166 401.364 318.605 401.601 318.346 402.085L317.617 403.447C317.555 403.561 317.532 403.692 317.551 403.821C317.56 403.884 317.569 403.947 317.578 404.01C317.599 404.155 317.709 404.27 317.853 404.297C317.928 404.311 318.006 404.299 318.074 404.263C318.744 403.912 319.413 403.56 320.069 403.204C320.367 403.043 320.546 402.724 320.53 402.385C320.513 402.002 320.253 401.673 319.884 401.568L319.694 401.514Z" fill="white"/>
<path d="M96.002 161.376C95.5952 161.127 95.0694 161.198 94.7428 161.546L93.8145 162.534C93.7483 162.604 93.7022 162.692 93.6879 162.787C93.6794 162.844 93.6721 162.901 93.6644 162.958C93.6463 163.091 93.7113 163.224 93.8312 163.285C93.8932 163.316 93.9642 163.324 94.0318 163.308C94.672 163.159 95.2972 163.013 95.9194 162.868C96.2086 162.801 96.4332 162.573 96.4962 162.283C96.5656 161.964 96.4253 161.635 96.1464 161.465L96.002 161.376Z" fill="white"/>
<path d="M388.372 462.553C388.6 462.972 389.09 463.174 389.547 463.036L390.845 462.644C390.937 462.616 391.021 462.564 391.081 462.488C391.117 462.443 391.152 462.397 391.187 462.352C391.269 462.246 391.28 462.098 391.206 461.986C391.168 461.928 391.11 461.885 391.044 461.865C390.415 461.674 389.801 461.488 389.189 461.302C388.905 461.216 388.597 461.301 388.397 461.521C388.177 461.763 388.135 462.117 388.291 462.404L388.372 462.553Z" fill="white"/>
<path d="M65.4112 104.87C65.3392 105.237 65.6786 105.552 66.04 105.455C66.4892 105.335 66.5533 104.706 66.1432 104.487C65.8465 104.329 65.4831 104.504 65.4183 104.834L65.4112 104.87Z" fill="white"/>
<path d="M386.609 526.784C386.854 526.502 386.718 526.06 386.357 525.963C385.908 525.842 385.538 526.355 385.783 526.75C385.961 527.035 386.363 527.066 386.584 526.812L386.609 526.784Z" fill="white"/>
<path d="M591.69 54.6585C591.438 54.2463 590.845 54.2367 590.584 54.6435C590.262 55.1472 590.711 55.8095 591.291 55.6627C591.719 55.5544 591.935 55.0599 591.705 54.6831L591.69 54.6585Z" fill="white"/>
<path d="M472.544 0.66842C472.907 0.883939 473.37 0.645441 473.405 0.224434C473.449 -0.295656 472.834 -0.602451 472.451 -0.247669C472.171 0.012052 472.215 0.473516 472.544 0.66842Z" fill="white"/>
<path d="M290.352 -1.86059C290.448 -0.716157 291.703 -0.0640774 292.689 -0.652351C293.902 -1.37564 293.595 -3.21779 292.213 -3.50303C291.201 -3.71159 290.266 -2.88941 290.352 -1.86059Z" fill="white"/>
<path d="M138.438 506.745C138.927 505.706 138.167 504.514 137.018 504.53C135.606 504.55 134.951 506.299 136.006 507.237C136.777 507.923 137.998 507.679 138.438 506.745Z" fill="white"/>
<path d="M94.332 508.935C93.9265 509.165 93.9859 509.789 94.4294 509.932C94.8097 510.056 95.188 509.728 95.1137 509.335L95.1054 509.292C95.0387 508.939 94.6443 508.758 94.332 508.935Z" fill="white"/>
<path d="M102.797 -7.01038C101.306 -6.81019 100.356 -5.29056 100.854 -3.87044L102.425 0.614772C102.523 0.894125 102.697 1.14042 102.928 1.32568C103.862 2.07524 105.258 1.55565 105.475 0.37777L106.139 -3.23498C106.337 -4.31075 105.934 -5.40893 105.087 -6.10093L104.596 -6.50202C104.092 -6.91329 103.442 -7.09687 102.797 -7.01038Z" fill="white"/>
<path d="M298.292 604.983C299.684 605.555 301.266 604.714 301.545 603.235L302.427 598.565C302.482 598.274 302.454 597.974 302.347 597.698C301.913 596.582 300.444 596.334 299.667 597.246L297.286 600.042C296.576 600.875 296.377 602.028 296.764 603.05L296.989 603.643C297.219 604.251 297.691 604.735 298.292 604.983Z" fill="white"/>
<path d="M482.69 235.258C483.166 235.178 483.469 234.692 483.301 234.24L482.754 232.771C482.721 232.682 482.663 232.603 482.588 232.545C482.28 232.305 481.828 232.484 481.766 232.869L481.582 234.014C481.52 234.395 481.671 234.779 481.974 235.017L482.085 235.104C482.258 235.24 482.473 235.294 482.69 235.258Z" fill="white"/>
<path d="M90.4277 205.226C89.9758 205.056 89.4704 205.326 89.3901 205.802L89.1291 207.347C89.1132 207.441 89.1238 207.538 89.1599 207.626C89.3072 207.987 89.7874 208.059 90.0336 207.757L90.7659 206.857C91.0094 206.558 91.0714 206.15 90.9277 205.792L90.8752 205.661C90.7934 205.457 90.6335 205.303 90.4277 205.226Z" fill="white"/>
<path d="M388.67 178.982C388.367 178.925 388.066 179.159 388.072 179.467L388.089 180.483C388.09 180.544 388.108 180.602 388.14 180.653C388.274 180.862 388.582 180.851 388.7 180.634L389.043 180.007C389.17 179.776 389.16 179.494 389.017 179.273L388.96 179.184C388.892 179.078 388.794 179.006 388.67 178.982Z" fill="white"/>
<path d="M143.715 300.972C143.948 301.173 144.326 301.121 144.475 300.851L144.969 299.963C144.998 299.91 145.012 299.85 145.009 299.789C144.998 299.542 144.726 299.398 144.514 299.526L143.904 299.898C143.679 300.035 143.547 300.284 143.56 300.546L143.565 300.652C143.571 300.778 143.619 300.889 143.715 300.972Z" fill="white"/>
<path d="M284.753 177.807C284.898 177.822 285.04 177.758 285.125 177.639C285.291 177.406 285.171 177.08 284.894 177.009L284.579 176.929C284.273 176.852 283.997 177.115 284.065 177.424C284.106 177.613 284.263 177.758 284.456 177.777L284.753 177.807Z" fill="white"/>
<path d="M233.124 353.948C233.006 353.863 232.851 353.848 232.718 353.909C232.458 354.027 232.399 354.37 232.603 354.569L232.836 354.796C233.062 355.016 233.432 354.926 233.528 354.625C233.587 354.44 233.524 354.236 233.367 354.123L233.124 353.948Z" fill="white"/>
<path d="M582.047 298.391C581.785 298.197 581.439 298.161 581.143 298.297C580.571 298.558 580.441 299.312 580.892 299.75L581.395 300.24C581.896 300.726 582.742 300.516 582.961 299.853C583.086 299.473 582.95 299.058 582.628 298.82L582.047 298.391Z" fill="white"/>
<path d="M35.9503 100.873C36.0802 101.171 36.3619 101.375 36.6859 101.406C37.3116 101.465 37.8013 100.877 37.6301 100.272L37.439 99.5973C37.2488 98.9256 36.4108 98.6843 35.8899 99.1491C35.5914 99.4156 35.5017 99.8427 35.6615 100.21L35.9503 100.873Z" fill="white"/>
<path d="M108.997 554.172C109.069 554.2 109.15 554.189 109.212 554.142C109.336 554.046 109.323 553.854 109.186 553.777L109.013 553.679C108.864 553.595 108.685 553.699 108.68 553.87C108.677 553.977 108.739 554.069 108.838 554.108L108.997 554.172Z" fill="white"/>
<path d="M351.361 361.604C351.54 361.591 351.701 361.475 351.757 361.304C351.805 361.153 351.761 360.986 351.645 360.877C351.332 360.584 350.822 360.877 350.927 361.294C350.975 361.486 351.15 361.619 351.348 361.605C351.352 361.605 351.356 361.604 351.361 361.604Z" fill="white"/>
<path d="M267.337 161.471C267.175 161.393 266.977 161.413 266.844 161.534C266.726 161.64 266.681 161.807 266.727 161.958C266.852 162.369 267.44 162.37 267.558 161.957C267.612 161.766 267.527 161.564 267.349 161.477C267.345 161.475 267.341 161.473 267.337 161.471Z" fill="white"/>
<path d="M308.874 640.043C309.031 640.097 309.209 640.058 309.322 639.937C309.429 639.822 309.458 639.656 309.397 639.512C309.241 639.146 308.704 639.209 308.639 639.602L308.634 639.63C308.605 639.809 308.702 639.984 308.874 640.043Z" fill="white"/>
<path d="M399.464 335.119C401.342 335.569 403.15 334.152 403.162 332.221L403.181 329.214C403.189 327.885 402.322 326.709 401.05 326.321C399.231 325.766 397.42 325.209 395.61 324.651C395.264 324.544 394.892 324.567 394.566 324.724C394.025 324.983 393.682 325.542 393.705 326.142C393.773 327.939 393.842 329.737 393.912 331.543C393.965 332.885 394.904 334.028 396.21 334.34L399.464 335.119Z" fill="white"/>
<path d="M212.436 160.357C211.034 159.028 208.76 159.351 207.783 161.018L206.264 163.612C205.592 164.759 205.755 166.211 206.662 167.183C207.961 168.573 209.25 169.961 210.539 171.349C210.785 171.614 211.118 171.781 211.479 171.808C212.078 171.854 212.654 171.541 212.934 171.01C213.773 169.42 214.613 167.829 215.455 166.229C216.081 165.041 215.838 163.582 214.864 162.658L212.436 160.357Z" fill="white"/>
<path d="M625.129 363.415C625.917 363.577 626.649 362.962 626.626 362.159C626.611 361.601 626.227 361.121 625.69 360.971C625.277 360.856 624.865 360.739 624.448 360.631C624.355 360.607 624.256 360.617 624.169 360.66C624.02 360.734 623.932 360.891 623.945 361.057C623.976 361.447 624.003 361.843 624.033 362.242C624.076 362.815 624.497 363.286 625.06 363.401L625.129 363.415Z" fill="white"/>
<path d="M31.1522 23.0182C30.5509 22.485 29.6096 22.6511 29.2271 23.3579C28.9615 23.8486 29.0539 24.4563 29.4446 24.8547C29.7447 25.1608 30.0428 25.468 30.3495 25.7702C30.4183 25.8379 30.5093 25.8783 30.6055 25.8845C30.7716 25.8952 30.9272 25.8031 30.9987 25.6529C31.1666 25.3 31.341 24.9428 31.5147 24.5826C31.7646 24.0648 31.6351 23.4464 31.2049 23.065L31.1522 23.0182Z" fill="white"/>
<path d="M549.248 84.9233C549.211 84.3421 548.588 83.9733 548.068 84.2358C548.057 84.2413 548.047 84.2467 548.036 84.2521C547.414 84.566 547.457 85.4576 548.104 85.7147L548.148 85.7322C548.698 85.9506 549.286 85.5137 549.248 84.9233Z" fill="white"/>
<path d="M358.378 139.241C358.121 139.285 357.995 139.579 358.137 139.798C358.306 140.06 358.705 139.995 358.79 139.695C358.861 139.442 358.653 139.195 358.393 139.239C358.388 139.24 358.383 139.24 358.378 139.241Z" fill="white"/>
<path d="M150.079 350.535C150.323 350.625 150.579 350.433 150.566 350.173C150.55 349.861 150.173 349.718 149.95 349.936C149.761 350.12 149.818 350.437 150.064 350.529C150.069 350.531 150.074 350.533 150.079 350.535Z" fill="white"/>
<path d="M630.962 119.39C631.784 119.541 632.495 118.77 632.307 117.955C632.083 116.982 630.818 116.745 630.233 117.554C629.731 118.247 630.12 119.236 630.962 119.39Z" fill="white"/>
<path d="M648.595 209.476C648.151 209.428 647.787 209.821 647.867 210.259L648.062 211.326C648.072 211.377 648.119 211.42 648.167 211.443C648.216 211.466 648.269 211.458 648.31 211.421C648.529 211.224 648.746 211.019 648.964 210.817C649.195 210.603 649.28 210.271 649.174 209.974C649.166 209.954 649.159 209.934 649.152 209.914C649.065 209.673 648.849 209.503 648.595 209.476Z" fill="white"/>
<path d="M514.227 341.387C513.863 341.305 513.56 341.714 513.747 342.037C513.754 342.047 513.76 342.058 513.766 342.069C513.923 342.34 514.305 342.342 514.468 342.074C514.479 342.056 514.49 342.038 514.501 342.02C514.651 341.774 514.507 341.45 514.227 341.387Z" fill="white"/>
<path d="M116.183 97.5475C116.457 97.8005 116.923 97.5977 116.923 97.2245C116.923 97.2122 116.923 97.1998 116.923 97.1874C116.922 96.874 116.593 96.6807 116.318 96.8314C116.299 96.8416 116.281 96.8518 116.262 96.862C116.01 97.0002 115.972 97.3525 116.183 97.5475Z" fill="white"/>
<path d="M337.799 281.767C337.606 281.777 337.502 282.041 337.639 282.176C337.749 282.285 337.933 282.233 337.98 282.086C337.987 282.065 337.994 282.044 338 282.023C338.043 281.889 337.939 281.759 337.799 281.767Z" fill="white"/>
<path d="M239.164 237.393C239.335 237.48 239.557 237.304 239.506 237.118C239.466 236.97 239.28 236.922 239.166 237.026C239.15 237.041 239.133 237.055 239.117 237.07C239.013 237.165 239.038 237.33 239.164 237.393Z" fill="white"/>
<path d="M449.507 446.15C449.523 445.858 449.335 445.587 449.063 445.479C448.835 445.388 448.584 445.435 448.4 445.598C448.331 445.659 448.262 445.721 448.192 445.782C447.775 446.152 447.872 446.827 448.375 447.066C448.878 447.303 449.467 446.954 449.495 446.399C449.499 446.316 449.503 446.232 449.507 446.15Z" fill="white"/>
<path d="M224.613 39.1796C224.454 39.4247 224.481 39.7531 224.662 39.9826C224.814 40.1755 225.055 40.26 225.296 40.2108C225.387 40.1922 225.477 40.1737 225.568 40.1551C226.114 40.0434 226.369 39.4106 226.052 38.9523C225.735 38.4953 225.05 38.5026 224.749 38.9697C224.703 39.0401 224.658 39.1101 224.613 39.1796Z" fill="white"/>
<path d="M458.464 196.851C458.586 196.674 458.579 196.438 458.451 196.267C458.341 196.119 458.156 196.052 457.975 196.084C457.907 196.096 457.84 196.108 457.772 196.12C457.369 196.189 457.177 196.648 457.403 196.99C457.63 197.334 458.136 197.329 458.369 196.989C458.4 196.943 458.432 196.897 458.464 196.851Z" fill="white"/>
<path d="M92.2066 250.6C92.013 250.692 91.9004 250.899 91.9258 251.112C91.9477 251.295 92.0741 251.446 92.2473 251.508C92.3115 251.532 92.3758 251.555 92.4403 251.579C92.8248 251.72 93.2197 251.419 93.1952 251.01C93.1705 250.598 92.7303 250.35 92.3584 250.528C92.3079 250.552 92.2573 250.576 92.2066 250.6Z" fill="white"/>
<path d="M15.6444 495.407C15.5337 494.96 15.2172 494.591 14.7914 494.414C13.8756 494.034 12.8563 494.663 12.7852 495.652L12.5038 499.563C12.445 500.38 12.9927 501.125 13.7884 501.319C14.217 501.424 14.6663 501.344 15.0405 501.11C15.1302 501.054 15.2202 500.998 15.3102 500.942C16.1877 500.396 16.6129 499.351 16.3676 498.347C16.1295 497.372 15.8873 496.39 15.6444 495.407Z" fill="white"/>
<path d="M318.448 25.246C318.144 25.236 317.853 25.3703 317.666 25.6092C317.265 26.1201 317.485 26.8737 318.098 27.0886L320.595 27.9645C321.094 28.1394 321.643 27.9337 321.898 27.471C322.047 27.2006 322.083 26.8797 321.994 26.5837C321.975 26.5186 321.956 26.4535 321.937 26.3885C321.748 25.7464 321.164 25.309 320.495 25.2965C319.814 25.2839 319.132 25.2686 318.448 25.246Z" fill="white"/>
<path d="M127.661 469.222C127.919 469.383 128.238 469.412 128.52 469.299C129.122 469.057 129.309 468.294 128.885 467.802L127.16 465.794C126.816 465.393 126.238 465.297 125.785 465.57C125.521 465.73 125.33 465.99 125.258 466.29C125.242 466.357 125.227 466.423 125.211 466.488C125.053 467.139 125.34 467.809 125.913 468.155C126.497 468.506 127.08 468.861 127.661 469.222Z" fill="white"/>
<path d="M203.641 253.744C203.784 253.651 203.887 253.505 203.916 253.337C203.924 253.287 203.933 253.238 203.942 253.189C203.96 253.086 203.93 252.98 203.858 252.904C203.759 252.799 203.603 252.773 203.475 252.84L203.094 253.041C202.772 253.21 202.757 253.666 203.077 253.838C203.212 253.91 203.381 253.91 203.511 253.828C203.555 253.8 203.598 253.772 203.641 253.744Z" fill="white"/>
<path d="M341.336 328.74C341.165 328.749 341.003 328.824 340.894 328.955C340.862 328.994 340.83 329.032 340.798 329.07C340.731 329.15 340.704 329.257 340.728 329.359C340.761 329.499 340.883 329.6 341.027 329.606L341.458 329.623C341.821 329.637 342.062 329.25 341.871 328.941C341.79 328.811 341.644 328.726 341.491 328.733C341.438 328.735 341.387 328.737 341.336 328.74Z" fill="white"/>
<path d="M371.988 53.8617C371.963 53.7689 371.9 53.6911 371.814 53.6478C370.735 53.1027 369.655 52.5573 368.573 52.0027C367.769 51.5911 366.797 51.6974 366.101 52.2722C364.813 53.3355 365.115 55.3609 366.657 56.0016C366.78 56.0525 366.902 56.1035 367.025 56.1547C367.809 56.4818 368.707 56.3926 369.407 55.9108L371.854 54.227C371.971 54.146 372.025 53.9996 371.988 53.8617Z" fill="white"/>
<path d="M95.6015 417.671C95.5767 417.763 95.5925 417.862 95.6452 417.943C96.3077 418.955 96.9701 419.967 97.6301 420.988C98.1199 421.746 99.0156 422.141 99.9056 421.991C101.552 421.714 102.303 419.809 101.288 418.483C101.208 418.378 101.127 418.272 101.047 418.167C100.531 417.491 99.7088 417.119 98.8616 417.187L95.9008 417.422C95.7584 417.433 95.6385 417.533 95.6015 417.671Z" fill="white"/>
<path d="M404.506 290.114C404.49 290.175 404.504 290.239 404.544 290.288C404.957 290.793 405.371 291.298 405.787 291.813C406.09 292.189 406.584 292.353 407.051 292.227C407.928 291.99 408.223 290.904 407.61 290.234C407.566 290.186 407.523 290.139 407.479 290.091C407.167 289.749 406.702 289.592 406.247 289.677L404.66 289.971C404.585 289.985 404.525 290.04 404.506 290.114Z" fill="white"/>
<path d="M185.569 196.811C185.614 196.767 185.634 196.704 185.624 196.642C185.518 195.998 185.413 195.353 185.31 194.699C185.235 194.222 184.889 193.832 184.422 193.709C183.544 193.476 182.745 194.268 182.941 195.155C182.955 195.218 182.969 195.281 182.983 195.345C183.082 195.796 183.407 196.165 183.843 196.319L185.365 196.858C185.436 196.883 185.516 196.865 185.569 196.811Z" fill="white"/>
<path d="M427.942 411.641C427.929 411.623 427.903 411.626 427.895 411.647C427.893 411.655 427.89 411.662 427.887 411.67C427.879 411.694 427.904 411.723 427.929 411.716C427.953 411.71 427.963 411.67 427.948 411.649C427.946 411.647 427.944 411.644 427.942 411.641Z" fill="white"/>
<path d="M226.033 79.8473C226.035 79.8696 226.059 79.8797 226.076 79.8652C226.082 79.8601 226.088 79.8548 226.094 79.8495C226.114 79.8326 226.107 79.7955 226.082 79.7889C226.057 79.7823 226.029 79.8121 226.032 79.8375C226.032 79.8406 226.032 79.8439 226.033 79.8473Z" fill="white"/>
<path d="M529.081 222.706C529.133 222.71 529.172 222.661 529.152 222.613C529.152 222.612 529.152 222.611 529.151 222.61C529.125 222.546 529.023 222.541 528.993 222.603C528.971 222.647 528.997 222.698 529.046 222.703C529.057 222.704 529.069 222.705 529.081 222.706Z" fill="white"/>
<path d="M43.9773 192.9C43.9346 192.871 43.8767 192.894 43.8696 192.945C43.8695 192.946 43.8693 192.947 43.8692 192.948C43.8599 193.017 43.9453 193.072 44.0026 193.034C44.0433 193.006 44.0465 192.949 44.0066 192.921C43.9971 192.914 43.9873 192.907 43.9773 192.9Z" fill="white"/>
<path d="M272.898 85.9378C272.655 85.8306 272.38 85.9984 272.364 86.2634C272.347 86.5408 272.624 86.7421 272.883 86.6409C273.198 86.5177 273.208 86.0747 272.898 85.9378Z" fill="white"/>
<path d="M197.454 439.437C197.61 439.651 197.933 439.643 198.079 439.422C198.232 439.19 198.093 438.877 197.818 438.835C197.484 438.784 197.254 439.163 197.454 439.437Z" fill="white"/>
<path d="M123.803 586.887C123.905 586.995 124.085 586.966 124.148 586.831L124.158 586.808C124.222 586.671 124.126 586.516 123.975 586.513C123.784 586.509 123.671 586.748 123.803 586.887Z" fill="white"/>
<path d="M537.081 258.212C537.169 258.706 537.729 258.954 538.156 258.691C538.694 258.36 538.564 257.543 537.953 257.387C537.455 257.259 536.987 257.677 537.076 258.182C537.078 258.192 537.08 258.202 537.081 258.212Z" fill="white"/>
<path d="M54.8024 158.15C54.9736 157.679 54.6125 157.185 54.1108 157.199C53.4795 157.216 53.1837 157.988 53.635 158.43C54.002 158.789 54.6165 158.662 54.792 158.179C54.7955 158.17 54.7989 158.16 54.8024 158.15Z" fill="white"/>
<path d="M10.2422 560.456C10.2114 560.587 10.3243 560.698 10.4568 560.676L10.4792 560.672C10.6412 560.645 10.6947 560.439 10.5666 560.336L10.5585 560.329C10.4468 560.24 10.2751 560.316 10.2422 560.456Z" fill="white"/>
<path d="M421.747 201.578C421.501 201.895 421.652 202.37 422.038 202.482C422.52 202.62 422.938 202.105 422.704 201.662C422.511 201.297 421.999 201.252 421.747 201.578Z" fill="white"/>
<path d="M126.367 264.865C126.739 264.713 126.845 264.226 126.567 263.937C126.219 263.575 125.599 263.813 125.58 264.314C125.565 264.726 125.985 265.021 126.367 264.865Z" fill="white"/>
<path d="M351.511 7.44325C351.431 7.29318 351.204 7.30461 351.151 7.46624C351.107 7.6004 351.218 7.73629 351.358 7.7194C351.493 7.70309 351.575 7.56361 351.511 7.44325Z" fill="white"/>
<path d="M90.1271 468.109C90.1214 468.279 90.3235 468.382 90.4501 468.268C90.5552 468.174 90.5275 468.001 90.3977 467.946C90.2722 467.892 90.1318 467.972 90.1271 468.109Z" fill="white"/>
<path d="M152.933 111.806C152.965 111.859 153.043 111.847 153.058 111.786C153.071 111.733 153.021 111.681 152.967 111.684C152.917 111.687 152.894 111.742 152.92 111.784C152.924 111.791 152.928 111.798 152.933 111.806Z" fill="white"/>
<path d="M314.28 477.017C314.279 476.955 314.205 476.927 314.162 476.971C314.124 477.011 314.141 477.081 314.19 477.105C314.234 477.127 314.281 477.092 314.28 477.042C314.28 477.034 314.28 477.026 314.28 477.017Z" fill="white"/>
<path d="M477.597 135.648C477.538 135.547 477.396 135.538 477.325 135.631C477.239 135.741 477.322 135.901 477.461 135.896C477.586 135.891 477.66 135.755 477.597 135.648Z" fill="white"/>
<path d="M45.0364 294.037C45.0374 294.154 45.156 294.232 45.2638 294.188C45.3929 294.135 45.4013 293.955 45.2779 293.89C45.1676 293.832 45.0352 293.912 45.0364 294.037Z" fill="white"/>
<path d="M160.833 595.455C160.934 595.508 161.057 595.444 161.07 595.33C161.087 595.192 160.934 595.098 160.818 595.175C160.714 595.243 160.722 595.398 160.833 595.455Z" fill="white"/>
<path d="M623.085 72.8905C623.018 72.7624 622.833 72.7502 622.737 72.8575C622.647 72.9569 622.681 73.1051 622.797 73.1719C622.977 73.2763 623.182 73.0755 623.085 72.8905Z" fill="white"/>
<path d="M522.735 392.379C523.432 392.348 523.885 391.624 523.609 390.984C523.356 390.399 522.625 390.189 522.104 390.556C521.286 391.132 521.736 392.423 522.735 392.379Z" fill="white"/>
<path d="M134.31 49.1323C133.691 48.8106 132.937 49.2105 132.856 49.9035C132.782 50.5369 133.31 51.0838 133.945 51.0265C134.941 50.9366 135.197 49.5934 134.31 49.1323Z" fill="white"/>
<path d="M504.231 257.986C504.331 257.891 504.307 257.728 504.183 257.668C504.065 257.612 503.915 257.672 503.886 257.799L503.883 257.808C503.838 258.003 504.074 258.137 504.218 257.999L504.231 257.986Z" fill="white"/>
<path d="M83.1396 174.772C83.0052 174.805 82.9445 174.957 83.0228 175.071C83.0964 175.178 83.2563 175.202 83.3452 175.107L83.3518 175.1C83.4881 174.954 83.3513 174.72 83.1573 174.767L83.1396 174.772Z" fill="white"/>
<path d="M391.819 221.923C391.446 222.023 391.273 222.454 391.47 222.787C391.813 223.363 392.682 223.029 392.545 222.373C392.476 222.044 392.144 221.836 391.819 221.923Z" fill="white"/>
<path d="M162.458 262.21C162.831 262.31 163.197 262.022 163.192 261.636C163.184 260.966 162.264 260.821 162.055 261.457C161.95 261.776 162.133 262.123 162.458 262.21Z" fill="white"/>
<path d="M259.655 120.33C259.426 120.194 259.165 120.448 259.294 120.681C259.347 120.777 259.455 120.829 259.564 120.811C259.578 120.808 259.592 120.806 259.606 120.803C259.84 120.763 259.886 120.467 259.681 120.346L259.655 120.33Z" fill="white"/>
<path d="M226.118 416.273C226.248 416.505 226.601 416.416 226.606 416.15C226.608 416.04 226.54 415.94 226.437 415.902C226.424 415.897 226.41 415.893 226.397 415.888C226.174 415.806 225.986 416.039 226.103 416.246L226.118 416.273Z" fill="white"/>
<path d="M152.976 70.7341C153.512 72.1194 155.27 72.539 156.357 71.5273C157.831 70.1558 156.713 67.6827 154.71 67.891C153.34 68.0335 152.48 69.4496 152.976 70.7341Z" fill="white"/>
<path d="M293.709 512.564C293.937 511.097 292.625 509.855 291.177 510.187C289.215 510.638 288.947 513.339 290.786 514.16C292.043 514.721 293.496 513.925 293.709 512.564Z" fill="white"/>
<path d="M452.316 565.383C452.922 565.174 453.12 564.428 452.7 563.944C452.134 563.291 451.046 563.721 451.101 564.583C451.139 565.177 451.754 565.577 452.316 565.383Z" fill="white"/>
<path d="M426.928 82.3086C428.137 82.9987 429.655 82.2562 429.845 80.8777C430.104 78.9958 427.817 77.8375 426.472 79.1797C425.558 80.0932 425.742 81.631 426.865 82.2724C426.886 82.2845 426.907 82.2966 426.928 82.3086Z" fill="white"/>
<path d="M62.2457 365.564C61.5443 364.362 59.8582 364.246 59.0043 365.345C57.8387 366.845 59.2408 368.992 61.0761 368.502C62.3251 368.168 62.9339 366.744 62.2825 365.627C62.2703 365.606 62.258 365.585 62.2457 365.564Z" fill="white"/>
<path d="M42.7178 524.784C42.6614 524.789 42.6257 524.847 42.6468 524.899L42.6552 524.92C42.6795 524.981 42.7574 524.993 42.7956 524.941C42.7972 524.938 42.7988 524.936 42.8004 524.934C42.8449 524.872 42.7938 524.777 42.7178 524.784Z" fill="white"/>
<path d="M173.982 211.642C173.976 211.679 174.01 211.711 174.046 211.701C174.075 211.693 174.092 211.662 174.081 211.634L174.076 211.623C174.056 211.574 173.992 211.578 173.984 211.63C173.983 211.634 173.983 211.638 173.982 211.642Z" fill="white"/>
<path d="M345.971 380.032C345.994 380.003 345.981 379.958 345.945 379.949C345.916 379.941 345.885 379.96 345.881 379.99L345.88 380.001C345.872 380.054 345.93 380.083 345.963 380.041C345.966 380.038 345.968 380.035 345.971 380.032Z" fill="white"/>
<path d="M610.603 30.8676C610.252 31.169 610.319 31.7354 610.734 31.939C611.166 32.1509 611.672 31.829 611.669 31.3477C611.667 30.7983 611.02 30.5096 610.603 30.8676Z" fill="white"/>
<path d="M412.156 372.969C412.378 373.097 412.659 372.956 412.688 372.701L412.691 372.674C412.721 372.412 412.476 372.209 412.229 372.3C411.94 372.406 411.89 372.815 412.156 372.969Z" fill="white"/>
<path d="M220.37 121.232C220.242 121.009 219.928 120.991 219.775 121.198L219.759 121.219C219.602 121.431 219.712 121.73 219.972 121.775C220.275 121.827 220.524 121.498 220.37 121.232Z" fill="white"/>
<path d="M492.725 565.125C492.733 565.115 492.724 565.1 492.711 565.102C492.702 565.104 492.697 565.115 492.702 565.123C492.707 565.131 492.718 565.132 492.725 565.125Z" fill="white"/>
<path d="M127.954 158.876C127.967 158.873 127.97 158.854 127.957 158.847C127.945 158.84 127.93 158.851 127.934 158.865C127.936 158.874 127.945 158.879 127.954 158.876Z" fill="white"/>
<path d="M359.452 448.743C359.438 448.739 359.427 448.754 359.434 448.766C359.441 448.778 359.459 448.776 359.463 448.762C359.465 448.754 359.46 448.745 359.452 448.743Z" fill="white"/>
<path d="M55.9668 73.108C55.9485 73.0651 55.9147 73.0307 55.8721 73.0116L54.2051 72.2637C53.1705 71.7995 52.0161 72.6179 52.1208 73.7471C52.2362 74.9924 53.7495 75.5354 54.6247 74.642L55.9287 73.3107C55.9813 73.2571 55.9963 73.1771 55.9668 73.108Z" fill="white"/>
<path d="M378.907 559.013C378.901 559.059 378.913 559.106 378.941 559.144L380.01 560.625C380.674 561.544 382.083 561.413 382.557 560.382C383.08 559.246 382.041 558.019 380.836 558.356L379.041 558.856C378.969 558.877 378.916 558.938 378.907 559.013Z" fill="white"/>
<path d="M165.421 565.601C165.434 565.617 165.453 565.628 165.474 565.632L166.644 565.85C167.363 565.984 167.96 565.286 167.723 564.594C167.464 563.836 166.446 563.736 166.039 564.426L165.41 565.492C165.39 565.527 165.394 565.571 165.421 565.601Z" fill="white"/>
<path d="M139.849 543.917C139.845 543.932 139.848 543.948 139.857 543.96L140.053 544.251C140.172 544.429 140.436 544.413 140.53 544.22C140.637 544 140.435 543.745 140.197 543.804L139.888 543.879C139.869 543.884 139.854 543.898 139.849 543.917Z" fill="white"/>
<path d="M311.43 347.853C311.468 347.858 311.507 347.846 311.537 347.821L312.612 346.931C313.26 346.394 313.092 345.36 312.305 345.06C311.427 344.726 310.553 345.571 310.861 346.459L311.312 347.759C311.33 347.81 311.376 347.847 311.43 347.853Z" fill="white"/>
<path d="M295.043 193.346C295.011 193.322 294.972 193.313 294.934 193.32L293.558 193.553C292.728 193.694 292.357 194.674 292.888 195.326C293.481 196.055 294.661 195.76 294.838 194.838L295.097 193.486C295.107 193.433 295.086 193.378 295.043 193.346Z" fill="white"/>
<path d="M630.06 309.146C630.368 310.012 631.444 310.312 632.158 309.734C632.61 309.368 632.767 308.752 632.549 308.214L632.302 307.601C632.101 307.104 631.623 306.773 631.087 306.761L631.067 306.761C630.754 306.754 630.449 306.861 630.209 307.063C629.797 307.409 629.643 307.975 629.824 308.482L630.06 309.146Z" fill="white"/>
<path d="M-0.252221 67.5519C-0.0859453 66.6482 -0.868137 65.8499 -1.77565 65.9935C-2.34932 66.0844 -2.79312 66.5397 -2.87427 67.1148L-2.96651 67.7685C-3.04151 68.3 -2.79269 68.8251 -2.33385 69.1036L-2.3167 69.1141C-2.04916 69.2765 -1.73168 69.336 -1.42348 69.2816C-0.893366 69.1879 -0.477243 68.7748 -0.379826 68.2454L-0.252221 67.5519Z" fill="white"/>
<path d="M332.556 57.2506C330.893 56.0104 328.499 56.7902 327.875 58.7686C327.71 59.2909 327.545 59.8118 327.382 60.3313C326.988 61.5827 327.46 62.9425 328.54 63.6868L331.002 65.3832C331.985 66.0605 333.276 66.0906 334.289 65.4599L334.997 65.0198C335.612 64.6366 336.069 64.0436 336.28 63.35C336.353 63.1122 336.425 62.8741 336.497 62.6356C336.861 61.4349 336.428 60.138 335.422 59.3879L332.556 57.2506Z" fill="white"/>
<path d="M131.445 434.451C132.265 436.357 134.729 436.879 136.258 435.477C136.662 435.107 137.065 434.738 137.466 434.37C138.433 433.483 138.704 432.07 138.141 430.885L136.857 428.185C136.344 427.107 135.241 426.436 134.049 426.475L133.216 426.503C132.491 426.527 131.799 426.812 131.269 427.307C131.088 427.477 130.906 427.647 130.724 427.817C129.809 428.675 129.536 430.015 130.032 431.167L131.445 434.451Z" fill="white"/>
<path d="M175.061 131.597C173.086 131.002 171.112 132.532 171.197 134.593C171.222 135.216 171.248 135.837 171.275 136.457C171.332 137.77 172.241 138.89 173.512 139.221L176.558 140.014C177.713 140.314 178.937 139.901 179.673 138.963L180.255 138.222C180.703 137.651 180.929 136.938 180.89 136.213C180.875 135.947 180.861 135.68 180.846 135.414C180.778 134.15 179.925 133.063 178.713 132.698L175.061 131.597Z" fill="white"/>
<path d="M305.016 448.813C306.428 450.316 308.903 449.979 309.86 448.151C310.149 447.599 310.437 447.048 310.724 446.497C311.332 445.332 311.105 443.907 310.169 442.985L307.927 440.776C307.077 439.938 305.811 439.684 304.704 440.128L303.83 440.479C303.157 440.749 302.604 441.254 302.276 441.901C302.155 442.139 302.034 442.377 301.913 442.615C301.341 443.744 301.536 445.111 302.403 446.034L305.016 448.813Z" fill="white"/>
<path d="M231.824 619.024C231.727 619.053 231.646 619.119 231.596 619.208C231.458 619.452 231.626 619.739 231.906 619.748C231.936 619.749 231.965 619.75 231.995 619.752C232.141 619.758 232.28 619.687 232.356 619.562C232.535 619.263 232.255 618.9 231.92 618.997L231.824 619.024Z" fill="white"/>
<path d="M484.137 362.695C484.221 362.741 484.32 362.753 484.414 362.732C484.683 362.67 484.786 362.356 484.599 362.153C484.577 362.128 484.554 362.104 484.532 362.08C484.444 361.986 484.312 361.946 484.185 361.974C483.849 362.047 483.783 362.498 484.084 362.665L484.137 362.695Z" fill="white"/>
<path d="M152.895 94.1391C152.846 94.0564 152.766 93.9967 152.674 93.9684C152.41 93.8875 152.164 94.1076 152.224 94.3771C152.231 94.4094 152.238 94.4415 152.246 94.4733C152.275 94.5994 152.369 94.6997 152.493 94.739C152.821 94.8435 153.103 94.4863 152.926 94.191L152.895 94.1391Z" fill="white"/>
<path d="M468.593 70.7639C468.561 70.6902 468.485 70.6462 468.405 70.6559L467.011 70.8257C466.219 70.9221 465.759 71.7723 466.116 72.4861C466.59 73.4359 467.976 73.2839 468.243 72.2565L468.601 70.8799C468.611 70.8413 468.608 70.8005 468.593 70.7639Z" fill="white"/>
<path d="M20.3926 354.73C20.383 354.81 20.4271 354.886 20.5008 354.918L21.7935 355.468C22.5275 355.78 23.3504 355.274 23.3987 354.477C23.4631 353.418 22.1862 352.856 21.4412 353.612L20.443 354.626C20.4151 354.654 20.3973 354.691 20.3926 354.73Z" fill="white"/>
<path d="M154.351 166.042C154.3 166.046 154.256 166.077 154.236 166.124L153.789 167.199C153.537 167.805 153.974 168.478 154.63 168.508C155.497 168.546 155.93 167.497 155.304 166.896L154.452 166.079C154.425 166.053 154.389 166.04 154.351 166.042Z" fill="white"/>
<path d="M340.171 429.338C340.217 429.36 340.271 429.355 340.311 429.324L341.236 428.617C341.758 428.218 341.716 427.416 341.162 427.063C340.431 426.596 339.531 427.288 339.773 428.121L340.102 429.255C340.112 429.291 340.137 429.321 340.171 429.338Z" fill="white"/>
<path d="M296.943 268.532C297.655 268.834 298.365 268.102 298.034 267.404L297.482 266.237C297.286 265.824 296.731 265.748 296.431 266.093C296.317 266.225 296.262 266.397 296.281 266.569C296.326 266.992 296.379 267.413 296.428 267.844C296.464 268.149 296.661 268.412 296.943 268.532Z" fill="white"/>
<path d="M267.93 269.283C267.466 268.666 266.484 268.945 266.422 269.715L266.317 271.001C266.28 271.457 266.722 271.8 267.155 271.651C267.319 271.594 267.453 271.473 267.523 271.314C267.695 270.926 267.86 270.534 268.032 270.136C268.154 269.855 268.115 269.528 267.93 269.283Z" fill="white"/>
<path d="M88.1244 125.041C87.9401 125.154 87.9984 125.409 88.2118 125.443L88.5758 125.502C88.6977 125.522 88.7994 125.41 88.7674 125.29C88.7558 125.247 88.7273 125.209 88.6878 125.188C88.593 125.135 88.501 125.089 88.414 125.039C88.3263 124.988 88.2109 124.988 88.1244 125.041Z" fill="white"/>
<path d="M377.024 497.959C377.24 497.954 377.317 497.704 377.149 497.567L376.864 497.334C376.768 497.256 376.624 497.302 376.592 497.422C376.58 497.465 376.586 497.512 376.609 497.55C376.665 497.643 376.722 497.729 376.772 497.816C376.822 497.904 376.922 497.962 377.024 497.959Z" fill="white"/>
<path d="M583.083 363.889C583.34 364.16 583.796 363.993 583.817 363.62C583.834 363.3 583.504 363.076 583.213 363.211C582.95 363.333 582.884 363.678 583.083 363.889Z" fill="white"/>
<path d="M67.801 43.6314C67.7147 43.2681 67.2355 43.1846 67.0314 43.4973C66.856 43.7659 67.0299 44.1245 67.3493 44.1532C67.6386 44.1792 67.8682 43.914 67.801 43.6314Z" fill="white"/>
<path d="M394.943 14.9495C393.978 13.0298 391.182 13.2055 390.464 15.2309C389.847 16.9739 391.318 18.7431 393.145 18.4541C394.776 18.196 395.685 16.4252 394.943 14.9495Z" fill="white"/>
<path d="M56.2671 439.892C56.143 442.037 58.6522 443.283 60.2861 441.887C61.6922 440.686 61.3027 438.419 59.5765 437.756C58.0347 437.164 56.3625 438.243 56.2671 439.892Z" fill="white"/>
<path d="M550.671 152.947C550.734 153.334 551.231 153.457 551.466 153.143C551.67 152.872 551.507 152.481 551.171 152.435C550.875 152.394 550.623 152.651 550.671 152.947Z" fill="white"/>
<path d="M585.71 5.68927C586.139 6.70551 587.577 6.71023 588.013 5.69682C588.387 4.82769 587.698 3.87414 586.756 3.95527C585.909 4.02817 585.379 4.90609 585.71 5.68927Z" fill="white"/>
<path d="M405.006 46.7344C404.719 47.0236 404.905 47.5164 405.311 47.5448C405.66 47.5692 405.915 47.2214 405.787 46.8958C405.662 46.5759 405.249 46.4906 405.006 46.7344Z" fill="white"/>
<path d="M63.4451 407.333C63.8384 407.226 63.9244 406.707 63.5865 406.479C63.2964 406.283 62.9015 406.457 62.8496 406.803C62.7985 407.143 63.1134 407.423 63.4451 407.333Z" fill="white"/>
<path d="M56.5088 486.345C57.3169 485.221 56.43 483.667 55.0511 483.792C53.8593 483.9 53.1937 485.22 53.8162 486.242C54.4181 487.231 55.8333 487.285 56.5088 486.345Z" fill="white"/>
<path d="M586.015 143.682C585.818 143.986 586.07 144.381 586.429 144.331C586.738 144.287 586.895 143.938 586.724 143.678C586.556 143.423 586.181 143.425 586.015 143.682Z" fill="white"/>
<path d="M290.423 215.954C290.731 216.431 291.449 216.366 291.666 215.841C291.694 215.771 291.723 215.701 291.752 215.632C291.802 215.511 291.778 215.372 291.691 215.274C291.602 215.173 291.462 215.134 291.333 215.175L290.423 215.461C290.346 215.485 290.289 215.552 290.277 215.632C290.27 215.682 290.281 215.734 290.309 215.776L290.423 215.954Z" fill="white"/>
<path d="M247.287 318.077C247.259 317.509 246.604 317.207 246.154 317.554C246.094 317.599 246.035 317.645 245.975 317.691C245.872 317.771 245.822 317.903 245.849 318.031C245.876 318.163 245.978 318.267 246.109 318.296L247.04 318.504C247.119 318.521 247.202 318.492 247.252 318.428C247.284 318.388 247.299 318.338 247.297 318.287L247.287 318.077Z" fill="white"/>
<path d="M295.478 302.947C297.202 301.336 296.399 298.439 294.092 297.946C293.782 297.88 293.471 297.813 293.161 297.748C292.657 297.641 292.135 297.826 291.81 298.227C291.462 298.656 291.405 299.252 291.665 299.74L293.514 303.213C293.68 303.524 294.009 303.711 294.36 303.695C294.576 303.685 294.782 303.598 294.94 303.451L295.478 302.947Z" fill="white"/>
<path d="M286.404 240.211C284.106 240.744 283.352 243.655 285.104 245.236C285.34 245.448 285.575 245.661 285.811 245.873C286.194 246.217 286.739 246.318 287.22 246.133C287.737 245.935 288.084 245.448 288.103 244.895L288.238 240.963C288.25 240.611 288.059 240.284 287.746 240.123C287.554 240.023 287.333 239.996 287.122 240.044L286.404 240.211Z" fill="white"/>
<path d="M444.483 163.093C444.395 163.118 444.379 163.245 444.456 163.295C444.514 163.333 444.591 163.306 444.608 163.239C444.61 163.233 444.611 163.227 444.613 163.222C444.633 163.144 444.569 163.068 444.492 163.09C444.489 163.091 444.486 163.092 444.483 163.093Z" fill="white"/>
<path d="M87.4373 286.827C87.5263 286.849 87.6035 286.746 87.5619 286.664C87.5305 286.603 87.4504 286.588 87.4016 286.637C87.3975 286.641 87.3934 286.646 87.3893 286.65C87.333 286.707 87.3503 286.804 87.4278 286.824C87.431 286.825 87.4341 286.826 87.4373 286.827Z" fill="white"/>
<path d="M611.004 233.049C610.949 233.091 610.97 233.187 611.039 233.198L611.075 233.204C611.122 233.212 611.164 233.177 611.16 233.129C611.159 233.124 611.158 233.118 611.158 233.112C611.151 233.047 611.057 233.01 611.004 233.049Z" fill="white"/>
<path d="M401.165 423.647C401.074 423.633 401.012 423.732 401.061 423.81C401.1 423.871 401.179 423.89 401.226 423.834C401.281 423.77 401.249 423.66 401.165 423.647Z" fill="white"/>
<path d="M255.227 82.8394C255.299 82.8972 255.402 82.8422 255.399 82.7503C255.396 82.6776 255.337 82.622 255.268 82.6462C255.188 82.6744 255.161 82.786 255.227 82.8394Z" fill="white"/>
<path d="M470.797 536.309C471.059 535.993 470.826 535.514 470.415 535.54L470.381 535.543C470.067 535.563 469.863 535.88 469.98 536.173C470.115 536.51 470.565 536.588 470.797 536.309Z" fill="white"/>
<path d="M662.047 246.931C662.183 247.079 662.377 247.161 662.578 247.156C662.867 247.148 663.155 247.14 663.439 247.133C663.807 247.125 664.142 246.921 664.316 246.598C664.526 246.208 664.46 245.728 664.152 245.41L663.195 244.421C663.122 244.345 663.013 244.315 662.911 244.342C662.828 244.364 662.759 244.421 662.723 244.498L661.932 246.165C661.811 246.42 661.856 246.723 662.047 246.931Z" fill="white"/>
<path d="M488.664 174.511C488.715 174.088 488.577 173.664 488.29 173.349C487.879 172.898 487.472 172.446 487.063 171.995C486.54 171.419 485.748 171.173 484.989 171.344C484.069 171.553 483.389 172.329 483.303 173.268L483.043 176.125C483.021 176.358 483.13 176.584 483.326 176.713C483.479 176.814 483.669 176.843 483.846 176.794L487.61 175.742C488.178 175.583 488.595 175.097 488.664 174.511Z" fill="white"/>
<path d="M54.8828 254.847C54.6274 255.189 54.5347 255.625 54.626 256.041C54.7566 256.637 54.8832 257.232 55.0118 257.827C55.1762 258.587 55.7397 259.197 56.4826 259.427C57.383 259.707 58.361 259.374 58.9045 258.604L60.5581 256.261C60.6932 256.069 60.7119 255.819 60.6069 255.61C60.5245 255.446 60.375 255.325 60.197 255.279L56.4118 254.309C55.8401 254.162 55.2364 254.375 54.8828 254.847Z" fill="white"/>
<path d="M196.396 603.974C196.575 604.056 196.785 604.011 196.916 603.864L198.034 602.603C198.893 601.635 198.209 600.113 196.915 600.126C195.855 600.137 195.139 601.214 195.539 602.195L196.168 603.736C196.211 603.842 196.293 603.927 196.396 603.974Z" fill="white"/>
<path d="M614.416 147.138C614.412 147.205 614.453 147.268 614.516 147.292L615.145 147.531C615.612 147.709 616.068 147.248 615.883 146.783C615.732 146.404 615.247 146.295 614.951 146.575L614.465 147.034C614.436 147.061 614.419 147.098 614.416 147.138Z" fill="white"/>
<path d="M202.179 50.299C202.012 50.156 201.767 50.1495 201.592 50.2834L200.201 51.3484C199.15 52.1537 199.528 53.8089 200.829 54.0568C201.909 54.2626 202.878 53.3137 202.665 52.2348L202.334 50.5635C202.314 50.4604 202.259 50.3672 202.179 50.299Z" fill="white"/>
<path d="M240.88 505.66C240.954 505.868 241.162 505.996 241.381 505.967L243.118 505.74C244.431 505.569 244.931 503.946 243.928 503.081C243.096 502.363 241.783 502.7 241.428 503.741L240.878 505.354C240.845 505.453 240.845 505.561 240.88 505.66Z" fill="white"/>
<path d="M408.331 255.486C408.239 255.582 408.281 255.741 408.408 255.78C408.521 255.814 408.636 255.732 408.638 255.613C408.642 255.451 408.443 255.369 408.331 255.486Z" fill="white"/>
<path d="M164.941 224.887C165.068 224.85 165.112 224.691 165.021 224.594C164.941 224.508 164.8 224.522 164.739 224.623C164.654 224.762 164.785 224.933 164.941 224.887Z" fill="white"/>
<path d="M93.0469 79.1363C92.8579 79.1727 92.7843 79.3881 92.9147 79.5297C92.9334 79.5501 92.9521 79.5708 92.9705 79.5918C93.0172 79.645 93.0871 79.6686 93.1564 79.6537C93.2468 79.6342 93.3308 79.5655 93.3434 79.4739L93.3522 79.4097C93.3752 79.2422 93.2269 79.1016 93.0608 79.1336L93.0469 79.1363Z" fill="white"/>
<path d="M349.808 535.252C349.99 535.315 350.162 535.165 350.12 534.977C350.114 534.95 350.108 534.923 350.102 534.896C350.089 534.826 350.04 534.771 349.972 534.749C349.884 534.721 349.777 534.738 349.721 534.811L349.681 534.863C349.577 534.996 349.635 535.192 349.795 535.247L349.808 535.252Z" fill="white"/>
<path d="M577.579 185.009C577.905 184.521 577.574 183.849 576.989 183.809C576.927 183.805 576.865 183.8 576.803 183.796C576.564 183.781 576.337 183.896 576.204 184.095C576.038 184.343 576.052 184.67 576.238 184.903L576.364 185.06C576.682 185.458 577.295 185.432 577.579 185.009Z" fill="white"/>
<path d="M549.089 310.582C549.471 310.764 549.822 310.288 549.518 309.993C549.286 309.767 548.885 309.918 548.878 310.242C548.875 310.386 548.959 310.52 549.089 310.582Z" fill="white"/>
<path d="M70.5892 106.794C70.3498 106.445 69.8077 106.682 69.923 107.089C70.0112 107.401 70.4346 107.471 70.602 107.194C70.6766 107.07 70.6707 106.913 70.5892 106.794Z" fill="white"/>
<path d="M680.499 332.709C680.447 332.997 680.786 333.191 681.008 333C681.241 332.798 681.07 332.416 680.765 332.456C680.63 332.474 680.523 332.576 680.499 332.709Z" fill="white"/>
<path d="M604.39 201.811C605.312 201.055 604.79 199.544 603.597 199.542C602.34 199.541 601.83 201.185 602.874 201.885C603.337 202.197 603.958 202.165 604.39 201.811Z" fill="white"/>
<path d="M395 115.916C393.675 116.64 393.422 118.438 394.5 119.497C395.068 120.055 395.636 120.612 396.203 121.163C396.283 121.241 396.385 121.293 396.495 121.314C396.791 121.369 397.079 121.183 397.15 120.89C397.489 119.51 397.831 118.144 398.169 116.761C398.205 116.616 398.216 116.467 398.202 116.319C398.114 115.349 397.061 114.788 396.207 115.255L395 115.916Z" fill="white"/>
<path d="M106.7 352.425C108.21 352.459 109.328 351.029 108.924 349.573C108.711 348.805 108.497 348.04 108.282 347.279C108.251 347.171 108.19 347.075 108.105 347.002C107.876 346.806 107.534 346.823 107.325 347.041C106.341 348.068 105.362 349.079 104.378 350.108C104.275 350.215 104.191 350.339 104.128 350.474C103.72 351.358 104.351 352.37 105.324 352.393L106.7 352.425Z" fill="white"/>
<path d="M480.557 311.196C481.182 310.955 481.403 310.187 480.991 309.659C480.775 309.381 480.56 309.106 480.349 308.829C480.315 308.783 480.266 308.75 480.211 308.735C480.082 308.698 479.946 308.764 479.895 308.888C479.661 309.467 479.43 310.061 479.195 310.637C479.169 310.701 479.154 310.77 479.151 310.839C479.133 311.271 479.563 311.579 479.966 311.424L480.557 311.196Z" fill="white"/>
<path d="M130.245 140.527C129.583 140.424 129.009 140.978 129.101 141.642C129.149 141.99 129.198 142.336 129.242 142.681C129.249 142.738 129.275 142.791 129.314 142.832C129.408 142.929 129.559 142.94 129.665 142.857C130.158 142.473 130.654 142.074 131.146 141.692C131.2 141.65 131.248 141.598 131.285 141.54C131.517 141.175 131.298 140.692 130.872 140.626L130.245 140.527Z" fill="white"/>
<path d="M305.564 81.5633C305.698 81.1493 305.414 80.7177 304.981 80.6784L302.403 80.4447C302.392 80.4437 302.381 80.4492 302.376 80.4588C302.369 80.4697 302.371 80.4834 302.38 80.4925L303.422 81.587C303.669 81.8459 304.007 81.9984 304.364 82.012L304.902 82.0324C305.2 82.0437 305.471 81.8474 305.564 81.5633Z" fill="white"/>
<path d="M166.979 426.893C166.656 427.184 166.686 427.7 167.041 427.951L169.157 429.442C169.166 429.448 169.178 429.449 169.188 429.443C169.198 429.437 169.204 429.424 169.201 429.412L168.845 427.943C168.761 427.595 168.545 427.294 168.242 427.104L167.787 426.818C167.534 426.659 167.201 426.693 166.979 426.893Z" fill="white"/>
<path d="M247.601 194.875C246.447 195.254 245.95 196.602 246.576 197.643L250.325 203.885C250.339 203.908 250.366 203.919 250.392 203.912C250.414 203.906 250.431 203.888 250.436 203.865L251.279 199.357C251.424 198.58 251.257 197.777 250.814 197.123L249.795 195.618C249.314 194.908 248.416 194.607 247.601 194.875Z" fill="white"/>
<path d="M273.83 357.743C275.02 357.992 276.123 357.073 276.102 355.858L275.977 348.579C275.976 348.552 275.958 348.528 275.932 348.521C275.909 348.515 275.886 348.523 275.87 348.54L272.886 352.023C272.372 352.623 272.115 353.402 272.172 354.19L272.302 356.002C272.363 356.858 272.991 357.567 273.83 357.743Z" fill="white"/>
<path d="M448.285 114.86C448.154 114.578 447.794 114.49 447.548 114.681C446.372 115.593 445.201 116.519 444.043 117.424C443.879 117.553 443.812 117.77 443.877 117.968C443.983 118.296 444.384 118.417 444.654 118.203L448.147 115.44C448.321 115.302 448.378 115.062 448.285 114.86Z" fill="white"/>
<path d="M60.0273 326.696C59.9993 327.006 60.267 327.261 60.5754 327.219C62.0505 327.018 63.5274 326.801 64.983 326.596C65.1892 326.567 65.3553 326.412 65.3985 326.209C65.4701 325.871 65.1836 325.566 64.8425 325.616L60.4367 326.263C60.2169 326.295 60.0473 326.475 60.0273 326.696Z" fill="white"/>
<path d="M254.25 -2.82055C253.565 -3.77447 252.121 -3.72833 251.528 -2.71473L248.722 2.07863C248.288 2.81977 248.692 3.77035 249.533 3.94427C249.998 4.04045 250.478 3.86171 250.773 3.48945L254.215 -0.856358C254.667 -1.42693 254.675 -2.22936 254.25 -2.82055Z" fill="white"/>
<path d="M169.226 525.627C169.342 526.796 170.616 527.478 171.637 526.897L176.463 524.149C177.21 523.724 177.335 522.699 176.694 522.128C176.339 521.812 175.834 521.727 175.393 521.902L170.239 523.944C169.562 524.212 169.154 524.903 169.226 525.627Z" fill="white"/>
<path d="M336.233 321.479C336.629 321.201 336.593 320.593 336.168 320.362L334.236 319.31C333.942 319.15 333.574 319.325 333.515 319.654C333.482 319.835 333.556 320.019 333.703 320.128L335.499 321.453C335.721 321.617 336.008 321.637 336.233 321.479Z" fill="white"/>
<path d="M260.376 203.784C259.894 203.827 259.622 204.371 259.874 204.784L261.021 206.661C261.196 206.947 261.602 206.979 261.819 206.724C261.937 206.584 261.965 206.388 261.892 206.22L260.999 204.174C260.889 203.921 260.651 203.76 260.376 203.784Z" fill="white"/>
<path d="M370.109 255.353C369.161 255.417 368.607 256.439 369.061 257.273L371.176 261.154C371.498 261.743 372.299 261.848 372.763 261.362C373.028 261.084 373.11 260.681 372.975 260.321L371.426 256.194C371.224 255.655 370.682 255.315 370.109 255.353Z" fill="white"/>
<path d="M197.975 244.113C198.827 244.532 199.819 243.923 199.842 242.974L199.951 238.556C199.967 237.884 199.326 237.393 198.681 237.582C198.312 237.69 198.039 237.998 197.976 238.377L197.255 242.726C197.161 243.294 197.459 243.859 197.975 244.113Z" fill="white"/>
</svg>
