<svg width="80" height="80" viewBox="0 0 80 80" fill="none" xmlns="http://www.w3.org/2000/svg">
<g clip-path="url(#clip0)">
<path d="M28.3535 3.9685L28.3536 3.9685C31.098 3.47557 33.5755 3.56486 35.347 4.11234C37.1201 4.66029 37.8294 5.51709 37.9872 6.39552C38.1373 7.23123 37.6704 8.54874 35.9182 10.0082C34.2463 11.4008 31.7889 12.5572 29.1465 13.0317L29.1464 13.0317C27.4316 13.3397 25.2832 12.9267 23.0119 12.1269C21.1914 11.4859 19.4915 10.6732 18.0777 9.99068C19.1419 8.99933 20.6135 7.80455 22.2541 6.72668C24.3348 5.35962 26.5082 4.29993 28.3535 3.9685ZM17.3546 10.6963L17.3546 10.6963L17.3546 10.6963Z" stroke="#31394D" stroke-width="4"/>
<path d="M34.5 26.5L34.3473 24.362C34.1362 21.4068 35.6895 18.6056 38.3079 17.2193C40.867 15.8645 43.9782 16.1086 46.2946 17.846L46.9733 18.355C49.1934 20.0201 50.5 22.6332 50.5 25.4083V26.8589C50.5 27.9476 50.3483 29.0311 50.0491 30.078L46.9645 40.8741C45.4765 46.0822 47.3145 51.6712 51.6031 54.9796L52.9317 56.0045C57.9505 59.8761 58.9054 67.0719 55.07 72.1184C53.4111 74.3012 51.029 75.8218 48.3508 76.4076L47.6527 76.5603C41.217 77.9682 34.7067 74.5168 32.26 68.4001L30.297 63.4924C28.5255 59.0638 28.8223 54.0758 31.1063 49.8885L33.9337 44.7049C35.5991 41.6517 36.2243 38.1389 35.7146 34.6985L34.5 26.5Z" fill="#FFF1E2"/>
<path fill-rule="evenodd" clip-rule="evenodd" d="M26.3333 44.3675C23.5426 47.7139 21.8672 52.0114 21.8672 56.711C21.8672 69.7655 30.5033 76.0001 41.1563 76.0001C49.22 76.0001 56.1357 71.049 59.0152 64.0162C48.9591 62.8325 41.1563 55.3743 41.1563 45C41.1563 38.2112 44.5013 31.1115 49.6153 27.4426C49.6102 27.2273 49.6077 27.0117 49.6077 26.7959C49.6077 23.5971 47.8316 20.8076 45.1921 19.3692C44.2817 18.873 43.3867 18.0365 42.7414 16.9979C41.8584 17.7599 40.7798 18.2763 39.6396 18.4822C35.6952 19.1944 32.7047 22.6497 32.7047 26.7959C33.5 36 30.4514 39.4289 26.3333 44.3675ZM52.2917 6.99993C49.6148 8.4656 46.5 6.5 45.1921 12.6285C44.4488 13.6775 45.9773 15.2417 47.1062 15.8569C50.9793 17.9676 53.3771 22.0743 53.3771 26.7959C53.3771 27.2643 52.9721 28.0346 53 28.5C53.0494 29.3229 53.2857 29.8043 52.5935 30.252C48.119 33.1465 45.1921 37.7744 45.1921 43.5C45.1921 52.4746 52.4332 60.1561 61.4078 60.1561L61.501 60.1558C62.856 60.1482 64.0361 61.2884 63.6944 62.5997C61.086 72.6108 51.984 80.0001 41.1563 80.0001C28.2942 80.0001 17.8672 69.5734 17.8672 56.711C17.8672 51.041 19.8933 45.8445 23.2613 41.8057C26.7819 37.5837 28.7047 32.2932 28.7047 26.7959C28.7047 20.6795 33.1151 15.5956 38.9288 14.5458C39.912 14.3683 40.7229 13.6116 40.9008 12.6285C42.1961 5.47086 46.7635 1.7501 49.2273 0.225402C49.6106 -0.0117852 50.08 -0.0650664 50.5066 0.0811836C50.933 0.227277 51.2713 0.557121 51.4281 0.979777L52.9797 5.16087C53.2388 5.85931 52.945 6.64212 52.2917 6.99993Z" fill="#31394D"/>
</g>
<defs>
<clipPath id="clip0">
<rect width="80" height="80" fill="white"/>
</clipPath>
</defs>
</svg>
