<svg width="82" height="80" viewBox="0 0 82 80" fill="none" xmlns="http://www.w3.org/2000/svg">
<path d="M24.2812 34.4519V29.3964C24.2812 20.6816 30.2643 13.1067 38.7422 11.0882L40.4039 10.6925C42.7339 10.1378 45.1727 10.246 47.4444 11.0049L49.0736 11.5492C54.196 13.2604 57.2812 18.477 56.3134 23.7902C55.5198 28.1468 57.6662 32.7153 59.0882 36.9091C60.6525 41.5229 60.8922 47.6891 60.8288 53.111C60.7553 59.3935 56.7181 67.4123 50.6824 69.1575C46.6677 70.3184 41.0669 68.9647 38.8839 65.401L27.9955 47.6259C25.5667 43.6609 24.2812 39.1017 24.2812 34.4519Z" fill="#E3F7FF"/>
<path d="M78.5033 61.8559C79.501 58.9777 72.8872 39.4103 73.9438 38.4552C75.0003 37.5 81.0003 31.4625 81.0003 26.4908C81.0003 19.3078 73.5003 4.00001 67.3285 5.50782C61.1566 7.01563 60.0649 8.85563 57.6416 13.1111C47.0003 7.85157 36.0003 6.50024 26.9707 11.6913C26.2878 10.4139 24.9153 9.70267 23.4102 9.92095C21.6571 10.1758 20.4325 11.5925 20.4325 13.3661V15.9049C19.6408 16.5616 18.8803 17.2556 18.1547 17.9834C18.1547 17.9834 17.4911 15.7307 18.1547 13.3655C18.8183 11.0002 16.5924 9.88282 14.6721 9.88282C12.7517 9.88282 10.8778 10.7307 11.1894 13.3655C11.501 16.0002 11.1894 24.18 11.1894 24.18C11.1894 24.8081 10.6785 25.3189 10.0505 25.3189C9.42253 25.3189 8.91159 24.808 8.91159 24.18C8.91159 24.18 8.3222 16.2307 8.91159 13.3655C9.50098 10.5002 7.68722 10.1758 5.93393 9.92095C4.17518 9.6647 2.59378 10.6777 2.08722 12.3827C1.33456 14.918 -0.00139946 20.0588 1.00034 26.4908C2.00208 32.9228 3.74534 36.0688 8.06581 38.46L3.51159 61.8244C3.49925 61.8881 3.48956 61.952 3.48222 62.0188C2.75925 68.6947 7.97893 74.4917 14.6771 74.4917C18.7858 74.4917 22.6346 72.267 24.6044 68.52C29.5702 71.4625 35.2167 73.0111 40.9997 73.0111C41.0953 73.0111 41.1914 73.0106 41.2871 73.0098C46.9731 72.9594 52.5108 71.4122 57.3885 68.5249C59.2944 72.0984 63.0293 74.492 67.3333 74.492C74.0221 74.492 79.2518 68.7278 78.5182 61.9538C78.5146 61.9211 77.5056 64.7342 78.5033 61.8559ZM20.4327 19.0349V24.18C20.4327 24.8081 19.9217 25.3189 19.2938 25.3189C18.6658 25.3189 18.1549 24.808 18.1549 24.18V21.4445C18.8678 20.602 19.6286 19.7966 20.4327 19.0349ZM14.6769 72.1484C10.8528 72.2966 4.12346 67.0438 5.81222 62.272C7.50098 57.5002 10.5352 38.0419 10.5352 38.0419C10.6382 37.5141 10.3685 36.9839 9.88128 36.7561C5.91003 34.8992 3.34409 30.8699 3.34409 26.4908C3.34409 24.5355 3.73925 15.053 4.33425 13.05C4.54768 12.3313 5.11378 12.2283 5.42065 12.2283C5.50081 12.2283 5.56331 12.2353 5.59706 12.2402C5.82487 12.2733 6.568 12.4522 6.568 13.3659V24.1799C6.568 26.1002 8.13034 27.6625 10.0507 27.6625C11.971 27.6625 12.5656 27.8595 13.5333 24.1799C14.501 20.5002 13.5333 13.3655 13.5333 13.3655C13.5333 12.7374 14.0442 12.2266 14.6722 12.2266C15.3002 12.2266 15.8111 12.7375 15.8111 13.3655V24.18C15.8111 26.1003 17.3735 27.6627 19.2938 27.6627C21.2141 27.6627 22.7764 26.1003 22.7764 24.18V13.3661C22.7764 12.4524 23.5197 12.2734 23.7474 12.2403C23.9113 12.2169 24.741 12.1438 25.0102 13.0502C25.6052 15.053 26.0003 24.5356 26.0003 26.4909C26.0003 30.8663 23.4375 34.8942 19.4713 36.7528C18.9847 36.9808 18.7155 37.5106 18.8183 38.0381L19.2744 40.3792C21.6695 52.6717 21.501 49.5002 21.7139 52.9C21.9269 56.2998 23.4278 61.6961 23.5367 62.2545C24.0832 67.567 18.501 72.0002 14.6769 72.1484ZM25.4861 66.3155C25.8853 64.9125 26.0214 63.4283 25.8617 61.9539C25.8533 61.8769 24.9157 57.0766 24.9008 57.0002C29.1472 61.2133 34.8972 63.6328 41.0003 63.6328C44.2013 63.6327 47.3003 62.9813 50.2111 61.6966C50.8033 61.4353 51.0714 60.7434 50.8102 60.1513C50.5488 59.5592 50.5288 59.5524 49.2649 59.5524C48.001 59.5524 46.501 60.0002 41.0002 61.2889C35.4994 62.5776 27.8102 57.9009 23.9688 52.217L21.2874 38.4552C25.6025 36.0627 28.3441 31.4625 28.3441 26.4908C28.3441 25.4209 28.1033 17.8338 27.5703 14.0114C36.7996 9.35266 47.7441 9.80282 56.5613 15.1961C55.4978 17.4547 54.6938 19.8449 54.2042 22.0561C50.3555 19.3333 44.001 17.5002 41.0003 17.8516C37.9997 18.2029 34.2758 18.5942 31.1982 20.0588C30.6138 20.3369 30.3653 21.0361 30.6435 21.6205C30.9217 22.2049 31.6208 22.4534 32.2052 22.1752C34.9658 20.8614 37.9249 20.1953 41.0003 20.1953C45.633 20.1953 50.1407 21.7758 53.7652 24.6566C53.6936 25.303 53.6566 25.9181 53.6566 26.4909C53.6566 31.4672 56.5 35.5 60.7221 38.46L60.0003 44L58.0449 52.1953C56.7019 54.1878 56.1474 55.5685 54.2042 56.9889C53.6817 57.3709 52.4608 58.4553 52.8427 58.9777C53.2244 59.4997 53.9572 59.6144 54.4803 59.232C55.4164 58.5477 56.2936 57.798 57.1099 56.9889C56.1499 61.915 56.1444 61.9639 56.1385 62.0189C55.9792 63.4892 56.1083 64.9472 56.5 66.3247C47.021 72.0828 34.9786 72.0959 25.4861 66.3155ZM67.3332 72.1484C64.166 72.7969 60.2769 69.7702 58.9969 66.4034C58.996 66.4011 58.995 66.3986 58.9941 66.3963C58.5075 65.1128 58.3175 63.7192 58.4642 62.3105C58.5607 61.7938 59.3539 59.313 60.0003 56L60.2992 52.8788C60.2999 52.875 60.3008 52.8714 60.3014 52.8677L63.1913 38.0417C63.2941 37.5139 63.0247 36.9838 62.5374 36.7559C58.5663 34.8992 56.0003 30.8699 56.0003 26.4908C56.0003 19.9539 62.1566 6.70313 67.3285 7.85157C69.9253 8.4282 74.4179 13.892 74.9594 15.1961C75.501 16.5002 78.6566 23.2347 78.6566 26.4908C78.6566 30.8661 76.0938 34.8941 72.1275 36.7527C71.641 36.9806 71.9482 35.0757 71.4746 38.038C71.001 41.0002 76.193 62.2542 76.193 62.2542C76.7452 67.6063 70.5003 71.5 67.3332 72.1484Z" fill="#31394D" stroke="#31394D"/>
<path d="M73.3589 31.5874C72.9317 31.1013 72.1914 31.0533 71.705 31.4803C70.493 32.545 69.6105 32.5 68 32.5C64.3383 32.5 60.875 30.9816 60.6875 26.4908C60.5 22 60.4489 21.6676 62.5 18.5C64.5511 15.3324 63.7247 15.553 63.1583 15.2397C62.5919 14.9267 61.8789 15.1319 61.5656 15.6981C59.352 19.7008 58.3438 24.0986 58.3438 26.491C58.3438 31.445 62.3741 35.4753 67.3281 35.4753C69.5081 35.4753 71.6119 34.6819 73.2519 33.2413C73.738 32.8142 73.7859 32.0738 73.3589 31.5874Z" fill="#31394D"/>
</svg>
