<svg width="94" height="34" viewBox="0 0 94 34" fill="none" xmlns="http://www.w3.org/2000/svg">
<path d="M41.0762 5.86345L34.3986 9.06868C33.8055 9.35338 33.2749 9.75324 32.8378 10.245C29.9946 13.4436 32.2652 18.5 36.5449 18.5H64.2256C71.1886 18.5 74.3932 9.83707 69.1065 5.30558C67.7472 4.14044 66.0159 3.5 64.2256 3.5H51.4617C47.8665 3.5 44.3173 4.3077 41.0762 5.86345Z" fill="#FFF1E2"/>
<path d="M79.8195 16.2852C78.5002 16.2852 78.0843 15.2957 77.7373 14.0228C75.616 6.24113 67.8961 -0.291667 60.7554 0.785699C58.0554 1.19307 54.3701 -0.267529 54.3701 2.9999C54.3701 6.27532 58.8553 5.64061 60.7554 5.21414C65.771 4.08843 71.8019 9.22592 73.454 15.0066C73.6428 15.6672 73.1186 16.2862 72.4315 16.2862C71.9028 16.2862 71.4532 15.9116 71.3061 15.4038C69.9729 10.8015 65.7494 7.42834 60.7554 7.42834H58.7667C57.5536 7.42834 56.5679 8.4184 56.5679 9.64358C56.5679 9.89336 56.6089 10.1334 56.6846 10.3573C57.0709 11.5007 59.6718 12.3893 60.7554 11.8578C62.8212 10.8444 64.6995 12.3203 65.9122 14.1938C66.5323 15.1518 65.7476 16.2862 64.6064 16.2862C63.6933 16.2862 62.9857 15.4526 62.3674 14.7809C61.9659 14.3447 61.3921 14.072 60.7554 14.072H58.7667C56.8524 14.072 55.0157 16.2879 53.1016 16.2682C35.9514 16.0917 23.8118 14.7083 6 16.0297C-7.77598 17.0518 4.86545 33.9999 16.9203 33.9999C65.412 33.1581 57.064 33.1575 78.6325 33.9999C84.3102 33.9999 89.6482 27.9999 90.7316 26.3985C91.8149 24.7972 94.6256 21.8841 92.699 18.5022C90.7723 15.1203 83.6482 16.2852 79.8195 16.2852ZM88.0733 23.9431C85.7413 27.4683 82.8377 29.5715 78.6335 29.5715C63.0859 28.4975 71.9258 28.4685 16.9183 30.0892C10.7702 30.0892 6.78571 25 5.5 22C4.21429 19 18.5 20 37.2383 20.5145C52.1531 20.924 76.8843 20.8084 86.3557 20.7442C88.0044 20.733 88.9829 22.568 88.0733 23.9431Z" fill="#31394D"/>
<path fill-rule="evenodd" clip-rule="evenodd" d="M33.9505 18C36.2303 16.2205 38.6539 15.4821 39.8991 16.5013C41.1409 16.5013 42.149 15.4953 42.149 14.2504C42.149 13.0065 41.149 12.0002 37.8991 12.0005C35.745 12.0007 31.0277 13.3977 27.6791 18H33.9505ZM25.3273 18C28.1444 12.715 32.9074 9.07792 39.5788 10.3639C41.9433 10.3639 43.8653 12.3209 43.8653 14.7274C43.8653 15.9346 44.8254 16.9101 46.0081 16.9101C47.1909 16.9101 48.1509 15.9346 48.1509 14.7274C48.1509 9.91447 44.3068 6.00049 39.5798 6.00049C28.8646 7.19825 22.6883 11.465 19.9207 18H25.3273ZM16.768 18C20.6068 9.91179 29.0165 4.28557 38.7487 4.28557H43.1485C46.7882 4.28557 49.7492 8 49.7492 12.7139C49.7492 13.8996 50.7348 14.8567 51.9491 14.8567C53.1633 14.8567 54.149 13.8996 54.149 12.7139C53.149 4.28557 50.2137 0 44.1485 0H38.7487C26.5405 0 16.0938 7.49015 11.998 18H16.768Z" fill="#31394D"/>
</svg>
