<svg width="81" height="92" viewBox="0 0 81 92" fill="none" xmlns="http://www.w3.org/2000/svg">
<path d="M3.88477 55.5768C10.8848 52.8845 20.0386 27.846 45.0771 31.8845" stroke="#31394D" stroke-width="3" stroke-linecap="round"/>
<path d="M20.5769 48.0385C24.3462 50.7309 39.9615 42.6539 43.1923 44.5385C44.8077 45.4359 47.3923 47.9846 44.8077 51C41.5769 54.7692 35.1154 52.3462 29.4615 56.1154C23.8077 59.8846 16 71.7308 2 67.1538" stroke="#31394D" stroke-width="3" stroke-linecap="round"/>
<path d="M30 46.9615C30.9872 44 35.1692 38.0769 44 38.0769" stroke="#31394D" stroke-width="3" stroke-linecap="round"/>
<path d="M38.8845 53.4231C36.7306 60.4231 25.4229 77.9231 24.346 78.7308C22.6663 79.9905 20.4016 78.9318 18.5312 78.0395C17.6624 77.6251 16.6491 77.8512 15.9986 78.5608V78.5608C15.0155 79.6332 15.2378 81.3331 16.4635 82.1168L28.8686 90.0479C29.8437 90.6713 31.1213 90.5324 31.9397 89.714V89.714C32.8279 88.8258 32.9062 87.4118 32.1215 86.4309L30.1286 83.9398C28.8706 82.3673 28.4995 80.2829 29.3511 78.458C31.5116 73.8287 37.0128 63.7786 49.6537 48.3077" stroke="#31394D" stroke-width="3" stroke-linecap="round"/>
<path d="M59.6151 3.07692C54.051 9.35898 43.0843 26.5538 43.7305 45.0769M45.8843 48.0385C47.8587 48.6667 53.1535 48.6846 58.5382 43.7308C65.2689 37.5385 74.4228 25.4231 77.9228 12.7692" stroke="#31394D" stroke-width="3" stroke-linecap="round"/>
<path d="M66.9487 2.7661C65.6512 2.44369 64.3537 2.25696 63.286 2.14882C61.6479 1.98289 59.5368 2.19969 59.1011 3.78758C58.8208 4.80905 61.063 7.6181 62.4643 8.63957C63.8657 9.66104 70.5922 12.9808 72.2738 13.2362C73.4376 13.4129 75.8096 13.2227 77.16 13.0888C77.783 13.0271 78.3212 12.6369 78.5876 12.0704C78.8455 11.5221 78.8146 10.8814 78.4906 10.3694C77.9264 9.4776 77.0244 8.11614 76.4778 7.6181C75.637 6.85199 70.0316 3.53221 66.9487 2.7661Z" stroke="#31394D" stroke-width="3" stroke-linecap="round"/>
<path d="M48.8457 20.3075C61.7688 17.8846 59.6149 32.4229 68.7688 31.6152" stroke="#31394D" stroke-width="3" stroke-linecap="round"/>
<path d="M70.3851 29.4617C68.5902 27.7565 64.0312 24.5617 60.1543 25.4232" stroke="#31394D" stroke-width="3" stroke-linecap="round"/>
</svg>
