<svg width="24" height="24" viewBox="0 0 24 24" fill="none" xmlns="http://www.w3.org/2000/svg">
<g opacity="0.8">
<path d="M1 3L2.11047 3C3.52508 3 4.74747 3.9882 5.04387 5.37141L6.21531 10.8381C6.61051 12.6824 8.24037 14 10.1265 14H17.2862C19.0468 14 20.6003 12.8489 21.1129 11.1646L23 4.96429" stroke="#31394D" stroke-width="1.5" stroke-linecap="round"/>
<path d="M11.25 19.5C11.25 20.4665 10.4665 21.25 9.5 21.25C8.5335 21.25 7.75 20.4665 7.75 19.5C7.75 18.5335 8.5335 17.75 9.5 17.75C10.4665 17.75 11.25 18.5335 11.25 19.5Z" stroke="#31394D" stroke-width="1.5" stroke-linecap="round"/>
<path d="M20.25 19.5C20.25 20.4665 19.4665 21.25 18.5 21.25C17.5335 21.25 16.75 20.4665 16.75 19.5C16.75 18.5335 17.5335 17.75 18.5 17.75C19.4665 17.75 20.25 18.5335 20.25 19.5Z" stroke="#31394D" stroke-width="1.5" stroke-linecap="round"/>
</g>
</svg>
