<svg width="16" height="16" viewBox="0 0 16 16" fill="none" xmlns="http://www.w3.org/2000/svg">
<g opacity="0.6">
<path d="M5 5.5C5 5.5 4 4.5 5 3.25C6 2 5 1 5 1" stroke="#31394D" stroke-width="1.5" stroke-linecap="round"/>
<path d="M7.5 5.5C7.5 5.5 6.5 4.5 7.5 3.25C8.5 2 7.5 1 7.5 1" stroke="#31394D" stroke-width="1.5" stroke-linecap="round"/>
<path d="M11.5 7.5V9.75C11.5 12.6495 9.14949 15 6.25 15V15C3.35051 15 1 12.6495 1 9.75L1 7.5H12.8966C14.0583 7.5 15 8.44175 15 9.60345V9.60345C15 10.5706 14.3405 11.4131 13.4016 11.6454L10.9571 12.25" stroke="#31394D" stroke-width="1.5" stroke-linecap="round"/>
</g>
</svg>
