<?xml version="1.0" encoding="utf-8"?>
<!-- Generator: Adobe Illustrator 24.1.3, SVG Export Plug-In . SVG Version: 6.00 Build 0)  -->
<svg version="1.1" id="Layer_1" xmlns="http://www.w3.org/2000/svg" xmlns:xlink="http://www.w3.org/1999/xlink" x="0px" y="0px"
	 viewBox="0 0 1080 1080" style="enable-background:new 0 0 1080 1080;" xml:space="preserve">
<style type="text/css">
	.st0{fill:#f5f8fb;}
	.st1{fill:#31394D;}
</style>
<g>
	<rect y="-0.08" class="st0" width="1080" height="1080"/>
	<g>
		<g>
			<g>
				<g>
					<g>
						<path class="st0" d="M827.04,319.19H443.97c-5.46,0-9.89-4.41-9.89-9.85v-99.8c0-7.01-0.8-14.02-2.73-20.76
							c-5.87-20.54-24.05-56.49-79.29-56.49c-52.99,0-71.87,33.08-78.51,53.9c-2.44,7.66-3.52,15.67-3.48,23.71l0.49,108.98
							l-0.52,380.97c0,0,1.3,72.55,82.02,72.55s82.02-72.55,82.02-72.55v-206c0-4.57,3.72-8.27,8.31-8.27h322.64
							c7.18,0,10.83-8.32,6.19-13.78c-13.51-15.87-21.74-36.96-21.74-60.12c0-49.35,37.4-64.58,83.53-64.58c0,0,0.01,0,0.01,0
							c0.09,0,0.17-0.01,0.25-0.01c0.7,0,1.39,0,2.08,0.01l0-19.64C835.34,322.9,831.63,319.19,827.04,319.19L827.04,319.19z"/>
						<path class="st1" d="M352.06,782.54c-89.69,0-92.2-81.7-92.21-82.52l0.52-381.16l-0.48-108.93
							c-0.04-9.42,1.29-18.45,3.96-26.82c7.26-22.77,28.37-60.98,88.22-60.98c63.93,0,83.6,44.66,89.09,63.86
							c2.07,7.24,3.12,15.16,3.12,23.54v99.8l382.77-0.29c10.2,0,18.5,8.26,18.5,18.42l0,29.9l-12.27-0.12
							c-73.6,0.01-73.6,40.97-73.6,54.43c0,19.89,6.86,38.91,19.33,53.55c4.79,5.64,5.84,13.26,2.75,19.9
							c-3.04,6.54-9.45,10.6-16.71,10.6H444.27v204.12C444.25,700.84,441.74,782.54,352.06,782.54z M352.06,142.43
							c-44.52,0-61.98,25.46-68.79,46.83c-2.03,6.35-3.04,13.28-3.01,20.59l0.49,108.98l-0.52,381.02
							c0.06,2.32,2.4,62.39,71.83,62.39c69.43,0,71.76-60.07,71.83-62.62l0-205.79c0-10.16,8.3-18.42,18.5-18.42h318.66
							c-14.06-17.86-21.76-40.35-21.76-63.75c0-32.91,15.16-71.91,85.88-74.58v-7.75H443.97c-11.07,0-20.09-8.97-20.09-20.01v-99.8
							c0-6.5-0.79-12.55-2.34-17.98C415.13,169.15,397.88,142.43,352.06,142.43z"/>
					</g>
				</g>
				<g>
					<path class="st0" d="M663.34,385.24c5.45,0,9.87-4.4,9.87-9.83V212.13c0,0-3.3-79.84,81.06-79.84s81.06,79.84,81.06,79.84
						l0.02,173.11l-0.02,315.56c0,0-2.35,71.6-81.06,71.6s-81.06-71.6-81.06-71.6V562.41c0-6.65-5.42-12.05-12.1-12.05l-399.28,0
						c0,0-63.53,3.77-79.77-80.45c-1.47-7.64-2.04-15.44-2.04-23.22l0-3.09c0,0-6.66-126.06,78.79-120.36
						c6.44,0.43,11.74,5.98,11.74,12.41l0,37.54c0,6.65,5.42,12.05,12.1,12.05L663.34,385.24z"/>
					<path class="st1" d="M754.27,782.54c-87.56,0-91.22-80.6-91.25-81.41l-0.01-138.73c0-1.05-0.85-1.9-1.9-1.9H261.83
						c-0.16,0.06-18.39,0.98-38.62-9.85c-18.29-9.79-42.01-31.41-51.16-78.84c-1.49-7.75-2.22-15.98-2.22-25.14l0-3.09
						c-0.15-2.52-3.53-74.86,33.12-110.84c14.81-14.55,33.83-21.16,56.54-19.64c11.92,0.8,21.26,10.7,21.26,22.54v37.54
						c0,1.05,0.85,1.9,1.91,1.9h380.36V212.13c-0.06-1.16-1.29-38.51,24.2-64.97c16-16.6,38.56-25.02,67.05-25.02
						c28.49,0,51.05,8.42,67.05,25.02c25.49,26.46,24.26,63.82,24.19,65.39l0.03,172.7l-0.02,315.56
						C845.48,701.94,841.83,782.54,754.27,782.54z M661.11,540.21c12.29,0,22.29,9.95,22.29,22.19V700.8
						c0.09,2.15,3.26,61.45,70.87,61.45c67.61,0,70.77-59.29,70.88-61.82l0.01-315.19l-0.02-173.11
						c0.02-0.69,0.85-30.94-18.64-51.04c-12.01-12.38-29.58-18.66-52.23-18.66s-40.22,6.28-52.23,18.66
						c-19.49,20.1-18.66,50.35-18.65,50.66l0.01,163.67c0,11.01-9,19.98-20.06,19.98H282.65c-12.29,0-22.29-9.96-22.29-22.2v-37.54
						c0-1.07-1.11-2.2-2.24-2.28c-16.87-1.09-30.21,3.39-40.84,13.81c-30.13,29.54-27.12,95.24-27.09,95.9l0.01,3.62
						c0,7.86,0.61,14.83,1.85,21.3c14.26,73.92,66.98,72.39,69.22,72.24L661.11,540.21z"/>
				</g>
				<g>
					<path class="st0" d="M901.01,411.67c0,49.35-21.78,89.36-67.91,89.36s-83.53-40.01-83.53-89.36s37.66-64.58,83.79-64.58
						c0.7,0,0.98-2.43,0.98-2.43l0.92-22.13c0.11-1.86,1.71-3.37,3.58-3.3c41.6,1.4,61.05,37.54,62.18,83.15V411.67z"/>
					<path class="st1" d="M833.09,511.19c-51.68,0-93.72-44.64-93.72-99.51c0-32.75,15.04-71.54,85.07-74.54l0.62-15.01
						c0.42-7.5,6.68-13.26,14.1-13.03c43.7,1.47,70.62,36.25,72.02,93.04l0,9.54C911.2,472.12,880.54,511.19,833.09,511.19z
						 M845.14,329.98l-0.69,15.84c-0.97,8.43-6.59,11.42-11.1,11.42c-73.6,0-73.6,40.97-73.6,54.43c0,43.68,32.9,79.21,73.33,79.21
						c53.56,0,57.72-60.63,57.72-79.21v-9.29C890.32,382.19,884.74,335.94,845.14,329.98z"/>
				</g>
			</g>
		</g>
		<g>
			<path class="st1" d="M232.59,888.76c1.02-2.59,2.75-3.63,4.41-3.63c2.25,0,4.35,1.92,4.35,4.54c0,0.61-0.12,1.26-0.37,1.94
				c-7.45,19.64-14.76,32.1-26,32.1c-7.18,0-12.73-5.55-12.73-13.27c0-8.8,6.37-22.62,6.37-29.26c0-3.52-1.76-5.28-4.61-5.28
				c-6.5,0-19.64,10.92-20.29,30.6c0.14,3.46,0.54,7.05,0.54,10.74c0,4.19-1.98,6.47-5.45,6.47c-3.35,0-5.15-2.43-5.41-6.78
				c-0.54-9.89-0.68-20.04-0.68-29.93c0-9.48,0.57-17.59,1.61-24.5c-0.41-0.09-0.81-0.18-1.21-0.28c-2.98-0.82-4.33-2.98-4.33-5.01
				c0-2.17,1.76-4.33,4.6-4.33c0.63,0,1.54,0.2,2.74,0.46c5.04-20.09,14.97-26.73,25.02-26.73c10.16,0,16.25,6.64,16.25,15.17
				c0,11.37-10.7,21.81-31.83,21.81c-0.16,0-0.33,0-0.5,0c-0.7,5.06-1.21,11-1.47,17.98c5.68-9.93,13.83-15.54,22.56-15.54
				c7.72,0,13,5.28,13,13.68c0,10.3-6.37,24.38-6.37,30.47c0,2.17,1.49,3.66,3.66,3.66C222.16,913.83,229.07,897.84,232.59,888.76
				L232.59,888.76z M186.74,854.64h0.21c10.43,0,20.04-4.61,20.04-12.46c0-3.25-2.17-5.69-5.82-5.69
				C195.81,836.48,190.19,840.28,186.74,854.64z"/>
			<path class="st1" d="M293.8,888.77c0.93-2.54,2.69-3.59,4.4-3.59c2.24,0,4.37,1.82,4.37,4.47c0,0.61-0.11,1.27-0.36,1.96
				c-5.82,16.12-13.14,31.56-23.97,31.56c-5.35,0-10.08-3.21-12.31-12.56c-5.39,8.4-12.12,12.57-19.96,12.57
				c-9.17,0-15.14-6.06-15.14-14.9c0-13,3.12-24.79,3.12-29.66c0-3.93-3.93-4.33-3.93-7.99c0-2.71,2.3-5.01,5.28-5.01
				c5.01,0,9.62,4.47,9.62,10.3c0,9.34-3.25,21.53-3.25,29.26c0,5.96,2.17,8.12,5.83,8.12c6.03,0,14.98-5.96,17.51-26.6
				c0.4-4.95,1.02-9.85,1.59-14.3c0.41-3.25,2.98-4.74,5.55-4.74c2.71,0,5.42,2.03,5.01,5.83c-0.54,5.15-2.17,16.12-2.17,25.19
				c0,12.59,2.03,14.63,4.2,14.63C283.64,913.28,290.01,899.2,293.8,888.77L293.8,888.77z"/>
			<path class="st1" d="M353.79,888.77c0.89-2.57,2.54-3.59,4.17-3.59c2.32,0,4.59,2.06,4.59,4.65c0,0.58-0.11,1.18-0.36,1.79
				c-7.86,20.32-13.95,31.69-24.52,31.69c-7.85,0-13.14-5.29-13.14-15.85c0-9.75,2.17-17.88,2.17-23.43c0-4.2-1.49-5.69-5.15-5.69
				c-6.15,0-16.93,9.12-17.33,29.96c-0.01,3.04-0.01,6.34-0.01,9.99c0,3.79-1.9,5.69-5.15,5.69c-3.79,0-5.69-1.9-5.69-5.69
				c0-18.02,0.54-34.67,2.03-45.78c0.41-2.98,2.3-4.74,5.82-4.74c3.44,0,5.11,2.08,5.11,4.96c0,0.41-0.03,0.84-0.1,1.27
				c-0.32,2.07-0.59,4.06-0.82,6.02c5.04-7.68,11.37-11.57,18.15-11.57c8.53,0,13.95,5.41,13.95,12.73c0,7.99-2.17,17.2-2.17,25.46
				c0,5.15,1.63,6.77,3.52,6.77C343.9,913.42,350.54,897.03,353.79,888.77L353.79,888.77z"/>
			<path class="st1" d="M413.65,888.77c0.89-2.57,2.54-3.59,4.17-3.59c2.32,0,4.59,2.06,4.59,4.65c0,0.58-0.11,1.18-0.36,1.79
				c-5.33,12.89-13.27,27.94-25.79,36.73l-0.21,2.68c-1.49,16.25-9.75,26.55-20.18,26.55c-7.86,0-12.46-5.42-12.46-11.78
				c0-11.43,11.69-15.68,22.71-22.67c0.21-2.91,0.38-6.16,0.5-9.8c-5.46,6.03-11.16,8.49-16.44,8.49c-10.29,0-18.69-8.4-18.69-21.26
				c0-19.78,13-32.78,27.49-32.78h0.14c9.89,0,20.45,5.28,20.45,14.76c0,3.04-1.28,20.04-2.31,33.18
				C404.57,908.73,410.61,897.44,413.65,888.77L413.65,888.77z M387.78,893.51c0.58-3.37,0.95-6.26,0.87-9.85
				c-0.81-3.58-3.87-5.86-8.32-5.86c-9.21,0-18.01,8.8-18.01,22.21c0,8.13,3.79,11.92,9.48,11.92
				C376.81,911.93,383.58,908.82,387.78,893.51z M376.94,947.69c2.96,0,6.09-1.8,8.02-13.97c-5.92,3.49-11.4,7.07-11.4,11.13
				C373.56,946.6,374.91,947.69,376.94,947.69L376.94,947.69z"/>
			<path class="st1" d="M469.93,885.13c2.25,0,4.36,1.92,4.36,4.54c0,0.61-0.12,1.26-0.37,1.94c-7.58,20.05-15.3,31.97-28.58,31.97
				c-10.02,0-17.2-7.18-17.2-17.34c0-8.53,4.04-18.4,7.86-27.08c-3.11-0.37-5.96-1.31-8.54-2.46c-1.61,4.72-3.25,9.29-5.41,14.91
				c-0.93,2.38-2.71,3.37-4.42,3.37c-2.24,0-4.37-1.7-4.37-4.24c0-0.61,0.12-1.27,0.4-1.97c2.3-5.83,4.2-11.38,5.55-16.66
				c-1.49-1.08-2.03-2.98-2.03-4.74c0-2.84,1.76-5.82,5.01-5.82c2.44,0,3.52,1.08,4.6,2.57c1.76,2.43,4.61,5.96,11.24,5.96
				c2.98,0,4.47-1.08,6.23-1.08c2.71,0,4.74,2.03,4.74,5.01c0,1.36-0.54,3.25-1.49,5.55c-2.98,7.18-8.53,18.15-8.53,26.14
				c0,5.01,2.98,7.99,7.58,7.99c8.26,0,15.31-15.58,18.96-24.92C466.53,886.18,468.26,885.13,469.93,885.13z"/>
			<path class="st1" d="M528.62,885.21c2.28,0,4.41,2.08,4.41,4.62c0,0.58-0.11,1.17-0.35,1.78c-5.9,14.93-13.3,28.11-26.2,36.86
				c-0.07,0.82-0.14,1.58-0.21,2.28c-0.95,9.21-4.47,26.68-20.05,26.68c-8.13,0-13.41-5.28-13.41-11.51
				c0-8.47,8.9-14.72,23.07-22.26c0.23-3.08,0.49-6.62,0.78-10.45c-5.25,6.52-11.67,9.96-18.97,9.96c-8.13,0-14.09-5.96-14.09-14.9
				c0-12.73,3.25-24.25,3.25-29.8c0-3.93-3.93-4.2-3.93-7.85c0-2.71,2.3-5.01,5.28-5.01c5.01,0,9.62,4.47,9.62,10.3
				c0,9.34-3.39,21.53-3.39,29.26c0,6.09,2.03,8.12,5.96,8.12c5.9,0,15.21-5.45,18.27-26.53c0.38-4.94,0.76-9.75,1.1-14.11
				c0.27-3.25,2.84-5.01,5.42-5.01c2.84,0,5.69,2.03,5.42,5.96c-0.95,13.14-2.17,27.63-2.98,39.41c-0.07,0.94-0.13,1.85-0.2,2.74
				c8.36-8.23,13.57-19.13,16.85-26.98C525.36,886.22,527.03,885.21,528.62,885.21z M495.04,933.87
				c-7.37,4.21-11.66,7.54-11.66,10.7c0,1.76,1.22,2.98,3.52,2.98C491.11,947.55,493.82,943.5,495.04,933.87z"/>
			<path class="st1" d="M618,888.76c1.01-2.59,2.75-3.63,4.41-3.63c2.25,0,4.35,1.92,4.35,4.54c0,0.61-0.12,1.26-0.37,1.94
				c-7.45,19.64-14.77,32.1-26,32.1c-7.18,0-12.73-5.55-12.73-13.27c0-8.8,6.36-22.62,6.36-29.26c0-3.52-1.76-5.28-4.6-5.28
				c-6.51,0-19.64,10.92-20.29,30.6c0.14,3.46,0.54,7.05,0.54,10.74c0,4.19-1.98,6.47-5.45,6.47c-3.35,0-5.15-2.43-5.41-6.78
				c-0.54-9.89-0.68-20.04-0.68-29.93c0-9.48,0.57-17.59,1.61-24.5c-0.4-0.09-0.81-0.18-1.2-0.28c-2.98-0.82-4.33-2.98-4.33-5.01
				c0-2.17,1.76-4.33,4.61-4.33c0.63,0,1.54,0.2,2.74,0.46c5.04-20.09,14.97-26.73,25.02-26.73c10.16,0,16.26,6.64,16.26,15.17
				c0,11.37-10.7,21.81-31.83,21.81c-0.16,0-0.33,0-0.5,0c-0.7,5.06-1.21,11-1.47,17.98c5.69-9.93,13.84-15.54,22.56-15.54
				c7.72,0,13,5.28,13,13.68c0,10.3-6.37,24.38-6.37,30.47c0,2.17,1.49,3.66,3.66,3.66C607.57,913.83,614.48,897.84,618,888.76
				L618,888.76z M572.15,854.64h0.21c10.43,0,20.04-4.61,20.04-12.46c0-3.25-2.17-5.69-5.82-5.69
				C581.22,836.48,575.59,840.28,572.15,854.64z"/>
			<path class="st1" d="M679.2,888.77c0.93-2.54,2.69-3.59,4.4-3.59c2.24,0,4.37,1.82,4.37,4.47c0,0.61-0.11,1.27-0.36,1.96
				c-5.83,16.12-13.14,31.56-23.97,31.56c-5.36,0-10.08-3.21-12.31-12.56c-5.39,8.4-12.12,12.57-19.96,12.57
				c-9.17,0-15.13-6.06-15.13-14.9c0-13,3.11-24.79,3.11-29.66c0-3.93-3.93-4.33-3.93-7.99c0-2.71,2.3-5.01,5.28-5.01
				c5.01,0,9.62,4.47,9.62,10.3c0,9.34-3.25,21.53-3.25,29.26c0,5.96,2.17,8.12,5.82,8.12c6.03,0,14.98-5.96,17.51-26.6
				c0.4-4.95,1.02-9.85,1.59-14.3c0.41-3.25,2.98-4.74,5.55-4.74c2.71,0,5.42,2.03,5.01,5.83c-0.54,5.15-2.17,16.12-2.17,25.19
				c0,12.59,2.03,14.63,4.2,14.63C669.05,913.28,675.41,899.2,679.2,888.77L679.2,888.77z"/>
			<path class="st1" d="M739.06,888.77c0.89-2.57,2.54-3.59,4.17-3.59c2.32,0,4.59,2.06,4.59,4.65c0,0.58-0.12,1.18-0.36,1.79
				c-5.33,12.89-13.27,27.94-25.79,36.73l-0.21,2.68c-1.49,16.25-9.76,26.55-20.18,26.55c-7.86,0-12.46-5.42-12.46-11.78
				c0-11.43,11.69-15.68,22.72-22.67c0.21-2.91,0.38-6.16,0.5-9.8c-5.46,6.03-11.16,8.49-16.44,8.49c-10.29,0-18.69-8.4-18.69-21.26
				c0-19.78,13-32.78,27.5-32.78h0.13c9.89,0,20.45,5.28,20.45,14.76c0,3.04-1.28,20.04-2.31,33.18
				C729.99,908.73,736.03,897.44,739.06,888.77L739.06,888.77z M713.19,893.51c0.58-3.37,0.95-6.26,0.87-9.85
				c-0.81-3.58-3.87-5.86-8.32-5.86c-9.21,0-18.01,8.8-18.01,22.21c0,8.13,3.79,11.92,9.48,11.92
				C702.22,911.93,709,908.82,713.19,893.51z M710.38,933.71c-5.92,3.49-11.4,7.07-11.4,11.13c0,1.76,1.36,2.84,3.39,2.84
				C705.32,947.69,708.45,945.88,710.38,933.71z"/>
			<path class="st1" d="M798.92,888.77c0.89-2.57,2.54-3.59,4.17-3.59c2.32,0,4.59,2.06,4.59,4.65c0,0.58-0.12,1.18-0.36,1.79
				c-5.33,12.89-13.27,27.94-25.79,36.73l-0.21,2.68c-1.49,16.25-9.75,26.55-20.18,26.55c-7.86,0-12.46-5.42-12.46-11.78
				c0-11.43,11.69-15.68,22.71-22.67c0.21-2.91,0.38-6.16,0.5-9.8c-5.46,6.03-11.16,8.49-16.44,8.49c-10.3,0-18.69-8.4-18.69-21.26
				c0-19.78,13-32.78,27.5-32.78h0.13c9.89,0,20.46,5.28,20.46,14.76c0,3.04-1.29,20.04-2.31,33.18
				C789.84,908.73,795.88,897.44,798.92,888.77L798.92,888.77z M773.05,893.51c0.58-3.37,0.95-6.26,0.87-9.85
				c-0.81-3.58-3.86-5.86-8.32-5.86c-9.21,0-18.01,8.8-18.01,22.21c0,8.13,3.79,11.92,9.48,11.92
				C762.08,911.93,768.85,908.82,773.05,893.51z M770.23,933.71c-5.92,3.49-11.4,7.07-11.4,11.13c0,1.76,1.36,2.84,3.39,2.84
				C765.18,947.69,768.3,945.88,770.23,933.71z"/>
			<path class="st1" d="M848.89,888.76c1.02-2.54,2.76-3.57,4.42-3.57c2.24,0,4.35,1.88,4.35,4.48c0,0.61-0.12,1.26-0.37,1.94
				c-8.4,22.08-19.5,32.37-34.27,32.37c-14.76,0-24.92-10.16-24.92-26.82c0-18.28,11.51-29.8,25.19-29.8
				c10.43,0,17.34,6.91,17.34,16.26c0,9.62-8.4,18.01-19.91,18.01c-4.26,0-7.98-0.8-11.72-2.47c0.64,9.92,6.2,14.93,15.1,14.93
				C837.92,914.09,845.37,897.7,848.89,888.76L848.89,888.76z M809.7,890.36c3.35,1.46,7.38,2.2,10.74,2.2
				c5.83,0,9.62-3.79,9.62-8.53c0-4.2-2.57-6.77-6.5-6.77C817.46,877.25,811.72,881.98,809.7,890.36z"/>
			<path class="st1" d="M905.16,885.13c2.25,0,4.36,1.92,4.36,4.54c0,0.61-0.12,1.26-0.37,1.94c-7.58,20.05-15.31,31.97-28.58,31.97
				c-10.02,0-17.2-7.18-17.2-17.34c0-8.53,4.04-18.4,7.86-27.08c-3.11-0.37-5.96-1.31-8.54-2.46c-1.61,4.72-3.25,9.29-5.41,14.91
				c-0.93,2.38-2.71,3.37-4.42,3.37c-2.24,0-4.37-1.7-4.37-4.24c0-0.61,0.12-1.27,0.4-1.97c2.3-5.83,4.2-11.38,5.55-16.66
				c-1.49-1.08-2.03-2.98-2.03-4.74c0-2.84,1.76-5.82,5.01-5.82c2.43,0,3.52,1.08,4.6,2.57c1.76,2.43,4.61,5.96,11.24,5.96
				c2.98,0,4.47-1.08,6.23-1.08c2.71,0,4.74,2.03,4.74,5.01c0,1.36-0.54,3.25-1.49,5.55c-2.98,7.18-8.53,18.15-8.53,26.14
				c0,5.01,2.98,7.99,7.58,7.99c8.26,0,15.31-15.58,18.96-24.92C901.77,886.18,903.5,885.13,905.16,885.13z"/>
		</g>
	</g>

</g>
</svg>
