<?xml version="1.0" encoding="utf-8"?>
<!-- Generator: Adobe Illustrator 17.1.0, SVG Export Plug-In . SVG Version: 6.00 Build 0)  -->
<!DOCTYPE svg PUBLIC "-//W3C//DTD SVG 1.1//EN" "http://www.w3.org/Graphics/SVG/1.1/DTD/svg11.dtd">
<svg version="1.1" id="Layer_1" xmlns="http://www.w3.org/2000/svg" xmlns:xlink="http://www.w3.org/1999/xlink" x="0px" y="0px"
	 viewBox="494 62 483 429" enable-background="new 494 62 483 429" xml:space="preserve">
<g>
	<rect x="392.9" y="-10.6" fill="#31394D" width="683.2" height="683.2"/>
	<g>
		<g>
			<g>
				<g>
					<g>
						<path fill="#FFFFFF" d="M916.1,191.5H673.8c-3.4,0-6.2-2.8-6.2-6.2v-63.1c0-4.4-0.5-8.9-1.7-13.2
							c-3.7-13.1-15.3-35.7-50.1-35.7c-33.6,0-45.5,21-49.7,34c-1.6,4.9-2.2,9.9-2.2,15l0.4,68.9l-0.5,241c0,0,0.9,45.9,51.9,45.9
							s51.9-45.9,51.9-45.9V301.9c0-2.9,2.3-5.2,5.2-5.2h204.1c4.5,0,6.8-5.2,3.9-8.7c-8.5-10-13.8-23.4-13.8-38.1
							c0-31.2,23.7-40.9,52.8-40.9l0,0h0.1c0.5,0,0.9,0,1.3,0v-12.4C921.3,193.8,919,191.5,916.1,191.5L916.1,191.5z"/>
						<path fill="#31394D" d="M615.6,484.5c-56.7,0-58.3-51.7-58.3-52.2l0.4-241.1l-0.2-68.9c0-6,0.9-11.7,2.6-17
							c4.6-14.4,17.9-38.6,55.8-38.6c40.4,0,52.8,28.3,56.4,40.4c1.3,4.6,2,9.6,2,14.9v63.1l242.2-0.2c6.5,0,11.7,5.2,11.7,11.7
							v18.9l-7.8-0.1c-46.6,0-46.6,25.9-46.6,34.4c0,12.6,4.4,24.6,12.2,33.9c3.1,3.5,3.7,8.4,1.7,12.6c-2,4.1-6,6.7-10.6,6.7H673.9
							v129.1C673.9,432.8,672.3,484.5,615.6,484.5z M615.6,79.6c-28.2,0-39.2,16.1-43.6,29.6c-1.3,4-2,8.4-2,13.1l0.4,68.9
							L570,432.3c0,1.5,1.5,39.5,45.4,39.5s45.4-37.9,45.4-39.7V301.9c0-6.5,5.2-11.7,11.7-11.7h201.6
							c-8.9-11.3-13.8-25.5-13.8-40.4c0-20.9,9.6-45.5,54.3-47.2v-4.9H673.8c-7,0-12.7-5.7-12.7-12.7v-63.1c0-4.1-0.5-7.9-1.5-11.3
							C655.5,96.4,644.6,79.6,615.6,79.6z"/>
					</g>
				</g>
				<g>
					<path fill="#FFFFFF" d="M812.5,233.2c3.4,0,6.2-2.8,6.2-6.2V123.6c0,0-2.1-50.5,51.2-50.5s51.2,50.5,51.2,50.5v109.6v199.6
						c0,0-1.5,45.3-51.2,45.3s-51.2-45.3-51.2-45.3v-87.6c0-4.1-3.4-7.6-7.7-7.6H558.5c0,0-40.1,2.4-50.5-50.9
						c-1-4.9-1.3-9.8-1.3-14.6v-2c0,0-4.3-79.8,49.9-76.1c4,0.2,7.4,3.8,7.4,7.8v23.8c0,4.1,3.4,7.6,7.7,7.6H812.5z"/>
					<path fill="#31394D" d="M870.1,484.5c-55.4,0-57.7-51-57.7-51.5v-87.7c0-0.6-0.5-1.2-1.2-1.2H558.6c-0.1,0-11.6,0.6-24.4-6.2
						c-11.6-6.2-26.6-19.9-32.3-49.9c-1-4.9-1.5-10.1-1.5-15.9v-2c-0.1-1.6-2.2-47.3,21-70.2c9.4-9.2,21.4-13.4,35.7-12.4
						c7.6,0.5,13.4,6.7,13.4,14.3v23.8c0,0.6,0.5,1.2,1.2,1.2h240.6V123.6c0-0.7-0.9-24.4,15.3-41.1C837.7,72,852,66.7,870.1,66.7
						s32.3,5.4,42.5,15.9c16.1,16.7,15.4,40.4,15.3,41.4v109.2v199.6C927.8,433.5,925.4,484.5,870.1,484.5z M811.1,331.3
						c7.8,0,14.2,6.3,14.2,14v87.6c0,1.3,2.1,38.9,44.8,38.9c42.8,0,44.8-37.5,44.9-39.2V233.3V123.8c0-0.5,0.5-19.5-11.8-32.3
						c-7.6-7.8-18.7-11.8-33.1-11.8c-14.3,0-25.5,4-33.1,11.8c-12.3,12.7-11.8,31.8-11.8,32.1v103.6c0,7-5.7,12.7-12.7,12.7H571.6
						c-7.8,0-14.2-6.3-14.2-14V202c0-0.7-0.7-1.3-1.5-1.5c-10.6-0.7-19.2,2.2-25.9,8.8c-19,18.7-17.2,60.3-17.1,60.6v2.3
						c0,5,0.4,9.4,1.2,13.4c9,46.7,42.3,45.8,43.8,45.8L811.1,331.3z"/>
				</g>
				<g>
					<path fill="#FFFFFF" d="M962.9,249.9c0,31.2-13.8,56.5-42.9,56.5c-29.2,0-52.8-25.3-52.8-56.5s23.8-40.9,52.9-40.9
						c0.5,0,0.6-1.6,0.6-1.6l0.6-14c0.1-1.2,1.1-2.1,2.3-2.1c26.4,0.9,38.7,23.8,39.3,52.6L962.9,249.9L962.9,249.9z"/>
					<path fill="#31394D" d="M920,312.9c-32.7,0-59.3-28.2-59.3-63c0-20.7,9.5-45.3,53.8-47.2l0.4-9.5c0.2-4.8,4.3-8.4,8.9-8.3
						c27.7,1,44.7,22.9,45.5,58.8v6C969.4,288.1,950,312.9,920,312.9z M927.5,198.2l-0.5,10c-0.6,5.4-4.1,7.2-7.1,7.2
						c-46.6,0-46.6,25.9-46.6,34.4c0,27.6,20.9,50.1,46.4,50.1c33.9,0,36.5-38.3,36.5-50.1v-5.9C956.1,231.3,952.5,202,927.5,198.2z
						"/>
				</g>
			</g>
		</g>
		<g>
			<path fill="#FFFFFF" d="M540,551.8c0.6-1.6,1.7-2.3,2.8-2.3c1.5,0,2.8,1.2,2.8,2.9c0,0.4-0.1,0.9-0.2,1.2
				c-4.8,12.4-9.4,20.3-16.5,20.3c-4.5,0-8.1-3.5-8.1-8.4c0-5.6,4-14.3,4-18.5c0-2.2-1.1-3.3-2.9-3.3c-4.1,0-12.4,7-12.8,19.4
				c0.1,2.2,0.4,4.5,0.4,6.8c0,2.7-1.2,4.1-3.4,4.1c-2.1,0-3.3-1.6-3.4-4.3c-0.4-6.2-0.5-12.7-0.5-18.9c0-6,0.4-11.1,1-15.5
				c-0.2,0-0.5-0.1-0.7-0.1c-1.8-0.5-2.7-1.8-2.7-3.2s1.1-2.7,2.9-2.7c0.4,0,1,0.1,1.7,0.2c3.2-12.7,9.5-17,15.9-17
				c6.5,0,10.2,4.1,10.2,9.6c0,7.2-6.7,13.8-20.1,13.8c-0.1,0-0.2,0-0.4,0c-0.5,3.2-0.7,7-1,11.3c3.5-6.2,8.8-9.9,14.3-9.9
				c4.9,0,8.2,3.3,8.2,8.7c0,6.5-4,15.4-4,19.3c0,1.3,1,2.3,2.3,2.3C533.4,567.6,537.8,557.5,540,551.8L540,551.8z M511,530.2h0.1
				c6.6,0,12.7-2.9,12.7-7.9c0-2.1-1.3-3.7-3.7-3.7C516.9,518.7,513.2,521,511,530.2z"/>
			<path fill="#FFFFFF" d="M578.8,551.8c0.6-1.6,1.7-2.3,2.8-2.3c1.5,0,2.8,1.1,2.8,2.8c0,0.4-0.1,0.9-0.2,1.2
				c-3.7,10.2-8.3,20-15.1,20c-3.4,0-6.3-2.1-7.8-7.9c-3.4,5.4-7.7,7.9-12.6,7.9c-5.9,0-9.6-3.8-9.6-9.4c0-8.2,2-15.7,2-18.8
				c0-2.4-2.4-2.7-2.4-5c0-1.7,1.5-3.2,3.3-3.2c3.2,0,6.1,2.8,6.1,6.5c0,5.9-2.1,13.7-2.1,18.5c0,3.8,1.3,5.1,3.7,5.1
				c3.8,0,9.5-3.8,11.1-16.8c0.2-3.2,0.6-6.2,1-9c0.2-2.1,1.8-3.1,3.5-3.1s3.4,1.3,3.2,3.7c-0.4,3.3-1.3,10.2-1.3,16
				c0,7.9,1.3,9.3,2.7,9.3C572.4,567.3,576.4,558.3,578.8,551.8L578.8,551.8z"/>
			<path fill="#FFFFFF" d="M616.8,551.8c0.6-1.6,1.6-2.3,2.7-2.3c1.5,0,2.9,1.3,2.9,2.9c0,0.4-0.1,0.7-0.2,1.1
				c-5,12.8-8.8,20-15.5,20c-5,0-8.3-3.3-8.3-10c0-6.2,1.3-11.3,1.3-14.8c0-2.7-1-3.7-3.3-3.7c-3.9,0-10.7,5.7-11,18.9
				c0,2,0,4,0,6.3c0,2.4-1.2,3.7-3.3,3.7c-2.4,0-3.7-1.2-3.7-3.7c0-11.3,0.4-22,1.3-28.9c0.2-1.8,1.5-3.1,3.7-3.1s3.2,1.3,3.2,3.2
				c0,0.2,0,0.5-0.1,0.9c-0.2,1.3-0.4,2.6-0.5,3.8c3.2-4.9,7.2-7.3,11.5-7.3c5.4,0,8.8,3.4,8.8,8.1c0,5-1.3,10.9-1.3,16.1
				c0,3.3,1,4.3,2.2,4.3C610.4,567.4,614.7,557,616.8,551.8L616.8,551.8z"/>
			<path fill="#FFFFFF" d="M654.6,551.8c0.6-1.6,1.6-2.3,2.7-2.3c1.5,0,2.9,1.3,2.9,2.9c0,0.4-0.1,0.7-0.2,1.1
				c-3.4,8.2-8.4,17.7-16.3,23.2l-0.1,1.7c-1,10.2-6.2,16.8-12.8,16.8c-5,0-7.9-3.4-7.9-7.4c0-7.2,7.4-9.9,14.4-14.4
				c0.1-1.8,0.2-3.9,0.4-6.2c-3.4,3.8-7.1,5.4-10.4,5.4c-6.5,0-11.8-5.4-11.8-13.4c0-12.6,8.2-20.7,17.4-20.7h0.1
				c6.2,0,12.9,3.3,12.9,9.4c0,2-0.9,12.7-1.5,21C648.9,564.3,652.6,557.2,654.6,551.8L654.6,551.8z M638.2,554.7
				c0.4-2.1,0.6-3.9,0.6-6.2c-0.5-2.3-2.4-3.7-5.2-3.7c-5.9,0-11.3,5.6-11.3,14c0,5.1,2.4,7.6,6,7.6
				C631.3,566.4,635.6,564.4,638.2,554.7z M631.4,589c1.8,0,3.9-1.1,5.1-8.8c-3.8,2.2-7.2,4.5-7.2,7.1
				C629.2,588.4,630.1,589,631.4,589L631.4,589z"/>
			<path fill="#FFFFFF" d="M690.2,549.4c1.5,0,2.8,1.2,2.8,2.9c0,0.4-0.1,0.9-0.2,1.2c-4.8,12.7-9.6,20.3-18.1,20.3
				c-6.3,0-10.9-4.5-10.9-11c0-5.4,2.6-11.6,5-17.1c-2-0.2-3.8-0.9-5.4-1.6c-1,2.9-2.1,5.9-3.4,9.4c-0.6,1.5-1.7,2.1-2.8,2.1
				c-1.5,0-2.8-1.1-2.8-2.7c0-0.4,0.1-0.9,0.2-1.2c1.5-3.7,2.7-7.2,3.5-10.5c-1-0.7-1.3-1.8-1.3-3.1c0-1.8,1.1-3.7,3.2-3.7
				c1.6,0,2.2,0.7,2.9,1.6c1.1,1.6,2.9,3.8,7.1,3.8c1.8,0,2.8-0.7,3.9-0.7c1.7,0,3.1,1.3,3.1,3.2c0,0.9-0.4,2.1-1,3.5
				c-1.8,4.5-5.4,11.5-5.4,16.6c0,3.2,1.8,5,4.8,5c5.2,0,9.6-9.9,12-15.7C688,550,689.1,549.4,690.2,549.4z"/>
			<path fill="#FFFFFF" d="M724.6,551.8c0.7-1.6,1.7-2.2,2.7-2.2c1.5,0,2.8,1.3,2.8,2.9c0,0.4-0.1,0.7-0.2,1.1
				c-3.8,9.4-8.4,17.8-16.6,23.3c0,0.5-0.1,1-0.1,1.5c-0.6,5.9-2.8,16.8-12.7,16.8c-5.1,0-8.5-3.3-8.5-7.3c0-5.4,5.6-9.3,14.6-14
				c0.1-2,0.4-4.1,0.5-6.6c-3.3,4.1-7.4,6.3-12,6.3c-5.1,0-8.9-3.8-8.9-9.4c0-8.1,2.1-15.4,2.1-18.9c0-2.4-2.4-2.7-2.4-5
				c0-1.7,1.5-3.2,3.3-3.2c3.2,0,6.1,2.8,6.1,6.5c0,5.9-2.2,13.7-2.2,18.5c0,3.9,1.3,5.1,3.8,5.1c3.8,0,9.6-3.4,11.6-16.8
				c0.2-3.2,0.5-6.2,0.7-8.9c0.1-2.1,1.8-3.2,3.4-3.2c1.8,0,3.7,1.3,3.4,3.8c-0.6,8.3-1.3,17.4-1.8,24.9c0,0.6-0.1,1.2-0.1,1.7
				C719.3,563.6,722.6,556.8,724.6,551.8L724.6,551.8z M706.1,580.3c-4.6,2.7-7.3,4.8-7.3,6.7c0,1.1,0.7,1.8,2.2,1.8
				C703.6,589,705.4,586.4,706.1,580.3z"/>
			<path fill="#FFFFFF" d="M783.9,551.8c0.6-1.6,1.7-2.3,2.8-2.3c1.5,0,2.8,1.2,2.8,2.9c0,0.4-0.1,0.9-0.2,1.2
				c-4.8,12.4-9.4,20.3-16.5,20.3c-4.5,0-8.1-3.5-8.1-8.4c0-5.6,4-14.3,4-18.5c0-2.2-1.1-3.3-2.9-3.3c-4.1,0-12.4,7-12.8,19.4
				c0.1,2.2,0.4,4.5,0.4,6.8c0,2.7-1.2,4.1-3.4,4.1c-2.1,0-3.3-1.6-3.4-4.3c-0.4-6.2-0.5-12.7-0.5-18.9c0-6,0.4-11.1,1-15.5
				c-0.2,0-0.5-0.1-0.7-0.1c-1.8-0.5-2.7-1.8-2.7-3.2s1.1-2.7,2.9-2.7c0.4,0,1,0.1,1.7,0.2c3.2-12.7,9.5-17,15.9-17
				c6.5,0,10.2,4.1,10.2,9.6c0,7.2-6.7,13.8-20.1,13.8c-0.1,0-0.2,0-0.4,0c-0.5,3.2-0.7,7-1,11.3c3.5-6.2,8.8-9.9,14.3-9.9
				c4.9,0,8.2,3.3,8.2,8.7c0,6.5-4,15.4-4,19.3c0,1.3,1,2.3,2.3,2.3C777.3,567.6,781.6,557.5,783.9,551.8L783.9,551.8z M754.9,530.2
				h0.1c6.6,0,12.7-2.9,12.7-7.9c0-2.1-1.3-3.7-3.7-3.7C760.6,518.7,757.1,521,754.9,530.2z"/>
			<path fill="#FFFFFF" d="M822.6,551.8c0.6-1.6,1.7-2.3,2.8-2.3c1.5,0,2.8,1.1,2.8,2.8c0,0.4-0.1,0.9-0.2,1.2
				c-3.7,10.2-8.3,20-15.1,20c-3.4,0-6.3-2.1-7.8-7.9c-3.4,5.4-7.7,7.9-12.6,7.9c-5.9,0-9.6-3.8-9.6-9.4c0-8.2,2-15.7,2-18.8
				c0-2.4-2.4-2.7-2.4-5c0-1.7,1.5-3.2,3.3-3.2c3.2,0,6.1,2.8,6.1,6.5c0,5.9-2.1,13.7-2.1,18.5c0,3.8,1.3,5.1,3.7,5.1
				c3.8,0,9.5-3.8,11.1-16.8c0.2-3.2,0.6-6.2,1-9c0.2-2.1,1.8-3.1,3.5-3.1c1.7,0,3.4,1.3,3.2,3.7c-0.4,3.3-1.3,10.2-1.3,16
				c0,7.9,1.3,9.3,2.7,9.3C816.1,567.3,820.2,558.3,822.6,551.8L822.6,551.8z"/>
			<path fill="#FFFFFF" d="M860.4,551.8c0.6-1.6,1.6-2.3,2.7-2.3c1.5,0,2.9,1.3,2.9,2.9c0,0.4-0.1,0.7-0.2,1.1
				c-3.4,8.2-8.4,17.7-16.3,23.2l-0.1,1.7c-1,10.2-6.2,16.8-12.8,16.8c-5,0-7.9-3.4-7.9-7.4c0-7.2,7.4-9.9,14.4-14.4
				c0.1-1.8,0.2-3.9,0.4-6.2c-3.4,3.8-7.1,5.4-10.4,5.4c-6.5,0-11.8-5.4-11.8-13.4c0-12.6,8.2-20.7,17.4-20.7h0.1
				c6.2,0,12.9,3.3,12.9,9.4c0,2-0.9,12.7-1.5,21C854.7,564.3,858.6,557.2,860.4,551.8L860.4,551.8z M844.1,554.7
				c0.4-2.1,0.6-3.9,0.6-6.2c-0.5-2.3-2.4-3.7-5.2-3.7c-5.9,0-11.3,5.6-11.3,14c0,5.1,2.4,7.6,6,7.6
				C837.1,566.4,841.4,564.4,844.1,554.7z M842.4,580.2c-3.8,2.2-7.2,4.5-7.2,7.1c0,1.1,0.9,1.8,2.2,1.8
				C839.1,589,841.1,587.9,842.4,580.2z"/>
			<path fill="#FFFFFF" d="M898.4,551.8c0.6-1.6,1.6-2.3,2.7-2.3c1.5,0,2.9,1.3,2.9,2.9c0,0.4-0.1,0.7-0.2,1.1
				c-3.4,8.2-8.4,17.7-16.3,23.2l-0.1,1.7c-1,10.2-6.2,16.8-12.8,16.8c-5,0-7.9-3.4-7.9-7.4c0-7.2,7.4-9.9,14.4-14.4
				c0.1-1.8,0.2-3.9,0.4-6.2c-3.4,3.8-7.1,5.4-10.4,5.4c-6.5,0-11.8-5.4-11.8-13.4c0-12.6,8.2-20.7,17.4-20.7h0.1
				c6.2,0,12.9,3.3,12.9,9.4c0,2-0.9,12.7-1.5,21C892.6,564.3,896.4,557.2,898.4,551.8L898.4,551.8z M882,554.7
				c0.4-2.1,0.6-3.9,0.6-6.2c-0.5-2.3-2.4-3.7-5.2-3.7c-5.9,0-11.3,5.6-11.3,14c0,5.1,2.4,7.6,6,7.6
				C875.1,566.4,879.3,564.4,882,554.7z M875.1,589c1.8,0,3.9-1.1,5.1-8.8c-3.8,2.2-7.2,4.5-7.2,7.1C873,588.4,873.8,589,875.1,589
				L875.1,589z"/>
			<path fill="#FFFFFF" d="M930,551.8c0.6-1.6,1.7-2.3,2.8-2.3c1.5,0,2.8,1.2,2.8,2.8c0,0.4-0.1,0.9-0.2,1.2
				C930,567.4,923,574,913.6,574s-15.7-6.5-15.7-17c0-11.6,7.3-18.9,16-18.9c6.6,0,11,4.4,11,10.2c0,6.1-5.4,11.3-12.6,11.3
				c-2.7,0-5-0.5-7.4-1.6c0.4,6.2,3.9,9.4,9.5,9.4C923,567.7,927.8,557.4,930,551.8L930,551.8z M905.2,552.7c2.1,1,4.6,1.3,6.8,1.3
				c3.7,0,6.1-2.4,6.1-5.4c0-2.7-1.6-4.3-4.1-4.3C910.1,544.4,906.4,547.5,905.2,552.7z"/>
			<path fill="#FFFFFF" d="M965.6,549.4c1.5,0,2.8,1.2,2.8,2.9c0,0.4-0.1,0.9-0.2,1.2c-4.8,12.7-9.6,20.3-18.1,20.3
				c-6.3,0-10.9-4.5-10.9-11c0-5.4,2.6-11.6,5-17.1c-2-0.2-3.8-0.9-5.4-1.6c-1,2.9-2.1,5.9-3.4,9.4c-0.6,1.5-1.7,2.1-2.8,2.1
				c-1.5,0-2.8-1.1-2.8-2.7c0-0.4,0.1-0.9,0.2-1.2c1.5-3.7,2.7-7.2,3.5-10.5c-1-0.7-1.3-1.8-1.3-3.1c0-1.8,1.1-3.7,3.2-3.7
				c1.6,0,2.2,0.7,2.9,1.6c1.1,1.6,2.9,3.8,7.1,3.8c1.8,0,2.8-0.7,3.9-0.7c1.7,0,3.1,1.3,3.1,3.2c0,0.9-0.4,2.1-1,3.5
				c-1.8,4.5-5.4,11.5-5.4,16.6c0,3.2,1.8,5,4.8,5c5.2,0,9.6-9.9,12-15.7C963.4,550,964.5,549.4,965.6,549.4z"/>
		</g>
	</g>
</g>
</svg>
