<svg width="210" height="56" viewBox="50 8 170 45" fill="none" xmlns="http://www.w3.org/2000/svg">
<path fill-rule="evenodd" clip-rule="evenodd" d="M69.5842 24.2882L69.5739 24.3156C68.8303 26.35 67.3861 29.9293 66.1922 29.914C65.7418 29.914 65.4272 29.5775 65.4272 29.0957C65.4272 28.5039 65.6785 27.5724 65.9626 26.5194C66.332 25.15 66.757 23.5749 66.757 22.2736C66.757 20.3998 65.6488 19.2144 64.0331 19.2144C62.21 19.2144 60.5012 20.4686 59.3144 22.6942C59.3716 21.134 59.4717 19.8033 59.6219 18.6713H59.7291C64.1546 18.6713 66.3924 16.3387 66.3924 13.7919C66.3924 11.8798 65.1126 10.3961 62.9892 10.3961C60.8873 10.3961 58.814 11.8875 57.7559 16.3846L57.6448 16.3605C57.4496 16.318 57.2988 16.2851 57.1839 16.2851C56.5905 16.2851 56.2188 16.7746 56.2188 17.2564C56.2188 17.7153 56.5047 18.1972 57.1267 18.3807C57.1698 18.3933 57.215 18.4036 57.2612 18.414L57.2613 18.4141C57.2994 18.4227 57.3382 18.4315 57.377 18.4419C57.1625 19.9868 57.0409 21.8071 57.0409 23.9256C57.0409 26.1359 57.0695 28.415 57.1839 30.6253C57.234 31.5966 57.6129 32.1396 58.3135 32.1396C59.0356 32.1396 59.4503 31.6348 59.4503 30.6941C59.4503 30.1882 59.4181 29.6909 59.3866 29.2039C59.3666 28.8959 59.347 28.5919 59.3359 28.2926C59.4717 23.8873 62.2243 21.4399 63.5826 21.4399C64.176 21.4399 64.5478 21.8376 64.5478 22.6254C64.5478 23.3145 64.261 24.35 63.9538 25.4591C63.5995 26.7382 63.218 28.1153 63.218 29.1721C63.218 30.9006 64.3834 32.1473 65.8848 32.1473C67.2406 32.1473 68.3232 31.2198 69.2956 29.5918C69.6183 31.0706 70.7543 32.025 72.3692 32.025C74.0064 32.025 75.4149 31.092 76.5445 29.2105C77.0092 31.3061 77.9958 32.025 79.1183 32.025C80.3739 32.025 81.4027 30.9706 82.2771 29.4183C82.2733 29.9116 82.2715 30.4115 82.2715 30.916C82.2715 31.7649 82.6719 32.1932 83.4655 32.1932C84.1447 32.1932 84.545 31.7649 84.545 30.916V28.6827C84.6237 24.0174 86.8829 21.9754 88.1698 21.9754C88.9348 21.9754 89.2493 22.3119 89.2493 23.2526C89.2493 23.7894 89.1658 24.4326 89.0707 25.165C88.945 26.1335 88.7989 27.2581 88.7989 28.4992C88.7989 30.8625 89.9071 32.0479 91.5515 32.0479C92.9198 32.0479 93.9284 31.0771 94.8869 29.2633C95.5404 30.7993 96.8527 31.7188 98.3572 31.7188C99.4582 31.7188 100.652 31.1682 101.796 29.8221C101.767 30.6405 101.732 31.367 101.689 32.0171C101.271 32.2993 100.849 32.5618 100.438 32.8175C98.575 33.9755 96.9345 34.9954 96.9345 37.0878C96.9345 38.5103 97.8996 39.7264 99.544 39.7264C101.732 39.7264 103.455 37.4243 103.769 33.7838L103.812 33.1796C106.365 31.2672 108.004 28.0224 109.118 25.1926C109.158 25.1223 109.194 25.0443 109.225 24.9582C109.675 23.7039 110.018 22.6791 110.354 21.6236C110.898 21.8837 111.491 22.0902 112.142 22.1743C111.341 24.1246 110.497 26.3272 110.497 28.2392C110.497 30.5107 111.999 32.1168 114.093 32.1168C115.717 32.1168 116.944 31.2023 118.001 29.5436C118.305 31.0586 119.419 32.0171 120.863 32.0171C122.393 32.0171 123.73 31.2447 124.831 29.7839C124.794 30.2814 124.761 30.7582 124.731 31.2055C124.709 31.5283 124.688 31.8357 124.667 32.1242C121.707 33.8144 119.841 35.214 119.841 37.1108C119.841 38.5027 120.942 39.6882 122.644 39.6882C125.904 39.6882 126.64 35.78 126.84 33.715C126.855 33.5544 126.869 33.3862 126.883 33.2026C129.586 31.2447 131.13 28.2925 132.367 24.9503C132.417 24.8127 132.438 24.6826 132.438 24.5526C132.438 23.9867 131.995 23.5201 131.516 23.5201C131.18 23.5201 130.837 23.7496 130.608 24.3002C129.922 26.0593 128.835 28.499 127.083 30.3422C127.098 30.1434 127.112 29.9369 127.126 29.7304C127.221 28.2773 127.339 26.6411 127.46 24.9723L127.46 24.9695C127.558 23.6088 127.658 22.2266 127.748 20.9045C127.813 20.025 127.212 19.5737 126.619 19.5737C126.075 19.5737 125.539 19.9714 125.482 20.698L125.453 21.0976C125.389 21.9655 125.321 22.8967 125.253 23.8566C124.61 28.5755 122.665 29.7992 121.428 29.7992C120.606 29.7992 120.184 29.3403 120.184 27.979C120.184 27.1563 120.345 26.1085 120.513 25.0103L120.513 25.0101L120.513 25.0099L120.513 25.0098C120.698 23.8006 120.892 22.5303 120.892 21.4322C120.892 20.132 119.927 19.1301 118.876 19.1301C118.254 19.1301 117.775 19.6502 117.775 20.2544C117.775 20.6562 117.973 20.8755 118.175 21.0987C118.384 21.3301 118.597 21.5658 118.597 22.0135C118.597 22.5055 118.49 23.2087 118.361 24.0565L118.361 24.0565L118.361 24.0569L118.361 24.0569L118.311 24.3829C117.54 26.4769 116.079 29.8989 114.365 29.8989C113.4 29.8989 112.778 29.2335 112.778 28.1092C112.778 26.6416 113.562 24.7265 114.187 23.199C114.324 22.8639 114.453 22.5474 114.565 22.2584C114.765 21.7384 114.88 21.3177 114.88 21.0118C114.88 20.3388 114.451 19.8875 113.886 19.8875C113.728 19.8875 113.579 19.9335 113.411 19.9857C113.191 20.0538 112.937 20.1323 112.585 20.1323C111.198 20.1323 110.605 19.3445 110.233 18.8015C110.004 18.4726 109.775 18.2279 109.268 18.2279C108.588 18.2279 108.217 18.8933 108.217 19.5281C108.217 19.9258 108.324 20.3464 108.638 20.5911C108.373 21.69 108.01 22.8414 107.577 24.0393C107.533 24.1226 107.493 24.217 107.458 24.3231C106.822 26.2581 105.557 28.7896 104.027 30.3575C104.241 27.413 104.513 23.6119 104.513 22.9312C104.513 20.8127 102.297 19.6272 100.23 19.6272H100.202C97.5883 19.6272 95.2034 21.7874 94.5955 25.2206C93.8576 27.1552 92.7112 29.8343 91.7945 29.8147C91.4013 29.8147 91.0581 29.4552 91.0581 28.3003C91.0581 27.3672 91.1726 26.3815 91.2862 25.4041L91.2862 25.4041C91.3978 24.4429 91.5086 23.4898 91.5086 22.6025C91.5086 20.9658 90.379 19.7498 88.5916 19.7498C87.176 19.7498 85.8534 20.6217 84.7953 22.3425C84.8453 21.9065 84.9025 21.463 84.9668 20.9964C84.9811 20.9047 84.9883 20.8052 84.9883 20.7134C84.9883 20.071 84.638 19.6045 83.9159 19.6045C83.1723 19.6045 82.7791 20.0022 82.6933 20.6676C82.5688 21.6744 82.4759 22.8858 82.4095 24.2388C82.3987 24.2661 82.3883 24.2943 82.3784 24.3234C81.5848 26.6561 80.255 29.8071 79.3256 29.7918C78.868 29.7918 78.4462 29.3406 78.4462 26.5184C78.4462 24.9119 78.6574 23.0362 78.8019 21.7523V21.7523L78.8019 21.7523C78.8397 21.4165 78.8729 21.1212 78.8966 20.8818C78.9824 20.0328 78.4105 19.5816 77.8457 19.5816C77.3023 19.5816 76.7661 19.9181 76.6803 20.6447L76.6532 20.8816C76.546 21.8179 76.4305 22.8271 76.3514 23.8492C75.8152 28.4687 73.9492 29.8071 72.6838 29.8071C71.9188 29.8071 71.4684 29.3176 71.4684 27.9869C71.4684 27.1642 71.6222 26.1163 71.7835 25.018L71.7835 25.018C71.9611 23.8087 72.1476 22.5383 72.1476 21.4401C72.1476 20.1399 71.1896 19.138 70.1386 19.138C69.5094 19.138 69.0304 19.6581 69.0304 20.2623C69.0304 20.6641 69.2286 20.8907 69.4304 21.1215C69.6396 21.3607 69.8526 21.6043 69.8526 22.0519C69.8526 22.4636 69.7591 23.0984 69.643 23.8867L69.643 23.8868L69.6427 23.8888L69.6425 23.8903C69.6236 24.0189 69.604 24.1517 69.5842 24.2882ZM60.0222 16.6752H59.9793C60.6943 13.463 61.8739 12.6141 62.9964 12.6064C63.7685 12.6064 64.2189 13.1571 64.2189 13.8836C64.2189 15.6427 62.2028 16.6752 60.0222 16.6752ZM102.232 23.1759C102.246 23.979 102.168 24.6214 102.046 25.3786C101.167 28.8049 99.7513 29.5085 98.7004 29.5009C97.5136 29.5009 96.72 28.652 96.72 26.8317C96.72 23.8337 98.5574 21.8605 100.488 21.8605C101.424 21.8605 102.061 22.3729 102.232 23.1759ZM99.065 36.8736C99.065 35.9635 100.216 35.1605 101.453 34.3804C101.053 37.1031 100.395 37.5084 99.7728 37.5084C99.351 37.5084 99.065 37.2713 99.065 36.8736ZM122.05 36.8125C122.05 36.1089 122.944 35.3594 124.488 34.4186C124.238 36.5677 123.666 37.4779 122.787 37.4779C122.308 37.4779 122.05 37.2102 122.05 36.8125ZM149.943 29.6003C150.268 31.0742 151.403 32.025 153.014 32.025C154.652 32.025 156.06 31.092 157.19 29.2105C157.654 31.3061 158.641 32.025 159.764 32.025C161.052 32.025 162.102 30.9141 162.991 29.2941C163.649 30.8115 164.954 31.7188 166.448 31.7188C167.549 31.7188 168.743 31.1682 169.887 29.8221C169.859 30.6405 169.823 31.367 169.78 32.0171C169.363 32.2991 168.941 32.5614 168.53 32.8169L168.529 32.8171L168.529 32.8173L168.529 32.8175C166.666 33.9755 165.026 34.9954 165.026 37.0878C165.026 38.5103 165.991 39.7264 167.635 39.7264C169.823 39.7264 171.546 37.4243 171.86 33.7838L171.903 33.1796C173.335 32.1069 174.48 30.6151 175.405 29.0124C176.018 30.6986 177.39 31.7188 178.974 31.7188C180.075 31.7188 181.269 31.1682 182.413 29.8221C182.385 30.6405 182.349 31.367 182.306 32.0171C181.888 32.2993 181.466 32.5618 181.055 32.8175C179.192 33.9755 177.552 34.9954 177.552 37.0878C177.552 38.5103 178.517 39.7264 180.161 39.7264C182.349 39.7264 184.072 37.4243 184.387 33.7838L184.429 33.1796C186.014 31.9929 187.246 30.2931 188.219 28.4979C188.919 30.8368 190.729 32.1933 193.116 32.1933C196.17 32.1933 198.475 29.9432 200.227 25.1177C200.251 25.068 200.273 25.0149 200.294 24.9582C200.744 23.7039 201.087 22.6791 201.423 21.6236C201.967 21.8837 202.56 22.0902 203.211 22.1743C202.41 24.1246 201.566 26.3272 201.566 28.2392C201.566 30.5107 203.075 32.1168 205.17 32.1168C207.944 32.1168 209.559 29.4476 211.147 24.9582C211.204 24.8052 211.225 24.6599 211.225 24.5223C211.225 23.9334 210.782 23.5051 210.31 23.5051C209.96 23.5051 209.602 23.7421 209.395 24.3234C208.63 26.4113 207.157 29.8989 205.427 29.8989C204.462 29.8989 203.84 29.2335 203.84 28.1092C203.84 26.6416 204.624 24.7265 205.249 23.1991C205.386 22.8639 205.515 22.5474 205.627 22.2584C205.827 21.7384 205.942 21.3177 205.942 21.0118C205.942 20.3388 205.513 19.8875 204.948 19.8875C204.79 19.8875 204.641 19.9335 204.473 19.9857C204.253 20.0538 203.999 20.1323 203.647 20.1323C202.26 20.1323 201.667 19.3445 201.295 18.8015C201.066 18.4726 200.837 18.2279 200.33 18.2279C199.65 18.2279 199.279 18.8933 199.279 19.5281C199.279 19.9258 199.393 20.3464 199.708 20.5911C199.434 21.7263 199.055 22.9175 198.603 24.1581C198.579 24.2075 198.556 24.2601 198.535 24.3158C197.799 26.3196 196.24 29.9907 193.338 29.983C191.479 29.983 190.313 28.8587 190.178 26.6408C190.964 27.0156 191.736 27.1915 192.63 27.1915C195.039 27.1915 196.798 25.31 196.798 23.1609C196.798 21.0654 195.354 19.5204 193.173 19.5204C190.797 19.5204 188.732 21.2999 188.101 24.2489C188.092 24.273 188.084 24.2977 188.076 24.3231C187.439 26.2581 186.181 28.7896 184.644 30.3575C184.858 27.413 185.13 23.6119 185.13 22.9312C185.13 20.8127 182.914 19.6272 180.848 19.6272H180.819C178.191 19.6272 175.793 21.8121 175.202 25.2795C174.508 27.0345 173.412 29.0375 172.118 30.3575C172.332 27.413 172.604 23.6119 172.604 22.9312C172.604 20.8127 170.388 19.6272 168.322 19.6272H168.293C165.646 19.6272 163.243 21.8329 162.668 25.329C161.875 27.4681 160.772 29.805 159.971 29.7918C159.513 29.7918 159.091 29.3406 159.091 26.5184C159.091 24.9119 159.303 23.0362 159.447 21.7523L159.447 21.7518L159.448 21.7459C159.485 21.4127 159.518 21.1197 159.542 20.8818C159.628 20.0328 159.056 19.5816 158.491 19.5816C157.955 19.5816 157.418 19.9181 157.333 20.6447L157.306 20.8821L157.305 20.8827L157.305 20.8832L157.305 20.8839L157.305 20.8845C157.198 21.82 157.083 22.8281 157.004 23.8492C156.475 28.4687 154.602 29.8071 153.343 29.8071C152.571 29.8071 152.121 29.3176 152.121 27.9869C152.121 27.1642 152.275 26.1163 152.436 25.018C152.613 23.8087 152.8 22.5383 152.8 21.4401C152.8 20.1399 151.835 19.138 150.784 19.138C150.155 19.138 149.676 19.6581 149.676 20.2623C149.676 20.6641 149.874 20.8907 150.076 21.1215C150.285 21.3607 150.498 21.6043 150.498 22.0519C150.498 22.4636 150.404 23.0983 150.288 23.8865L150.288 23.8867L150.263 24.0588L150.23 24.2875L150.219 24.3156C149.483 26.35 148.038 29.9293 146.844 29.914C146.394 29.914 146.079 29.5775 146.079 29.0957C146.079 28.5039 146.331 27.5724 146.615 26.5194C146.984 25.15 147.409 23.5749 147.409 22.2736C147.409 20.3998 146.301 19.2144 144.685 19.2144C142.862 19.2144 141.153 20.4686 139.967 22.6942C140.024 21.134 140.124 19.8033 140.274 18.6713H140.381C144.807 18.6713 147.045 16.3387 147.045 13.7919C147.045 11.8798 145.765 10.3961 143.641 10.3961C141.54 10.3961 139.466 11.8875 138.408 16.3846L138.297 16.3605C138.102 16.318 137.951 16.2851 137.836 16.2851C137.236 16.2851 136.871 16.7746 136.871 17.2564C136.871 17.7153 137.157 18.1972 137.779 18.3807C137.822 18.3933 137.867 18.4036 137.913 18.4141C137.952 18.4227 137.99 18.4315 138.029 18.4419C137.815 19.9868 137.693 21.8071 137.693 23.9256C137.693 26.1359 137.722 28.415 137.836 30.6253C137.886 31.5966 138.265 32.1396 138.966 32.1396C139.688 32.1396 140.103 31.6348 140.103 30.6941C140.103 30.1883 140.07 29.6912 140.039 29.2043V29.2043V29.2042L140.039 29.2038V29.2037V29.2035L140.039 29.2033C140.019 28.8955 139.999 28.5917 139.988 28.2926C140.124 23.8873 142.876 21.4399 144.235 21.4399C144.828 21.4399 145.2 21.8376 145.2 22.6254C145.2 23.3145 144.913 24.35 144.606 25.4591L144.606 25.4592C144.252 26.7383 143.87 28.1154 143.87 29.1721C143.87 30.9006 145.036 32.1473 146.537 32.1473C147.89 32.1473 148.972 31.223 149.943 29.6003ZM140.624 16.6752H140.667C142.848 16.6752 144.864 15.6427 144.864 13.8836C144.864 13.1571 144.414 12.6064 143.649 12.6064C142.526 12.6141 141.347 13.463 140.624 16.6752ZM170.137 25.3786C170.259 24.6214 170.338 23.979 170.323 23.1759C170.152 22.3729 169.515 21.8605 168.579 21.8605C166.649 21.8605 164.811 23.8337 164.811 26.8317C164.811 28.652 165.605 29.5009 166.799 29.5009C167.843 29.5085 169.258 28.8049 170.137 25.3786ZM169.551 34.3804C168.314 35.1605 167.163 35.9635 167.163 36.8736C167.163 37.2713 167.449 37.5084 167.871 37.5084C168.493 37.5084 169.144 37.1031 169.551 34.3804ZM182.849 23.1759C182.864 23.979 182.785 24.6214 182.664 25.3786C181.784 28.8049 180.369 29.5085 179.325 29.5009C178.131 29.5009 177.337 28.652 177.337 26.8317C177.337 23.8337 179.175 21.8605 181.105 21.8605C182.042 21.8605 182.678 22.3729 182.849 23.1759ZM179.689 36.8736C179.689 35.9635 180.84 35.1605 182.077 34.3804C181.67 37.1031 181.019 37.5084 180.397 37.5084C179.975 37.5084 179.689 37.2713 179.689 36.8736ZM190.335 24.6752C191.036 25.0041 191.879 25.1647 192.58 25.1647C193.802 25.1647 194.589 24.3158 194.589 23.2527C194.589 22.312 194.053 21.7384 193.23 21.7384C191.958 21.7384 190.757 22.8015 190.335 24.6752Z" fill="#31394d"/>

<path opacity="0.8" d="M188.592 52.1127V45.8127H191.121C191.775 45.8127 192.273 45.9657 192.615 46.2717C192.963 46.5717 193.137 46.9587 193.137 47.4327C193.137 47.8287 193.029 48.1467 192.813 48.3867C192.603 48.6207 192.345 48.7797 192.039 48.8637C192.399 48.9357 192.696 49.1157 192.93 49.4037C193.164 49.6857 193.281 50.0157 193.281 50.3937C193.281 50.8917 193.101 51.3027 192.741 51.6267C192.381 51.9507 191.871 52.1127 191.211 52.1127H188.592ZM189.744 48.4587H190.95C191.274 48.4587 191.523 48.3837 191.697 48.2337C191.871 48.0837 191.958 47.8707 191.958 47.5947C191.958 47.3307 191.871 47.1237 191.697 46.9737C191.529 46.8177 191.274 46.7397 190.932 46.7397H189.744V48.4587ZM189.744 51.1767H191.031C191.373 51.1767 191.637 51.0987 191.823 50.9427C192.015 50.7807 192.111 50.5557 192.111 50.2677C192.111 49.9737 192.012 49.7427 191.814 49.5747C191.616 49.4067 191.349 49.3227 191.013 49.3227H189.744V51.1767ZM194.77 52.1127V45.8127H198.883V46.7397H195.922V48.4677H198.613V49.3677H195.922V51.1857H198.883V52.1127H194.77ZM201.94 52.1127V46.7397H200.104V45.8127H204.937V46.7397H203.092V52.1127H201.94ZM205.217 52.1127L207.521 45.8127H208.817L211.121 52.1127H209.897L209.393 50.6547H206.936L206.423 52.1127H205.217ZM207.251 49.7547H209.078L208.16 47.1357L207.251 49.7547Z" fill="#31394d"/>
</svg>
