<?xml version="1.0" encoding="utf-8"?>
<!-- Generator: Adobe Illustrator 17.1.0, SVG Export Plug-In . SVG Version: 6.00 Build 0)  -->
<!DOCTYPE svg PUBLIC "-//W3C//DTD SVG 1.1//EN" "http://www.w3.org/Graphics/SVG/1.1/DTD/svg11.dtd">
<svg version="1.1" id="Layer_1" xmlns="http://www.w3.org/2000/svg" xmlns:xlink="http://www.w3.org/1999/xlink" x="0px" y="0px"
	 viewBox="200 0 560 560" enable-background="new 200 0 560 560" xml:space="preserve">
<g>
	<rect x="200" fill="#31394D" width="560" height="560"/>
	<g>
		<g>
			<g>
				<g>
					<g>
						<path fill="#FFFFFF" d="M628.8,165.6H430.2c-2.8,0-5.1-2.3-5.1-5.1v-51.7c0-3.6-0.4-7.3-1.4-10.8c-3-10.7-12.5-29.3-41.1-29.3
							c-27.5,0-37.3,17.2-40.7,27.9c-1.3,4-1.8,8.1-1.8,12.3l0.3,56.5L340,362.9c0,0,0.7,37.6,42.5,37.6s42.5-37.6,42.5-37.6V256.1
							c0-2.4,1.9-4.3,4.3-4.3h167.3c3.7,0,5.6-4.3,3.2-7.1c-7-8.2-11.3-19.2-11.3-31.2c0-25.6,19.4-33.5,43.3-33.5h0
							c0,0,0.1,0,0.1,0c0.4,0,0.7,0,1.1,0v-10.2C633.1,167.5,631.2,165.6,628.8,165.6L628.8,165.6z"/>
						<path fill="#31394D" d="M382.5,405.8c-46.5,0-47.8-42.4-47.8-42.8l0.3-197.6l-0.2-56.5c0-4.9,0.7-9.6,2.1-13.9
							c3.8-11.8,14.7-31.6,45.7-31.6c33.1,0,43.3,23.2,46.2,33.1c1.1,3.8,1.6,7.9,1.6,12.2v51.7l198.5-0.2c5.3,0,9.6,4.3,9.6,9.6
							v15.5l-6.4-0.1c-38.2,0-38.2,21.2-38.2,28.2c0,10.3,3.6,20.2,10,27.8c2.5,2.9,3,6.9,1.4,10.3c-1.6,3.4-4.9,5.5-8.7,5.5H430.3
							v105.8C430.3,363.4,429,405.8,382.5,405.8z M382.5,73.9c-23.1,0-32.1,13.2-35.7,24.3c-1.1,3.3-1.6,6.9-1.6,10.7l0.3,56.5
							l-0.3,197.6c0,1.2,1.2,32.4,37.2,32.4s37.2-31.1,37.2-32.5V256.1c0-5.3,4.3-9.6,9.6-9.6h165.2c-7.3-9.3-11.3-20.9-11.3-33.1
							c0-17.1,7.9-37.3,44.5-38.7v-4H430.2c-5.7,0-10.4-4.7-10.4-10.4v-51.7c0-3.4-0.4-6.5-1.2-9.3
							C415.2,87.7,406.3,73.9,382.5,73.9z"/>
					</g>
				</g>
				<g>
					<path fill="#FFFFFF" d="M543.9,199.8c2.8,0,5.1-2.3,5.1-5.1V110c0,0-1.7-41.4,42-41.4c43.7,0,42,41.4,42,41.4l0,89.8l0,163.6
						c0,0-1.2,37.1-42,37.1c-40.8,0-42-37.1-42-37.1v-71.8c0-3.4-2.8-6.2-6.3-6.2h-207c0,0-32.9,2-41.4-41.7c-0.8-4-1.1-8-1.1-12
						v-1.6c0,0-3.5-65.4,40.9-62.4c3.3,0.2,6.1,3.1,6.1,6.4v19.5c0,3.4,2.8,6.2,6.3,6.2H543.9z"/>
					<path fill="#31394D" d="M591.1,405.8c-45.4,0-47.3-41.8-47.3-42.2l0-71.9c0-0.5-0.4-1-1-1h-207c-0.1,0-9.5,0.5-20-5.1
						c-9.5-5.1-21.8-16.3-26.5-40.9c-0.8-4-1.2-8.3-1.2-13v-1.6c-0.1-1.3-1.8-38.8,17.2-57.5c7.7-7.5,17.5-11,29.3-10.2
						c6.2,0.4,11,5.5,11,11.7v19.5c0,0.5,0.4,1,1,1h197.2V110c0-0.6-0.7-20,12.5-33.7c8.3-8.6,20-13,34.8-13s26.5,4.4,34.8,13
						c13.2,13.7,12.6,33.1,12.5,33.9l0,89.5l0,163.6C638.4,364,636.5,405.8,591.1,405.8z M542.8,280.2c6.4,0,11.6,5.2,11.6,11.5
						v71.8c0,1.1,1.7,31.9,36.7,31.9c35.1,0,36.7-30.7,36.8-32.1l0-163.4l0-89.8c0-0.4,0.4-16-9.7-26.5c-6.2-6.4-15.3-9.7-27.1-9.7
						c-11.7,0-20.9,3.3-27.1,9.7c-10.1,10.4-9.7,26.1-9.7,26.3l0,84.9c0,5.7-4.7,10.4-10.4,10.4H346.5c-6.4,0-11.6-5.2-11.6-11.5
						v-19.5c0-0.6-0.6-1.1-1.2-1.2c-8.7-0.6-15.7,1.8-21.2,7.2c-15.6,15.3-14.1,49.4-14,49.7l0,1.9c0,4.1,0.3,7.7,1,11
						c7.4,38.3,34.7,37.5,35.9,37.5L542.8,280.2z"/>
				</g>
				<g>
					<path fill="#FFFFFF" d="M667.2,213.5c0,25.6-11.3,46.3-35.2,46.3c-23.9,0-43.3-20.7-43.3-46.3s19.5-33.5,43.4-33.5
						c0.4,0,0.5-1.3,0.5-1.3l0.5-11.5c0.1-1,0.9-1.7,1.9-1.7c21.6,0.7,31.7,19.5,32.2,43.1L667.2,213.5L667.2,213.5z"/>
					<path fill="#31394D" d="M632,265.1c-26.8,0-48.6-23.1-48.6-51.6c0-17,7.8-37.1,44.1-38.7l0.3-7.8c0.2-3.9,3.5-6.9,7.3-6.8
						c22.7,0.8,36.6,18.8,37.3,48.2v4.9C672.5,244.8,656.6,265.1,632,265.1z M638.2,171.1l-0.4,8.2c-0.5,4.4-3.4,5.9-5.8,5.9
						c-38.2,0-38.2,21.2-38.2,28.2c0,22.6,17.1,41.1,38,41.1c27.8,0,29.9-31.4,29.9-41.1v-4.8C661.6,198.2,658.7,174.2,638.2,171.1z
						"/>
				</g>
			</g>
		</g>
		<g>
			<path fill="#FFFFFF" d="M320.6,460.9c0.5-1.3,1.4-1.9,2.3-1.9c1.2,0,2.3,1,2.3,2.4c0,0.3-0.1,0.7-0.2,1
				c-3.9,10.2-7.7,16.6-13.5,16.6c-3.7,0-6.6-2.9-6.6-6.9c0-4.6,3.3-11.7,3.3-15.2c0-1.8-0.9-2.7-2.4-2.7c-3.4,0-10.2,5.7-10.5,15.9
				c0.1,1.8,0.3,3.7,0.3,5.6c0,2.2-1,3.4-2.8,3.4c-1.7,0-2.7-1.3-2.8-3.5c-0.3-5.1-0.4-10.4-0.4-15.5c0-4.9,0.3-9.1,0.8-12.7
				c-0.2,0-0.4-0.1-0.6-0.1c-1.5-0.4-2.2-1.5-2.2-2.6c0-1.1,0.9-2.2,2.4-2.2c0.3,0,0.8,0.1,1.4,0.2c2.6-10.4,7.8-13.9,13-13.9
				c5.3,0,8.4,3.4,8.4,7.9c0,5.9-5.5,11.3-16.5,11.3c-0.1,0-0.2,0-0.3,0c-0.4,2.6-0.6,5.7-0.8,9.3c2.9-5.1,7.2-8.1,11.7-8.1
				c4,0,6.7,2.7,6.7,7.1c0,5.3-3.3,12.6-3.3,15.8c0,1.1,0.8,1.9,1.9,1.9C315.2,473.9,318.8,465.6,320.6,460.9L320.6,460.9z
				 M296.8,443.2h0.1c5.4,0,10.4-2.4,10.4-6.5c0-1.7-1.1-3-3-3C301.6,433.8,298.6,435.7,296.8,443.2z"/>
			<path fill="#FFFFFF" d="M352.4,460.9c0.5-1.3,1.4-1.9,2.3-1.9c1.2,0,2.3,0.9,2.3,2.3c0,0.3-0.1,0.7-0.2,1
				c-3,8.4-6.8,16.4-12.4,16.4c-2.8,0-5.2-1.7-6.4-6.5c-2.8,4.4-6.3,6.5-10.3,6.5c-4.8,0-7.9-3.1-7.9-7.7c0-6.7,1.6-12.9,1.6-15.4
				c0-2-2-2.2-2-4.1c0-1.4,1.2-2.6,2.7-2.6c2.6,0,5,2.3,5,5.3c0,4.8-1.7,11.2-1.7,15.2c0,3.1,1.1,4.2,3,4.2c3.1,0,7.8-3.1,9.1-13.8
				c0.2-2.6,0.5-5.1,0.8-7.4c0.2-1.7,1.5-2.5,2.9-2.5c1.4,0,2.8,1.1,2.6,3c-0.3,2.7-1.1,8.4-1.1,13.1c0,6.5,1.1,7.6,2.2,7.6
				C347.1,473.6,350.4,466.3,352.4,460.9L352.4,460.9z"/>
			<path fill="#FFFFFF" d="M383.5,460.9c0.5-1.3,1.3-1.9,2.2-1.9c1.2,0,2.4,1.1,2.4,2.4c0,0.3-0.1,0.6-0.2,0.9
				c-4.1,10.5-7.2,16.4-12.7,16.4c-4.1,0-6.8-2.7-6.8-8.2c0-5.1,1.1-9.3,1.1-12.1c0-2.2-0.8-3-2.7-3c-3.2,0-8.8,4.7-9,15.5
				c0,1.6,0,3.3,0,5.2c0,2-1,3-2.7,3c-2,0-3-1-3-3c0-9.3,0.3-18,1.1-23.7c0.2-1.5,1.2-2.5,3-2.5c1.8,0,2.6,1.1,2.6,2.6
				c0,0.2,0,0.4-0.1,0.7c-0.2,1.1-0.3,2.1-0.4,3.1c2.6-4,5.9-6,9.4-6c4.4,0,7.2,2.8,7.2,6.6c0,4.1-1.1,8.9-1.1,13.2
				c0,2.7,0.8,3.5,1.8,3.5C378.3,473.7,381.8,465.2,383.5,460.9L383.5,460.9z"/>
			<path fill="#FFFFFF" d="M414.5,460.9c0.5-1.3,1.3-1.9,2.2-1.9c1.2,0,2.4,1.1,2.4,2.4c0,0.3-0.1,0.6-0.2,0.9
				c-2.8,6.7-6.9,14.5-13.4,19l-0.1,1.4c-0.8,8.4-5.1,13.8-10.5,13.8c-4.1,0-6.5-2.8-6.5-6.1c0-5.9,6.1-8.1,11.8-11.8
				c0.1-1.5,0.2-3.2,0.3-5.1c-2.8,3.1-5.8,4.4-8.5,4.4c-5.3,0-9.7-4.4-9.7-11c0-10.3,6.7-17,14.3-17h0.1c5.1,0,10.6,2.7,10.6,7.7
				c0,1.6-0.7,10.4-1.2,17.2C409.8,471.2,412.9,465.4,414.5,460.9L414.5,460.9z M401.1,463.3c0.3-1.7,0.5-3.2,0.5-5.1
				c-0.4-1.9-2-3-4.3-3c-4.8,0-9.3,4.6-9.3,11.5c0,4.2,2,6.2,4.9,6.2C395.4,472.9,398.9,471.3,401.1,463.3z M395.5,491.4
				c1.5,0,3.2-0.9,4.2-7.2c-3.1,1.8-5.9,3.7-5.9,5.8C393.7,490.9,394.4,491.4,395.5,491.4L395.5,491.4z"/>
			<path fill="#FFFFFF" d="M443.7,459c1.2,0,2.3,1,2.3,2.4c0,0.3-0.1,0.7-0.2,1c-3.9,10.4-7.9,16.6-14.8,16.6c-5.2,0-8.9-3.7-8.9-9
				c0-4.4,2.1-9.5,4.1-14c-1.6-0.2-3.1-0.7-4.4-1.3c-0.8,2.4-1.7,4.8-2.8,7.7c-0.5,1.2-1.4,1.7-2.3,1.7c-1.2,0-2.3-0.9-2.3-2.2
				c0-0.3,0.1-0.7,0.2-1c1.2-3,2.2-5.9,2.9-8.6c-0.8-0.6-1.1-1.5-1.1-2.5c0-1.5,0.9-3,2.6-3c1.3,0,1.8,0.6,2.4,1.3
				c0.9,1.3,2.4,3.1,5.8,3.1c1.5,0,2.3-0.6,3.2-0.6c1.4,0,2.5,1.1,2.5,2.6c0,0.7-0.3,1.7-0.8,2.9c-1.5,3.7-4.4,9.4-4.4,13.6
				c0,2.6,1.5,4.1,3.9,4.1c4.3,0,7.9-8.1,9.8-12.9C441.9,459.5,442.8,459,443.7,459z"/>
			<path fill="#FFFFFF" d="M471.9,460.9c0.6-1.3,1.4-1.8,2.2-1.8c1.2,0,2.3,1.1,2.3,2.4c0,0.3-0.1,0.6-0.2,0.9
				c-3.1,7.7-6.9,14.6-13.6,19.1c0,0.4-0.1,0.8-0.1,1.2c-0.5,4.8-2.3,13.8-10.4,13.8c-4.2,0-7-2.7-7-6c0-4.4,4.6-7.6,12-11.5
				c0.1-1.6,0.3-3.4,0.4-5.4c-2.7,3.4-6.1,5.2-9.8,5.2c-4.2,0-7.3-3.1-7.3-7.7c0-6.6,1.7-12.6,1.7-15.5c0-2-2-2.2-2-4.1
				c0-1.4,1.2-2.6,2.7-2.6c2.6,0,5,2.3,5,5.3c0,4.8-1.8,11.2-1.8,15.2c0,3.2,1.1,4.2,3.1,4.2c3.1,0,7.9-2.8,9.5-13.8
				c0.2-2.6,0.4-5.1,0.6-7.3c0.1-1.7,1.5-2.6,2.8-2.6c1.5,0,3,1.1,2.8,3.1c-0.5,6.8-1.1,14.3-1.5,20.4c0,0.5-0.1,1-0.1,1.4
				C467.5,470.6,470.2,465,471.9,460.9L471.9,460.9z M456.7,484.3c-3.8,2.2-6,3.9-6,5.5c0,0.9,0.6,1.5,1.8,1.5
				C454.7,491.4,456.1,489.3,456.7,484.3z"/>
			<path fill="#FFFFFF" d="M520.5,460.9c0.5-1.3,1.4-1.9,2.3-1.9c1.2,0,2.3,1,2.3,2.4c0,0.3-0.1,0.7-0.2,1
				c-3.9,10.2-7.7,16.6-13.5,16.6c-3.7,0-6.6-2.9-6.6-6.9c0-4.6,3.3-11.7,3.3-15.2c0-1.8-0.9-2.7-2.4-2.7c-3.4,0-10.2,5.7-10.5,15.9
				c0.1,1.8,0.3,3.7,0.3,5.6c0,2.2-1,3.4-2.8,3.4c-1.7,0-2.7-1.3-2.8-3.5c-0.3-5.1-0.4-10.4-0.4-15.5c0-4.9,0.3-9.1,0.8-12.7
				c-0.2,0-0.4-0.1-0.6-0.1c-1.5-0.4-2.2-1.5-2.2-2.6c0-1.1,0.9-2.2,2.4-2.2c0.3,0,0.8,0.1,1.4,0.2c2.6-10.4,7.8-13.9,13-13.9
				c5.3,0,8.4,3.4,8.4,7.9c0,5.9-5.5,11.3-16.5,11.3c-0.1,0-0.2,0-0.3,0c-0.4,2.6-0.6,5.7-0.8,9.3c2.9-5.1,7.2-8.1,11.7-8.1
				c4,0,6.7,2.7,6.7,7.1c0,5.3-3.3,12.6-3.3,15.8c0,1.1,0.8,1.9,1.9,1.9C515.1,473.9,518.6,465.6,520.5,460.9L520.5,460.9z
				 M496.7,443.2h0.1c5.4,0,10.4-2.4,10.4-6.5c0-1.7-1.1-3-3-3C501.4,433.8,498.5,435.7,496.7,443.2z"/>
			<path fill="#FFFFFF" d="M552.2,460.9c0.5-1.3,1.4-1.9,2.3-1.9c1.2,0,2.3,0.9,2.3,2.3c0,0.3-0.1,0.7-0.2,1
				c-3,8.4-6.8,16.4-12.4,16.4c-2.8,0-5.2-1.7-6.4-6.5c-2.8,4.4-6.3,6.5-10.3,6.5c-4.8,0-7.9-3.1-7.9-7.7c0-6.7,1.6-12.9,1.6-15.4
				c0-2-2-2.2-2-4.1c0-1.4,1.2-2.6,2.7-2.6c2.6,0,5,2.3,5,5.3c0,4.8-1.7,11.2-1.7,15.2c0,3.1,1.1,4.2,3,4.2c3.1,0,7.8-3.1,9.1-13.8
				c0.2-2.6,0.5-5.1,0.8-7.4c0.2-1.7,1.5-2.5,2.9-2.5c1.4,0,2.8,1.1,2.6,3c-0.3,2.7-1.1,8.4-1.1,13.1c0,6.5,1.1,7.6,2.2,7.6
				C546.9,473.6,550.2,466.3,552.2,460.9L552.2,460.9z"/>
			<path fill="#FFFFFF" d="M583.2,460.9c0.5-1.3,1.3-1.9,2.2-1.9c1.2,0,2.4,1.1,2.4,2.4c0,0.3-0.1,0.6-0.2,0.9
				c-2.8,6.7-6.9,14.5-13.4,19l-0.1,1.4c-0.8,8.4-5.1,13.8-10.5,13.8c-4.1,0-6.5-2.8-6.5-6.1c0-5.9,6.1-8.1,11.8-11.8
				c0.1-1.5,0.2-3.2,0.3-5.1c-2.8,3.1-5.8,4.4-8.5,4.4c-5.3,0-9.7-4.4-9.7-11c0-10.3,6.7-17,14.3-17h0.1c5.1,0,10.6,2.7,10.6,7.7
				c0,1.6-0.7,10.4-1.2,17.2C578.5,471.2,581.7,465.4,583.2,460.9L583.2,460.9z M569.8,463.3c0.3-1.7,0.5-3.2,0.5-5.1
				c-0.4-1.9-2-3-4.3-3c-4.8,0-9.3,4.6-9.3,11.5c0,4.2,2,6.2,4.9,6.2C564.1,472.9,567.6,471.3,569.8,463.3z M568.4,484.2
				c-3.1,1.8-5.9,3.7-5.9,5.8c0,0.9,0.7,1.5,1.8,1.5C565.7,491.4,567.4,490.5,568.4,484.2z"/>
			<path fill="#FFFFFF" d="M614.3,460.9c0.5-1.3,1.3-1.9,2.2-1.9c1.2,0,2.4,1.1,2.4,2.4c0,0.3-0.1,0.6-0.2,0.9
				c-2.8,6.7-6.9,14.5-13.4,19l-0.1,1.4c-0.8,8.4-5.1,13.8-10.5,13.8c-4.1,0-6.5-2.8-6.5-6.1c0-5.9,6.1-8.1,11.8-11.8
				c0.1-1.5,0.2-3.2,0.3-5.1c-2.8,3.1-5.8,4.4-8.5,4.4c-5.3,0-9.7-4.4-9.7-11c0-10.3,6.7-17,14.3-17h0.1c5.1,0,10.6,2.7,10.6,7.7
				c0,1.6-0.7,10.4-1.2,17.2C609.6,471.2,612.7,465.4,614.3,460.9L614.3,460.9z M600.9,463.3c0.3-1.7,0.5-3.2,0.5-5.1
				c-0.4-1.9-2-3-4.3-3c-4.8,0-9.3,4.6-9.3,11.5c0,4.2,2,6.2,4.9,6.2C595.2,472.9,598.7,471.3,600.9,463.3z M595.2,491.4
				c1.5,0,3.2-0.9,4.2-7.2c-3.1,1.8-5.9,3.7-5.9,5.8C593.5,490.9,594.2,491.4,595.2,491.4L595.2,491.4z"/>
			<path fill="#FFFFFF" d="M640.2,460.9c0.5-1.3,1.4-1.9,2.3-1.9c1.2,0,2.3,1,2.3,2.3c0,0.3-0.1,0.7-0.2,1
				c-4.4,11.4-10.1,16.8-17.8,16.8c-7.7,0-12.9-5.3-12.9-13.9c0-9.5,6-15.5,13.1-15.5c5.4,0,9,3.6,9,8.4c0,5-4.4,9.3-10.3,9.3
				c-2.2,0-4.1-0.4-6.1-1.3c0.3,5.1,3.2,7.7,7.8,7.7C634.5,474,638.4,465.5,640.2,460.9L640.2,460.9z M619.9,461.7
				c1.7,0.8,3.8,1.1,5.6,1.1c3,0,5-2,5-4.4c0-2.2-1.3-3.5-3.4-3.5C623.9,454.9,620.9,457.4,619.9,461.7z"/>
			<path fill="#FFFFFF" d="M669.4,459c1.2,0,2.3,1,2.3,2.4c0,0.3-0.1,0.7-0.2,1c-3.9,10.4-7.9,16.6-14.8,16.6c-5.2,0-8.9-3.7-8.9-9
				c0-4.4,2.1-9.5,4.1-14c-1.6-0.2-3.1-0.7-4.4-1.3c-0.8,2.4-1.7,4.8-2.8,7.7c-0.5,1.2-1.4,1.7-2.3,1.7c-1.2,0-2.3-0.9-2.3-2.2
				c0-0.3,0.1-0.7,0.2-1c1.2-3,2.2-5.9,2.9-8.6c-0.8-0.6-1.1-1.5-1.1-2.5c0-1.5,0.9-3,2.6-3c1.3,0,1.8,0.6,2.4,1.3
				c0.9,1.3,2.4,3.1,5.8,3.1c1.5,0,2.3-0.6,3.2-0.6c1.4,0,2.5,1.1,2.5,2.6c0,0.7-0.3,1.7-0.8,2.9c-1.5,3.7-4.4,9.4-4.4,13.6
				c0,2.6,1.5,4.1,3.9,4.1c4.3,0,7.9-8.1,9.8-12.9C667.6,459.5,668.5,459,669.4,459z"/>
		</g>
	</g>
	<g>
		<path fill="#FFFFFF" d="M672.6,80.1V66h-4.7v-2h11.9v2H675v14.1H672.6z"/>
		<path fill="#FFFFFF" d="M682,80.1V64.1h2.9l5.4,10.7l5.4-10.7h2.9v16.1h-2.4V68.3l-4.9,9.6h-1.9l-4.9-9.6v11.8L682,80.1L682,80.1z
			"/>
	</g>
</g>
</svg>
