<?xml version="1.0" encoding="utf-8"?>
<!-- Generator: Adobe Illustrator 17.1.0, SVG Export Plug-In . SVG Version: 6.00 Build 0)  -->
<!DOCTYPE svg PUBLIC "-//W3C//DTD SVG 1.1//EN" "http://www.w3.org/Graphics/SVG/1.1/DTD/svg11.dtd">
<svg version="1.1" id="Layer_1" xmlns="http://www.w3.org/2000/svg" xmlns:xlink="http://www.w3.org/1999/xlink" x="0px" y="0px"
	 viewBox="56.2 10.4 155 41.7" enable-background="new 56.2 10.4 155 41.7" xml:space="preserve">
<g>
	<path fill="#FFFFFF" d="M69.6,24.3L69.6,24.3c-0.8,2.1-2.2,5.6-3.4,5.6c-0.5,0-0.8-0.3-0.8-0.8c0-0.6,0.3-1.5,0.5-2.6
		c0.4-1.4,0.8-2.9,0.8-4.2c0-1.9-1.1-3.1-2.7-3.1c-1.8,0-3.5,1.3-4.7,3.5c0.1-1.6,0.2-2.9,0.3-4h0.1c4.4,0,6.7-2.3,6.7-4.9
		c0-1.9-1.3-3.4-3.4-3.4c-2.1,0-4.2,1.5-5.2,6l-0.1,0c-0.2,0-0.3-0.1-0.5-0.1c-0.6,0-1,0.5-1,1c0,0.5,0.3,0.9,0.9,1.1
		c0,0,0.1,0,0.1,0l0,0c0,0,0.1,0,0.1,0C57.2,20,57,21.8,57,23.9c0,2.2,0,4.5,0.1,6.7c0.1,1,0.4,1.5,1.1,1.5c0.7,0,1.1-0.5,1.1-1.4
		c0-0.5,0-1-0.1-1.5c0-0.3,0-0.6-0.1-0.9c0.1-4.4,2.9-6.9,4.2-6.9c0.6,0,1,0.4,1,1.2c0,0.7-0.3,1.7-0.6,2.8
		c-0.4,1.3-0.7,2.7-0.7,3.7c0,1.7,1.2,3,2.7,3c1.4,0,2.4-0.9,3.4-2.6c0.3,1.5,1.5,2.4,3.1,2.4c1.6,0,3-0.9,4.2-2.8
		C77,31.3,78,32,79.1,32c1.3,0,2.3-1.1,3.2-2.6c0,0.5,0,1,0,1.5c0,0.8,0.4,1.3,1.2,1.3c0.7,0,1.1-0.4,1.1-1.3v-2.2
		c0.1-4.7,2.3-6.7,3.6-6.7c0.8,0,1.1,0.3,1.1,1.3c0,0.5-0.1,1.2-0.2,1.9c-0.1,1-0.3,2.1-0.3,3.3c0,2.4,1.1,3.5,2.8,3.5
		c1.4,0,2.4-1,3.3-2.8c0.7,1.5,2,2.5,3.5,2.5c1.1,0,2.3-0.6,3.4-1.9c0,0.8-0.1,1.5-0.1,2.2c-0.4,0.3-0.8,0.5-1.3,0.8
		c-1.9,1.2-3.5,2.2-3.5,4.3c0,1.4,1,2.6,2.6,2.6c2.2,0,3.9-2.3,4.2-5.9l0-0.6c2.6-1.9,4.2-5.2,5.3-8c0-0.1,0.1-0.1,0.1-0.2
		c0.5-1.3,0.8-2.3,1.1-3.3c0.5,0.3,1.1,0.5,1.8,0.6c-0.8,2-1.6,4.2-1.6,6.1c0,2.3,1.5,3.9,3.6,3.9c1.6,0,2.9-0.9,3.9-2.6
		c0.3,1.5,1.4,2.5,2.9,2.5c1.5,0,2.9-0.8,4-2.2c0,0.5-0.1,1-0.1,1.4c0,0.3,0,0.6-0.1,0.9c-3,1.7-4.8,3.1-4.8,5
		c0,1.4,1.1,2.6,2.8,2.6c3.3,0,4-3.9,4.2-6c0-0.2,0-0.3,0-0.5c2.7-2,4.2-4.9,5.5-8.3c0.1-0.1,0.1-0.3,0.1-0.4c0-0.6-0.4-1-0.9-1
		c-0.3,0-0.7,0.2-0.9,0.8c-0.7,1.8-1.8,4.2-3.5,6c0-0.2,0-0.4,0-0.6c0.1-1.5,0.2-3.1,0.3-4.8v0c0.1-1.4,0.2-2.7,0.3-4.1
		c0.1-0.9-0.5-1.3-1.1-1.3c-0.5,0-1.1,0.4-1.1,1.1l0,0.4c-0.1,0.9-0.1,1.8-0.2,2.8c-0.6,4.7-2.6,5.9-3.8,5.9c-0.8,0-1.2-0.5-1.2-1.8
		c0-0.8,0.2-1.9,0.3-3v0v0v0c0.2-1.2,0.4-2.5,0.4-3.6c0-1.3-1-2.3-2-2.3c-0.6,0-1.1,0.5-1.1,1.1c0,0.4,0.2,0.6,0.4,0.8
		c0.2,0.2,0.4,0.5,0.4,0.9c0,0.5-0.1,1.2-0.2,2l0,0v0l0,0l-0.1,0.3c-0.8,2.1-2.2,5.5-3.9,5.5c-1,0-1.6-0.7-1.6-1.8
		c0-1.5,0.8-3.4,1.4-4.9c0.1-0.3,0.3-0.7,0.4-0.9c0.2-0.5,0.3-0.9,0.3-1.2c0-0.7-0.4-1.1-1-1.1c-0.2,0-0.3,0-0.5,0.1
		c-0.2,0.1-0.5,0.1-0.8,0.1c-1.4,0-2-0.8-2.4-1.3c-0.2-0.3-0.5-0.6-1-0.6c-0.7,0-1.1,0.7-1.1,1.3c0,0.4,0.1,0.8,0.4,1.1
		c-0.3,1.1-0.6,2.3-1.1,3.4c0,0.1-0.1,0.2-0.1,0.3c-0.6,1.9-1.9,4.5-3.4,6c0.2-2.9,0.5-6.7,0.5-7.4c0-2.1-2.2-3.3-4.3-3.3h0
		c-2.6,0-5,2.2-5.6,5.6c-0.7,1.9-1.9,4.6-2.8,4.6c-0.4,0-0.7-0.4-0.7-1.5c0-0.9,0.1-1.9,0.2-2.9l0,0c0.1-1,0.2-1.9,0.2-2.8
		c0-1.6-1.1-2.9-2.9-2.9c-1.4,0-2.7,0.9-3.8,2.6c0-0.4,0.1-0.9,0.2-1.3c0-0.1,0-0.2,0-0.3c0-0.6-0.4-1.1-1.1-1.1
		c-0.7,0-1.1,0.4-1.2,1.1c-0.1,1-0.2,2.2-0.3,3.6c0,0,0,0.1,0,0.1c-0.8,2.3-2.1,5.5-3.1,5.5c-0.5,0-0.9-0.5-0.9-3.3
		c0-1.6,0.2-3.5,0.4-4.8l0,0l0,0c0-0.3,0.1-0.6,0.1-0.9c0.1-0.8-0.5-1.3-1.1-1.3c-0.5,0-1.1,0.3-1.2,1.1l0,0.2
		c-0.1,0.9-0.2,1.9-0.3,3c-0.5,4.6-2.4,6-3.7,6c-0.8,0-1.2-0.5-1.2-1.8c0-0.8,0.2-1.9,0.3-3l0,0c0.2-1.2,0.4-2.5,0.4-3.6
		c0-1.3-1-2.3-2-2.3c-0.6,0-1.1,0.5-1.1,1.1c0,0.4,0.2,0.6,0.4,0.9c0.2,0.2,0.4,0.5,0.4,0.9c0,0.4-0.1,1-0.2,1.8v0l0,0l0,0
		C69.6,24,69.6,24.2,69.6,24.3z M60,16.7L60,16.7c0.7-3.2,1.9-4.1,3-4.1c0.8,0,1.2,0.6,1.2,1.3C64.2,15.6,62.2,16.7,60,16.7z
		 M102.2,23.2c0,0.8-0.1,1.4-0.2,2.2c-0.9,3.4-2.3,4.1-3.3,4.1c-1.2,0-2-0.8-2-2.7c0-3,1.8-5,3.8-5
		C101.4,21.9,102.1,22.4,102.2,23.2z M99.1,36.9c0-0.9,1.2-1.7,2.4-2.5c-0.4,2.7-1.1,3.1-1.7,3.1C99.4,37.5,99.1,37.3,99.1,36.9z
		 M122.1,36.8c0-0.7,0.9-1.5,2.4-2.4c-0.3,2.1-0.8,3.1-1.7,3.1C122.3,37.5,122.1,37.2,122.1,36.8z M149.9,29.6
		c0.3,1.5,1.5,2.4,3.1,2.4c1.6,0,3-0.9,4.2-2.8c0.5,2.1,1.5,2.8,2.6,2.8c1.3,0,2.3-1.1,3.2-2.7c0.7,1.5,2,2.4,3.5,2.4
		c1.1,0,2.3-0.6,3.4-1.9c0,0.8-0.1,1.5-0.1,2.2c-0.4,0.3-0.8,0.5-1.3,0.8l0,0v0v0c-1.9,1.2-3.5,2.2-3.5,4.3c0,1.4,1,2.6,2.6,2.6
		c2.2,0,3.9-2.3,4.2-5.9l0-0.6c1.4-1.1,2.6-2.6,3.5-4.2c0.6,1.7,2,2.7,3.6,2.7c1.1,0,2.3-0.6,3.4-1.9c0,0.8-0.1,1.5-0.1,2.2
		c-0.4,0.3-0.8,0.5-1.3,0.8c-1.9,1.2-3.5,2.2-3.5,4.3c0,1.4,1,2.6,2.6,2.6c2.2,0,3.9-2.3,4.2-5.9l0-0.6c1.6-1.2,2.8-2.9,3.8-4.7
		c0.7,2.3,2.5,3.7,4.9,3.7c3.1,0,5.4-2.3,7.1-7.1c0,0,0-0.1,0.1-0.2c0.4-1.3,0.8-2.3,1.1-3.3c0.5,0.3,1.1,0.5,1.8,0.6
		c-0.8,2-1.6,4.2-1.6,6.1c0,2.3,1.5,3.9,3.6,3.9c2.8,0,4.4-2.7,6-7.2c0.1-0.2,0.1-0.3,0.1-0.4c0-0.6-0.4-1-0.9-1
		c-0.3,0-0.7,0.2-0.9,0.8c-0.8,2.1-2.2,5.6-4,5.6c-1,0-1.6-0.7-1.6-1.8c0-1.5,0.8-3.4,1.4-4.9c0.1-0.3,0.3-0.7,0.4-0.9
		c0.2-0.5,0.3-0.9,0.3-1.2c0-0.7-0.4-1.1-1-1.1c-0.2,0-0.3,0-0.5,0.1c-0.2,0.1-0.5,0.1-0.8,0.1c-1.4,0-2-0.8-2.4-1.3
		c-0.2-0.3-0.5-0.6-1-0.6c-0.7,0-1.1,0.7-1.1,1.3c0,0.4,0.1,0.8,0.4,1.1c-0.3,1.1-0.7,2.3-1.1,3.6c0,0,0,0.1-0.1,0.2
		c-0.7,2-2.3,5.7-5.2,5.7c-1.9,0-3-1.1-3.2-3.3c0.8,0.4,1.6,0.6,2.5,0.6c2.4,0,4.2-1.9,4.2-4c0-2.1-1.4-3.6-3.6-3.6
		c-2.4,0-4.4,1.8-5.1,4.7c0,0,0,0,0,0.1c-0.6,1.9-1.9,4.5-3.4,6c0.2-2.9,0.5-6.7,0.5-7.4c0-2.1-2.2-3.3-4.3-3.3h0
		c-2.6,0-5,2.2-5.6,5.7c-0.7,1.8-1.8,3.8-3.1,5.1c0.2-2.9,0.5-6.7,0.5-7.4c0-2.1-2.2-3.3-4.3-3.3h0c-2.6,0-5.1,2.2-5.6,5.7
		c-0.8,2.1-1.9,4.5-2.7,4.5c-0.5,0-0.9-0.5-0.9-3.3c0-1.6,0.2-3.5,0.4-4.8v0l0,0c0-0.3,0.1-0.6,0.1-0.9c0.1-0.8-0.5-1.3-1.1-1.3
		c-0.5,0-1.1,0.3-1.2,1.1l0,0.2l0,0v0v0v0c-0.1,0.9-0.2,1.9-0.3,3c-0.5,4.6-2.4,6-3.7,6c-0.8,0-1.2-0.5-1.2-1.8c0-0.8,0.2-1.9,0.3-3
		c0.2-1.2,0.4-2.5,0.4-3.6c0-1.3-1-2.3-2-2.3c-0.6,0-1.1,0.5-1.1,1.1c0,0.4,0.2,0.6,0.4,0.9c0.2,0.2,0.4,0.5,0.4,0.9
		c0,0.4-0.1,1-0.2,1.8v0l0,0.2l0,0.2l0,0c-0.7,2-2.2,5.6-3.4,5.6c-0.4,0-0.8-0.3-0.8-0.8c0-0.6,0.3-1.5,0.5-2.6
		c0.4-1.4,0.8-2.9,0.8-4.2c0-1.9-1.1-3.1-2.7-3.1c-1.8,0-3.5,1.3-4.7,3.5c0.1-1.6,0.2-2.9,0.3-4h0.1c4.4,0,6.7-2.3,6.7-4.9
		c0-1.9-1.3-3.4-3.4-3.4c-2.1,0-4.2,1.5-5.2,6l-0.1,0c-0.2,0-0.3-0.1-0.5-0.1c-0.6,0-1,0.5-1,1c0,0.5,0.3,0.9,0.9,1.1
		c0,0,0.1,0,0.1,0c0,0,0.1,0,0.1,0c-0.2,1.5-0.3,3.4-0.3,5.5c0,2.2,0,4.5,0.1,6.7c0.1,1,0.4,1.5,1.1,1.5c0.7,0,1.1-0.5,1.1-1.4
		c0-0.5,0-1-0.1-1.5l0,0v0v0v0v0v0c0-0.3,0-0.6-0.1-0.9c0.1-4.4,2.9-6.9,4.2-6.9c0.6,0,1,0.4,1,1.2c0,0.7-0.3,1.7-0.6,2.8v0
		c-0.4,1.3-0.7,2.7-0.7,3.7c0,1.7,1.2,3,2.7,3C147.9,32.1,149,31.2,149.9,29.6z M140.6,16.7L140.6,16.7c2.2,0,4.2-1,4.2-2.8
		c0-0.7-0.4-1.3-1.2-1.3C142.5,12.6,141.3,13.5,140.6,16.7z M170.1,25.4c0.1-0.8,0.2-1.4,0.2-2.2c-0.2-0.8-0.8-1.3-1.7-1.3
		c-1.9,0-3.8,2-3.8,5c0,1.8,0.8,2.7,2,2.7C167.8,29.5,169.3,28.8,170.1,25.4z M169.6,34.4c-1.2,0.8-2.4,1.6-2.4,2.5
		c0,0.4,0.3,0.6,0.7,0.6C168.5,37.5,169.1,37.1,169.6,34.4z M182.8,23.2c0,0.8-0.1,1.4-0.2,2.2c-0.9,3.4-2.3,4.1-3.3,4.1
		c-1.2,0-2-0.8-2-2.7c0-3,1.8-5,3.8-5C182,21.9,182.7,22.4,182.8,23.2z M179.7,36.9c0-0.9,1.2-1.7,2.4-2.5c-0.4,2.7-1.1,3.1-1.7,3.1
		C180,37.5,179.7,37.3,179.7,36.9z M190.3,24.7c0.7,0.3,1.5,0.5,2.2,0.5c1.2,0,2-0.8,2-1.9c0-0.9-0.5-1.5-1.4-1.5
		C192,21.7,190.8,22.8,190.3,24.7z"/>
	<path opacity="0.8" fill="#FFFFFF" enable-background="new    " d="M188.6,52.1v-6.3h2.5c0.7,0,1.2,0.2,1.5,0.5
		c0.3,0.3,0.5,0.7,0.5,1.2c0,0.4-0.1,0.7-0.3,1c-0.2,0.2-0.5,0.4-0.8,0.5c0.4,0.1,0.7,0.3,0.9,0.5c0.2,0.3,0.4,0.6,0.4,1
		c0,0.5-0.2,0.9-0.5,1.2c-0.4,0.3-0.9,0.5-1.5,0.5H188.6z M189.7,48.5h1.2c0.3,0,0.6-0.1,0.7-0.2c0.2-0.2,0.3-0.4,0.3-0.6
		c0-0.3-0.1-0.5-0.3-0.6c-0.2-0.2-0.4-0.2-0.8-0.2h-1.2V48.5z M189.7,51.2h1.3c0.3,0,0.6-0.1,0.8-0.2c0.2-0.2,0.3-0.4,0.3-0.7
		c0-0.3-0.1-0.5-0.3-0.7s-0.5-0.3-0.8-0.3h-1.3V51.2z M194.8,52.1v-6.3h4.1v0.9h-3v1.7h2.7v0.9h-2.7v1.8h3v0.9H194.8z M201.9,52.1
		v-5.4h-1.8v-0.9h4.8v0.9h-1.8v5.4H201.9z M205.2,52.1l2.3-6.3h1.3l2.3,6.3h-1.2l-0.5-1.5h-2.5l-0.5,1.5H205.2z M207.3,49.8h1.8
		l-0.9-2.6L207.3,49.8z"/>
</g>
</svg>
