<svg width="16" height="16" viewBox="0 0 16 16" fill="none" xmlns="http://www.w3.org/2000/svg">
<path fill-rule="evenodd" clip-rule="evenodd" d="M6.38462 2.29988V2.07692C6.38462 1.48215 6.86677 1 7.46154 1H8.53846C9.13323 1 9.61539 1.48215 9.61539 2.07692V2.29988C10.0634 2.42661 10.4899 2.60473 10.888 2.82749L11.046 2.6695C11.4666 2.24894 12.1484 2.24894 12.569 2.6695L13.3305 3.431C13.7511 3.85157 13.7511 4.53344 13.3305 4.954L13.1725 5.11199C13.3953 5.5101 13.5734 5.93657 13.7001 6.38462H13.9231C14.5178 6.38462 15 6.86677 15 7.46154V8.53846C15 9.13323 14.5178 9.61539 13.9231 9.61539H13.7001C13.5734 10.0634 13.3953 10.4899 13.1725 10.888L13.3305 11.046C13.7511 11.4666 13.7511 12.1484 13.3305 12.569L12.569 13.3305C12.1484 13.7511 11.4666 13.7511 11.046 13.3305L10.888 13.1725C10.4899 13.3953 10.0634 13.5734 9.61539 13.7001V13.9231C9.61539 14.5178 9.13323 15 8.53846 15H7.46154C6.86677 15 6.38462 14.5178 6.38462 13.9231V13.7001C5.93657 13.5734 5.5101 13.3953 5.11199 13.1725L4.954 13.3305C4.53344 13.7511 3.85157 13.7511 3.431 13.3305L2.6695 12.569C2.24894 12.1484 2.24894 11.4666 2.6695 11.046L2.82749 10.888C2.60473 10.4899 2.42661 10.0634 2.29988 9.61539H2.07692C1.48215 9.61539 1 9.13323 1 8.53846V7.46154C1 6.86677 1.48215 6.38462 2.07692 6.38462H2.29988C2.42661 5.93657 2.60473 5.5101 2.82749 5.11199L2.6695 4.954C2.24894 4.53344 2.24894 3.85157 2.6695 3.431L3.431 2.6695C3.85157 2.24894 4.53344 2.24894 4.954 2.6695L5.11199 2.82749C5.5101 2.60473 5.93657 2.42661 6.38462 2.29988ZM8 10.1538C9.18954 10.1538 10.1538 9.18954 10.1538 8C10.1538 6.81046 9.18954 5.84615 8 5.84615C6.81046 5.84615 5.84615 6.81046 5.84615 8C5.84615 9.18954 6.81046 10.1538 8 10.1538Z" stroke="#31394D" stroke-width="1.5" stroke-linecap="round"/>
</svg>
