<svg width="156" height="30" viewBox="0 0 156 30" fill="none" xmlns="http://www.w3.org/2000/svg">
<path fill-rule="evenodd" clip-rule="evenodd" d="M13.6037 14.1753L13.5934 14.2027C12.8498 16.2371 11.4057 19.8164 10.2117 19.8011C9.7613 19.8011 9.44672 19.4646 9.44672 18.9828C9.44672 18.391 9.69802 17.4595 9.98212 16.4065C10.3516 15.0371 10.7765 13.462 10.7765 12.1607C10.7765 10.2869 9.66836 9.10144 8.05259 9.10144C6.22949 9.10144 4.52078 10.3557 3.33398 12.5813C3.39117 11.0211 3.49127 9.69034 3.6414 8.55842H3.74865C8.17413 8.55842 10.4119 6.22576 10.4119 3.67895C10.4119 1.76693 9.13215 0.283203 7.00878 0.283203C4.90685 0.283203 2.83352 1.77458 1.77541 6.27165L1.66428 6.24759C1.46909 6.20506 1.31836 6.17222 1.20345 6.17222C0.61005 6.17222 0.238281 6.6617 0.238281 7.14353C0.238281 7.60241 0.524255 8.08424 1.14625 8.2678C1.18934 8.28037 1.23456 8.29064 1.28076 8.30113L1.28081 8.30114C1.31893 8.3098 1.35771 8.31861 1.39649 8.32898C1.18201 9.87389 1.06046 11.6941 1.06046 13.8127C1.06046 16.0229 1.08906 18.3021 1.20345 20.5124C1.2535 21.4837 1.63242 22.0267 2.33306 22.0267C3.05515 22.0267 3.46981 21.5219 3.46981 20.5812C3.46981 20.0753 3.43763 19.578 3.40611 19.091C3.38618 18.7829 3.36651 18.479 3.35543 18.1797C3.49126 13.7744 6.24379 11.327 7.60218 11.327C8.19558 11.327 8.56735 11.7247 8.56735 12.5125C8.56735 13.2016 8.28053 14.237 7.9733 15.3462C7.619 16.6253 7.23756 18.0024 7.23756 19.0592C7.23756 20.7877 8.40291 22.0343 9.90429 22.0343C11.2601 22.0343 12.3427 21.1068 13.3151 19.4789C13.6379 20.9577 14.7739 21.9121 16.3887 21.9121C18.026 21.9121 19.4344 20.9791 20.564 19.0976C21.0287 21.1932 22.0153 21.9121 23.1378 21.9121C24.3934 21.9121 25.4223 20.8577 26.2966 19.3054C26.2928 19.7987 26.291 20.2985 26.291 20.8031C26.291 21.652 26.6914 22.0803 27.485 22.0803C28.1642 22.0803 28.5646 21.652 28.5646 20.8031V18.5698C28.6432 13.9045 30.9024 11.8625 32.1893 11.8625C32.9543 11.8625 33.2689 12.199 33.2689 13.1397C33.2689 13.6765 33.1854 14.3197 33.0903 15.0521C32.9645 16.0206 32.8185 17.1452 32.8185 18.3863C32.8185 20.7495 33.9266 21.935 35.571 21.935C36.9394 21.935 37.948 20.9642 38.9065 19.1503C39.56 20.6863 40.8722 21.6059 42.3767 21.6059C43.4777 21.6059 44.6717 21.0553 45.8156 19.7092C45.787 20.5275 45.7513 21.2541 45.7084 21.9042C45.2907 22.1864 44.8685 22.4489 44.4572 22.7046C42.5946 23.8625 40.954 24.8825 40.954 26.9749C40.954 28.3974 41.9192 29.6135 43.5635 29.6135C45.7513 29.6135 47.4743 27.3114 47.7888 23.6709L47.8317 23.0667C50.3847 21.1542 52.0239 17.9095 53.138 15.0797C53.1775 15.0094 53.2132 14.9314 53.2442 14.8453C53.6946 13.591 54.0378 12.5662 54.3738 11.5107C54.9172 11.7708 55.5106 11.9772 56.1612 12.0614C55.3604 14.0116 54.5168 16.2143 54.5168 18.1263C54.5168 20.3978 56.0182 22.0039 58.113 22.0039C59.7367 22.0039 60.9635 21.0894 62.0201 19.4307C62.3243 20.9457 63.4389 21.9042 64.883 21.9042C66.4129 21.9042 67.7499 21.1318 68.8509 19.671C68.8135 20.1685 68.781 20.6453 68.7505 21.0925C68.7284 21.4154 68.7074 21.7227 68.6865 22.0113C65.7266 23.7015 63.8606 25.1011 63.8606 26.9978C63.8606 28.3898 64.9616 29.5753 66.6632 29.5753C69.9233 29.5753 70.6597 25.6671 70.8599 23.6021C70.8742 23.4415 70.8885 23.2732 70.9028 23.0897C73.6053 21.1318 75.1495 18.1796 76.3864 14.8374C76.4364 14.6997 76.4579 14.5697 76.4579 14.4397C76.4579 13.8737 76.0146 13.4072 75.5356 13.4072C75.1996 13.4072 74.8564 13.6367 74.6276 14.1873C73.9413 15.9464 72.8546 18.3861 71.103 20.2293C71.1173 20.0305 71.1316 19.824 71.1459 19.6175C71.2403 18.1644 71.3587 16.5281 71.4794 14.8593L71.4796 14.8565C71.578 13.4959 71.678 12.1137 71.7678 10.7916C71.8322 9.91204 71.2316 9.4608 70.6382 9.4608C70.0949 9.4608 69.5587 9.85851 69.5015 10.5851L69.4723 10.9847C69.4089 11.8526 69.3408 12.7838 69.2727 13.7437C68.6293 18.4626 66.6846 19.6863 65.4478 19.6863C64.6256 19.6863 64.2038 19.2274 64.2038 17.866C64.2038 17.0434 64.3641 15.9956 64.5321 14.8973L64.5322 14.8972L64.5322 14.897L64.5322 14.8969C64.7172 13.6877 64.9116 12.4174 64.9116 11.3193C64.9116 10.0191 63.9464 9.01722 62.8954 9.01722C62.2734 9.01722 61.7944 9.53729 61.7944 10.1415C61.7944 10.5433 61.9926 10.7626 62.1944 10.9858C62.4036 11.2172 62.6166 11.4529 62.6166 11.9005C62.6166 12.3926 62.5095 13.0958 62.3803 13.9435L62.3803 13.9436L62.3802 13.944L62.3802 13.944L62.3307 14.27C61.5597 16.364 60.0985 19.7859 58.3846 19.7859C57.4195 19.7859 56.7975 19.1206 56.7975 17.9963C56.7975 16.5287 57.5812 14.6136 58.2062 13.0861C58.3434 12.751 58.4729 12.4345 58.5848 12.1455C58.785 11.6254 58.8994 11.2048 58.8994 10.8989C58.8994 10.2258 58.4704 9.7746 57.9056 9.7746C57.7475 9.7746 57.5988 9.82062 57.4304 9.87275C57.2104 9.94083 56.9567 10.0193 56.6044 10.0193C55.2175 10.0193 54.624 9.23159 54.2523 8.68857C54.0235 8.35971 53.7947 8.11497 53.2871 8.11497C52.6079 8.11497 52.2361 8.78035 52.2361 9.41514C52.2361 9.81284 52.3434 10.2335 52.658 10.4782C52.3929 11.5771 52.0295 12.7285 51.5963 13.9264C51.5521 14.0097 51.5123 14.1041 51.4779 14.2102C50.8416 16.1452 49.5762 18.6767 48.0462 20.2446C48.2607 17.3001 48.5324 13.499 48.5324 12.8183C48.5324 10.6998 46.3161 9.51431 44.2499 9.51431H44.2213C41.6078 9.51431 39.2229 11.6745 38.615 15.1077C37.8771 17.0422 36.7307 19.7214 35.8141 19.7017C35.4209 19.7017 35.0777 19.3423 35.0777 18.1874C35.0777 17.2543 35.1922 16.2686 35.3057 15.2912L35.3057 15.2911C35.4174 14.33 35.5281 13.3769 35.5281 12.4896C35.5281 10.8529 34.3985 9.63688 32.6111 9.63688C31.1955 9.63688 29.8729 10.5088 28.8148 12.2296C28.8648 11.7936 28.922 11.35 28.9864 10.8835C29.0007 10.7917 29.0078 10.6923 29.0078 10.6005C29.0078 9.9581 28.6575 9.49156 27.9354 9.49156C27.1919 9.49156 26.7987 9.88926 26.7129 10.5546C26.5883 11.5615 26.4955 12.7729 26.4291 14.1259C26.4182 14.1532 26.4078 14.1814 26.3979 14.2105C25.6043 16.5432 24.2745 19.6942 23.3451 19.6789C22.8876 19.6789 22.4657 19.2276 22.4657 16.4055C22.4657 14.799 22.6769 12.9233 22.8214 11.6394V11.6394L22.8214 11.6393C22.8592 11.3036 22.8924 11.0083 22.9162 10.7689C23.002 9.91993 22.43 9.4687 21.8652 9.4687C21.3218 9.4687 20.7856 9.80521 20.6998 10.5318L20.6727 10.7687C20.5656 11.705 20.45 12.7142 20.371 13.7363C19.8348 18.3558 17.9688 19.6942 16.7033 19.6942C15.9383 19.6942 15.4879 19.2047 15.4879 17.8739C15.4879 17.0513 15.6418 16.0034 15.803 14.9051L15.803 14.9051C15.9806 13.6958 16.1671 12.4254 16.1671 11.3272C16.1671 10.027 15.2091 9.02511 14.1581 9.02511C13.529 9.02511 13.05 9.54518 13.05 10.1494C13.05 10.5512 13.2482 10.7778 13.4499 11.0085C13.6591 11.2477 13.8722 11.4913 13.8722 11.939C13.8722 12.3507 13.7787 12.9855 13.6626 13.7738L13.6626 13.7738L13.6623 13.7758L13.662 13.7774C13.6431 13.906 13.6235 14.0388 13.6037 14.1753ZM4.04177 6.56227H3.99887C4.71382 3.35008 5.89347 2.50115 7.01593 2.4935C7.78806 2.4935 8.23848 3.04416 8.23848 3.77073C8.23848 5.52978 6.22234 6.56227 4.04177 6.56227ZM46.2517 13.063C46.266 13.8661 46.1874 14.5085 46.0658 15.2657C45.1865 18.692 43.7709 19.3956 42.7199 19.388C41.5331 19.388 40.7395 18.539 40.7395 16.7188C40.7395 13.7208 42.5769 11.7475 44.5073 11.7475C45.4438 11.7475 46.0801 12.26 46.2517 13.063ZM43.0845 26.7607C43.0845 25.8506 44.2356 25.0476 45.4724 24.2675C45.0721 26.9902 44.4143 27.3955 43.7923 27.3955C43.3705 27.3955 43.0845 27.1584 43.0845 26.7607ZM66.0698 26.6996C66.0698 25.996 66.9634 25.2464 68.5077 24.3057C68.2575 26.4548 67.6855 27.365 66.8062 27.365C66.3271 27.365 66.0698 27.0973 66.0698 26.6996ZM93.9623 19.4874C94.2875 20.9613 95.4222 21.9121 97.034 21.9121C98.6712 21.9121 100.08 20.9791 101.209 19.0976C101.674 21.1932 102.661 21.9121 103.783 21.9121C105.072 21.9121 106.122 20.8012 107.011 19.1812C107.669 20.6986 108.974 21.6059 110.468 21.6059C111.569 21.6059 112.763 21.0553 113.907 19.7092C113.878 20.5275 113.842 21.2541 113.8 21.9042C113.382 22.1862 112.96 22.4485 112.549 22.704L112.549 22.7042L112.549 22.7044L112.548 22.7046C110.686 23.8626 109.045 24.8825 109.045 26.9749C109.045 28.3974 110.01 29.6135 111.655 29.6135C113.842 29.6135 115.565 27.3114 115.88 23.6709L115.923 23.0667C117.355 21.994 118.499 20.5022 119.425 18.8995C120.038 20.5857 121.409 21.6059 122.994 21.6059C124.095 21.6059 125.289 21.0553 126.433 19.7092C126.404 20.5275 126.369 21.2541 126.326 21.9042C125.908 22.1864 125.486 22.4488 125.074 22.7046C123.212 23.8625 121.571 24.8825 121.571 26.9749C121.571 28.3974 122.536 29.6135 124.181 29.6135C126.369 29.6135 128.092 27.3114 128.406 23.6709L128.449 23.0667C130.033 21.88 131.266 20.1802 132.239 18.3849C132.938 20.7239 134.749 22.0804 137.136 22.0804C140.189 22.0804 142.495 19.8303 144.246 15.0048C144.271 14.9551 144.293 14.9019 144.313 14.8453C144.764 13.591 145.107 12.5662 145.443 11.5107C145.986 11.7708 146.58 11.9772 147.23 12.0614C146.43 14.0116 145.586 16.2143 145.586 18.1263C145.586 20.3978 147.094 22.0039 149.189 22.0039C151.963 22.0039 153.579 19.3347 155.166 14.8453C155.223 14.6923 155.245 14.547 155.245 14.4093C155.245 13.8204 154.802 13.3921 154.33 13.3921C153.979 13.3921 153.622 13.6292 153.415 14.2105C152.65 16.2984 151.177 19.7859 149.447 19.7859C148.481 19.7859 147.859 19.1206 147.859 17.9963C147.859 16.5287 148.643 14.6136 149.268 13.0861C149.405 12.751 149.535 12.4345 149.647 12.1455C149.847 11.6254 149.961 11.2048 149.961 10.8989C149.961 10.2258 149.532 9.7746 148.968 9.7746C148.81 9.7746 148.661 9.82062 148.492 9.87275C148.272 9.94083 148.019 10.0193 147.666 10.0193C146.279 10.0193 145.686 9.23159 145.314 8.68857C145.086 8.35971 144.857 8.11497 144.349 8.11497C143.67 8.11497 143.298 8.78035 143.298 9.41514C143.298 9.81284 143.413 10.2335 143.727 10.4782C143.453 11.6133 143.075 12.8046 142.622 14.0452C142.599 14.0946 142.576 14.1471 142.555 14.2029C141.818 16.2067 140.26 19.8777 137.357 19.8701C135.498 19.8701 134.333 18.7458 134.197 16.5279C134.984 16.9026 135.756 17.0785 136.649 17.0785C139.059 17.0785 140.818 15.1971 140.818 13.048C140.818 10.9524 139.373 9.40753 137.193 9.40753C134.817 9.40753 132.751 11.1869 132.121 14.136C132.112 14.1601 132.103 14.1848 132.095 14.2102C131.459 16.1452 130.201 18.6767 128.663 20.2446C128.878 17.3001 129.15 13.499 129.15 12.8183C129.15 10.6998 126.933 9.51431 124.867 9.51431H124.839C122.21 9.51431 119.813 11.6992 119.222 15.1666C118.528 16.9216 117.431 18.9246 116.137 20.2446C116.352 17.3001 116.624 13.499 116.624 12.8183C116.624 10.6998 114.407 9.51431 112.341 9.51431H112.312C109.665 9.51431 107.263 11.72 106.687 15.2161C105.894 17.3552 104.791 19.6921 103.99 19.6789C103.533 19.6789 103.111 19.2276 103.111 16.4055C103.111 14.799 103.322 12.9233 103.467 11.6394L103.467 11.6389L103.467 11.633C103.505 11.2998 103.538 11.0068 103.561 10.7689C103.647 9.91993 103.075 9.4687 102.51 9.4687C101.974 9.4687 101.438 9.80521 101.352 10.5318L101.325 10.7692L101.325 10.7698L101.325 10.7702L101.325 10.771L101.325 10.7716C101.218 11.7071 101.102 12.7152 101.023 13.7363C100.494 18.3558 98.6212 19.6942 97.3629 19.6942C96.5907 19.6942 96.1403 19.2047 96.1403 17.8739C96.1403 17.0513 96.2942 16.0034 96.4554 14.9051C96.633 13.6958 96.8195 12.4254 96.8195 11.3272C96.8195 10.027 95.8543 9.02511 94.8034 9.02511C94.1742 9.02511 93.6952 9.54518 93.6952 10.1494C93.6952 10.5512 93.8934 10.7778 94.0952 11.0085C94.3044 11.2477 94.5174 11.4913 94.5174 11.939C94.5174 12.3507 94.4239 12.9854 94.3078 13.7736L94.3078 13.7738L94.2825 13.9459L94.249 14.1746L94.2385 14.2027C93.5021 16.2371 92.0579 19.8164 90.8639 19.8011C90.4135 19.8011 90.0989 19.4646 90.0989 18.9828C90.0989 18.391 90.3502 17.4595 90.6343 16.4065C91.0038 15.0371 91.4287 13.462 91.4287 12.1607C91.4287 10.2869 90.3206 9.10144 88.7048 9.10144C86.8817 9.10144 85.173 10.3557 83.9862 12.5813C84.0434 11.0211 84.1435 9.69034 84.2936 8.55842H84.4009C88.8263 8.55842 91.0641 6.22576 91.0641 3.67895C91.0641 1.76693 89.7844 0.283203 87.661 0.283203C85.5591 0.283203 83.4857 1.77458 82.4276 6.27165L82.3165 6.24759C82.1213 6.20506 81.9706 6.17222 81.8557 6.17222C81.2551 6.17222 80.8905 6.6617 80.8905 7.14353C80.8905 7.60241 81.1765 8.08424 81.7985 8.2678C81.8416 8.28037 81.8868 8.29065 81.933 8.30114C81.9711 8.3098 82.0099 8.31861 82.0487 8.32898C81.8342 9.87389 81.7127 11.6941 81.7127 13.8127C81.7127 16.0229 81.7413 18.3021 81.8557 20.5124C81.9057 21.4837 82.2846 22.0267 82.9853 22.0267C83.7074 22.0267 84.122 21.5219 84.122 20.5812C84.122 20.0754 84.0899 19.5782 84.0584 19.0914V19.0914V19.0913L84.0583 19.0909V19.0908V19.0906L84.0583 19.0904C84.0384 18.7825 84.0187 18.4788 84.0076 18.1797C84.1435 13.7744 86.896 11.327 88.2544 11.327C88.8478 11.327 89.2196 11.7247 89.2196 12.5125C89.2196 13.2016 88.9327 14.237 88.6255 15.3462L88.6255 15.3463C88.2712 16.6254 87.8898 18.0024 87.8898 19.0592C87.8898 20.7877 89.0551 22.0343 90.5565 22.0343C91.9099 22.0343 92.9912 21.1101 93.9623 19.4874ZM84.6439 6.56227H84.6868C86.8674 6.56227 88.8835 5.52978 88.8835 3.77073C88.8835 3.04416 88.4331 2.4935 87.6681 2.4935C86.5457 2.50115 85.366 3.35008 84.6439 6.56227ZM114.157 15.2657C114.279 14.5085 114.357 13.8661 114.343 13.063C114.171 12.26 113.535 11.7475 112.598 11.7475C110.668 11.7475 108.831 13.7208 108.831 16.7188C108.831 18.539 109.624 19.388 110.818 19.388C111.862 19.3956 113.278 18.692 114.157 15.2657ZM113.571 24.2675C112.334 25.0476 111.183 25.8506 111.183 26.7607C111.183 27.1584 111.469 27.3955 111.891 27.3955C112.513 27.3955 113.163 26.9902 113.571 24.2675ZM126.869 13.063C126.883 13.8661 126.805 14.5085 126.683 15.2657C125.804 18.692 124.388 19.3956 123.344 19.388C122.15 19.388 121.357 18.539 121.357 16.7188C121.357 13.7208 123.194 11.7475 125.125 11.7475C126.061 11.7475 126.697 12.26 126.869 13.063ZM123.709 26.7607C123.709 25.8506 124.86 25.0476 126.097 24.2675C125.689 26.9902 125.039 27.3955 124.417 27.3955C123.995 27.3955 123.709 27.1584 123.709 26.7607ZM134.354 14.5623C135.055 14.8912 135.899 15.0518 136.599 15.0518C137.822 15.0518 138.608 14.2029 138.608 13.1398C138.608 12.1991 138.072 11.6255 137.25 11.6255C135.977 11.6255 134.776 12.6885 134.354 14.5623Z" fill="white"/>
</svg>
